<svg xmlns="http://www.w3.org/2000/svg" viewBox="0 0 25 24" fill="currentColor" aria-hidden="true" data-slot="icon">
    <path fill-rule="evenodd" d="M8.774 2.459c-.649-1.945-3.4-1.945-4.048 0A2.4 2.4 0 0 1 3.21 3.976c-1.945.649-1.945 3.4 0 4.048A2.4 2.4 0 0 1 4.726 9.54c.649 1.945 3.4 1.945 4.048 0a2.4 2.4 0 0 1 1.517-1.517c1.945-.649 1.945-3.4 0-4.048A2.4 2.4 0 0 1 8.774 2.46m-2.15.632c.016-.048.035-.063.044-.07A.15.15 0 0 1 6.75 3c.038 0 .066.011.082.022.01.006.028.02.044.07A4.4 4.4 0 0 0 9.66 5.873c.048.016.063.035.07.044.01.016.021.044.021.082a.15.15 0 0 1-.022.082c-.006.01-.02.028-.07.044A4.4 4.4 0 0 0 6.877 8.91c-.016.048-.035.063-.044.07A.15.15 0 0 1 6.75 9a.15.15 0 0 1-.082-.022c-.01-.006-.028-.02-.044-.07A4.4 4.4 0 0 0 3.84 6.127c-.048-.016-.063-.035-.07-.044A.15.15 0 0 1 3.75 6c0-.038.011-.066.022-.082.006-.01.02-.028.07-.044A4.4 4.4 0 0 0 6.623 3.09M18.58 9.04c-.906-2.72-4.753-2.72-5.66 0a4.95 4.95 0 0 1-3.13 3.13c-2.72.906-2.72 4.754 0 5.66a4.95 4.95 0 0 1 3.13 3.13c.906 2.72 4.754 2.72 5.66 0a4.95 4.95 0 0 1 3.13-3.13c2.72-.906 2.72-4.753 0-5.66a4.95 4.95 0 0 1-3.13-3.13m-3.763.632c.3-.896 1.567-.896 1.866 0a6.95 6.95 0 0 0 4.395 4.395c.896.3.896 1.567 0 1.866a6.95 6.95 0 0 0-4.395 4.395c-.3.896-1.567.896-1.866 0a6.95 6.95 0 0 0-4.395-4.395c-.896-.3-.896-1.567 0-1.866a6.95 6.95 0 0 0 4.395-4.395" clip-rule="evenodd"/>
</svg>
