<svg xmlns="http://www.w3.org/2000/svg" viewBox="0 0 25 24" fill="currentColor" aria-hidden="true" data-slot="icon">
    <path fill-rule="evenodd" d="M10.624 2.808a4 4 0 0 0-5.656 0l-.536.535c-.738.738-1.243 1.845-.955 3.044.441 1.837 1.77 5.186 5.733 9.149s7.312 5.291 9.15 5.733c1.198.288 2.304-.217 3.043-.955l.535-.536a4 4 0 0 0 0-5.657l-.929-.929a4 4 0 0 0-4.805-.648l-.097.054c-.641.365-1.378.335-1.9-.042-.421-.305-.824-.626-1.108-.91-.283-.283-.604-.686-.909-1.107-.378-.522-.408-1.259-.043-1.9l.055-.097a4 4 0 0 0-.649-4.806zM6.382 4.222a2 2 0 0 1 2.828 0l.93.929a2 2 0 0 1 .323 2.402l-.054.097c-.705 1.24-.73 2.83.16 4.061.328.453.721.955 1.116 1.35.395.394.897.788 1.35 1.115 1.23.89 2.821.866 4.06.161l.097-.055a2 2 0 0 1 2.403.325l.929.929a2 2 0 0 1 0 2.828l-.536.535c-.386.387-.813.51-1.162.425-1.468-.353-4.492-1.493-8.202-5.203S5.774 7.388 5.421 5.92c-.083-.348.038-.775.425-1.162z" clip-rule="evenodd"/>
</svg>
