<svg xmlns="http://www.w3.org/2000/svg" viewBox="0 0 25 24" fill="currentColor" aria-hidden="true" data-slot="icon">
    <path d="M23.457 1.293a1 1 0 0 1 0 1.414l-20 20a1 1 0 0 1-1.414-1.414l20-20a1 1 0 0 1 1.414 0M12.75 8q.546.001 1.06.112L11.75 10.17a3 3 0 0 0-1.83 1.831L7.861 14.06A5 5 0 0 1 12.75 8M12.75 16c-.35 0-.688-.06-1-.17l-1.502 1.5a5 5 0 0 0 6.832-6.832L15.58 12a3 3 0 0 1-2.83 4M18.296 10.042a.448.448 0 0 1-.823.063L19.21 8.37a.448.448 0 0 1-.064.822c-.4.134-.715.449-.85.85"/>
    <path d="m17.336 3.672.457.457-1.414 1.414-.457-.457a2 2 0 0 0-1.415-.586h-3.514a2 2 0 0 0-1.415.586l-.685.686a4 4 0 0 1-1.343.885L5.007 7.674A2 2 0 0 0 3.75 9.531V17.5a2 2 0 0 0 .087.585l-1.501 1.5A4 4 0 0 1 1.75 17.5V9.531a4 4 0 0 1 2.514-3.714L6.807 4.8a2 2 0 0 0 .671-.443l.686-.685A4 4 0 0 1 10.993 2.5h3.514a4 4 0 0 1 2.829 1.172M19.75 19.5H8.078l-2 2H19.75a4 4 0 0 0 4-4V9.531a4 4 0 0 0-2.154-3.549l-1.524 1.524.42.168a2 2 0 0 1 1.258 1.857V17.5a2 2 0 0 1-2 2"/>
</svg>
