<svg xmlns="http://www.w3.org/2000/svg" viewBox="0 0 25 24" fill="currentColor" aria-hidden="true" data-slot="icon">
    <path fill-rule="evenodd" d="M8.75 3v2h.5a2.5 2.5 0 0 1 2.5 2.5v3a2.5 2.5 0 0 1-2.5 2.5h-.5v8a1 1 0 1 1-2 0v-8h-.5a2.5 2.5 0 0 1-2.5-2.5v-3A2.5 2.5 0 0 1 6.25 5h.5V3a1 1 0 0 1 2 0m-2.5 4h3a.5.5 0 0 1 .5.5v3a.5.5 0 0 1-.5.5h-3a.5.5 0 0 1-.5-.5v-3a.5.5 0 0 1 .5-.5M16.75 19v2a1 1 0 1 0 2 0v-2h.5a2.5 2.5 0 0 0 2.5-2.5v-6a2.5 2.5 0 0 0-2.5-2.5h-.5V3a1 1 0 1 0-2 0v5h-.5a2.5 2.5 0 0 0-2.5 2.5v6a2.5 2.5 0 0 0 2.5 2.5zm-.5-9a.5.5 0 0 0-.5.5v6a.5.5 0 0 0 .5.5h3a.5.5 0 0 0 .5-.5v-6a.5.5 0 0 0-.5-.5z" clip-rule="evenodd"/>
</svg>
