<svg xmlns="http://www.w3.org/2000/svg" viewBox="0 0 22 12" fill="currentColor" aria-hidden="true" data-slot="icon">
    <path d="M17.707 9.032c-.448 0-.834.333-.894.752a.91.91 0 1 0 1.801.157.91.91 0 0 0-.907-.91m0 1.13a.22.22 0 0 1-.222-.22l.004-.036a.22.22 0 0 1 .218-.187c.11 0 .2.079.219.204v.018c0 .123-.096.22-.22.22M8.222 9.032c-.447 0-.833.333-.894.752a.91.91 0 1 0 1.802.157.9.9 0 0 0-.907-.91m0 1.13A.22.22 0 0 1 8 9.941l.004-.036a.22.22 0 0 1 .218-.187c.11 0 .2.079.22.204v.018c0 .123-.096.22-.22.22M4.208 9.032c-.448 0-.834.333-.894.752a.91.91 0 1 0 1.801.157.91.91 0 0 0-.907-.91m0 1.13a.22.22 0 0 1-.222-.22l.004-.036a.22.22 0 0 1 .218-.187c.11 0 .2.079.219.204v.018c0 .123-.096.22-.22.22"/>
    <path d="M21.288 6.086q-.001-.01-.004-.02v-.002l-2.02-4.641A.87.87 0 0 0 18.47.9h-3.465a.344.344 0 0 0-.343.344v6.016h-1.294a4.14 4.14 0 0 0 1.004-2.714 4.15 4.15 0 0 0-1.658-3.334.34.34 0 0 0-.207-.07h-1.005V.676a.344.344 0 0 0-.343-.344H8.364a.344.344 0 0 0-.344.344v.469H2.48a.34.34 0 0 0-.207.07A4.15 4.15 0 0 0 .616 4.546c0 1.015.36 1.965 1.004 2.714h-.088a.344.344 0 0 0-.344.344V9.94c0 .19.154.344.344.344H2.4c.16.85.909 1.497 1.808 1.497a1.84 1.84 0 0 0 1.804-1.498h.402a1.839 1.839 0 0 0 3.612 0H15.9a1.84 1.84 0 0 0 3.612 0h.857c.52 0 .944-.422.944-.94v-3.14l-.001-.005a.3.3 0 0 0-.024-.112m-.962-.5-2.277-.876V2.75h1.043zM8.708 1.02h2.106v.125H8.708zM1.303 4.547c0-1.066.47-2.05 1.296-2.716h9.789a3.46 3.46 0 0 1 1.296 2.716 3.46 3.46 0 0 1-1.296 2.714h-9.79a3.46 3.46 0 0 1-1.295-2.714m.573 3.401H14.66v1.648h-4.64A1.82 1.82 0 0 0 8.225 8.1c-.89 0-1.655.65-1.804 1.496h-.413A1.82 1.82 0 0 0 4.209 8.1c-.89 0-1.655.65-1.803 1.496h-.53zm2.333 3.146a1.155 1.155 0 0 1-1.155-1.151v-.005c0-.06.004-.113.016-.171.081-.559.571-.98 1.14-.98.574 0 1.05.412 1.138 1.003a1 1 0 0 1 .012.146v.008c0 .634-.517 1.15-1.15 1.15m4.015 0a1.155 1.155 0 0 1-1.156-1.151c0-.08.007-.128.017-.176.081-.559.57-.98 1.14-.98.574 0 1.05.412 1.137 1.001.008.037.012.09.012.15v.005c0 .634-.515 1.15-1.15 1.15m9.485 0a1.155 1.155 0 0 1-1.156-1.151V9.94c0-.06.004-.114.016-.173.082-.559.571-.98 1.14-.98.574 0 1.05.412 1.138 1.003a1.152 1.152 0 0 1-1.138 1.304m2.66-1.498h-.863A1.82 1.82 0 0 0 17.709 8.1c-.89 0-1.656.65-1.804 1.496h-.557V1.589h3.12c.072 0 .137.043.166.108l.16.366h-.912a.52.52 0 0 0-.52.52v2.243c0 .213.134.408.333.484l2.93 1.129v.105h-.914a.344.344 0 0 0-.344.343v.57c0 .383.312.695.696.695h.562v1.19c0 .14-.115.254-.256.254m.256-2.365v.23l-.57-.005v-.225z"/>
    <path d="m21.427 6.2-.006.006h.003zM3.054 9.94v-.002q0-.044.003-.085l.013-.086c.081-.559.571-.98 1.14-.98l.106.005c.526.047.95.444 1.032.998a1 1 0 0 1 .012.146v.008l-.006.117a1.153 1.153 0 0 1-1.145 1.033v-.2c.491 0 .896-.375.946-.853l.005-.097-.001-.005v-.005a1 1 0 0 0-.007-.102l-.003-.014a.946.946 0 0 0-.94-.83c-.47 0-.874.349-.94.808l-.003.01-.012.133v.005c0 .523.429.95.955.95v.2l-.118-.006A1.156 1.156 0 0 1 3.06 10.06l-.005-.118zm4.014.003q0-.059.005-.1l.012-.076c.081-.559.57-.98 1.14-.98l.106.005c.526.047.95.444 1.031.996.008.037.012.09.012.15v.005l-.005.117c-.06.58-.55 1.034-1.145 1.034v-.2a.95.95 0 0 0 .945-.854l.005-.098.001.016v-.019l-.009-.11-.002-.012a.945.945 0 0 0-.94-.83c-.47 0-.874.35-.941.809l-.002.009a.6.6 0 0 0-.013.137c0 .524.429.951.956.952v.2l-.118-.006a1.156 1.156 0 0 1-1.031-1.027zm9.485-.003q0-.046.004-.087l.012-.086c.082-.559.571-.98 1.14-.98l.106.005c.526.047.95.444 1.032.998a1 1 0 0 1 .012.153l-.006.117c-.06.58-.55 1.034-1.144 1.034v-.2a.953.953 0 0 0 .946-.854l.005-.098a1 1 0 0 0-.008-.11l-.003-.014a.946.946 0 0 0-.94-.83c-.47 0-.875.349-.942.808l-.002.01a.7.7 0 0 0-.012.134v.004c0 .523.428.95.956.95v.2l-.119-.006a1.156 1.156 0 0 1-1.03-1.027l-.007-.118zm.198.024v.008zM5.168 9.882l-.002.01-.001.007v-.004l.004-.016zm9.494-1.934v1.648h-4.64l-.036-.16A1.815 1.815 0 0 0 8.225 8.1c-.835 0-1.56.57-1.77 1.34l-.035.156h-.413l-.038-.16A1.815 1.815 0 0 0 4.21 8.1c-.834 0-1.559.57-1.768 1.34l-.035.156h-.53V7.948zm.687-6.36h3.12l.053.009c.05.015.091.051.113.1l.16.366h-.912v-.2h.606l-.032-.074h-2.908v7.607h.197A2.04 2.04 0 0 1 17.709 7.9c.934 0 1.718.62 1.956 1.497h.705v.2h-.864l-.037-.16a1.81 1.81 0 0 0-1.594-1.33l-.166-.006c-.835 0-1.56.57-1.77 1.34l-.034.156h-.557zm5.077 7.754v-.99h-.362a.897.897 0 0 1-.895-.896v-.568c0-.3.243-.544.543-.544v.2l-.069.007a.344.344 0 0 0-.275.336v.57l.014.14c.056.271.27.486.542.542l.14.013h.562v1.19l-.005.052a.26.26 0 0 1-.2.197l-.05.005v-.2a.056.056 0 0 0 .055-.054M9.201 8.148c.474.26.832.703.98 1.248h4.28V8.148zm-4.016 0c.474.26.833.703.98 1.248h.095c.144-.537.513-.986.995-1.248zm-3.11 1.248h.17c.144-.537.513-.986.996-1.248H2.076zm18.55-2.165v.23l-.57-.005v-.225zm-7.141-2.684c0-.983-.425-1.889-1.17-2.516H2.672a3.26 3.26 0 0 0-1.169 2.516A3.26 3.26 0 0 0 2.671 7.06h9.644a3.26 3.26 0 0 0 1.169-2.514M12.506.943q.136.001.253.064l.075.047.202.162a4.33 4.33 0 0 1 1.424 2.347V1.245c0-.3.244-.544.544-.544v.2a.344.344 0 0 0-.343.344v6.016h-1.294a4.13 4.13 0 0 0 1-2.525l.004-.19a4.15 4.15 0 0 0-1.658-3.333.34.34 0 0 0-.151-.065l-.056-.004zm1.954 4.588a4.3 4.3 0 0 1-.684 1.53h.684zm2.702-.706V2.583a.72.72 0 0 1 .72-.72v.2l-.105.011a.52.52 0 0 0-.415.51v2.242l.006.078c.028.182.153.34.327.406l2.93 1.129v.105h-.914v-.2h.11l-2.197-.848a.72.72 0 0 1-.462-.67m4.307 1.309q.002-.003.003-.004.005-.016.006-.03zm-.18-.07-.005.002v-.002zM18.469.7c.424 0 .809.252.979.642l2.011 4.626-.01-.016-.166.11-.08-.182-1.939-4.458a.87.87 0 0 0-.668-.512l-.127-.01zM21.472 6l.003.015-.009-.028zm-.085-.105-.002-.002zm-1.062-.308-2.277-.877V2.75h1.043zM18.25 4.572l1.7.656-.989-2.277h-.711zM11.5.675a.344.344 0 0 0-.274-.337l-.07-.007v-.2c.301 0 .545.244.545.544v.268h.804v.2h-1.005zm-3.68 0c0-.3.242-.544.543-.544v.2a.344.344 0 0 0-.344.344v.469H2.48l.001-.2h5.34zm2.993.469H8.708v-.125h2.106zM18.468.7v.2h-3.463v-.2zm-7.31-.57v.2H8.364v-.2zm10.354 9.21c0 .591-.45 1.078-1.026 1.136l-.116.006h-.699a2.04 2.04 0 0 1-1.962 1.498c-.94 0-1.73-.636-1.967-1.498h-5.556a2.04 2.04 0 0 1-1.962 1.498c-.94 0-1.729-.636-1.967-1.498h-.086a2.039 2.039 0 0 1-3.93 0h-.71a.544.544 0 0 1-.543-.544V7.604c0-.202.111-.377.275-.47a4.34 4.34 0 0 1-.847-2.587c0-1.384.634-2.659 1.737-3.493l.074-.047a.55.55 0 0 1 .254-.064v.2l-.056.005a.34.34 0 0 0-.152.065l-.192.154a4.14 4.14 0 0 0-1.465 3.18l.004.19a4.14 4.14 0 0 0 1 2.524h-.088a.344.344 0 0 0-.344.344V9.94l.007.069c.027.134.133.24.267.267l.07.008H2.4c.15.797.818 1.415 1.641 1.49l.167.007a1.84 1.84 0 0 0 1.804-1.498h.402c.151.798.818 1.416 1.642 1.49l.167.008c.897 0 1.643-.647 1.804-1.498H15.9c.15.798.818 1.416 1.641 1.49l.168.008a1.84 1.84 0 0 0 1.803-1.498h.857l.096-.005a.944.944 0 0 0 .843-.84l.005-.096V6.203l-.001-.005a.3.3 0 0 0-.024-.112l-.004-.02.005-.003h.193V6.04l-.002-.009-.004-.016.006.016v.01q.017.049.023.11l.002.006.004.038v.003l.001.005zm-7.834-4.596a3.46 3.46 0 0 1-1.14 2.387l-.15.129h-9.79l-.15-.13a3.45 3.45 0 0 1-1.139-2.386l-.006-.198c0-1.066.47-2.05 1.296-2.716h9.789a3.46 3.46 0 0 1 1.296 2.716z"/>
    <path fill-rule="evenodd" d="m6.787 5.305-.015-.145q0 .075.015.145M8.028 3.266c.344.518.874 1.395.874 1.894l-.007.143A1.41 1.41 0 0 1 7.493 6.57l-.136-.007q.067.007.136.007a1.41 1.41 0 0 0 1.41-1.41c0-.665-.942-2.002-1.131-2.264zm-.813-.37-.256.37c-.345.518-.874 1.395-.875 1.894 0-.666.942-2.003 1.13-2.265M6.085 5.16l.006.135a1 1 0 0 1-.007-.135" clip-rule="evenodd"/>
    <path fill-rule="evenodd" d="M7.772 2.895c-.129-.179-.428-.179-.557 0l-.256.371c-.345.518-.874 1.395-.875 1.894l.007.135a1.41 1.41 0 0 0 1.266 1.267l.136.007c.729 0 1.33-.556 1.402-1.266l.007-.143c0-.5-.53-1.376-.874-1.894zm.196 2.089a.6.6 0 0 1 .047.176.523.523 0 0 1-1.043 0 .6.6 0 0 1 .046-.176c.034-.092.085-.205.15-.331.088-.175.202-.37.325-.57.123.2.238.395.327.57.064.126.114.239.148.33m-1.181.321-.015-.145q0 .075.015.145" clip-rule="evenodd"/>
    <path fill-rule="evenodd" d="M9.102 5.16a1.61 1.61 0 0 1-1.608 1.609c-.888 0-1.61-.722-1.61-1.61 0-.205.071-.443.165-.673.096-.234.225-.48.357-.71.263-.458.55-.864.646-.997l.044-.053a.55.55 0 0 1 .398-.165.54.54 0 0 1 .44.218l.26.376c.118.175.256.391.388.62.131.23.26.477.355.71.094.23.165.469.165.675m-3.018 0c0-.666.942-2.003 1.13-2.265.13-.179.43-.179.558 0 .189.262 1.13 1.6 1.13 2.265a1.41 1.41 0 0 1-1.545 1.402H7.35a1.41 1.41 0 0 1-1.258-1.259v-.008a1 1 0 0 1-.007-.135" clip-rule="evenodd"/>
</svg>
