<svg xmlns="http://www.w3.org/2000/svg" viewBox="0 0 25 24" fill="currentColor" aria-hidden="true" data-slot="icon">
    <path d="M11.517 10.773a1.25 1.25 0 1 0-1.768-1.768 1.25 1.25 0 0 0 1.768 1.768M15.76 13.248a1.25 1.25 0 1 1-1.769 1.767 1.25 1.25 0 0 1 1.768-1.767M9.922 13.414a1 1 0 0 0 1.414 1.415l4.243-4.243a1 1 0 0 0-1.414-1.414z"/>
    <path fill-rule="evenodd" d="M15.252 2.029a3.6 3.6 0 0 0-5.004 0 1.6 1.6 0 0 1-1.334.434 3.6 3.6 0 0 0-4.049 2.94c-.085.486-.39.905-.825 1.136a3.6 3.6 0 0 0-1.546 4.76c.217.442.217.96 0 1.403A3.6 3.6 0 0 0 4.04 17.46c.436.23.74.65.825 1.135a3.6 3.6 0 0 0 4.049 2.941c.488-.069.98.091 1.335.434a3.6 3.6 0 0 0 5.003 0 1.6 1.6 0 0 1 1.335-.434 3.6 3.6 0 0 0 4.048-2.94c.085-.486.39-.905.825-1.136a3.6 3.6 0 0 0 1.546-4.76 1.6 1.6 0 0 1 0-1.403A3.6 3.6 0 0 0 21.46 6.54a1.6 1.6 0 0 1-.825-1.135 3.6 3.6 0 0 0-4.048-2.941 1.6 1.6 0 0 1-1.335-.434M11.64 3.466c.62-.599 1.603-.599 2.223 0a3.6 3.6 0 0 0 3.005.977c.854-.12 1.65.457 1.798 1.306a3.6 3.6 0 0 0 1.858 2.557 1.6 1.6 0 0 1 .687 2.114 3.6 3.6 0 0 0 0 3.16c.378.775.075 1.71-.687 2.114a3.6 3.6 0 0 0-1.858 2.557 1.6 1.6 0 0 1-1.798 1.306 3.6 3.6 0 0 0-3.005.977c-.62.6-1.603.6-2.223 0a3.6 3.6 0 0 0-3.006-.977 1.6 1.6 0 0 1-1.798-1.306 3.6 3.6 0 0 0-1.857-2.557 1.6 1.6 0 0 1-.687-2.114 3.6 3.6 0 0 0 0-3.16 1.6 1.6 0 0 1 .687-2.114A3.6 3.6 0 0 0 6.835 5.75a1.6 1.6 0 0 1 1.798-1.306 3.6 3.6 0 0 0 3.006-.977" clip-rule="evenodd"/>
</svg>
