<svg xmlns="http://www.w3.org/2000/svg" viewBox="0 0 25 24" fill="currentColor" aria-hidden="true" data-slot="icon">
    <path d="M5.817 3A3.567 3.567 0 0 0 2.25 6.567V17a4 4 0 0 0 4 4h7a1 1 0 1 0 0-2h-7a2 2 0 0 1-2-2V6.567C4.25 5.702 4.952 5 5.817 5h2.517l.01.004c.028.012.12.05.29.167.239.168.519.415.823.715.283.279.562.577.829.86l.05.054c.264.283.544.581.772.782.162.142.392.279.572.37.101.052.218.106.339.149.097.035.292.099.516.099h5.716c1.104 0 1.999.895 1.999 2v2.3a1 1 0 1 0 2 0v-2.3c0-2.209-1.789-4-3.999-4H12.65a1.4 1.4 0 0 1-.193-.104l-.037-.025a12 12 0 0 1-.624-.639l-.055-.058a31 31 0 0 0-.88-.914 9 9 0 0 0-1.082-.928C9.44 3.295 8.934 3 8.364 3z"/>
    <path fill-rule="evenodd" d="M21.917 16.667a2.667 2.667 0 1 0-5.334 0v.224A2.33 2.33 0 0 0 15.25 19v1.667a2 2 0 0 0 2 2h4a2 2 0 0 0 2-2V19c0-.93-.545-1.734-1.333-2.109zm-3.334 0a.667.667 0 0 1 1.334 0zM17.25 19c0-.184.15-.333.333-.333h3.334c.184 0 .333.149.333.333v1.667h-4z" clip-rule="evenodd"/>
</svg>
