<svg xmlns="http://www.w3.org/2000/svg" viewBox="0 0 25 24" fill="currentColor" aria-hidden="true" data-slot="icon">
    <path d="M13.457 2.293a1 1 0 0 0-1.414 0l-3 3a1 1 0 0 0 1.414 1.414l1.293-1.293V11H6.164l1.293-1.293a1 1 0 0 0-1.414-1.414l-3 3a1 1 0 0 0 0 1.414l3 3a1 1 0 0 0 1.414-1.414L6.164 13h5.586v5.586l-1.293-1.293a1 1 0 0 0-1.414 1.414l3 3a1 1 0 0 0 1.414 0l3-3a1 1 0 0 0-1.414-1.414l-1.293 1.293V13h5.586l-1.293 1.293a1 1 0 0 0 1.414 1.414l3-3a1 1 0 0 0 0-1.414l-3-3a1 1 0 1 0-1.414 1.414L19.336 11H13.75V5.414l1.293 1.293a1 1 0 1 0 1.414-1.414z"/>
    <path d="M13.457 2.293a1 1 0 0 0-1.414 0l-3 3a1 1 0 0 0 1.414 1.414l1.293-1.293V11H6.164l1.293-1.293a1 1 0 0 0-1.414-1.414l-3 3a1 1 0 0 0 0 1.414l3 3a1 1 0 0 0 1.414-1.414L6.164 13h5.586v5.586l-1.293-1.293a1 1 0 0 0-1.414 1.414l3 3a1 1 0 0 0 1.414 0l3-3a1 1 0 0 0-1.414-1.414l-1.293 1.293V13h5.586l-1.293 1.293a1 1 0 0 0 1.414 1.414l3-3a1 1 0 0 0 0-1.414l-3-3a1 1 0 1 0-1.414 1.414L19.336 11H13.75V5.414l1.293 1.293a1 1 0 1 0 1.414-1.414z"/>
</svg>
