<svg xmlns="http://www.w3.org/2000/svg" viewBox="0 0 25 24" fill="currentColor" aria-hidden="true" data-slot="icon">
    <path fill-rule="evenodd" d="M13.187 3.048c-1.839-.327-3.583 1.053-3.583 2.948v7.97c-.653-.223-1.5-.384-2.574-.384-1.36 0-2.355.259-3.057.573-1.305.585-1.45 2.025-.956 3 .31.611.782 1.42 1.4 2.091.603.652 1.485 1.325 2.613 1.325 2.834 0 4.574-2.535 4.574-4.88V8.293l9.014 1.628-.203 4.49c-.658-.231-1.52-.401-2.622-.401-1.36 0-2.355.259-3.057.573-1.305.585-1.45 2.025-.956 3 .31.612.782 1.42 1.4 2.091.603.652 1.485 1.325 2.613 1.325 2.493 0 4.149-1.981 4.5-4.023a2.2 2.2 0 0 0 .03-.47l.332-7.362v-.007l.09-1.734c.08-1.523-1.008-2.837-2.497-3.101zm-3.81 12.984q.112.056.195.106c-.192 1.34-1.23 2.433-2.542 2.433-.3 0-.686-.187-1.142-.681-.44-.476-.814-1.101-1.088-1.64-.059-.116-.053-.203-.045-.235v-.003l.007-.014q-.001 0 .004-.004l.025-.014c.425-.19 1.138-.399 2.239-.399 1.198 0 1.938.247 2.348.45m11.34-8.125-9.113-1.645v-.266c0-.595.565-1.097 1.233-.979l7.06 1.255c.531.094.877.548.852 1.028zm-.402 8.649.003.006-.006.134c-.248 1.302-1.25 2.304-2.52 2.304-.299 0-.685-.187-1.141-.681-.44-.476-.814-1.101-1.088-1.64-.059-.116-.053-.203-.045-.235v-.003l.005-.011.001-.002m4.79.128v-.001Zm0-.001-.005-.003Zm-.005-.003c-.365-.215-1.139-.541-2.516-.541Zm-2.516-.541c-1.1 0-1.814.208-2.24.399Zm-2.24.399-.024.013Zm-.024.013-.003.003Zm-.003.003-.002.002Z" clip-rule="evenodd"/>
</svg>
