<svg xmlns="http://www.w3.org/2000/svg" viewBox="0 0 25 24" fill="currentColor" aria-hidden="true" data-slot="icon">
    <path fill-rule="evenodd" d="M1.75 5.5A2.5 2.5 0 0 0 4.25 8h2a2.5 2.5 0 0 0 2.5-2.5v-2A2.5 2.5 0 0 0 6.25 1h-2a2.5 2.5 0 0 0-2.5 2.5zm2.5.5a.5.5 0 0 1-.5-.5v-2a.5.5 0 0 1 .5-.5h2a.5.5 0 0 1 .5.5v2a.5.5 0 0 1-.5.5zM15.75 5.5a2.5 2.5 0 0 0 2.5 2.5h2a2.5 2.5 0 0 0 2.5-2.5v-2a2.5 2.5 0 0 0-2.5-2.5h-2a2.5 2.5 0 0 0-2.5 2.5zm2.5.5a.5.5 0 0 1-.5-.5v-2a.5.5 0 0 1 .5-.5h2a.5.5 0 0 1 .5.5v2a.5.5 0 0 1-.5.5zM4.25 23a2.5 2.5 0 0 1-2.5-2.5v-2a2.5 2.5 0 0 1 2.5-2.5h2a2.5 2.5 0 0 1 2.5 2.5v2a2.5 2.5 0 0 1-2.5 2.5zm-.5-2.5a.5.5 0 0 0 .5.5h2a.5.5 0 0 0 .5-.5v-2a.5.5 0 0 0-.5-.5h-2a.5.5 0 0 0-.5.5z" clip-rule="evenodd"/>
    <path d="M13.25 3a1 1 0 1 1 2 0 1 1 0 0 1-2 0M10.25 4a1 1 0 0 0-1 1v2a1 1 0 0 0 1 1h-1a1 1 0 1 0 1 1v4a1 1 0 0 0 1 1h3a1 1 0 0 0-1 1v1h-3a1 1 0 1 0 0 2h1v2h-1a1 1 0 1 0 0 2h2a1 1 0 0 0 1-1v-5h1a1 1 0 1 0 0-2h1a1 1 0 1 0 0-2h-3V9a1 1 0 0 0 1 1h1a1 1 0 1 0 0-2h-2a1 1 0 1 0 0-2h-1V5a1 1 0 0 0-1-1M13.25 4a1 1 0 1 0 0 2 1 1 0 0 0 0-2"/>
    <path d="M18.25 16a1 1 0 0 1-1-1v-2a1 1 0 1 1 2 0v1h1a1 1 0 1 1 0 2h-1a1 1 0 0 1 1 1v1h1a1 1 0 0 1 1 1v2a1 1 0 1 1-2 0v-1h-1a1 1 0 0 1-1-1v-1h-3a1 1 0 1 1 0-2zM21.25 12a1 1 0 1 0 0 2 1 1 0 0 0 0-2"/>
    <path d="M18.25 20a1 1 0 1 0 0 2 1 1 0 0 0 0-2M15.25 19a1 1 0 1 0 0 2 1 1 0 0 0 0-2M6.25 12h1a1 1 0 1 1 0 2h-4a1 1 0 0 1-1-1v-2a1 1 0 0 1 1-1h2a1 1 0 0 1 1 1zM17.25 9a1 1 0 1 0 0 2h4a1 1 0 1 0 0-2z"/>
</svg>
