<svg xmlns="http://www.w3.org/2000/svg" viewBox="0 0 25 24" fill="currentColor" aria-hidden="true" data-slot="icon">
    <path d="M15.25 6.5a1 1 0 1 0 0 2h4.5a1 1 0 1 0 0-2zM9.75 7.5a1 1 0 0 1 1-1h2a1 1 0 1 1 0 2h-2a1 1 0 0 1-1-1"/>
    <path fill-rule="evenodd" d="M5.25 3.5a4 4 0 1 0 0 8h14a4 4 0 0 0 0-8zm14 2a2 2 0 1 1 0 4h-14a2 2 0 1 1 0-4z" clip-rule="evenodd"/>
    <path d="M14.25 16.5a1 1 0 0 1 1-1h4.5a1 1 0 1 1 0 2h-4.5a1 1 0 0 1-1-1M10.75 15.5a1 1 0 1 0 0 2h2a1 1 0 1 0 0-2z"/>
    <path fill-rule="evenodd" d="M5.25 12.5a4 4 0 0 0 0 8h14a4 4 0 0 0 0-8zm14 2a2 2 0 1 1 0 4h-14a2 2 0 1 1 0-4z" clip-rule="evenodd"/>
</svg>
