<svg xmlns="http://www.w3.org/2000/svg" viewBox="0 0 25 24" fill="currentColor" aria-hidden="true" data-slot="icon">
    <path fill-rule="evenodd" d="M12.25 6a6 6 0 1 0 0 12 6 6 0 0 0 0-12m-4 6a4 4 0 1 1 8 0 4 4 0 0 1-8 0" clip-rule="evenodd"/>
    <path fill-rule="evenodd" d="M14.751 2.029a3.6 3.6 0 0 0-5.003 0 1.6 1.6 0 0 1-1.335.434 3.6 3.6 0 0 0-4.048 2.94c-.086.486-.39.905-.826 1.136a3.6 3.6 0 0 0-1.546 4.76c.217.442.217.96 0 1.403A3.6 3.6 0 0 0 3.54 17.46c.436.23.74.65.826 1.135a3.6 3.6 0 0 0 4.048 2.941c.488-.069.98.091 1.335.434a3.6 3.6 0 0 0 5.003 0 1.6 1.6 0 0 1 1.335-.434 3.6 3.6 0 0 0 4.048-2.94c.085-.486.39-.905.825-1.136a3.6 3.6 0 0 0 1.547-4.76 1.6 1.6 0 0 1 0-1.403 3.6 3.6 0 0 0-1.547-4.759 1.6 1.6 0 0 1-.825-1.135 3.6 3.6 0 0 0-4.048-2.941 1.6 1.6 0 0 1-1.335-.434m-3.613 1.437c.62-.599 1.603-.599 2.223 0a3.6 3.6 0 0 0 3.005.977c.854-.12 1.65.457 1.798 1.306a3.6 3.6 0 0 0 1.858 2.557 1.6 1.6 0 0 1 .687 2.114 3.6 3.6 0 0 0 0 3.16c.378.775.075 1.71-.687 2.114a3.6 3.6 0 0 0-1.858 2.557 1.6 1.6 0 0 1-1.798 1.306 3.6 3.6 0 0 0-3.005.977c-.62.6-1.603.6-2.223 0a3.6 3.6 0 0 0-3.006-.977 1.6 1.6 0 0 1-1.798-1.306 3.6 3.6 0 0 0-1.857-2.557 1.6 1.6 0 0 1-.687-2.114 3.6 3.6 0 0 0 0-3.16 1.6 1.6 0 0 1 .687-2.114A3.6 3.6 0 0 0 6.334 5.75a1.6 1.6 0 0 1 1.798-1.306 3.6 3.6 0 0 0 3.006-.977" clip-rule="evenodd"/>
</svg>
