<svg xmlns="http://www.w3.org/2000/svg" viewBox="0 0 25 24" fill="currentColor" aria-hidden="true" data-slot="icon">
    <path fill-rule="evenodd" d="M11.25 2.5a2 2 0 0 0-2 2v1h-.5a4 4 0 0 0-4 4v1.632l-1.172.586c-1.415.707-2.37 2.251-2.04 3.939.14.71.348 1.54.656 2.332.304.783.732 1.595 1.345 2.214.698.706 1.465 1.092 2.285 1.236.791.138 1.57.038 2.28-.114.4-.085.86-.208 1.3-.326.284-.076.56-.15.806-.21.692-.168 1.36-.289 2.04-.289s1.348.12 2.04.29c.245.06.521.133.806.21.44.117.9.24 1.299.325.71.152 1.489.252 2.28.114.82-.144 1.587-.53 2.286-1.236.612-.62 1.04-1.431 1.344-2.214a14 14 0 0 0 .656-2.332c.331-1.688-.624-3.232-2.04-3.94l-1.171-.585V9.5a4 4 0 0 0-4-4h-.5v-1a2 2 0 0 0-2-2zm-.79 5.776-3.71 1.856V9.5a2 2 0 0 1 2-2h7a2 2 0 0 1 2 2v.632l-3.711-1.856a4 4 0 0 0-3.578 0m.895 1.79a2 2 0 0 1 1.79 0l6.882 3.44c.738.37 1.104 1.092.971 1.766-.125.64-.305 1.346-.556 1.992-.256.656-.56 1.187-.903 1.533-.42.424-.814.603-1.207.671-.422.074-.907.032-1.52-.099-.378-.08-.72-.173-1.098-.275a37 37 0 0 0-.95-.248c-.758-.184-1.604-.346-2.514-.346s-1.757.162-2.514.346c-.357.087-.664.17-.951.248-.377.102-.72.195-1.098.275-.613.131-1.098.173-1.52.1-.392-.07-.787-.248-1.206-.672-.343-.346-.648-.877-.903-1.533a12 12 0 0 1-.557-1.992c-.132-.674.234-1.396.971-1.765zM13.25 5.5h-2v-1h2z" clip-rule="evenodd"/>
</svg>
