<svg xmlns="http://www.w3.org/2000/svg" viewBox="0 0 25 24" fill="currentColor" aria-hidden="true" data-slot="icon">
    <path d="M13.25 9.722a1 1 0 1 0-2 0v.89a1 1 0 1 0 2 0z"/>
    <path fill-rule="evenodd" d="M13.183 3a3.67 3.67 0 0 1 3.529 2.667h2.316a3.22 3.22 0 0 1 3.222 3.222v1.322a1.9 1.9 0 0 1-.972 1.658l-.56 5.534A4 4 0 0 1 16.738 21H7.762a4 4 0 0 1-3.98-3.597l-.56-5.534a1.9 1.9 0 0 1-.972-1.658V8.89a3.22 3.22 0 0 1 3.222-3.222h2.316A3.67 3.67 0 0 1 11.317 3zm-3.2 2.667A1.66 1.66 0 0 1 11.317 5h1.866c.546 0 1.03.262 1.334.667zM4.25 8.889c0-.675.547-1.222 1.222-1.222h13.556c.675 0 1.222.547 1.222 1.222v1.227a1 1 0 0 0-.269.065l-6.674 2.472a2 2 0 0 1-.695.125h-.724a2 2 0 0 1-.695-.125L4.52 10.181a1 1 0 0 0-.269-.065zm9.752 5.64 5.192-1.923-.466 4.595A2 2 0 0 1 16.738 19H7.762a2 2 0 0 1-1.99-1.799l-.466-4.595 5.193 1.923a4 4 0 0 0 1.389.249h.724a4 4 0 0 0 1.39-.25" clip-rule="evenodd"/>
</svg>
