<svg xmlns="http://www.w3.org/2000/svg" viewBox="0 0 25 24" fill="currentColor" aria-hidden="true" data-slot="icon">
    <path d="M13.75 5a1 1 0 1 0-2 0v11a1 1 0 1 0 2 0z"/>
    <path fill-rule="evenodd" d="M12.75 1a3.647 3.647 0 0 0-3.647 3.647v7.27a6.23 6.23 0 0 0-2.353 4.906c0 3.378 2.654 6.177 6 6.177s6-2.799 6-6.177a6.23 6.23 0 0 0-2.353-4.906v-7.27A3.647 3.647 0 0 0 12.75 1m-4 15.823a4.23 4.23 0 0 1 1.661-3.39c.398-.3.692-.787.692-1.363V4.647a1.647 1.647 0 0 1 3.294 0v7.423c0 .576.294 1.064.692 1.363a4.23 4.23 0 0 1 1.661 3.39c0 2.34-1.823 4.177-4 4.177s-4-1.837-4-4.177" clip-rule="evenodd"/>
</svg>
