<svg xmlns="http://www.w3.org/2000/svg" viewBox="0 0 25 24" fill="currentColor" aria-hidden="true" data-slot="icon">
    <path fill-rule="evenodd" d="M2.75 6.639C2.75 4.629 4.38 3 6.389 3h7.987c.394 0 .715.157.942.315s.415.357.569.544c.305.37.587.84.828 1.253l.174.3c.184.32.35.606.513.853q.12.183.21.29h1.139a4 4 0 0 1 3.999 4V16a1 1 0 0 1-1 1h-3a3 3 0 1 1 0-6h2v-.444a2 2 0 0 0-2-2h-14V17a2 2 0 0 0 2 2h9.5c.184 0 .357.05.505.136.029.433.195.828.456 1.141a1 1 0 0 1-.961.723h-9.5a4 4 0 0 1-4-4zm2.002-.083H15.24l-.105-.18q-.076-.134-.148-.258c-.245-.421-.455-.759-.644-.988q-.075-.089-.118-.13H6.389c-.877 0-1.594.69-1.637 1.556M20.75 13h-2a1 1 0 1 0 0 2h2z" clip-rule="evenodd"/>
    <path d="M18.75 18a1 1 0 1 0 0 2h4a1 1 0 1 0 0-2z"/>
</svg>
