<svg width="25" height="24" viewBox="0 0 25 24" fill="none" xmlns="http://www.w3.org/2000/svg">
<path d="M5.42495 9.22515C5.08657 8.21001 4.28999 7.41343 3.27485 7.07505C2.24172 6.73067 2.24172 5.26933 3.27485 4.92495C4.28999 4.58657 5.08657 3.78999 5.42495 2.77485C5.76933 1.74172 7.23067 1.74172 7.57505 2.77485C7.91343 3.78999 8.71001 4.58657 9.72515 4.92495C10.7583 5.26933 10.7583 6.73067 9.72515 7.07505C8.71001 7.41343 7.91343 8.21001 7.57505 9.22515C7.23067 10.2583 5.76933 10.2583 5.42495 9.22515Z" fill="black"/>
<path d="M13.6187 20.644C13.0265 18.8675 11.6325 17.4735 9.85599 16.8813C8.048 16.2787 8.048 13.7213 9.85599 13.1187C11.6325 12.5265 13.0265 11.1325 13.6187 9.35599C14.2213 7.548 16.7787 7.548 17.3813 9.35599C17.9735 11.1325 19.3675 12.5265 21.144 13.1187C22.952 13.7213 22.952 16.2787 21.144 16.8813C19.3675 17.4735 17.9735 18.8675 17.3813 20.644C16.7787 22.452 14.2213 22.452 13.6187 20.644Z" fill="black"/>
</svg>
