<svg width="25" height="24" viewBox="0 0 25 24" fill="none" xmlns="http://www.w3.org/2000/svg">
<path d="M12.5 2C13.6046 2 14.5 2.89543 14.5 4V7.46482C14.5 7.79917 14.6671 8.1114 14.9453 8.29687L20.0547 11.7031C20.3329 11.8886 20.5 12.2008 20.5 12.5352V14.6126C20.5 15.2951 19.8313 15.7771 19.1838 15.5613L15.8162 14.4387C15.1687 14.2229 14.5 14.7049 14.5 15.3874V17.5858C14.5 17.851 14.6054 18.1054 14.7929 18.2929L16.7929 20.2929C17.4229 20.9229 16.9767 22 16.0858 22H14.6231C14.5413 22 14.4599 21.99 14.3806 21.9701L12.7425 21.5606C12.5833 21.5208 12.4167 21.5208 12.2575 21.5606L10.6194 21.9701C10.5401 21.99 10.4587 22 10.3769 22H8.91421C8.02331 22 7.57714 20.9229 8.20711 20.2929L10.2071 18.2929C10.3946 18.1054 10.5 17.851 10.5 17.5858V15.3874C10.5 14.7049 9.8313 14.2229 9.18377 14.4387L5.81623 15.5613C5.1687 15.7771 4.5 15.2951 4.5 14.6126V12.5352C4.5 12.2008 4.6671 11.8886 4.9453 11.7031L10.0547 8.29687C10.3329 8.1114 10.5 7.79917 10.5 7.46482V4C10.5 2.89543 11.3954 2 12.5 2Z" fill="black"/>
</svg>
