<svg width="25" height="24" viewBox="0 0 25 24" fill="none" xmlns="http://www.w3.org/2000/svg">
<path fill-rule="evenodd" clip-rule="evenodd" d="M4 6.14781V6.73609C4 7.79522 4.44953 8.80458 5.23678 9.5131L6 10.2C7.27306 11.3458 8 12.978 8 14.6907V19.5C8 20.3284 8.67157 21 9.5 21C10.3284 21 11 20.3284 11 19.5V7.85913C11 7.03335 10.7895 6.22119 10.3885 5.49933L9.8995 4.6191C9.34432 3.61978 8.291 3 7.14781 3C5.40932 3 4 4.40932 4 6.14781ZM21 6.14781V6.73609C21 7.79522 20.5505 8.80458 19.7632 9.5131L19 10.2C17.7269 11.3458 17 12.978 17 14.6907V19.5C17 20.3284 16.3284 21 15.5 21C14.6716 21 14 20.3284 14 19.5V7.85913C14 7.03335 14.2105 6.22119 14.6115 5.49933L15.1005 4.6191C15.6557 3.61978 16.709 3 17.8522 3C19.5907 3 21 4.40932 21 6.14781Z" fill="black"/>
</svg>
