<svg width="25" height="24" viewBox="0 0 25 24" fill="none" xmlns="http://www.w3.org/2000/svg">
<path d="M2.30559 4.53046C1.91506 4.92099 1.91506 5.55415 2.30559 5.94468C2.69611 6.3352 3.32928 6.3352 3.7198 5.94468L6.19468 3.4698C6.5852 3.07928 6.5852 2.44611 6.19468 2.05559C5.80415 1.66506 5.17099 1.66506 4.78046 2.05559L2.30559 4.53046Z" fill="black"/>
<path d="M18.7929 2.29291C19.1834 1.90239 19.8166 1.90239 20.2071 2.29291L22.682 4.76779C23.0725 5.15831 23.0725 5.79148 22.682 6.182C22.2915 6.57253 21.6583 6.57253 21.2678 6.182L18.7929 3.70713C18.4024 3.3166 18.4024 2.68344 18.7929 2.29291Z" fill="black"/>
<path fill-rule="evenodd" clip-rule="evenodd" d="M12.5 21C17.4706 21 21.5 16.9706 21.5 12C21.5 7.02946 17.4706 3.00002 12.5 3.00002C7.52944 3.00002 3.5 7.02946 3.5 12C3.5 16.9706 7.52944 21 12.5 21ZM12.5 9.00002C12.5 8.44774 12.0523 8.00002 11.5 8.00002C10.9477 8.00002 10.5 8.44774 10.5 9.00002V14C10.5 14.5523 10.9477 15 11.5 15H14.5C15.0523 15 15.5 14.5523 15.5 14C15.5 13.4477 15.0523 13 14.5 13H12.5V9.00002Z" fill="black"/>
</svg>
