<svg width="25" height="24" viewBox="0 0 25 24" fill="none" xmlns="http://www.w3.org/2000/svg">
<path d="M2.5 6C2.5 3.79086 4.29086 2 6.5 2H8.5C9.05228 2 9.5 2.44772 9.5 3C9.5 3.55228 9.05228 4 8.5 4H6.5C5.39543 4 4.5 4.89543 4.5 6V8C4.5 8.55228 4.05228 9 3.5 9C2.94772 9 2.5 8.55228 2.5 8V6Z" fill="black"/>
<path d="M22.5 6C22.5 3.79086 20.7091 2 18.5 2H16.5C15.9477 2 15.5 2.44772 15.5 3C15.5 3.55228 15.9477 4 16.5 4H18.5C19.6046 4 20.5 4.89543 20.5 6V8C20.5 8.55228 20.9477 9 21.5 9C22.0523 9 22.5 8.55228 22.5 8V6Z" fill="black"/>
<path d="M2.5 18C2.5 20.2091 4.29086 22 6.5 22H8.5C9.05228 22 9.5 21.5523 9.5 21C9.5 20.4477 9.05228 20 8.5 20H6.5C5.39543 20 4.5 19.1046 4.5 18V16C4.5 15.4477 4.05228 15 3.5 15C2.94772 15 2.5 15.4477 2.5 16V18Z" fill="black"/>
<path d="M22.5 18C22.5 20.2091 20.7091 22 18.5 22H16.5C15.9477 22 15.5 21.5523 15.5 21C15.5 20.4477 15.9477 20 16.5 20H18.5C19.6046 20 20.5 19.1046 20.5 18V16C20.5 15.4477 20.9477 15 21.5 15C22.0523 15 22.5 15.4477 22.5 16V18Z" fill="black"/>
<path d="M8.45701 8.76207L11.9444 7V11.6203C11.7944 11.6619 11.6475 11.7206 11.5062 11.7964L7.5 13.9471V10.3812C7.5 9.68805 7.87285 9.05723 8.45701 8.76207Z" fill="black"/>
<path d="M13.0556 11.6203C13.2056 11.6619 13.3525 11.7206 13.4938 11.7964L17.5 13.9471V10.3812C17.5 9.68805 17.1271 9.05723 16.543 8.76207L13.0556 7V11.6203Z" fill="black"/>
<path d="M12.0031 12.8635L8.20016 14.9051L12.2074 16.9298C12.299 16.976 12.3989 17 12.5 17C12.6011 17 12.701 16.976 12.7926 16.9298L16.7998 14.9051L12.9969 12.8635C12.6841 12.6956 12.3159 12.6956 12.0031 12.8635Z" fill="black"/>
</svg>
