<svg width="25" height="24" viewBox="0 0 25 24" fill="none" xmlns="http://www.w3.org/2000/svg">
<path fill-rule="evenodd" clip-rule="evenodd" d="M5.5 2C3.84315 2 2.5 3.34315 2.5 5V19C2.5 20.6569 3.84315 22 5.5 22H19.5C21.1569 22 22.5 20.6569 22.5 19V5C22.5 3.34315 21.1569 2 19.5 2H5.5ZM17.2071 15.7071L13.2071 19.7071C12.8166 20.0976 12.1834 20.0976 11.7929 19.7071L7.79289 15.7071C7.40237 15.3166 7.40237 14.6834 7.79289 14.2929C8.18342 13.9024 8.81658 13.9024 9.20711 14.2929L11.5 16.5858V5C11.5 4.44771 11.9477 4 12.5 4C13.0523 4 13.5 4.44771 13.5 5V16.5858L15.7929 14.2929C16.1834 13.9024 16.8166 13.9024 17.2071 14.2929C17.5976 14.6834 17.5976 15.3166 17.2071 15.7071Z" fill="black"/>
</svg>
