<svg width="25" height="24" viewBox="0 0 25 24" fill="none" xmlns="http://www.w3.org/2000/svg">
<path fill-rule="evenodd" clip-rule="evenodd" d="M5.5 2C3.84315 2 2.5 3.34315 2.5 5V19C2.5 20.6569 3.84315 22 5.5 22H19.5C21.1569 22 22.5 20.6569 22.5 19V5C22.5 3.34315 21.1569 2 19.5 2H5.5ZM5.13593 5.63604C5.13593 5.08376 5.58364 4.63604 6.13593 4.63604H11.7928C12.3451 4.63604 12.7928 5.08376 12.7928 5.63604C12.7928 6.18833 12.3451 6.63604 11.7928 6.63604H8.55014L19.571 17.6569C19.9615 18.0474 19.9615 18.6805 19.571 19.0711C19.1804 19.4616 18.5473 19.4616 18.1567 19.0711L7.13593 8.05026V11.2929C7.13593 11.8452 6.68821 12.2929 6.13593 12.2929C5.58364 12.2929 5.13593 11.8452 5.13593 11.2929L5.13593 5.63604Z" fill="black"/>
</svg>
