<svg width="25" height="24" viewBox="0 0 25 24" fill="none" xmlns="http://www.w3.org/2000/svg">
<path fill-rule="evenodd" clip-rule="evenodd" d="M5.5 2C3.84315 2 2.5 3.34315 2.5 5V19C2.5 20.6569 3.84315 22 5.5 22H19.5C21.1569 22 22.5 20.6569 22.5 19V5C22.5 3.34315 21.1569 2 19.5 2H5.5ZM19.8641 5.63604C19.8641 5.08376 19.4164 4.63604 18.8641 4.63604H13.2072C12.6549 4.63604 12.2072 5.08376 12.2072 5.63604C12.2072 6.18833 12.6549 6.63604 13.2072 6.63604H16.4499L5.42904 17.6569C5.03852 18.0474 5.03852 18.6805 5.42904 19.0711C5.81957 19.4616 6.45273 19.4616 6.84326 19.0711L17.8641 8.05026V11.2929C17.8641 11.8452 18.3118 12.2929 18.8641 12.2929C19.4164 12.2929 19.8641 11.8452 19.8641 11.2929V5.63604Z" fill="black"/>
</svg>
