<svg width="25" height="24" viewBox="0 0 25 24" fill="none" xmlns="http://www.w3.org/2000/svg">
<path fill-rule="evenodd" clip-rule="evenodd" d="M5.5 2C3.84315 2 2.5 3.34315 2.5 5V19C2.5 20.6569 3.84315 22 5.5 22H19.5C21.1569 22 22.5 20.6569 22.5 19V5C22.5 3.34315 21.1569 2 19.5 2H5.5ZM5.29292 4.79289C4.9024 5.18342 4.9024 5.81658 5.29292 6.20711L8.55029 9.46447H6.72186C6.16957 9.46447 5.72186 9.91219 5.72186 10.4645C5.72186 11.0168 6.16957 11.4645 6.72186 11.4645H10.9645C11.5168 11.4645 11.9645 11.0168 11.9645 10.4645V6.22183C11.9645 5.66954 11.5168 5.22183 10.9645 5.22183C10.4122 5.22183 9.9645 5.66954 9.9645 6.22183V8.05026L6.70714 4.79289C6.31661 4.40237 5.68345 4.40237 5.29292 4.79289ZM18.2782 12.5355L14.0356 12.5355C13.4833 12.5355 13.0356 12.9833 13.0356 13.5355L13.0356 17.7782C13.0356 18.3305 13.4833 18.7782 14.0356 18.7782C14.5878 18.7782 15.0356 18.3305 15.0356 17.7782L15.0356 15.9497L18.2929 19.2071C18.6834 19.5976 19.3166 19.5976 19.7071 19.2071C20.0977 18.8166 20.0977 18.1834 19.7071 17.7929L16.4498 14.5355L18.2782 14.5355C18.8305 14.5355 19.2782 14.0878 19.2782 13.5355C19.2782 12.9832 18.8305 12.5355 18.2782 12.5355Z" fill="black"/>
</svg>
