<svg width="25" height="24" viewBox="0 0 25 24" fill="none" xmlns="http://www.w3.org/2000/svg">
<path fill-rule="evenodd" clip-rule="evenodd" d="M5.5 2C3.84315 2 2.5 3.34315 2.5 5V19C2.5 20.6569 3.84315 22 5.5 22H19.5C21.1569 22 22.5 20.6569 22.5 19V5C22.5 3.34315 21.1569 2 19.5 2H5.5ZM20.071 5.62132C20.071 5.06904 19.6233 4.62132 19.071 4.62132H14.8284C14.2761 4.62132 13.8284 5.06904 13.8284 5.62132C13.8284 6.1736 14.2761 6.62132 14.8284 6.62132H16.6568L6.92889 16.3492L6.92889 14.5208C6.92889 13.9685 6.48118 13.5208 5.92889 13.5208C5.37661 13.5208 4.92889 13.9685 4.92889 14.5208L4.92889 18.7635C4.92889 19.3157 5.37661 19.7635 5.92889 19.7635H10.1715C10.7238 19.7635 11.1715 19.3157 11.1715 18.7635C11.1715 18.2112 10.7238 17.7635 10.1715 17.7635H8.34311L18.071 8.03553V9.86396C18.071 10.4162 18.5187 10.864 19.071 10.864C19.6233 10.864 20.071 10.4162 20.071 9.86396V5.62132Z" fill="black"/>
</svg>
