<svg width="25" height="24" viewBox="0 0 25 24" fill="none" xmlns="http://www.w3.org/2000/svg">
<path fill-rule="evenodd" clip-rule="evenodd" d="M5.5 2C3.84315 2 2.5 3.34315 2.5 5V19C2.5 20.6569 3.84315 22 5.5 22H19.5C21.1569 22 22.5 20.6569 22.5 19V5C22.5 3.34315 21.1569 2 19.5 2H5.5ZM20.2071 12.7071C20.5976 12.3166 20.5976 11.6834 20.2071 11.2929L16.2071 7.29289C15.8166 6.90237 15.1834 6.90237 14.7929 7.29289C14.4024 7.68342 14.4024 8.31658 14.7929 8.70711L17.0858 11H5.5C4.94771 11 4.5 11.4477 4.5 12C4.5 12.5523 4.94771 13 5.5 13H17.0858L14.7929 15.2929C14.4024 15.6834 14.4024 16.3166 14.7929 16.7071C15.1834 17.0976 15.8166 17.0976 16.2071 16.7071L20.2071 12.7071Z" fill="black"/>
</svg>
