<svg width="25" height="24" viewBox="0 0 25 24" fill="none" xmlns="http://www.w3.org/2000/svg">
<path fill-rule="evenodd" clip-rule="evenodd" d="M5.5 2C3.84315 2 2.5 3.34315 2.5 5V19C2.5 20.6569 3.84315 22 5.5 22H19.5C21.1569 22 22.5 20.6569 22.5 19V5C22.5 3.34315 21.1569 2 19.5 2H5.5ZM5.13593 18.364C5.13593 18.9162 5.58364 19.364 6.13593 19.364H11.7928C12.3451 19.364 12.7928 18.9162 12.7928 18.364C12.7928 17.8117 12.3451 17.364 11.7928 17.364H8.55014L19.571 6.34314C19.9615 5.95262 19.9615 5.31945 19.571 4.92893C19.1804 4.5384 18.5473 4.5384 18.1567 4.92893L7.13593 15.9497V12.7071C7.13593 12.1548 6.68821 11.7071 6.13593 11.7071C5.58364 11.7071 5.13593 12.1548 5.13593 12.7071L5.13593 18.364Z" fill="black"/>
</svg>
