<svg width="25" height="24" viewBox="0 0 25 24" fill="none" xmlns="http://www.w3.org/2000/svg">
<path fill-rule="evenodd" clip-rule="evenodd" d="M5.5 2C3.84315 2 2.5 3.34315 2.5 5V19C2.5 20.6569 3.84315 22 5.5 22H19.5C21.1569 22 22.5 20.6569 22.5 19V5C22.5 3.34315 21.1569 2 19.5 2H5.5ZM13.2071 4.29289C12.8166 3.90237 12.1834 3.90237 11.7929 4.29289L7.79289 8.29289C7.40237 8.68342 7.40237 9.31658 7.79289 9.70711C8.18342 10.0976 8.81658 10.0976 9.20711 9.70711L11.5 7.41421V19C11.5 19.5523 11.9477 20 12.5 20C13.0523 20 13.5 19.5523 13.5 19V7.41421L15.7929 9.70711C16.1834 10.0976 16.8166 10.0976 17.2071 9.70711C17.5976 9.31658 17.5976 8.68342 17.2071 8.29289L13.2071 4.29289Z" fill="black"/>
</svg>
