<svg width="25" height="24" viewBox="0 0 25 24" fill="none" xmlns="http://www.w3.org/2000/svg">
<path fill-rule="evenodd" clip-rule="evenodd" d="M2.5 5C2.5 3.34315 3.84315 2 5.5 2H19.5C21.1569 2 22.5 3.34315 22.5 5V19C22.5 20.6569 21.1569 22 19.5 22H5.5C3.84315 22 2.5 20.6569 2.5 19V5ZM16.297 3.77468C16.6506 3.3504 17.2811 3.29308 17.7054 3.64664L20.1381 5.67385C20.344 5.84458 20.4813 6.09701 20.4983 6.38512C20.5093 6.57277 20.4679 6.75136 20.3866 6.90662L18.7712 10.1374C18.5242 10.6314 17.9236 10.8316 17.4296 10.5846C16.9356 10.3377 16.7354 9.73698 16.9824 9.24301L17.6827 7.8423C15.2863 8.75205 13.6015 11.0688 13.6015 13.7601V19.8351C13.6014 20.3874 13.1537 20.8351 12.6015 20.8351C12.5672 20.8351 12.5334 20.8334 12.5 20.8301C12.4666 20.8334 12.4328 20.8351 12.3986 20.8351C11.8463 20.8351 11.3986 20.3874 11.3986 19.8351L11.3986 13.7601C11.3986 11.0688 9.71367 8.75205 7.31727 7.8423L8.01762 9.24301C8.26461 9.73698 8.06439 10.3377 7.57041 10.5846C7.07643 10.8316 6.47576 10.6314 6.22877 10.1374L4.61336 6.90662C4.53214 6.75136 4.49069 6.57277 4.50173 6.38512C4.51868 6.09701 4.656 5.84458 4.86194 5.67386L7.2946 3.64664C7.71888 3.29308 8.34945 3.3504 8.70301 3.77468C9.05657 4.19896 8.99925 4.82952 8.57497 5.18308L7.74837 5.87192C9.82488 6.57614 11.5246 8.0731 12.5 9.99416C13.4754 8.0731 15.1751 6.57614 17.2516 5.87192L16.425 5.18308C16.0008 4.82952 15.9434 4.19896 16.297 3.77468Z" fill="black"/>
</svg>
