<svg width="25" height="24" viewBox="0 0 25 24" fill="none" xmlns="http://www.w3.org/2000/svg">
<path fill-rule="evenodd" clip-rule="evenodd" d="M5.5 2C3.84315 2 2.5 3.34315 2.5 5V19C2.5 20.6569 3.84315 22 5.5 22H19.5C21.1569 22 22.5 20.6569 22.5 19V5C22.5 3.34315 21.1569 2 19.5 2H5.5ZM19.8641 18.364C19.8641 18.9162 19.4164 19.364 18.8641 19.364H13.2072C12.6549 19.364 12.2072 18.9162 12.2072 18.364C12.2072 17.8117 12.6549 17.364 13.2072 17.364H16.4499L5.42904 6.34314C5.03852 5.95262 5.03852 5.31945 5.42904 4.92893C5.81957 4.5384 6.45273 4.5384 6.84326 4.92893L17.8641 15.9497V12.7071C17.8641 12.1548 18.3118 11.7071 18.8641 11.7071C19.4164 11.7071 19.8641 12.1548 19.8641 12.7071V18.364Z" fill="black"/>
</svg>
