<svg width="25" height="24" viewBox="0 0 25 24" fill="none" xmlns="http://www.w3.org/2000/svg">
<path fill-rule="evenodd" clip-rule="evenodd" d="M5.5 2C3.84315 2 2.5 3.34315 2.5 5V19C2.5 20.6569 3.84315 22 5.5 22H19.5C21.1569 22 22.5 20.6569 22.5 19V5C22.5 3.34315 21.1569 2 19.5 2H5.5ZM4.79289 11.2929C4.40237 11.6834 4.40237 12.3166 4.79289 12.7071L8.79289 16.7071C9.18342 17.0976 9.81658 17.0976 10.2071 16.7071C10.5976 16.3166 10.5976 15.6834 10.2071 15.2929L7.91421 13H19.5C20.0523 13 20.5 12.5523 20.5 12C20.5 11.4477 20.0523 11 19.5 11H7.91421L10.2071 8.70711C10.5976 8.31658 10.5976 7.68342 10.2071 7.29289C9.81658 6.90237 9.18342 6.90237 8.79289 7.29289L4.79289 11.2929Z" fill="black"/>
</svg>
