<svg width="25" height="24" viewBox="0 0 25 24" fill="none" xmlns="http://www.w3.org/2000/svg">
<g clip-path="url(#clip0_3714_190792)">
<path d="M20.5 12C20.5 12 20.494 14.5181 20 16C19.9815 16.0556 19.9628 16.1129 19.9439 16.1718C19.3225 18.1138 16.2755 18.0203 16 16V16M8.49999 13.4V13.4C8.49999 16.155 11.199 18.1003 13.8126 17.2291L13.9718 17.1761C14.3224 17.0592 14.6558 16.8961 14.9632 16.6912L16 16M16 16C15.76 14.9878 16.3969 14.3882 16.6988 13.0694C16.9267 12.0735 16.6214 11.0637 15.9519 10.292C15.24 9.47135 14.207 9 13.1206 9L12.8473 9C10.4464 9 8.5 10.9464 8.5 13.3473L8.5 13.6154M15 20L12.464 20.2415C8.19334 20.6483 4.5 17.2899 4.5 13C4.5 8.58172 8.08173 5 12.5 5L13.0333 5C17.1571 5 20.5 8.34294 20.5 12.4667" stroke="black" stroke-width="2" stroke-linecap="round" stroke-linejoin="round"/>
</g>
<defs>
<clipPath id="clip0_3714_190792">
<rect width="24" height="24" fill="white" transform="translate(0.5)"/>
</clipPath>
</defs>
</svg>
