<svg width="25" height="24" viewBox="0 0 25 24" fill="none" xmlns="http://www.w3.org/2000/svg">
<path fill-rule="evenodd" clip-rule="evenodd" d="M7.28361 6.05783C7.41094 5.44343 7.59199 4.81876 7.84701 4.22842C8.2069 3.39535 8.73424 2.58332 9.51115 1.97719C10.3026 1.35975 11.2977 1 12.5 1C13.7023 1 14.6975 1.35975 15.4889 1.97719C16.2658 2.58332 16.7931 3.39535 17.153 4.22842C17.408 4.81876 17.5891 5.44343 17.7164 6.05783C18.8183 6.27851 19.729 7.11196 20.0109 8.23175C23.5412 22.2578 20.4015 22.1512 14.7161 21.9581C14.0137 21.9343 13.2724 21.9091 12.5 21.9091C11.7276 21.9091 10.9863 21.9343 10.2839 21.9581C4.59855 22.1512 1.45881 22.2578 4.98912 8.23175C5.27097 7.11195 6.18172 6.27851 7.28361 6.05783ZM9.35039 6C9.43916 5.66256 9.54866 5.33259 9.68302 5.02158C9.95313 4.39632 10.3033 3.89585 10.7414 3.55406C11.165 3.22358 11.7223 3 12.5 3C13.2777 3 13.835 3.22358 14.2586 3.55406C14.6967 3.89585 15.0469 4.39631 15.317 5.02158C15.4514 5.33259 15.5609 5.66256 15.6496 6H9.35039Z" fill="black"/>
</svg>
