<svg width="25" height="24" viewBox="0 0 25 24" fill="none" xmlns="http://www.w3.org/2000/svg">
<path d="M2.51897 11.3789C2.50639 11.5843 2.5 11.7914 2.5 12L2.51897 11.3789Z" fill="black"/>
<path d="M2.85997 9.33156L2.68947 10.3552L2.51897 11.3789" fill="black"/>
<path d="M11.4965 8.73819L10.8357 9.12147L10.177 9.49998C9.55491 9.85744 9.17197 10.5207 9.17344 11.2382L9.17501 12.002L9.17344 12.7618C9.17197 13.4792 9.55491 14.1425 10.177 14.5L10.8393 14.8805L11.4964 15.2618C12.1171 15.6218 12.8829 15.6218 13.5036 15.2618L14.1643 14.8785L14.823 14.5C15.4451 14.1425 15.828 13.4792 15.8266 12.7618L15.825 12.002V11.9979L15.8266 11.2382C15.828 10.5207 15.4451 9.85744 14.823 9.49998L14.1607 9.11942L13.5035 8.73819C12.8829 8.37818 12.1171 8.37818 11.4965 8.73819Z" fill="black"/>
<path d="M10.3781 21.7744C8.54028 21.3773 6.89046 20.475 5.58127 19.2202C6.27746 18.858 7.11354 18.875 7.79658 19.2712L8.51947 19.6906L8.52303 19.6926L9.24763 20.109C9.86541 20.464 10.2781 21.0812 10.3781 21.7744Z" fill="black"/>
<path d="M21.684 15.9629C21.1453 17.2098 20.3601 18.3252 19.3898 19.2478C19.1418 18.604 19.1941 17.875 19.5467 17.2672L19.9661 16.5443L19.9681 16.5407L20.3845 15.8161C20.7545 15.1722 21.4095 14.7511 22.1383 14.6746C22.0158 15.1171 21.8636 15.5473 21.684 15.9629Z" fill="black"/>
<path d="M5.41114 4.94677C4.21604 6.14787 3.32415 7.65096 2.85997 9.33156C3.50375 9.19589 4.06706 8.78821 4.39446 8.20095L4.80341 7.46742L5.21336 6.73917C5.52437 6.18665 5.58964 5.53864 5.41114 4.94677Z" fill="black"/>
<path d="M19.4997 4.85824C18.8284 5.16046 18.0468 5.12448 17.4018 4.75029L16.6789 4.33095L16.6753 4.3289L15.9507 3.91252C15.3402 3.56169 14.9299 2.95468 14.8239 2.2714C16.6184 2.69847 18.2255 3.60921 19.4997 4.85824Z" fill="black"/>
<path fill-rule="evenodd" clip-rule="evenodd" d="M2.58412 11.3764L2.5 12C2.50001 14.0848 3.138 16.0206 4.22941 17.6229L4.56172 17.4977C5.882 16.7675 7.49134 16.782 8.80013 17.5412L9.51947 17.9585L9.52303 17.9606L10.2441 18.3749C11.549 19.1247 12.3644 20.5004 12.4005 21.9995C12.4336 21.9998 12.4668 22 12.5 22C14.4347 22 16.2411 21.4505 17.7716 20.4992C17.043 19.1795 17.0581 17.5715 17.8167 16.2636L18.234 15.5443L18.2361 15.5407L18.6504 14.8197C19.4187 13.4827 20.844 12.6594 22.386 12.662H22.4784C22.4927 12.4432 22.5 12.2225 22.5 12C22.5 11.7429 22.4903 11.488 22.4712 11.2357C22.3378 9.46995 21.7456 7.83206 20.8137 6.441L20.6659 6.50751C19.3402 7.25419 17.7167 7.24511 16.3982 6.48028L15.6789 6.06299L15.6753 6.06094L14.9543 5.64662C13.6443 4.89387 12.8275 3.5103 12.7975 2.00433C12.6987 2.00145 12.5995 2 12.5 2C10.4792 2 8.59839 2.59941 7.02569 3.63013C7.69148 4.91248 7.6706 6.45109 6.95621 7.72022L6.54627 8.44848L6.14132 9.17484C5.41487 10.4779 4.06723 11.308 2.58412 11.3764ZM15.1643 7.38941L14.5071 7.00819C13.2659 6.28818 11.7341 6.28818 10.4929 7.00819L9.83749 7.38839L9.18054 7.76588C7.93639 8.48079 7.1705 9.80736 7.17344 11.2423L7.175 12L7.17344 12.7577C7.1705 14.1926 7.93639 15.5191 9.18054 16.2341L9.83572 16.6105L9.83928 16.6126L10.4929 16.9917C11.7341 17.7118 13.2659 17.7118 14.5071 16.9917L15.1607 16.6126L15.1643 16.6105L15.8195 16.2341C17.0636 15.5191 17.8295 14.1926 17.8266 12.7577L17.825 12.002V11.9979L17.8266 11.2423C17.8295 9.80736 17.0636 8.4808 15.8195 7.76588L15.1643 7.38941Z" fill="black"/>
<path d="M2.51897 11.3789L2.5 12L2.58412 11.3764C2.56244 11.3774 2.54072 11.3782 2.51897 11.3789Z" fill="black"/>
</svg>
