<svg width="25" height="24" viewBox="0 0 25 24" fill="none" xmlns="http://www.w3.org/2000/svg">
<path fill-rule="evenodd" clip-rule="evenodd" d="M12.1838 3.10552L4.18377 5.77218C3.77543 5.9083 3.5 6.29044 3.5 6.72087V9.00011C3.5 9.55239 3.94772 10.0001 4.5 10.0001H5.5V17.0001H4.5C3.94772 17.0001 3.5 17.4478 3.5 18.0001V20.0001C3.5 20.5524 3.94772 21.0001 4.5 21.0001H20.5C21.0523 21.0001 21.5 20.5524 21.5 20.0001V18.0001C21.5 17.4478 21.0523 17.0001 20.5 17.0001H19.5V10.0001H20.5C21.0523 10.0001 21.5 9.55239 21.5 9.00011V6.72087C21.5 6.29044 21.2246 5.9083 20.8162 5.77218L12.8162 3.10552C12.611 3.03709 12.389 3.03709 12.1838 3.10552ZM17.5 17.0001V10.0001H15.5V17.0001H17.5ZM13.5 17.0001V10.0001H11.5V17.0001H13.5ZM9.5 17.0001V10.0001H7.5V17.0001H9.5Z" fill="black"/>
</svg>
