<svg width="25" height="24" viewBox="0 0 25 24" fill="none" xmlns="http://www.w3.org/2000/svg">
<path fill-rule="evenodd" clip-rule="evenodd" d="M6.5 6H16.5C18.1569 6 19.5 7.34315 19.5 9V10C20.3284 10 21 10.6716 21 11.5V12.5C21 13.3284 20.3284 14 19.5 14V15C19.5 16.6569 18.1569 18 16.5 18H6.5C4.84315 18 3.5 16.6569 3.5 15V9C3.5 7.34315 4.84315 6 6.5 6ZM7 8C7.55228 8 8 8.44772 8 9V15C8 15.5523 7.55228 16 7 16C6.44772 16 6 15.5523 6 15V9C6 8.44772 6.44772 8 7 8ZM11 9C11 8.44772 10.5523 8 10 8C9.44772 8 9 8.44772 9 9V15C9 15.5523 9.44772 16 10 16C10.5523 16 11 15.5523 11 15V9ZM13 8C13.5523 8 14 8.44772 14 9V15C14 15.5523 13.5523 16 13 16C12.4477 16 12 15.5523 12 15V9C12 8.44772 12.4477 8 13 8ZM17 9C17 8.44772 16.5523 8 16 8C15.4477 8 15 8.44772 15 9V15C15 15.5523 15.4477 16 16 16C16.5523 16 17 15.5523 17 15V9Z" fill="black"/>
</svg>
