<svg width="25" height="24" viewBox="0 0 25 24" fill="none" xmlns="http://www.w3.org/2000/svg">
<path d="M10.9895 11.8889L11.0085 11.8425C11.0295 11.8586 11.0509 11.8741 11.0729 11.8889H10.9895Z" fill="black"/>
<path d="M11.9915 12.1575C11.9705 12.1414 11.9491 12.1259 11.9271 12.1111H12.0105L11.9915 12.1575Z" fill="black"/>
<path fill-rule="evenodd" clip-rule="evenodd" d="M16.5 6H6.5C4.84315 6 3.5 7.34315 3.5 9V15C3.5 16.6569 4.84315 18 6.5 18H16.5C18.1569 18 19.5 16.6569 19.5 15V14C20.3284 14 21 13.3284 21 12.5V11.5C21 10.6716 20.3284 10 19.5 10V9C19.5 7.34315 18.1569 6 16.5 6ZM12.5 9.52566C12.5 8.09997 10.5366 7.71389 9.99679 9.03344L8.74365 12.0967C8.39377 12.9519 9.02282 13.8889 9.94686 13.8889H10.5V14.4743C10.5 15.9 12.4634 16.2861 13.0032 14.9666L14.2564 11.9033C14.6062 11.0481 13.9772 10.1111 13.0531 10.1111H12.5V9.52566Z" fill="black"/>
</svg>
