<svg width="25" height="24" viewBox="0 0 25 24" fill="none" xmlns="http://www.w3.org/2000/svg">
<path d="M3.5 5H8.5C9.05228 5 9.5 5.44772 9.5 6V7C9.5 7.55228 9.05228 8 8.5 8H3.5C2.94772 8 2.5 7.55228 2.5 7V6C2.5 5.44772 2.94772 5 3.5 5Z" fill="black"/>
<path d="M3.5 10H21.5C22.0523 10 22.5 10.4477 22.5 11V18C22.5 18.5523 22.0523 19 21.5 19C21.5 19.5523 21.0523 20 20.5 20C19.9477 20 19.5 19.5523 19.5 19H5.5C5.5 19.5523 5.05228 20 4.5 20C3.94772 20 3.5 19.5523 3.5 19C2.94772 19 2.5 18.5523 2.5 18V11C2.5 10.4477 2.94772 10 3.5 10Z" fill="black"/>
</svg>
