<svg width="25" height="24" viewBox="0 0 25 24" fill="none" xmlns="http://www.w3.org/2000/svg">
<path d="M11.5 6C10.9477 6 10.5 6.44772 10.5 7H6.23244C5.88663 6.4022 5.24028 6 4.5 6C3.39543 6 2.5 6.89543 2.5 8C2.5 9.10457 3.39543 10 4.5 10C5.24028 10 5.88663 9.5978 6.23244 9H8.13587C4.7997 10.6207 2.5 14.0418 2.5 18V19C2.5 19.5523 2.94772 20 3.5 20C4.05228 20 4.5 19.5523 4.5 19V18C4.5 13.5817 8.08172 10 12.5 10C16.9183 10 20.5 13.5817 20.5 18V19C20.5 19.5523 20.9477 20 21.5 20C22.0523 20 22.5 19.5523 22.5 19V18C22.5 14.0418 20.2003 10.6207 16.8641 9H19.7676C20.1134 9.5978 20.7597 10 21.5 10C22.6046 10 23.5 9.10457 23.5 8C23.5 6.89543 22.6046 6 21.5 6C20.7597 6 20.1134 6.4022 19.7676 7H14.5C14.5 6.44772 14.0523 6 13.5 6H11.5Z" fill="black"/>
</svg>
