<svg width="25" height="24" viewBox="0 0 25 24" fill="none" xmlns="http://www.w3.org/2000/svg">
<path fill-rule="evenodd" clip-rule="evenodd" d="M3 4C3 3.44772 3.44772 3 4 3H5.5C6.05228 3 6.5 3.44772 6.5 4V5.66667L7.5 7H14.1338C14.0487 6.85291 14 6.68214 14 6.5C14 5.94772 14.4477 5.5 15 5.5H18.5C19.0523 5.5 19.5 5.94772 19.5 6.5C19.5 7.05228 19.0523 7.5 18.5 7.5H17.5352L17.0826 8.17883L18.9662 15.2423C19.0659 15.6159 18.9412 16.0135 18.646 16.2633C18.3509 16.5131 17.9382 16.5704 17.5862 16.4104L8 12.053V15.5C8 16.0523 7.55228 16.5 7 16.5C6.44772 16.5 6 16.0523 6 15.5V8.33333L4.7 6.6C4.57018 6.4269 4.5 6.21637 4.5 6V5H4C3.44772 5 3 4.55228 3 4ZM8 9V9.85609L16.489 13.7147L15.2317 9H8Z" fill="black"/>
<path d="M5.25 12.353C3.63403 13.0357 2.5 14.6354 2.5 16.5C2.5 18.9853 4.51472 21 7 21C9.48528 21 11.5 18.9853 11.5 16.5C11.5 15.6486 11.2636 14.8524 10.8527 14.1736L8.75 13.2178V15.5C8.75 16.4665 7.9665 17.25 7 17.25C6.0335 17.25 5.25 16.4665 5.25 15.5V12.353Z" fill="black"/>
<path d="M13.5 16.5C13.5 16.1329 13.544 15.7761 13.6269 15.4345L17.2758 17.0931C17.8918 17.3731 18.6141 17.2729 19.1306 16.8358C19.6471 16.3986 19.8653 15.7029 19.6909 15.0491L18.9019 12.0904C20.955 12.5081 22.5 14.3236 22.5 16.5C22.5 18.9853 20.4853 21 18 21C15.5147 21 13.5 18.9853 13.5 16.5Z" fill="black"/>
</svg>
