<svg width="25" height="24" viewBox="0 0 25 24" fill="none" xmlns="http://www.w3.org/2000/svg">
<path d="M15.6972 16L12.5 18.1315V13.8685L15.6972 16Z" fill="black"/>
<path d="M12.5 5.86852V10.1315L15.6972 8L12.5 5.86852Z" fill="black"/>
<path fill-rule="evenodd" clip-rule="evenodd" d="M3.5 19V5C3.5 3.34315 4.84315 2 6.5 2H18.5C20.1569 2 21.5 3.34315 21.5 5V19C21.5 20.6569 20.1569 22 18.5 22H6.5C4.84315 22 3.5 20.6569 3.5 19ZM13.6094 4.20442C12.2803 3.31834 10.5 4.27113 10.5 5.86852V9.91938L8.12469 8.01913C7.69343 7.67412 7.06414 7.74404 6.71913 8.1753C6.37412 8.60657 6.44404 9.23586 6.8753 9.58087L9.89922 12L6.8753 14.4191C6.44404 14.7641 6.37412 15.3934 6.71913 15.8247C7.06414 16.256 7.69343 16.3259 8.12469 15.9809L10.5 14.0806V18.1315C10.5 19.7289 12.2803 20.6817 13.6094 19.7956L16.8066 17.6641C17.9941 16.8725 17.9941 15.1275 16.8066 14.3359L13.3028 12L16.8066 9.6641C17.9941 8.87246 17.9941 7.12754 16.8066 6.3359L13.6094 4.20442Z" fill="black"/>
</svg>
