<svg width="25" height="24" viewBox="0 0 25 24" fill="none" xmlns="http://www.w3.org/2000/svg">
<path fill-rule="evenodd" clip-rule="evenodd" d="M21.5 5.56913V15.1753C21.5 15.672 21.195 16.1171 20.7345 16.3034C19.78 16.6895 18.1359 17.3807 17 17.9999C15.1456 19.0109 12.5 19.9999 12.5 19.9999C12.5 19.9999 9.85441 19.0109 8 17.9999C6.86411 17.3807 5.21999 16.6895 4.26549 16.3034C3.80496 16.1171 3.5 15.672 3.5 15.1753V5.56913C3.5 4.77846 4.24984 4.20721 5.00562 4.43948C5.93619 4.72547 7.11713 5.11555 8 5.49993C9.84323 6.30242 12.5 7.99993 12.5 7.99993C12.5 7.99993 15.1568 6.30242 17 5.49993C17.8829 5.11555 19.0638 4.72547 19.9944 4.43948C20.7502 4.20721 21.5 4.77846 21.5 5.56913ZM19.3944 9.55271C19.6414 10.0467 19.4412 10.6474 18.9472 10.8944L15.9472 12.3944C15.4532 12.6413 14.8526 12.4411 14.6056 11.9471C14.3586 11.4532 14.5588 10.8525 15.0528 10.6055L18.0528 9.1055C18.5468 8.85851 19.1474 9.05873 19.3944 9.55271ZM6.05279 10.8944C5.55881 10.6474 5.35858 10.0467 5.60557 9.55271C5.85256 9.05873 6.45324 8.85851 6.94721 9.1055L9.94721 10.6055C10.4412 10.8525 10.6414 11.4532 10.3944 11.9471C10.1474 12.4411 9.54676 12.6413 9.05279 12.3944L6.05279 10.8944ZM19.3944 12.5527C19.6414 13.0467 19.4412 13.6474 18.9472 13.8944L15.9472 15.3944C15.4532 15.6413 14.8526 15.4411 14.6056 14.9471C14.3586 14.4532 14.5588 13.8525 15.0528 13.6055L18.0528 12.1055C18.5468 11.8585 19.1474 12.0587 19.3944 12.5527ZM6.05279 13.8944C5.55881 13.6474 5.35858 13.0467 5.60557 12.5527C5.85256 12.0587 6.45324 11.8585 6.94721 12.1055L9.94721 13.6055C10.4412 13.8525 10.6414 14.4532 10.3944 14.9471C10.1474 15.4411 9.54676 15.6413 9.05279 15.3944L6.05279 13.8944Z" fill="black"/>
</svg>
