<svg width="25" height="24" viewBox="0 0 25 24" fill="none" xmlns="http://www.w3.org/2000/svg">
<path d="M9.38516 3.49707L11.3276 3.02071C11.864 2.88917 12.4055 3.21736 12.537 3.75375L16.3479 19.2933C16.4794 19.8297 16.1512 20.3712 15.6148 20.5027L13.6724 20.9791C13.136 21.1106 12.5945 20.7824 12.463 20.246L8.65212 4.70647C8.52058 4.17008 8.84877 3.62861 9.38516 3.49707Z" fill="black"/>
<path d="M6.5 2.9999H4.5C3.94772 2.9999 3.5 3.44761 3.5 3.9999V19.9999C3.5 20.5522 3.94772 20.9999 4.5 20.9999H6.5C7.05228 20.9999 7.5 20.5522 7.5 19.9999V3.9999C7.5 3.44761 7.05228 2.9999 6.5 2.9999Z" fill="black"/>
<path d="M20.5 2.9999H18.5C17.9477 2.9999 17.5 3.44761 17.5 3.9999V19.9999C17.5 20.5522 17.9477 20.9999 18.5 20.9999H20.5C21.0523 20.9999 21.5 20.5522 21.5 19.9999V3.9999C21.5 3.44761 21.0523 2.9999 20.5 2.9999Z" fill="black"/>
</svg>
