<svg width="25" height="24" viewBox="0 0 25 24" fill="none" xmlns="http://www.w3.org/2000/svg">
<path fill-rule="evenodd" clip-rule="evenodd" d="M7.16667 3H17.8333C19.3061 3 20.5 4.20883 20.5 5.7V15.9863C20.5051 16.3532 20.3072 16.7012 19.9741 16.8805C19.9701 16.9121 19.9671 16.9725 19.9789 17.0716C20.0212 17.4286 20.1957 17.8945 20.4349 18.4899L20.4638 18.5619C20.5656 18.8148 20.6757 19.0887 20.7647 19.346C20.8597 19.6203 20.9562 19.946 20.9843 20.2681C21.0112 20.5781 20.9903 21.0721 20.6297 21.4838C20.2606 21.9051 19.749 22 19.3536 22H8.35943C6.18388 22 4.51086 20.1591 4.50005 17.9999L4.5 17.9789V5.7C4.5 4.20883 5.69391 3 7.16667 3ZM6.5 17.9789C6.5 17.4383 6.93827 17 7.4789 17H17.9711C17.9732 17.1065 17.9812 17.2094 17.9928 17.3069C18.0716 17.9723 18.3596 18.6892 18.5734 19.2215L18.6045 19.2987C18.7109 19.5636 18.8026 19.7917 18.8747 20L8.35943 20C7.3836 20 6.5 19.1477 6.5 17.9789ZM19.3897 19.9987L19.3937 19.9982C19.3938 19.9983 19.3925 19.9985 19.3897 19.9987Z" fill="black"/>
</svg>
