<svg width="25" height="24" viewBox="0 0 25 24" fill="none" xmlns="http://www.w3.org/2000/svg">
<path fill-rule="evenodd" clip-rule="evenodd" d="M17.2071 1.29289C16.8166 0.902369 16.1834 0.902369 15.7929 1.29289L15.0858 2H13.5C13.1512 2 12.8276 2.18173 12.6461 2.47956L11.6461 4.12028C11.4782 4.39581 11.4593 4.72041 11.5667 5H7.5C4.73858 5 2.5 7.23858 2.5 10V18C2.5 19.6569 3.84315 21 5.5 21H19.5C21.1569 21 22.5 19.6569 22.5 18V10C22.5 7.23858 20.2614 5 17.5 5H13.4521L14.0616 4H15.5C15.7652 4 16.0196 3.89464 16.2071 3.70711L17.2071 2.70711C17.5976 2.31658 17.5976 1.68342 17.2071 1.29289ZM7.5 12.25C7.5 12.9404 8.05964 13.5 8.75 13.5C9.44036 13.5 10 12.9404 10 12.25C10 11.5596 9.44036 11 8.75 11C8.05964 11 7.5 11.5596 7.5 12.25ZM15.75 13.5C15.0596 13.5 14.5 12.9404 14.5 12.25C14.5 11.5596 15.0596 11 15.75 11C16.4404 11 17 11.5596 17 12.25C17 12.9404 16.4404 13.5 15.75 13.5ZM9.60557 15.5528C9.85256 15.0588 10.4532 14.8586 10.9472 15.1056L11.1584 15.2111C12.0029 15.6334 12.9971 15.6334 13.8416 15.2111L14.0528 15.1056C14.5468 14.8586 15.1474 15.0588 15.3944 15.5528C15.6414 16.0468 15.4412 16.6474 14.9472 16.8944L14.7361 17C13.3284 17.7038 11.6716 17.7038 10.2639 17L10.0528 16.8944C9.55881 16.6474 9.35858 16.0468 9.60557 15.5528Z" fill="black"/>
</svg>
