<svg width="25" height="24" viewBox="0 0 25 24" fill="none" xmlns="http://www.w3.org/2000/svg">
<path d="M9.03407 3.52531C10.2511 3.14233 11.3338 2.82856 11.953 2.65299C12.3133 2.55085 12.6844 2.55549 13.0423 2.66578C14.7014 3.17716 19.7128 4.76026 21.6873 5.81782L18.1941 7.28861L9.03407 3.52531Z" fill="black"/>
<path d="M6.84571 4.24791C5.39095 4.75515 4.01133 5.30122 3.21089 5.78048C3.23764 5.78837 3.26423 5.79784 3.29055 5.80892L12.4995 9.68626L16.2447 8.10938L6.84571 4.24791Z" fill="black"/>
<path d="M2.39249 6.94081C2.15708 8.59947 2.33905 13.7903 2.44167 16.2209C2.47464 17.0017 2.96462 17.6862 3.69023 17.9764L11.7568 21.203C11.7645 21.2061 11.7722 21.2091 11.7799 21.2121C11.7601 21.1449 11.7495 21.0737 11.7495 21V10.998L2.70848 7.19138C2.57742 7.1362 2.47024 7.04813 2.39249 6.94081Z" fill="black"/>
<path d="M13.2191 21.2122C13.2268 21.2092 13.2346 21.2061 13.2423 21.203L21.3089 17.9764C22.0345 17.6862 22.5244 17.0017 22.5574 16.2209C22.6601 13.7903 22.8421 8.59927 22.6066 6.94071C22.5289 7.04807 22.4216 7.13618 22.2905 7.19138L13.2495 10.998V21C13.2495 21.0737 13.2389 21.1449 13.2191 21.2122Z" fill="black"/>
</svg>
