<svg width="25" height="24" viewBox="0 0 25 24" fill="none" xmlns="http://www.w3.org/2000/svg">
<path d="M6 6.79198C5.11705 6.4062 4.5 5.52516 4.5 4.5C4.5 3.11929 5.61929 2 7 2C8.38071 2 9.5 3.11929 9.5 4.5C9.5 5.52516 8.88295 6.4062 8 6.79198V13.2241C8 13.3827 7.96308 13.5327 7.89738 13.6659C8.43163 13.8714 8.87747 14.2551 9.16215 14.7441C12.9739 14.8491 14.775 14.0455 15.7134 12.85C16.6917 11.6037 16.9813 9.6591 16.9991 6.79159C16.1166 6.40561 15.5 5.52482 15.5 4.5C15.5 3.11929 16.6193 2 18 2C19.3807 2 20.5 3.11929 20.5 4.5C20.5 5.52546 19.8826 6.40671 18.9992 6.79231C18.9839 9.64981 18.7266 12.2504 17.2866 14.0849C15.789 15.9929 13.2492 16.8153 9.38568 16.7496C9.16781 17.4437 8.65541 18.0074 7.99494 18.2942C7.99836 18.3278 8.00011 18.362 8.00011 18.3966V21.5C8.00011 22.0523 7.5524 22.5 7.00011 22.5C6.44783 22.5 6.00011 22.0523 6.00011 21.5V18.3966C6.00011 18.362 6.00186 18.3279 6.00528 18.2943C5.11951 17.9097 4.5 17.0272 4.5 16C4.5 14.9356 5.16523 14.0265 6.10262 13.6659C6.03692 13.5327 6 13.3827 6 13.2241V6.79198Z" fill="black"/>
</svg>
