<svg width="25" height="24" viewBox="0 0 25 24" fill="none" xmlns="http://www.w3.org/2000/svg">
<path d="M13.9998 3V5.5C13.9998 6.60457 14.8952 7.5 15.9998 7.5H18.4998C19.6043 7.5 20.4998 8.39543 20.4998 9.5V13.5H4.49976V9.5C4.49976 8.39543 5.39519 7.5 6.49976 7.5H8.99976C10.1043 7.5 10.9998 6.60457 10.9998 5.5V3C10.9998 2.17157 11.6713 1.5 12.4998 1.5C13.3282 1.5 13.9998 2.17157 13.9998 3Z" fill="black"/>
<path d="M4.25682 15H20.7427L21.4358 19.7087C21.6136 20.9163 20.6777 22 19.4572 22H17.6214C17.6214 21.9453 17.6168 21.8898 17.6074 21.8341L17.0922 18.7716C17.0006 18.227 16.4848 17.8597 15.9402 17.9514C15.3956 18.043 15.0283 18.5588 15.1199 19.1034L15.6072 22H5.54239C4.32187 22 3.38597 20.9163 3.56371 19.7087L4.25682 15Z" fill="black"/>
</svg>
