<svg width="25" height="24" viewBox="0 0 25 24" fill="none" xmlns="http://www.w3.org/2000/svg">
<path fill-rule="evenodd" clip-rule="evenodd" d="M5.50921 11.8637C5.50313 11.8129 5.5 11.7612 5.5 11.7087V5C5.5 3.89543 6.39543 3 7.5 3H8.5V2C8.5 1.44771 8.94772 1 9.5 1C10.0523 1 10.5 1.44771 10.5 2V3H11V2C11 1.44771 11.4477 1 12 1C12.5523 1 13 1.44771 13 2V3.02469C15.5267 3.27555 17.5 5.40733 17.5 8C17.5 9.27077 17.0259 10.4308 16.245 11.3129C18.146 12.021 19.5 13.8524 19.5 16C19.5 18.7614 17.2614 21 14.5 21H13V22C13 22.5523 12.5523 23 12 23C11.4477 23 11 22.5523 11 22V21H10.5V22C10.5 22.5523 10.0523 23 9.5 23C8.94772 23 8.5 22.5523 8.5 22V21H7.5C6.39543 21 5.5 20.1046 5.5 19V12C5.5 11.9538 5.50314 11.9083 5.50921 11.8637ZM7.5 11H12.5C14.1569 11 15.5 9.65685 15.5 8C15.5 6.34315 14.1569 5 12.5 5H7.5V11ZM7.5 13V19H14.5C16.1569 19 17.5 17.6569 17.5 16C17.5 14.3431 16.1569 13 14.5 13H7.5Z" fill="black"/>
</svg>
