<svg width="25" height="24" viewBox="0 0 25 24" fill="none" xmlns="http://www.w3.org/2000/svg">
<path d="M8.77239 4.91043L8.75 5H16.25L16.2276 4.91043C15.8 3.19995 14.2631 2 12.5 2C10.7369 2 9.20001 3.19995 8.77239 4.91043Z" fill="black"/>
<path d="M19.5 12L19.5 10.3663C19.574 10.3235 19.6438 10.2704 19.7071 10.2071L21.7071 8.20711C22.0976 7.81658 22.0976 7.18342 21.7071 6.79289C21.3166 6.40237 20.6834 6.40237 20.2929 6.79289L19.261 7.82474C18.8038 6.752 17.7397 6 16.5 6H8.5C7.26026 6 6.19615 6.752 5.73895 7.82474L4.70711 6.79289C4.31658 6.40237 3.68342 6.40237 3.29289 6.79289C2.90237 7.18342 2.90237 7.81658 3.29289 8.20711L5.29289 10.2071C5.35624 10.2704 5.42596 10.3235 5.5 10.3663L5.5 12L3 12C2.44771 12 2 12.4477 2 13C2 13.5523 2.44772 14 3 14L5.5 14C5.52372 14 5.54724 13.9992 5.57054 13.9976C5.6682 14.682 5.86486 15.3346 6.14558 15.9402L4.29289 17.7929C3.90237 18.1834 3.90237 18.8166 4.29289 19.2071C4.68342 19.5976 5.31658 19.5976 5.70711 19.2071L7.26598 17.6482C8.54821 19.091 10.418 20 12.5 20C14.582 20 16.4518 19.091 17.734 17.6482L19.2929 19.2071C19.6834 19.5976 20.3166 19.5976 20.7071 19.2071C21.0976 18.8166 21.0976 18.1834 20.7071 17.7929L18.8544 15.9402C19.1351 15.3346 19.3318 14.682 19.4295 13.9976C19.4528 13.9992 19.4763 14 19.5 14L21 14C21.5523 14 22 13.5523 22 13C22 12.4477 21.5523 12 21 12L19.5 12Z" fill="black"/>
</svg>
