<svg width="25" height="24" viewBox="0 0 25 24" fill="none" xmlns="http://www.w3.org/2000/svg">
<path fill-rule="evenodd" clip-rule="evenodd" d="M7.5 19V5C7.5 4.44772 7.94772 4 8.5 4H16.5C17.0523 4 17.5 4.44772 17.5 5V19H20.5C21.0523 19 21.5 19.4477 21.5 20C21.5 20.5523 21.0523 21 20.5 21H4.5C3.94772 21 3.5 20.5523 3.5 20C3.5 19.4477 3.94772 19 4.5 19H7.5ZM11 8C11.5523 8 12 7.55228 12 7C12 6.44772 11.5523 6 11 6H10C9.44772 6 9 6.44772 9 7C9 7.55228 9.44772 8 10 8H11ZM16 10C16 10.5523 15.5523 11 15 11H14C13.4477 11 13 10.5523 13 10C13 9.44772 13.4477 9 14 9H15C15.5523 9 16 9.44772 16 10ZM11 14C11.5523 14 12 13.5523 12 13C12 12.4477 11.5523 12 11 12H10C9.44772 12 9 12.4477 9 13C9 13.5523 9.44772 14 10 14H11ZM16 7C16 7.55228 15.5523 8 15 8H14C13.4477 8 13 7.55228 13 7C13 6.44772 13.4477 6 14 6H15C15.5523 6 16 6.44772 16 7ZM11 11C11.5523 11 12 10.5523 12 10C12 9.44772 11.5523 9 11 9H10C9.44772 9 9 9.44772 9 10C9 10.5523 9.44772 11 10 11H11ZM16 13C16 13.5523 15.5523 14 15 14H14C13.4477 14 13 13.5523 13 13C13 12.4477 13.4477 12 14 12H15C15.5523 12 16 12.4477 16 13ZM11 17C11.5523 17 12 16.5523 12 16C12 15.4477 11.5523 15 11 15H10C9.44772 15 9 15.4477 9 16C9 16.5523 9.44772 17 10 17H11ZM16 16C16 16.5523 15.5523 17 15 17H14C13.4477 17 13 16.5523 13 16C13 15.4477 13.4477 15 14 15H15C15.5523 15 16 15.4477 16 16Z" fill="black"/>
</svg>
