<svg width="25" height="24" viewBox="0 0 25 24" fill="none" xmlns="http://www.w3.org/2000/svg">
<path fill-rule="evenodd" clip-rule="evenodd" d="M19.5 19H21.5C22.0523 19 22.5 19.4477 22.5 20C22.5 20.5523 22.0523 21 21.5 21H3C2.44772 21 2 20.5523 2 20C2 19.4477 2.44772 19 3 19H5.5V9.58043C5.5 9.22157 5.69229 8.89023 6.00386 8.71218L12.0039 5.28361C12.3113 5.10794 12.6887 5.10794 12.9961 5.28361L18.9961 8.71218C19.3077 8.89023 19.5 9.22157 19.5 9.58043V19ZM11.5 19H13.5V18.0001C13.5 17.4478 13.0523 17.0001 12.5 17.0001C11.9477 17.0001 11.5 17.4478 11.5 18.0001V19ZM16.5 10.0001C16.5 10.5524 16.0523 11.0001 15.5 11.0001H14.5C13.9477 11.0001 13.5 10.5524 13.5 10.0001C13.5 9.44782 13.9477 9.0001 14.5 9.0001H15.5C16.0523 9.0001 16.5 9.44782 16.5 10.0001ZM10.5 14.0001C11.0523 14.0001 11.5 13.5524 11.5 13.0001C11.5 12.4478 11.0523 12.0001 10.5 12.0001H9.5C8.94772 12.0001 8.5 12.4478 8.5 13.0001C8.5 13.5524 8.94772 14.0001 9.5 14.0001H10.5ZM11.5 10.0001C11.5 10.5524 11.0523 11.0001 10.5 11.0001H9.5C8.94772 11.0001 8.5 10.5524 8.5 10.0001C8.5 9.44782 8.94772 9.0001 9.5 9.0001H10.5C11.0523 9.0001 11.5 9.44782 11.5 10.0001ZM15.5 14.0001C16.0523 14.0001 16.5 13.5524 16.5 13.0001C16.5 12.4478 16.0523 12.0001 15.5 12.0001H14.5C13.9477 12.0001 13.5 12.4478 13.5 13.0001C13.5 13.5524 13.9477 14.0001 14.5 14.0001H15.5ZM11.5 16.0001C11.5 16.5524 11.0523 17.0001 10.5 17.0001H9.5C8.94772 17.0001 8.5 16.5524 8.5 16.0001C8.5 15.4478 8.94772 15.0001 9.5 15.0001H10.5C11.0523 15.0001 11.5 15.4478 11.5 16.0001ZM15.5 17.0001C16.0523 17.0001 16.5 16.5524 16.5 16.0001C16.5 15.4478 16.0523 15.0001 15.5 15.0001H14.5C13.9477 15.0001 13.5 15.4478 13.5 16.0001C13.5 16.5524 13.9477 17.0001 14.5 17.0001H15.5Z" fill="black"/>
</svg>
