<svg width="25" height="24" viewBox="0 0 25 24" fill="none" xmlns="http://www.w3.org/2000/svg">
<path d="M8.5 6V5C8.5 4.44772 8.94772 4 9.5 4H15.5C16.0523 4 16.5 4.44772 16.5 5V6H15.5C14.9477 6 14.5 6.44772 14.5 7C14.5 7.55228 14.9477 8 15.5 8H16.5V9H14.5C13.9477 9 13.5 9.44772 13.5 10C13.5 10.5523 13.9477 11 14.5 11H16.5V12H15.5C14.9477 12 14.5 12.4477 14.5 13C14.5 13.5523 14.9477 14 15.5 14H16.5V15H14.5C13.9477 15 13.5 15.4477 13.5 16C13.5 16.5523 13.9477 17 14.5 17H16.5V19H20.5C21.0523 19 21.5 19.4477 21.5 20C21.5 20.5523 21.0523 21 20.5 21H4.5C3.94772 21 3.5 20.5523 3.5 20C3.5 19.4477 3.94772 19 4.5 19H8.5V17H9.5C10.0523 17 10.5 16.5523 10.5 16C10.5 15.4477 10.0523 15 9.5 15H8.5V14H10.5C11.0523 14 11.5 13.5523 11.5 13C11.5 12.4477 11.0523 12 10.5 12H8.5V11H9.5C10.0523 11 10.5 10.5523 10.5 10C10.5 9.44772 10.0523 9 9.5 9H8.5V8H10.5C11.0523 8 11.5 7.55228 11.5 7C11.5 6.44772 11.0523 6 10.5 6H8.5Z" fill="black"/>
</svg>
