<svg width="25" height="24" viewBox="0 0 25 24" fill="none" xmlns="http://www.w3.org/2000/svg">
<path fill-rule="evenodd" clip-rule="evenodd" d="M20.5 19H22.5C23.0523 19 23.5 19.4477 23.5 20C23.5 20.5523 23.0523 21 22.5 21H2.5C1.94772 21 1.5 20.5523 1.5 20C1.5 19.4477 1.94772 19 2.5 19H5.5V5C5.5 4.44772 5.94772 4 6.5 4H14.5C15.0523 4 15.5 4.44772 15.5 5V10H19.5C20.0523 10 20.5 10.4477 20.5 11V12H19.5C18.9477 12 18.5 12.4477 18.5 13C18.5 13.5523 18.9477 14 19.5 14H20.5V15H19.5C18.9477 15 18.5 15.4477 18.5 16C18.5 16.5523 18.9477 17 19.5 17H20.5V19ZM9 8C9.55228 8 10 7.55228 10 7C10 6.44772 9.55228 6 9 6H8C7.44772 6 7 6.44772 7 7C7 7.55228 7.44772 8 8 8H9ZM14 10C14 10.5523 13.5523 11 13 11H12C11.4477 11 11 10.5523 11 10C11 9.44772 11.4477 9 12 9H13C13.5523 9 14 9.44772 14 10ZM9 14C9.55228 14 10 13.5523 10 13C10 12.4477 9.55228 12 9 12H8C7.44772 12 7 12.4477 7 13C7 13.5523 7.44772 14 8 14H9ZM14 7C14 7.55228 13.5523 8 13 8H12C11.4477 8 11 7.55228 11 7C11 6.44772 11.4477 6 12 6H13C13.5523 6 14 6.44772 14 7ZM9 11C9.55228 11 10 10.5523 10 10C10 9.44772 9.55228 9 9 9H8C7.44772 9 7 9.44772 7 10C7 10.5523 7.44772 11 8 11H9ZM14 13C14 13.5523 13.5523 14 13 14H12C11.4477 14 11 13.5523 11 13C11 12.4477 11.4477 12 12 12H13C13.5523 12 14 12.4477 14 13ZM9 17C9.55228 17 10 16.5523 10 16C10 15.4477 9.55228 15 9 15H8C7.44772 15 7 15.4477 7 16C7 16.5523 7.44772 17 8 17H9ZM14 16C14 16.5523 13.5523 17 13 17H12C11.4477 17 11 16.5523 11 16C11 15.4477 11.4477 15 12 15H13C13.5523 15 14 15.4477 14 16Z" fill="black"/>
</svg>
