<svg width="25" height="24" viewBox="0 0 25 24" fill="none" xmlns="http://www.w3.org/2000/svg">
<path fill-rule="evenodd" clip-rule="evenodd" d="M5.5 19V9.58023C5.5 9.22137 5.69229 8.89003 6.00386 8.71198L12.0108 5.27946C12.3145 5.10592 12.6868 5.10367 12.9926 5.27355L16.0015 6.94517C16.0299 6.41838 16.4661 6 17 6C17.5523 6 18 6.44772 18 7V8.09991L19.0145 8.7086C19.3157 8.88933 19.5 9.21483 19.5 9.5661V19H20.5C21.0523 19 21.5 19.4477 21.5 20C21.5 20.5523 21.0523 21 20.5 21H4.5C3.94772 21 3.5 20.5523 3.5 20C3.5 19.4477 3.94772 19 4.5 19H5.5ZM11.5 19H13.5V16.9999C13.5 16.4476 13.0523 15.9999 12.5 15.9999C11.9477 15.9999 11.5 16.4476 11.5 16.9999V19ZM16.5 13.9999C16.5 14.5522 16.0523 14.9999 15.5 14.9999H14.5C13.9477 14.9999 13.5 14.5522 13.5 13.9999C13.5 13.4476 13.9477 12.9999 14.5 12.9999H15.5C16.0523 12.9999 16.5 13.4476 16.5 13.9999ZM15.5 11.9999C16.0523 11.9999 16.5 11.5522 16.5 10.9999C16.5 10.4476 16.0523 9.99991 15.5 9.99991H14.5C13.9477 9.99991 13.5 10.4476 13.5 10.9999C13.5 11.5522 13.9477 11.9999 14.5 11.9999H15.5ZM11.5 13.9999C11.5 14.5522 11.0523 14.9999 10.5 14.9999H9.5C8.94772 14.9999 8.5 14.5522 8.5 13.9999C8.5 13.4476 8.94772 12.9999 9.5 12.9999H10.5C11.0523 12.9999 11.5 13.4476 11.5 13.9999ZM10.5 11.9999C11.0523 11.9999 11.5 11.5522 11.5 10.9999C11.5 10.4476 11.0523 9.99991 10.5 9.99991H9.5C8.94772 9.99991 8.5 10.4476 8.5 10.9999C8.5 11.5522 8.94772 11.9999 9.5 11.9999H10.5Z" fill="black"/>
</svg>
