<svg width="25" height="24" viewBox="0 0 25 24" fill="none" xmlns="http://www.w3.org/2000/svg">
<path fill-rule="evenodd" clip-rule="evenodd" d="M18.5 19H20.5C21.0523 19 21.5 19.4477 21.5 20C21.5 20.5523 21.0523 21 20.5 21H4.5C3.94772 21 3.5 20.5523 3.5 20C3.5 19.4477 3.94772 19 4.5 19H6.5V9.53524C6.5 9.20088 6.6671 8.88865 6.9453 8.70319L11.9453 5.36985C12.2812 5.14592 12.7188 5.14592 13.0547 5.36985L18.0547 8.70319C18.3329 8.88865 18.5 9.20088 18.5 9.53524V19ZM11.5 19H13.5V17.0001C13.5 16.4478 13.0523 16.0001 12.5 16.0001C11.9477 16.0001 11.5 16.4478 11.5 17.0001V19ZM15.5 15.0001C16.0523 15.0001 16.5 14.5523 16.5 14.0001C16.5 13.4478 16.0523 13.0001 15.5 13.0001H14.5C13.9477 13.0001 13.5 13.4478 13.5 14.0001C13.5 14.5523 13.9477 15.0001 14.5 15.0001H15.5ZM16.5 11.0001C16.5 11.5523 16.0523 12.0001 15.5 12.0001H14.5C13.9477 12.0001 13.5 11.5523 13.5 11.0001C13.5 10.4478 13.9477 10.0001 14.5 10.0001H15.5C16.0523 10.0001 16.5 10.4478 16.5 11.0001ZM10.5 15.0001C11.0523 15.0001 11.5 14.5523 11.5 14.0001C11.5 13.4478 11.0523 13.0001 10.5 13.0001H9.5C8.94772 13.0001 8.5 13.4478 8.5 14.0001C8.5 14.5523 8.94772 15.0001 9.5 15.0001H10.5ZM11.5 11.0001C11.5 11.5523 11.0523 12.0001 10.5 12.0001H9.5C8.94772 12.0001 8.5 11.5523 8.5 11.0001C8.5 10.4478 8.94772 10.0001 9.5 10.0001H10.5C11.0523 10.0001 11.5 10.4478 11.5 11.0001Z" fill="black"/>
</svg>
