<svg width="25" height="24" viewBox="0 0 25 24" fill="none" xmlns="http://www.w3.org/2000/svg">
<path fill-rule="evenodd" clip-rule="evenodd" d="M6.5 2H18.5C19.6046 2 20.5 2.89543 20.5 4V13.5858L21.2929 12.7929C21.6834 12.4024 22.3166 12.4024 22.7071 12.7929C23.0976 13.1834 23.0976 13.8166 22.7071 14.2071L21.2071 15.7071C21.0118 15.9024 20.7559 16 20.5 16V18C20.5 19.1046 19.6046 20 18.5 20V21C18.5 21.5523 18.0523 22 17.5 22H16.5C15.9477 22 15.5 21.5523 15.5 21V20H9.5V21C9.5 21.5523 9.05228 22 8.5 22H7.5C6.94772 22 6.5 21.5523 6.5 21V20C5.39543 20 4.5 19.1046 4.5 18V16C4.24408 16 3.98816 15.9024 3.79289 15.7071L2.29289 14.2071C1.90237 13.8166 1.90237 13.1834 2.29289 12.7929C2.68342 12.4024 3.31658 12.4024 3.70711 12.7929L4.5 13.5858V4C4.5 2.89543 5.39543 2 6.5 2ZM17.5 5H7.5V15H17.5V5Z" fill="black"/>
</svg>
