<svg width="25" height="24" viewBox="0 0 25 24" fill="none" xmlns="http://www.w3.org/2000/svg">
<path d="M8.5 2C9.05228 2 9.5 2.44772 9.5 3V4.5H7.5V3C7.5 2.44772 7.94772 2 8.5 2Z" fill="black"/>
<path d="M15.5 5H9.5V6C9.5 6.55228 9.05228 7 8.5 7C7.94772 7 7.5 6.55228 7.5 6V5H6.5C4.84315 5 3.5 6.34315 3.5 8V8.5H21.5V8C21.5 6.34315 20.1569 5 18.5 5H17.5V6C17.5 6.55228 17.0523 7 16.5 7C15.9477 7 15.5 6.55228 15.5 6V5Z" fill="black"/>
<path d="M3.5 10.5V19C3.5 20.6569 4.84315 22 6.5 22H15.6707C15.5602 21.6872 15.5 21.3506 15.5 21C15.5 19.3431 16.8431 18 18.5 18H21.5V10.5H3.5Z" fill="black"/>
<path d="M17.5 3C17.5 2.44772 17.0523 2 16.5 2C15.9477 2 15.5 2.44772 15.5 3V4.5H17.5V3Z" fill="black"/>
<path d="M18.5 20C17.9477 20 17.5 20.4477 17.5 21C17.5 21.5523 17.9477 22 18.5 22H22.5C23.0523 22 23.5 21.5523 23.5 21C23.5 20.4477 23.0523 20 22.5 20H18.5Z" fill="black"/>
</svg>
