<svg width="25" height="24" viewBox="0 0 25 24" fill="none" xmlns="http://www.w3.org/2000/svg">
<path d="M8.5 1C9.05228 1 9.5 1.44772 9.5 2V3.5H7.5V2C7.5 1.44772 7.94772 1 8.5 1Z" fill="black"/>
<path d="M15.5 4H9.5V5C9.5 5.55228 9.05228 6 8.5 6C7.94772 6 7.5 5.55228 7.5 5V4H6.5C4.84315 4 3.5 5.34315 3.5 7V7.5H21.5V7C21.5 5.34315 20.1569 4 18.5 4H17.5V5C17.5 5.55228 17.0523 6 16.5 6C15.9477 6 15.5 5.55228 15.5 5V4Z" fill="black"/>
<path d="M3.5 9.5V18C3.5 19.6569 4.84315 21 6.5 21H16.1144C16.1623 20.6543 16.2706 20.3153 16.4391 20.0001C15.8321 18.865 16.0072 17.4218 16.9645 16.4645C17.9217 15.5073 19.3649 15.3322 20.5 15.9392C20.8152 15.7706 21.1542 15.6623 21.5 15.6144V9.5H3.5Z" fill="black"/>
<path d="M17.5 2C17.5 1.44772 17.0523 1 16.5 1C15.9477 1 15.5 1.44772 15.5 2V3.5H17.5V2Z" fill="black"/>
<path d="M22.4497 19.1213C22.8402 18.7308 22.8402 18.0976 22.4497 17.7071C22.0592 17.3166 21.426 17.3166 21.0355 17.7071L20.3284 18.4142L19.6213 17.7071C19.2307 17.3166 18.5976 17.3166 18.207 17.7071C17.8165 18.0976 17.8165 18.7308 18.207 19.1213L18.9142 19.8284L18.207 20.5355C17.8165 20.9261 17.8165 21.5592 18.207 21.9497C18.5976 22.3403 19.2307 22.3403 19.6213 21.9497L20.3284 21.2426L21.0355 21.9497C21.426 22.3403 22.0592 22.3403 22.4497 21.9497C22.8402 21.5592 22.8402 20.9261 22.4497 20.5355L21.7426 19.8284L22.4497 19.1213Z" fill="black"/>
</svg>
