<svg width="25" height="24" viewBox="0 0 25 24" fill="none" xmlns="http://www.w3.org/2000/svg">
<path d="M8.5 1C9.05228 1 9.5 1.44772 9.5 2V3.5H7.5V2C7.5 1.44772 7.94772 1 8.5 1Z" fill="black"/>
<path d="M15.5 4H9.5V5C9.5 5.55228 9.05228 6 8.5 6C7.94772 6 7.5 5.55228 7.5 5V4H6.5C4.84315 4 3.5 5.34315 3.5 7V7.5H21.5V7C21.5 5.34315 20.1569 4 18.5 4H17.5V5C17.5 5.55228 17.0523 6 16.5 6C15.9477 6 15.5 5.55228 15.5 5V4Z" fill="black"/>
<path d="M3.5 9.5V18C3.5 19.6569 4.84315 21 6.5 21H18.5C20.1569 21 21.5 19.6569 21.5 18V9.5H3.5Z" fill="black"/>
<path d="M17.5 2C17.5 1.44772 17.0523 1 16.5 1C15.9477 1 15.5 1.44772 15.5 2V3.5H17.5V2Z" fill="black"/>
</svg>
