<svg width="25" height="24" viewBox="0 0 25 24" fill="none" xmlns="http://www.w3.org/2000/svg">
<path d="M8.5 2C9.05228 2 9.5 2.44772 9.5 3V4.5H7.5V3C7.5 2.44772 7.94772 2 8.5 2Z" fill="black"/>
<path d="M15.5 5H9.5V6C9.5 6.55228 9.05228 7 8.5 7C7.94772 7 7.5 6.55228 7.5 6V5H6.5C4.84315 5 3.5 6.34315 3.5 8V8.5H21.5V8C21.5 6.34315 20.1569 5 18.5 5H17.5V6C17.5 6.55228 17.0523 7 16.5 7C15.9477 7 15.5 6.55228 15.5 6V5Z" fill="black"/>
<path d="M3.5 10.5V19C3.5 20.6569 4.84315 22 6.5 22H16.2639C15.7889 21.4692 15.5 20.7684 15.5 20C15.5 18.6462 16.3967 17.5019 17.6285 17.1285C18.0019 15.8967 19.1462 15 20.5 15C20.8506 15 21.1872 15.0602 21.5 15.1707V10.5H3.5Z" fill="black"/>
<path d="M17.5 3C17.5 2.44772 17.0523 2 16.5 2C15.9477 2 15.5 2.44772 15.5 3V4.5H17.5V3Z" fill="black"/>
<path d="M21.5 18C21.5 17.4477 21.0523 17 20.5 17C19.9477 17 19.5 17.4477 19.5 18V19H18.5C17.9477 19 17.5 19.4477 17.5 20C17.5 20.5523 17.9477 21 18.5 21H19.5V22C19.5 22.5523 19.9477 23 20.5 23C21.0523 23 21.5 22.5523 21.5 22V21H22.5C23.0523 21 23.5 20.5523 23.5 20C23.5 19.4477 23.0523 19 22.5 19H21.5V18Z" fill="black"/>
</svg>
