<svg width="25" height="24" viewBox="0 0 25 24" fill="none" xmlns="http://www.w3.org/2000/svg">
<path d="M8.5 2C9.05228 2 9.5 2.44772 9.5 3V4.5H7.5V3C7.5 2.44772 7.94772 2 8.5 2Z" fill="black"/>
<path d="M15.5 5H9.5V6C9.5 6.55228 9.05228 7 8.5 7C7.94772 7 7.5 6.55228 7.5 6V5H6.5C4.84315 5 3.5 6.34315 3.5 8V8.5H21.5V8C21.5 6.34315 20.1569 5 18.5 5H17.5V6C17.5 6.55228 17.0523 7 16.5 7C15.9477 7 15.5 6.55228 15.5 6V5Z" fill="black"/>
<path fill-rule="evenodd" clip-rule="evenodd" d="M3.5 10.5V19C3.5 20.6569 4.84315 22 6.5 22H18.5C20.1569 22 21.5 20.6569 21.5 19V10.5H3.5ZM5.5 18C5.5 17.4477 5.94772 17 6.5 17H13.5C14.0523 17 14.5 17.4477 14.5 18C14.5 18.5523 14.0523 19 13.5 19H6.5C5.94772 19 5.5 18.5523 5.5 18ZM16.5 17C15.9477 17 15.5 17.4477 15.5 18C15.5 18.5523 15.9477 19 16.5 19H18.5C19.0523 19 19.5 18.5523 19.5 18C19.5 17.4477 19.0523 17 18.5 17H16.5Z" fill="black"/>
<path d="M17.5 3C17.5 2.44772 17.0523 2 16.5 2C15.9477 2 15.5 2.44772 15.5 3V4.5H17.5V3Z" fill="black"/>
</svg>
