<svg width="25" height="24" viewBox="0 0 25 24" fill="none" xmlns="http://www.w3.org/2000/svg">
<path d="M7.5 1C8.05228 1 8.5 1.44772 8.5 2V3.5H6.5V2C6.5 1.44772 6.94772 1 7.5 1Z" fill="black"/>
<path d="M14.5 4H8.5V5C8.5 5.55228 8.05228 6 7.5 6C6.94772 6 6.5 5.55228 6.5 5V4H5.5C3.84315 4 2.5 5.34315 2.5 7V7.5H20.5V7C20.5 5.34315 19.1569 4 17.5 4H16.5V5C16.5 5.55228 16.0523 6 15.5 6C14.9477 6 14.5 5.55228 14.5 5V4Z" fill="black"/>
<path d="M2.5 9.5V18C2.5 19.6569 3.84315 21 5.5 21H14.8582C14.8954 20.2853 15.1869 19.5814 15.7328 19.0355C16.4881 18.2803 17.5458 18.0119 18.516 18.2303L19.3677 17.3787C19.6981 17.0482 20.0864 16.811 20.5 16.667V9.5H2.5Z" fill="black"/>
<path d="M16.5 2C16.5 1.44772 16.0523 1 15.5 1C14.9477 1 14.5 1.44772 14.5 2V3.5H16.5V2Z" fill="black"/>
<path d="M22.1961 20.2071C22.5866 19.8166 22.5866 19.1834 22.1961 18.7929C21.8056 18.4024 21.1724 18.4024 20.7819 18.7929L18.8431 20.7316L18.5613 20.4497C18.1707 20.0592 17.5376 20.0592 17.147 20.4497C16.7565 20.8403 16.7565 21.4734 17.147 21.8639L18.136 22.8529C18.5266 23.2435 19.1597 23.2435 19.5503 22.8529L22.1961 20.2071Z" fill="black"/>
</svg>
