<svg width="25" height="24" viewBox="0 0 25 24" fill="none" xmlns="http://www.w3.org/2000/svg">
<path d="M5.4258 3.51467L4.89027 4.0502C4.32766 4.61281 4.01422 5.37923 4.20014 6.15285C4.59748 7.80613 5.8321 10.992 9.66844 14.8284C13.5048 18.6647 16.6907 19.8993 18.344 20.2967C19.1176 20.4826 19.884 20.1692 20.4466 19.6066L20.9822 19.071C22.1537 17.8994 22.1537 15.9999 20.9822 14.8284L20.0533 13.8995C19.0983 12.9446 17.623 12.7454 16.449 13.4129L16.3525 13.4678C15.412 14.0027 14.2481 14.0001 13.3716 13.3658C12.9349 13.0497 12.4825 12.6927 12.1433 12.3535C11.8041 12.0143 11.4471 11.5619 11.131 11.1252C10.4967 10.2487 10.4942 9.08485 11.029 8.1443L11.0839 8.04777C11.7514 6.8738 11.5523 5.39849 10.5973 4.44354L9.66844 3.51466C8.49687 2.34309 6.59737 2.34309 5.4258 3.51467Z" fill="black"/>
<path d="M16.7932 4.87859C16.4026 4.48806 15.7695 4.48806 15.379 4.87859C14.9884 5.26911 14.9884 5.90228 15.379 6.2928L16.0861 6.99991L15.379 7.70701C14.9884 8.09754 14.9884 8.7307 15.379 9.12123C15.7695 9.51175 16.4026 9.51175 16.7932 9.12123L17.5003 8.41412L18.2074 9.12123C18.5979 9.51175 19.2311 9.51175 19.6216 9.12123C20.0121 8.7307 20.0121 8.09754 19.6216 7.70701L18.9145 6.99991L19.6216 6.2928C20.0121 5.90228 20.0121 5.26911 19.6216 4.87859C19.2311 4.48806 18.5979 4.48806 18.2074 4.87859L17.5003 5.58569L16.7932 4.87859Z" fill="black"/>
</svg>
