<svg width="25" height="24" viewBox="0 0 25 24" fill="none" xmlns="http://www.w3.org/2000/svg">
<path d="M5.4258 3.51491L4.89027 4.05045C4.32766 4.61305 4.01422 5.37948 4.20014 6.1531C4.59748 7.80637 5.8321 10.9923 9.66844 14.8286C13.5048 18.665 16.6907 19.8996 18.344 20.2969C19.1176 20.4828 19.884 20.1694 20.4466 19.6068L20.9822 19.0713C22.1537 17.8997 22.1537 16.0002 20.9822 14.8286L20.0533 13.8997C19.0983 12.9448 17.623 12.7456 16.449 13.4132L16.3525 13.4681C15.412 14.0029 14.2481 14.0004 13.3716 13.366C12.9349 13.05 12.4825 12.693 12.1433 12.3537C11.8041 12.0145 11.4471 11.5622 11.131 11.1255C10.4967 10.249 10.4942 9.08509 11.029 8.14455L11.0839 8.04802C11.7514 6.87404 11.5523 5.39873 10.5973 4.44379L9.66844 3.51491C8.49687 2.34334 6.59737 2.34334 5.4258 3.51491Z" fill="black"/>
<path d="M18.5002 5.00015C18.5002 4.44787 18.0525 4.00015 17.5002 4.00015C16.9479 4.00015 16.5002 4.44787 16.5002 5.00015V6.00015H15.5002C14.9479 6.00015 14.5002 6.44787 14.5002 7.00015C14.5002 7.55244 14.9479 8.00015 15.5002 8.00015H16.5002V9.00015C16.5002 9.55244 16.9479 10.0002 17.5002 10.0002C18.0525 10.0002 18.5002 9.55244 18.5002 9.00015V8.00015H19.5002C20.0525 8.00015 20.5002 7.55244 20.5002 7.00015C20.5002 6.44787 20.0525 6.00015 19.5002 6.00015H18.5002V5.00015Z" fill="black"/>
</svg>
