<svg width="25" height="24" viewBox="0 0 25 24" fill="none" xmlns="http://www.w3.org/2000/svg">
<path d="M5.4258 3.51491L4.89027 4.05045C4.32766 4.61305 4.01422 5.37948 4.20014 6.1531C4.59748 7.80637 5.8321 10.9923 9.66844 14.8286C13.5048 18.665 16.6907 19.8996 18.344 20.2969C19.1176 20.4828 19.884 20.1694 20.4466 19.6068L20.9822 19.0713C22.1537 17.8997 22.1537 16.0002 20.9822 14.8286L20.0533 13.8997C19.0983 12.9448 17.623 12.7456 16.449 13.4132L16.3525 13.4681C15.412 14.0029 14.2481 14.0004 13.3716 13.366C12.9349 13.05 12.4825 12.693 12.1433 12.3537C11.8041 12.0145 11.4471 11.5622 11.131 11.1255C10.4967 10.249 10.4942 9.08509 11.029 8.14455L11.0839 8.04802C11.7514 6.87404 11.5523 5.39873 10.5973 4.44379L9.66844 3.51491C8.49687 2.34334 6.59737 2.34334 5.4258 3.51491Z" fill="black"/>
<path d="M14.2371 9.32683C14.2669 9.83288 14.6706 10.2366 15.1766 10.2664L17.1801 10.3842C17.7314 10.4167 18.2047 9.99601 18.2371 9.44468C18.2655 8.96236 17.9471 8.53981 17.4978 8.41987L19.478 6.43968C19.8685 6.04915 19.8685 5.41599 19.478 5.02546C19.0875 4.63494 18.4543 4.63494 18.0638 5.02546L16.0836 7.00565C15.9637 6.55637 15.5411 6.23799 15.0588 6.26636C14.5075 6.29879 14.0868 6.77203 14.1192 7.32336L14.2371 9.32683Z" fill="black"/>
</svg>
