<svg width="25" height="24" viewBox="0 0 25 24" fill="none" xmlns="http://www.w3.org/2000/svg">
<path d="M18.5099 3.00642C19.1242 3.26906 19.6837 3.64804 20.1571 4.12141C20.6305 4.59477 21.0094 5.15425 21.2721 5.76862C21.5347 6.38304 21.6763 7.04133 21.687 7.7064C21.6978 8.37157 21.5774 9.03061 21.331 9.64537C21.2432 9.8644 21.1401 10.0762 21.0225 10.2793C20.7458 10.7573 20.134 10.9204 19.6561 10.6437C19.1781 10.367 19.015 9.75518 19.2917 9.27722C19.3612 9.15709 19.4224 9.03154 19.4745 8.90138C19.6209 8.5362 19.6938 8.1413 19.6873 7.73866C19.6808 7.33593 19.595 6.93348 19.4331 6.55478C19.2712 6.17604 19.0367 5.82949 18.7429 5.53562C18.449 5.24175 18.1025 5.00734 17.7237 4.84543C17.345 4.68354 16.9426 4.59772 16.5398 4.59122C16.1372 4.58472 15.7423 4.65761 15.3771 4.80396C15.247 4.85612 15.1214 4.91728 15.0013 4.98683C14.5233 5.26355 13.9115 5.1004 13.6348 4.62244C13.3581 4.14448 13.5212 3.5327 13.9992 3.25598C14.2023 3.1384 14.4141 3.03527 14.6331 2.94749C15.2479 2.70112 15.9069 2.58075 16.5721 2.59148C17.2372 2.60221 17.8955 2.74376 18.5099 3.00642Z" fill="black"/>
<path d="M4.89027 4.05038L5.4258 3.51485C6.59737 2.34327 8.49687 2.34327 9.66844 3.51484L10.5973 4.44372C11.5523 5.39867 11.7514 6.87397 11.0839 8.04795L11.029 8.14448C10.4942 9.08503 10.4967 10.2489 11.131 11.1254C11.4471 11.5621 11.8041 12.0145 12.1433 12.3537C12.4825 12.6929 12.9349 13.0499 13.3716 13.366C14.2481 14.0003 15.412 14.0028 16.3525 13.468L16.449 13.4131C17.623 12.7456 19.0983 12.9447 20.0533 13.8997L20.9822 14.8286C22.1537 16.0001 22.1537 17.8996 20.9822 19.0712L20.4466 19.6067C19.884 20.1693 19.1176 20.4828 18.344 20.2969C16.6907 19.8995 13.5048 18.6649 9.66844 14.8286C5.8321 10.9922 4.59748 7.80631 4.20014 6.15303C4.01422 5.37941 4.32766 4.61299 4.89027 4.05038Z" fill="black"/>
<path d="M18.1215 6.20719C17.8221 5.90779 17.4595 5.68512 17.0601 5.54847C16.6617 5.41211 16.2391 5.36547 15.8196 5.40067C15.4004 5.43585 14.9895 5.55213 14.608 5.73579C14.3888 5.84132 14.1804 5.96853 13.986 6.1143C13.5442 6.44567 13.4546 7.07247 13.786 7.5143C14.1174 7.95613 14.7442 8.04567 15.186 7.7143C15.2785 7.64497 15.3757 7.58588 15.4755 7.53785C15.6499 7.45388 15.8245 7.40729 15.9868 7.39367C16.1488 7.38007 16.2925 7.39965 16.4126 7.44075C16.5319 7.48156 16.63 7.5441 16.7073 7.62141C16.7846 7.69871 16.8472 7.79685 16.888 7.91611C16.9291 8.03622 16.9487 8.1799 16.9351 8.34191C16.9214 8.50428 16.8749 8.67883 16.7909 8.85326C16.7429 8.95301 16.6838 9.05029 16.6144 9.14273C16.2831 9.58455 16.3726 10.2114 16.8144 10.5427C17.2563 10.8741 17.8831 10.7846 18.2144 10.3427C18.3602 10.1484 18.4874 9.93998 18.5929 9.72077C18.7766 9.33925 18.8929 8.92834 18.9281 8.50917C18.9633 8.08964 18.9166 7.66708 18.7803 7.2686C18.6436 6.86926 18.4209 6.50659 18.1215 6.20719Z" fill="black"/>
</svg>
