<svg width="25" height="24" viewBox="0 0 25 24" fill="none" xmlns="http://www.w3.org/2000/svg">
<path d="M5.4258 3.51467L4.89027 4.0502C4.32766 4.61281 4.01422 5.37923 4.20014 6.15285C4.59748 7.80613 5.8321 10.992 9.66844 14.8284C13.5048 18.6647 16.6907 19.8993 18.344 20.2967C19.1176 20.4826 19.884 20.1692 20.4466 19.6066L20.9822 19.071C22.1537 17.8994 22.1537 15.9999 20.9822 14.8284L20.0533 13.8995C19.0983 12.9446 17.623 12.7454 16.449 13.4129L16.3525 13.4678C15.412 14.0027 14.2481 14.0001 13.3716 13.3658C12.9349 13.0497 12.4825 12.6927 12.1433 12.3535C11.8041 12.0143 11.4471 11.5619 11.131 11.1252C10.4967 10.2487 10.4942 9.08485 11.029 8.1443L11.0839 8.04777C11.7514 6.8738 11.5523 5.39849 10.5973 4.44354L9.66844 3.51466C8.49687 2.34309 6.59737 2.34309 5.4258 3.51467Z" fill="black"/>
<path d="M19.7692 5.67348C19.7394 5.16742 19.3357 4.76369 18.8296 4.73392L16.8261 4.61607C16.2748 4.58364 15.8016 5.00429 15.7691 5.55563C15.7408 6.03795 16.0592 6.4605 16.5084 6.58044L14.5282 8.56063C14.1377 8.95115 14.1377 9.58431 14.5282 9.97484C14.9188 10.3654 15.5519 10.3654 15.9425 9.97484L17.9227 7.99465C18.0426 8.44393 18.4651 8.76231 18.9475 8.73394C19.4988 8.70151 19.9194 8.22828 19.887 7.67695L19.7692 5.67348Z" fill="black"/>
</svg>
