<svg width="25" height="24" viewBox="0 0 25 24" fill="none" xmlns="http://www.w3.org/2000/svg">
<path d="M4.89027 4.0502L5.4258 3.51467C6.59737 2.34309 8.49687 2.34309 9.66844 3.51466L10.5973 4.44354C11.5523 5.39849 11.7514 6.8738 11.0839 8.04777L11.029 8.1443C10.4942 9.08485 10.4967 10.2487 11.131 11.1252C11.4471 11.5619 11.8041 12.0143 12.1433 12.3535C12.4825 12.6927 12.9349 13.0497 13.3716 13.3658C14.2481 14.0001 15.412 14.0027 16.3525 13.4678L16.449 13.4129C17.623 12.7454 19.0983 12.9446 20.0533 13.8995L20.9822 14.8284C22.1537 15.9999 22.1537 17.8994 20.9822 19.071L20.4466 19.6066C19.884 20.1692 19.1176 20.4826 18.344 20.2967C16.6907 19.8993 13.5048 18.6647 9.66844 14.8284C5.8321 10.992 4.59748 7.80613 4.20014 6.15285C4.01422 5.37923 4.32766 4.61281 4.89027 4.0502Z" fill="black"/>
</svg>
