<svg width="25" height="24" viewBox="0 0 25 24" fill="none" xmlns="http://www.w3.org/2000/svg">
<path d="M12.5 10C10.8431 10 9.5 11.3431 9.5 13C9.5 14.6569 10.8431 16 12.5 16C14.1569 16 15.5 14.6569 15.5 13C15.5 11.3431 14.1569 10 12.5 10Z" fill="black"/>
<path fill-rule="evenodd" clip-rule="evenodd" d="M10.7426 3.5H14.2574C15.053 3.5 15.8161 3.81607 16.3787 4.37868L17.0646 5.06458C17.3519 5.35187 17.6945 5.5778 18.0717 5.72869L20.6142 6.74567C21.7531 7.20126 22.5 8.30439 22.5 9.5311V17.5C22.5 19.1569 21.1569 20.5 19.5 20.5H5.5C3.84315 20.5 2.5 19.1569 2.5 17.5V9.5311C2.5 8.30439 3.24685 7.20126 4.38583 6.74567L6.92827 5.72869C7.30549 5.5778 7.64813 5.35187 7.93542 5.06458L8.62132 4.37868C9.18393 3.81607 9.94699 3.5 10.7426 3.5ZM7.5 13C7.5 10.2386 9.73858 8 12.5 8C15.2614 8 17.5 10.2386 17.5 13C17.5 15.7614 15.2614 18 12.5 18C9.73858 18 7.5 15.7614 7.5 13ZM16.3477 9.19233C16.7486 9.32596 17.0631 9.64055 17.1968 10.0415C17.3328 10.4495 17.9099 10.4495 18.0459 10.0415C18.1795 9.64055 18.4941 9.32596 18.895 9.19233C19.303 9.05633 19.303 8.47921 18.895 8.34321C18.4941 8.20957 18.1795 7.89498 18.0459 7.49408C17.9099 7.08607 17.3328 7.08607 17.1968 7.49408C17.0631 7.89498 16.7486 8.20957 16.3477 8.34321C15.9396 8.47921 15.9396 9.05633 16.3477 9.19233Z" fill="black"/>
</svg>
