<svg width="25" height="24" viewBox="0 0 25 24" fill="none" xmlns="http://www.w3.org/2000/svg">
<path d="M23.2071 2.70711C23.5976 2.31658 23.5976 1.68342 23.2071 1.29289C22.8166 0.902369 22.1834 0.902369 21.7929 1.29289L1.79289 21.2929C1.40237 21.6834 1.40237 22.3166 1.79289 22.7071C2.18342 23.0976 2.81658 23.0976 3.20711 22.7071L23.2071 2.70711Z" fill="black"/>
<path d="M16.8358 4.83579L16.3787 4.37868C15.8161 3.81607 15.053 3.5 14.2574 3.5H10.7426C9.94699 3.5 9.18393 3.81607 8.62132 4.37868L7.93542 5.06458C7.64813 5.35187 7.30549 5.5778 6.92827 5.72869L4.38583 6.74567C3.24685 7.20126 2.5 8.30439 2.5 9.5311V17.5C2.5 17.986 2.61554 18.4449 2.82065 18.8509L7.6124 14.0592C7.53877 13.7178 7.5 13.3634 7.5 13C7.5 10.2386 9.73858 8 12.5 8C12.8634 8 13.2178 8.03877 13.5592 8.1124L16.8358 4.83579Z" fill="black"/>
<path d="M11.5013 10.1702C10.6478 10.4714 9.97144 11.1478 9.67023 12.0013L11.5013 10.1702Z" fill="black"/>
<path d="M6.82843 20.5H19.5C21.1569 20.5 22.5 19.1569 22.5 17.5V9.5311C22.5 8.30439 21.7531 7.20126 20.6142 6.74567L20.5917 6.73669L18.9588 8.36963C19.3018 8.54159 19.2805 9.06386 18.895 9.19236C18.4941 9.32599 18.1795 9.64058 18.0459 10.0415C17.9174 10.427 17.3951 10.4482 17.2231 10.1053L16.8301 10.4983C17.2561 11.2341 17.5 12.0886 17.5 13C17.5 15.7614 15.2614 18 12.5 18C11.5886 18 10.7341 17.7561 9.99831 17.3301L6.82843 20.5Z" fill="black"/>
<path d="M11.4994 15.8291C11.8123 15.9398 12.1491 16 12.5 16C14.1569 16 15.5 14.6569 15.5 13C15.5 12.6491 15.4398 12.3123 15.3291 11.9994L11.4994 15.8291Z" fill="black"/>
</svg>
