<svg width="25" height="24" viewBox="0 0 25 24" fill="none" xmlns="http://www.w3.org/2000/svg">
<path d="M18.5 8.5V8L21.5 8C22.0523 8 22.5 7.55228 22.5 7C22.5 6.44772 22.0523 6 21.5 6H18.5V5.5C18.5 4.67157 17.8284 4 17 4H14C13.1716 4 12.5 4.67157 12.5 5.5V6L3.5 6C2.94772 6 2.5 6.44772 2.5 7C2.5 7.55228 2.94772 8 3.5 8L12.5 8V8.5C12.5 9.32843 13.1716 10 14 10H17C17.8284 10 18.5 9.32843 18.5 8.5Z" fill="black"/>
<path d="M15.5 18V18.5C15.5 19.3284 14.8284 20 14 20H8C7.17157 20 6.5 19.3284 6.5 18.5L6.5 18H3.5C2.94772 18 2.5 17.5523 2.5 17C2.5 16.4477 2.94772 16 3.5 16H6.5V15.5C6.5 14.6716 7.17157 14 8 14H14C14.8284 14 15.5 14.6716 15.5 15.5V16H21.5C22.0523 16 22.5 16.4477 22.5 17C22.5 17.5523 22.0523 18 21.5 18H15.5Z" fill="black"/>
</svg>
