<svg width="25" height="24" viewBox="0 0 25 24" fill="none" xmlns="http://www.w3.org/2000/svg">
<path d="M6.5 3L6.5 6H6C5.17157 6 4.5 6.67157 4.5 7.5V10.5C4.5 11.3284 5.17157 12 6 12H6.5L6.5 21C6.5 21.5523 6.94772 22 7.5 22C8.05228 22 8.5 21.5523 8.5 21L8.5 12H9C9.82843 12 10.5 11.3284 10.5 10.5V7.5C10.5 6.67157 9.82843 6 9 6H8.5L8.5 3C8.5 2.44772 8.05228 2 7.5 2C6.94772 2 6.5 2.44772 6.5 3Z" fill="black"/>
<path d="M18.5 9H19C19.8284 9 20.5 9.67157 20.5 10.5V16.5C20.5 17.3284 19.8284 18 19 18H18.5V21C18.5 21.5523 18.0523 22 17.5 22C16.9477 22 16.5 21.5523 16.5 21V18H16C15.1716 18 14.5 17.3284 14.5 16.5V10.5C14.5 9.67157 15.1716 9 16 9H16.5V3C16.5 2.44772 16.9477 2 17.5 2C18.0523 2 18.5 2.44772 18.5 3V9Z" fill="black"/>
</svg>
