<svg width="22" height="22" viewBox="0 0 22 22" fill="none" xmlns="http://www.w3.org/2000/svg">
  <path
    d="M16.2118 2.15444L14.6514 3.71485L16.1429 5.20643L17.6944 3.65491H18.3474C18.6386 3.65491 18.8747 3.4188 18.8747 3.12757V2.52734C18.8747 2.23611 18.6386 2 18.3474 2H16.5846C16.4448 2 16.3107 2.05555 16.2118 2.15444Z"
    fill="currentColor" />
  <path
    d="M15.2779 7.31479L15.6461 6.9466C15.8521 6.74065 15.8521 6.40678 15.6461 6.20083L13.6574 4.21208C13.4515 4.00613 13.1176 4.00613 12.9116 4.21208L12.5435 4.58023L15.2779 7.31479Z"
    fill="currentColor" />
  <path d="M7.36475 13.2349H9.78807V15.6582H7.36475V13.2349Z" fill="currentColor" />
  <path
    d="M14.7415 8.26968L11.5879 5.11599C11.3222 4.85039 10.9691 4.7041 10.5935 4.7041H3.93359C2.86569 4.7041 2 5.56979 2 6.6377V18.0661C2 19.134 2.86569 19.9997 3.93359 19.9997H13.2198C14.2877 19.9997 15.1534 19.134 15.1534 18.0661V9.26404C15.1534 8.8884 15.0071 8.53529 14.7415 8.26968ZM11.7433 16.867C11.9492 17.0729 11.9492 17.4068 11.7433 17.6128C11.6403 17.7157 11.5053 17.7672 11.3704 17.7672C11.2355 17.7672 11.1005 17.7158 10.9975 17.6128L10.0973 16.7126H7.05617L6.15596 17.6128C6.05299 17.7157 5.91802 17.7672 5.78309 17.7672C5.64816 17.7672 5.51316 17.7158 5.41023 17.6128C5.20428 17.4068 5.20428 17.0729 5.41023 16.867L6.31044 15.9668V12.9256L5.41023 12.0254C5.20428 11.8194 5.20428 11.4856 5.41023 11.2796C5.61614 11.0737 5.95005 11.0737 6.156 11.2796L7.05621 12.1798H10.0973L10.9976 11.2796C11.2035 11.0737 11.5374 11.0737 11.7433 11.2796C11.9493 11.4855 11.9493 11.8194 11.7433 12.0254L10.8431 12.9256V15.9668L11.7433 16.867ZM5.14895 8.89272C4.57481 8.89272 4.10938 8.42729 4.10938 7.85315C4.10938 7.27902 4.57481 6.81358 5.14895 6.81358H10.3022L12.3814 8.89276L5.14895 8.89272Z"
    fill="currentColor" />
  <path
    d="M18.6816 10.8243C17.9547 10.8243 17.3633 10.2328 17.3633 9.50589C17.3633 9.31929 17.4163 8.9904 17.8748 8.29174C18.1033 7.94348 18.3292 7.6609 18.3387 7.64901C18.4222 7.54495 18.5483 7.48438 18.6816 7.48438C18.815 7.48438 18.9411 7.54491 19.0246 7.64901C19.034 7.66086 19.26 7.94345 19.4885 8.29174C19.947 8.9904 20 9.31929 20 9.50589C20 10.2328 19.4086 10.8243 18.6816 10.8243Z"
    fill="currentColor" />
</svg>