<svg width="25" height="24" viewBox="0 0 25 24" fill="none" xmlns="http://www.w3.org/2000/svg">
<path d="M3.64645 10.5607L3.5 11H21.5L21.3536 10.5607L22.2071 9.70711C22.5976 9.31658 22.5976 8.68342 22.2071 8.29289C21.8166 7.90237 21.1834 7.90237 20.7929 8.29289L20.6464 8.43934L19.9558 6.36754C19.6836 5.55086 18.9193 5 18.0585 5H6.94152C6.08066 5 5.31638 5.55086 5.04415 6.36754L4.35355 8.43934L4.20711 8.29289C3.81658 7.90237 3.18342 7.90237 2.79289 8.29289C2.40237 8.68342 2.40237 9.31658 2.79289 9.70711L3.64645 10.5607Z" fill="black"/>
<path d="M22.5 12V15.5C22.5 16.3284 21.8284 17 21 17H4C3.17157 17 2.5 16.3284 2.5 15.5V12H22.5Z" fill="black"/>
<path d="M4 20V18H8.5V20C8.5 20.5523 8.05228 21 7.5 21H5C4.44772 21 4 20.5523 4 20Z" fill="black"/>
<path d="M16.5 18H21V20C21 20.5523 20.5523 21 20 21H17.5C16.9477 21 16.5 20.5523 16.5 20V18Z" fill="black"/>
</svg>
