<svg width="25" height="24" viewBox="0 0 25 24" fill="none" xmlns="http://www.w3.org/2000/svg">
<path d="M5.5 3.5H19.5C21.1569 3.5 22.5 4.84315 22.5 6.5V7H2.5V6.5C2.5 4.84315 3.84315 3.5 5.5 3.5Z" fill="black"/>
<path fill-rule="evenodd" clip-rule="evenodd" d="M2.5 9V17.5C2.5 19.1569 3.84315 20.5 5.5 20.5H15.2639L15.2578 20.4931C14.2474 19.3564 14.2474 17.6436 15.2578 16.5069L15.522 16.2096C15.5076 16.142 15.5 16.0719 15.5 16C15.5 15.4477 15.9477 15 16.5 15H16.5973C17.6989 13.7681 19.5904 13.6591 20.8264 14.7578C21.0735 14.9774 21.2757 15.2286 21.4323 15.5H22.5V9H2.5ZM4.5 16C4.5 15.4477 4.94772 15 5.5 15H13.5C14.0523 15 14.5 15.4477 14.5 16C14.5 16.5523 14.0523 17 13.5 17H5.5C4.94772 17 4.5 16.5523 4.5 16Z" fill="black"/>
<path d="M16.7526 19.1644C16.4158 18.7855 16.4158 18.2145 16.7526 17.8356L18.0859 16.3356C18.4528 15.9229 19.0849 15.8857 19.4977 16.2526C19.8588 16.5736 19.9325 17.0975 19.6996 17.5H22.5C23.0523 17.5 23.5 17.9477 23.5 18.5C23.5 19.0523 23.0523 19.5 22.5 19.5H19.6996C19.9325 19.9025 19.8588 20.4264 19.4977 20.7474C19.0849 21.1143 18.4528 21.0771 18.0859 20.6644L16.7526 19.1644Z" fill="black"/>
</svg>
