<svg width="25" height="24" viewBox="0 0 25 24" fill="none" xmlns="http://www.w3.org/2000/svg">
<path d="M5.5 3.5H19.5C21.1569 3.5 22.5 4.84315 22.5 6.5V7H2.5V6.5C2.5 4.84315 3.84315 3.5 5.5 3.5Z" fill="black"/>
<path fill-rule="evenodd" clip-rule="evenodd" d="M2.5 9V17.5C2.5 19.1569 3.84315 20.5 5.5 20.5H15.2639C14.7889 19.9692 14.5 19.2684 14.5 18.5C14.5 17.5978 14.8983 16.7885 15.5286 16.2386C15.5099 16.1621 15.5 16.0822 15.5 16C15.5 15.4477 15.9477 15 16.5 15H18.5C18.6304 15 18.7549 15.0249 18.8691 15.0703C18.9616 14.9605 19.0631 14.856 19.1736 14.7578C20.115 13.9209 21.4367 13.7848 22.5 14.3117V9H2.5ZM4.5 16C4.5 15.4477 4.94772 15 5.5 15H13.5C14.0523 15 14.5 15.4477 14.5 16C14.5 16.5523 14.0523 17 13.5 17H5.5C4.94772 17 4.5 16.5523 4.5 16Z" fill="black"/>
<path d="M21.9141 20.6644L23.2474 19.1644C23.5842 18.7855 23.5842 18.2145 23.2474 17.8356L21.9141 16.3356C21.5472 15.9229 20.9151 15.8857 20.5023 16.2526C20.1412 16.5736 20.0675 17.0975 20.3004 17.5H17.5C16.9477 17.5 16.5 17.9477 16.5 18.5C16.5 19.0523 16.9477 19.5 17.5 19.5H20.3004C20.0675 19.9025 20.1412 20.4264 20.5023 20.7474C20.9151 21.1143 21.5472 21.0771 21.9141 20.6644Z" fill="black"/>
</svg>
