<svg width="25" height="24" viewBox="0 0 25 24" fill="none" xmlns="http://www.w3.org/2000/svg">
<path d="M5.5 3.5H19.5C21.1569 3.5 22.5 4.84315 22.5 6.5V7H2.5V6.5C2.5 4.84315 3.84315 3.5 5.5 3.5Z" fill="black"/>
<path fill-rule="evenodd" clip-rule="evenodd" d="M2.5 9V17.5C2.5 19.1569 3.84315 20.5 5.5 20.5H16.087C16.0724 19.9847 16.1897 19.4663 16.4391 19C16.0986 18.3633 16.0042 17.6297 16.1559 16.9392C15.7731 16.799 15.5 16.4314 15.5 16C15.5 15.4477 15.9477 15 16.5 15H17.5633C18.464 14.4688 19.5826 14.4485 20.5 14.9391C21.118 14.6086 21.8274 14.51 22.5 14.6432V9H2.5ZM4.5 16C4.5 15.4477 4.94772 15 5.5 15H13.5C14.0523 15 14.5 15.4477 14.5 16C14.5 16.5523 14.0523 17 13.5 17H5.5C4.94772 17 4.5 16.5523 4.5 16Z" fill="black"/>
<path d="M21.7426 18.8284L22.4497 18.1213C22.8402 17.7308 22.8402 17.0976 22.4497 16.7071C22.0592 16.3166 21.426 16.3166 21.0355 16.7071L20.3284 17.4142L19.6213 16.7071C19.2307 16.3166 18.5976 16.3166 18.207 16.7071C17.8165 17.0976 17.8165 17.7308 18.207 18.1213L18.9142 18.8284L18.207 19.5355C17.8165 19.9261 17.8165 20.5592 18.207 20.9497C18.5976 21.3403 19.2307 21.3403 19.6213 20.9497L20.3284 20.2426L21.0355 20.9497C21.426 21.3403 22.0592 21.3403 22.4497 20.9497C22.8402 20.5592 22.8402 19.9261 22.4497 19.5355L21.7426 18.8284Z" fill="black"/>
</svg>
