<svg width="25" height="24" viewBox="0 0 25 24" fill="none" xmlns="http://www.w3.org/2000/svg">
<path d="M5.5 3.5H19.5C21.1569 3.5 22.5 4.84315 22.5 6.5V7H2.5V6.5C2.5 4.84315 3.84315 3.5 5.5 3.5Z" fill="black"/>
<path fill-rule="evenodd" clip-rule="evenodd" d="M2.5 9V17.5C2.5 19.1569 3.84315 20.5 5.5 20.5H17V19.9323C16.7286 19.7757 16.4774 19.5735 16.2578 19.3264C15.5433 18.5227 15.3396 17.4418 15.6232 16.4812C15.5447 16.3384 15.5 16.1744 15.5 16C15.5 15.4477 15.9477 15 16.5 15H16.6094L18.0069 13.7578C19.1436 12.7474 20.8564 12.7474 21.9931 13.7578L22.5 14.2084V9H2.5ZM4.5 16C4.5 15.4477 4.94772 15 5.5 15H13.5C14.0523 15 14.5 15.4477 14.5 16C14.5 16.5523 14.0523 17 13.5 17H5.5C4.94772 17 4.5 16.5523 4.5 16Z" fill="black"/>
<path d="M20.6644 15.2526C20.2855 14.9158 19.7145 14.9158 19.3356 15.2526L17.8356 16.5859C17.4229 16.9528 17.3857 17.5849 17.7526 17.9977C18.0736 18.3588 18.5975 18.4325 19 18.1996V21C19 21.5523 19.4477 22 20 22C20.5523 22 21 21.5523 21 21V18.1996C21.4025 18.4325 21.9264 18.3588 22.2474 17.9977C22.6143 17.5849 22.5771 16.9528 22.1644 16.5859L20.6644 15.2526Z" fill="black"/>
</svg>
