<svg width="25" height="24" viewBox="0 0 25 24" fill="none" xmlns="http://www.w3.org/2000/svg">
<path d="M5.5 3.5H19.5C21.1569 3.5 22.5 4.84315 22.5 6.5V7H2.5V6.5C2.5 4.84315 3.84315 3.5 5.5 3.5Z" fill="black"/>
<path fill-rule="evenodd" clip-rule="evenodd" d="M2.5 9V17.5C2.5 19.1569 3.84315 20.5 5.5 20.5H19.5C21.1569 20.5 22.5 19.1569 22.5 17.5V9H2.5ZM4.5 16C4.5 15.4477 4.94772 15 5.5 15H13.5C14.0523 15 14.5 15.4477 14.5 16C14.5 16.5523 14.0523 17 13.5 17H5.5C4.94772 17 4.5 16.5523 4.5 16ZM16.5 15C15.9477 15 15.5 15.4477 15.5 16C15.5 16.5523 15.9477 17 16.5 17H18.5C19.0523 17 19.5 16.5523 19.5 16C19.5 15.4477 19.0523 15 18.5 15H16.5Z" fill="black"/>
</svg>
