<svg width="25" height="24" viewBox="0 0 25 24" fill="none" xmlns="http://www.w3.org/2000/svg">
<path d="M5.5 3.5H19.5C21.1569 3.5 22.5 4.84315 22.5 6.5V7H2.5V6.5C2.5 4.84315 3.84315 3.5 5.5 3.5Z" fill="black"/>
<path fill-rule="evenodd" clip-rule="evenodd" d="M2.5 9V17.5C2.5 19.1569 3.84315 20.5 5.5 20.5H16.8411C16.0328 19.9625 15.5 19.0435 15.5 18C15.5 17.5369 15.605 17.0982 15.7924 16.7066C15.6117 16.5257 15.5 16.2759 15.5 16C15.5 15.4477 15.9477 15 16.5 15H22.5V9H2.5ZM4.5 16C4.5 15.4477 4.94772 15 5.5 15H13.5C14.0523 15 14.5 15.4477 14.5 16C14.5 16.5523 14.0523 17 13.5 17H5.5C4.94772 17 4.5 16.5523 4.5 16Z" fill="black"/>
<path d="M18.5 17C17.9477 17 17.5 17.4477 17.5 18C17.5 18.5523 17.9477 19 18.5 19H22.5C23.0523 19 23.5 18.5523 23.5 18C23.5 17.4477 23.0523 17 22.5 17H18.5Z" fill="black"/>
</svg>
