<svg width="25" height="24" viewBox="0 0 25 24" fill="none" xmlns="http://www.w3.org/2000/svg">
<path d="M5.5 3.5H19.5C21.1569 3.5 22.5 4.84315 22.5 6.5V7H2.5V6.5C2.5 4.84315 3.84315 3.5 5.5 3.5Z" fill="black"/>
<path fill-rule="evenodd" clip-rule="evenodd" d="M2.5 9V17.5C2.5 19.1569 3.84315 20.5 5.5 20.5H16.0447C15.6449 19.4326 15.8743 18.1831 16.7328 17.3246C16.8534 17.204 16.9818 17.0958 17.1162 17H16.5C15.9477 17 15.5 16.5523 15.5 16C15.5 15.4477 15.9477 15 16.5 15H18.5C19.0523 15 19.5 15.4477 19.5 16C19.5 16.1783 19.4533 16.3457 19.3716 16.4906C19.4199 16.499 19.4681 16.5086 19.516 16.5194L20.3677 15.6677C20.9563 15.0791 21.7286 14.7863 22.5 14.7891V9H2.5ZM4.5 16C4.5 15.4477 4.94772 15 5.5 15H13.5C14.0523 15 14.5 15.4477 14.5 16C14.5 16.5523 14.0523 17 13.5 17H5.5C4.94772 17 4.5 16.5523 4.5 16Z" fill="black"/>
<path d="M23.1961 18.4962C23.5866 18.1056 23.5866 17.4725 23.1961 17.0819C22.8056 16.6914 22.1724 16.6914 21.7819 17.0819L19.8431 19.0207L19.5613 18.7388C19.1707 18.3483 18.5376 18.3483 18.147 18.7388C17.7565 19.1293 17.7565 19.7625 18.147 20.153L19.136 21.142C19.5266 21.5325 20.1597 21.5325 20.5503 21.142L23.1961 18.4962Z" fill="black"/>
</svg>
