<svg width="25" height="24" viewBox="0 0 25 24" fill="none" xmlns="http://www.w3.org/2000/svg">
<path d="M5.5 3.5H19.5C21.1569 3.5 22.5 4.84315 22.5 6.5V7H2.5V6.5C2.5 4.84315 3.84315 3.5 5.5 3.5Z" fill="black"/>
<path fill-rule="evenodd" clip-rule="evenodd" d="M2.5 9V17.5C2.5 19.1569 3.84315 20.5 5.5 20.5H15.9013C15.6461 20.0587 15.5 19.5464 15.5 19C15.5 18.2204 15.7974 17.5103 16.2849 16.9768C15.836 16.8784 15.5 16.4784 15.5 16C15.5 15.4477 15.9477 15 16.5 15H18.2639C18.8132 14.3863 19.6115 14 20.5 14C21.2684 14 21.9692 14.2889 22.5 14.7639V9H2.5ZM4.5 16C4.5 15.4477 4.94772 15 5.5 15H13.5C14.0523 15 14.5 15.4477 14.5 16C14.5 16.5523 14.0523 17 13.5 17H5.5C4.94772 17 4.5 16.5523 4.5 16Z" fill="black"/>
<path d="M21.5 17C21.5 16.4477 21.0523 16 20.5 16C19.9477 16 19.5 16.4477 19.5 17V18H18.5C17.9477 18 17.5 18.4477 17.5 19C17.5 19.5523 17.9477 20 18.5 20H19.5V21C19.5 21.5523 19.9477 22 20.5 22C21.0523 22 21.5 21.5523 21.5 21V20H22.5C23.0523 20 23.5 19.5523 23.5 19C23.5 18.4477 23.0523 18 22.5 18H21.5V17Z" fill="black"/>
</svg>
