<svg width="25" height="24" viewBox="0 0 25 24" fill="none" xmlns="http://www.w3.org/2000/svg">
<path d="M5.5 3.5H19.5C21.1569 3.5 22.5 4.84315 22.5 6.5V7H2.5V6.5C2.5 4.84315 3.84315 3.5 5.5 3.5Z" fill="black"/>
<path fill-rule="evenodd" clip-rule="evenodd" d="M2.5 9V17.5C2.5 19.1569 3.84315 20.5 5.5 20.5H15.6177C15.3423 19.5441 15.548 18.4721 16.2578 17.6736C16.4774 17.4265 16.7286 17.2243 17 17.0677V17H16.5C15.9477 17 15.5 16.5523 15.5 16C15.5 15.4477 15.9477 15 16.5 15H17.1707C17.5825 13.8348 18.6938 13 20 13C21.0435 13 21.9625 13.5328 22.5 14.3411V9H2.5ZM4.5 16C4.5 15.4477 4.94772 15 5.5 15H13.5C14.0523 15 14.5 15.4477 14.5 16C14.5 16.5523 14.0523 17 13.5 17H5.5C4.94772 17 4.5 16.5523 4.5 16Z" fill="black"/>
<path d="M22.1644 20.4141L20.6644 21.7474C20.2855 22.0842 19.7145 22.0842 19.3356 21.7474L17.8356 20.4141C17.4229 20.0472 17.3857 19.4151 17.7526 19.0023C18.0736 18.6412 18.5975 18.5675 19 18.8004V16C19 15.4477 19.4477 15 20 15C20.5523 15 21 15.4477 21 16V18.8004C21.4025 18.5675 21.9264 18.6412 22.2474 19.0023C22.6143 19.4151 22.5771 20.0472 22.1644 20.4141Z" fill="black"/>
</svg>
