<svg width="25" height="24" viewBox="0 0 25 24" fill="none" xmlns="http://www.w3.org/2000/svg">
<path d="M19.2066 2.29289C18.8161 1.90237 18.1829 1.90237 17.7924 2.29289C17.4019 2.68342 17.4019 3.31658 17.7924 3.70711L18.4995 4.41421L17.7924 5.12132C17.4019 5.51184 17.4019 6.14501 17.7924 6.53553C18.1829 6.92606 18.8161 6.92606 19.2066 6.53553L19.9137 5.82843L20.6208 6.53553C21.0114 6.92606 21.6445 6.92606 22.035 6.53553C22.4256 6.14501 22.4256 5.51184 22.035 5.12132L21.3279 4.41421L22.035 3.70711C22.4256 3.31658 22.4256 2.68342 22.035 2.29289C21.6445 1.90237 21.0114 1.90237 20.6208 2.29289L19.9137 3L19.2066 2.29289Z" fill="black"/>
<path d="M4.18945 2C3.63717 2 3.18945 2.44772 3.18945 3C3.18945 3.55228 3.63717 4 4.18945 4C4.91787 4 5.55425 4.52928 5.68526 5.274L6.37124 9.17326C6.37717 9.20692 6.38471 9.23989 6.39377 9.2721L6.59622 10.4035C7.16184 13.5646 7.44465 15.1451 8.42275 16.2301C8.78569 16.6327 9.21134 16.9784 9.68443 17.2549C10.9593 18 12.6223 18 15.9482 18H16.3542C17.8568 18 18.6082 18 19.2266 17.7364C19.7294 17.522 20.1665 17.1864 20.4958 16.7619C20.9009 16.2398 21.0694 15.5336 21.4063 14.1212C21.9153 11.9881 22.1697 10.9215 21.8735 10.0874C21.6343 9.41416 21.1615 8.84123 20.5348 8.4655C19.7584 8 18.6237 8 16.3542 8H8.19555L7.65501 4.92747C7.3584 3.24144 5.90379 2 4.18945 2Z" fill="black"/>
<path d="M10.9995 20.75C10.9995 21.4404 10.4399 22 9.74951 22C9.05916 22 8.49951 21.4404 8.49951 20.75C8.49951 20.0596 9.05916 19.5 9.74951 19.5C10.4399 19.5 10.9995 20.0596 10.9995 20.75Z" fill="black"/>
<path d="M19.9995 20.75C19.9995 21.4404 19.4399 22 18.7495 22C18.0592 22 17.4995 21.4404 17.4995 20.75C17.4995 20.0596 18.0592 19.5 18.7495 19.5C19.4399 19.5 19.9995 20.0596 19.9995 20.75Z" fill="black"/>
</svg>
