<svg width="25" height="24" viewBox="0 0 25 24" fill="none" xmlns="http://www.w3.org/2000/svg">
<path fill-rule="evenodd" clip-rule="evenodd" d="M5.5 4H19.5C21.1569 4 22.5 5.34315 22.5 7V17C22.5 18.6569 21.1569 20 19.5 20H5.5C3.84315 20 2.5 18.6569 2.5 17V7C2.5 5.34315 3.84315 4 5.5 4ZM5.79289 14.9597C5.40237 15.3502 5.40237 15.9833 5.79289 16.3739C6.18342 16.7644 6.81658 16.7644 7.20711 16.3739L10.5678 13.0132L11.8675 14.0746C12.2759 14.4081 12.8731 14.3673 13.2322 13.9812L16.5028 10.4652L17.7705 11.8174C18.1482 12.2203 18.781 12.2407 19.1839 11.863C19.5869 11.4852 19.6073 10.8524 19.2295 10.4495L17.2295 8.31615C17.04 8.11401 16.7751 7.99956 16.4981 8.00009C16.221 8.00063 15.9565 8.11611 15.7678 8.31899L12.4064 11.9325L11.1325 10.8922C10.7349 10.5675 10.1559 10.5966 9.79289 10.9597L5.79289 14.9597Z" fill="black"/>
</svg>
