<svg width="25" height="24" viewBox="0 0 25 24" fill="none" xmlns="http://www.w3.org/2000/svg">
<path fill-rule="evenodd" clip-rule="evenodd" d="M5.5 4H19.5C21.1569 4 22.5 5.34315 22.5 7V17C22.5 18.6569 21.1569 20 19.5 20H5.5C3.84315 20 2.5 18.6569 2.5 17V7C2.5 5.34315 3.84315 4 5.5 4ZM5.79289 9.7071C5.40237 9.31657 5.40237 8.68341 5.79289 8.29288C6.18342 7.90236 6.81658 7.90236 7.20711 8.29288L10.5678 11.6535L11.8675 10.5921C12.2759 10.2586 12.8731 10.2995 13.2322 10.6856L16.5028 14.2015L17.7705 12.8494C18.1482 12.4465 18.781 12.4261 19.1839 12.8038C19.5869 13.1815 19.6073 13.8144 19.2295 14.2173L17.2295 16.3506C17.04 16.5527 16.7751 16.6672 16.4981 16.6667C16.221 16.6661 15.9565 16.5506 15.7678 16.3478L12.4064 12.7342L11.1325 13.7745C10.7349 14.0993 10.1559 14.0701 9.79289 13.7071L5.79289 9.7071Z" fill="black"/>
</svg>
