<svg width="25" height="24" viewBox="0 0 25 24" fill="none" xmlns="http://www.w3.org/2000/svg">
<path fill-rule="evenodd" clip-rule="evenodd" d="M19.5 2H5.5C3.84315 2 2.5 3.34315 2.5 5V15C2.5 16.6569 3.84315 18 5.5 18H11.0858L7.79289 21.2929C7.40237 21.6834 7.40237 22.3166 7.79289 22.7071C8.18342 23.0976 8.81658 23.0976 9.20711 22.7071L12.5 19.4142L15.7929 22.7071C16.1834 23.0976 16.8166 23.0976 17.2071 22.7071C17.5976 22.3166 17.5976 21.6834 17.2071 21.2929L13.9142 18H19.5C21.1569 18 22.5 16.6569 22.5 15V5C22.5 3.34315 21.1569 2 19.5 2ZM5.79289 14.3739C5.40237 13.9833 5.40237 13.3502 5.79289 12.9597L9.79289 8.95965C10.1559 8.59662 10.7349 8.56748 11.1325 8.89223L12.4064 9.93253L15.7678 6.31899C15.9565 6.11611 16.221 6.00063 16.4981 6.00009C16.7751 5.99956 17.04 6.11401 17.2295 6.31615L19.2295 8.44948C19.6073 8.8524 19.5869 9.48523 19.1839 9.86296C18.781 10.2407 18.1482 10.2203 17.7705 9.81737L16.5028 8.46524L13.2322 11.9812C12.8731 12.3673 12.2759 12.4081 11.8675 12.0746L10.5678 11.0132L7.20711 14.3739C6.81658 14.7644 6.18342 14.7644 5.79289 14.3739Z" fill="black"/>
</svg>
