<svg width="25" height="24" viewBox="0 0 25 24" fill="none" xmlns="http://www.w3.org/2000/svg">
<path fill-rule="evenodd" clip-rule="evenodd" d="M12.5 21C17.4706 21 21.5 16.9706 21.5 12C21.5 7.02944 17.4706 3 12.5 3C7.52944 3 3.5 7.02944 3.5 12C3.5 12.7706 3.59686 13.5187 3.77907 14.2326L4.04216 16.3373C4.05565 16.4452 4.05342 16.5545 4.03554 16.6618L3.69265 18.7191C3.58755 19.3497 4.02842 19.9411 4.66281 20.0204L10.2674 20.7209C10.9813 20.9031 11.7294 21 12.5 21ZM6.5 10C6.5 9.44772 6.94772 9 7.5 9H12.5C13.0523 9 13.5 9.44772 13.5 10C13.5 10.5523 13.0523 11 12.5 11H7.5C6.94772 11 6.5 10.5523 6.5 10ZM7.5 13C6.94772 13 6.5 13.4477 6.5 14C6.5 14.5523 6.94772 15 7.5 15H16.5C17.0523 15 17.5 14.5523 17.5 14C17.5 13.4477 17.0523 13 16.5 13H7.5Z" fill="black"/>
</svg>
