<svg width="25" height="24" viewBox="0 0 25 24" fill="none" xmlns="http://www.w3.org/2000/svg">
<path fill-rule="evenodd" clip-rule="evenodd" d="M21.5 12C21.5 16.9706 17.4706 21 12.5 21C11.7294 21 10.9813 20.9031 10.2674 20.7209L4.66281 20.0204C4.02842 19.9411 3.58755 19.3497 3.69265 18.7191L4.03554 16.6618C4.05342 16.5545 4.05565 16.4452 4.04216 16.3373L3.77907 14.2326C3.59686 13.5187 3.5 12.7706 3.5 12C3.5 7.02944 7.52944 3 12.5 3C17.4706 3 21.5 7.02944 21.5 12ZM16.25 12C16.25 12.6904 16.8096 13.25 17.5 13.25C18.1904 13.25 18.75 12.6904 18.75 12C18.75 11.3096 18.1904 10.75 17.5 10.75C16.8096 10.75 16.25 11.3096 16.25 12ZM12.5 13.25C11.8096 13.25 11.25 12.6904 11.25 12C11.25 11.3096 11.8096 10.75 12.5 10.75C13.1904 10.75 13.75 11.3096 13.75 12C13.75 12.6904 13.1904 13.25 12.5 13.25ZM6.25 12C6.25 12.6904 6.80964 13.25 7.5 13.25C8.19036 13.25 8.75 12.6904 8.75 12C8.75 11.3096 8.19036 10.75 7.5 10.75C6.80964 10.75 6.25 11.3096 6.25 12Z" fill="black"/>
</svg>
