<svg width="25" height="24" viewBox="0 0 25 24" fill="none" xmlns="http://www.w3.org/2000/svg">
<path fill-rule="evenodd" clip-rule="evenodd" d="M17.5 14C17.5 17.866 14.366 21 10.5 21C9.90061 21 9.31881 20.9247 8.76356 20.7829L4.4044 20.2381C3.911 20.1764 3.56809 19.7164 3.64984 19.226L3.91653 17.6258C3.93044 17.5424 3.93217 17.4574 3.92168 17.3734L3.71705 15.7364C3.57534 15.1812 3.5 14.5994 3.5 14C3.5 10.134 6.63401 7 10.5 7C14.366 7 17.5 10.134 17.5 14ZM6.5 15C5.94772 15 5.5 14.5523 5.5 14C5.5 13.4477 5.94772 13 6.5 13C7.05228 13 7.5 13.4477 7.5 14C7.5 14.5523 7.05228 15 6.5 15ZM9.5 14C9.5 14.5523 9.94772 15 10.5 15C11.0523 15 11.5 14.5523 11.5 14C11.5 13.4477 11.0523 13 10.5 13C9.94772 13 9.5 13.4477 9.5 14ZM14.5 15C13.9477 15 13.5 14.5523 13.5 14C13.5 13.4477 13.9477 13 14.5 13C15.0523 13 15.5 13.4477 15.5 14C15.5 14.5523 15.0523 15 14.5 15Z" fill="black"/>
<path fill-rule="evenodd" clip-rule="evenodd" d="M21.5002 8C21.5002 5.23858 19.2616 3 16.5002 3C14.5891 3 12.9284 4.07219 12.0869 5.64786C15.6039 6.31196 18.3553 9.14255 18.9013 12.6999L20.8542 12.4558C21.2067 12.4117 21.4516 12.0832 21.3932 11.7328L21.2027 10.5899C21.1928 10.5303 21.1915 10.4695 21.199 10.4096L21.3452 9.24031C21.4464 8.84371 21.5002 8.42814 21.5002 8Z" fill="black"/>
</svg>
