<svg width="25" height="24" viewBox="0 0 25 24" fill="none" xmlns="http://www.w3.org/2000/svg">
<path fill-rule="evenodd" clip-rule="evenodd" d="M5.5 2C3.84315 2 2.5 3.34315 2.5 5V19C2.5 20.6569 3.84315 22 5.5 22H19.5C21.1569 22 22.5 20.6569 22.5 19V5C22.5 3.34315 21.1569 2 19.5 2H5.5ZM16.2014 10.6984C16.8434 11.4474 16.8434 12.5526 16.2014 13.3016L10.7593 19.6508C10.3998 20.0701 9.76854 20.1187 9.34921 19.7593C8.92988 19.3998 8.88132 18.7685 9.24075 18.3492L14.6829 12L9.24075 5.65079C8.88132 5.23146 8.92988 4.60016 9.34921 4.24074C9.76854 3.88132 10.3998 3.92988 10.7593 4.34921L16.2014 10.6984Z" fill="black"/>
</svg>
