<svg width="25" height="24" viewBox="0 0 25 24" fill="none" xmlns="http://www.w3.org/2000/svg">
<path fill-rule="evenodd" clip-rule="evenodd" d="M2.5 5C2.5 3.34315 3.84315 2 5.5 2H19.5C21.1569 2 22.5 3.34315 22.5 5V19C22.5 20.6569 21.1569 22 19.5 22H5.5C3.84315 22 2.5 20.6569 2.5 19V5ZM21 12C21 12.2652 20.8946 12.5196 20.7071 12.7071L15.7071 17.7071C15.3166 18.0976 14.6834 18.0976 14.2929 17.7071C13.9024 17.3166 13.9024 16.6834 14.2929 16.2929L18.5858 12L14.2929 7.70711C13.9024 7.31658 13.9024 6.68342 14.2929 6.29289C14.6834 5.90237 15.3166 5.90237 15.7071 6.29289L20.7071 11.2929C20.8946 11.4804 21 11.7348 21 12ZM4.29289 12.7071C4.10536 12.5196 4 12.2652 4 12C4 11.7348 4.10536 11.4804 4.29289 11.2929L9.29289 6.29289C9.68342 5.90237 10.3166 5.90237 10.7071 6.29289C11.0976 6.68342 11.0976 7.31658 10.7071 7.70711L6.41421 12L10.7071 16.2929C11.0976 16.6834 11.0976 17.3166 10.7071 17.7071C10.3166 18.0976 9.68342 18.0976 9.29289 17.7071L4.29289 12.7071Z" fill="black"/>
</svg>
