<svg width="25" height="24" viewBox="0 0 25 24" fill="none" xmlns="http://www.w3.org/2000/svg">
<path fill-rule="evenodd" clip-rule="evenodd" d="M5.5 2C3.84315 2 2.5 3.34315 2.5 5V19C2.5 20.6569 3.84315 22 5.5 22H19.5C21.1569 22 22.5 20.6569 22.5 19V5C22.5 3.34315 21.1569 2 19.5 2H5.5ZM11.1984 8.29856C11.9474 7.65658 13.0526 7.65658 13.8016 8.29856L20.1508 13.7407C20.5701 14.1002 20.6187 14.7315 20.2593 15.1508C19.8998 15.5701 19.2685 15.6187 18.8492 15.2593L12.5 9.81708L6.15079 15.2593C5.73147 15.6187 5.10017 15.5701 4.74074 15.1508C4.38132 14.7315 4.42988 14.1002 4.84921 13.7407L11.1984 8.29856Z" fill="black"/>
</svg>
