<svg width="25" height="24" viewBox="0 0 25 24" fill="none" xmlns="http://www.w3.org/2000/svg">
<path fill-rule="evenodd" clip-rule="evenodd" d="M5.5 2C3.84315 2 2.5 3.34315 2.5 5V19C2.5 20.6569 3.84315 22 5.5 22H19.5C21.1569 22 22.5 20.6569 22.5 19V5C22.5 3.34315 21.1569 2 19.5 2H5.5ZM11.1984 15.7014C11.9474 16.3434 13.0526 16.3434 13.8016 15.7014L20.1508 10.2593C20.5701 9.89984 20.6187 9.26854 20.2593 8.84921C19.8998 8.42988 19.2685 8.38132 18.8492 8.74075L12.5 14.1829L6.15079 8.74074C5.73147 8.38132 5.10017 8.42988 4.74074 8.84921C4.38132 9.26853 4.42988 9.89983 4.84921 10.2593L11.1984 15.7014Z" fill="black"/>
</svg>
