<svg width="25" height="24" viewBox="0 0 25 24" fill="none" xmlns="http://www.w3.org/2000/svg">
<path fill-rule="evenodd" clip-rule="evenodd" d="M2.5 5C2.5 3.34315 3.84315 2 5.5 2H19.5C21.1569 2 22.5 3.34315 22.5 5V19C22.5 20.6569 21.1569 22 19.5 22H5.5C3.84315 22 2.5 20.6569 2.5 19V5ZM12.5 3.5C12.7652 3.5 13.0196 3.60536 13.2071 3.79289L18.2071 8.79289C18.5976 9.18342 18.5976 9.81658 18.2071 10.2071C17.8166 10.5976 17.1834 10.5976 16.7929 10.2071L12.5 5.91421L8.20711 10.2071C7.81658 10.5976 7.18342 10.5976 6.79289 10.2071C6.40237 9.81658 6.40237 9.18342 6.79289 8.79289L11.7929 3.79289C11.9804 3.60536 12.2348 3.5 12.5 3.5ZM13.2071 20.2071C13.0196 20.3946 12.7652 20.5 12.5 20.5C12.2348 20.5 11.9804 20.3946 11.7929 20.2071L6.79289 15.2071C6.40237 14.8166 6.40237 14.1834 6.79289 13.7929C7.18342 13.4024 7.81658 13.4024 8.20711 13.7929L12.5 18.0858L16.7929 13.7929C17.1834 13.4024 17.8166 13.4024 18.2071 13.7929C18.5976 14.1834 18.5976 14.8166 18.2071 15.2071L13.2071 20.2071Z" fill="black"/>
</svg>
