<svg width="25" height="24" viewBox="0 0 25 24" fill="none" xmlns="http://www.w3.org/2000/svg">
  <path fill-rule="evenodd" clip-rule="evenodd"
    d="M5.5 2C3.84315 2 2.5 3.34315 2.5 5V19C2.5 20.6569 3.84315 22 5.5 22H19.5C21.1569 22 22.5 20.6569 22.5 19V5C22.5 3.34315 21.1569 2 19.5 2H5.5ZM8.79856 10.6984C8.15658 11.4474 8.15658 12.5526 8.79856 13.3016L14.2407 19.6508C14.6002 20.0701 15.2315 20.1187 15.6508 19.7593C16.0701 19.3998 16.1187 18.7685 15.7593 18.3492L10.3171 12L15.7593 5.65079C16.1187 5.23146 16.0701 4.60016 15.6508 4.24074C15.2315 3.88132 14.6002 3.92988 14.2407 4.34921L8.79856 10.6984Z"
    fill="currentColor" />
</svg>