<svg width="22" height="22" viewBox="0 0 22 22" fill="none" xmlns="http://www.w3.org/2000/svg">
  <path
    d="M17.7068 14.0317C17.2589 14.0317 16.8729 14.3649 16.8128 14.7837C16.8024 14.8312 16.7974 14.8842 16.7974 14.9411C16.7974 15.4415 17.2052 15.8487 17.7068 15.8487C18.2069 15.8487 18.6141 15.4415 18.6141 14.9411C18.6141 14.8824 18.6091 14.8309 18.6031 14.8065C18.5389 14.3649 18.1536 14.0317 17.7068 14.0317ZM17.7068 15.1612C17.5846 15.1612 17.4849 15.0625 17.4849 14.9411L17.4889 14.9055C17.5043 14.7993 17.598 14.7192 17.7068 14.7192C17.8162 14.7192 17.9072 14.7976 17.926 14.923L17.9266 14.9411C17.9266 15.0645 17.83 15.1612 17.7068 15.1612Z"
    fill="currentColor" />
  <path
    d="M8.22238 14.0317C7.7749 14.0317 7.38885 14.3647 7.32809 14.7837C7.31802 14.8309 7.31299 14.8824 7.31299 14.9411C7.31299 15.4415 7.72086 15.8487 8.22238 15.8487C8.72256 15.8487 9.12976 15.4415 9.12976 14.9411C9.12976 14.8824 9.12473 14.8309 9.11868 14.8062C9.05289 14.3574 8.6759 14.0317 8.22238 14.0317ZM8.22238 15.1612C8.10019 15.1612 8.00049 15.0625 8.00049 14.9411L8.00418 14.9059C8.01996 14.7995 8.11362 14.7192 8.22238 14.7192C8.33182 14.7192 8.42279 14.7978 8.44159 14.923L8.44226 14.9411C8.44226 15.0645 8.34558 15.1612 8.22238 15.1612Z"
    fill="currentColor" />
  <path
    d="M4.20773 14.0317C3.75992 14.0317 3.37387 14.3649 3.31378 14.7837C3.30338 14.8312 3.29834 14.8842 3.29834 14.9411C3.29834 15.4415 3.70621 15.8487 4.20773 15.8487C4.70792 15.8487 5.11511 15.4415 5.11511 14.9411C5.11511 14.8824 5.11008 14.8309 5.10403 14.8065C5.03992 14.3649 4.65454 14.0317 4.20773 14.0317ZM4.20773 15.1612C4.08554 15.1612 3.98584 15.0625 3.98584 14.9411L3.98987 14.9055C4.00531 14.7993 4.09897 14.7192 4.20773 14.7192C4.31717 14.7192 4.40814 14.7976 4.42694 14.923L4.42761 14.9411C4.42761 15.0645 4.33093 15.1612 4.20773 15.1612Z"
    fill="currentColor" />
  <path
    d="M21.2883 11.0864C21.2859 11.0798 21.2868 11.0724 21.284 11.0659L21.2831 11.0637L19.2642 6.4229C19.1259 6.106 18.8133 5.90123 18.4686 5.90123H15.0045C14.8145 5.90123 14.6608 6.05515 14.6608 6.24498V12.2608H13.3671C14.011 11.5124 14.3711 10.562 14.3711 9.54686C14.3711 8.22557 13.7668 7.01053 12.7134 6.21342C12.6537 6.16827 12.5808 6.14377 12.506 6.14377H11.5013V5.6748C11.5013 5.48497 11.3475 5.33105 11.1575 5.33105H8.3642C8.17419 5.33105 8.02045 5.48497 8.02045 5.6748V6.14377H2.4805C2.40564 6.14377 2.33279 6.16827 2.27304 6.21342C1.21997 7.01036 0.615723 8.2254 0.615723 9.54686C0.615723 10.5621 0.975796 11.5125 1.61953 12.2608H1.53183C1.34183 12.2608 1.18808 12.4147 1.18808 12.6045V14.9398C1.18808 15.1296 1.34183 15.2835 1.53183 15.2835H2.40056C2.56153 16.1345 3.30983 16.7811 4.20932 16.7811C5.10612 16.7811 5.85254 16.1345 6.01308 15.2835H6.41545C6.57642 16.1345 7.32472 16.7811 8.22421 16.7811C9.12102 16.7811 9.86718 16.1345 10.0277 15.2835H15.0045H15.8998C16.0608 16.1345 16.8091 16.7811 17.7086 16.7811C18.6054 16.7811 19.3518 16.1345 19.5123 15.2835H20.3693C20.8893 15.2835 21.3126 14.8612 21.3126 14.3421V11.203L21.3116 11.1981C21.311 11.1593 21.3014 11.1222 21.2883 11.0864ZM20.326 10.5869L18.0493 9.70967V7.75073H19.0922L20.326 10.5869ZM8.70795 6.01855H10.8138V6.14377H8.70795V6.01855ZM1.30322 9.54686C1.30322 8.48053 1.77386 7.49712 2.59866 6.83127H8.3642H11.1575H12.3878C13.2126 7.49728 13.6836 8.48053 13.6836 9.54686C13.6836 10.612 13.2126 11.5948 12.3878 12.2608H2.59866C1.77386 11.5949 1.30322 10.6122 1.30322 9.54686ZM1.87558 12.9483H2.4805H12.506H14.6608V14.596H10.0216C9.8595 13.7258 9.118 13.0997 8.22421 13.0997C7.33467 13.0997 6.56874 13.7493 6.42036 14.596H6.00666C5.84461 13.7258 5.1031 13.0997 4.20932 13.0997C3.31944 13.0997 2.55385 13.7493 2.40577 14.596H1.87558V12.9483ZM4.20932 16.0936C3.57226 16.0936 3.0537 15.5774 3.05353 14.943L3.0542 14.9398L3.05395 14.9385C3.05412 14.8787 3.05819 14.8253 3.06998 14.7667C3.15121 14.2083 3.64099 13.7872 4.20932 13.7872C4.78369 13.7872 5.26071 14.1992 5.34766 14.7896C5.35538 14.8253 5.35949 14.8774 5.35983 14.936L5.35907 14.9398L5.35995 14.9441C5.35924 15.578 4.84336 16.0936 4.20932 16.0936ZM8.22421 16.0936C7.58707 16.0936 7.06842 15.5773 7.06842 14.9428C7.06842 14.8626 7.07513 14.8152 7.08453 14.7669C7.16611 14.2083 7.65588 13.7872 8.22421 13.7872C8.79858 13.7872 9.2756 14.1992 9.36221 14.788C9.3701 14.8253 9.3743 14.8788 9.37447 14.9388L9.37455 14.9411L9.37463 14.9428C9.37463 15.5773 8.85867 16.0936 8.22421 16.0936ZM17.7086 16.0936C17.0714 16.0936 16.5528 15.5773 16.5528 14.9428L16.553 14.9403C16.5532 14.88 16.5573 14.8257 16.5692 14.7667C16.6505 14.2083 17.1402 13.7872 17.7086 13.7872C18.2829 13.7872 18.7599 14.1992 18.8469 14.7896C18.8549 14.8268 18.8593 14.8812 18.8593 14.9428C18.8593 15.5773 18.343 16.0936 17.7086 16.0936ZM20.3693 14.596H19.5059C19.3438 13.7258 18.6023 13.0997 17.7086 13.0997C16.8187 13.0997 16.0531 13.7493 15.905 14.596H15.3483L16.5 14.5L19 10.5869L17.6951 8.76421L18.4686 6.58873C18.5401 6.58873 17.8529 7.51759 17.8818 7.58339L18.7932 7.06323H17.8818C17.5951 7.06323 17.3618 7.29654 17.3618 7.58339V9.82565C17.3618 10.0395 17.4964 10.2344 17.6951 10.3099L20.6251 11.4389V11.5436L18.5647 10.5869C18.3747 10.5869 16.5 11.3102 16.5 11.5L17 13.5C17 13.8837 18.4095 14 18.7932 14L20.2417 15.2835L20.6251 14.3421C20.6251 14.4821 20.5103 14.596 20.3693 14.596ZM20.6247 12.2311V12.4617L20.0547 12.4565V12.2311H20.6247Z"
    fill="currentColor" />
  <path
    d="M11.1582 5.13086C11.4584 5.13124 11.7021 5.37481 11.7021 5.6748V5.94336H12.5068C12.5954 5.9435 12.6823 5.96603 12.7598 6.00684L12.835 6.05371L13.0361 6.21582C13.761 6.83288 14.2539 7.6521 14.4609 8.5625V6.24512C14.4609 5.94494 14.7044 5.70125 15.0049 5.70117H18.4688C18.893 5.70137 19.2783 5.95333 19.4482 6.34277L21.46 10.9688C21.4578 10.9648 21.4535 10.9596 21.4492 10.9531L21.2832 11.0635L21.2031 10.8809L19.2646 6.42285C19.1437 6.1458 18.8891 5.95485 18.5967 5.91113L18.4688 5.90137H15.0049C14.815 5.90145 14.6611 6.05533 14.6611 6.24512V12.2607H13.3672C13.9707 11.5592 14.3253 10.6798 14.3672 9.73633L14.3721 9.54688C14.3721 8.22579 13.767 7.01098 12.7139 6.21387C12.6693 6.18019 12.617 6.15755 12.5625 6.14844L12.5068 6.14355H11.502V5.6748C11.502 5.50893 11.3839 5.3702 11.2275 5.33789L11.1582 5.33105H8.36426C8.17445 5.33129 8.02051 5.48511 8.02051 5.6748V6.14355H2.48145L2.42578 6.14844C2.37091 6.15739 2.31828 6.18006 2.27344 6.21387L2.08105 6.36719C1.14693 7.16217 0.616211 8.30799 0.616211 9.54688L0.620117 9.73633C0.662016 10.68 1.0166 11.5592 1.62012 12.2607H1.53223C1.34228 12.2608 1.18849 12.4147 1.18848 12.6045V14.9395L1.19531 15.0088C1.22269 15.1431 1.32856 15.2488 1.46289 15.2764L1.53223 15.2832H2.40137C2.5523 16.0809 3.21908 16.6993 4.04297 16.7734L4.20996 16.7812C5.10648 16.7809 5.85316 16.134 6.01367 15.2832H6.41602C6.56693 16.0809 7.23384 16.6992 8.05762 16.7734L8.22461 16.7812C9.1212 16.781 9.86785 16.134 10.0283 15.2832H15.9004C16.0513 16.0809 16.7182 16.6992 17.542 16.7734L17.709 16.7812C18.6056 16.781 19.3522 16.134 19.5127 15.2832H20.3701L20.4658 15.2783C20.9089 15.2331 21.2633 14.8808 21.3086 14.4385L21.3135 14.3418V11.2031L21.3125 11.1982C21.3119 11.1595 21.3021 11.1217 21.2891 11.0859L21.2842 11.0654L21.2832 11.0635H21.4824C21.4824 11.0535 21.483 11.0453 21.4824 11.04L21.4805 11.0312C21.4794 11.0251 21.4778 11.0195 21.4766 11.0146C21.4784 11.0211 21.4815 11.0265 21.4824 11.0312C21.4831 11.0346 21.4829 11.0382 21.4834 11.041C21.4939 11.0731 21.5013 11.1104 21.5059 11.1514C21.5061 11.1521 21.5074 11.1555 21.5078 11.1572C21.5098 11.1659 21.5111 11.1791 21.5117 11.1953V11.1982L21.5127 11.2031V14.3418C21.5127 14.9323 21.0617 15.4189 20.4863 15.4775L20.3701 15.4834H19.6719C19.4346 16.3449 18.646 16.9812 17.709 16.9814C16.7697 16.9814 15.9803 16.3452 15.7422 15.4834H10.1865C9.94922 16.3448 9.16161 16.9812 8.22461 16.9814C7.28532 16.9814 6.49589 16.3452 6.25781 15.4834H6.17188C5.93452 16.3448 5.14687 16.9812 4.20996 16.9814C3.27056 16.9814 2.48021 16.3453 2.24219 15.4834H1.53223C1.23175 15.4833 0.988281 15.2397 0.988281 14.9395V12.6045C0.988292 12.4023 1.09983 12.2275 1.26367 12.1338C0.717972 11.394 0.415042 10.4972 0.415039 9.54688C0.415039 8.16279 1.05028 6.88846 2.15332 6.05371L2.22754 6.00684C2.30518 5.96599 2.39271 5.94336 2.48145 5.94336H7.82129V5.6748C7.82129 5.37472 8.06393 5.13109 8.36426 5.13086H11.1582ZM4.31641 13.792C4.84212 13.8397 5.26715 14.2368 5.34863 14.79C5.35626 14.8258 5.36002 14.8783 5.36035 14.9365L5.35938 14.9395L5.36035 14.9443L5.35449 15.0615C5.29491 15.6402 4.80408 16.0934 4.20996 16.0938L4.0918 16.0879C3.54873 16.0328 3.11508 15.6013 3.05957 15.0605L3.05371 14.9434L3.05469 14.9395C3.05477 14.9097 3.05513 14.8805 3.05762 14.8525L3.07031 14.7666C3.15162 14.2083 3.64169 13.7871 4.20996 13.7871L4.31641 13.792ZM8.33105 13.792C8.85688 13.8396 9.28112 14.2362 9.3623 14.7881C9.37016 14.8252 9.37482 14.8786 9.375 14.9385V14.9424L9.36914 15.0605C9.31002 15.6398 8.8191 16.0935 8.22461 16.0938L8.10645 16.0879C7.5635 16.0327 7.1307 15.6012 7.0752 15.0605L7.06934 14.9424C7.06935 14.9024 7.07039 14.8706 7.07324 14.8428L7.08496 14.7666C7.16668 14.2082 7.65644 13.7872 8.22461 13.7871L8.33105 13.792ZM17.8154 13.792C18.3412 13.8396 18.7662 14.2368 18.8477 14.79C18.8556 14.8272 18.8594 14.8813 18.8594 14.9424L18.8535 15.0605C18.7943 15.6397 18.3035 16.0935 17.709 16.0938L17.5908 16.0879C17.0479 16.0327 16.6151 15.6012 16.5596 15.0605L16.5537 14.9424V14.9395C16.5538 14.9094 16.5551 14.8809 16.5576 14.8525L16.5693 14.7666C16.6506 14.2083 17.1407 13.7871 17.709 13.7871L17.8154 13.792ZM4.20996 13.9873C3.73992 13.9873 3.33537 14.3369 3.26855 14.7959L3.2666 14.8066L3.25488 14.9395L3.25391 14.9443C3.2548 15.4669 3.68299 15.8936 4.20996 15.8936C4.70051 15.8932 5.10595 15.5189 5.15527 15.041L5.16016 14.9443L5.15918 14.9395V14.9336C5.15873 14.8828 5.15572 14.8479 5.15234 14.832L5.14941 14.8184C5.07606 14.3248 4.68198 13.9876 4.20996 13.9873ZM8.22461 13.9873C7.75465 13.9874 7.35031 14.3366 7.2832 14.7959L7.28125 14.8047C7.274 14.842 7.26858 14.8768 7.26855 14.9424C7.26855 15.4655 7.69713 15.8935 8.22461 15.8936C8.71549 15.8933 9.12106 15.5185 9.16992 15.04L9.1748 14.9424V14.9395L9.16699 14.8291L9.16406 14.8174C9.09127 14.3251 8.69704 13.9875 8.22461 13.9873ZM17.709 13.9873C17.239 13.9873 16.8344 14.3369 16.7676 14.7959L16.7656 14.8066C16.757 14.8497 16.754 14.89 16.7539 14.9404L16.7529 14.9443C16.7538 15.4668 17.182 15.8935 17.709 15.8936C18.2 15.8933 18.6064 15.5184 18.6553 15.04L18.6602 14.9424C18.6601 14.8879 18.6561 14.8496 18.6523 14.832L18.6494 14.8184C18.5765 14.3241 18.1814 13.9875 17.709 13.9873ZM5.16504 14.8926C5.16458 14.8946 5.16452 14.897 5.16406 14.8994L5.16504 14.8945L5.16797 14.8818C5.16731 14.8841 5.16607 14.8881 5.16504 14.8926ZM14.6611 14.5957H10.0225L9.98535 14.4355C9.76708 13.65 9.06226 13.0998 8.22461 13.0996C7.39085 13.0997 6.66586 13.6707 6.45605 14.4395L6.4209 14.5957H6.00684L5.96973 14.4355C5.75141 13.6501 5.04748 13.0999 4.20996 13.0996C3.37585 13.0996 2.65094 13.6706 2.44141 14.4395L2.40625 14.5957H1.87598V12.9482H14.6611V14.5957ZM17.8818 7.06348L17.7773 7.07422C17.5409 7.1229 17.3625 7.3323 17.3623 7.58301V9.8252L17.3682 9.9043C17.3965 10.0859 17.5215 10.2433 17.6953 10.3096L20.626 11.4385V11.5439H19.7119L19.6426 11.5508C19.4857 11.5827 19.3682 11.7215 19.3682 11.8877V12.4561L19.3818 12.5967C19.4376 12.8682 19.6522 13.0831 19.9238 13.1387L20.0635 13.1523H20.626V14.3418L20.6201 14.3936C20.5995 14.4924 20.5205 14.5705 20.4209 14.5908L20.3701 14.5957V14.3965C20.4016 14.396 20.4258 14.3697 20.4258 14.3418V13.3525H20.0635C19.5694 13.3525 19.168 12.9502 19.168 12.4561V11.8877C19.168 11.5875 19.4114 11.3438 19.7119 11.3438H19.8223L17.625 10.4961C17.3485 10.391 17.1621 10.1219 17.1621 9.8252V7.58301C17.1623 7.18606 17.485 6.86351 17.8818 6.86328V7.06348ZM2.07617 14.3965H2.24609C2.38959 13.8589 2.75869 13.4104 3.24121 13.1484H2.07617V14.3965ZM5.18555 13.1484C5.65965 13.4076 6.0187 13.8513 6.16602 14.3965H6.26074C6.40439 13.859 6.77345 13.4105 7.25586 13.1484H5.18555ZM9.20117 13.1484C9.67498 13.4076 10.0334 13.8516 10.1807 14.3965H14.4609V13.1484H9.20117ZM20.625 12.4619L20.0557 12.4561V12.2314H20.625V12.4619ZM12.3887 6.83105C13.2132 7.49707 13.6846 8.48072 13.6846 9.54688L13.6787 9.74512C13.6277 10.6672 13.2214 11.5152 12.5391 12.1318L12.3887 12.2607H2.59961L2.44824 12.1318C1.76585 11.5153 1.36054 10.6674 1.30957 9.74512L1.30371 9.54688C1.30371 8.48055 1.77481 7.4969 2.59961 6.83105H12.3887ZM14.4609 10.5312C14.3344 11.0829 14.1013 11.6005 13.7764 12.0605H14.4609V10.5312ZM7.77246 7.89551C7.64355 7.71658 7.34375 7.71658 7.21484 7.89551C7.02616 8.15687 6.08496 9.49449 6.08496 10.1602C6.08513 10.9369 6.71657 11.5692 7.49316 11.5693C8.26985 11.5693 8.90217 10.937 8.90234 10.1602C8.90234 9.49471 7.96158 8.1575 7.77246 7.89551ZM21.4219 11.2061L21.4248 11.2051L21.4277 11.2002C21.4259 11.2021 21.4238 11.2042 21.4219 11.2061ZM21.4697 11.1338L21.4727 11.1299C21.4763 11.1193 21.4769 11.109 21.4785 11.1006C21.4768 11.1095 21.4745 11.121 21.4697 11.1338ZM21.4736 11C21.4748 11.0036 21.4751 11.009 21.4766 11.0146C21.4743 11.0066 21.472 10.9971 21.4678 10.9873C21.4698 10.992 21.4724 10.9962 21.4736 11ZM21.3887 10.8945L21.3867 10.8926C21.3778 10.8872 21.3655 10.8811 21.3516 10.876C21.3669 10.8816 21.3794 10.8888 21.3887 10.8945ZM7.49316 8.7041C7.87652 9.28971 8.21484 9.92266 8.21484 10.1602C8.21467 10.5578 7.89086 10.8818 7.49316 10.8818C7.09557 10.8817 6.77263 10.5577 6.77246 10.1602C6.77246 9.92268 7.10986 9.28966 7.49316 8.7041ZM20.3262 10.5869L18.0498 9.70996V7.75098H19.0928L20.3262 10.5869ZM18.25 9.57227L19.9512 10.2275L18.9619 7.95117H18.25V9.57227ZM10.8145 6.14355H8.70801V6.01855H10.8145V6.14355Z"
    fill="currentColor" />
</svg>