<svg width="25" height="24" viewBox="0 0 25 24" fill="none" xmlns="http://www.w3.org/2000/svg">
<path fill-rule="evenodd" clip-rule="evenodd" d="M10.5 2C8.84315 2 7.5 3.34315 7.5 5C5.84315 5 4.5 6.34315 4.5 8V19C4.5 20.6569 5.84315 22 7.5 22H17.5C19.1569 22 20.5 20.6569 20.5 19V8C20.5 6.34315 19.1569 5 17.5 5C17.5 3.34315 16.1569 2 14.5 2H10.5ZM9.5 5C9.5 4.44772 9.94772 4 10.5 4H14.5C15.0523 4 15.5 4.44772 15.5 5C15.5 5.55228 15.0523 6 14.5 6H10.5C9.94772 6 9.5 5.55228 9.5 5Z" fill="black"/>
</svg>
