<svg width="25" height="24" viewBox="0 0 25 24" fill="none" xmlns="http://www.w3.org/2000/svg">
<path fill-rule="evenodd" clip-rule="evenodd" d="M12.5 21C17.4706 21 21.5 16.9706 21.5 12C21.5 7.02944 17.4706 3 12.5 3C7.52944 3 3.5 7.02944 3.5 12C3.5 16.9706 7.52944 21 12.5 21ZM12.5 8.5C12.5 7.94772 12.0523 7.5 11.5 7.5C10.9477 7.5 10.5 7.94772 10.5 8.5V13.5C10.5 14.0523 10.9477 14.5 11.5 14.5H14.5C15.0523 14.5 15.5 14.0523 15.5 13.5C15.5 12.9477 15.0523 12.5 14.5 12.5H12.5V8.5Z" fill="black"/>
</svg>
