<svg width="25" height="24" viewBox="0 0 25 24" fill="none" xmlns="http://www.w3.org/2000/svg">
<path d="M2.5 15C2.5 17.7614 4.73858 20 7.5 20H8.07444C8.18275 19.5227 8.40963 19.0652 8.75777 18.6736C8.97737 18.4265 9.22862 18.2243 9.5 18.0677V15C9.5 13.3431 10.8431 12 12.5 12C14.1569 12 15.5 13.3431 15.5 15V18.0677C15.7714 18.2243 16.0226 18.4265 16.2422 18.6736C16.5868 19.0612 16.8126 19.5134 16.9222 19.9854C20.0389 19.7687 22.5 17.1718 22.5 14C22.5 11.3467 20.7777 9.09565 18.3902 8.30379C17.8287 5.28532 15.1812 3 12 3C8.41015 3 5.5 5.91015 5.5 9.5C5.5 9.80195 5.52059 10.0991 5.56044 10.3901C3.76232 11.1476 2.5 12.9264 2.5 15Z" fill="black"/>
<path d="M14.6644 21.4141L13.1644 22.7474C12.7855 23.0842 12.2145 23.0842 11.8356 22.7474L10.3356 21.4141C9.92285 21.0472 9.88567 20.4151 10.2526 20.0023C10.5736 19.6412 11.0975 19.5675 11.5 19.8004V15C11.5 14.4477 11.9477 14 12.5 14C13.0523 14 13.5 14.4477 13.5 15V19.8004C13.9025 19.5675 14.4264 19.6412 14.7474 20.0023C15.1143 20.4151 15.0771 21.0472 14.6644 21.4141Z" fill="black"/>
</svg>
