<svg width="25" height="24" viewBox="0 0 25 24" fill="none" xmlns="http://www.w3.org/2000/svg">
<path d="M21.5 1C22.0523 1 22.5 1.44772 22.5 2V5C22.5 5.55228 22.0523 6 21.5 6C20.9477 6 20.5 5.55228 20.5 5V2C20.5 1.44772 20.9477 1 21.5 1Z" fill="black"/>
<path d="M2.5 15C2.5 17.7614 4.73858 20 7.5 20H16.5C19.8137 20 22.5 17.3137 22.5 14C22.5 11.3467 20.7777 9.09565 18.3902 8.30379C17.8287 5.28532 15.1812 3 12 3C8.41015 3 5.5 5.91015 5.5 9.5C5.5 9.80195 5.52059 10.0991 5.56044 10.3901C3.76232 11.1476 2.5 12.9264 2.5 15Z" fill="black"/>
<path d="M20.5 7.25C20.5 7.80228 20.9477 8.25 21.5 8.25C22.0523 8.25 22.5 7.80228 22.5 7.25C22.5 6.69772 22.0523 6.25 21.5 6.25C20.9477 6.25 20.5 6.69772 20.5 7.25Z" fill="black"/>
</svg>
