<svg width="25" height="24" viewBox="0 0 25 24" fill="none" xmlns="http://www.w3.org/2000/svg">
<path d="M23.2071 2.70711C23.5976 2.31658 23.5976 1.68342 23.2071 1.29289C22.8166 0.902369 22.1834 0.902369 21.7929 1.29289L1.79289 21.2929C1.40237 21.6834 1.40237 22.3166 1.79289 22.7071C2.18342 23.0976 2.81658 23.0976 3.20711 22.7071L23.2071 2.70711Z" fill="black"/>
<path d="M12 3C13.4781 3 14.841 3.49337 15.9329 4.32443L3.02486 17.2325C2.68898 16.5605 2.5 15.8023 2.5 15C2.5 12.9264 3.76232 11.1476 5.56044 10.3901C5.52059 10.0991 5.5 9.80195 5.5 9.5C5.5 5.91015 8.41015 3 12 3Z" fill="black"/>
<path d="M16.5 20H8.74264L19.7725 8.97016C21.4146 10.0407 22.5 11.8936 22.5 14C22.5 17.3137 19.8137 20 16.5 20Z" fill="black"/>
</svg>
