<svg width="25" height="24" viewBox="0 0 25 24" fill="none" xmlns="http://www.w3.org/2000/svg">
<path d="M2.5 11.1765C2.5 12.6812 3.4093 13.9829 4.7313 14.6069C5.25708 13.5003 6.17739 12.6174 7.31044 12.1401C7.27059 11.8491 7.25 11.552 7.25 11.25C7.25 7.66015 10.1601 4.75 13.75 4.75C14.1062 4.75 14.4557 4.77865 14.7963 4.83377C13.9603 3.158 12.1716 2 10.1 2C7.22812 2 4.9 4.22541 4.9 6.97059C4.9 7.20149 4.91647 7.42872 4.94835 7.65126C3.50985 8.23049 2.5 9.59075 2.5 11.1765Z" fill="black"/>
<path d="M10.5 20C8.29086 20 6.5 18.2881 6.5 16.1765C6.5 14.5908 7.50985 13.2305 8.94835 12.6513C8.91647 12.4287 8.9 12.2015 8.9 11.9706C8.9 9.22541 11.2281 7 14.1 7C16.645 7 18.7629 8.7476 19.2121 11.0558C21.1222 11.6614 22.5 13.3828 22.5 15.4118C22.5 17.9458 20.351 20 17.7 20H10.5Z" fill="black"/>
</svg>
