<svg width="25" height="24" viewBox="0 0 25 24" fill="none" xmlns="http://www.w3.org/2000/svg">
<path d="M2.5 15C2.5 17.7614 4.73858 20 7.5 20H8.04503C7.69867 19.4169 7.15146 18.97 6.4954 18.7513C5.62901 18.4625 5.62901 17.237 6.4954 16.9482C7.34669 16.6644 8.0147 15.9964 8.29847 15.1451C8.58726 14.2788 9.81274 14.2788 10.1015 15.1451C10.3853 15.9964 11.0533 16.6644 11.9046 16.9482C11.9755 16.9719 12.0407 17.0018 12.1 17.037C12.1593 17.0018 12.2245 16.9719 12.2954 16.9482C13.1467 16.6644 13.8147 15.9964 14.0985 15.1451C14.3873 14.2788 15.6127 14.2788 15.9015 15.1451C16.1853 15.9964 16.8533 16.6644 17.7046 16.9482C18.571 17.237 18.571 18.4625 17.7046 18.7513C17.0485 18.97 16.5013 19.4169 16.155 20H16.5C19.8137 20 22.5 17.3137 22.5 14C22.5 11.3467 20.7777 9.09565 18.3902 8.30379C17.8287 5.28532 15.1812 3 12 3C8.41015 3 5.5 5.91015 5.5 9.5C5.5 9.80195 5.52059 10.0991 5.56044 10.3901C3.76232 11.1476 2.5 12.9264 2.5 15Z" fill="black"/>
<path d="M7.99384 18.1923C8.39474 18.326 8.70933 18.6405 8.84296 19.0415C8.97896 19.4495 9.55608 19.4495 9.69208 19.0415C9.82572 18.6405 10.1403 18.326 10.5412 18.1923C10.9492 18.0563 10.9492 17.4792 10.5412 17.3432C10.1403 17.2096 9.82572 16.895 9.69208 16.4941C9.55608 16.0861 8.97896 16.0861 8.84296 16.4941C8.70933 16.895 8.39474 17.2096 7.99384 17.3432C7.58583 17.4792 7.58583 18.0563 7.99384 18.1923Z" fill="black"/>
<path d="M11.843 22.0415C11.7093 21.6405 11.3947 21.326 10.9938 21.1923C10.5858 21.0563 10.5858 20.4792 10.9938 20.3432C11.3947 20.2096 11.7093 19.895 11.843 19.4941C11.979 19.0861 12.5561 19.0861 12.6921 19.4941C12.8257 19.895 13.1403 20.2096 13.5412 20.3432C13.9492 20.4792 13.9492 21.0563 13.5412 21.1923C13.1403 21.326 12.8257 21.6405 12.6921 22.0415C12.5561 22.4495 11.979 22.4495 11.843 22.0415Z" fill="black"/>
<path d="M13.9938 18.1923C14.3947 18.326 14.7093 18.6405 14.843 19.0415C14.979 19.4495 15.5561 19.4495 15.6921 19.0415C15.8257 18.6405 16.1403 18.326 16.5412 18.1923C16.9492 18.0563 16.9492 17.4792 16.5412 17.3432C16.1403 17.2096 15.8257 16.895 15.6921 16.4941C15.5561 16.0861 14.979 16.0861 14.843 16.4941C14.7093 16.895 14.3947 17.2096 13.9938 17.3432C13.5858 17.4792 13.5858 18.0563 13.9938 18.1923Z" fill="black"/>
</svg>
