<svg width="25" height="24" viewBox="0 0 25 24" fill="none" xmlns="http://www.w3.org/2000/svg">
<path d="M2.5 15C2.5 17.3166 4.07546 19.2652 6.21341 19.8329L7.11543 16.6758C7.5706 15.0827 9.23106 14.1603 10.8242 14.6154C10.9722 14.6577 11.1145 14.7105 11.2504 14.7726C11.8782 14.4846 12.608 14.4108 13.3242 14.6154C13.4722 14.6577 13.6145 14.7105 13.7504 14.7726C14.3782 14.4846 15.108 14.4108 15.8242 14.6154C17.4173 15.0706 18.3397 16.7311 17.8846 18.3242L17.4261 19.929C20.3001 19.4837 22.5 16.9988 22.5 14C22.5 11.3467 20.7777 9.09565 18.3902 8.30379C17.8287 5.28532 15.1812 3 12 3C8.41015 3 5.5 5.91015 5.5 9.5C5.5 9.80195 5.52059 10.0991 5.56044 10.3901C3.76232 11.1476 2.5 12.9264 2.5 15Z" fill="black"/>
<path d="M10.9615 17.7747C11.1132 17.2437 10.8058 16.6902 10.2747 16.5385C9.74369 16.3868 9.1902 16.6942 9.03848 17.2253L8.03848 20.7253C7.88675 21.2563 8.19424 21.8098 8.72528 21.9615C9.25631 22.1132 9.8098 21.8058 9.96152 21.2747L10.9615 17.7747Z" fill="black"/>
<path d="M12.7747 16.5385C13.3058 16.6902 13.6132 17.2437 13.4615 17.7747L12.4615 21.2747C12.3098 21.8058 11.7563 22.1132 11.2253 21.9615C10.6942 21.8098 10.3868 21.2563 10.5385 20.7253L11.5385 17.2253C11.6902 16.6942 12.2437 16.3868 12.7747 16.5385Z" fill="black"/>
<path d="M15.9615 17.7747C16.1132 17.2437 15.8058 16.6902 15.2747 16.5385C14.7437 16.3868 14.1902 16.6942 14.0385 17.2253L13.0385 20.7253C12.8868 21.2563 13.1942 21.8098 13.7253 21.9615C14.2563 22.1132 14.8098 21.8058 14.9615 21.2747L15.9615 17.7747Z" fill="black"/>
</svg>
