<svg width="25" height="24" viewBox="0 0 25 24" fill="none" xmlns="http://www.w3.org/2000/svg">
<path d="M2.5 15C2.5 17.7614 4.73858 20 7.5 20H7.90192C7.89095 19.981 7.88017 19.9618 7.86959 19.9425C7.34287 18.9821 7.3815 17.8109 7.97034 16.8873L10.2017 13.3873C11.0923 11.9902 12.9469 11.5797 14.344 12.4703C15.6181 13.2826 16.0717 14.8966 15.4662 16.2341C15.7033 16.4398 15.9098 16.6842 16.0755 16.9616C16.617 17.868 16.642 18.9924 16.1415 19.9221L16.0996 20H16.5C19.8137 20 22.5 17.3137 22.5 14C22.5 11.3467 20.7777 9.09565 18.3902 8.30379C17.8287 5.28532 15.1812 3 12 3C8.41015 3 5.5 5.91015 5.5 9.5C5.5 9.80195 5.52059 10.0991 5.56044 10.3901C3.76232 11.1476 2.5 12.9264 2.5 15Z" fill="black"/>
<path d="M13.5745 15.5376C13.8714 15.0719 13.7346 14.4537 13.2689 14.1568C12.8032 13.8599 12.185 13.9967 11.8881 14.4624L9.65678 17.9624C9.4605 18.2703 9.44762 18.6607 9.6232 18.9808C9.79877 19.301 10.1349 19.5 10.5 19.5H11.8259L10.7352 21.526C10.4734 22.0122 10.6553 22.6187 11.1416 22.8805C11.6279 23.1423 12.2344 22.9603 12.4962 22.474L14.3805 18.974C14.5473 18.6641 14.539 18.2893 14.3585 17.9872C14.178 17.685 13.852 17.5 13.5 17.5H12.3235L13.5745 15.5376Z" fill="black"/>
</svg>
