<svg width="25" height="24" viewBox="0 0 25 24" fill="none" xmlns="http://www.w3.org/2000/svg">
<path d="M15.9417 5.33612C16.1275 4.81601 15.8564 4.2438 15.3363 4.05804C14.8162 3.87229 14.244 4.14334 14.0583 4.66345L9.05826 18.6634C8.8725 19.1836 9.14355 19.7558 9.66366 19.9415C10.1838 20.1273 10.756 19.8562 10.9417 19.3361L15.9417 5.33612Z" fill="black"/>
<path d="M9.33205 7.44508C9.6384 7.90461 9.51423 8.52548 9.0547 8.83183L4.30278 11.9998L9.0547 15.1677C9.51423 15.4741 9.6384 16.095 9.33205 16.5545C9.0257 17.014 8.40483 17.1382 7.9453 16.8318L1.9453 12.8318C1.6671 12.6464 1.5 12.3341 1.5 11.9998C1.5 11.6654 1.6671 11.3532 1.9453 11.1677L7.9453 7.16773C8.40483 6.86138 9.0257 6.98556 9.33205 7.44508Z" fill="black"/>
<path d="M15.6679 7.44508C15.3616 7.90461 15.4858 8.52548 15.9453 8.83183L20.6972 11.9998L15.9453 15.1677C15.4858 15.4741 15.3616 16.095 15.6679 16.5545C15.9743 17.014 16.5952 17.1382 17.0547 16.8318L23.0547 12.8318C23.3329 12.6464 23.5 12.3341 23.5 11.9998C23.5 11.6654 23.3329 11.3532 23.0547 11.1677L17.0547 7.16773C16.5952 6.86138 15.9743 6.98556 15.6679 7.44508Z" fill="black"/>
</svg>
