<svg width="25" height="24" viewBox="0 0 25 24" fill="none" xmlns="http://www.w3.org/2000/svg">
<path d="M8.5 2C6.29086 2 4.5 3.79086 4.5 6V9.1459C4.5 9.90344 4.072 10.596 3.39443 10.9348L3.05279 11.1056C2.714 11.275 2.5 11.6212 2.5 12C2.5 12.3788 2.714 12.725 3.05279 12.8944L3.39443 13.0652C4.072 13.404 4.5 14.0966 4.5 14.8541V18C4.5 20.2091 6.29086 22 8.5 22H10C10.5523 22 11 21.5523 11 21C11 20.4477 10.5523 20 10 20H8.5C7.39543 20 6.5 19.1046 6.5 18V14.8541C6.5 13.7636 6.05653 12.7405 5.30268 12C6.05653 11.2595 6.5 10.2364 6.5 9.1459V6C6.5 4.89543 7.39543 4 8.5 4H10C10.5523 4 11 3.55228 11 3C11 2.44772 10.5523 2 10 2H8.5Z" fill="black"/>
<path d="M16.5 2C18.7091 2 20.5 3.79086 20.5 6V9.1459C20.5 9.90344 20.928 10.596 21.6056 10.9348L21.9472 11.1056C22.286 11.275 22.5 11.6212 22.5 12C22.5 12.3788 22.286 12.725 21.9472 12.8944L21.6056 13.0652C20.928 13.404 20.5 14.0966 20.5 14.8541V18C20.5 20.2091 18.7091 22 16.5 22H15C14.4477 22 14 21.5523 14 21C14 20.4477 14.4477 20 15 20H16.5C17.6046 20 18.5 19.1046 18.5 18V14.8541C18.5 13.7636 18.9435 12.7405 19.6973 12C18.9435 11.2595 18.5 10.2364 18.5 9.1459V6C18.5 4.89543 17.6046 4 16.5 4H15C14.4477 4 14 3.55228 14 3C14 2.44772 14.4477 2 15 2H16.5Z" fill="black"/>
</svg>
