<svg width="25" height="24" viewBox="0 0 25 24" fill="none" xmlns="http://www.w3.org/2000/svg">
<path d="M22.5 8C22.5 11.3137 19.8137 14 16.5 14C16.4151 14 16.3306 13.9982 16.2466 13.9947C15.5221 11.1878 13.3122 8.9779 10.5053 8.25339C10.5018 8.16936 10.5 8.08489 10.5 8C10.5 4.68629 13.1863 2 16.5 2C19.8137 2 22.5 4.68629 22.5 8Z" fill="black"/>
<path d="M8.5 22C11.8137 22 14.5 19.3137 14.5 16C14.5 12.6863 11.8137 10 8.5 10C5.18629 10 2.5 12.6863 2.5 16C2.5 19.3137 5.18629 22 8.5 22Z" fill="black"/>
</svg>
