<svg width="25" height="24" viewBox="0 0 25 24" fill="none" xmlns="http://www.w3.org/2000/svg">
<path d="M2.5 8.99998C2.5 9.55226 2.94772 9.99998 3.5 9.99998C4.05228 9.99998 4.5 9.55226 4.5 8.99998C4.5 6.98926 5.16116 5.76649 5.93394 5.04201C6.14936 4.84006 6.3795 4.67111 6.6159 4.5321L6.60557 4.55276C6.35858 5.04674 6.55881 5.64741 7.05279 5.8944C7.54676 6.14139 8.14744 5.94117 8.39443 5.44719L9.39443 3.44719C9.64142 2.95321 9.44119 2.35254 8.94721 2.10555L6.94721 1.10555C6.45324 0.858558 5.85256 1.05878 5.60557 1.55276C5.409 1.94591 5.4957 2.40664 5.78831 2.70286C5.36293 2.93261 4.94934 3.22361 4.56606 3.58294C3.33884 4.73346 2.5 6.51069 2.5 8.99998Z" fill="black"/>
<path d="M22.5 7.99998C22.5 11.3137 19.8137 14 16.5 14C16.4151 14 16.3306 13.9982 16.2466 13.9947C15.5221 11.1878 13.3122 8.97787 10.5053 8.25336C10.5018 8.16934 10.5 8.08486 10.5 7.99998C10.5 4.68627 13.1863 1.99997 16.5 1.99997C19.8137 1.99997 22.5 4.68627 22.5 7.99998Z" fill="black"/>
<path fill-rule="evenodd" clip-rule="evenodd" d="M14.5 16C14.5 19.3137 11.8137 22 8.5 22C5.18629 22 2.5 19.3137 2.5 16C2.5 12.6863 5.18629 9.99998 8.5 9.99998C11.8137 9.99998 14.5 12.6863 14.5 16ZM7.8207 18.0379C7.60689 17.3965 7.10355 16.8931 6.46211 16.6793C5.80929 16.4617 5.80929 15.5383 6.46211 15.3207C7.10355 15.1069 7.60689 14.6036 7.8207 13.9621C8.03831 13.3093 8.96169 13.3093 9.1793 13.9621C9.39311 14.6036 9.89645 15.1069 10.5379 15.3207C11.1907 15.5383 11.1907 16.4617 10.5379 16.6793C9.89645 16.8931 9.39311 17.3965 9.1793 18.0379C8.96169 18.6907 8.03831 18.6907 7.8207 18.0379Z" fill="black"/>
<path d="M21.5 14C22.0523 14 22.5 14.4477 22.5 15C22.5 17.4893 21.6612 19.2665 20.4339 20.417C20.0507 20.7763 19.6371 21.0673 19.2117 21.2971C19.5043 21.5933 19.591 22.054 19.3944 22.4472C19.1474 22.9412 18.5468 23.1414 18.0528 22.8944L16.0528 21.8944C15.5588 21.6474 15.3586 21.0467 15.6056 20.5528L16.6056 18.5528C16.8526 18.0588 17.4532 17.8586 17.9472 18.1055C18.4412 18.3525 18.6414 18.9532 18.3944 19.4472L18.3841 19.4678C18.6205 19.3288 18.8506 19.1599 19.0661 18.9579C19.8388 18.2335 20.5 17.0107 20.5 15C20.5 14.4477 20.9477 14 21.5 14Z" fill="black"/>
</svg>
