<svg width="25" height="24" viewBox="0 0 25 24" fill="none" xmlns="http://www.w3.org/2000/svg">
<path d="M22.5 8C22.5 11.3137 19.8137 14 16.5 14C16.4151 14 16.3306 13.9982 16.2466 13.9947C15.5221 11.1878 13.3122 8.9779 10.5053 8.25339C10.5018 8.16936 10.5 8.08489 10.5 8C10.5 4.68629 13.1863 2 16.5 2C19.8137 2 22.5 4.68629 22.5 8Z" fill="black"/>
<path fill-rule="evenodd" clip-rule="evenodd" d="M14.5 16C14.5 19.3137 11.8137 22 8.5 22C5.18629 22 2.5 19.3137 2.5 16C2.5 12.6863 5.18629 10 8.5 10C11.8137 10 14.5 12.6863 14.5 16ZM7.8207 18.038C7.60689 17.3965 7.10355 16.8932 6.46211 16.6794C5.80929 16.4618 5.80929 15.5384 6.46211 15.3208C7.10355 15.1069 7.60689 14.6036 7.8207 13.9622C8.03831 13.3094 8.96169 13.3094 9.1793 13.9622C9.39311 14.6036 9.89645 15.1069 10.5379 15.3208C11.1907 15.5384 11.1907 16.4618 10.5379 16.6794C9.89645 16.8932 9.39311 17.3965 9.1793 18.038C8.96169 18.6908 8.03831 18.6908 7.8207 18.038Z" fill="black"/>
</svg>
