<svg width="25" height="24" viewBox="0 0 25 24" fill="none" xmlns="http://www.w3.org/2000/svg">
<path d="M4.17069 3.5147C3.20708 4.12791 2.75 4.88281 2.75 5.59822C2.75 6.31362 3.20708 7.06853 4.17069 7.68174C5.12541 8.28929 6.49014 8.6896 8.03646 8.6896C9.58277 8.6896 10.9475 8.28929 11.9022 7.68174C12.8658 7.06853 13.3229 6.31362 13.3229 5.59822C13.3229 4.88281 12.8658 4.12791 11.9022 3.5147C10.9475 2.90715 9.58277 2.50684 8.03646 2.50684C6.49014 2.50684 5.12541 2.90715 4.17069 3.5147Z" fill="black"/>
<path d="M13.3229 8.49819C13.1302 8.65953 12.924 8.80949 12.7075 8.94723C11.4775 9.72999 9.82398 10.1896 8.03646 10.1896C6.24893 10.1896 4.59543 9.72999 3.36538 8.94723C3.14893 8.80949 2.94275 8.65953 2.75 8.49819V9.98837C2.75 10.7038 3.20708 11.4587 4.17069 12.0719C5.12541 12.6794 6.49014 13.0797 8.03646 13.0797C9.58277 13.0797 10.9475 12.6794 11.9022 12.0719C12.8658 11.4587 13.3229 10.7038 13.3229 9.98837V8.49819Z" fill="black"/>
<path d="M13.3229 12.8883C13.1302 13.0497 12.924 13.1996 12.7075 13.3374C11.4775 14.1201 9.82398 14.5797 8.03646 14.5797C6.24893 14.5797 4.59543 14.1201 3.36538 13.3374C3.14893 13.1996 2.94275 13.0497 2.75 12.8883V14.3785C2.75 15.0939 3.20708 15.8488 4.17069 16.462C5.12541 17.0696 6.49014 17.4699 8.03646 17.4699C9.58277 17.4699 10.9475 17.0696 11.9022 16.462C12.8658 15.8488 13.3229 15.0939 13.3229 14.3785V12.8883Z" fill="black"/>
<path d="M13.3229 17.2785C13.1302 17.4398 12.924 17.5898 12.7075 17.7275C11.4775 18.5103 9.82398 18.9699 8.03646 18.9699C6.24893 18.9699 4.59543 18.5103 3.36538 17.7275C3.14893 17.5898 2.94275 17.4398 2.75 17.2785V17.6711C2.75 18.3865 3.20708 19.1414 4.17069 19.7546C5.12541 20.3622 6.49014 20.7625 8.03646 20.7625C9.58277 20.7625 10.9475 20.3622 11.9022 19.7546C12.8658 19.1414 13.3229 18.3865 13.3229 17.6711V17.2785Z" fill="black"/>
<path d="M15.5487 7.98294C14.8519 8.42637 14.5598 8.94672 14.5598 9.40305C14.5598 9.85937 14.8519 10.3797 15.5487 10.8231C16.2366 11.2609 17.2327 11.5562 18.3719 11.5562C19.5111 11.5562 20.5073 11.2609 21.1952 10.8231C21.892 10.3797 22.1841 9.85937 22.1841 9.40305C22.1841 8.94672 21.892 8.42637 21.1952 7.98294C20.5073 7.54518 19.5111 7.24988 18.3719 7.24988C17.2327 7.24988 16.2366 7.54518 15.5487 7.98294Z" fill="black"/>
<path d="M22.1841 11.9658C22.1239 12.0081 22.0627 12.0491 22.0005 12.0886C21.0373 12.7016 19.7523 13.0562 18.3719 13.0562C16.9915 13.0562 15.7066 12.7016 14.7434 12.0886C14.6812 12.0491 14.62 12.0081 14.5598 11.9658V12.721C14.5598 13.1773 14.8519 13.6976 15.5487 14.1411C16.2366 14.5788 17.2327 14.8741 18.3719 14.8741C19.5111 14.8741 20.5073 14.5788 21.1952 14.1411C21.892 13.6976 22.1841 13.1773 22.1841 12.721V11.9658Z" fill="black"/>
<path d="M22.1841 15.2837C22.1239 15.326 22.0627 15.367 22.0005 15.4065C21.0373 16.0195 19.7523 16.3741 18.3719 16.3741C16.9915 16.3741 15.7066 16.0195 14.7434 15.4065C14.6812 15.367 14.62 15.326 14.5598 15.2837V16.0389C14.5598 16.4952 14.8519 17.0155 15.5487 17.459C16.2366 17.8967 17.2327 18.192 18.3719 18.192C19.5111 18.192 20.5073 17.8967 21.1952 17.459C21.892 17.0155 22.1841 16.4952 22.1841 16.0389V15.2837Z" fill="black"/>
<path d="M22.1814 18.6035C22.1221 18.6452 22.0618 18.6855 22.0005 18.7245C21.0373 19.3374 19.7523 19.692 18.3719 19.692C16.9915 19.692 15.7066 19.3374 14.7434 18.7245C14.6821 18.6855 14.6218 18.6451 14.5625 18.6035C14.5933 19.0409 14.8904 19.5285 15.5487 19.9474C16.2366 20.3852 17.2327 20.6805 18.3719 20.6805C19.5111 20.6805 20.5073 20.3852 21.1952 19.9474C21.8535 19.5285 22.1505 19.0409 22.1814 18.6035Z" fill="black"/>
</svg>
