<svg width="25" height="24" viewBox="0 0 25 24" fill="none" xmlns="http://www.w3.org/2000/svg">
<path d="M16.7423 4.92905C17.5234 4.148 18.7897 4.148 19.5708 4.92905C20.3518 5.7101 20.3518 6.97643 19.5708 7.75748L16.0352 11.293C15.6447 11.6835 15.0115 11.6835 14.621 11.293L13.2068 9.8788C12.8163 9.48827 12.8163 8.85511 13.2068 8.46458L16.7423 4.92905Z" fill="black"/>
<path d="M14.621 11.293L13.2068 9.8788L5.42864 17.657C5.03811 18.0475 5.03811 18.6807 5.42864 19.0712C5.81916 19.4617 6.45232 19.4617 6.84285 19.0712L14.621 11.293Z" fill="black"/>
<path d="M14.621 11.293C15.0115 11.6835 15.6447 11.6835 16.0352 11.293L19.5708 7.75748C20.3518 6.97643 20.3518 5.7101 19.5708 4.92905C18.7897 4.148 17.5234 4.148 16.7423 4.92905L13.2068 8.46458C12.8163 8.85511 12.8163 9.48827 13.2068 9.8788M14.621 11.293L13.2068 9.8788M14.621 11.293L16.0352 12.7072M14.621 11.293L6.84285 19.0712C6.45232 19.4617 5.81916 19.4617 5.42864 19.0712C5.03811 18.6807 5.03811 18.0475 5.42864 17.657L13.2068 9.8788M13.2068 9.8788L11.7926 8.46458" stroke="black" stroke-width="2" stroke-linecap="round" stroke-linejoin="round"/>
</svg>
