<svg width="25" height="24" viewBox="0 0 25 24" fill="none" xmlns="http://www.w3.org/2000/svg">
<path fill-rule="evenodd" clip-rule="evenodd" d="M12.5 22C18.0228 22 22.5 17.5228 22.5 12C22.5 6.47715 18.0228 2 12.5 2C6.97715 2 2.5 6.47715 2.5 12C2.5 17.5228 6.97715 22 12.5 22ZM13.5427 8.47886L10.4264 10.2088C10.1035 10.3881 9.90574 10.7307 9.91195 11.1L9.9719 14.6637C9.9846 15.4186 10.7971 15.8876 11.4571 15.5212L14.5734 13.7913C14.8963 13.612 15.0941 13.2694 15.0879 12.9001L15.028 9.33635C15.0153 8.58154 14.2028 8.11245 13.5427 8.47886Z" fill="black"/>
</svg>
