<svg width="25" height="24" viewBox="0 0 25 24" fill="none" xmlns="http://www.w3.org/2000/svg">
<path d="M8.05954 2H16.9419L16.2654 4.15631C16.0899 4.71575 15.9973 5.29789 15.9907 5.88418L15.9599 8.58827C15.9481 9.62974 16.2076 10.6564 16.7129 11.5671L20.8529 19.0298C21.5924 20.3628 20.6284 22 19.104 22H5.8974C4.37297 22 3.40897 20.3628 4.14851 19.0298L8.53139 11.1294C8.71483 10.7988 8.85211 10.4463 8.94066 10.0817C8.97964 10.0863 9.01931 10.0887 9.05954 10.0887H11.5007C12.053 10.0887 12.5007 9.64099 12.5007 9.08871C12.5007 8.53642 12.053 8.08871 11.5007 8.08871H10.0595V7H11.5007C12.053 7 12.5007 6.55228 12.5007 6C12.5007 5.44772 12.053 5 11.5007 5H9.05954C9.03294 5 9.00659 5.00104 8.98052 5.00308C8.92904 4.68907 8.85259 4.37915 8.75164 4.0763L8.05954 2Z" fill="black"/>
</svg>
