<svg width="25" height="24" viewBox="0 0 25 24" fill="none" xmlns="http://www.w3.org/2000/svg">
<path fill-rule="evenodd" clip-rule="evenodd" d="M5.5 2C3.84315 2 2.5 3.34315 2.5 5V19C2.5 20.6569 3.84315 22 5.5 22H19.5C21.1569 22 22.5 20.6569 22.5 19V5C22.5 3.34315 21.1569 2 19.5 2H5.5ZM20.7071 14.7929C21.0976 15.1834 21.0976 15.8166 20.7071 16.2071L16.7071 20.2071C16.3166 20.5976 15.6834 20.5976 15.2929 20.2071C14.9024 19.8166 14.9024 19.1834 15.2929 18.7929L17.5858 16.5H16C9.37258 16.5 4 11.1274 4 4.5C4 3.94771 4.44772 3.5 5 3.5C5.55229 3.5 6 3.94771 6 4.5C6 10.0228 10.4772 14.5 16 14.5H17.5858L15.2929 12.2071C14.9024 11.8166 14.9024 11.1834 15.2929 10.7929C15.6834 10.4024 16.3166 10.4024 16.7071 10.7929L20.7071 14.7929Z" fill="black"/>
</svg>
