<svg width="25" height="24" viewBox="0 0 25 24" fill="none" xmlns="http://www.w3.org/2000/svg">
<path fill-rule="evenodd" clip-rule="evenodd" d="M5.5 2C3.84315 2 2.5 3.34315 2.5 5V19C2.5 20.6569 3.84315 22 5.5 22H19.5C21.1569 22 22.5 20.6569 22.5 19V5C22.5 3.34315 21.1569 2 19.5 2H5.5ZM15.2929 3.79289C15.6834 3.40237 16.3166 3.40237 16.7071 3.79289L20.7071 7.79289C21.0976 8.18342 21.0976 8.81658 20.7071 9.20711C20.3166 9.59763 19.6834 9.59763 19.2929 9.20711L17 6.91421V8.5C17 15.1274 11.6274 20.5 5 20.5C4.44771 20.5 4 20.0523 4 19.5C4 18.9477 4.44771 18.5 5 18.5C10.5228 18.5 15 14.0228 15 8.5V6.91421L12.7071 9.20711C12.3166 9.59763 11.6834 9.59763 11.2929 9.20711C10.9024 8.81658 10.9024 8.18342 11.2929 7.79289L15.2929 3.79289Z" fill="black"/>
</svg>
