<svg width="25" height="24" viewBox="0 0 25 24" fill="none" xmlns="http://www.w3.org/2000/svg">
<path fill-rule="evenodd" clip-rule="evenodd" d="M5.5 2C3.84315 2 2.5 3.34315 2.5 5V19C2.5 20.6569 3.84315 22 5.5 22H19.5C21.1569 22 22.5 20.6569 22.5 19V5C22.5 3.34315 21.1569 2 19.5 2H5.5ZM4.29289 14.7929C3.90237 15.1834 3.90237 15.8166 4.29289 16.2071L8.29289 20.2071C8.68342 20.5976 9.31658 20.5976 9.70711 20.2071C10.0976 19.8166 10.0976 19.1834 9.70711 18.7929L7.41421 16.5H9C15.6274 16.5 21 11.1274 21 4.5C21 3.94771 20.5523 3.5 20 3.5C19.4477 3.5 19 3.94771 19 4.5C19 10.0228 14.5228 14.5 9 14.5H7.41421L9.70711 12.2071C10.0976 11.8166 10.0976 11.1834 9.70711 10.7929C9.31658 10.4024 8.68342 10.4024 8.29289 10.7929L4.29289 14.7929Z" fill="black"/>
</svg>
