<svg width="25" height="24" viewBox="0 0 25 24" fill="none" xmlns="http://www.w3.org/2000/svg">
<path fill-rule="evenodd" clip-rule="evenodd" d="M5.5 2C3.84315 2 2.5 3.34315 2.5 5V19C2.5 20.6569 3.84315 22 5.5 22H19.5C21.1569 22 22.5 20.6569 22.5 19V5C22.5 3.34315 21.1569 2 19.5 2H5.5ZM4.29289 9.20711C3.90237 8.81658 3.90237 8.18342 4.29289 7.79289L8.29289 3.79289C8.68342 3.40237 9.31658 3.40237 9.70711 3.79289C10.0976 4.18342 10.0976 4.81658 9.70711 5.20711L7.41421 7.5H9C15.6274 7.5 21 12.8726 21 19.5C21 20.0523 20.5523 20.5 20 20.5C19.4477 20.5 19 20.0523 19 19.5C19 13.9772 14.5228 9.5 9 9.5H7.41421L9.70711 11.7929C10.0976 12.1834 10.0976 12.8166 9.70711 13.2071C9.31658 13.5976 8.68342 13.5976 8.29289 13.2071L4.29289 9.20711Z" fill="black"/>
</svg>
