<svg width="25" height="24" viewBox="0 0 25 24" fill="none" xmlns="http://www.w3.org/2000/svg">
<path fill-rule="evenodd" clip-rule="evenodd" d="M5.5 2C3.84315 2 2.5 3.34315 2.5 5V19C2.5 20.6569 3.84315 22 5.5 22H19.5C21.1569 22 22.5 20.6569 22.5 19V5C22.5 3.34315 21.1569 2 19.5 2H5.5ZM9.70711 20.2071C9.31658 20.5976 8.68342 20.5976 8.29289 20.2071L4.29289 16.2071C3.90237 15.8166 3.90237 15.1834 4.29289 14.7929C4.68342 14.4024 5.31658 14.4024 5.70711 14.7929L8 17.0858L8 15.5C8 8.87258 13.3726 3.5 20 3.5C20.5523 3.5 21 3.94771 21 4.5C21 5.05229 20.5523 5.5 20 5.5C14.4772 5.5 10 9.97715 10 15.5V17.0858L12.2929 14.7929C12.6834 14.4024 13.3166 14.4024 13.7071 14.7929C14.0976 15.1834 14.0976 15.8166 13.7071 16.2071L9.70711 20.2071Z" fill="black"/>
</svg>
