<svg width="25" height="24" viewBox="0 0 25 24" fill="none" xmlns="http://www.w3.org/2000/svg">
<path fill-rule="evenodd" clip-rule="evenodd" d="M5.5 2C3.84315 2 2.5 3.34315 2.5 5V19C2.5 20.6569 3.84315 22 5.5 22H19.5C21.1569 22 22.5 20.6569 22.5 19V5C22.5 3.34315 21.1569 2 19.5 2H5.5ZM20.7071 9.20711C21.0976 8.81658 21.0976 8.18342 20.7071 7.79289L16.7071 3.79289C16.3166 3.40237 15.6834 3.40237 15.2929 3.79289C14.9024 4.18342 14.9024 4.81658 15.2929 5.20711L17.5858 7.5H16C9.37258 7.5 4 12.8726 4 19.5C4 20.0523 4.44771 20.5 5 20.5C5.55228 20.5 6 20.0523 6 19.5C6 13.9772 10.4772 9.5 16 9.5H17.5858L15.2929 11.7929C14.9024 12.1834 14.9024 12.8166 15.2929 13.2071C15.6834 13.5976 16.3166 13.5976 16.7071 13.2071L20.7071 9.20711Z" fill="black"/>
</svg>
