<svg width="25" height="24" viewBox="0 0 25 24" fill="none" xmlns="http://www.w3.org/2000/svg">
<path fill-rule="evenodd" clip-rule="evenodd" d="M5.5 2C3.84315 2 2.5 3.34315 2.5 5V19C2.5 20.6569 3.84315 22 5.5 22H19.5C21.1569 22 22.5 20.6569 22.5 19V5C22.5 3.34315 21.1569 2 19.5 2H5.5ZM9.70711 3.79289C9.31658 3.40237 8.68342 3.40237 8.29289 3.79289L4.29289 7.79289C3.90237 8.18342 3.90237 8.81658 4.29289 9.20711C4.68342 9.59763 5.31658 9.59763 5.70711 9.20711L8 6.91421L8 8.5C8 15.1274 13.3726 20.5 20 20.5C20.5523 20.5 21 20.0523 21 19.5C21 18.9477 20.5523 18.5 20 18.5C14.4772 18.5 10 14.0228 10 8.5V6.91421L12.2929 9.20711C12.6834 9.59763 13.3166 9.59763 13.7071 9.20711C14.0976 8.81658 14.0976 8.18342 13.7071 7.79289L9.70711 3.79289Z" fill="black"/>
</svg>
