<svg width="25" height="24" viewBox="0 0 25 24" fill="none" xmlns="http://www.w3.org/2000/svg">
<path fill-rule="evenodd" clip-rule="evenodd" d="M7.5 2C7.5 1.44772 7.05228 1 6.5 1C5.94772 1 5.5 1.44772 5.5 2V5H3.5C2.94772 5 2.5 5.44772 2.5 6C2.5 6.55228 2.94772 7 3.5 7H5.5V17C5.5 18.1046 6.39543 19 7.5 19H17.5V22C17.5 22.5523 17.9477 23 18.5 23C19.0523 23 19.5 22.5523 19.5 22V19H21.5C22.0523 19 22.5 18.5523 22.5 18C22.5 17.4477 22.0523 17 21.5 17H19.5V7C19.5 5.89543 18.6046 5 17.5 5H7.5V2ZM7.5 17V7H17.5V17H7.5Z" fill="black"/>
</svg>
