<svg width="25" height="24" viewBox="0 0 25 24" fill="none" xmlns="http://www.w3.org/2000/svg">
<path fill-rule="evenodd" clip-rule="evenodd" d="M3.5 5.5V17.5C3.5 19.1569 4.84315 20.5 6.5 20.5H15.5C17.1568 20.5 18.5 19.1569 18.5 17.5001H19.1826C21.567 17.5001 23.5 15.5671 23.5 13.1826V10.8616C23.5 8.98625 22.0538 7.76532 20.6907 7.32317C19.9945 7.09732 19.2168 7.03175 18.5 7.2189V5.5C18.5 4.94772 18.0523 4.5 17.5 4.5H4.5C3.94772 4.5 3.5 4.94772 3.5 5.5ZM18.5 9.89613V15.5001H19.1826C20.4625 15.5001 21.5 14.4625 21.5 13.1826V10.8616C21.5 10.1511 20.9363 9.50542 20.0736 9.22558C19.661 9.09175 19.2768 9.08193 19.0006 9.15525C18.746 9.22283 18.6088 9.34729 18.5346 9.51854C18.5196 9.55322 18.5 9.63715 18.5 9.89613Z" fill="black"/>
</svg>
