<svg width="25" height="24" viewBox="0 0 25 24" fill="none" xmlns="http://www.w3.org/2000/svg">
<path d="M11.5 6.79198C10.617 6.4062 10 5.52516 10 4.5C10 3.11929 11.1193 2 12.5 2C13.8807 2 15 3.11929 15 4.5C15 5.52516 14.383 6.4062 13.5 6.79198V11H17.5C19.7091 11 21.5 12.7909 21.5 15V16.208C22.383 16.5938 23 17.4748 23 18.5C23 19.8807 21.8807 21 20.5 21C19.1193 21 18 19.8807 18 18.5C18 17.4748 18.617 16.5938 19.5 16.208V15C19.5 13.8954 18.6046 13 17.5 13H13.5L13.5 16.208C14.383 16.5938 15 17.4748 15 18.5C15 19.8807 13.8807 21 12.5 21C11.1193 21 10 19.8807 10 18.5C10 17.4748 10.617 16.5938 11.5 16.208L11.5 13H7.5C6.39543 13 5.5 13.8954 5.5 15V16.208C6.38295 16.5938 7 17.4748 7 18.5C7 19.8807 5.88071 21 4.5 21C3.11929 21 2 19.8807 2 18.5C2 17.4748 2.61705 16.5938 3.5 16.208V15C3.5 12.7909 5.29086 11 7.5 11H11.5V6.79198Z" fill="black"/>
</svg>
