<svg width="25" height="24" viewBox="0 0 25 24" fill="none" xmlns="http://www.w3.org/2000/svg">
<path d="M5.5 2.8999H15.5C17.1569 2.8999 18.5 4.24305 18.5 5.8999V8.25006H15.25C13.8693 8.25006 12.75 9.36935 12.75 10.7501V15.6999H11.5V17.0999C12.0523 17.0999 12.5 17.5476 12.5 18.0999C12.5 18.6522 12.0523 19.0999 11.5 19.0999H7.30001C6.74773 19.0999 6.30001 18.6522 6.30001 18.0999C6.30001 17.5476 6.74773 17.0999 7.30001 17.0999H9.50001V15.6999L5.5 15.6999C3.84315 15.6999 2.5 14.3568 2.5 12.6999V5.89991C2.5 4.24305 3.84315 2.8999 5.5 2.8999Z" fill="black"/>
<path d="M15.5 9H15.6338C15.8067 9.2989 16.1299 9.5 16.5 9.5H18.5C18.8701 9.5 19.1933 9.2989 19.3662 9H19.5C20.6046 9 21.5 9.89543 21.5 11V19C21.5 20.1046 20.6046 21 19.5 21H15.5C14.3954 21 13.5 20.1046 13.5 19V11C13.5 9.89543 14.3954 9 15.5 9Z" fill="black"/>
</svg>
