<svg width="25" height="24" viewBox="0 0 25 24" fill="none" xmlns="http://www.w3.org/2000/svg">
<path d="M8.88028 16.0825L13.9954 20.5156C14.6046 21.0402 15.4688 21.1489 16.189 20.7917L16.2014 20.7856L16.2188 20.7768C17.1987 20.2816 17.5962 19.0891 17.1094 18.1051L16.3416 16.5695C15.7913 15.4688 15.5161 14.9185 15.699 14.4921C15.7381 14.401 15.7905 14.3162 15.8545 14.2405C16.1541 13.8862 16.7694 13.8862 18 13.8862H18.1305C19.8895 13.8862 20.769 13.8862 21.3399 13.371C21.3907 13.3252 21.439 13.2769 21.4848 13.2261C22 12.6552 22 11.7757 22 10.0167V8.70131C22 7.80792 22 7.36123 21.8213 6.96734C21.6425 6.57345 21.3064 6.2793 20.634 5.69101L19.1311 4.37593C18.5718 3.88652 18.2921 3.64182 17.952 3.51403C17.6119 3.38623 17.2403 3.38623 16.4971 3.38623H12.6472C12.0774 3.38623 11.7925 3.38623 11.5222 3.46374C11.252 3.54124 11.0104 3.69224 10.5272 3.99424L9.38 4.71123C8.46095 5.28563 8.00143 5.57284 7.75072 6.02519C7.5 6.47754 7.5 7.01944 7.5 8.10322V5.88623C7.5 5.05781 6.82843 4.38623 6 4.38623H5C3.89543 4.38623 3 5.28166 3 6.38623V14.3862C3 15.4908 3.89543 16.3862 5 16.3862H6C6.82843 16.3862 7.5 15.7147 7.5 14.8862V13.0597C7.5 13.9586 7.5 14.408 7.6807 14.8037C7.8614 15.1994 8.20102 15.4938 8.88028 16.0825Z" fill="black"/>
</svg>
