<svg width="25" height="24" viewBox="0 0 25 24" fill="none" xmlns="http://www.w3.org/2000/svg">
<path fill-rule="evenodd" clip-rule="evenodd" d="M14.3067 2.74766C13.2994 1.77324 11.7009 1.77324 10.6937 2.74766C10.1177 3.30487 9.31676 3.5651 8.52326 3.45286C7.13563 3.25659 5.84239 4.19618 5.60026 5.57654C5.46179 6.3659 4.96681 7.04718 4.25888 7.42279C3.0209 8.07963 2.52693 9.59993 3.14239 10.859C3.49434 11.579 3.49434 12.4211 3.14239 13.1411C2.52693 14.4001 3.0209 15.9204 4.25888 16.5773C4.96681 16.9529 5.46179 17.6342 5.60026 18.4235C5.84239 19.8039 7.13563 20.7435 8.52326 20.5472C9.31676 20.435 10.1177 20.6952 10.6937 21.2524C11.7009 22.2268 13.2994 22.2268 14.3067 21.2524C14.8827 20.6952 15.6836 20.435 16.4771 20.5472C17.8647 20.7435 19.1579 19.8039 19.4001 18.4235C19.5385 17.6342 20.0335 16.9529 20.7415 16.5773C21.9794 15.9204 22.4734 14.4001 21.8579 13.1411C21.506 12.4211 21.506 11.579 21.8579 10.859C22.4734 9.59993 21.9794 8.07963 20.7415 7.42279C20.0335 7.04718 19.5385 6.3659 19.4001 5.57654C19.1579 4.19618 17.8647 3.25659 16.4771 3.45286C15.6836 3.5651 14.8827 3.30487 14.3067 2.74766ZM11.2663 10.7726C11.7545 10.2844 11.7545 9.49297 11.2663 9.00482C10.7782 8.51666 9.98671 8.51666 9.49855 9.00482C9.0104 9.49297 9.0104 10.2844 9.49855 10.7726C9.98671 11.2607 10.7782 11.2607 11.2663 10.7726ZM15.509 13.2475C15.9971 13.7357 15.9971 14.5271 15.509 15.0153C15.0208 15.5034 14.2294 15.5034 13.7412 15.0153C13.2531 14.5271 13.2531 13.7357 13.7412 13.2475C14.2294 12.7593 15.0208 12.7593 15.509 13.2475ZM9.67172 13.4143C9.2812 13.8048 9.2812 14.438 9.67172 14.8285C10.0622 15.219 10.6954 15.219 11.0859 14.8285L15.3286 10.5858C15.7191 10.1953 15.7191 9.56215 15.3286 9.17162C14.9381 8.7811 14.3049 8.7811 13.9144 9.17162L9.67172 13.4143Z" fill="black"/>
</svg>
