<svg width="25" height="24" viewBox="0 0 25 24" fill="none" xmlns="http://www.w3.org/2000/svg">
<path fill-rule="evenodd" clip-rule="evenodd" d="M13.5 2C13.5 1.44772 13.0523 1 12.5 1C11.9477 1 11.5 1.44772 11.5 2V3C8.73858 3 6.5 5.23858 6.5 8C6.5 10.7614 8.73858 13 11.5 13V19C9.84315 19 8.5 17.6569 8.5 16C8.5 15.4477 8.05228 15 7.5 15C6.94772 15 6.5 15.4477 6.5 16C6.5 18.7614 8.73858 21 11.5 21V22C11.5 22.5523 11.9477 23 12.5 23C13.0523 23 13.5 22.5523 13.5 22V21C16.2614 21 18.5 18.7614 18.5 16C18.5 13.2386 16.2614 11 13.5 11V5C15.1569 5 16.5 6.34315 16.5 8C16.5 8.55228 16.9477 9 17.5 9C18.0523 9 18.5 8.55228 18.5 8C18.5 5.23858 16.2614 3 13.5 3V2ZM11.5 5C9.84315 5 8.5 6.34315 8.5 8C8.5 9.65685 9.84315 11 11.5 11V5ZM13.5 13V19C15.1569 19 16.5 17.6569 16.5 16C16.5 14.3431 15.1569 13 13.5 13Z" fill="black"/>
</svg>
