<svg width="25" height="24" viewBox="0 0 25 24" fill="none" xmlns="http://www.w3.org/2000/svg">
<path d="M14 15V20C14 20.8284 14.6716 21.5 15.5 21.5H20.5C21.3284 21.5 22 20.8284 22 20V15C22 14.1716 21.3284 13.5 20.5 13.5H15.5C14.6716 13.5 14 14.1716 14 15Z" fill="black"/>
<path d="M5.53107 13.9013L2.90134 16.5311C2.36622 17.0662 2.36622 17.9338 2.90134 18.4689L5.53107 21.0987C6.0662 21.6338 6.9338 21.6338 7.46893 21.0987L10.0987 18.4689C10.6338 17.9338 10.6338 17.0662 10.0987 16.5311L7.46893 13.9013C6.9338 13.3662 6.0662 13.3662 5.53107 13.9013Z" fill="black"/>
<path d="M3 4L3 9C3 9.82843 3.67157 10.5 4.5 10.5H9.5C10.3284 10.5 11 9.82843 11 9V4C11 3.17157 10.3284 2.5 9.5 2.5L4.5 2.5C3.67157 2.5 3 3.17157 3 4Z" fill="black"/>
<path d="M18 10.5C20.2091 10.5 22 8.70914 22 6.5C22 4.29086 20.2091 2.5 18 2.5C15.7909 2.5 14 4.29086 14 6.5C14 8.70914 15.7909 10.5 18 10.5Z" fill="black"/>
</svg>
