<svg width="25" height="24" viewBox="0 0 25 24" fill="none" xmlns="http://www.w3.org/2000/svg">
<path d="M6.25747 10.2166L12.362 11.9607C12.4517 11.9864 12.5469 11.9864 12.6367 11.9607L18.7412 10.2166C19.0937 10.1159 19.2215 9.68252 18.9801 9.40658L12.8756 2.43002C12.6764 2.20236 12.3222 2.20236 12.123 2.43003L6.01854 9.40658C5.7771 9.68252 5.90492 10.1159 6.25747 10.2166Z" fill="black"/>
<path d="M12.0968 21.4537L6.36882 13.68C6.08588 13.296 6.45009 12.7716 6.90871 12.9027L12.362 14.4607C12.4517 14.4864 12.5469 14.4864 12.6367 14.4607L18.0899 12.9027C18.5485 12.7716 18.9128 13.296 18.6298 13.68L12.9018 21.4537C12.702 21.7249 12.2966 21.7249 12.0968 21.4537Z" fill="black"/>
</svg>
