<svg width="25" height="24" viewBox="0 0 25 24" fill="none" xmlns="http://www.w3.org/2000/svg">
<path d="M13.1904 3C9.81022 3 7.03158 5.64316 6.84516 9H4C3.44772 9 3 9.44772 3 10C3 10.5523 3.44772 11 4 11H6.78076L6.73389 12.5H4C3.44772 12.5 3 12.9477 3 13.5C3 14.0523 3.44772 14.5 4 14.5H6.67139L6.59717 16.8751C6.52664 19.1321 8.33712 21 10.5952 21H17.5C18.0523 21 18.5 20.5523 18.5 20C18.5 19.4477 18.0523 19 17.5 19H10.5952C9.46617 19 8.56093 18.066 8.59619 16.9375L8.67236 14.5H13C13.5523 14.5 14 14.0523 14 13.5C14 12.9477 13.5523 12.5 13 12.5H8.73486L8.78174 11H13C13.5523 11 14 10.5523 14 10C14 9.44772 13.5523 9 13 9H8.84968C9.03179 6.75295 10.9116 5 13.1904 5H14.2639C15.2556 5 16.1621 5.56027 16.6056 6.44721C16.8526 6.94119 17.4532 7.14142 17.9472 6.89443C18.4412 6.64744 18.6414 6.04676 18.3944 5.55279C17.6122 3.98827 16.0131 3 14.2639 3H13.1904Z" fill="black"/>
</svg>
