<svg width="25" height="24" viewBox="0 0 25 24" fill="none" xmlns="http://www.w3.org/2000/svg">
<path fill-rule="evenodd" clip-rule="evenodd" d="M2.5 5C2.5 3.34315 3.84315 2 5.5 2H19.5C21.1569 2 22.5 3.34315 22.5 5V19C22.5 20.6569 21.1569 22 19.5 22H5.5C3.84315 22 2.5 20.6569 2.5 19V5ZM4 6.5C4 4.84315 5.34315 3.5 7 3.5H9C9.55228 3.5 10 3.94772 10 4.5C10 5.05228 9.55228 5.5 9 5.5H7C6.44772 5.5 6 5.94772 6 6.5V8.5C6 9.05228 5.55228 9.5 5 9.5C4.44772 9.5 4 9.05228 4 8.5V6.5ZM18 3.5C19.6569 3.5 21 4.84315 21 6.5V8.5C21 9.05228 20.5523 9.5 20 9.5C19.4477 9.5 19 9.05228 19 8.5V6.5C19 5.94772 18.5523 5.5 18 5.5H15C14.4477 5.5 14 5.05228 14 4.5C14 3.94772 14.4477 3.5 15 3.5H18ZM4 17.5C4 19.1569 5.34315 20.5 7 20.5H9C9.55228 20.5 10 20.0523 10 19.5C10 18.9477 9.55228 18.5 9 18.5H7C6.44772 18.5 6 18.0523 6 17.5V14.5C6 13.9477 5.55228 13.5 5 13.5C4.44772 13.5 4 13.9477 4 14.5V17.5ZM18 20.5C19.6569 20.5 21 19.1569 21 17.5V14.5C21 13.9477 20.5523 13.5 20 13.5C19.4477 13.5 19 13.9477 19 14.5V17.5C19 18.0523 18.5523 18.5 18 18.5H15C14.4477 18.5 14 18.9477 14 19.5C14 20.0523 14.4477 20.5 15 20.5H18Z" fill="black"/>
</svg>
