<svg width="25" height="24" viewBox="0 0 25 24" fill="none" xmlns="http://www.w3.org/2000/svg">
<path d="M21.2069 3.29289C21.5974 3.68342 21.5974 4.31658 21.2069 4.70711L5.20686 20.7071C4.81634 21.0976 4.18317 21.0976 3.79265 20.7071C3.40212 20.3166 3.40212 19.6834 3.79265 19.2929L19.7926 3.29289C20.1832 2.90237 20.8163 2.90237 21.2069 3.29289Z" fill="black"/>
<path d="M16.2993 5.37204C15.173 4.84163 13.903 4.5 12.4997 4.5C9.55564 4.5 7.19852 6.00369 5.52335 7.59968C3.84432 9.19934 2.75486 10.9797 2.32359 11.7498C2.04097 12.2545 2.00731 12.8571 2.2393 13.3924C2.40131 13.7662 2.67684 14.3452 3.08294 15.0172C3.36859 15.4899 3.98333 15.6415 4.45601 15.3559C4.92868 15.0702 5.08029 14.4555 4.79464 13.9828C4.46802 13.4423 4.24137 12.9749 4.10389 12.6644C4.50964 11.9493 5.4706 10.4123 6.90292 9.0477C8.3824 7.63816 10.2698 6.5 12.4997 6.5C13.3018 6.5 14.0595 6.64724 14.7699 6.90139L16.2993 5.37204Z" fill="black"/>
<path d="M18.1903 9.13789C19.5708 10.4795 20.4987 11.965 20.8956 12.6644C20.7581 12.9749 20.5315 13.4423 20.2048 13.9828C19.9192 14.4555 20.0708 15.0702 20.5435 15.3559C21.0161 15.6415 21.6309 15.4899 21.9165 15.0172C22.3226 14.3452 22.5982 13.7662 22.7602 13.3924C22.9922 12.8571 22.9585 12.2545 22.6759 11.7498C22.2557 10.9995 21.2108 9.29032 19.6046 7.72355L18.1903 9.13789Z" fill="black"/>
<path d="M12.4998 9C12.5561 9 12.6121 9.00116 12.6679 9.00347L8.50322 13.1681C8.50092 13.1124 8.49976 13.0563 8.49976 13C8.49976 10.7909 10.2906 9 12.4998 9Z" fill="black"/>
<path d="M12.4998 17C11.867 17 11.2686 16.8531 10.7367 16.5915L16.0912 11.2369C16.3528 11.7688 16.4998 12.3672 16.4998 13C16.4998 15.2091 14.7089 17 12.4998 17Z" fill="black"/>
</svg>
