<svg width="25" height="24" viewBox="0 0 25 24" fill="none" xmlns="http://www.w3.org/2000/svg">
<path d="M21.4049 3.00349C11.1329 3.41458 6.40591 12.761 4.9094 18.9086C4.77991 19.4406 4.76417 20.1697 5.30071 20.2788C5.64549 20.3488 6.02893 20.1319 6.18576 19.6039C7.36746 15.6249 8.50085 10.6266 13.0009 12.4999C14.4724 13.2357 16.9062 11.5655 15.11 8.66951C15.0666 8.5996 15.1173 8.50598 15.1995 8.50985C18.3065 8.65644 21.9463 8.38864 21.5092 3.09659C21.5049 3.04373 21.4579 3.00137 21.4049 3.00349Z" fill="black"/>
<path d="M4.11272 6.64966C3.95236 6.16858 3.57485 5.79107 3.09377 5.63071C2.60416 5.46751 2.60416 4.77497 3.09377 4.61177C3.57485 4.45141 3.95236 4.0739 4.11272 3.59282C4.27592 3.10321 4.96846 3.10321 5.13166 3.59282C5.29203 4.0739 5.66953 4.45141 6.15061 4.61177C6.64022 4.77497 6.64022 5.46751 6.15061 5.63071C5.66953 5.79107 5.29203 6.16858 5.13166 6.64966C4.96846 7.13927 4.27592 7.13927 4.11272 6.64966Z" fill="black"/>
<path d="M13.0937 18.6307C13.5748 18.7911 13.9523 19.1686 14.1127 19.6497C14.2759 20.1393 14.9684 20.1393 15.1316 19.6497C15.292 19.1686 15.6695 18.7911 16.1506 18.6307C16.6402 18.4675 16.6402 17.775 16.1506 17.6118C15.6695 17.4514 15.292 17.0739 15.1316 16.5928C14.9684 16.1032 14.2759 16.1032 14.1127 16.5928C13.9523 17.0739 13.5748 17.4514 13.0937 17.6118C12.6041 17.775 12.6041 18.4675 13.0937 18.6307Z" fill="black"/>
</svg>
