<svg width="25" height="24" viewBox="0 0 25 24" fill="none" xmlns="http://www.w3.org/2000/svg">
<path d="M13.5 2H7.5C5.84315 2 4.5 3.34315 4.5 5V19C4.5 20.6569 5.84315 22 7.5 22H9.1094L9.00691 21.9089C7.76856 20.8081 7.65702 18.9119 8.75777 17.6736C8.97737 17.4265 9.22862 17.2243 9.5 17.0677V14C9.5 12.3431 10.8431 11 12.5 11C14.1569 11 15.5 12.3431 15.5 14V17.0677C15.7714 17.2243 16.0226 17.4265 16.2422 17.6736C17.343 18.9119 17.2314 20.8081 15.9931 21.9089L15.8906 22H17.5C19.1569 22 20.5 20.6569 20.5 19V10H17.5C15.2909 10 13.5 8.20914 13.5 6V2Z" fill="black"/>
<path d="M20.2965 8C20.1797 7.6993 20.0143 7.41716 19.8047 7.1656L16.3995 3.07945C16.1469 2.77634 15.8405 2.52989 15.5 2.34941V6C15.5 7.10457 16.3954 8 17.5 8H20.2965Z" fill="black"/>
<path d="M14.6644 20.4141L13.1644 21.7474C12.7855 22.0842 12.2145 22.0842 11.8356 21.7474L10.3356 20.4141C9.92285 20.0472 9.88567 19.4151 10.2526 19.0023C10.5736 18.6412 11.0975 18.5675 11.5 18.8004V14C11.5 13.4477 11.9477 13 12.5 13C13.0523 13 13.5 13.4477 13.5 14V18.8004C13.9025 18.5675 14.4264 18.6412 14.7474 19.0023C15.1143 19.4151 15.0771 20.0472 14.6644 20.4141Z" fill="black"/>
</svg>
