<svg width="25" height="24" viewBox="0 0 25 24" fill="none" xmlns="http://www.w3.org/2000/svg">
<path d="M13.5 2H7.5C5.84315 2 4.5 3.34315 4.5 5V15.0921C4.74076 15.0319 4.99187 15 5.25 15C6.8406 15 8.16433 16.2099 8.44508 17.8079C9.63887 18.2271 10.5 19.4188 10.5 20.8235C10.5 21.2392 10.4246 21.6362 10.2875 22H17.5C19.1569 22 20.5 20.6569 20.5 19V10H17.5C15.2909 10 13.5 8.20914 13.5 6V2Z" fill="black"/>
<path d="M20.2965 8C20.1797 7.6993 20.0143 7.41716 19.8047 7.1656L16.3995 3.07945C16.1469 2.77634 15.8405 2.52989 15.5 2.34941V6C15.5 7.10457 16.3954 8 17.5 8H20.2965Z" fill="black"/>
<path d="M4 22C3.17157 22 2.5 21.3416 2.5 20.5294C2.5 19.9195 2.8787 19.3963 3.41813 19.1736C3.40618 19.088 3.4 19.0006 3.4 18.9118C3.4 17.8559 4.27304 17 5.35 17C6.30436 17 7.0986 17.6722 7.26705 18.5599C7.98332 18.7928 8.5 19.4549 8.5 20.2353C8.5 21.2099 7.69411 22 6.7 22H4Z" fill="black"/>
</svg>
