<svg width="25" height="24" viewBox="0 0 25 24" fill="none" xmlns="http://www.w3.org/2000/svg">
<path d="M13.5 2H7.5C5.84315 2 4.5 3.34315 4.5 5V14.5H7.66017C8.19084 14.5 8.70174 14.7163 9.08969 15.1051L11.3344 17.3551C12.2219 18.2446 12.2219 19.7554 11.3344 20.6449L9.98247 22H17.5C19.1569 22 20.5 20.6569 20.5 19V10H17.5C15.2909 10 13.5 8.20914 13.5 6V2Z" fill="black"/>
<path d="M20.2965 8C20.1797 7.6993 20.0143 7.41716 19.8047 7.1656L16.3995 3.07945C16.1469 2.77634 15.8405 2.52989 15.5 2.34941V6C15.5 7.10457 16.3954 8 17.5 8H20.2965Z" fill="black"/>
<path d="M5.20711 16.2929C5.59763 16.6834 5.59763 17.3166 5.20711 17.7071L3.91421 19L5.20711 20.2929C5.59763 20.6834 5.59763 21.3166 5.20711 21.7071C4.81658 22.0976 4.18342 22.0976 3.79289 21.7071L1.79289 19.7071C1.60536 19.5196 1.5 19.2652 1.5 19C1.5 18.7348 1.60536 18.4804 1.79289 18.2929L3.79289 16.2929C4.18342 15.9024 4.81658 15.9024 5.20711 16.2929Z" fill="black"/>
<path d="M6.79289 17.7071C6.40237 17.3166 6.40237 16.6834 6.79289 16.2929C7.18342 15.9024 7.81658 15.9024 8.20711 16.2929L10.2071 18.2929C10.3946 18.4804 10.5 18.7348 10.5 19C10.5 19.2652 10.3946 19.5196 10.2071 19.7071L8.20711 21.7071C7.81658 22.0976 7.18342 22.0976 6.79289 21.7071C6.40237 21.3166 6.40237 20.6834 6.79289 20.2929L8.08579 19L6.79289 17.7071Z" fill="black"/>
</svg>
