<svg width="25" height="24" viewBox="0 0 25 24" fill="none" xmlns="http://www.w3.org/2000/svg">
<path fill-rule="evenodd" clip-rule="evenodd" d="M13.5 2H7.5C5.84315 2 4.5 3.34315 4.5 5V19C4.5 20.6569 5.84315 22 7.5 22H17.5C19.1569 22 20.5 20.6569 20.5 19V10H17.5C15.2909 10 13.5 8.20914 13.5 6V2ZM7.5 12C7.5 11.4477 7.94772 11 8.5 11H16.5C17.0523 11 17.5 11.4477 17.5 12C17.5 12.5523 17.0523 13 16.5 13H8.5C7.94772 13 7.5 12.5523 7.5 12ZM8.5 16C7.94772 16 7.5 16.4477 7.5 17C7.5 17.5523 7.94772 18 8.5 18H16.5C17.0523 18 17.5 17.5523 17.5 17C17.5 16.4477 17.0523 16 16.5 16H8.5Z" fill="black"/>
<path d="M20.2965 8C20.1797 7.6993 20.0143 7.41716 19.8047 7.1656L16.3995 3.07945C16.1469 2.77634 15.8405 2.52989 15.5 2.34941V6C15.5 7.10457 16.3954 8 17.5 8H20.2965Z" fill="black"/>
</svg>
