<svg width="25" height="24" viewBox="0 0 25 24" fill="none" xmlns="http://www.w3.org/2000/svg">
<path d="M13.5 2H7.5C5.84315 2 4.5 3.34315 4.5 5V19C4.5 20.6569 5.84315 22 7.5 22H9.5V18.9323C9.22862 18.7757 8.97737 18.5735 8.75777 18.3264C7.65702 17.0881 7.76856 15.1919 9.00691 14.0911L10.5069 12.7578C11.6436 11.7474 13.3564 11.7474 14.4931 12.7578L15.9931 14.0911C17.2314 15.1919 17.343 17.0881 16.2422 18.3264C16.0226 18.5735 15.7714 18.7757 15.5 18.9323V22H17.5C19.1569 22 20.5 20.6569 20.5 19V10H17.5C15.2909 10 13.5 8.20914 13.5 6V2Z" fill="black"/>
<path d="M20.2965 8C20.1797 7.6993 20.0143 7.41716 19.8047 7.1656L16.3995 3.07945C16.1469 2.77634 15.8405 2.52989 15.5 2.34941V6C15.5 7.10457 16.3954 8 17.5 8H20.2965Z" fill="black"/>
<path d="M13.1644 14.2526C12.7855 13.9158 12.2145 13.9158 11.8356 14.2526L10.3356 15.5859C9.92285 15.9528 9.88567 16.5849 10.2526 16.9977C10.5736 17.3588 11.0975 17.4325 11.5 17.1996V22C11.5 22.5523 11.9477 23 12.5 23C13.0523 23 13.5 22.5523 13.5 22V17.1996C13.9025 17.4325 14.4264 17.3588 14.7474 16.9977C15.1143 16.5849 15.0771 15.9528 14.6644 15.5859L13.1644 14.2526Z" fill="black"/>
</svg>
