<svg width="25" height="24" viewBox="0 0 25 24" fill="none" xmlns="http://www.w3.org/2000/svg">
<path d="M12.5 3C7.52944 3 3.5 7.02943 3.5 12V17.2C3.5 17.7523 3.05228 18.2 2.5 18.2C1.94772 18.2 1.5 17.7523 1.5 17.2V12C1.5 5.92486 6.42487 1 12.5 1C18.5751 1 23.5 5.92487 23.5 12V21C23.5 21.5523 23.0523 22 22.5 22C21.9477 22 21.5 21.5523 21.5 21V12C21.5 7.02944 17.4706 3 12.5 3Z" fill="black"/>
<path d="M12.5 6C10.7042 6 9.09768 6.76863 7.99932 7.98373C7.62898 8.39344 6.99662 8.42535 6.58691 8.055C6.1772 7.68466 6.14529 7.05229 6.51563 6.64258C7.9822 5.02013 10.1225 4 12.5 4C14.5222 4 16.3737 4.73829 17.7842 5.95783C19.4448 7.39355 20.5 9.50269 20.5 11.8571C20.5 11.8812 20.4992 11.905 20.4975 11.9286C20.4992 11.9522 20.5 11.976 20.5 12V12.5C20.5 16.0899 17.5899 19 14 19C10.6861 19 7.95148 16.5201 7.55059 13.3149C7.51777 13.2159 7.5 13.11 7.5 13V12C7.5 9.23858 9.73858 7 12.5 7C15.2614 7 17.5 9.23858 17.5 12V13C17.5 14.6569 16.1569 16 14.5 16C12.8431 16 11.5 14.6569 11.5 13V12C11.5 11.4477 11.9477 11 12.5 11C13.0523 11 13.5 11.4477 13.5 12V13C13.5 13.5523 13.9477 14 14.5 14C15.0523 14 15.5 13.5523 15.5 13V12C15.5 10.3431 14.1569 9 12.5 9C10.8431 9 9.5 10.3431 9.5 12V12.5C9.5 14.9853 11.5147 17 14 17C16.4853 17 18.5 14.9853 18.5 12.5V12C18.5 11.976 18.5008 11.9522 18.5025 11.9286C18.5008 11.905 18.5 11.8812 18.5 11.8571C18.5 10.1155 17.7221 8.54798 16.4762 7.47075C15.4187 6.55647 14.0284 6 12.5 6Z" fill="black"/>
<path d="M6.20751 8.86609C6.7233 9.06354 6.98136 9.64173 6.78391 10.1575C6.59623 10.6478 6.5 11.1683 6.5 11.6933V18.7143C6.5 19.2666 6.05228 19.7143 5.5 19.7143C4.94772 19.7143 4.5 19.2666 4.5 18.7143V11.6933C4.5 10.9239 4.64103 10.161 4.91609 9.44249C5.11354 8.9267 5.69173 8.66864 6.20751 8.86609Z" fill="black"/>
<path d="M18.6759 19.4608C18.9737 19.9259 18.838 20.5444 18.3729 20.8422C17.2065 21.589 15.8191 22.0218 14.3337 22.0218C13.5995 22.0218 12.8884 21.915 12.2158 21.7155C11.6863 21.5586 11.3843 21.0021 11.5412 20.4726C11.6982 19.943 12.2547 19.6411 12.7842 19.798C13.2747 19.9434 13.7944 20.0218 14.3337 20.0218C15.4256 20.0218 16.4404 19.7047 17.2945 19.1578C17.7597 18.86 18.3781 18.9957 18.6759 19.4608Z" fill="black"/>
<path d="M9.5 19C9.5 18.4477 9.05228 18 8.5 18C7.94772 18 7.5 18.4477 7.5 19V20C7.5 20.5523 7.94772 21 8.5 21C9.05228 21 9.5 20.5523 9.5 20V19Z" fill="black"/>
</svg>
