<svg width="25" height="24" viewBox="0 0 25 24" fill="none" xmlns="http://www.w3.org/2000/svg">
<path d="M6.59333 3.37325L7.13724 5.54898C7.15677 5.62709 7.16665 5.70731 7.16665 5.78783V8.33326C7.16665 10.937 9.03246 13.1049 11.5 13.573V19.6526C10.4165 18.2586 8.30788 16.9999 4.5 16.9999C5.7563 20.9259 10.1979 22.1759 12.379 22.3259C12.4182 22.3307 12.458 22.3331 12.4984 22.3332L12.5 22.3333L12.5016 22.3332C12.542 22.3331 12.5818 22.3307 12.621 22.3259C14.8021 22.1759 19.2437 20.9259 20.5 16.9999C16.6921 16.9999 14.5835 18.2586 13.5 19.6526V13.573C15.9675 13.1049 17.8333 10.937 17.8333 8.33326V5.78784C17.8333 5.70731 17.8432 5.62709 17.8627 5.54897L18.4002 3.39927C18.4406 3.23734 18.2764 3.09561 18.1212 3.15709C17.2097 3.51827 14.7989 4.37359 12.5 4.33326C10.3694 4.29588 7.79384 3.45962 6.86003 3.13091C6.70728 3.07715 6.55405 3.21614 6.59333 3.37325Z" fill="black"/>
</svg>
