<svg width="25" height="24" viewBox="0 0 25 24" fill="none" xmlns="http://www.w3.org/2000/svg">
<path d="M12.7847 7.2H18.5014C20.1582 7.2 21.5 8.54314 21.5 10.2V15.6432C20.8274 15.51 20.118 15.6086 19.5 15.9391C18.3649 15.3321 16.9217 15.5072 15.9645 16.4645C15.0072 17.4217 14.8321 18.8649 15.4391 20H6.5C4.84315 20 3.5 18.6569 3.5 17V6.56692C3.5 5.14925 4.64925 4 6.06692 4H8.61436C9.33286 4 10.4362 5.17792 11.2625 6.05999C11.5614 6.37912 11.824 6.65952 12.0191 6.8314C12.1586 6.95435 12.5987 7.2 12.7847 7.2Z" fill="black"/>
<path d="M18.7929 17.8786C18.4024 17.4881 17.7692 17.4881 17.3787 17.8786C16.9882 18.2691 16.9882 18.9023 17.3787 19.2928L18.0858 19.9999L17.3787 20.707C16.9882 21.0975 16.9882 21.7307 17.3787 22.1212C17.7692 22.5118 18.4024 22.5118 18.7929 22.1212L19.5 21.4141L20.2071 22.1212C20.5977 22.5118 21.2308 22.5118 21.6213 22.1212C22.0119 21.7307 22.0119 21.0975 21.6213 20.707L20.9142 19.9999L21.6213 19.2928C22.0119 18.9023 22.0119 18.2691 21.6213 17.8786C21.2308 17.4881 20.5977 17.4881 20.2071 17.8786L19.5 18.5857L18.7929 17.8786Z" fill="black"/>
</svg>
