<svg width="25" height="24" viewBox="0 0 25 24" fill="none" xmlns="http://www.w3.org/2000/svg">
<path d="M12.7847 7.2H18.5014C20.1582 7.2 21.5 8.54314 21.5 10.2V14.8786C20.9598 13.7666 19.8194 13 18.5 13C16.6591 13 15.1667 14.4924 15.1667 16.3333V17.4C13.7162 17.4 12.5362 18.558 12.5008 20H6.5C4.84315 20 3.5 18.6569 3.5 17V6.56692C3.5 5.14925 4.64925 4 6.06692 4H8.61436C9.33286 4 10.4362 5.17792 11.2625 6.05999C11.5614 6.37912 11.824 6.65952 12.0191 6.8314C12.1586 6.95435 12.5987 7.2 12.7847 7.2Z" fill="black"/>
<path fill-rule="evenodd" clip-rule="evenodd" d="M15.5 19.3222V21.6667C15.5 22.219 15.9477 22.6667 16.5 22.6667H21.5C22.0523 22.6667 22.5 22.219 22.5 21.6667V19.3222C22.5 18.4631 21.8036 17.7667 20.9444 17.7667V16.9444C20.9444 15.8706 20.0739 15 19 15C17.9261 15 17.0556 15.8706 17.0556 16.9444V17.7667C16.1964 17.7667 15.5 18.4631 15.5 19.3222ZM19.5 16.75C19.5 16.4739 19.2761 16.25 19 16.25C18.7239 16.25 18.5 16.4739 18.5 16.75V17.65H19.5V16.75Z" fill="black"/>
</svg>
