<svg width="25" height="24" viewBox="0 0 25 24" fill="none" xmlns="http://www.w3.org/2000/svg">
<path d="M12.7847 7.2H18.5014C20.1582 7.2 21.5 8.54314 21.5 10.2V14.9184L19.6755 14.1388C19.2422 13.9537 18.7578 13.9537 18.3245 14.1388L16.3324 14.99L15.519 15.3748C14.9081 15.6638 14.4983 16.2859 14.5 16.9924C14.5019 17.8182 14.5457 18.9646 14.7294 20H6.5C4.84315 20 3.5 18.6569 3.5 17V6.56692C3.5 5.14925 4.64925 4 6.06692 4H8.61436C9.33286 4 10.4362 5.17792 11.2625 6.05999C11.5614 6.37912 11.824 6.65952 12.0191 6.8314C12.1586 6.95435 12.5987 7.2 12.7847 7.2Z" fill="black"/>
<path d="M20.9339 16.8026L20.482 16.6L19.3753 16.1519C19.1346 16.0545 18.8654 16.0545 18.6247 16.1519L17.518 16.6L17.0661 16.8026C16.7268 16.9547 16.4991 17.2822 16.5 17.6541C16.5016 18.279 16.5511 19.2524 16.8106 19.9C17.1409 20.7247 18.019 21.3909 18.5574 21.7381C18.8291 21.9133 19.1709 21.9133 19.4426 21.7381C19.981 21.3909 20.8591 20.7247 21.1894 19.9C21.4489 19.2524 21.4984 18.279 21.5 17.6541C21.5009 17.2822 21.2732 16.9547 20.9339 16.8026Z" fill="black"/>
</svg>
