<svg width="25" height="24" viewBox="0 0 25 24" fill="none" xmlns="http://www.w3.org/2000/svg">
<path d="M12.7847 7.2H18.5014C20.1582 7.2 21.5 8.54314 21.5 10.2V12.0186C20.6845 11.9276 19.8352 12.1697 19.1736 12.7578C18.9265 12.9774 18.7243 13.2286 18.5677 13.5H17.5C15.8431 13.5 14.5 14.8431 14.5 16.5C14.5 17.2684 14.7889 17.9693 15.2639 18.5L15.2578 18.5069C14.8712 18.9418 14.6326 19.461 14.5418 20H6.5C4.84315 20 3.5 18.6569 3.5 17V6.56692C3.5 5.14925 4.64925 4 6.06692 4H8.61436C9.33286 4 10.4362 5.17792 11.2625 6.05999C11.5614 6.37912 11.824 6.65952 12.0191 6.8314C12.1586 6.95435 12.5987 7.2 12.7847 7.2Z" fill="black"/>
<path d="M23.2474 17.1644L21.9141 18.6644C21.5472 19.0771 20.9151 19.1143 20.5023 18.7474C20.1412 18.4264 20.0675 17.9025 20.3004 17.5H17.5C16.9477 17.5 16.5 17.0523 16.5 16.5C16.5 15.9477 16.9477 15.5 17.5 15.5H20.3004C20.0675 15.0975 20.1412 14.5736 20.5023 14.2526C20.9151 13.8857 21.5472 13.9229 21.9141 14.3356L23.2474 15.8356C23.5842 16.2145 23.5842 16.7855 23.2474 17.1644Z" fill="black"/>
<path d="M16.7526 21.1644C16.4158 20.7855 16.4158 20.2145 16.7526 19.8356L18.0859 18.3356C18.4528 17.9229 19.0849 17.8857 19.4977 18.2526C19.8588 18.5736 19.9325 19.0975 19.6996 19.5H22.5C23.0523 19.5 23.5 19.9477 23.5 20.5C23.5 21.0523 23.0523 21.5 22.5 21.5H19.6996C19.9325 21.9025 19.8588 22.4264 19.4977 22.7474C19.0849 23.1143 18.4528 23.0771 18.0859 22.6644L16.7526 21.1644Z" fill="black"/>
</svg>
