<svg width="25" height="24" viewBox="0 0 25 24" fill="none" xmlns="http://www.w3.org/2000/svg">
<path d="M12.7847 7.2H18.5014C20.1582 7.2 21.5 8.54314 21.5 10.2V12.3766C20.6787 11.5277 19.5276 11 18.2531 11C15.7583 11 13.7358 13.0225 13.7358 15.5173C13.7358 16.5317 14.0701 17.468 14.6346 18.222C13.9779 18.7423 13.424 19.3644 13.0097 20H6.5C4.84315 20 3.5 18.6569 3.5 17V6.56692C3.5 5.14925 4.64925 4 6.06692 4H8.61436C9.33286 4 10.4362 5.17792 11.2625 6.05999C11.5614 6.37912 11.824 6.65952 12.0191 6.8314C12.1586 6.95435 12.5987 7.2 12.7847 7.2Z" fill="black"/>
<path fill-rule="evenodd" clip-rule="evenodd" d="M15.7 16C15.7 14.3431 17.0431 13 18.7 13C20.3568 13 21.7 14.3431 21.7 16C21.7 17.0227 21.1882 17.9259 20.4068 18.4674C21.0942 18.86 21.6279 19.4432 21.9517 19.9913C22.097 20.2371 22.1968 20.5247 22.1999 20.8422C22.203 21.1637 22.1062 21.4494 21.9605 21.6841C21.6907 22.1189 21.2572 22.3786 20.9188 22.5341C20.2185 22.856 19.3248 23 18.7 23C18.0751 23 17.1815 22.856 16.4811 22.5341C16.1427 22.3786 15.7093 22.1189 15.4394 21.6841C15.2937 21.4494 15.1969 21.1637 15.2 20.8422C15.2031 20.5247 15.3029 20.2371 15.4482 19.9913C15.772 19.4432 16.3058 18.86 16.9931 18.4674C16.2117 17.9259 15.7 17.0227 15.7 16ZM18.7 15C18.1477 15 17.7 15.4477 17.7 16C17.7 16.5523 18.1477 17 18.7 17C19.2523 17 19.7 16.5523 19.7 16C19.7 15.4477 19.2523 15 18.7 15ZM18.7 20C18.2195 20 17.7097 20.3089 17.3605 20.7365C17.7476 20.9024 18.3157 21 18.7 21C19.0842 21 19.6523 20.9024 20.0394 20.7365C19.6903 20.3089 19.1804 20 18.7 20Z" fill="black"/>
</svg>
