<svg width="25" height="24" viewBox="0 0 25 24" fill="none" xmlns="http://www.w3.org/2000/svg">
<path d="M12.7847 7.2H18.5014C20.1582 7.2 21.5 8.54314 21.5 10.2V15.3411C20.9625 14.5328 20.0435 14 19 14C17.3431 14 16 15.3431 16 17V18.0677C15.7286 18.2243 15.4774 18.4265 15.2578 18.6736C14.9096 19.0652 14.6828 19.5227 14.5744 20H6.5C4.84315 20 3.5 18.6569 3.5 17V6.56692C3.5 5.14925 4.64925 4 6.06692 4H8.61436C9.33286 4 10.4362 5.17792 11.2625 6.05999C11.5614 6.37912 11.824 6.65952 12.0191 6.8314C12.1586 6.95435 12.5987 7.2 12.7847 7.2Z" fill="black"/>
<path d="M21.1644 21.4141L19.6644 22.7474C19.2855 23.0842 18.7145 23.0842 18.3356 22.7474L16.8356 21.4141C16.4229 21.0472 16.3857 20.4151 16.7526 20.0023C17.0736 19.6412 17.5975 19.5675 18 19.8004V17C18 16.4477 18.4477 16 19 16C19.5523 16 20 16.4477 20 17V19.8004C20.4025 19.5675 20.9264 19.6412 21.2474 20.0023C21.6143 20.4151 21.5771 21.0472 21.1644 21.4141Z" fill="black"/>
</svg>
