<svg width="25" height="24" viewBox="0 0 25 24" fill="none" xmlns="http://www.w3.org/2000/svg">
<path d="M12.7847 7.2H18.5014C20.1582 7.2 21.5 8.54314 21.5 10.2V15.958C20.9161 15.3647 20.1232 15 19.25 15C17.4551 15 16 16.5407 16 18.4412C16 18.601 16.0103 18.7583 16.0302 18.9124C15.536 19.1328 15.1227 19.5167 14.8508 20H6.5C4.84315 20 3.5 18.6569 3.5 17V6.56692C3.5 5.14925 4.64925 4 6.06692 4H8.61436C9.33286 4 10.4362 5.17792 11.2625 6.05999C11.5614 6.37912 11.824 6.65952 12.0191 6.8314C12.1586 6.95435 12.5987 7.2 12.7847 7.2Z" fill="black"/>
<path d="M18 22C17.1716 22 16.5 21.3416 16.5 20.5294C16.5 19.9195 16.8787 19.3963 17.4181 19.1736C17.4062 19.088 17.4 19.0006 17.4 18.9118C17.4 17.8559 18.273 17 19.35 17C20.3044 17 21.0986 17.6722 21.267 18.5599C21.9833 18.7928 22.5 19.4549 22.5 20.2353C22.5 21.2099 21.6941 22 20.7 22H18Z" fill="black"/>
</svg>
