<svg width="25" height="24" viewBox="0 0 25 24" fill="none" xmlns="http://www.w3.org/2000/svg">
<path d="M12.7847 7.2H18.5014C20.1582 7.2 21.5 8.54314 21.5 10.2V15.2084L20.9931 14.7578C19.8564 13.7474 18.1436 13.7474 17.0069 14.7578L15.5069 16.0911C14.373 17.099 14.1838 18.7739 15.0051 20H6.5C4.84315 20 3.5 18.6569 3.5 17V6.56692C3.5 5.14925 4.64925 4 6.06692 4H8.61436C9.33286 4 10.4362 5.17792 11.2625 6.05999C11.5614 6.37912 11.824 6.65952 12.0191 6.8314C12.1586 6.95435 12.5987 7.2 12.7847 7.2Z" fill="black"/>
<path d="M19.6644 16.2526C19.2855 15.9158 18.7145 15.9158 18.3356 16.2526L16.8356 17.5859C16.4229 17.9528 16.3857 18.5849 16.7526 18.9977C17.0736 19.3588 17.5975 19.4325 18 19.1996V22C18 22.5523 18.4477 23 19 23C19.5523 23 20 22.5523 20 22V19.1996C20.4025 19.4325 20.9264 19.3588 21.2474 18.9977C21.6143 18.5849 21.5771 17.9528 21.1644 17.5859L19.6644 16.2526Z" fill="black"/>
</svg>
