<svg width="25" height="24" viewBox="0 0 25 24" fill="none" xmlns="http://www.w3.org/2000/svg">
<path d="M5 4.5C5 5.53284 5.62633 6.41939 6.51989 6.80057C6.50685 6.86501 6.5 6.93171 6.5 7C6.5 8.70985 7.06663 10.4288 8.08565 11.7389C8.92274 12.8152 10.0886 13.6386 11.5 13.9068V16.208C10.617 16.5938 10 17.4748 10 18.5C10 19.8807 11.1193 21 12.5 21C13.8807 21 15 19.8807 15 18.5C15 17.4748 14.383 16.5938 13.5 16.208V13.9068C14.9114 13.6386 16.0773 12.8152 16.9144 11.7389C17.9334 10.4288 18.5 8.70985 18.5 7C18.5 6.93171 18.4931 6.86501 18.4801 6.80057C19.3737 6.4194 20 5.53284 20 4.5C20 3.11929 18.8807 2 17.5 2C16.1193 2 15 3.11929 15 4.5C15 5.53284 15.6263 6.4194 16.5199 6.80057C16.5069 6.86501 16.5 6.93171 16.5 7C16.5 8.29015 16.0666 9.57123 15.3356 10.5111C14.6131 11.4401 13.6358 12 12.5 12C11.3642 12 10.3869 11.4401 9.66435 10.5111C8.93337 9.57123 8.5 8.29015 8.5 7C8.5 6.93171 8.49315 6.86501 8.48011 6.80057C9.37367 6.41939 10 5.53284 10 4.5C10 3.11929 8.88071 2 7.5 2C6.11929 2 5 3.11929 5 4.5Z" fill="black"/>
</svg>
