<svg width="25" height="24" viewBox="0 0 25 24" fill="none" xmlns="http://www.w3.org/2000/svg">
<path fill-rule="evenodd" clip-rule="evenodd" d="M16.5001 2.99997C16.5 2.44769 16.0523 1.99999 15.5 2C14.9477 2.00001 14.5 2.44774 14.5001 3.00003C14.5001 3.17334 14.4399 3.45556 14.2885 3.66571C14.174 3.82487 13.9742 4 13.5001 4C12.9703 4 12.4656 4.10956 12.0512 4.39767C11.6185 4.69848 11.3897 5.12054 11.2985 5.53514C11.1955 6.00321 11.2612 6.47367 11.3756 6.86148C7.46829 6.46344 3.88043 9.09842 3.1064 12.9686L2.88332 14.084C2.63674 15.3169 2.85855 16.5974 3.50543 17.6755C4.68207 19.6366 7.02892 20.5632 9.22789 19.9349L10.6004 19.5428C11.842 19.188 13.1582 19.188 14.3998 19.5428L15.7723 19.9349C17.9713 20.5632 20.3181 19.6366 21.4948 17.6755C22.1417 16.5974 22.3635 15.3169 22.1169 14.084L21.8938 12.9686C21.1111 9.05489 17.4509 6.40431 13.4927 6.87607C13.479 6.76644 13.4468 6.65723 13.3945 6.55279C13.344 6.45165 13.2956 6.32292 13.2685 6.19672C13.2522 6.12063 13.2474 6.06314 13.2473 6.02354C13.2952 6.01214 13.3755 6 13.5001 6C14.626 6 15.4263 5.50847 15.9116 4.83429C16.3603 4.21111 16.5001 3.49333 16.5001 2.99997ZM8.50011 10C9.05239 10 9.50011 10.4477 9.50011 11V12H10.5001C11.0524 12 11.5001 12.4477 11.5001 13C11.5001 13.5523 11.0524 14 10.5001 14H9.50011V15C9.50011 15.5523 9.05239 16 8.50011 16C7.94782 16 7.50011 15.5523 7.50011 15V14H6.50011C5.94782 14 5.50011 13.5523 5.50011 13C5.50011 12.4477 5.94782 12 6.50011 12H7.50011V11C7.50011 10.4477 7.94782 10 8.50011 10ZM16.5001 10C17.0524 10 17.5001 10.4477 17.5001 11C17.5001 11.5523 17.0524 12 16.5001 12C15.9478 12 15.5001 11.5523 15.5001 11C15.5001 10.4477 15.9478 10 16.5001 10ZM17.5001 15C17.5001 14.4477 17.0524 14 16.5001 14C15.9478 14 15.5001 14.4477 15.5001 15C15.5001 15.5523 15.9478 16 16.5001 16C17.0524 16 17.5001 15.5523 17.5001 15ZM18.5001 12C19.0524 12 19.5001 12.4477 19.5001 13C19.5001 13.5523 19.0524 14 18.5001 14C17.9478 14 17.5001 13.5523 17.5001 13C17.5001 12.4477 17.9478 12 18.5001 12ZM15.5001 13C15.5001 12.4477 15.0524 12 14.5001 12C13.9478 12 13.5001 12.4477 13.5001 13C13.5001 13.5523 13.9478 14 14.5001 14C15.0524 14 15.5001 13.5523 15.5001 13Z" fill="black"/>
</svg>
