<svg width="25" height="24" viewBox="0 0 25 24" fill="none" xmlns="http://www.w3.org/2000/svg">
<path d="M11.5009 13.9999C11.5009 12.343 12.844 10.9999 14.5009 10.9999C16.1577 10.9999 17.5009 12.343 17.5009 13.9999C17.5009 15.6567 16.1577 16.9999 14.5009 16.9999C12.844 16.9999 11.5009 15.6567 11.5009 13.9999Z" fill="black"/>
<path fill-rule="evenodd" clip-rule="evenodd" d="M16.0028 6.58553C15.1654 5.80468 13.8363 5.80468 12.9989 6.58553C12.52 7.03205 11.8541 7.24058 11.1944 7.15064C10.0407 6.99336 8.96553 7.7463 8.76422 8.85245C8.6491 9.485 8.23756 10.0309 7.64898 10.3319C6.61972 10.8583 6.20903 12.0766 6.72073 13.0855C7.01334 13.6625 7.01334 14.3373 6.72073 14.9143C6.20903 15.9232 6.61972 17.1415 7.64898 17.6679C8.23756 17.9688 8.6491 18.5148 8.76422 19.1473C8.96553 20.2535 10.0407 21.0064 11.1944 20.8491C11.8541 20.7592 12.52 20.9677 12.9989 21.4143C13.8363 22.1951 15.1654 22.1951 16.0028 21.4143C16.4817 20.9677 17.1476 20.7592 17.8073 20.8491C18.961 21.0064 20.0362 20.2535 20.2375 19.1473C20.3526 18.5148 20.7641 17.9688 21.3527 17.6679C22.382 17.1415 22.7927 15.9232 22.281 14.9143C21.9884 14.3373 21.9884 13.6625 22.281 13.0855C22.7927 12.0766 22.382 10.8583 21.3527 10.3319C20.7641 10.0309 20.3526 9.485 20.2375 8.85245C20.0362 7.7463 18.961 6.99336 17.8073 7.15064C17.1476 7.24058 16.4817 7.03205 16.0028 6.58553ZM14.5009 8.99989C11.7394 8.99989 9.50085 11.2385 9.50085 13.9999C9.50085 16.7613 11.7394 18.9999 14.5009 18.9999C17.2623 18.9999 19.5009 16.7613 19.5009 13.9999C19.5009 11.2385 17.2623 8.99989 14.5009 8.99989Z" fill="black"/>
<path d="M4.11272 9.64963C3.95236 9.16855 3.57485 8.79105 3.09377 8.63069C2.60416 8.46748 2.60416 7.77494 3.09377 7.61174C3.57485 7.45138 3.95236 7.07388 4.11272 6.59279C4.27592 6.10318 4.96846 6.10318 5.13166 6.59279C5.29203 7.07388 5.66953 7.45138 6.15061 7.61174C6.64022 7.77494 6.64022 8.46748 6.15061 8.63069C5.66953 8.79105 5.29203 9.16855 5.13166 9.64963C4.96846 10.1392 4.27592 10.1392 4.11272 9.64963Z" fill="black"/>
<path d="M8.11272 5.64963C7.95236 5.16855 7.57485 4.79105 7.09377 4.63069C6.60416 4.46748 6.60416 3.77494 7.09377 3.61174C7.57485 3.45138 7.95236 3.07388 8.11272 2.59279C8.27592 2.10318 8.96846 2.10318 9.13166 2.59279C9.29203 3.07388 9.66953 3.45138 10.1506 3.61174C10.6402 3.77494 10.6402 4.46748 10.1506 4.63069C9.66953 4.79105 9.29203 5.16855 9.13166 5.64963C8.96846 6.13925 8.27592 6.13925 8.11272 5.64963Z" fill="black"/>
</svg>
