<svg width="25" height="24" viewBox="0 0 25 24" fill="none" xmlns="http://www.w3.org/2000/svg">
<path d="M8.33534 16.1222C8.4325 16.3399 8.13574 16.5144 7.99271 16.3237L3.48965 10.3196C3.37929 10.1725 3.50934 9.96691 3.68957 10.0036L5.69548 10.4122C5.75873 10.4251 5.81188 10.4678 5.83819 10.5267L8.33534 16.1222Z" fill="black"/>
<path d="M21.3104 10.0036C21.4906 9.96687 21.6206 10.1724 21.5103 10.3196L17.0067 16.3243C16.8637 16.515 16.5669 16.3405 16.6641 16.1228L19.1615 10.5267C19.1878 10.4678 19.241 10.4251 19.3042 10.4122L21.3104 10.0036Z" fill="black"/>
<path d="M17.9183 3.78017C17.878 3.63641 18.0037 3.50076 18.1501 3.53004L19.4376 3.78753C20.1003 3.92008 20.6513 4.37838 20.9023 5.00591L21.9376 7.59417C21.9839 7.71001 21.9141 7.83953 21.7918 7.86443L19.3938 8.35293C19.291 8.37385 19.1896 8.31191 19.1613 8.21097L17.9183 3.78017Z" fill="black"/>
<path d="M9.33934 3.1357C9.35823 3.06837 9.41331 3.01733 9.48189 3.00361C9.4939 3.00121 9.50611 3 9.51835 3H15.4816C15.4938 3 15.506 3.00121 15.518 3.0036C15.5864 3.0173 15.6414 3.06826 15.6603 3.1355L17.1095 8.30154C17.1453 8.42909 17.0494 8.55556 16.9169 8.55556H8.0828C7.95032 8.55556 7.85445 8.42909 7.89023 8.30154L9.33934 3.1357Z" fill="black"/>
<path d="M6.84956 3.53008C6.99597 3.5008 7.12167 3.63645 7.08135 3.78021L5.83843 8.21097C5.81012 8.31191 5.70867 8.37385 5.60594 8.35293L3.20804 7.86446C3.08579 7.83956 3.01593 7.71004 3.06226 7.59421L4.09758 5.00591C4.34859 4.37838 4.89956 3.92008 5.5623 3.78753L6.84956 3.53008Z" fill="black"/>
<path d="M12.6825 20.137C12.612 20.295 12.3877 20.295 12.3172 20.137L8.16683 10.8371C8.10779 10.7048 8.2046 10.5556 8.34947 10.5556H16.6502C16.7951 10.5556 16.8919 10.7048 16.8329 10.8371L12.6825 20.137Z" fill="black"/>
</svg>
