<svg width="25" height="24" viewBox="0 0 25 24" fill="none" xmlns="http://www.w3.org/2000/svg">
<path fill-rule="evenodd" clip-rule="evenodd" d="M4.5 4.99995H7.23078C7.30698 2.9314 9.92732 1.4006 11.8018 3.10465L13 4.19394L14.1982 3.10465C16.0727 1.4006 18.693 2.9314 18.7692 4.99995H20.5C21.6046 4.99995 22.5 5.89538 22.5 6.99995V8.88883C22.5 9.50248 22.0025 9.99995 21.3889 9.99995H3.61111C2.99746 9.99995 2.5 9.50248 2.5 8.88883V6.99995C2.5 5.89538 3.39543 4.99995 4.5 4.99995ZM10.9134 4.99995H9.25741C9.34147 4.4984 9.98734 4.15808 10.4564 4.58453L10.9134 4.99995ZM16.7426 4.99995C16.6585 4.4984 16.0127 4.15808 15.5436 4.58453L15.0866 4.99995H16.7426Z" fill="black"/>
<path d="M10 13.6875V11.9999H3.61108V18.9999C3.61108 20.6568 4.95423 21.9999 6.61108 21.9999H18.3889C20.0457 21.9999 21.3889 20.6568 21.3889 18.9999V11.9999H15V13.6875C15 14.6194 13.922 15.1376 13.1943 14.5554C12.7884 14.2307 12.2116 14.2307 11.8057 14.5554C11.078 15.1376 10 14.6194 10 13.6875Z" fill="black"/>
</svg>
