<svg width="25" height="24" viewBox="0 0 25 24" fill="none" xmlns="http://www.w3.org/2000/svg">
<path d="M6.03161 4.41124C5.85029 4.4262 5.67572 4.44093 5.50911 4.45524C5.6905 4.28709 5.87795 4.1254 6.0711 3.97055C6.05827 4.10993 6.04506 4.25701 6.03161 4.41124Z" fill="black"/>
<path d="M7.64177 3.31227C7.65768 3.15596 7.67193 3.02094 7.68399 2.90918C8.91244 2.2571 10.2887 1.84693 11.7494 1.7417V4.08463C10.413 4.11022 8.89995 4.19728 7.54785 4.29417C7.58231 3.91099 7.61448 3.58037 7.64177 3.31227Z" fill="black"/>
<path d="M13.2494 4.08463V1.7417C14.7101 1.84693 16.0863 2.2571 17.3147 2.90918C17.3268 3.02094 17.3411 3.15596 17.357 3.31227C17.3842 3.58037 17.4164 3.91099 17.4509 4.29417C16.0988 4.19728 14.5858 4.11022 13.2494 4.08463Z" fill="black"/>
<path d="M18.9671 4.41124C18.9537 4.25701 18.9405 4.10993 18.9276 3.97055C19.1208 4.12541 19.3082 4.28709 19.4896 4.45524C19.323 4.44093 19.1484 4.4262 18.9671 4.41124Z" fill="black"/>
<path d="M20.3653 6.03939C20.5882 6.06006 20.7754 6.07796 20.9195 6.09196C21.9599 7.57189 22.6199 9.33789 22.7575 11.2498H19.3146C19.2938 9.29527 19.1953 7.43451 19.0873 5.92645C19.5816 5.96803 20.0169 6.00709 20.3653 6.03939Z" fill="black"/>
<path d="M19.3146 12.7498H22.7575C22.6199 14.6618 21.9599 16.4278 20.9195 17.9077C20.7754 17.9217 20.5882 17.9396 20.3653 17.9603C20.0169 17.9926 19.5816 18.0316 19.0873 18.0732C19.1953 16.5652 19.2938 14.7044 19.3146 12.7498Z" fill="black"/>
<path d="M18.9671 19.5884C19.1484 19.5735 19.323 19.5588 19.4896 19.5444C19.3082 19.7126 19.1208 19.8743 18.9276 20.0291C18.9405 19.8897 18.9537 19.7427 18.9671 19.5884Z" fill="black"/>
<path d="M17.357 20.6874C17.3411 20.8437 17.3268 20.9787 17.3147 21.0905C16.0863 21.7426 14.7101 22.1528 13.2494 22.258V19.915C14.5858 19.8895 16.0988 19.8024 17.4509 19.7055C17.4164 20.0887 17.3842 20.4193 17.357 20.6874Z" fill="black"/>
<path d="M11.7494 19.915V22.258C10.2887 22.1528 8.91244 21.7426 7.68399 21.0905C7.67193 20.9787 7.65768 20.8437 7.64177 20.6874C7.61448 20.4193 7.58231 20.0887 7.54785 19.7055C8.89995 19.8024 10.413 19.8895 11.7494 19.915Z" fill="black"/>
<path d="M6.03161 19.5884C6.04506 19.7427 6.05827 19.8897 6.0711 20.0291C5.87795 19.8743 5.6905 19.7126 5.50912 19.5444C5.67572 19.5588 5.85029 19.5735 6.03161 19.5884Z" fill="black"/>
<path d="M4.63347 17.9603C4.41051 17.9396 4.22331 17.9217 4.07924 17.9077C3.03879 16.4278 2.37888 14.6618 2.24121 12.7498H5.68413C5.70498 14.7044 5.80342 16.5652 5.91138 18.0732C5.41713 18.0316 4.98179 17.9926 4.63347 17.9603Z" fill="black"/>
<path d="M5.68413 11.2498H2.24121C2.37888 9.33789 3.03879 7.57189 4.07924 6.09196C4.22331 6.07796 4.41051 6.06006 4.63347 6.03939C4.98179 6.00709 5.41713 5.96803 5.91138 5.92645C5.80342 7.43451 5.70498 9.29527 5.68413 11.2498Z" fill="black"/>
<path d="M7.18422 11.2498C7.20609 9.24083 7.31157 7.32834 7.42403 5.8071C8.81426 5.705 10.3833 5.61191 11.7494 5.5849V11.2498H7.18422Z" fill="black"/>
<path d="M13.2494 11.2498V5.5849C14.6155 5.61191 16.1845 5.705 17.5747 5.8071C17.6872 7.32834 17.7926 9.24083 17.8145 11.2498H13.2494Z" fill="black"/>
<path d="M13.2494 12.7498H17.8145C17.7926 14.7589 17.6872 16.6713 17.5747 18.1926C16.1845 18.2947 14.6155 18.3878 13.2494 18.4148V12.7498Z" fill="black"/>
<path d="M11.7494 12.7498V18.4148C10.3833 18.3878 8.81426 18.2947 7.42403 18.1926C7.31157 16.6713 7.20609 14.7589 7.18422 12.7498H11.7494Z" fill="black"/>
</svg>
