<svg width="25" height="24" viewBox="0 0 25 24" fill="none" xmlns="http://www.w3.org/2000/svg">
<path d="M5.15243 4.85851C3.35857 6.70393 2.25391 9.22283 2.25391 11.9997C2.25391 12.1443 2.2569 12.2881 2.26283 12.4312L4.1723 11.4765L5.15243 8.04598V4.85851Z" fill="black"/>
<path d="M15.342 8.48408C15.4612 8.46324 15.5781 8.53066 15.6198 8.64419L16.5877 11.2809C16.6126 11.3488 16.6069 11.4242 16.5721 11.4876L12.3902 19.0909C12.3522 19.16 12.3098 19.1891 12.2738 19.204C12.2318 19.2213 12.1765 19.2276 12.1171 19.2144C12.0577 19.2013 12.0102 19.1722 11.9795 19.1387C11.9532 19.11 11.927 19.0657 11.9217 18.987L11.6373 14.7209C11.596 14.1012 11.2293 13.5498 10.6738 13.272L8.02872 11.9495C7.8761 11.8731 7.84309 11.6697 7.96375 11.5491L10.0581 9.4547C10.0945 9.41834 10.1412 9.39408 10.1918 9.38522L15.342 8.48408Z" fill="black"/>
<path fill-rule="evenodd" clip-rule="evenodd" d="M6.65243 3.58493V8.25606L5.43331 12.523L2.45178 14.0138C3.38749 18.7082 7.5307 22.246 12.5002 22.246C14.692 22.246 16.7231 21.5578 18.3891 20.3857L18.9315 15.5041L22.742 11.6936C22.5801 6.1763 18.0567 1.75342 12.5002 1.75342C10.3264 1.75342 8.31072 2.43036 6.65243 3.58493ZM17.0279 8.12731C16.7362 7.33257 15.9174 6.86062 15.0835 7.00653L9.93328 7.90767C9.57875 7.9697 9.25197 8.13954 8.99746 8.39404L6.90309 10.4884C6.05847 11.333 6.28953 12.7569 7.3579 13.2911L10.003 14.6137C10.0824 14.6533 10.1348 14.7321 10.1407 14.8206L10.4251 19.0868C10.5414 20.8313 12.862 21.3456 13.7046 19.8137L17.8864 12.2104C18.1304 11.7668 18.1703 11.2393 17.9958 10.7641L17.0279 8.12731Z" fill="black"/>
<path d="M22.55 14.0069L20.3642 16.1927L20.0619 18.9142C21.2994 17.5616 22.1789 15.8757 22.55 14.0069Z" fill="black"/>
</svg>
