<svg width="25" height="24" viewBox="0 0 25 24" fill="none" xmlns="http://www.w3.org/2000/svg">
<path fill-rule="evenodd" clip-rule="evenodd" d="M12.5 1C13.0523 1 13.5 1.44772 13.5 2V4C13.5 4.02071 13.4994 4.04127 13.4981 4.06166C17.1184 4.51223 19.9878 7.38165 20.4383 11.0019C20.4587 11.0006 20.4793 11 20.5 11H22.5C23.0523 11 23.5 11.4477 23.5 12C23.5 12.5523 23.0523 13 22.5 13H20.5C20.4793 13 20.4587 12.9994 20.4383 12.9981C19.9878 16.6184 17.1184 19.4878 13.4981 19.9383C13.4994 19.9587 13.5 19.9793 13.5 20V22C13.5 22.5523 13.0523 23 12.5 23C11.9477 23 11.5 22.5523 11.5 22V20C11.5 19.9793 11.5006 19.9587 11.5019 19.9383C7.88165 19.4878 5.01223 16.6184 4.56166 12.9981C4.54127 12.9994 4.52071 13 4.5 13H2.5C1.94772 13 1.5 12.5523 1.5 12C1.5 11.4477 1.94772 11 2.5 11H4.5C4.52071 11 4.54127 11.0006 4.56166 11.0019C5.01223 7.38165 7.88164 4.51223 11.5019 4.06166C11.5006 4.04127 11.5 4.02071 11.5 4V2C11.5 1.44772 11.9477 1 12.5 1ZM12.5 15C14.1569 15 15.5 13.6569 15.5 12C15.5 10.3431 14.1569 9 12.5 9C10.8431 9 9.5 10.3431 9.5 12C9.5 13.6569 10.8431 15 12.5 15Z" fill="black"/>
</svg>
