<svg width="25" height="24" viewBox="0 0 25 24" fill="none" xmlns="http://www.w3.org/2000/svg">
<path d="M13.0079 2.30069C12.6941 2.11526 12.3042 2.11526 11.9904 2.30069L2.95611 7.63916C2.30109 8.02622 2.30109 8.97395 2.95612 9.36101L11.9904 14.6995C12.3042 14.8849 12.6941 14.8849 13.0079 14.6995L15.9992 12.9319V11.9999L12.3992 9.29992C11.9574 8.96855 11.8679 8.34175 12.1992 7.89992C12.5306 7.45809 13.1574 7.36855 13.5992 7.69992L17.5992 10.6999C17.851 10.8888 17.9992 11.1852 17.9992 11.4999V11.75L22.0422 9.36101C22.6972 8.97395 22.6972 8.02622 22.0422 7.63916L13.0079 2.30069Z" fill="black"/>
<path d="M12.7564 16.6633L15.9991 14.7177V15.8C15.9991 16.3523 16.4469 16.8 16.9991 16.8C17.5514 16.8 17.9991 16.3523 17.9991 15.8V13.5177L18.7419 13.072C19.0752 12.8721 19.4991 13.1121 19.4991 13.5008V19.5835C19.4991 19.7319 19.4348 19.8712 19.316 19.9601C18.6082 20.4901 15.9192 22.3177 12.4991 22.3177C9.07911 22.3177 6.39012 20.4901 5.68225 19.9601C5.56347 19.8712 5.49915 19.7319 5.49915 19.5835V13.5008C5.49915 13.1121 5.92313 12.8721 6.25639 13.072L12.2419 16.6633C12.4002 16.7583 12.5981 16.7583 12.7564 16.6633Z" fill="black"/>
</svg>
