<svg width="25" height="24" viewBox="0 0 25 24" fill="none" xmlns="http://www.w3.org/2000/svg">
<path d="M14 15V20C14 20.8284 14.6716 21.5 15.5 21.5H20.5C21.3284 21.5 22 20.8284 22 20V15C22 14.1716 21.3284 13.5 20.5 13.5H15.5C14.6716 13.5 14 14.1716 14 15Z" fill="black"/>
<path d="M3 15L3 20C3 20.8284 3.67157 21.5 4.5 21.5H9.5C10.3284 21.5 11 20.8284 11 20V15C11 14.1716 10.3284 13.5 9.5 13.5H4.5C3.67157 13.5 3 14.1716 3 15Z" fill="black"/>
<path d="M3 4L3 9C3 9.82843 3.67157 10.5 4.5 10.5H9.5C10.3284 10.5 11 9.82843 11 9V4C11 3.17157 10.3284 2.5 9.5 2.5L4.5 2.5C3.67157 2.5 3 3.17157 3 4Z" fill="black"/>
<path d="M14 4V9C14 9.82843 14.6716 10.5 15.5 10.5H20.5C21.3284 10.5 22 9.82843 22 9V4C22 3.17157 21.3284 2.5 20.5 2.5L15.5 2.5C14.6716 2.5 14 3.17157 14 4Z" fill="black"/>
<path d="M14 15V20C14 20.8284 14.6716 21.5 15.5 21.5H20.5C21.3284 21.5 22 20.8284 22 20V15C22 14.1716 21.3284 13.5 20.5 13.5H15.5C14.6716 13.5 14 14.1716 14 15Z" fill="black"/>
<path d="M3 15L3 20C3 20.8284 3.67157 21.5 4.5 21.5H9.5C10.3284 21.5 11 20.8284 11 20V15C11 14.1716 10.3284 13.5 9.5 13.5H4.5C3.67157 13.5 3 14.1716 3 15Z" fill="black"/>
<path d="M3 4L3 9C3 9.82843 3.67157 10.5 4.5 10.5H9.5C10.3284 10.5 11 9.82843 11 9V4C11 3.17157 10.3284 2.5 9.5 2.5L4.5 2.5C3.67157 2.5 3 3.17157 3 4Z" fill="black"/>
<path d="M14 4V9C14 9.82843 14.6716 10.5 15.5 10.5H20.5C21.3284 10.5 22 9.82843 22 9V4C22 3.17157 21.3284 2.5 20.5 2.5L15.5 2.5C14.6716 2.5 14 3.17157 14 4Z" fill="black"/>
</svg>
