<svg width="25" height="24" viewBox="0 0 25 24" fill="none" xmlns="http://www.w3.org/2000/svg">
<path d="M14.5 14.5V19.5C14.5 20.3284 15.1716 21 16 21H20C20.8284 21 21.5 20.3284 21.5 19.5V14.5C21.5 13.6716 20.8284 13 20 13H16C15.1716 13 14.5 13.6716 14.5 14.5Z" fill="black"/>
<path d="M3.5 14.5L3.5 19.5C3.5 20.3284 4.17157 21 5 21H9C9.82843 21 10.5 20.3284 10.5 19.5V14.5C10.5 13.6716 9.82843 13 9 13H5C4.17157 13 3.5 13.6716 3.5 14.5Z" fill="black"/>
<path d="M3.5 4.5L3.5 8.5C3.5 9.32843 4.17157 10 5 10L20 10C20.8284 10 21.5 9.32843 21.5 8.5V4.5C21.5 3.67157 20.8284 3 20 3L5 3C4.17157 3 3.5 3.67157 3.5 4.5Z" fill="black"/>
</svg>
