<svg width="25" height="24" viewBox="0 0 25 24" fill="none" xmlns="http://www.w3.org/2000/svg">
<path d="M12.5 3C6.97715 3 2.5 7.47715 2.5 13V18C2.5 18.5523 2.94772 19 3.5 19C3.53722 19 3.57396 18.998 3.61012 18.994C3.84236 19.5831 4.41661 20 5.08824 20C5.96539 20 6.67647 19.2889 6.67647 18.4118V16.2507C6.67647 14.9559 5.43695 14.4146 4.5 14.7484V13C4.5 8.58172 8.08172 5 12.5 5C16.9183 5 20.5 8.58172 20.5 13V14.7379C19.5636 14.4038 18.3235 14.9429 18.3235 16.2389V18.4118C18.3235 19.2889 19.0346 20 19.9118 20C20.5834 20 21.1577 19.5831 21.3899 18.994C21.4261 18.998 21.4628 19 21.5 19C22.0523 19 22.5 18.5523 22.5 18V13C22.5 7.47715 18.0228 3 12.5 3Z" fill="black"/>
</svg>
