<svg width="25" height="24" viewBox="0 0 25 24" fill="none" xmlns="http://www.w3.org/2000/svg">
<path d="M14.5 3H10.5C9.94772 3 9.5 3.44772 9.5 4V8C9.5 8.55228 9.05228 9 8.5 9H4.5C3.94772 9 3.5 9.44772 3.5 10V14C3.5 14.5523 3.94772 15 4.5 15H8.5C9.05228 15 9.5 15.4477 9.5 16V20C9.5 20.5523 9.94772 21 10.5 21H14.5C15.0523 21 15.5 20.5523 15.5 20V16C15.5 15.4477 15.9477 15 16.5 15H20.5C21.0523 15 21.5 14.5523 21.5 14V10C21.5 9.44772 21.0523 9 20.5 9H16.5C15.9477 9 15.5 8.55228 15.5 8V4C15.5 3.44772 15.0523 3 14.5 3Z" fill="black"/>
</svg>
