<svg width="24" height="24" viewBox="0 0 24 24" fill="none" xmlns="http://www.w3.org/2000/svg">
  <path
    d="M16.5492 1.45061C16.9641 1.68843 17.1139 2.21341 16.8872 2.6344L16.7503 2.88874L12.1769 11.3809H13.6021C13.913 11.3809 14.201 11.5507 14.3586 11.827L14.3609 11.8305L14.4122 11.9364C14.4222 11.9606 14.431 11.9851 14.4388 12.0099C14.4828 12.1499 14.4926 12.2983 14.4685 12.4423C14.4584 12.5027 14.4423 12.5623 14.4202 12.6202L14.3712 12.7284L10.487 20.0718L9.95874 21.0707C9.76637 21.4343 9.35719 21.607 8.97678 21.5176L8.97551 21.5172C8.96909 21.5157 8.96267 21.5141 8.95626 21.5125C8.88212 21.4931 8.80924 21.4637 8.73946 21.4237C8.32711 21.1873 8.176 20.6669 8.39761 20.2464L9.02343 19.059L12.1175 13.1886H10.6923C10.4419 13.1886 10.2062 13.0786 10.0417 12.8914C10.0275 12.8753 10.0139 12.8586 10.0008 12.8414L9.93576 12.7426L9.93348 12.739C9.77639 12.4632 9.77204 12.1217 9.92321 11.8411L14.5467 3.25842L15.3336 1.7976C15.5691 1.36056 16.1186 1.2037 16.5492 1.45061Z"
    fill="currentColor" />
  <path fill-rule="evenodd" clip-rule="evenodd"
    d="M12.0009 5.00011C12.0009 5.00011 12.3308 4.61522 12.9177 4.17364L9.04271 11.3668C8.72815 11.9507 8.73658 12.6587 9.0642 13.234L9.07885 13.2584L9.09349 13.2818L9.09642 13.2857L9.10033 13.2925L9.16576 13.3912L9.18431 13.4195L9.20385 13.4459C9.5079 13.8466 9.96247 14.1128 10.4675 14.1744L8.21491 18.4487C5.65864 16.4557 2.65313 13.4809 2.10205 10.2019C1.61805 7.32205 2.42254 4.78927 5.00089 3.50011C9.00092 1.50011 12.0009 5.00011 12.0009 5.00011ZM14.5467 3.25842L9.92321 11.8411C9.77204 12.1217 9.77639 12.4632 9.93348 12.739L9.93576 12.7426L10.0008 12.8414C10.0139 12.8586 10.0275 12.8753 10.0417 12.8914C10.2062 13.0786 10.4419 13.1886 10.6923 13.1886H12.1175L9.02343 19.059C9.55888 19.4505 10.0572 19.7905 10.487 20.0718L14.3712 12.7284L14.4202 12.6202C14.4423 12.5623 14.4584 12.5027 14.4685 12.4423C14.4922 12.3014 14.4836 12.1562 14.4421 12.0191L14.4388 12.0099C14.431 11.9851 14.4222 11.9606 14.4122 11.9364L14.3609 11.8305L14.3586 11.827C14.201 11.5507 13.913 11.3809 13.6021 11.3809H12.1769L16.7503 2.88874C15.932 2.84939 15.1891 3.01019 14.5467 3.25842ZM17.7971 3.0469L17.7673 3.10895L13.8425 10.3961C14.4067 10.4697 14.9028 10.8005 15.198 11.2847L15.2009 11.2877L15.2341 11.3394L15.2605 11.3941L15.3122 11.5006L15.3259 11.5279L15.3376 11.5572C15.524 12.0117 15.5284 12.5207 15.3542 12.9771L15.3435 13.0054L15.3308 13.0328L15.282 13.1412L15.2693 13.1685L15.2556 13.1959L11.3473 20.5844C11.8673 20.7923 12.454 20.7435 12.9427 20.4379C15.2602 18.9888 21.1086 14.9088 21.8996 10.2019C22.3836 7.32205 21.5791 4.78927 19.0008 3.50011C18.5882 3.29381 18.1862 3.14604 17.7971 3.0469ZM8.97678 21.5176C9.35719 21.607 9.76637 21.4343 9.95874 21.0707L9.91088 21.15C9.70375 21.4592 9.32728 21.6005 8.97551 21.5172L8.97678 21.5176Z"
    fill="currentColor" />
</svg>