<svg width="25" height="24" viewBox="0 0 25 24" fill="none" xmlns="http://www.w3.org/2000/svg">
<path d="M6.29934 3C6.29934 2.44772 5.85163 2 5.29934 2C4.74706 2 4.29934 2.44772 4.29934 3V6.6C4.29934 7.15228 4.74706 7.6 5.29934 7.6H8.9C9.45228 7.6 9.9 7.15228 9.9 6.6C9.9 6.04772 9.45228 5.6 8.9 5.6H7.69897C9.03664 4.59477 10.6988 4 12.5 4C16.9183 4 20.5 7.58172 20.5 12C20.5 16.4183 16.9183 20 12.5 20C8.08172 20 4.5 16.4183 4.5 12C4.5 11.4477 4.05228 11 3.5 11C2.94772 11 2.5 11.4477 2.5 12C2.5 17.5228 6.97715 22 12.5 22C18.0228 22 22.5 17.5228 22.5 12C22.5 6.47715 18.0228 2 12.5 2C10.1575 2 8.00317 2.80596 6.29934 4.15416V3Z" fill="black"/>
<path d="M12.5 8.5C12.5 7.94772 12.0523 7.5 11.5 7.5C10.9477 7.5 10.5 7.94772 10.5 8.5V13.5C10.5 14.0523 10.9477 14.5 11.5 14.5H14.5C15.0523 14.5 15.5 14.0523 15.5 13.5C15.5 12.9477 15.0523 12.5 14.5 12.5H12.5V8.5Z" fill="black"/>
</svg>
