<svg width="24" height="24" viewBox="0 0 24 24" fill="none" xmlns="http://www.w3.org/2000/svg">
<path d="M10.2803 3.20417L3.40269 8.01847C2.53372 8.62675 2.05056 9.64868 2.13191 10.7063L2.83693 19.8715C2.92557 21.0239 3.96971 21.8615 5.11388 21.698L8.28349 21.2452C9.26879 21.1044 10.0006 20.2606 10.0006 19.2653V17.9999C10.0006 16.8953 10.8961 15.9999 12.0006 15.9999C13.1052 15.9999 14.0006 16.8953 14.0006 17.9999V19.2653C14.0006 20.2606 14.7325 21.1044 15.7178 21.2452L18.8874 21.698C20.0316 21.8615 21.0757 21.0239 21.1644 19.8715L21.8694 10.7063C21.9507 9.64868 21.4676 8.62675 20.5986 8.01847L13.721 3.20417C12.6881 2.4811 11.3132 2.4811 10.2803 3.20417Z" fill="black"/>
</svg>
