<svg width="25" height="24" viewBox="0 0 25 24" fill="none" xmlns="http://www.w3.org/2000/svg">
<path d="M3.5 7C3.5 5.89543 4.39543 5 5.5 5H16.5C17.0523 5 17.5 4.55228 17.5 4C17.5 3.44772 17.0523 3 16.5 3H5.5C3.29086 3 1.5 4.79086 1.5 7V18C1.5 20.2091 3.29086 22 5.5 22H19.5C21.7091 22 23.5 20.2091 23.5 18V10C23.5 9.44772 23.0523 9 22.5 9C21.9477 9 21.5 9.44772 21.5 10V16.25L17.063 10.7037C15.7946 9.11822 13.3505 9.22428 12.2242 10.9137L10.5 13.5L9.83852 12.9836C8.92035 12.4335 7.73186 12.7038 7.1419 13.5969L4.33125 17.8515C4.11519 18.1786 4 18.5619 4 18.9539V19C4 19.1223 4.01098 19.2421 4.03201 19.3583C3.70181 19.0016 3.5 18.5244 3.5 18V7Z" fill="black"/>
<path d="M5.68301 8.79827C6.16409 8.95863 6.54159 9.33614 6.70195 9.81722C6.86516 10.3068 7.5577 10.3068 7.7209 9.81722C7.88126 9.33614 8.25876 8.95863 8.73985 8.79827C9.22946 8.63507 9.22946 7.94253 8.73985 7.77933C8.25876 7.61897 7.88126 7.24146 7.7209 6.76038C7.5577 6.27077 6.86516 6.27077 6.70195 6.76038C6.54159 7.24146 6.16409 7.61897 5.68301 7.77933C5.19339 7.94253 5.19339 8.63507 5.68301 8.79827Z" fill="black"/>
<path d="M22.7426 5.82843L23.4497 5.12132C23.8402 4.7308 23.8402 4.09763 23.4497 3.70711C23.0592 3.31658 22.426 3.31658 22.0355 3.70711L21.3284 4.41421L20.6213 3.70711C20.2307 3.31658 19.5976 3.31658 19.207 3.70711C18.8165 4.09763 18.8165 4.7308 19.207 5.12132L19.9142 5.82843L19.207 6.53553C18.8165 6.92606 18.8165 7.55922 19.207 7.94975C19.5976 8.34027 20.2307 8.34027 20.6213 7.94975L21.3284 7.24264L22.0355 7.94975C22.426 8.34027 23.0592 8.34027 23.4497 7.94975C23.8402 7.55922 23.8402 6.92606 23.4497 6.53553L22.7426 5.82843Z" fill="black"/>
</svg>
