<svg width="25" height="24" viewBox="0 0 25 24" fill="none" xmlns="http://www.w3.org/2000/svg">
<path d="M23.1961 4.20711C23.5866 3.81658 23.5866 3.18342 23.1961 2.79289C22.8056 2.40237 22.1724 2.40237 21.7819 2.79289L19.8431 4.73163L19.5613 4.44974C19.1707 4.05922 18.5376 4.05922 18.147 4.44974C17.7565 4.84027 17.7565 5.47343 18.147 5.86395L19.136 6.85295C19.5266 7.24347 20.1597 7.24347 20.5503 6.85295L23.1961 4.20711Z" fill="black"/>
<path d="M3.5 7.00002C3.5 5.89545 4.39543 5.00002 5.5 5.00002H16.5C17.0523 5.00002 17.5 4.5523 17.5 4.00002C17.5 3.44773 17.0523 3.00002 16.5 3.00002H5.5C3.29086 3.00002 1.5 4.79088 1.5 7.00002V18C1.5 20.2092 3.29086 22 5.5 22H19.5C21.7091 22 23.5 20.2092 23.5 18V10C23.5 9.44773 23.0523 9.00002 22.5 9.00002C21.9477 9.00002 21.5 9.44773 21.5 10V16.25L17.063 10.7037C15.7946 9.11823 13.3505 9.2243 12.2242 10.9137L10.5 13.5L9.83852 12.9836C8.92035 12.4335 7.73186 12.7038 7.1419 13.5969L4.33125 17.8515C4.11519 18.1786 4 18.5619 4 18.9539V19C4 19.1223 4.01098 19.2421 4.03201 19.3583C3.70181 19.0017 3.5 18.5244 3.5 18V7.00002Z" fill="black"/>
<path d="M5.68301 8.79829C6.16409 8.95865 6.54159 9.33615 6.70195 9.81724C6.86516 10.3068 7.5577 10.3068 7.7209 9.81724C7.88126 9.33615 8.25876 8.95865 8.73985 8.79829C9.22946 8.63509 9.22946 7.94255 8.73985 7.77934C8.25876 7.61898 7.88126 7.24148 7.7209 6.7604C7.5577 6.27078 6.86516 6.27079 6.70195 6.7604C6.54159 7.24148 6.16409 7.61898 5.68301 7.77934C5.19339 7.94255 5.19339 8.63509 5.68301 8.79829Z" fill="black"/>
</svg>
