<svg width="25" height="24" viewBox="0 0 25 24" fill="none" xmlns="http://www.w3.org/2000/svg">
<path d="M6.68301 8.79827C7.16409 8.95863 7.54159 9.33614 7.70195 9.81722C7.86516 10.3068 8.5577 10.3068 8.7209 9.81722C8.88126 9.33614 9.25876 8.95863 9.73985 8.79827C10.2295 8.63507 10.2295 7.94253 9.73985 7.77933C9.25876 7.61897 8.88126 7.24146 8.7209 6.76038C8.5577 6.27077 7.86516 6.27077 7.70195 6.76038C7.54159 7.24146 7.16409 7.61897 6.68301 7.77933C6.19339 7.94253 6.19339 8.63507 6.68301 8.79827Z" fill="black"/>
<path fill-rule="evenodd" clip-rule="evenodd" d="M1.5 12C1.5 5.92487 6.42487 1 12.5 1C18.5751 1 23.5 5.92487 23.5 12C23.5 18.0751 18.5751 23 12.5 23C6.42487 23 1.5 18.0751 1.5 12ZM12.5 3C7.52944 3 3.5 7.02944 3.5 12C3.5 14.9396 4.90931 17.55 7.08914 19.1925L9.68595 15.6405C10.2501 14.7248 11.4375 14.4193 12.3736 14.949L13.1387 15.3602L13.7912 12.7167C14.1382 11.3867 15.6922 10.795 16.8359 11.5574L21.2005 14.3111C21.3959 13.5736 21.5 12.799 21.5 12C21.5 7.02944 17.4706 3 12.5 3Z" fill="black"/>
</svg>
