<svg width="25" height="24" viewBox="0 0 25 24" fill="none" xmlns="http://www.w3.org/2000/svg">
<path d="M5.68288 8.79827C6.16396 8.95863 6.54147 9.33614 6.70183 9.81722C6.86503 10.3068 7.55757 10.3068 7.72078 9.81722C7.88114 9.33614 8.25864 8.95863 8.73972 8.79827C9.22933 8.63507 9.22933 7.94253 8.73972 7.77933C8.25864 7.61897 7.88114 7.24146 7.72078 6.76038C7.55757 6.27077 6.86503 6.27077 6.70183 6.76038C6.54147 7.24146 6.16396 7.61897 5.68288 7.77933C5.19327 7.94253 5.19327 8.63507 5.68288 8.79827Z" fill="black"/>
<path fill-rule="evenodd" clip-rule="evenodd" d="M5.5 2C3.29086 2 1.5 3.79086 1.5 6V18C1.5 20.2091 3.29086 22 5.5 22H19.5C21.7091 22 23.5 20.2091 23.5 18V6C23.5 3.79086 21.7091 2 19.5 2H5.5ZM3.5 6C3.5 4.89543 4.39543 4 5.5 4H19.5C20.6046 4 21.5 4.89543 21.5 6V15L17.1267 12.0845C16.2224 11.4816 15.0021 11.7113 14.3788 12.6016L13.6173 13.6895L13 13.3032L12.2788 12.8951C11.3817 12.3875 10.2457 12.6448 9.65496 13.4895L6.84327 17.5092C6.61983 17.8287 6.5 18.2091 6.5 18.5989C6.5 19.1534 6.73741 19.6525 7.11614 20H5.5C4.39543 20 3.5 19.1046 3.5 18V6Z" fill="black"/>
</svg>
