<svg width="25" height="24" viewBox="0 0 25 24" fill="none" xmlns="http://www.w3.org/2000/svg">
<path fill-rule="evenodd" clip-rule="evenodd" d="M5.15836 19.1663L4.96137 18.1254C4.7569 17.0449 5.32376 15.9249 6.33537 15.4107L6.41977 15.3678C6.96611 15.0901 7.38699 14.6069 7.5849 14.0303C7.81962 13.3465 8.3651 12.801 9.04897 12.5663L10.2833 12.1426C10.7201 11.9927 11.1202 11.7423 11.4502 11.4122L12.7975 10.065C13.3131 9.54929 13.5456 8.82082 13.4149 8.1302C13.0287 6.08926 14.5397 4.07639 16.6361 3.83932L17.1108 3.78564C19.6164 3.50228 21.613 5.60919 21.2029 8.10392L21.1309 8.54176C20.8062 10.5168 18.9356 11.9265 16.9815 11.6688C16.3113 11.5804 15.6222 11.8207 15.1276 12.3153L7.61235 19.8306C7.02385 20.4191 6.09435 20.4437 5.53626 19.8856C5.34161 19.691 5.21039 19.4412 5.15836 19.1663ZM18.0563 6.94977C18.4468 7.34029 18.4468 7.97345 18.0563 8.36398C17.6657 8.7545 17.0326 8.7545 16.6421 8.36398C16.2515 7.97345 16.2515 7.34029 16.6421 6.94977C17.0326 6.55924 17.6657 6.55924 18.0563 6.94977Z" fill="black"/>
</svg>
