<svg width="25" height="24" viewBox="0 0 25 24" fill="none" xmlns="http://www.w3.org/2000/svg">
<path fill-rule="evenodd" clip-rule="evenodd" d="M16.4999 4.49997C16.4999 3.94769 16.0522 3.49999 15.4999 3.5C14.9476 3.50001 14.4999 3.94774 14.4999 4.50003C14.4999 4.67334 14.4397 4.95556 14.2884 5.16571C14.1738 5.32487 13.9741 5.5 13.5 5.5C12.9702 5.5 12.4655 5.60956 12.0511 5.89767C11.6184 6.19848 11.3896 6.62054 11.2983 7.03514C11.1828 7.56049 11.2797 8.08887 11.4194 8.5H6.5C4.84315 8.5 3.5 9.84315 3.5 11.5V16.5C3.5 18.1569 4.84315 19.5 6.5 19.5H18.5C20.1569 19.5 21.5 18.1569 21.5 16.5V11.5C21.5 9.84315 20.1569 8.5 18.5 8.5H13.5002C13.5003 8.34946 13.4663 8.1966 13.3944 8.05279C13.3439 7.95165 13.2955 7.82292 13.2684 7.69672C13.2521 7.62063 13.2473 7.56314 13.2471 7.52354C13.2951 7.51214 13.3754 7.5 13.5 7.5C14.6259 7.5 15.4261 7.00847 15.9115 6.33429C16.3602 5.71111 16.5 4.99333 16.4999 4.49997ZM6.5 11C5.94772 11 5.5 11.4477 5.5 12C5.5 12.5523 5.94772 13 6.5 13H8.5C9.05228 13 9.5 12.5523 9.5 12C9.5 11.4477 9.05228 11 8.5 11H6.5ZM10.5 12C10.5 11.4477 10.9477 11 11.5 11H13.5C14.0523 11 14.5 11.4477 14.5 12C14.5 12.5523 14.0523 13 13.5 13H11.5C10.9477 13 10.5 12.5523 10.5 12ZM16.5 11C15.9477 11 15.5 11.4477 15.5 12C15.5 12.5523 15.9477 13 16.5 13H18.5C19.0523 13 19.5 12.5523 19.5 12C19.5 11.4477 19.0523 11 18.5 11H16.5ZM19.5 16C19.5 16.5523 19.0523 17 18.5 17H17.5C16.9477 17 16.5 16.5523 16.5 16C16.5 15.4477 16.9477 15 17.5 15H18.5C19.0523 15 19.5 15.4477 19.5 16ZM7.5 17C8.05228 17 8.5 16.5523 8.5 16C8.5 15.4477 8.05228 15 7.5 15H6.5C5.94772 15 5.5 15.4477 5.5 16C5.5 16.5523 5.94772 17 6.5 17H7.5ZM9.5 16C9.5 15.4477 9.94772 15 10.5 15H15C15.5523 15 16 15.4477 16 16C16 16.5523 15.5523 17 15 17H10.5C9.94772 17 9.5 16.5523 9.5 16Z" fill="black"/>
</svg>
