<svg width="25" height="24" viewBox="0 0 25 24" fill="none" xmlns="http://www.w3.org/2000/svg">
<path d="M5.40955 3.9005L4.60955 11.9005C4.55068 12.4892 5.01297 13 5.60459 13H11.4996V20H8.4996C7.94732 20 7.4996 20.4477 7.4996 21C7.4996 21.5523 7.94732 22 8.4996 22H16.4996C17.0519 22 17.4996 21.5523 17.4996 21C17.4996 20.4477 17.0519 20 16.4996 20H13.4996V13H19.3946C19.9862 13 20.4485 12.4892 20.3897 11.9005L19.5897 3.9005C19.5385 3.3893 19.1084 3 18.5946 3H6.40459C5.89084 3 5.46067 3.38929 5.40955 3.9005Z" fill="black"/>
</svg>
