<svg width="25" height="24" viewBox="0 0 25 24" fill="none" xmlns="http://www.w3.org/2000/svg">
<path d="M2.79202 7.53005L12.3289 4.06209C12.4393 4.02195 12.5603 4.02195 12.6707 4.06209L22.2076 7.53005C22.6464 7.68963 22.6464 8.31027 22.2076 8.46985L12.6707 11.9378C12.5603 11.978 12.4393 11.978 12.3289 11.9378L2.79202 8.46985C2.35318 8.31027 2.35318 7.68963 2.79202 7.53005Z" fill="black"/>
<path d="M7.09014 10.9671L2.79202 12.53C2.35318 12.6896 2.35318 13.3102 2.79202 13.4698L12.3289 16.9378C12.4393 16.9779 12.5603 16.9779 12.6707 16.9378L22.2076 13.4698C22.6464 13.3102 22.6464 12.6896 22.2076 12.53L17.9094 10.967L12.704 12.962C12.5721 13.0126 12.4274 13.0126 12.2955 12.962L7.09014 10.9671Z" fill="black"/>
<path d="M2.79202 16.53L5.7514 15.4539L12.2955 17.9619C12.4274 18.0125 12.5721 18.0125 12.704 17.9619L19.2482 15.4539L22.2076 16.53C22.6464 16.6896 22.6464 17.3102 22.2076 17.4698L12.6707 20.9378C12.5603 20.9779 12.4393 20.9779 12.3289 20.9378L2.79202 17.4698C2.35318 17.3102 2.35318 16.6896 2.79202 16.53Z" fill="black"/>
</svg>
