<svg width="25" height="24" viewBox="0 0 25 24" fill="none" xmlns="http://www.w3.org/2000/svg">
<path d="M12.4999 9.05566C12.4999 9.0917 12.5037 9.12685 12.511 9.16073L7.22883 14.4429C6.89016 14.4156 6.67215 14.0586 6.81399 13.7408L11.5433 3.14358C11.7632 2.65081 12.4999 2.80774 12.4999 3.34735V9.05566Z" fill="black"/>
<path d="M12.4889 14.8397L17.7712 9.55735C18.1098 9.5848 18.3277 9.94165 18.1858 10.2594L13.4565 20.8566C13.2366 21.3494 12.4999 21.1925 12.4999 20.6529V14.9445C12.4999 14.9086 12.4961 14.8735 12.4889 14.8397Z" fill="black"/>
<path d="M21.2071 4.70723C21.5976 4.3167 21.5976 3.68354 21.2071 3.29302C20.8166 2.90249 20.1834 2.90249 19.7929 3.29302L3.79289 19.293C3.40237 19.6835 3.40237 20.3167 3.79289 20.7072C4.18342 21.0978 4.81658 21.0978 5.20711 20.7072L21.2071 4.70723Z" fill="black"/>
</svg>
