<svg width="25" height="24" viewBox="0 0 25 24" fill="none" xmlns="http://www.w3.org/2000/svg">
<path d="M8.88028 8.30376L13.9954 3.87066C14.6046 3.34608 15.4688 3.2373 16.189 3.59453L16.2014 3.60067L16.2188 3.60943C17.1987 4.10463 17.5962 5.2971 17.1094 6.28115L16.3416 7.81672C15.7913 8.91742 15.5161 9.46777 15.699 9.89417C15.7381 9.98526 15.7905 10.07 15.8545 10.1457C16.1541 10.5 16.7694 10.5 18 10.5H18.1305C19.8895 10.5 20.769 10.5 21.3399 11.0152C21.3907 11.061 21.439 11.1093 21.4848 11.1601C22 11.731 22 12.6105 22 14.3695V15.6849C22 16.5783 22 17.025 21.8213 17.4189C21.6425 17.8128 21.3064 18.1069 20.634 18.6952L19.1311 20.0103C18.5718 20.4997 18.2921 20.7444 17.952 20.8722C17.6119 21 17.2403 21 16.4971 21H12.6472C12.0774 21 11.7925 21 11.5222 20.9225C11.252 20.845 11.0104 20.694 10.5272 20.392L9.38 19.675C8.46095 19.1006 8.00143 18.8134 7.75072 18.361C7.5 17.9087 7.5 17.3668 7.5 16.283V18.5C7.5 19.3284 6.82843 20 6 20H5C3.89543 20 3 19.1046 3 18V10C3 8.89543 3.89543 8 5 8H6C6.82843 8 7.5 8.67157 7.5 9.5V11.3265C7.5 10.4277 7.5 9.97823 7.6807 9.58251C7.8614 9.18679 8.20102 8.89245 8.88028 8.30376Z" fill="black"/>
</svg>
