<svg width="25" height="24" viewBox="0 0 25 24" fill="none" xmlns="http://www.w3.org/2000/svg">
<path d="M2.5 4.5C2.5 3.94772 2.94772 3.5 3.5 3.5H21.5C22.0523 3.5 22.5 3.94772 22.5 4.5C22.5 5.05228 22.0523 5.5 21.5 5.5H3.5C2.94772 5.5 2.5 5.05228 2.5 4.5Z" fill="black"/>
<path d="M2.5 9.5C2.5 8.94772 2.94772 8.5 3.5 8.5H19.5C20.0523 8.5 20.5 8.94772 20.5 9.5C20.5 10.0523 20.0523 10.5 19.5 10.5H3.5C2.94772 10.5 2.5 10.0523 2.5 9.5Z" fill="black"/>
<path d="M3.5 13.5C2.94772 13.5 2.5 13.9477 2.5 14.5C2.5 15.0523 2.94772 15.5 3.5 15.5H17.5C18.0523 15.5 18.5 15.0523 18.5 14.5C18.5 13.9477 18.0523 13.5 17.5 13.5H3.5Z" fill="black"/>
<path d="M2.5 19.5C2.5 18.9477 2.94772 18.5 3.5 18.5H15.5C16.0523 18.5 16.5 18.9477 16.5 19.5C16.5 20.0523 16.0523 20.5 15.5 20.5H3.5C2.94772 20.5 2.5 20.0523 2.5 19.5Z" fill="black"/>
<path d="M21.5 17.5C21.5 16.9477 21.0523 16.5 20.5 16.5C19.9477 16.5 19.5 16.9477 19.5 17.5V18.5H18.5C17.9477 18.5 17.5 18.9477 17.5 19.5C17.5 20.0523 17.9477 20.5 18.5 20.5H19.5V21.5C19.5 22.0523 19.9477 22.5 20.5 22.5C21.0523 22.5 21.5 22.0523 21.5 21.5V20.5H22.5C23.0523 20.5 23.5 20.0523 23.5 19.5C23.5 18.9477 23.0523 18.5 22.5 18.5H21.5V17.5Z" fill="black"/>
</svg>
