<svg width="25" height="24" viewBox="0 0 25 24" fill="none" xmlns="http://www.w3.org/2000/svg">
<path fill-rule="evenodd" clip-rule="evenodd" d="M6.5 10V7C6.5 3.68629 9.18629 1 12.5 1C15.8137 1 18.5 3.68629 18.5 7V10C20.1569 10 21.5 11.3431 21.5 13V19C21.5 20.6569 20.1569 22 18.5 22H6.5C4.84315 22 3.5 20.6569 3.5 19V13C3.5 11.3431 4.84315 10 6.5 10ZM8.5 7C8.5 4.79086 10.2909 3 12.5 3C14.7091 3 16.5 4.79086 16.5 7V10H8.5V7ZM12.5 14C13.0523 14 13.5 14.4477 13.5 15V17C13.5 17.5523 13.0523 18 12.5 18C11.9477 18 11.5 17.5523 11.5 17V15C11.5 14.4477 11.9477 14 12.5 14Z" fill="black"/>
</svg>
