<svg width="25" height="24" viewBox="0 0 25 24" fill="none" xmlns="http://www.w3.org/2000/svg">
<path fill-rule="evenodd" clip-rule="evenodd" d="M8.5 6.75C8.5 4.67893 10.1789 3 12.25 3C14.3211 3 16 4.67893 16 6.75V7.5C16 8.05228 16.4477 8.5 17 8.5C17.5523 8.5 18 8.05228 18 7.5V6.75C18 3.57436 15.4256 1 12.25 1C9.07436 1 6.5 3.57436 6.5 6.75V10C4.84315 10 3.5 11.3431 3.5 13V19C3.5 20.6569 4.84315 22 6.5 22H18.5C20.1569 22 21.5 20.6569 21.5 19V13C21.5 11.3431 20.1569 10 18.5 10H8.5V6.75ZM12.5 14C13.0523 14 13.5 14.4477 13.5 15V17C13.5 17.5523 13.0523 18 12.5 18C11.9477 18 11.5 17.5523 11.5 17V15C11.5 14.4477 11.9477 14 12.5 14Z" fill="black"/>
</svg>
