<svg width="25" height="24" viewBox="0 0 25 24" fill="none" xmlns="http://www.w3.org/2000/svg">
<path d="M21.3286 2.95969C21.6548 2.84066 22 3.08217 22 3.42939V15.5706C22 15.9178 21.6548 16.1593 21.3286 16.0403L14.2308 13.4502V5.54977L21.3286 2.95969Z" fill="black"/>
<path d="M13.2308 5.7406V13.2594L6.30511 12.7178C5.00395 12.6161 4 11.5305 4 10.2254V8.77455C4 7.46942 5.00395 6.3839 6.30511 6.28216L13.2308 5.7406Z" fill="black"/>
<path d="M8.79464 20.1873L8.06613 13.8586L11.0522 14.092L11.7388 19.8421C11.8441 20.7241 11.1553 21.5 10.2671 21.5C9.51408 21.5 8.88075 20.9354 8.79464 20.1873Z" fill="black"/>
</svg>
