<svg width="25" height="24" viewBox="0 0 25 24" fill="none" xmlns="http://www.w3.org/2000/svg">
<path d="M21.2603 19.2404L21.8425 18.6582C22.2134 18.2872 22.2346 17.6926 21.891 17.2962L12.586 6.55955L10.708 8.43758C10.6666 8.47891 10.6226 8.51587 10.5764 8.54846L19.7975 19.1882C20.1776 19.6268 20.8499 19.6507 21.2603 19.2404Z" fill="black"/>
<path d="M11.2728 5.04432L9.29375 7.02336C9.28673 7.03038 9.27984 7.03748 9.27307 7.04465L8.11068 5.70343C7.76707 5.30696 7.78828 4.71237 8.15926 4.34139L8.74145 3.75921C9.15181 3.34884 9.82416 3.37282 10.2042 3.81138L11.2728 5.04432Z" fill="black"/>
<path d="M4.11272 8.64974C3.95236 8.16866 3.57485 7.79115 3.09377 7.63079C2.60416 7.46759 2.60416 6.77505 3.09377 6.61185C3.57485 6.45149 3.95236 6.07398 4.11272 5.5929C4.27592 5.10329 4.96846 5.10329 5.13166 5.5929C5.29203 6.07398 5.66953 6.45149 6.15061 6.61185C6.64022 6.77505 6.64022 7.46759 6.15061 7.63079C5.66953 7.79115 5.29203 8.16866 5.13166 8.64974C4.96846 9.13935 4.27592 9.13935 4.11272 8.64974Z" fill="black"/>
<path d="M8.11272 15.6497C7.95236 15.1687 7.57485 14.7912 7.09377 14.6308C6.60416 14.4676 6.60416 13.7751 7.09377 13.6118C7.57485 13.4515 7.95236 13.074 8.11272 12.5929C8.27592 12.1033 8.96846 12.1033 9.13166 12.5929C9.29203 13.074 9.66953 13.4515 10.1506 13.6118C10.6402 13.7751 10.6402 14.4676 10.1506 14.6308C9.66953 14.7912 9.29203 15.1687 9.13166 15.6497C8.96846 16.1394 8.27592 16.1394 8.11272 15.6497Z" fill="black"/>
</svg>
