<svg width="25" height="24" viewBox="0 0 25 24" fill="none" xmlns="http://www.w3.org/2000/svg">
<path d="M5.5 4H19.5C21.1568 4 22.4999 5.343 22.5 6.99974C22.3763 6.9997 22.2505 7.02277 22.1286 7.07152L13.2428 10.6259C12.766 10.8166 12.234 10.8166 11.7572 10.6259L2.87139 7.07152C2.74951 7.02277 2.62371 6.9997 2.5 6.99973C2.50014 5.343 3.84323 4 5.5 4Z" fill="black"/>
<path d="M2.5 9.07703V17C2.5 18.6569 3.84315 20 5.5 20H16.2639C15.7889 19.4692 15.5 18.7684 15.5 18C15.5 16.3431 16.8431 15 18.5 15H22.5V9.07703L13.9856 12.4828C13.0319 12.8643 11.9681 12.8643 11.0144 12.4828L2.5 9.07703Z" fill="black"/>
<path d="M18.5 17C17.9477 17 17.5 17.4477 17.5 18C17.5 18.5523 17.9477 19 18.5 19H22.5C23.0523 19 23.5 18.5523 23.5 18C23.5 17.4477 23.0523 17 22.5 17H18.5Z" fill="black"/>
</svg>
