<svg width="25" height="24" viewBox="0 0 25 24" fill="none" xmlns="http://www.w3.org/2000/svg">
<path d="M5.5 4H19.5C21.1568 4 22.4999 5.343 22.5 6.99974C22.3763 6.9997 22.2505 7.02277 22.1286 7.07152L13.2428 10.6259C12.766 10.8166 12.234 10.8166 11.7572 10.6259L2.87139 7.07152C2.74951 7.02277 2.62371 6.9997 2.5 6.99973C2.50014 5.343 3.84323 4 5.5 4Z" fill="black"/>
<path d="M2.5 9.07703V17C2.5 18.6569 3.84315 20 5.5 20H15.5C15.5 18.6462 16.3967 17.5019 17.6285 17.1285C18.0019 15.8967 19.1462 15 20.5 15C21.2684 15 21.9692 15.2889 22.5 15.7639V9.07703L13.9856 12.4828C13.0319 12.8643 11.9681 12.8643 11.0144 12.4828L2.5 9.07703Z" fill="black"/>
<path d="M21.5 18C21.5 17.4477 21.0523 17 20.5 17C19.9477 17 19.5 17.4477 19.5 18V19H18.5C17.9477 19 17.5 19.4477 17.5 20C17.5 20.5523 17.9477 21 18.5 21H19.5V22C19.5 22.5523 19.9477 23 20.5 23C21.0523 23 21.5 22.5523 21.5 22V21H22.5C23.0523 21 23.5 20.5523 23.5 20C23.5 19.4477 23.0523 19 22.5 19H21.5V18Z" fill="black"/>
</svg>
