<svg width="25" height="24" viewBox="0 0 25 24" fill="none" xmlns="http://www.w3.org/2000/svg">
<path d="M5.5 4H19.5C21.1568 4 22.4999 5.343 22.5 6.99974C22.3763 6.9997 22.2505 7.02277 22.1286 7.07152L13.2428 10.6259C12.766 10.8166 12.234 10.8166 11.7572 10.6259L2.87139 7.07152C2.74951 7.02277 2.62371 6.9997 2.5 6.99973C2.50014 5.343 3.84323 4 5.5 4Z" fill="black"/>
<path d="M2.5 9.07703V17C2.5 18.6569 3.84315 20 5.5 20H16.4391C15.8321 18.865 16.0072 17.4218 16.9645 16.4645C17.9217 15.5073 19.3649 15.3322 20.5 15.9392C21.118 15.6087 21.8274 15.51 22.5 15.6433V9.07703L13.9856 12.4828C13.0319 12.8643 11.9681 12.8643 11.0144 12.4828L2.5 9.07703Z" fill="black"/>
<path d="M21.9142 20.0001L22.6213 19.293C23.0118 18.9024 23.0118 18.2693 22.6213 17.8787C22.2308 17.4882 21.5976 17.4882 21.2071 17.8787L20.5 18.5858L19.7929 17.8787C19.4024 17.4882 18.7692 17.4882 18.3787 17.8787C17.9882 18.2693 17.9882 18.9024 18.3787 19.293L19.0858 20.0001L18.3787 20.7072C17.9882 21.0977 17.9882 21.7309 18.3787 22.1214C18.7692 22.5119 19.4024 22.5119 19.7929 22.1214L20.5 21.4143L21.2071 22.1214C21.5976 22.5119 22.2308 22.5119 22.6213 22.1214C23.0118 21.7309 23.0118 21.0977 22.6213 20.7072L21.9142 20.0001Z" fill="black"/>
</svg>
