<svg width="25" height="24" viewBox="0 0 25 24" fill="none" xmlns="http://www.w3.org/2000/svg">
<path d="M2.26758 2.60089C2.26758 2.41714 2.45916 2.29618 2.62506 2.37518L7.07217 4.49285C7.24629 4.57576 7.3572 4.75142 7.3572 4.94428V18.9109C7.3572 19.2784 6.97404 19.5203 6.64223 19.3623L2.98016 17.6184C2.54486 17.4112 2.26758 16.972 2.26758 16.4899V2.60089Z" fill="black"/>
<path d="M9.41631 19.9794C9.11884 20.0149 8.8572 19.7825 8.8572 19.4829V5.24647C8.8572 4.99638 9.04199 4.78475 9.2898 4.75104L12.0412 4.3767L15.5908 4.00108C15.8861 3.96983 16.1434 4.20135 16.1434 4.49831V18.7346C16.1434 18.9879 15.954 19.2011 15.7025 19.2311L9.41631 19.9794Z" fill="black"/>
<path d="M17.9284 19.5068C17.7543 19.4239 17.6434 19.2482 17.6434 19.0554V5.08878C17.6434 4.72128 18.0265 4.47935 18.3583 4.63735L22.0204 6.38119C22.4557 6.58848 22.733 7.02764 22.733 7.50977V21.3987C22.733 21.5825 22.5414 21.7035 22.3755 21.6245L17.9284 19.5068Z" fill="black"/>
</svg>
