<svg width="25" height="24" viewBox="0 0 25 24" fill="none" xmlns="http://www.w3.org/2000/svg">
<path d="M5 4.5C5 5.53284 5.62633 6.41939 6.51989 6.80057C6.50685 6.86501 6.5 6.93171 6.5 7V16.208C5.61705 16.5938 5 17.4748 5 18.5C5 19.8807 6.11929 21 7.5 21C8.88071 21 10 19.8807 10 18.5C10 17.4748 9.38295 16.5938 8.5 16.208V13.4199C8.8022 13.9588 9.13247 14.4944 9.48627 15.0133C10.3681 16.3066 11.419 17.5298 12.5777 18.4396C13.7286 19.3433 15.067 19.9999 16.4998 20C16.9559 20.6072 17.6821 21 18.5 21C19.8807 21 21 19.8807 21 18.5C21 17.1193 19.8807 16 18.5 16C17.3032 16 16.3028 16.841 16.0575 17.9643C15.3587 17.8535 14.6017 17.486 13.8129 16.8666C12.8623 16.1202 11.9444 15.0684 11.1387 13.8867C10.3356 12.7088 9.66677 11.4354 9.20167 10.2749C8.72722 9.091 8.5 8.11168 8.5 7.5V7C8.5 6.93171 8.49315 6.86501 8.48011 6.80057C9.37367 6.41939 10 5.53284 10 4.5C10 3.11929 8.88071 2 7.5 2C6.11929 2 5 3.11929 5 4.5Z" fill="black"/>
</svg>
