<svg width="25" height="24" viewBox="0 0 25 24" fill="none" xmlns="http://www.w3.org/2000/svg">
<path fill-rule="evenodd" clip-rule="evenodd" d="M18.5 3.5H6.5C4.84315 3.5 3.5 4.84315 3.5 6.5V14.5C3.5 16.1569 4.84315 17.5 6.5 17.5H8.5C9.14911 17.5 9.78071 17.7105 10.3 18.1L11.5091 19.0068C11.5031 18.9344 11.5 18.8612 11.5 18.7872V14.5083C11.5 13.123 12.5745 12 13.9 12H21.1C21.2363 12 21.3699 12.0119 21.5 12.0347V6.5C21.5 4.84315 20.1569 3.5 18.5 3.5ZM6.5 8.5C6.5 7.94772 6.94772 7.5 7.5 7.5H17.5C18.0523 7.5 18.5 7.94772 18.5 8.5C18.5 9.05228 18.0523 9.5 17.5 9.5H7.5C6.94772 9.5 6.5 9.05228 6.5 8.5ZM7.5 12C6.94772 12 6.5 12.4477 6.5 13C6.5 13.5523 6.94772 14 7.5 14H10.5C11.0523 14 11.5 13.5523 11.5 13C11.5 12.4477 11.0523 12 10.5 12H7.5Z" fill="black"/>
<path fill-rule="evenodd" clip-rule="evenodd" d="M12.5 15C12.5 13.8954 13.3954 13 14.5 13H20.5C21.6046 13 22.5 13.8954 22.5 15V18.9112C22.5 19.7399 21.8282 20.4118 20.9994 20.4118C20.5301 20.4118 20.0725 20.5585 19.6907 20.8314L18.637 21.5844C18.2892 21.833 17.8219 21.833 17.4741 21.5844L16.6159 20.9711C16.1069 20.6073 15.497 20.4118 14.8715 20.4118H14.5C13.3954 20.4118 12.5 19.5163 12.5 18.4118V15ZM15.5 14.5C14.9477 14.5 14.5 14.9477 14.5 15.5C14.5 16.0523 14.9477 16.5 15.5 16.5H17.5C18.0523 16.5 18.5 16.0523 18.5 15.5C18.5 14.9477 18.0523 14.5 17.5 14.5H15.5ZM14.5 18C14.5 17.4477 14.9477 17 15.5 17H19.5C20.0523 17 20.5 17.4477 20.5 18C20.5 18.5523 20.0523 19 19.5 19H15.5C14.9477 19 14.5 18.5523 14.5 18Z" fill="black"/>
</svg>
