<svg width="25" height="24" viewBox="0 0 25 24" fill="none" xmlns="http://www.w3.org/2000/svg">
<path fill-rule="evenodd" clip-rule="evenodd" d="M18.5 3.5H6.5C4.84315 3.5 3.5 4.84315 3.5 6.5V14.5C3.5 16.1569 4.84315 17.5 6.5 17.5H8.5C9.14911 17.5 9.78071 17.7105 10.3 18.1L11.7 19.15C12.7667 19.95 14.2333 19.95 15.3 19.15L16.7 18.1C17.2193 17.7105 17.8509 17.5 18.5 17.5C20.1569 17.5 21.5 16.1569 21.5 14.5V6.5C21.5 4.84315 20.1569 3.5 18.5 3.5ZM6.5 8.5C6.5 7.94772 6.94772 7.5 7.5 7.5H12.5C13.0523 7.5 13.5 7.94772 13.5 8.5C13.5 9.05228 13.0523 9.5 12.5 9.5H7.5C6.94772 9.5 6.5 9.05228 6.5 8.5ZM7.5 11.5C6.94772 11.5 6.5 11.9477 6.5 12.5C6.5 13.0523 6.94772 13.5 7.5 13.5H16.5C17.0523 13.5 17.5 13.0523 17.5 12.5C17.5 11.9477 17.0523 11.5 16.5 11.5H7.5Z" fill="black"/>
</svg>
