<svg width="25" height="24" viewBox="0 0 25 24" fill="none" xmlns="http://www.w3.org/2000/svg">
<path fill-rule="evenodd" clip-rule="evenodd" d="M20.7768 5H5.5C3.84315 5 2.5 6.34315 2.5 8V16C2.5 17.6569 3.84315 19 5.5 19H17.5C19.1569 19 20.5 17.6569 20.5 16V9.29669C20.5 8.77461 20.6362 8.26157 20.8953 7.80828L21.6451 6.49614C22.026 5.82948 21.5446 5 20.7768 5ZM6.5 10C6.5 9.44772 6.94772 9 7.5 9H12.5C13.0523 9 13.5 9.44772 13.5 10C13.5 10.5523 13.0523 11 12.5 11H7.5C6.94772 11 6.5 10.5523 6.5 10ZM7.5 13C6.94772 13 6.5 13.4477 6.5 14C6.5 14.5523 6.94772 15 7.5 15H16.5C17.0523 15 17.5 14.5523 17.5 14C17.5 13.4477 17.0523 13 16.5 13H7.5Z" fill="black"/>
</svg>
