<svg width="25" height="24" viewBox="0 0 25 24" fill="none" xmlns="http://www.w3.org/2000/svg">
<path d="M23.2071 1.29289C23.5976 1.68342 23.5976 2.31658 23.2071 2.70711L3.20711 22.7071C2.81658 23.0976 2.18342 23.0976 1.79289 22.7071C1.40237 22.3166 1.40237 21.6834 1.79289 21.2929L21.7929 1.29289C22.1834 0.902369 22.8166 0.902369 23.2071 1.29289Z" fill="black"/>
<path d="M5.59192 16.0797C5.54137 15.9504 5.49359 15.8184 5.44871 15.6838C5.27406 15.1599 4.70774 14.8767 4.1838 15.0513C3.65986 15.226 3.3767 15.7923 3.55134 16.3163C3.70142 16.7665 3.87699 17.1932 4.07537 17.5963L5.59192 16.0797Z" fill="black"/>
<path d="M6.58959 20.7389C11.3138 24.501 19.2119 23.0268 21.4487 16.3163C21.6234 15.7923 21.3402 15.226 20.8163 15.0513C20.2923 14.8767 19.726 15.1599 19.5513 15.6838C17.8167 20.8876 11.7617 22.0953 8.0218 19.3067L6.58959 20.7389Z" fill="black"/>
<path d="M12.5 3C14.2005 3 15.7358 3.70741 16.8276 4.84401L6.79824 14.8733C6.60469 14.2839 6.5 13.6542 6.5 13V9C6.5 5.68629 9.18629 3 12.5 3Z" fill="black"/>
<path d="M12.5 19C11.3111 19 10.203 18.6542 9.2707 18.0577L18.4977 8.83077C18.4992 8.88699 18.5 8.9434 18.5 9V13C18.5 16.3137 15.8137 19 12.5 19Z" fill="black"/>
</svg>
