<svg width="25" height="24" viewBox="0 0 25 24" fill="none" xmlns="http://www.w3.org/2000/svg">
<path fill-rule="evenodd" clip-rule="evenodd" d="M12.5003 3C9.18656 3 6.50027 5.68629 6.50027 9V13C6.50027 16.3137 9.18656 19 12.5003 19C15.814 19 18.5003 16.3137 18.5003 13V9C18.5003 5.68629 15.814 3 12.5003 3ZM11.5003 9C11.5003 8.44772 11.0526 8 10.5003 8C9.94799 8 9.50027 8.44772 9.50027 9V13C9.50027 13.5523 9.94799 14 10.5003 14C11.0526 14 11.5003 13.5523 11.5003 13V9ZM14.5003 8C15.0526 8 15.5003 8.44772 15.5003 9V13C15.5003 13.5523 15.0526 14 14.5003 14C13.948 14 13.5003 13.5523 13.5003 13V9C13.5003 8.44772 13.948 8 14.5003 8Z" fill="black"/>
<path d="M5.44895 15.6838C5.27431 15.1598 4.70799 14.8767 4.18404 15.0513C3.6601 15.226 3.37694 15.7923 3.55159 16.3162C6.41819 24.916 18.5824 24.916 21.449 16.3162C21.6236 15.7923 21.3404 15.226 20.8165 15.0513C20.2926 14.8767 19.7262 15.1598 19.5516 15.6838C17.2928 22.4602 7.70776 22.4602 5.44895 15.6838Z" fill="black"/>
</svg>
