<svg width="25" height="24" viewBox="0 0 25 24" fill="none" xmlns="http://www.w3.org/2000/svg">
<path fill-rule="evenodd" clip-rule="evenodd" d="M12.968 6.1102C14.4402 6.1102 15.6336 7.30366 15.6336 8.77586C15.6336 10.2481 14.4402 11.4415 12.968 11.4415C11.4958 11.4415 10.3023 10.2481 10.3023 8.77586C10.3023 7.30366 11.4958 6.1102 12.968 6.1102ZM13.6336 8.77586C13.6336 8.40823 13.3356 8.1102 12.968 8.1102C12.6003 8.1102 12.3023 8.40823 12.3023 8.77586C12.3023 9.1435 12.6003 9.44152 12.968 9.44152C13.3356 9.44152 13.6336 9.1435 13.6336 8.77586Z" fill="black"/>
<path fill-rule="evenodd" clip-rule="evenodd" d="M3.63965 5.94604C3.63965 3.73691 5.43051 1.94604 7.63965 1.94604H18.2963C20.5054 1.94604 22.2963 3.73691 22.2963 5.94604V11.6057C22.2963 12.1507 22.1873 12.6702 21.9899 13.1436L21.7097 15.2035C21.5988 16.0186 21.2528 16.7364 20.753 17.304C20.7398 17.3454 20.7237 17.3863 20.7047 17.4267L19.757 19.4353C18.6909 21.6951 15.8369 22.4351 13.807 20.9781L5.21716 14.8124C5.14481 14.7605 5.08146 14.7007 5.02743 14.635C4.17756 13.9015 3.63965 12.8164 3.63965 11.6057V5.94604ZM18.2963 15.6057C18.7576 15.6057 19.2007 15.5276 19.6131 15.3839C19.25 16.3303 18.2058 16.8826 17.1847 16.5839L13.841 15.6057H18.2963ZM6.33943 4.42632C5.91109 4.79313 5.63965 5.33789 5.63965 5.94604V11.6057C5.63965 12.2138 5.91109 12.7586 6.33943 13.1254C6.21307 12.958 6.13814 12.7495 6.13814 12.5236C6.13814 11.9713 6.58586 11.5236 7.13814 11.5236H8.8038C9.35609 11.5236 9.8038 11.9713 9.8038 12.5236C9.8038 13.0759 9.35609 13.5236 8.8038 13.5236H7.13814C7.11215 13.5236 7.08639 13.5226 7.0609 13.5207C7.24411 13.576 7.43841 13.6057 7.63965 13.6057H18.2963C18.4975 13.6057 18.6918 13.576 18.875 13.5207C18.8495 13.5226 18.8238 13.5236 18.7978 13.5236H17.1321C16.5798 13.5236 16.1321 13.0759 16.1321 12.5236C16.1321 11.9713 16.5798 11.5236 17.1321 11.5236H18.7978C19.3501 11.5236 19.7978 11.9713 19.7978 12.5236C19.7978 12.7495 19.7229 12.958 19.5965 13.1254C20.0248 12.7586 20.2963 12.2138 20.2963 11.6057V5.94604C20.2963 5.33789 20.0248 4.79313 19.5965 4.42632C19.7229 4.59376 19.7978 4.80219 19.7978 5.02812C19.7978 5.58041 19.3501 6.02812 18.7978 6.02812H17.1321C16.5798 6.02812 16.1321 5.58041 16.1321 5.02812C16.1321 4.47584 16.5798 4.02812 17.1321 4.02812H18.7978C18.8238 4.02812 18.8495 4.02911 18.875 4.03106C18.6918 3.97577 18.4975 3.94604 18.2963 3.94604H7.63965C7.43841 3.94604 7.24411 3.97577 7.0609 4.03106C7.08639 4.02911 7.11215 4.02812 7.13814 4.02812H8.8038C9.35609 4.02812 9.8038 4.47584 9.8038 5.02812C9.8038 5.58041 9.35609 6.02812 8.8038 6.02812H7.13814C6.58586 6.02812 6.13814 5.58041 6.13814 5.02812C6.13814 4.80219 6.21307 4.59376 6.33943 4.42632ZM17.9078 18.6629C17.4863 18.6797 17.0537 18.6294 16.6231 18.5034L11.8395 17.104L14.9732 19.3533C15.9635 20.0641 17.346 19.7291 17.9078 18.6629Z" fill="black"/>
</svg>
