<svg width="25" height="24" viewBox="0 0 25 24" fill="none" xmlns="http://www.w3.org/2000/svg">
<path d="M13.5 12.0001C13.5 11.4478 13.0523 11.0001 12.5 11.0001C11.9477 11.0001 11.5 11.4478 11.5 12.0001C11.5 12.5523 11.9477 13.0001 12.5 13.0001C13.0523 13.0001 13.5 12.5523 13.5 12.0001Z" fill="black"/>
<path fill-rule="evenodd" clip-rule="evenodd" d="M22.5 9.19287V17.1812C22.5 18.7656 21.2683 20.0749 19.6846 20.1232C18.7355 20.1522 17.6291 20.1735 16.5 20.1687C15.6991 20.1654 13.5429 19.6449 11.6375 19.1849C10.2556 18.8514 9.00551 18.5496 8.5 18.5001C7.25176 18.3777 6.19465 18.2828 5.33209 18.2102C3.74452 18.0767 2.5 16.7529 2.5 15.1597V7.16868C2.5 5.44743 3.94386 4.09079 5.65881 4.23799C6.45728 4.30653 7.40511 4.39272 8.5 4.50006C9.00551 4.54962 10.2556 4.85137 11.6375 5.18495C13.5429 5.64489 15.6991 6.16536 16.5 6.16874C17.4837 6.17291 18.4503 6.15725 19.3106 6.134C21.0403 6.08726 22.5 7.46261 22.5 9.19287ZM5.59106 6.41671C5.04088 6.36858 4.55585 6.77557 4.50771 7.32575C4.45958 7.87593 4.86657 8.36097 5.41675 8.4091L7.40914 8.58341C7.95932 8.63155 8.44436 8.22456 8.49249 7.67437C8.54063 7.12419 8.13363 6.63916 7.58345 6.59102L5.59106 6.41671ZM16.5077 8.32575C16.5558 7.77557 17.0409 7.36858 17.5911 7.41671L19.5835 7.59102C20.1336 7.63916 20.5406 8.12419 20.4925 8.67437C20.4444 9.22456 19.9593 9.63155 19.4091 9.58341L17.4168 9.4091C16.8666 9.36097 16.4596 8.87593 16.5077 8.32575ZM5.59106 15.0039C5.04088 14.9557 4.55585 15.3627 4.50771 15.9129C4.45958 16.4631 4.86657 16.9481 5.41675 16.9963L7.40914 17.1706C7.95932 17.2187 8.44436 16.8117 8.49249 16.2615C8.54063 15.7113 8.13363 15.2263 7.58345 15.1782L5.59106 15.0039ZM16.5077 17.3258C16.5558 16.7756 17.0409 16.3686 17.5911 16.4167L19.5835 16.591C20.1336 16.6392 20.5406 17.1242 20.4925 17.6744C20.4444 18.2246 19.9593 18.6315 19.4091 18.5834L17.4168 18.4091C16.8666 18.361 16.4596 17.8759 16.5077 17.3258ZM12.5 9.00006C14.1569 9.00006 15.5 10.3432 15.5 12.0001C15.5 13.6569 14.1569 15.0001 12.5 15.0001C10.8431 15.0001 9.5 13.6569 9.5 12.0001C9.5 10.3432 10.8431 9.00006 12.5 9.00006Z" fill="black"/>
</svg>
