<svg width="25" height="24" viewBox="0 0 25 24" fill="none" xmlns="http://www.w3.org/2000/svg">
<path d="M15.0405 2.32556C15.4623 2.43601 15.3527 3.08597 14.9286 3.18721C11.8651 3.91851 9.5 6.70893 9.5 10C9.5 10.4122 9.53563 10.8161 9.60398 11.2087C8.50974 12.1556 7.81429 13.5751 7.81429 15.1618C7.81429 15.4016 7.83017 15.6375 7.86091 15.8686C6.57936 16.4243 5.65063 17.6724 5.51668 19.1577C3.65554 17.3417 2.5 14.8058 2.5 12C2.5 6.47715 6.97715 2 12.5 2C13.3778 2 14.2293 2.11311 15.0405 2.32556Z" fill="black"/>
<path d="M20.7937 17.5888C20.6556 17.0133 20.4159 16.4791 20.0954 16.0073C20.4195 15.8129 20.7267 15.593 21.014 15.3503C21.347 15.0691 21.9285 15.3689 21.764 15.7725C21.5025 16.4139 21.1764 17.022 20.7937 17.5888Z" fill="black"/>
<path d="M7.5 18.7647C7.5 20.5515 8.84315 22 10.5 22H15.9C17.8882 22 19.5 20.2618 19.5 18.1176C19.5 16.4008 18.4666 14.9442 17.0341 14.4319C16.6972 12.4787 15.1087 11 13.2 11C11.0461 11 9.3 12.883 9.3 15.2059C9.3 15.4013 9.31235 15.5935 9.33626 15.7818C8.25739 16.272 7.5 17.4229 7.5 18.7647Z" fill="black"/>
</svg>
