<svg width="25" height="24" viewBox="0 0 25 24" fill="none" xmlns="http://www.w3.org/2000/svg">
<path d="M15.0405 2.32556C15.4623 2.43601 15.3527 3.08597 14.9286 3.18721C11.8651 3.91851 9.5 6.70893 9.5 10C9.5 13.866 12.634 17 16.5 17C18.2201 17 19.7953 16.3796 21.014 15.3503C21.347 15.0691 21.9285 15.3689 21.764 15.7725C20.2749 19.4254 16.6881 22 12.5 22C6.97715 22 2.5 17.5228 2.5 12C2.5 6.47715 6.97715 2 12.5 2C13.3778 2 14.2293 2.11311 15.0405 2.32556Z" fill="black"/>
<path d="M15.843 8.04145C15.7094 7.64055 15.3948 7.32596 14.9939 7.19233C14.5859 7.05633 14.5859 6.47921 14.9939 6.34321C15.3948 6.20957 15.7094 5.89498 15.843 5.49408C15.979 5.08607 16.5561 5.08607 16.6921 5.49408C16.8258 5.89498 17.1404 6.20957 17.5413 6.34321C17.9493 6.47921 17.9493 7.05633 17.5413 7.19233C17.1404 7.32596 16.8258 7.64055 16.6921 8.04145C16.5561 8.44946 15.979 8.44946 15.843 8.04145Z" fill="black"/>
<path d="M13.9939 13.1923C14.3948 13.326 14.7094 13.6405 14.843 14.0415C14.979 14.4495 15.5561 14.4495 15.6921 14.0415C15.8258 13.6405 16.1404 13.326 16.5413 13.1923C16.9493 13.0563 16.9493 12.4792 16.5413 12.3432C16.1404 12.2096 15.8258 11.895 15.6921 11.4941C15.5561 11.0861 14.979 11.0861 14.843 11.4941C14.7094 11.895 14.3948 12.2096 13.9939 12.3432C13.5859 12.4792 13.5859 13.0563 13.9939 13.1923Z" fill="black"/>
</svg>
