<svg width="25" height="24" viewBox="0 0 25 24" fill="none" xmlns="http://www.w3.org/2000/svg">
<path fill-rule="evenodd" clip-rule="evenodd" d="M16.4999 1.99997C16.4999 1.44769 16.0522 0.999985 15.4999 1C14.9476 1.00001 14.4999 1.44774 14.4999 2.00003C14.4999 2.17334 14.4397 2.45556 14.2884 2.66571C14.1738 2.82487 13.9741 3 13.5 3C12.9702 3 12.4655 3.10956 12.0511 3.39767C11.6184 3.69848 11.3896 4.12054 11.2983 4.53514C11.1753 5.09464 11.2932 5.65757 11.4471 6.07866C8.08066 6.58648 5.5 9.49187 5.5 13V15C5.5 18.866 8.63401 22 12.5 22C16.366 22 19.5 18.866 19.5 15V13C19.5 9.47272 16.8911 6.55478 13.4977 6.07055C13.5101 5.89759 13.4776 5.71914 13.3944 5.55279C13.3439 5.45165 13.2955 5.32292 13.2684 5.19672C13.2521 5.12063 13.2473 5.06314 13.2471 5.02354C13.2951 5.01214 13.3754 5 13.5 5C14.6259 5 15.4261 4.50847 15.9115 3.83429C16.3602 3.21111 16.5 2.49333 16.4999 1.99997ZM12.5 7.5C13.0523 7.5 13.5 7.94772 13.5 8.5V12.5C13.5 13.0523 13.0523 13.5 12.5 13.5C11.9477 13.5 11.5 13.0523 11.5 12.5V8.5C11.5 7.94772 11.9477 7.5 12.5 7.5Z" fill="black"/>
</svg>
