<svg width="25" height="24" viewBox="0 0 25 24" fill="none" xmlns="http://www.w3.org/2000/svg">
<path fill-rule="evenodd" clip-rule="evenodd" d="M2.5 5C2.5 3.34315 3.84315 2 5.5 2H19.5C21.1569 2 22.5 3.34315 22.5 5V19C22.5 20.6569 21.1569 22 19.5 22H5.5C3.84315 22 2.5 20.6569 2.5 19V5ZM11.7929 3.29289C12.1834 2.90237 12.8166 2.90237 13.2071 3.29289L16.2071 6.29289C16.5976 6.68342 16.5976 7.31658 16.2071 7.70711C15.8166 8.09763 15.1834 8.09763 14.7929 7.70711L13.5 6.41421V11H18.0858L16.7929 9.70711C16.4024 9.31658 16.4024 8.68342 16.7929 8.29289C17.1834 7.90237 17.8166 7.90237 18.2071 8.29289L21.2071 11.2929C21.3946 11.4804 21.5 11.7348 21.5 12C21.5 12.2652 21.3946 12.5196 21.2071 12.7071L18.2071 15.7071C17.8166 16.0976 17.1834 16.0976 16.7929 15.7071C16.4024 15.3166 16.4024 14.6834 16.7929 14.2929L18.0858 13H13.5V17.5858L14.7929 16.2929C15.1834 15.9024 15.8166 15.9024 16.2071 16.2929C16.5976 16.6834 16.5976 17.3166 16.2071 17.7071L13.2071 20.7071C12.8166 21.0976 12.1834 21.0976 11.7929 20.7071L8.79289 17.7071C8.40237 17.3166 8.40237 16.6834 8.79289 16.2929C9.18342 15.9024 9.81658 15.9024 10.2071 16.2929L11.5 17.5858V13H6.91421L8.20711 14.2929C8.59763 14.6834 8.59763 15.3166 8.20711 15.7071C7.81658 16.0976 7.18342 16.0976 6.79289 15.7071L3.79289 12.7071C3.40237 12.3166 3.40237 11.6834 3.79289 11.2929L6.79289 8.29289C7.18342 7.90237 7.81658 7.90237 8.20711 8.29289C8.59763 8.68342 8.59763 9.31658 8.20711 9.70711L6.91421 11H11.5V6.41421L10.2071 7.70711C9.81658 8.09763 9.18342 8.09763 8.79289 7.70711C8.40237 7.31658 8.40237 6.68342 8.79289 6.29289L11.7929 3.29289Z" fill="black"/>
</svg>
