<svg width="25" height="24" viewBox="0 0 25 24" fill="none" xmlns="http://www.w3.org/2000/svg">
<path d="M18.2657 4.72356C18.7565 5.19166 19.1945 5.60933 19.5009 5.76429C19.4054 6.75886 18.6602 8.60912 16.5009 9.10648L16.5009 16.6016C16.5009 16.707 16.4845 16.8086 16.4543 16.904C16.4528 16.9638 16.447 17.0241 16.4367 17.0844C16.0856 19.1423 14.3205 21 11.8075 21C9.93339 21 8.47525 18.9336 7.70933 17.5509C7.29849 16.8092 7.48947 15.93 8.33027 15.5848C9.07063 15.2809 10.1919 15 11.8075 15C12.932 15 13.8171 15.1361 14.5009 15.3213L14.5009 3.99999C14.5009 3.50443 14.8614 3.09306 15.3344 3.01379V2.99992C16.11 2.66752 17.2919 3.7948 18.2657 4.72356Z" fill="black"/>
<path d="M6.11272 6.64973C5.95236 6.16865 5.57485 5.79114 5.09377 5.63078C4.60416 5.46758 4.60416 4.77504 5.09377 4.61183C5.57485 4.45147 5.95236 4.07397 6.11272 3.59289C6.27592 3.10328 6.96846 3.10328 7.13166 3.59289C7.29203 4.07397 7.66953 4.45147 8.15061 4.61183C8.64022 4.77504 8.64022 5.46758 8.15061 5.63078C7.66953 5.79114 7.29203 6.16865 7.13166 6.64973C6.96846 7.13934 6.27592 7.13934 6.11272 6.64973Z" fill="black"/>
<path d="M10.1127 11.6497C9.95236 11.1686 9.57485 10.7911 9.09377 10.6308C8.60416 10.4676 8.60416 9.77504 9.09377 9.61183C9.57485 9.45147 9.95236 9.07397 10.1127 8.59289C10.2759 8.10328 10.9685 8.10328 11.1317 8.59289C11.292 9.07397 11.6695 9.45147 12.1506 9.61183C12.6402 9.77504 12.6402 10.4676 12.1506 10.6308C11.6695 10.7911 11.292 11.1686 11.1317 11.6497C10.9685 12.1393 10.2759 12.1393 10.1127 11.6497Z" fill="black"/>
</svg>
