<svg width="25" height="24" viewBox="0 0 25 24" fill="none" xmlns="http://www.w3.org/2000/svg">
<path d="M19.8228 5.28709L12.7623 4.03277C11.5085 3.81003 10.3543 4.75116 10.3543 5.99631V7.09753L21.4069 9.09327L21.4973 7.35178C21.5494 6.35022 20.8326 5.46648 19.8228 5.28709Z" fill="black"/>
<path d="M3.65878 16.7028C4.2421 17.8526 5.35261 19.5709 6.77991 19.5709C8.92485 19.5709 10.3543 17.6306 10.3543 15.6903C10.3543 15.6903 9.46074 14.5815 6.77991 14.5815C5.54947 14.5815 4.69553 14.8151 4.13168 15.0678C3.49133 15.3549 3.34588 16.086 3.65878 16.7028Z" fill="black"/>
<path d="M14.4218 17.1319C15.0051 18.2817 16.1156 20 17.5429 20C19.4331 20 20.7676 18.4934 21.058 16.8077L21.0715 16.5094C21.0438 16.1755 20.8706 15.8692 20.567 15.6903C20.0379 15.3784 19.0868 15.0107 17.5429 15.0107C16.3125 15.0107 15.4586 15.2442 14.8947 15.497C14.2544 15.784 14.1089 16.5151 14.4218 17.1319Z" fill="black"/>
<path d="M10.3543 15.6903C10.3543 17.6306 8.92485 19.5709 6.77991 19.5709C5.35261 19.5709 4.2421 17.8526 3.65878 16.7028C3.34588 16.086 3.49133 15.3549 4.13168 15.0678C4.69553 14.8151 5.54947 14.5815 6.77991 14.5815C9.46074 14.5815 10.3543 15.6903 10.3543 15.6903ZM10.3543 15.6903V7.09753M21.058 16.8077C20.7676 18.4934 19.433 20 17.5429 20C16.1156 20 15.0051 18.2817 14.4218 17.1319C14.1089 16.5151 14.2544 15.784 14.8947 15.497C15.4586 15.2442 16.3125 15.0107 17.5429 15.0107C19.0868 15.0107 20.0379 15.3784 20.567 15.6903C20.8706 15.8692 21.0438 16.1755 21.0715 16.5094M21.058 16.8077L21.0715 16.5094M21.058 16.8077C21.0753 16.7076 21.0797 16.6073 21.0715 16.5094M21.4069 9.09327L21.4973 7.35178C21.5494 6.35022 20.8326 5.46648 19.8228 5.28709L12.7623 4.03277C11.5085 3.81003 10.3543 4.75116 10.3543 5.99631V7.09753M21.4069 9.09327L10.3543 7.09753M21.4069 9.09327L21.0715 16.5094" stroke="black" stroke-width="2" stroke-linecap="round"/>
</svg>
