<svg width="25" height="24" viewBox="0 0 25 24" fill="none" xmlns="http://www.w3.org/2000/svg">
<path d="M14.5595 2.4757C14.4867 2.45886 14.4109 2.44995 14.333 2.44995C13.7807 2.44995 13.333 2.89767 13.333 3.44995V14.8872C12.6515 14.6738 11.7717 14.5176 10.6563 14.5176C9.04064 14.5176 7.91938 14.8453 7.17903 15.1999C6.33823 15.6025 6.14725 16.6283 6.55809 17.4936C7.32401 19.1068 8.78215 21.5176 10.6563 21.5176C13.2416 21.5176 15.0354 19.2236 15.3122 16.7415C15.3162 16.7062 15.3188 16.6708 15.32 16.6356C15.3363 16.5184 15.3437 16.3919 15.333 16.2631V9.95927C18.1326 9.55255 19.0728 7.11649 19.187 5.84414C18.7458 5.60548 17.8209 4.87685 16.9082 4.15793C16.1911 3.59309 15.4817 3.03424 15.0205 2.72376C14.9063 2.61557 14.7665 2.53405 14.6112 2.48916C14.5915 2.48219 14.5742 2.47765 14.5595 2.4757Z" fill="black"/>
</svg>
