<svg width="25" height="24" viewBox="0 0 25 24" fill="none" xmlns="http://www.w3.org/2000/svg">
<path fill-rule="evenodd" clip-rule="evenodd" d="M18.8336 5C18.8336 4.44772 18.3858 4 17.8336 4C17.2813 4 16.8336 4.44772 16.8336 5V9.28571H11.8925L8.91496 4.81934C8.09172 3.58448 6.16688 4.16728 6.16688 5.65139V9.28571H4.5C3.94772 9.28571 3.5 9.73343 3.5 10.2857C3.5 10.838 3.94772 11.2857 4.5 11.2857H6.16688V12.7143H4.5C3.94772 12.7143 3.5 13.162 3.5 13.7143C3.5 14.2666 3.94772 14.7143 4.5 14.7143H6.16688V19C6.16688 19.5523 6.6146 20 7.16688 20C7.71917 20 8.16688 19.5523 8.16688 19V14.7143H13.1079L16.0855 19.1807C16.9087 20.4155 18.8336 19.8327 18.8336 18.3486V14.7143H20.5C21.0523 14.7143 21.5 14.2666 21.5 13.7143C21.5 13.162 21.0523 12.7143 20.5 12.7143H18.8336V11.2857H20.5C21.0523 11.2857 21.5 10.838 21.5 10.2857C21.5 9.73343 21.0523 9.28571 20.5 9.28571H18.8336V5ZM14.1783 12.7143L13.2259 11.2857H16.8336V12.7143H14.1783ZM16.8336 16.6972L15.5116 14.7143H16.8336V16.6972ZM10.8222 11.2857L11.7746 12.7143H8.16688V11.2857H10.8222ZM8.16688 7.30278L9.48884 9.28571H8.16688V7.30278Z" fill="black"/>
</svg>
