<svg width="25" height="24" viewBox="0 0 25 24" fill="none" xmlns="http://www.w3.org/2000/svg">
<path d="M9.5 8H7.5V10H9.5V8Z" fill="black"/>
<path fill-rule="evenodd" clip-rule="evenodd" d="M15.5 3H5.5C4.39543 3 3.5 3.89543 3.5 5V19C3.5 20.1046 4.39543 21 5.5 21H17.5V5C17.5 3.89543 16.6046 3 15.5 3ZM5.5 17C5.5 16.4477 5.94772 16 6.5 16H14.5C15.0523 16 15.5 16.4477 15.5 17C15.5 17.5523 15.0523 18 14.5 18H6.5C5.94772 18 5.5 17.5523 5.5 17ZM6.5 13C5.94772 13 5.5 13.4477 5.5 14C5.5 14.5523 5.94772 15 6.5 15H14.5C15.0523 15 15.5 14.5523 15.5 14C15.5 13.4477 15.0523 13 14.5 13H6.5ZM12.5 11C12.5 10.4477 12.9477 10 13.5 10H14.5C15.0523 10 15.5 10.4477 15.5 11C15.5 11.5523 15.0523 12 14.5 12H13.5C12.9477 12 12.5 11.5523 12.5 11ZM13.5 7C12.9477 7 12.5 7.44772 12.5 8C12.5 8.55228 12.9477 9 13.5 9H14.5C15.0523 9 15.5 8.55228 15.5 8C15.5 7.44772 15.0523 7 14.5 7H13.5ZM5.5 8C5.5 6.89543 6.39543 6 7.5 6H9.5C10.6046 6 11.5 6.89543 11.5 8V10C11.5 11.1046 10.6046 12 9.5 12H7.5C6.39543 12 5.5 11.1046 5.5 10V8Z" fill="black"/>
<path d="M18.5 21H20.9C21.7837 21 22.5 20.1046 22.5 19V17C22.5 15.8954 21.7837 15 20.9 15H18.5V21Z" fill="black"/>
</svg>
