<svg width="25" height="24" viewBox="0 0 25 24" fill="none" xmlns="http://www.w3.org/2000/svg">
<path d="M21.5 5.5C22.0523 5.5 22.5 5.94772 22.5 6.5V17.5C22.5 18.0523 22.0523 18.5 21.5 18.5C20.9477 18.5 20.5 18.0523 20.5 17.5V13.5235L14.8984 16.323C13.7965 16.8737 12.5 16.0728 12.5 14.8414V12.0011C12.4996 12.5889 12.1943 13.1766 11.5839 13.4816L5.89844 16.323C4.79651 16.8737 3.5 16.0728 3.5 14.8414V9.15863C3.5 7.92722 4.79651 7.12632 5.89843 7.67702L11.5839 10.5184C12.1943 10.8234 12.4996 11.4111 12.5 11.9989V9.15863C12.5 7.92722 13.7965 7.12632 14.8984 7.67702L20.5 10.4765V6.5C20.5 5.94772 20.9477 5.5 21.5 5.5Z" fill="black"/>
</svg>
