<svg width="25" height="24" viewBox="0 0 25 24" fill="none" xmlns="http://www.w3.org/2000/svg">
<path d="M7.80184 4.51436C7.97821 4.19689 8.31283 4 8.676 4H16.716C17.2683 4 17.716 3.55228 17.716 3C17.716 2.44772 17.2683 2 16.716 2H8.676C7.5865 2 6.58263 2.59068 6.05353 3.54307L2.16464 10.5431C1.66127 11.4491 1.66127 12.5509 2.16464 13.4569L6.05353 20.4569C6.53766 21.3284 7.41929 21.897 8.4003 21.9873V22H16.4992V21.9948C17.5196 21.9347 18.4445 21.3576 18.9449 20.4569L22.8337 13.4569C23.3371 12.5509 23.3371 11.4491 22.8337 10.543L22.6625 10.2348C22.3942 9.75202 21.7854 9.57809 21.3027 9.84631C20.8199 10.1145 20.6459 10.7233 20.9142 11.2061L21.0854 11.5144C21.2532 11.8164 21.2532 12.1836 21.0854 12.4857L20.0755 14.3035C19.9295 14.0599 19.7293 13.8441 19.4797 13.6756L17.1259 12.0861C16.2216 11.4832 15.0013 11.7129 14.378 12.6033L13.3561 14.0631L12.2779 13.3967C11.3809 12.8891 10.2449 13.1464 9.65415 13.9911L6.92051 17.8993L3.91295 12.4856C3.74516 12.1836 3.74516 11.8164 3.91295 11.5144L7.80184 4.51436Z" fill="black"/>
<path d="M6.6822 8.79827C7.16328 8.95863 7.54078 9.33614 7.70114 9.81722C7.86435 10.3068 8.55689 10.3068 8.72009 9.81722C8.88045 9.33614 9.25796 8.95863 9.73904 8.79827C10.2286 8.63507 10.2286 7.94253 9.73904 7.77933C9.25796 7.61897 8.88045 7.24146 8.72009 6.76038C8.55689 6.27077 7.86435 6.27077 7.70114 6.76038C7.54078 7.24146 7.16328 7.61897 6.6822 7.77933C6.19259 7.94253 6.19259 8.63507 6.6822 8.79827Z" fill="black"/>
<path d="M21.4992 4C21.4992 3.44772 21.0515 3 20.4992 3C19.9469 3 19.4992 3.44772 19.4992 4V5H18.4992C17.9469 5 17.4992 5.44772 17.4992 6C17.4992 6.55228 17.9469 7 18.4992 7H19.4992V8C19.4992 8.55228 19.9469 9 20.4992 9C21.0515 9 21.4992 8.55228 21.4992 8V7H22.4992C23.0515 7 23.4992 6.55228 23.4992 6C23.4992 5.44772 23.0515 5 22.4992 5H21.4992V4Z" fill="black"/>
</svg>
