<svg width="25" height="24" viewBox="0 0 25 24" fill="none" xmlns="http://www.w3.org/2000/svg">
<path d="M12.4992 14.5C14.4322 14.5 15.9992 12.933 15.9992 11C15.9992 9.067 14.4322 7.5 12.4992 7.5C10.5662 7.5 8.99919 9.067 8.99919 11C8.99919 12.933 10.5662 14.5 12.4992 14.5Z" fill="black"/>
<path fill-rule="evenodd" clip-rule="evenodd" d="M16.4992 21.9948C17.5196 21.9347 18.4445 21.3576 18.9449 20.4569L22.8337 13.4569C23.3371 12.5509 23.3371 11.4491 22.8337 10.5431L18.9449 3.54307C18.4157 2.59068 17.4119 2 16.3224 2H8.676C7.5865 2 6.58263 2.59068 6.05353 3.54307L2.16464 10.5431C1.66127 11.4491 1.66127 12.5509 2.16464 13.4569L6.05353 20.4569C6.53766 21.3284 7.41929 21.897 8.4003 21.9873V22H16.4992V21.9948ZM8.676 4C8.31283 4 7.97821 4.19689 7.80184 4.51436L3.91295 11.5144C3.74516 11.8164 3.74516 12.1836 3.91295 12.4856L6.93726 17.9294C8.23177 17.1882 10.619 15.9891 12.4992 16C14.3852 16.011 16.7819 17.2453 18.0356 17.9753L21.0854 12.4856C21.2532 12.1836 21.2532 11.8164 21.0854 11.5144L17.1965 4.51436C17.0202 4.19689 16.6856 4 16.3224 4H8.676Z" fill="black"/>
</svg>
