<svg width="25" height="24" viewBox="0 0 25 24" fill="none" xmlns="http://www.w3.org/2000/svg">
<path d="M7.80184 4.51436C7.97821 4.19689 8.31283 4 8.676 4H16.716C16.8172 4 16.9098 4.0572 16.955 4.14775C17.202 4.64173 17.8027 4.84195 18.2967 4.59497C18.7907 4.34798 18.9909 3.7473 18.7439 3.25332C18.3598 2.4852 17.5747 2 16.716 2H8.676C7.5865 2 6.58263 2.59068 6.05353 3.54307L2.16464 10.5431C1.66127 11.4491 1.66127 12.5509 2.16464 13.4569L6.05353 20.4569C6.53766 21.3284 7.41929 21.897 8.4003 21.9873V22H16.4992V21.9948C17.5196 21.9347 18.4445 21.3576 18.9449 20.4569L22.8337 13.4569C23.3371 12.5509 23.3371 11.4491 22.8337 10.543L22.6625 10.2348C22.3942 9.75202 21.7854 9.57809 21.3027 9.84631C20.8199 10.1145 20.6459 10.7233 20.9142 11.2061L21.0854 11.5144C21.2532 11.8164 21.2532 12.1836 21.0854 12.4857L20.0755 14.3035C19.9295 14.0599 19.7293 13.8441 19.4797 13.6756L17.1259 12.0861C16.2216 11.4832 15.0013 11.7129 14.378 12.6033L13.3561 14.0631L12.2779 13.3967C11.3809 12.8891 10.2449 13.1464 9.65415 13.9911L6.92051 17.8993L3.91295 12.4856C3.74516 12.1836 3.74516 11.8164 3.91295 11.5144L7.80184 4.51436Z" fill="black"/>
<path d="M7.70102 9.81722C7.54066 9.33614 7.16316 8.95863 6.68207 8.79827C6.19246 8.63507 6.19246 7.94253 6.68207 7.77933C7.16316 7.61897 7.54066 7.24146 7.70102 6.76038C7.86422 6.27077 8.55677 6.27077 8.71997 6.76038C8.88033 7.24146 9.25783 7.61897 9.73892 7.77933C10.2285 7.94253 10.2285 8.63507 9.73892 8.79827C9.25783 8.95863 8.88033 9.33614 8.71997 9.81722C8.55677 10.3068 7.86422 10.3068 7.70102 9.81722Z" fill="black"/>
<path d="M18.4992 6C17.9469 6 17.4992 6.44772 17.4992 7C17.4992 7.55228 17.9469 8 18.4992 8H22.4992C23.0515 8 23.4992 7.55228 23.4992 7C23.4992 6.44772 23.0515 6 22.4992 6H18.4992Z" fill="black"/>
</svg>
