<svg width="25" height="24" viewBox="0 0 25 24" fill="none" xmlns="http://www.w3.org/2000/svg">
<path d="M7.70102 9.81722C7.54066 9.33614 7.16316 8.95863 6.68207 8.79827C6.19246 8.63507 6.19246 7.94253 6.68207 7.77933C7.16316 7.61897 7.54066 7.24146 7.70102 6.76038C7.86422 6.27077 8.55677 6.27077 8.71997 6.76038C8.88033 7.24146 9.25783 7.61897 9.73892 7.77933C10.2285 7.94253 10.2285 8.63507 9.73892 8.79827C9.25783 8.95863 8.88033 9.33614 8.71997 9.81722C8.55677 10.3068 7.86422 10.3068 7.70102 9.81722Z" fill="black"/>
<path fill-rule="evenodd" clip-rule="evenodd" d="M16.4992 21.9948C17.5196 21.9347 18.4445 21.3576 18.9449 20.4569L22.8337 13.4569C23.3371 12.5509 23.3371 11.4491 22.8337 10.5431L18.9449 3.54307C18.4157 2.59068 17.4119 2 16.3224 2H8.676C7.5865 2 6.58263 2.59068 6.05353 3.54307L2.16464 10.5431C1.66127 11.4491 1.66127 12.5509 2.16464 13.4569L6.05353 20.4569C6.53766 21.3284 7.41929 21.897 8.4003 21.9873V22H16.4992V21.9948ZM8.676 4C8.31283 4 7.97821 4.19689 7.80184 4.51436L3.91295 11.5144C3.74516 11.8164 3.74516 12.1836 3.91295 12.4856L6.92051 17.8993L9.65415 13.9911C10.2449 13.1464 11.3809 12.8891 12.2779 13.3967L13.3561 14.0631L14.378 12.6033C15.0013 11.7129 16.2216 11.4832 17.1259 12.0861L19.4797 13.6756C19.7293 13.8441 19.9294 14.0599 20.0755 14.3035L21.0854 12.4856C21.2532 12.1836 21.2532 11.8164 21.0854 11.5144L17.1965 4.51436C17.0202 4.19689 16.6856 4 16.3224 4H8.676Z" fill="black"/>
</svg>
