<svg width="25" height="24" viewBox="0 0 25 24" fill="none" xmlns="http://www.w3.org/2000/svg">
<path d="M4.34124 8.1559L14.1378 2.49986C14.6161 2.22372 15.2277 2.3876 15.5038 2.86589L21.0038 12.3922C21.8322 13.827 21.3406 15.6618 19.9057 16.4902L14.2883 19.7335C12.8534 20.5619 11.0186 20.0703 10.1902 18.6354L5.95566 11.301C5.70379 10.8647 5.34611 10.4989 4.91563 10.2373L4.32189 9.87649C3.67256 9.48187 3.6832 8.53582 4.34124 8.1559Z" fill="black"/>
<path d="M3.52522 14.4229L2.75579 16.7312C2.59876 17.2023 2.72137 17.7217 3.07251 18.0728C3.58451 18.5848 4.41462 18.5848 4.92661 18.0728C5.27775 17.7217 5.40037 17.2023 5.24333 16.7312L4.4739 14.4229C4.32195 13.967 3.67717 13.967 3.52522 14.4229Z" fill="black"/>
</svg>
