<svg width="25" height="24" viewBox="0 0 25 24" fill="none" xmlns="http://www.w3.org/2000/svg">
<path d="M21.709 3.20358C20.7644 6.56917 15.7063 12.4489 12.6607 15.6412C11.5171 14.3586 10.0251 12.796 8.4841 11.4279C11.7987 8.40286 17.8106 3.44523 20.8878 2.4129C21.4114 2.23724 21.8583 2.67185 21.709 3.20358Z" fill="black"/>
<path d="M8.23167 19.8043C9.17639 19.208 10.2589 18.5248 11.4271 17.8889C11.8811 17.6418 12.0118 17.0438 11.6754 16.6514C10.5955 15.3919 8.82758 13.4917 7.10429 12.111C6.83193 11.8928 6.45882 11.8427 6.14174 11.9885C3.58878 13.1624 3.75482 14.5107 4.28119 18.7852C4.36161 19.4383 4.45044 20.1596 4.53926 20.959C4.66134 22.0578 6.09359 21.1538 8.23167 19.8043Z" fill="black"/>
</svg>
