<svg width="25" height="24" viewBox="0 0 25 24" fill="none" xmlns="http://www.w3.org/2000/svg">
<path fill-rule="evenodd" clip-rule="evenodd" d="M7.49924 20.5C0.99922 17.5 -0.575802 3.5448 12.4992 3.00002C24.4999 2.5 24.4991 17.5 19.9991 17.5C18.953 17.5 18.1729 17.3813 17.5925 17.1956C17.1642 17.0586 16.6833 16.7991 16.1878 16.5318C15.1052 15.9477 13.9534 15.3264 13.1305 15.8634C12.3262 16.3882 11.9287 17.2146 12.9999 18.5C16.2008 22.3411 9.83231 21.6667 7.49924 20.5ZM16.9998 11C17.8282 11 18.4998 10.3284 18.4998 9.5C18.4998 8.67157 17.8282 8 16.9998 8C16.1713 8 15.4998 8.67157 15.4998 9.5C15.4998 10.3284 16.1713 11 16.9998 11ZM11.4998 8C11.4998 8.82843 10.8282 9.5 9.99976 9.5C9.17133 9.5 8.49976 8.82843 8.49976 8C8.49976 7.17157 9.17133 6.5 9.99976 6.5C10.8282 6.5 11.4998 7.17157 11.4998 8ZM7.99976 16C8.82818 16 9.49976 15.3284 9.49976 14.5C9.49976 13.6716 8.82818 13 7.99976 13C7.17133 13 6.49976 13.6716 6.49976 14.5C6.49976 15.3284 7.17133 16 7.99976 16Z" fill="black"/>
</svg>
