<svg width="25" height="24" viewBox="0 0 25 24" fill="none" xmlns="http://www.w3.org/2000/svg">
<path d="M5.5 4.8999H15.5C17.1569 4.8999 18.5 6.24305 18.5 7.8999V11.2659C18.4181 11.2554 18.3347 11.25 18.25 11.25C17.1761 11.25 16.3056 12.1206 16.3056 13.1944V14.45C15.4464 14.45 14.75 15.1464 14.75 16.0056V17.6999H11.75V18.6H13C13.5523 18.6 14 19.0477 14 19.6C14 20.1522 13.5523 20.6 13 20.6H8.5C7.94772 20.6 7.5 20.1522 7.5 19.6C7.5 19.0477 7.94772 18.6 8.5 18.6H9.75005V17.6999H5.5C3.84315 17.6999 2.5 16.3568 2.5 14.6999V7.89991C2.5 6.24305 3.84315 4.8999 5.5 4.8999Z" fill="black"/>
<path fill-rule="evenodd" clip-rule="evenodd" d="M15.5 18.6667V16.3222C15.5 15.4631 16.1964 14.7667 17.0556 14.7667V13.9444C17.0556 12.8706 17.9261 12 19 12C20.0739 12 20.9444 12.8706 20.9444 13.9444V14.7667C21.8036 14.7667 22.5 15.4631 22.5 16.3222V18.6667C22.5 19.219 22.0523 19.6667 21.5 19.6667H16.5C15.9477 19.6667 15.5 19.219 15.5 18.6667ZM19 13.25C19.2761 13.25 19.5 13.4739 19.5 13.75V14.65H18.5V13.75C18.5 13.4739 18.7239 13.25 19 13.25Z" fill="black"/>
</svg>
