<svg width="25" height="24" viewBox="0 0 25 24" fill="none" xmlns="http://www.w3.org/2000/svg">
<path d="M15.75 4.3999H5.75C4.09315 4.3999 2.75 5.74305 2.75 7.39991V14.1999C2.75 15.8568 4.09315 17.1999 5.75 17.1999H9.75005C9.75005 17.1999 9.75005 17.1999 9.75005 17.1999V18.6H8.5C7.94772 18.6 7.5 19.0477 7.5 19.6C7.5 20.1522 7.94772 20.6 8.5 20.6H13C13.5523 20.6 14 20.1522 14 19.6C14 19.0477 13.5523 18.6 13 18.6H11.75V17.2C11.75 17.1999 11.75 17.2 11.75 17.2L13.9188 17.1999L14.1912 11.8723C14.2592 10.543 15.3568 9.5 16.6879 9.5H18.75V7.3999C18.75 5.74305 17.4069 4.3999 15.75 4.3999Z" fill="black"/>
<path fill-rule="evenodd" clip-rule="evenodd" d="M20.0975 10.25H16.9025C15.8368 10.25 14.9582 11.0857 14.905 12.1501L14.605 18.1501C14.5479 19.2925 15.4587 20.25 16.6025 20.25H20.3975C21.5413 20.25 22.4521 19.2925 22.395 18.1501L22.095 12.1501C22.0418 11.0857 21.1632 10.25 20.0975 10.25ZM19.75 13.5C19.75 14.1904 19.1904 14.75 18.5 14.75C17.8097 14.75 17.25 14.1904 17.25 13.5C17.25 12.8096 17.8097 12.25 18.5 12.25C19.1904 12.25 19.75 12.8096 19.75 13.5ZM18.5 18.25C19.1904 18.25 19.75 17.6904 19.75 17C19.75 16.3096 19.1904 15.75 18.5 15.75C17.8097 15.75 17.25 16.3096 17.25 17C17.25 17.6904 17.8097 18.25 18.5 18.25Z" fill="black"/>
</svg>
