<svg width="25" height="24" viewBox="0 0 25 24" fill="none" xmlns="http://www.w3.org/2000/svg">
<path d="M5.75 4.3999H15.75C17.4069 4.3999 18.75 5.74305 18.75 7.3999V10.0088C18.6674 10.003 18.5841 10 18.5 10C16.567 10 15 11.567 15 13.5C15 14.4621 15.3882 15.3335 16.0164 15.9661C15.5762 16.3351 15.2128 16.7706 14.9407 17.1999H11.75V18.5999C12.3023 18.5999 12.75 19.0476 12.75 19.5999C12.75 20.1522 12.3023 20.5999 11.75 20.5999H7.55001C6.99773 20.5999 6.55001 20.1522 6.55001 19.5999C6.55001 19.0476 6.99773 18.5999 7.55001 18.5999H9.75001V17.1999L5.75 17.1999C4.09315 17.1999 2.75 15.8568 2.75 14.1999V7.39991C2.75 5.74305 4.09315 4.3999 5.75 4.3999Z" fill="black"/>
<path fill-rule="evenodd" clip-rule="evenodd" d="M16 13.5C16 11.9812 17.2312 10.75 18.75 10.75C20.2688 10.75 21.5 11.9812 21.5 13.5C21.5 14.589 20.867 15.5302 19.9488 15.9756C20.8824 16.3347 21.602 17.0647 22.0018 17.7413C22.1471 17.9871 22.2468 18.2747 22.2499 18.5922C22.2531 18.9137 22.1562 19.1994 22.0105 19.4341C21.7407 19.8689 21.3073 20.1286 20.9689 20.2841C20.2685 20.606 19.3749 20.75 18.75 20.75C18.1251 20.75 17.2315 20.606 16.5311 20.2841C16.1927 20.1286 15.7593 19.8689 15.4895 19.4341C15.3438 19.1994 15.2469 18.9137 15.2501 18.5922C15.2532 18.2747 15.3529 17.9871 15.4982 17.7413C15.898 17.0647 16.6176 16.3347 17.5512 15.9756C16.633 15.5302 16 14.589 16 13.5ZM18.75 12.75C18.3358 12.75 18 13.0858 18 13.5C18 13.9142 18.3358 14.25 18.75 14.25C19.1642 14.25 19.5 13.9142 19.5 13.5C19.5 13.0858 19.1642 12.75 18.75 12.75ZM18.75 17.75C18.2696 17.75 17.7597 18.0589 17.4105 18.4865C17.7976 18.6524 18.3658 18.75 18.75 18.75C19.1342 18.75 19.7024 18.6524 20.0895 18.4865C19.7403 18.0589 19.2304 17.75 18.75 17.75Z" fill="black"/>
</svg>
