<svg width="25" height="24" viewBox="0 0 25 24" fill="none" xmlns="http://www.w3.org/2000/svg">
<path d="M12.5 20.9998C17.1331 20.9998 20.9485 17.4989 21.4452 12.9982C21.5058 12.4492 21.0523 11.9998 20.5 11.9998H15.5C13.8431 11.9998 12.5 10.6566 12.5 8.99979V3.99979C12.5 3.4475 12.0506 2.99396 11.5016 3.05454C7.00088 3.55126 3.5 7.36668 3.5 11.9998C3.5 16.9704 7.52944 20.9998 12.5 20.9998Z" fill="black"/>
<path d="M22.4295 8.00276C21.992 4.93467 19.5651 2.50777 16.497 2.07025C15.9503 1.99229 15.5 2.4475 15.5 2.99979V7.99979C15.5 8.55207 15.9477 8.99979 16.5 8.99979H21.5C22.0523 8.99979 22.5075 8.54951 22.4295 8.00276Z" fill="black"/>
</svg>
