<svg width="24" height="24" viewBox="0 0 24 24" fill="none" xmlns="http://www.w3.org/2000/svg">
<path fill-rule="evenodd" clip-rule="evenodd" d="M14.4461 3.33992L17.9102 5.33992C19.3451 6.16835 19.8367 8.00312 19.0083 9.438L16.9625 12.9815C16.6663 13.4944 16.5287 14.0835 16.5668 14.6746L16.676 16.3683C16.7531 17.5638 15.4667 18.3629 14.4291 17.7639L10.7938 15.665C10.7938 15.665 10.7938 15.6651 10.7937 15.6651L7.04375 22.1603C6.76761 22.6386 6.15602 22.8025 5.67772 22.5263C5.19943 22.2502 5.03556 21.6386 5.3117 21.1603L9.0617 14.6651C9.06172 14.6651 9.06174 14.665 9.06176 14.665L5.42726 12.5666C4.38973 11.9676 4.43849 10.454 5.51242 9.92298L7.03383 9.17072C7.56475 8.90821 8.00609 8.49442 8.30223 7.98149L10.3481 4.438C11.1765 3.00312 13.0113 2.5115 14.4461 3.33992Z" fill="black"/>
</svg>
