<svg width="25" height="24" viewBox="0 0 25 24" fill="none" xmlns="http://www.w3.org/2000/svg">
<path d="M12.5 1C13.0523 1 13.5 1.44772 13.5 2V8.65269C14.5835 7.25868 16.6921 6 20.5 6C19.3953 9.45206 15.8279 10.8352 13.5 11.2208V12H18.3098C18.931 12 19.4019 12.5605 19.2948 13.1724L17.8948 21.1724C17.8111 21.6509 17.3956 22 16.9098 22H8.0902C7.60442 22 7.18891 21.6509 7.10517 21.1724L5.70517 13.1724C5.59808 12.5605 6.06898 12 6.6902 12H11.5V8.22084C9.17211 7.83525 5.60466 6.45206 4.5 3C8.30788 3 10.4165 4.25868 11.5 5.65269V2C11.5 1.44772 11.9477 1 12.5 1Z" fill="black"/>
</svg>
