<svg width="25" height="24" viewBox="0 0 25 24" fill="none" xmlns="http://www.w3.org/2000/svg">
<path d="M13.5 12.6527C14.5835 11.2587 16.6921 10 20.5 10C19.3953 13.4521 15.8279 14.8352 13.5 15.2208V18.2252C13.8034 18.3176 14.1819 18.4522 14.4961 18.6318C14.9282 18.8787 15.4813 19.2972 15.8892 19.6191C16.1016 19.7867 16.2902 19.9406 16.4257 20.0526C16.4935 20.1087 16.5484 20.1545 16.5865 20.1865L16.6309 20.2239L16.6463 20.2369L16.6473 20.2377C17.068 20.5955 17.1196 21.227 16.7618 21.6478C16.4041 22.0685 15.773 22.1196 15.3523 21.7619L15.3496 21.7596L15.3399 21.7514L15.3006 21.7183C15.2659 21.6892 15.2151 21.6467 15.1516 21.5943C15.0245 21.4892 14.8479 21.3451 14.6502 21.1891C14.238 20.8638 13.791 20.5323 13.5039 20.3682C13.348 20.2792 13.0725 20.1806 12.778 20.0977C12.6741 20.0685 12.5784 20.044 12.5 20.0251C12.4216 20.044 12.3259 20.0685 12.222 20.0977C11.9275 20.1806 11.652 20.2792 11.4961 20.3682C11.209 20.5323 10.762 20.8638 10.3498 21.1891C10.1521 21.3451 9.97553 21.4892 9.84839 21.5943C9.78494 21.6467 9.73409 21.6892 9.69942 21.7183L9.66006 21.7514L9.65036 21.7596L9.64816 21.7615C9.22741 22.1192 8.59591 22.0685 8.23817 21.6478C7.88041 21.227 7.93148 20.5959 8.35222 20.2382C9.00639 21.0075 9.03982 21.0468 8.35222 20.2382L8.3537 20.2369L8.35703 20.2341L8.36906 20.2239L8.41345 20.1865C8.45163 20.1545 8.50646 20.1087 8.57432 20.0526C8.70979 19.9406 8.89838 19.7867 9.11078 19.6191C9.51873 19.2972 10.0718 18.8787 10.5039 18.6318C10.8181 18.4522 11.1966 18.3176 11.5 18.2252V9.6962C8.93629 9.08355 5.61099 7.47184 4.5 4C10.646 4 12.8573 6.91457 13.373 9.01187C13.4539 9.15624 13.5 9.32274 13.5 9.5V12.6527Z" fill="black"/>
</svg>
