<svg width="25" height="24" viewBox="0 0 25 24" fill="none" xmlns="http://www.w3.org/2000/svg">
<path d="M2.5 4.5C2.5 3.94772 2.94772 3.5 3.5 3.5H21.5C22.0523 3.5 22.5 3.94772 22.5 4.5C22.5 5.05228 22.0523 5.5 21.5 5.5H3.5C2.94772 5.5 2.5 5.05228 2.5 4.5Z" fill="black"/>
<path d="M2.5 9.5C2.5 8.94772 2.94772 8.5 3.5 8.5H12.5C13.0523 8.5 13.5 8.94772 13.5 9.5C13.5 10.0523 13.0523 10.5 12.5 10.5H3.5C2.94772 10.5 2.5 10.0523 2.5 9.5Z" fill="black"/>
<path d="M2.5 14.5C2.5 13.9477 2.94772 13.5 3.5 13.5H9.5C10.0523 13.5 10.5 13.9477 10.5 14.5C10.5 15.0523 10.0523 15.5 9.5 15.5H3.5C2.94772 15.5 2.5 15.0523 2.5 14.5Z" fill="black"/>
<path d="M2.5 19.5C2.5 18.9477 2.94772 18.5 3.5 18.5H9.5C10.0523 18.5 10.5 18.9477 10.5 19.5C10.5 20.0523 10.0523 20.5 9.5 20.5H3.5C2.94772 20.5 2.5 20.0523 2.5 19.5Z" fill="black"/>
<path d="M18.097 7C18.1516 7 18.2047 7.00654 18.2558 7.01891C18.2661 7.02034 18.2782 7.02367 18.292 7.02879C18.4009 7.06174 18.4989 7.1216 18.579 7.20104C18.9023 7.429 19.3997 7.83932 19.9024 8.25405C20.5422 8.78189 21.1907 9.31688 21.5 9.49211C21.4199 10.4263 20.7608 12.2149 18.7981 12.5136V16.142C18.8055 16.2366 18.8003 16.3294 18.7889 16.4155C18.7881 16.4414 18.7863 16.4673 18.7835 16.4933C18.5894 18.3157 17.3318 20 15.5193 20C14.2054 20 13.1831 18.2299 12.6462 17.0455C12.3581 16.4102 12.492 15.657 13.0815 15.3613C13.6005 15.101 14.3866 14.8604 15.5193 14.8604C16.3013 14.8604 16.9181 14.9751 17.3959 15.1318V7.73423C17.3959 7.32873 17.7098 7 18.097 7Z" fill="black"/>
</svg>
