<svg width="25" height="24" viewBox="0 0 25 24" fill="none" xmlns="http://www.w3.org/2000/svg">
<path d="M16.8053 2.79999C15.3273 2.24306 13.7026 2.21171 12.2041 2.71119C9.47029 3.62246 7.60242 6.13661 7.50408 8.99998H4.5C3.94772 8.99998 3.5 9.4477 3.5 9.99998C3.5 10.5523 3.94772 11 4.5 11H7.5V12.5H4.5C3.94772 12.5 3.5 12.9477 3.5 13.5C3.5 14.0523 3.94772 14.5 4.5 14.5H7.5V14.7622C7.5 17.7234 9.39485 20.3524 12.2041 21.2888C13.7026 21.7883 15.3273 21.7569 16.8053 21.2L17.2795 21.0213C19.3923 20.2252 20.9669 18.4249 21.4744 16.2248C21.5986 15.6866 21.2629 15.1497 20.7248 15.0256C20.1866 14.9014 19.6497 15.237 19.5256 15.7752C19.1685 17.3231 18.0608 18.5897 16.5743 19.1498L16.1002 19.3284C15.0518 19.7234 13.8994 19.7457 12.8365 19.3914C10.844 18.7272 9.5 16.8625 9.5 14.7622V14.5H15.5C16.0523 14.5 16.5 14.0523 16.5 13.5C16.5 12.9477 16.0523 12.5 15.5 12.5H9.5V11H15.5C16.0523 11 16.5 10.5523 16.5 9.99998C16.5 9.4477 16.0523 8.99998 15.5 8.99998H9.50576C9.60283 6.99779 10.9195 5.24757 12.8365 4.60856C13.8994 4.25428 15.0518 4.27652 16.1002 4.67154L16.5743 4.85019C18.0608 5.4103 19.1685 6.67691 19.5256 8.22477C19.6497 8.76292 20.1866 9.09854 20.7248 8.97439C21.2629 8.85025 21.5986 8.31335 21.4744 7.7752C20.9669 5.57509 19.3923 3.77476 17.2795 2.97864L16.8053 2.79999Z" fill="black"/>
</svg>
