<svg width="25" height="24" viewBox="0 0 25 24" fill="none" xmlns="http://www.w3.org/2000/svg">
<path d="M13.5 3C13.5 2.44772 13.0523 2 12.5 2C11.9477 2 11.5 2.44772 11.5 3V11C11.5 11.5523 11.9477 12 12.5 12C13.0523 12 13.5 11.5523 13.5 11V3Z" fill="black"/>
<path d="M4.5 13C4.5 9.27236 7.04955 6.14016 10.5 5.25208V11C10.5 12.1046 11.3954 13 12.5 13C13.6046 13 14.5 12.1046 14.5 11V5.25208C17.9505 6.14016 20.5 9.27236 20.5 13C20.5 17.4183 16.9183 21 12.5 21C8.08172 21 4.5 17.4183 4.5 13Z" fill="black"/>
</svg>
