<svg width="25" height="24" viewBox="0 0 25 24" fill="none" xmlns="http://www.w3.org/2000/svg">
<path d="M3.5 6C2.94772 6 2.5 6.44772 2.5 7V18C2.5 18.5523 2.94772 19 3.5 19C4.05228 19 4.5 18.5523 4.5 18V14.0235L10.1016 16.823C11.2035 17.3737 12.5 16.5728 12.5 15.3414V12.5011C12.5004 13.0889 12.8057 13.6766 13.4161 13.9816L19.1016 16.823C20.2035 17.3737 21.5 16.5728 21.5 15.3414V9.65863C21.5 8.42722 20.2035 7.62632 19.1016 8.17702L13.4161 11.0184C12.8057 11.3234 12.5004 11.9111 12.5 12.4989V9.65863C12.5 8.42722 11.2035 7.62632 10.1016 8.17702L4.5 10.9765V7C4.5 6.44772 4.05228 6 3.5 6Z" fill="black"/>
</svg>
