<svg width="25" height="24" viewBox="0 0 25 24" fill="none" xmlns="http://www.w3.org/2000/svg">
<path d="M8.5 3V4H16.5V3C16.5 2.44772 16.0523 2 15.5 2H9.5C8.94772 2 8.5 2.44772 8.5 3Z" fill="black"/>
<path fill-rule="evenodd" clip-rule="evenodd" d="M2.5 15V8C2.5 6.34315 3.84315 5 5.5 5H19.5C21.1569 5 22.5 6.34315 22.5 8V15C22.5 16.6569 21.1569 18 19.5 18H18.5V13C18.5 11.8954 17.6046 11 16.5 11H8.5C7.39543 11 6.5 11.8954 6.5 13V18H5.5C3.84315 18 2.5 16.6569 2.5 15ZM6.5 8C7.05228 8 7.5 8.44772 7.5 9C7.5 9.55228 7.05228 10 6.5 10C5.94772 10 5.5 9.55228 5.5 9C5.5 8.44772 5.94772 8 6.5 8Z" fill="black"/>
<path fill-rule="evenodd" clip-rule="evenodd" d="M7.5 21V13C7.5 12.4477 7.94772 12 8.5 12H16.5C17.0523 12 17.5 12.4477 17.5 13V21C17.5 21.5523 17.0523 22 16.5 22H8.5C7.94772 22 7.5 21.5523 7.5 21ZM10 15.5C10 14.9477 10.4477 14.5 11 14.5H14C14.5523 14.5 15 14.9477 15 15.5C15 16.0523 14.5523 16.5 14 16.5H11C10.4477 16.5 10 16.0523 10 15.5ZM11 17.5C10.4477 17.5 10 17.9477 10 18.5C10 19.0523 10.4477 19.5 11 19.5H13C13.5523 19.5 14 19.0523 14 18.5C14 17.9477 13.5523 17.5 13 17.5H11Z" fill="black"/>
</svg>
