<svg width="25" height="24" viewBox="0 0 25 24" fill="none" xmlns="http://www.w3.org/2000/svg">
<path d="M9 10C9 9.72386 9.22386 9.5 9.5 9.5H15.5C15.7761 9.5 16 9.72386 16 10V14C16 14.2761 15.7761 14.5 15.5 14.5H9.5C9.22386 14.5 9 14.2761 9 14V10Z" fill="black"/>
<path fill-rule="evenodd" clip-rule="evenodd" d="M17 2C17.5523 2 18 2.44772 18 3V5C18 5.01385 17.9997 5.02763 17.9992 5.04134C18.8968 5.19168 19.6594 5.74063 20.0987 6.5H21.5C22.0523 6.5 22.5 6.94772 22.5 7.5C22.5 8.05228 22.0523 8.5 21.5 8.5H20.5V9.5H21.5C22.0523 9.5 22.5 9.94772 22.5 10.5C22.5 11.0523 22.0523 11.5 21.5 11.5H20.5V12.5H21.5C22.0523 12.5 22.5 12.9477 22.5 13.5C22.5 14.0523 22.0523 14.5 21.5 14.5H20.5V15.5H21.5C22.0523 15.5 22.5 15.9477 22.5 16.5C22.5 17.0523 22.0523 17.5 21.5 17.5H20.0987C19.7413 18.1177 19.1701 18.5961 18.4863 18.8341C18.4953 18.8881 18.5 18.9435 18.5 19V21C18.5 21.5523 18.0523 22 17.5 22C16.9477 22 16.5 21.5523 16.5 21V19H15.5V21C15.5 21.5523 15.0523 22 14.5 22C13.9477 22 13.5 21.5523 13.5 21V19H12.5V21C12.5 21.5523 12.0523 22 11.5 22C10.9477 22 10.5 21.5523 10.5 21V19H9.5V21C9.5 21.5523 9.05228 22 8.5 22C7.94772 22 7.5 21.5523 7.5 21V19C6.38958 19 5.42006 18.3967 4.90135 17.5H3.5C2.94772 17.5 2.5 17.0523 2.5 16.5C2.5 15.9477 2.94772 15.5 3.5 15.5H4.5V14.5H3.5C2.94772 14.5 2.5 14.0523 2.5 13.5C2.5 12.9477 2.94772 12.5 3.5 12.5H4.5V11.5H3.5C2.94772 11.5 2.5 11.0523 2.5 10.5C2.5 9.94772 2.94772 9.5 3.5 9.5H4.5V8.5H3.5C2.94772 8.5 2.5 8.05228 2.5 7.5C2.5 6.94772 2.94772 6.5 3.5 6.5H4.90135C5.34062 5.74063 6.10318 5.19167 7.00084 5.04134C7.00028 5.02763 7 5.01385 7 5V3C7 2.44772 7.44772 2 8 2C8.55228 2 9 2.44772 9 3V5H10V3C10 2.44772 10.4477 2 11 2C11.5523 2 12 2.44772 12 3V5H13V3C13 2.44772 13.4477 2 14 2C14.5523 2 15 2.44772 15 3V5H16V3C16 2.44772 16.4477 2 17 2ZM9.5 7.5C8.11929 7.5 7 8.61929 7 10V14C7 15.3807 8.11929 16.5 9.5 16.5H15.5C16.8807 16.5 18 15.3807 18 14V10C18 8.61929 16.8807 7.5 15.5 7.5H9.5Z" fill="black"/>
</svg>
