<svg width="25" height="24" viewBox="0 0 25 24" fill="none" xmlns="http://www.w3.org/2000/svg">
<path d="M14.8986 4.01565L15.2071 3.70711C15.5976 3.31658 15.5976 2.68342 15.2071 2.29289C14.8166 1.90237 14.1834 1.90237 13.7929 2.29289L11.7929 4.29289C11.4024 4.68342 11.4024 5.31658 11.7929 5.70711L13.7929 7.70711C14.1834 8.09763 14.8166 8.09763 15.2071 7.70711C15.5976 7.31658 15.5976 6.68342 15.2071 6.29289L14.9473 6.03313C16.392 6.24911 17.5 7.49516 17.5 9V17C17.5 17.0683 17.5068 17.135 17.5199 17.1994C16.6263 17.5806 16 18.4672 16 19.5C16 20.8807 17.1193 22 18.5 22C19.8807 22 21 20.8807 21 19.5C21 18.4672 20.3737 17.5806 19.4801 17.1994C19.4932 17.135 19.5 17.0683 19.5 17V9C19.5 6.37273 17.4736 4.21874 14.8986 4.01565Z" fill="black"/>
<path d="M5 5.5C5 6.52516 5.61705 7.4062 6.5 7.79198V17C6.5 17.0683 6.50685 17.135 6.51989 17.1994C5.62633 17.5806 5 18.4672 5 19.5C5 20.8807 6.11929 22 7.5 22C8.88071 22 10 20.8807 10 19.5C10 18.4672 9.37367 17.5806 8.48011 17.1994C8.49315 17.135 8.5 17.0683 8.5 17V7.79198C9.38295 7.4062 10 6.52516 10 5.5C10 4.11929 8.88071 3 7.5 3C6.11929 3 5 4.11929 5 5.5Z" fill="black"/>
</svg>
