<svg width="25" height="24" viewBox="0 0 25 24" fill="none" xmlns="http://www.w3.org/2000/svg">
<path d="M2.5 5.5V3.5C2.5 2.67157 3.17157 2 4 2H6C6.82843 2 7.5 2.67157 7.5 3.5V5.5C7.5 6.32843 6.82843 7 6 7H4C3.17157 7 2.5 6.32843 2.5 5.5Z" fill="black"/>
<path d="M17.5 5.5V3.5C17.5 2.67157 18.1716 2 19 2H21C21.8284 2 22.5 2.67157 22.5 3.5V5.5C22.5 6.32843 21.8284 7 21 7H19C18.1716 7 17.5 6.32843 17.5 5.5Z" fill="black"/>
<path d="M2.5 18.5V20.5C2.5 21.3284 3.17157 22 4 22H6C6.82843 22 7.5 21.3284 7.5 20.5V18.5C7.5 17.6716 6.82843 17 6 17H4C3.17157 17 2.5 17.6716 2.5 18.5Z" fill="black"/>
<path d="M13.5 3C13.5 2.44772 13.9477 2 14.5 2C15.0523 2 15.5 2.44772 15.5 3C15.5 3.55228 15.0523 4 14.5 4C13.9477 4 13.5 3.55228 13.5 3Z" fill="black"/>
<path d="M10.5 4C9.94772 4 9.5 4.44772 9.5 5V7C9.5 7.55228 9.94772 8 10.5 8H9.5C8.94772 8 8.5 8.44772 8.5 9C8.5 9.55228 8.94772 10 9.5 10C10.0523 10 10.5 9.55228 10.5 9V13C10.5 13.5523 10.9477 14 11.5 14H14.5C13.9477 14 13.5 14.4477 13.5 15V16H10.5C9.94772 16 9.5 16.4477 9.5 17C9.5 17.5523 9.94772 18 10.5 18H11.5V20H10.5C9.94772 20 9.5 20.4477 9.5 21C9.5 21.5523 9.94772 22 10.5 22H12.5C13.0523 22 13.5 21.5523 13.5 21V16H14.5C15.0523 16 15.5 15.5523 15.5 15C15.5 14.4477 15.0523 14 14.5 14H15.5C16.0523 14 16.5 13.5523 16.5 13C16.5 12.4477 16.0523 12 15.5 12H12.5V9C12.5 9.55228 12.9477 10 13.5 10H14.5C15.0523 10 15.5 9.55228 15.5 9C15.5 8.44772 15.0523 8 14.5 8H12.5C13.0523 8 13.5 7.55228 13.5 7C13.5 6.44772 13.0523 6 12.5 6H11.5V5C11.5 4.44772 11.0523 4 10.5 4Z" fill="black"/>
<path d="M13.5 4C12.9477 4 12.5 4.44772 12.5 5C12.5 5.55228 12.9477 6 13.5 6C14.0523 6 14.5 5.55228 14.5 5C14.5 4.44772 14.0523 4 13.5 4Z" fill="black"/>
<path d="M18.5 16C17.9477 16 17.5 15.5523 17.5 15V13C17.5 12.4477 17.9477 12 18.5 12C19.0523 12 19.5 12.4477 19.5 13V14H20.5C21.0523 14 21.5 14.4477 21.5 15C21.5 15.5523 21.0523 16 20.5 16H19.5C20.0523 16 20.5 16.4477 20.5 17V18H21.5C22.0523 18 22.5 18.4477 22.5 19V21C22.5 21.5523 22.0523 22 21.5 22C20.9477 22 20.5 21.5523 20.5 21V20H19.5C18.9477 20 18.5 19.5523 18.5 19V18H15.5C14.9477 18 14.5 17.5523 14.5 17C14.5 16.4477 14.9477 16 15.5 16H18.5Z" fill="black"/>
<path d="M21.5 12C20.9477 12 20.5 12.4477 20.5 13C20.5 13.5523 20.9477 14 21.5 14C22.0523 14 22.5 13.5523 22.5 13C22.5 12.4477 22.0523 12 21.5 12Z" fill="black"/>
<path d="M18.5 20C17.9477 20 17.5 20.4477 17.5 21C17.5 21.5523 17.9477 22 18.5 22C19.0523 22 19.5 21.5523 19.5 21C19.5 20.4477 19.0523 20 18.5 20Z" fill="black"/>
<path d="M15.5 19C14.9477 19 14.5 19.4477 14.5 20C14.5 20.5523 14.9477 21 15.5 21C16.0523 21 16.5 20.5523 16.5 20C16.5 19.4477 16.0523 19 15.5 19Z" fill="black"/>
<path d="M6.5 12H7.5C8.05228 12 8.5 12.4477 8.5 13C8.5 13.5523 8.05228 14 7.5 14H3.5C2.94772 14 2.5 13.5523 2.5 13V11C2.5 10.4477 2.94772 10 3.5 10H5.5C6.05228 10 6.5 10.4477 6.5 11V12Z" fill="black"/>
<path d="M17.5 9C16.9477 9 16.5 9.44772 16.5 10C16.5 10.5523 16.9477 11 17.5 11H21.5C22.0523 11 22.5 10.5523 22.5 10C22.5 9.44772 22.0523 9 21.5 9H17.5Z" fill="black"/>
</svg>
