<svg width="25" height="24" viewBox="0 0 25 24" fill="none" xmlns="http://www.w3.org/2000/svg">
<path d="M7.5 10.3405V7C7.5 5.34315 8.84315 4 10.5 4H15.5C17.1569 4 18.5 5.34315 18.5 7V12.2903C18.5 12.5135 18.476 12.7344 18.4147 12.949C18.0833 14.1087 16.7306 18.0667 13.3929 19.4363C12.5797 19.77 11.7199 19.9183 10.9603 19.973C10.0902 20.0357 9.71052 18.909 10.1591 18.1609C10.3374 17.8636 10.5048 17.5312 10.6429 17.1663C10.86 16.5922 10.9728 16.027 11.0278 15.5361C11.1361 14.569 10.5212 13.724 9.65562 13.2794L9.12935 13.009C8.12898 12.4952 7.5 11.4651 7.5 10.3405Z" fill="black"/>
</svg>
