<svg width="25" height="24" viewBox="0 0 25 24" fill="none" xmlns="http://www.w3.org/2000/svg">
<path fill-rule="evenodd" clip-rule="evenodd" d="M4.5 18.812V5C4.5 3.34315 5.84315 2 7.5 2H17.5C19.1569 2 20.5 3.34315 20.5 5V18.812C20.5 20.7361 18.4751 21.9876 16.7541 21.1271C16.5852 21.0426 16.4076 20.9769 16.2244 20.9311L13.2276 20.1819C12.7499 20.0625 12.2501 20.0625 11.7724 20.1819L8.77564 20.9311C8.59243 20.9769 8.41478 21.0426 8.24587 21.1271C6.52488 21.9876 4.5 20.7361 4.5 18.812ZM8.5 6C7.94772 6 7.5 6.44772 7.5 7C7.5 7.55228 7.94772 8 8.5 8H16.5C17.0523 8 17.5 7.55228 17.5 7C17.5 6.44772 17.0523 6 16.5 6H8.5ZM7.5 12C7.5 11.4477 7.94772 11 8.5 11H16.5C17.0523 11 17.5 11.4477 17.5 12C17.5 12.5523 17.0523 13 16.5 13H8.5C7.94772 13 7.5 12.5523 7.5 12ZM8.5 16C7.94772 16 7.5 16.4477 7.5 17C7.5 17.5523 7.94772 18 8.5 18H11.1667C11.719 18 12.1667 17.5523 12.1667 17C12.1667 16.4477 11.719 16 11.1667 16H8.5ZM13.8333 16C13.281 16 12.8333 16.4477 12.8333 17C12.8333 17.5523 13.281 18 13.8333 18H16.5C17.0523 18 17.5 17.5523 17.5 17C17.5 16.4477 17.0523 16 16.5 16H13.8333Z" fill="black"/>
</svg>
