<svg width="25" height="24" viewBox="0 0 25 24" fill="none" xmlns="http://www.w3.org/2000/svg">
<path fill-rule="evenodd" clip-rule="evenodd" d="M5.5 2C3.84315 2 2.5 3.34315 2.5 5V19C2.5 20.6569 3.84315 22 5.5 22H19.5C21.1569 22 22.5 20.6569 22.5 19V5C22.5 3.34315 21.1569 2 19.5 2H5.5ZM20.9571 8.70711C21.3476 8.31658 21.3476 7.68342 20.9571 7.29289L16.9571 3.29289C16.5666 2.90237 15.9334 2.90237 15.5429 3.29289C15.1524 3.68342 15.1524 4.31658 15.5429 4.70711L17.8358 7H10.25C6.66015 7 3.75 9.91015 3.75 13.5C3.75 17.0899 6.66015 20 10.25 20H18.25C18.8023 20 19.25 19.5523 19.25 19C19.25 18.4477 18.8023 18 18.25 18H10.25C7.76472 18 5.75 15.9853 5.75 13.5C5.75 11.0147 7.76472 9 10.25 9H17.8358L15.5429 11.2929C15.1524 11.6834 15.1524 12.3166 15.5429 12.7071C15.9334 13.0976 16.5666 13.0976 16.9571 12.7071L20.9571 8.70711Z" fill="black"/>
</svg>
