<svg width="25" height="24" viewBox="0 0 25 24" fill="none" xmlns="http://www.w3.org/2000/svg">
<path fill-rule="evenodd" clip-rule="evenodd" d="M2.5 5C2.5 3.34315 3.84315 2 5.5 2H19.5C21.1569 2 22.5 3.34315 22.5 5V19C22.5 20.6569 21.1569 22 19.5 22H5.5C3.84315 22 2.5 20.6569 2.5 19V5ZM17.5 4C16.9477 4 16.5 4.44772 16.5 5V5.39987C15.2712 4.51968 13.7799 4 12.1664 4C7.88691 4 4.5 7.6283 4.5 12C4.5 12.5523 4.94772 13 5.5 13C6.05229 13 6.5 12.5523 6.5 12C6.5 8.63971 9.08239 6 12.1664 6C13.1926 6 14.1595 6.28923 14.9951 6.8H14.833C14.2807 6.8 13.833 7.24771 13.833 7.8C13.833 8.35228 14.2807 8.8 14.833 8.8H17.5C18.0523 8.8 18.5 8.35228 18.5 7.8V5C18.5 4.44772 18.0523 4 17.5 4ZM8.5 19C8.5 19.5523 8.05228 20 7.5 20C6.94772 20 6.5 19.5523 6.5 19V16.2C6.5 15.6477 6.94772 15.2 7.5 15.2H10.167C10.7193 15.2 11.167 15.6477 11.167 16.2C11.167 16.7523 10.7193 17.2 10.167 17.2H10.0049C10.8405 17.7108 11.8074 18 12.8336 18C15.9176 18 18.5 15.3603 18.5 12C18.5 11.4477 18.9477 11 19.5 11C20.0523 11 20.5 11.4477 20.5 12C20.5 16.3717 17.1131 20 12.8336 20C11.2201 20 9.72884 19.4803 8.5 18.6001V19Z" fill="black"/>
</svg>
