<svg width="25" height="24" viewBox="0 0 25 24" fill="none" xmlns="http://www.w3.org/2000/svg">
<path d="M17.7242 2.36905C18.0727 1.94059 18.7025 1.87575 19.131 2.22423L22.131 4.66423C22.3524 4.84431 22.4863 5.11041 22.499 5.39551C22.5117 5.68062 22.402 5.95757 22.1975 6.15663L19.1975 9.07663C18.8017 9.46184 18.1686 9.45328 17.7834 9.05752C17.3982 8.66175 17.4067 8.02865 17.8025 7.64344L19.0389 6.44003H10.06C6.9893 6.44003 4.5 8.92933 4.5 12C4.5 12.5523 4.05228 13 3.5 13C2.94772 13 2.5 12.5523 2.5 12C2.5 7.82476 5.88473 4.44003 10.06 4.44003H18.6857L17.869 3.77583C17.4406 3.42735 17.3757 2.79751 17.7242 2.36905Z" fill="black"/>
<path d="M7.2758 21.631C6.92732 22.0595 6.29748 22.1243 5.86902 21.7758L2.86902 19.3358C2.64762 19.1558 2.5137 18.8897 2.50099 18.6046C2.48829 18.3194 2.59801 18.0425 2.80252 17.8434L5.80251 14.9234C6.19828 14.5382 6.83138 14.5468 7.2166 14.9425C7.60181 15.3383 7.59325 15.9714 7.19749 16.3566L5.96111 17.56H14.94C18.0107 17.56 20.5 15.0707 20.5 12C20.5 11.4477 20.9477 11 21.5 11C22.0523 11 22.5 11.4477 22.5 12C22.5 16.1753 19.1153 19.56 14.94 19.56H6.31434L7.13098 20.2242C7.55944 20.5727 7.62428 21.2026 7.2758 21.631Z" fill="black"/>
<path d="M13.2536 9.84776C13.2536 9.22896 12.7519 8.72733 12.1331 8.72733C11.9209 8.72733 11.7131 8.78759 11.5338 8.90111L10.2768 9.69693C10.1093 9.80297 10.0078 9.98739 10.0078 10.1856C10.0078 10.6403 10.5082 11.1172 10.8934 10.8757L11.3935 10.566C11.4407 10.5367 11.5702 10.4758 11.6221 10.4561C11.6693 10.438 11.7159 10.4745 11.7159 10.5251V15.2312C11.7159 15.6558 12.0601 16.0001 12.4847 16.0001C12.9093 16.0001 13.2536 15.6558 13.2536 15.2312V9.84776Z" fill="black"/>
</svg>
