<svg width="25" height="24" viewBox="0 0 25 24" fill="none" xmlns="http://www.w3.org/2000/svg">
<path d="M19.131 2.22423C18.7025 1.87575 18.0727 1.94059 17.7242 2.36905C17.3757 2.79751 17.4406 3.42735 17.869 3.77583L18.6857 4.44003H10.06C5.88473 4.44003 2.5 7.82476 2.5 12C2.5 12.5523 2.94772 13 3.5 13C4.05228 13 4.5 12.5523 4.5 12C4.5 8.92933 6.9893 6.44003 10.06 6.44003H19.0389L17.8025 7.64344C17.4067 8.02865 17.3982 8.66175 17.7834 9.05752C18.1686 9.45328 18.8017 9.46184 19.1975 9.07663L22.1975 6.15663C22.402 5.95757 22.5117 5.68062 22.499 5.39551C22.4863 5.11041 22.3524 4.84431 22.131 4.66423L19.131 2.22423Z" fill="black"/>
<path d="M5.86902 21.7758C6.29748 22.1243 6.92732 22.0595 7.2758 21.631C7.62428 21.2026 7.55944 20.5727 7.13098 20.2242L6.31434 19.56H14.94C19.1153 19.56 22.5 16.1753 22.5 12C22.5 11.4477 22.0523 11 21.5 11C20.9477 11 20.5 11.4477 20.5 12C20.5 15.0707 18.0107 17.56 14.94 17.56H5.96111L7.19749 16.3566C7.59325 15.9714 7.60181 15.3383 7.2166 14.9425C6.83138 14.5468 6.19828 14.5382 5.80251 14.9234L2.80252 17.8434C2.59801 18.0425 2.48829 18.3194 2.50099 18.6046C2.5137 18.8897 2.64762 19.1558 2.86902 19.3358L5.86902 21.7758Z" fill="black"/>
</svg>
