<svg width="25" height="24" viewBox="0 0 25 24" fill="none" xmlns="http://www.w3.org/2000/svg">
<path fill-rule="evenodd" clip-rule="evenodd" d="M3.62087 9.87873L10.3782 3.12136C11.5498 1.94978 13.4493 1.94978 14.6209 3.12136L21.3783 9.87873C22.5498 11.0503 22.5498 12.9498 21.3783 14.1214L14.6209 20.8787C13.4493 22.0503 11.5498 22.0503 10.3782 20.8787L3.62087 14.1214C2.44929 12.9498 2.44929 11.0503 3.62087 9.87873ZM14.252 7.70839C13.8278 7.35483 13.1972 7.41215 12.8436 7.83643C12.559 8.17802 12.5407 8.65334 12.7658 9.01015C11.4078 9.78029 10.4995 11.2386 10.4995 12.8989L10.4995 15.7737C10.4995 16.326 10.9473 16.7737 11.4995 16.7737C12.0518 16.7737 12.4995 16.326 12.4995 15.7737V12.8989C12.4995 12.305 12.71 11.7578 13.062 11.3304C13.1482 11.5559 13.3158 11.751 13.5487 11.8674C14.0427 12.1144 14.6434 11.9142 14.8903 11.4202L15.6507 9.89952C15.7319 9.74427 15.7734 9.56567 15.7623 9.37803C15.7454 9.08993 15.6081 8.83751 15.4021 8.66678L14.252 7.70839Z" fill="black"/>
</svg>
