<svg width="25" height="24" viewBox="0 0 25 24" fill="none" xmlns="http://www.w3.org/2000/svg">
<path fill-rule="evenodd" clip-rule="evenodd" d="M8.03857 18C7.59261 4.86248 11.1412 2.55504 12.5001 2.00769C13.8589 2.55504 17.4075 4.86248 16.9616 18C13.5001 15 11.5001 15 8.03857 18ZM14.0001 8.5C14.0001 9.32843 13.3285 10 12.5001 10C11.6717 10 11.0001 9.32843 11.0001 8.5C11.0001 7.67157 11.6717 7 12.5001 7C13.3285 7 14.0001 7.67157 14.0001 8.5Z" fill="black"/>
<path d="M7.00008 13C5.85153 13.1667 4.10629 15.6 4.50008 20C5.68228 20 6.21652 19.1616 6.62088 18.527C6.75529 18.316 6.87534 18.1276 7.00008 18V13Z" fill="black"/>
<path d="M18.0001 13C19.1486 13.1667 20.8939 15.6 20.5001 20C19.3179 20 18.7836 19.1616 18.3793 18.527C18.2449 18.316 18.1248 18.1276 18.0001 18V13Z" fill="black"/>
<path d="M12.5001 22.5C12.5001 22.5 11.1667 20.5 11.0001 19.5C11.0001 19.5 11.7961 18.5 12.5001 18.5C13.2041 18.5 14.0001 19.5 14.0001 19.5C13.6667 20.8333 12.5001 22.5 12.5001 22.5Z" fill="black"/>
</svg>
