<svg width="25" height="24" viewBox="0 0 25 24" fill="none" xmlns="http://www.w3.org/2000/svg">
<path fill-rule="evenodd" clip-rule="evenodd" d="M6.89647 11.1782C15.8708 1.57323 20.0116 2.45088 21.3595 3.02469C21.9333 4.37256 22.811 8.51343 13.206 17.4877C12.8797 12.9187 11.4654 11.5045 6.89647 11.1782ZM17.8297 8.67612C17.2439 9.26191 16.2942 9.26191 15.7084 8.67612C15.1226 8.09033 15.1226 7.14059 15.7084 6.5548C16.2942 5.96901 17.2439 5.96901 17.8297 6.5548C18.4155 7.14059 18.4155 8.09033 17.8297 8.67612Z" fill="black"/>
<path d="M9.69798 6.71802C8.76799 6.02373 5.81329 6.51028 2.98047 9.9C3.81641 10.7359 4.78703 10.5208 5.52169 10.358C5.76588 10.3039 5.98401 10.2556 6.16245 10.2536L9.69798 6.71802Z" fill="black"/>
<path d="M17.4763 14.6868C18.1706 15.6168 17.684 18.5715 14.2943 21.4043C13.4584 20.5683 13.6735 19.5977 13.8363 18.8631C13.8904 18.6189 13.9387 18.4007 13.9408 18.2223L17.4763 14.6868Z" fill="black"/>
<path d="M6.86942 17.5151C6.86942 17.5151 7.34083 15.158 7.93009 14.3331C7.93009 14.3331 9.20003 14.1888 9.69785 14.6866C10.1957 15.1845 10.0514 16.4544 10.0514 16.4544C8.87289 17.1615 6.86942 17.5151 6.86942 17.5151Z" fill="black"/>
</svg>
