<svg width="25" height="24" viewBox="0 0 25 24" fill="none" xmlns="http://www.w3.org/2000/svg">
<path fill-rule="evenodd" clip-rule="evenodd" d="M5.5 2C3.84315 2 2.5 3.34315 2.5 5V19C2.5 20.6569 3.84315 22 5.5 22H19.5C21.1569 22 22.5 20.6569 22.5 19V5C22.5 3.34315 21.1569 2 19.5 2H5.5ZM7.89949 5C7.89949 4.44772 7.45177 4 6.89949 4C6.3472 4 5.89949 4.44772 5.89949 5V7.8C5.89949 8.35228 6.3472 8.8 6.89949 8.8H9.7C10.2523 8.8 10.7 8.35228 10.7 7.8C10.7 7.24771 10.2523 6.8 9.7 6.8H9.50425C10.386 6.29086 11.409 6 12.5 6C15.8137 6 18.5 8.68629 18.5 12C18.5 15.3137 15.8137 18 12.5 18C9.18629 18 6.5 15.3137 6.5 12C6.5 11.4477 6.05228 11 5.5 11C4.94772 11 4.5 11.4477 4.5 12C4.5 16.4183 8.08172 20 12.5 20C16.9183 20 20.5 16.4183 20.5 12C20.5 7.58172 16.9183 4 12.5 4C10.7874 4 9.20041 4.53862 7.89949 5.45452V5Z" fill="black"/>
</svg>
