<svg width="25" height="24" viewBox="0 0 25 24" fill="none" xmlns="http://www.w3.org/2000/svg">
<path fill-rule="evenodd" clip-rule="evenodd" d="M5.5 2C3.84315 2 2.5 3.34315 2.5 5V19C2.5 20.6569 3.84315 22 5.5 22H19.5C21.1569 22 22.5 20.6569 22.5 19V5C22.5 3.34315 21.1569 2 19.5 2H5.5ZM17.1005 5C17.1005 4.44772 17.5482 4 18.1005 4C18.6528 4 19.1005 4.44772 19.1005 5V7.8C19.1005 8.35228 18.6528 8.8 18.1005 8.8H15.3C14.7477 8.8 14.3 8.35228 14.3 7.8C14.3 7.24771 14.7477 6.8 15.3 6.8H15.4958C14.614 6.29086 13.591 6 12.5 6C9.18629 6 6.5 8.68629 6.5 12C6.5 15.3137 9.18629 18 12.5 18C15.8137 18 18.5 15.3137 18.5 12C18.5 11.4477 18.9477 11 19.5 11C20.0523 11 20.5 11.4477 20.5 12C20.5 16.4183 16.9183 20 12.5 20C8.08172 20 4.5 16.4183 4.5 12C4.5 7.58172 8.08172 4 12.5 4C14.2126 4 15.7996 4.53862 17.1005 5.45452V5Z" fill="black"/>
</svg>
