<svg width="25" height="24" viewBox="0 0 25 24" fill="none" xmlns="http://www.w3.org/2000/svg">
<path fill-rule="evenodd" clip-rule="evenodd" d="M5.79445 12.7191L3.69254 9.286C2.46056 7.27377 3.00698 4.65032 4.93989 3.29729C6.47713 2.22122 8.52317 2.22122 10.0604 3.29729C11.9933 4.65032 12.5397 7.27377 11.3078 9.286L9.20585 12.7191C8.9142 13.1955 8.47288 13.4938 7.9938 13.614C7.96562 13.8605 7.84617 14.097 7.64047 14.2685C7.32592 14.5306 7.00638 15.0335 6.97373 15.6185C6.94419 16.1477 7.14157 16.8996 8.14046 17.732C9.15101 18.5742 10.831 19.1912 12.6845 19.6126C13.7986 19.8659 14.922 20.0372 15.9053 20.1506L14.1576 17.296C12.9256 15.2838 13.4721 12.6603 15.405 11.3073C16.9422 10.2312 18.9883 10.2312 20.5255 11.3073C22.4584 12.6603 23.0048 15.2838 21.7729 17.296L19.6709 20.7291C19.3766 21.2099 18.9298 21.5093 18.4456 21.6273C18.302 22.0431 17.8939 22.3287 17.4338 22.298C16.1523 22.2126 14.1966 22.0075 12.2411 21.5629C10.3196 21.126 8.24954 20.4263 6.86009 19.2685C5.45898 18.1009 4.90637 16.7695 4.97684 15.507C5.03337 14.4942 5.48663 13.629 6.03614 13.0394C5.94758 12.9435 5.86645 12.8367 5.79445 12.7191ZM7.50024 8.70508C8.46674 8.70508 9.25024 7.92158 9.25024 6.95508C9.25024 5.98858 8.46674 5.20508 7.50024 5.20508C6.53375 5.20508 5.75024 5.98858 5.75024 6.95508C5.75024 7.92158 6.53375 8.70508 7.50024 8.70508ZM17.9702 16.7102C18.9367 16.7102 19.7202 15.9267 19.7202 14.9602C19.7202 13.9937 18.9367 13.2102 17.9702 13.2102C17.0037 13.2102 16.2202 13.9937 16.2202 14.9602C16.2202 15.9267 17.0037 16.7102 17.9702 16.7102Z" fill="black"/>
</svg>
