<svg width="25" height="24" viewBox="0 0 25 24" fill="none" xmlns="http://www.w3.org/2000/svg">
<path d="M21 20V15C21 14.1716 20.3284 13.5 19.5 13.5H4.5C3.67157 13.5 3 14.1716 3 15L3 20C3 20.8284 3.67157 21.5 4.5 21.5H19.5C20.3284 21.5 21 20.8284 21 20Z" fill="black"/>
<path d="M19.5 2.5L4.5 2.5C3.67157 2.5 3 3.17157 3 4L3 9C3 9.82843 3.67157 10.5 4.5 10.5H19.5C20.3284 10.5 21 9.82843 21 9L21 4C21 3.17157 20.3284 2.5 19.5 2.5Z" fill="black"/>
<path d="M21 20V15C21 14.1716 20.3284 13.5 19.5 13.5H4.5C3.67157 13.5 3 14.1716 3 15L3 20C3 20.8284 3.67157 21.5 4.5 21.5H19.5C20.3284 21.5 21 20.8284 21 20Z" fill="black"/>
<path d="M19.5 2.5L4.5 2.5C3.67157 2.5 3 3.17157 3 4L3 9C3 9.82843 3.67157 10.5 4.5 10.5H19.5C20.3284 10.5 21 9.82843 21 9L21 4C21 3.17157 20.3284 2.5 19.5 2.5Z" fill="black"/>
</svg>
