<svg width="25" height="24" viewBox="0 0 25 24" fill="none" xmlns="http://www.w3.org/2000/svg">
<path fill-rule="evenodd" clip-rule="evenodd" d="M4.5 6V18C4.5 19.6569 5.84315 21 7.5 21H8.5V19C8.5 17.8954 9.39543 17 10.5 17H14.7C15.8046 17 16.7 17.8954 16.7 19V21H17.5C19.1569 21 20.5 19.6569 20.5 18V8.7997C20.5 7.97047 20.1568 7.17823 19.5518 6.61108L16.5655 3.81139C16.0094 3.2901 15.2758 3 14.5137 3H7.5C5.84315 3 4.5 4.34315 4.5 6ZM9 6C8.44772 6 8 6.44772 8 7C8 7.55228 8.44772 8 9 8H15.7C16.2523 8 16.7 7.55228 16.7 7C16.7 6.44772 16.2523 6 15.7 6H9Z" fill="black"/>
<path d="M14.7 19H10.5V20H14.7V19Z" fill="black"/>
</svg>
