<svg width="25" height="24" viewBox="0 0 25 24" fill="none" xmlns="http://www.w3.org/2000/svg">
<path d="M16.4153 3.40275C16.6377 2.89723 16.4083 2.30712 15.9027 2.08469C15.3972 1.86227 14.8071 2.09175 14.5847 2.59727L12.5 7.33519L10.4153 2.59727C10.1929 2.09175 9.60278 1.86227 9.09726 2.08469C8.59175 2.30712 8.36226 2.89723 8.58468 3.40275L11.4075 9.81819L9.10099 15.0602C8.90682 15.0207 8.70583 15 8.5 15C6.84315 15 5.5 16.3432 5.5 18C5.5 19.6569 6.84315 21 8.5 21C10.1569 21 11.5 19.6569 11.5 18C11.5 17.2726 11.2411 16.6056 10.8104 16.0862C10.851 16.03 10.8863 15.9687 10.9153 15.9027L12.5 12.3012L14.0847 15.9027C14.1137 15.9687 14.149 16.03 14.1896 16.0862C13.7589 16.6056 13.5 17.2726 13.5 18C13.5 19.6569 14.8431 21 16.5 21C18.1569 21 19.5 19.6569 19.5 18C19.5 16.3432 18.1569 15 16.5 15C16.2942 15 16.0932 15.0207 15.899 15.0602L13.5925 9.81819L16.4153 3.40275Z" fill="black"/>
</svg>
