<svg width="25" height="24" viewBox="0 0 25 24" fill="none" xmlns="http://www.w3.org/2000/svg">
<path d="M2.5 6C2.5 3.79086 4.29086 2 6.5 2H8.5C9.05228 2 9.5 2.44772 9.5 3C9.5 3.55228 9.05228 4 8.5 4H6.5C5.39543 4 4.5 4.89543 4.5 6V8C4.5 8.55228 4.05228 9 3.5 9C2.94772 9 2.5 8.55228 2.5 8V6Z" fill="black"/>
<path d="M22.5 6C22.5 3.79086 20.7091 2 18.5 2H16.5C15.9477 2 15.5 2.44772 15.5 3C15.5 3.55228 15.9477 4 16.5 4H18.5C19.6046 4 20.5 4.89543 20.5 6V8C20.5 8.55228 20.9477 9 21.5 9C22.0523 9 22.5 8.55228 22.5 8V6Z" fill="black"/>
<path d="M6.5 22C4.29086 22 2.5 20.2091 2.5 18V16C2.5 15.4477 2.94772 15 3.5 15C4.05228 15 4.5 15.4477 4.5 16V18C4.5 19.1046 5.39543 20 6.5 20H8.5C9.05228 20 9.5 20.4477 9.5 21C9.5 21.5523 9.05228 22 8.5 22H6.5Z" fill="black"/>
<path d="M22.5 18C22.5 20.2091 20.7091 22 18.5 22H16.5C15.9477 22 15.5 21.5523 15.5 21C15.5 20.4477 15.9477 20 16.5 20H18.5C19.6046 20 20.5 19.1046 20.5 18V16C20.5 15.4477 20.9477 15 21.5 15C22.0523 15 22.5 15.4477 22.5 16V18Z" fill="black"/>
<path d="M9.02098 10.6903C8.92476 10.4017 8.69826 10.1752 8.40961 10.079C8.11584 9.98104 8.11584 9.56552 8.40961 9.4676C8.69826 9.37138 8.92476 9.14488 9.02098 8.85623C9.1189 8.56246 9.53442 8.56246 9.63234 8.85623C9.72856 9.14488 9.95506 9.37138 10.2437 9.4676C10.5375 9.56552 10.5375 9.98104 10.2437 10.079C9.95506 10.1752 9.72856 10.4017 9.63234 10.6903C9.53442 10.9841 9.1189 10.9841 9.02098 10.6903Z" fill="black"/>
<path fill-rule="evenodd" clip-rule="evenodd" d="M9.5 5.6001C7.29086 5.6001 5.5 7.39096 5.5 9.6001V14.4001C5.5 16.6092 7.29086 18.4001 9.5 18.4001H15.5C17.7091 18.4001 19.5 16.6092 19.5 14.4001V9.6001C19.5 7.39096 17.7091 5.6001 15.5 5.6001H9.5ZM7.5 9.6001C7.5 8.49553 8.39543 7.6001 9.5 7.6001H15.5C16.6046 7.6001 17.5 8.49553 17.5 9.6001V13.5332L15.9267 12.4844C15.0224 11.8815 13.8021 12.1112 13.1788 13.0016L13 13.257C12.2164 12.8136 11.024 12.8631 10.5079 13.6009L9.10586 15.6054C8.9718 15.797 8.8999 16.0252 8.8999 16.2591C8.8999 16.2758 8.90026 16.2924 8.90097 16.3088C8.08905 16.0543 7.5 15.296 7.5 14.4001V9.6001Z" fill="black"/>
</svg>
