<svg width="25" height="24" viewBox="0 0 25 24" fill="none" xmlns="http://www.w3.org/2000/svg">
<path d="M17.0927 5.63069C17.5738 5.79105 17.9513 6.16855 18.1116 6.64963C18.2748 7.13925 18.9674 7.13925 19.1306 6.64963C19.2909 6.16855 19.6684 5.79105 20.1495 5.63069C20.6391 5.46748 20.6391 4.77494 20.1495 4.61174C19.6684 4.45138 19.2909 4.07388 19.1306 3.59279C18.9674 3.10318 18.2748 3.10318 18.1116 3.59279C17.9513 4.07388 17.5738 4.45138 17.0927 4.61174C16.6031 4.77494 16.6031 5.46748 17.0927 5.63069Z" fill="black"/>
<path d="M20.4599 10.632L6.32069 4.26938C5.1781 3.75522 3.94605 4.78553 4.24993 6.00107L5.234 9.93734C5.39224 10.5703 5.94152 11.0284 6.59264 11.0704L20.9997 11.9999L6.59264 12.9294C5.94152 12.9714 5.39224 13.4295 5.234 14.0625L4.24993 17.9988C3.94604 19.2143 5.1781 20.2446 6.32069 19.7304L20.4599 13.3678C21.6392 12.8371 21.6392 11.1627 20.4599 10.632Z" fill="black"/>
<path d="M17.0927 5.63069C17.5738 5.79105 17.9513 6.16855 18.1116 6.64963C18.2748 7.13925 18.9674 7.13925 19.1306 6.64963C19.2909 6.16855 19.6684 5.79105 20.1495 5.63069C20.6391 5.46748 20.6391 4.77494 20.1495 4.61174C19.6684 4.45138 19.2909 4.07388 19.1306 3.59279C18.9674 3.10318 18.2748 3.10318 18.1116 3.59279C17.9513 4.07388 17.5738 4.45138 17.0927 4.61174C16.6031 4.77494 16.6031 5.46748 17.0927 5.63069Z" fill="black"/>
<path d="M20.4599 10.632L6.32069 4.26938C5.1781 3.75522 3.94605 4.78553 4.24993 6.00107L5.234 9.93734C5.39224 10.5703 5.94152 11.0284 6.59264 11.0704L20.9997 11.9999L6.59264 12.9294C5.94152 12.9714 5.39224 13.4295 5.234 14.0625L4.24993 17.9988C3.94604 19.2143 5.1781 20.2446 6.32069 19.7304L20.4599 13.3678C21.6392 12.8371 21.6392 11.1627 20.4599 10.632Z" fill="black"/>
</svg>
