<svg width="25" height="24" viewBox="0 0 25 24" fill="none" xmlns="http://www.w3.org/2000/svg">
<path fill-rule="evenodd" clip-rule="evenodd" d="M5.5 4.5H19.5C21.1569 4.5 22.5 5.84315 22.5 7.5C22.5 9.15685 21.1569 10.5 19.5 10.5H5.5C3.84315 10.5 2.5 9.15685 2.5 7.5C2.5 5.84315 3.84315 4.5 5.5 4.5ZM15.5 6.5C14.9477 6.5 14.5 6.94772 14.5 7.5C14.5 8.05228 14.9477 8.5 15.5 8.5H20C20.5523 8.5 21 8.05228 21 7.5C21 6.94772 20.5523 6.5 20 6.5H15.5ZM10 7.5C10 6.94772 10.4477 6.5 11 6.5H13C13.5523 6.5 14 6.94772 14 7.5C14 8.05228 13.5523 8.5 13 8.5H11C10.4477 8.5 10 8.05228 10 7.5Z" fill="black"/>
<path fill-rule="evenodd" clip-rule="evenodd" d="M5.5 13.5H19.5C21.1569 13.5 22.5 14.8431 22.5 16.5C22.5 18.1569 21.1569 19.5 19.5 19.5H5.5C3.84315 19.5 2.5 18.1569 2.5 16.5C2.5 14.8431 3.84315 13.5 5.5 13.5ZM15.5 15.5C14.9477 15.5 14.5 15.9477 14.5 16.5C14.5 17.0523 14.9477 17.5 15.5 17.5H20C20.5523 17.5 21 17.0523 21 16.5C21 15.9477 20.5523 15.5 20 15.5H15.5ZM10 16.5C10 15.9477 10.4477 15.5 11 15.5H13C13.5523 15.5 14 15.9477 14 16.5C14 17.0523 13.5523 17.5 13 17.5H11C10.4477 17.5 10 17.0523 10 16.5Z" fill="black"/>
</svg>
