<svg width="25" height="24" viewBox="0 0 25 24" fill="none" xmlns="http://www.w3.org/2000/svg">
<path d="M19.9545 14C21.0281 14 21.9699 14.5639 22.5 15.4116V6C22.5 4.34315 21.1569 3 19.5 3H5.5C3.84315 3 2.5 4.34315 2.5 6V15.4116C3.03011 14.5639 3.97193 14 5.04545 14H19.9545Z" fill="black"/>
<path fill-rule="evenodd" clip-rule="evenodd" d="M5.5 15H19.5C21.1569 15 22.5 16.3431 22.5 18C22.5 19.6569 21.1569 21 19.5 21H5.5C3.84315 21 2.5 19.6569 2.5 18C2.5 16.3431 3.84315 15 5.5 15ZM14.3182 17C13.7659 17 13.3182 17.4477 13.3182 18C13.3182 18.5523 13.7659 19 14.3182 19H18.4091C18.9614 19 19.4091 18.5523 19.4091 18C19.4091 17.4477 18.9614 17 18.4091 17H14.3182ZM9.22727 18C9.22727 17.4477 9.67499 17 10.2273 17H12.0455C12.5977 17 13.0455 17.4477 13.0455 18C13.0455 18.5523 12.5977 19 12.0455 19H10.2273C9.67499 19 9.22727 18.5523 9.22727 18Z" fill="black"/>
</svg>
