<svg width="24" height="24" viewBox="0 0 24 24" fill="none" xmlns="http://www.w3.org/2000/svg">
<path fill-rule="evenodd" clip-rule="evenodd" d="M13.8067 2.74766C12.7994 1.77324 11.2009 1.77324 10.1937 2.74766C9.61766 3.30487 8.81676 3.5651 8.02326 3.45286C6.63563 3.25659 5.34239 4.19618 5.10026 5.57654C4.96179 6.3659 4.46681 7.04718 3.75888 7.42279C2.5209 8.07963 2.02693 9.59993 2.64239 10.859C2.99434 11.579 2.99434 12.4211 2.64239 13.1411C2.02693 14.4001 2.5209 15.9204 3.75888 16.5773C4.46681 16.9529 4.96179 17.6342 5.10026 18.4235C5.34239 19.8039 6.63563 20.7435 8.02326 20.5472C8.81676 20.435 9.61766 20.6952 10.1937 21.2524C11.2009 22.2268 12.7994 22.2268 13.8067 21.2524C14.3827 20.6952 15.1836 20.435 15.9771 20.5472C17.3647 20.7435 18.6579 19.8039 18.9001 18.4235C19.0385 17.6342 19.5335 16.9529 20.2415 16.5773C21.4794 15.9204 21.9734 14.4001 21.3579 13.1411C21.006 12.4211 21.006 11.579 21.3579 10.859C21.9734 9.59993 21.4794 8.07963 20.2415 7.42279C19.5335 7.04718 19.0385 6.3659 18.9001 5.57654C18.6579 4.19618 17.3647 3.25659 15.9771 3.45286C15.1836 3.5651 14.3827 3.30487 13.8067 2.74766ZM12.0002 17C14.7616 17 17.0002 14.7615 17.0002 12C17.0002 9.23861 14.7616 7.00003 12.0002 7.00003C9.23874 7.00003 7.00017 9.23861 7.00017 12C7.00017 14.7615 9.23874 17 12.0002 17Z" fill="black"/>
</svg>
