<svg width="25" height="24" viewBox="0 0 25 24" fill="none" xmlns="http://www.w3.org/2000/svg">
<path fill-rule="evenodd" clip-rule="evenodd" d="M18.7898 5.08659L17.2423 4.40011L13.6157 2.94713C12.8996 2.6602 12.1004 2.6602 11.3843 2.94713L7.75769 4.40011L6.21016 5.08659C5.18715 5.5404 4.49991 6.52457 4.5 7.64372C4.50017 9.61774 4.65023 12.7663 5.49378 14.8501C6.5707 17.5104 9.46609 19.6497 11.179 20.7312C11.9913 21.2442 13.0087 21.2442 13.821 20.7312C15.5339 19.6497 18.4293 17.5104 19.5062 14.8501C20.3498 12.7663 20.4998 9.61774 20.5 7.64372C20.5001 6.52457 19.8129 5.5404 18.7898 5.08659ZM13.7426 11.8285L14.4497 11.1214C14.8402 10.7309 14.8402 10.0977 14.4497 9.70722C14.0592 9.31669 13.426 9.31669 13.0355 9.70722L12.3284 10.4143L11.6213 9.70722C11.2307 9.31669 10.5976 9.31669 10.207 9.70722C9.81652 10.0977 9.81652 10.7309 10.207 11.1214L10.9142 11.8285L10.207 12.5356C9.81652 12.9262 9.81652 13.5593 10.207 13.9499C10.5976 14.3404 11.2307 14.3404 11.6213 13.9499L12.3284 13.2428L13.0355 13.9499C13.426 14.3404 14.0592 14.3404 14.4497 13.9499C14.8402 13.5593 14.8402 12.9262 14.4497 12.5356L13.7426 11.8285Z" fill="black"/>
</svg>
