<svg width="25" height="24" viewBox="0 0 25 24" fill="none" xmlns="http://www.w3.org/2000/svg">
<path d="M17.2423 4.40011L18.7898 5.08659C19.8129 5.5404 20.5001 6.52457 20.5 7.64372C20.4998 9.61774 20.3498 12.7663 19.5062 14.8501C18.4293 17.5104 15.5339 19.6497 13.821 20.7312C13.0087 21.2442 11.9913 21.2442 11.179 20.7312C9.46609 19.6497 6.5707 17.5104 5.49378 14.8501C4.65023 12.7663 4.50017 9.61774 4.5 7.64372C4.49991 6.52457 5.18715 5.5404 6.21016 5.08659L7.75769 4.40011L11.3843 2.94713C12.1004 2.6602 12.8996 2.6602 13.6157 2.94713L17.2423 4.40011Z" fill="black"/>
</svg>
