<svg width="25" height="24" viewBox="0 0 25 24" fill="none" xmlns="http://www.w3.org/2000/svg">
<path fill-rule="evenodd" clip-rule="evenodd" d="M18.7898 5.08659L17.2423 4.40011L13.6157 2.94713C12.8996 2.6602 12.1004 2.6602 11.3843 2.94713L7.75769 4.40011L6.21016 5.08659C5.18715 5.5404 4.49991 6.52457 4.5 7.64372C4.50017 9.61774 4.65023 12.7663 5.49378 14.8501C6.5707 17.5104 9.46609 19.6497 11.179 20.7312C11.9913 21.2442 13.0087 21.2442 13.821 20.7312C15.5339 19.6497 18.4293 17.5104 19.5062 14.8501C20.3498 12.7663 20.4998 9.61774 20.5 7.64372C20.5001 6.52457 19.8129 5.5404 18.7898 5.08659ZM15.1961 11.2072C15.5866 10.8167 15.5866 10.1835 15.1961 9.79299C14.8056 9.40247 14.1724 9.40246 13.7819 9.79299L11.8431 11.7317L11.5613 11.4498C11.1707 11.0593 10.5376 11.0593 10.147 11.4498C9.75652 11.8404 9.75652 12.4735 10.147 12.8641L11.136 13.853C11.5266 14.2436 12.1597 14.2436 12.5503 13.853L15.1961 11.2072Z" fill="black"/>
</svg>
