<svg width="25" height="24" viewBox="0 0 25 24" fill="none" xmlns="http://www.w3.org/2000/svg">
<path fill-rule="evenodd" clip-rule="evenodd" d="M11.0098 3.47998C11.0098 3.34191 11.1217 3.22998 11.2598 3.22998H13.7378C13.8759 3.22998 13.9878 3.34191 13.9878 3.47998V5.08854H11.0098V3.47998ZM19.0257 8.83854V10.5025L14.1758 8.07757C13.1201 7.54971 11.8775 7.54971 10.8217 8.07757L5.97193 10.5025V8.83854C5.97193 7.5959 6.97928 6.58854 8.22192 6.58854H10.2598H14.7378H16.7757C18.0183 6.58854 19.0257 7.5959 19.0257 8.83854ZM11.4926 9.41921C12.126 9.1025 12.8716 9.1025 13.505 9.41921L19.4403 12.3868L21.5831 13.4583C22.4031 13.8683 22.8469 14.6944 22.6981 15.5059C22.5615 16.2514 22.3574 17.1083 22.0589 17.9056C21.7571 18.712 21.3785 19.403 20.9217 19.8649C20.4009 20.3915 19.8902 20.6302 19.3712 20.7208C18.8313 20.8151 18.2336 20.7579 17.5295 20.6076C17.1029 20.5165 16.6993 20.4075 16.2655 20.2904C15.9428 20.2032 15.6033 20.1116 15.2252 20.0194C14.3898 19.8158 13.4752 19.6423 12.4988 19.6423C11.5224 19.6423 10.6077 19.8158 9.77243 20.0194C9.39434 20.1116 9.05489 20.2032 8.73214 20.2904L8.73206 20.2904L8.73205 20.2904C8.29829 20.4075 7.89472 20.5165 7.46809 20.6076C6.76402 20.7579 6.16627 20.8151 5.62639 20.7208C5.10738 20.6302 4.59672 20.3915 4.07588 19.8649C3.61906 19.403 3.24053 18.712 2.93866 17.9056C2.6402 17.1083 2.43613 16.2514 2.29946 15.5059C2.15068 14.6944 2.59446 13.8683 3.41447 13.4583L5.55734 12.3868L11.4926 9.41921Z" fill="black"/>
</svg>
