<svg width="25" height="24" viewBox="0 0 25 24" fill="none" xmlns="http://www.w3.org/2000/svg">
<path d="M9.5 7C9.5 5.34315 10.8431 4 12.5 4C14.025 4 15.2842 5.13782 15.475 6.6108L13.7929 8.29289C13.4024 8.68342 13.4024 9.31658 13.7929 9.70711C14.1834 10.0976 14.8166 10.0976 15.2071 9.70711L19.2071 5.70711C19.5976 5.31658 19.5976 4.68342 19.2071 4.29289C18.8166 3.90237 18.1834 3.90237 17.7929 4.29289L17.0845 5.00127C16.3132 3.23469 14.5508 2 12.5 2C9.73858 2 7.5 4.23858 7.5 7V20C7.5 20.5523 7.94772 21 8.5 21C9.05228 21 9.5 20.5523 9.5 20V7Z" fill="black"/>
</svg>
