<svg width="25" height="24" viewBox="0 0 25 24" fill="none" xmlns="http://www.w3.org/2000/svg">
<path fill-rule="evenodd" clip-rule="evenodd" d="M2.5 5C2.5 3.34315 3.84315 2 5.5 2H19.5C21.1569 2 22.5 3.34315 22.5 5V19C22.5 20.6569 21.1569 22 19.5 22H5.5C3.84315 22 2.5 20.6569 2.5 19V5ZM10 6.5C10 8.15685 8.65685 9.5 7 9.5H5C4.44772 9.5 4 9.05228 4 8.5C4 7.94772 4.44772 7.5 5 7.5H7C7.55228 7.5 8 7.05228 8 6.5V4.5C8 3.94772 8.44772 3.5 9 3.5C9.55228 3.5 10 3.94772 10 4.5V6.5ZM17 9.5C15.3431 9.5 14 8.15685 14 6.5V4.5C14 3.94772 14.4477 3.5 15 3.5C15.5523 3.5 16 3.94772 16 4.5V6.5C16 7.05228 16.4477 7.5 17 7.5H20C20.5523 7.5 21 7.94772 21 8.5C21 9.05228 20.5523 9.5 20 9.5H17ZM10 16.5C10 14.8431 8.65685 13.5 7 13.5H5C4.44772 13.5 4 13.9477 4 14.5C4 15.0523 4.44772 15.5 5 15.5H7C7.55228 15.5 8 15.9477 8 16.5V19.5C8 20.0523 8.44772 20.5 9 20.5C9.55228 20.5 10 20.0523 10 19.5V16.5ZM17 13.5C15.3431 13.5 14 14.8431 14 16.5V19.5C14 20.0523 14.4477 20.5 15 20.5C15.5523 20.5 16 20.0523 16 19.5V16.5C16 15.9477 16.4477 15.5 17 15.5H20C20.5523 15.5 21 15.0523 21 14.5C21 13.9477 20.5523 13.5 20 13.5H17Z" fill="black"/>
</svg>
