<svg width="25" height="24" viewBox="0 0 25 24" fill="none" xmlns="http://www.w3.org/2000/svg">
<path fill-rule="evenodd" clip-rule="evenodd" d="M2.5 5C2.5 3.34315 3.84315 2 5.5 2H19.5C21.1569 2 22.5 3.34315 22.5 5V19C22.5 20.6569 21.1569 22 19.5 22H5.5C3.84315 22 2.5 20.6569 2.5 19V5ZM4.72183 4.2218C5.11235 3.83128 5.74552 3.83128 6.13604 4.2218L8.67158 6.75734V4.92891C8.67158 4.37663 9.11929 3.92891 9.67158 3.92891C10.2239 3.92891 10.6716 4.37663 10.6716 4.92891V9.17155C10.6716 9.72384 10.2239 10.1716 9.67158 10.1716L5.42894 10.1716C4.87665 10.1716 4.42894 9.72384 4.42894 9.17155C4.42894 8.61927 4.87665 8.17155 5.42894 8.17155H7.25736L4.72183 5.63602C4.33131 5.24549 4.33131 4.61233 4.72183 4.2218ZM14.3284 19.071L14.3284 14.8284C14.3284 14.2761 14.7761 13.8284 15.3284 13.8284L19.5711 13.8284C20.1234 13.8284 20.5711 14.2761 20.5711 14.8284C20.5711 15.3807 20.1234 15.8284 19.5711 15.8284L17.7426 15.8284L20.2782 18.3639C20.6687 18.7545 20.6687 19.3876 20.2782 19.7782C19.8877 20.1687 19.2545 20.1687 18.864 19.7782L16.3284 17.2426V19.071C16.3284 19.6233 15.8807 20.071 15.3284 20.071C14.7761 20.071 14.3284 19.6233 14.3284 19.071ZM20.2781 5.63604C20.6687 5.24552 20.6687 4.61235 20.2781 4.22183C19.8876 3.83131 19.2544 3.83131 18.8639 4.22183L16.3284 6.75737V4.92894C16.3284 4.37665 15.8807 3.92894 15.3284 3.92894C14.7761 3.92894 14.3284 4.37665 14.3284 4.92894L14.3284 9.17158C14.3284 9.72386 14.7761 10.1716 15.3284 10.1716H19.571C20.1233 10.1716 20.571 9.72386 20.571 9.17158C20.571 8.61929 20.1233 8.17158 19.571 8.17158L17.7426 8.17158L20.2781 5.63604ZM9.67153 13.8284L5.42889 13.8284C4.87661 13.8284 4.42889 14.2761 4.42889 14.8284C4.42889 15.3807 4.87661 15.8284 5.42889 15.8284H7.25732L4.72179 18.364C4.33126 18.7545 4.33126 19.3877 4.72179 19.7782C5.11231 20.1687 5.74547 20.1687 6.136 19.7782L8.67153 17.2426L8.67153 19.0711C8.67153 19.6234 9.11925 20.0711 9.67153 20.0711C10.2238 20.0711 10.6715 19.6234 10.6715 19.0711L10.6715 14.8284C10.6715 14.2761 10.2238 13.8284 9.67153 13.8284Z" fill="black"/>
</svg>
