<svg width="25" height="24" viewBox="0 0 25 24" fill="none" xmlns="http://www.w3.org/2000/svg">
<path d="M20.5086 4.2821C20.1122 3.89763 19.4791 3.90737 19.0946 4.30385C18.7362 4.67344 18.7204 5.24861 19.041 5.63636H16.125C12.8692 5.63636 10.375 8.48774 10.375 11.8182C10.375 14.2114 8.61594 16 6.625 16H3.5C2.94772 16 2.5 16.4477 2.5 17C2.5 17.5523 2.94772 18 3.5 18H6.625C9.88076 18 12.375 15.1486 12.375 11.8182C12.375 9.42494 14.1341 7.63636 16.125 7.63636H19.4624L19.0215 8.20638C18.6836 8.64325 18.7638 9.27131 19.2007 9.6092C19.6376 9.94708 20.2656 9.86685 20.6035 9.42998L22.291 7.24816C22.6025 6.84541 22.5617 6.27291 22.1961 5.91846L20.5086 4.2821Z" fill="black"/>
<path d="M3.5 6C2.94772 6 2.5 6.44772 2.5 7C2.5 7.55229 2.94772 8 3.5 8H6.625C7.45567 8 8.22931 8.30108 8.86102 8.82583C9.28585 9.17873 9.91632 9.12042 10.2692 8.69559C10.6221 8.27076 10.5638 7.64029 10.139 7.28739C9.17446 6.48617 7.95549 6 6.625 6H3.5Z" fill="black"/>
<path d="M20.6035 14.57C20.2656 14.1332 19.6376 14.0529 19.2007 14.3908C18.7638 14.7287 18.6836 15.3568 19.0215 15.7936L19.4624 16.3636H16.125C15.2614 16.3636 14.4586 16.0381 13.8134 15.4734C13.3978 15.1097 12.7661 15.1517 12.4023 15.5673C12.0386 15.9829 12.0807 16.6147 12.4963 16.9784C13.4779 17.8375 14.7407 18.3636 16.125 18.3636H19.041C18.7204 18.7514 18.7362 19.3266 19.0946 19.6961C19.4791 20.0926 20.1122 20.1024 20.5086 19.7179L22.1961 18.0815C22.5617 17.7271 22.6025 17.1546 22.291 16.7518L20.6035 14.57Z" fill="black"/>
</svg>
