<svg width="25" height="24" viewBox="0 0 25 24" fill="none" xmlns="http://www.w3.org/2000/svg">
<path d="M5.50001 3C4.94773 3 4.50001 3.44772 4.50001 4C4.50001 4.55228 4.94773 5 5.50001 5H8.36497L4.73179 9.35982C4.48339 9.6579 4.42984 10.0728 4.59442 10.4242C4.759 10.7755 5.11199 11 5.50001 11H10.5C11.0523 11 11.5 10.5523 11.5 10C11.5 9.44772 11.0523 9 10.5 9H7.63505L11.2682 4.64018C11.5166 4.3421 11.5702 3.92723 11.4056 3.57584C11.241 3.22446 10.888 3 10.5 3H5.50001Z" fill="black"/>
<path d="M12.5 11C11.9477 11 11.5 11.4477 11.5 12C11.5 12.5523 11.9477 13 12.5 13H17.2962L11.7474 19.3415C11.4891 19.6368 11.4272 20.0559 11.5894 20.4132C11.7515 20.7705 12.1076 21 12.5 21H19.5C20.0523 21 20.5 20.5523 20.5 20C20.5 19.4477 20.0523 19 19.5 19H14.7038L20.2526 12.6585C20.511 12.3632 20.5728 11.9441 20.4106 11.5868C20.2485 11.2295 19.8924 11 19.5 11H12.5Z" fill="black"/>
</svg>
