<svg width="25" height="24" viewBox="0 0 25 24" fill="none" xmlns="http://www.w3.org/2000/svg">
<path d="M12.1608 1C12.713 1 13.1608 1.44772 13.1608 2V4.13148L14.6061 3.16795C15.0656 2.8616 15.6865 2.98577 15.9928 3.4453C16.2992 3.90483 16.175 4.5257 15.7155 4.83205L13.1608 6.53518V10.1546L16.8799 8.00739L17.0012 5.01062C17.0236 4.45879 17.489 4.02955 18.0409 4.05189C18.5927 4.07423 19.0219 4.53969 18.9996 5.09152L18.9295 6.82409L20.8209 5.73205C21.2992 5.45591 21.9108 5.61978 22.1869 6.09808C22.4631 6.57637 22.2992 7.18796 21.8209 7.4641L19.975 8.52984L21.5321 9.29974C22.0272 9.54453 22.2301 10.1443 21.9853 10.6394C21.7405 11.1345 21.1407 11.3373 20.6456 11.0926L17.8933 9.73169L14.0625 11.9434L17.3799 13.8587L20.0359 12.4654C20.5249 12.2088 21.1294 12.3973 21.386 12.8863C21.6425 13.3754 21.454 13.9799 20.965 14.2364L19.4295 15.042L21.3209 16.134C21.7992 16.4102 21.9631 17.0218 21.6869 17.5001C21.4108 17.9783 20.7992 18.1422 20.3209 17.8661L18.475 16.8003L18.5868 18.5338C18.6223 19.0849 18.2044 19.5605 17.6532 19.5961C17.1021 19.6316 16.6265 19.2136 16.5909 18.6625L16.3933 15.5985L13.1608 13.7322V17.4648L15.7155 19.1679C16.175 19.4743 16.2992 20.0952 15.9928 20.5547C15.6865 21.0142 15.0656 21.1384 14.6061 20.8321L13.1608 19.8685V22C13.1608 22.5523 12.713 23 12.1608 23C11.6085 23 11.1608 22.5523 11.1608 22V19.8685L9.71546 20.8321C9.25593 21.1384 8.63507 21.0142 8.32871 20.5547C8.02236 20.0952 8.14653 19.4743 8.60606 19.1679L11.1608 17.4648V13.6187L8.42799 15.1965L8.23039 18.2605C8.19484 18.8117 7.71924 19.2296 7.1681 19.1941C6.61696 19.1585 6.19899 18.6829 6.23453 18.1318L6.34633 16.3984L4.50041 17.4641C4.02212 17.7402 3.41053 17.5764 3.13438 17.0981C2.85824 16.6198 3.02212 16.0082 3.50041 15.732L5.34633 14.6663L3.78923 13.8964C3.29416 13.6516 3.09126 13.0518 3.33605 12.5568C3.58084 12.0617 4.18061 11.8588 4.67569 12.1036L7.42799 13.4645L10.0625 11.9434L6.928 10.1337L4.17569 11.4945C3.68061 11.7393 3.08084 11.5364 2.83605 11.0414C2.59126 10.5463 2.79416 9.94651 3.28924 9.70172L4.84633 8.93182L3.00041 7.86608C2.52212 7.58994 2.35824 6.97834 2.63439 6.50005C2.91053 6.02176 3.52212 5.85788 4.00041 6.13403L5.84633 7.19977L5.73454 5.46634C5.69899 4.9152 6.11696 4.43959 6.6681 4.40405C7.21924 4.36851 7.69484 4.78648 7.73039 5.33762L7.928 8.40162L11.1608 10.2681V6.55068L8.62614 4.94723C8.15941 4.65197 8.02041 4.03425 8.31567 3.56752C8.61093 3.10079 9.22865 2.96179 9.69538 3.25705L11.1608 4.18408V2C11.1608 1.44772 11.6085 1 12.1608 1Z" fill="black"/>
</svg>
