<svg width="25" height="24" viewBox="0 0 25 24" fill="none" xmlns="http://www.w3.org/2000/svg">
<path fill-rule="evenodd" clip-rule="evenodd" d="M4.99879 15C3.61863 14.9993 2.5 13.8803 2.5 12.5V11.5C2.5 10.1193 3.61929 9 5 9C6.37988 9 7.49864 10.1179 7.5 11.4975L7.5 8C7.5 6.34315 8.84315 5 10.5 5H14.5C16.1569 5 17.5 6.34315 17.5 8L17.5 11.4986C17.5008 10.1185 18.6198 9 20 9C21.3807 9 22.5 10.1193 22.5 11.5V12.5C22.5 13.8807 21.3807 15 20 15C18.6197 15 17.5006 13.8813 17.5 12.5011V14C17.5 14.5523 17.0523 15 16.5 15H20H21.5C22.0523 15 22.5 15.4477 22.5 16V17.6C22.5 18.1523 22.0523 18.6 21.5 18.6V19C21.5 19.5523 21.0523 20 20.5 20C19.9477 20 19.5 19.5523 19.5 19V18.6H5.5V19C5.5 19.5523 5.05228 20 4.5 20C3.94772 20 3.5 19.5523 3.5 19V18.6C2.94772 18.6 2.5 18.1523 2.5 17.6V16C2.5 15.4477 2.94772 15 3.5 15H4.99879ZM8.5 15C7.94771 15 7.5 14.5523 7.5 14V12.5021C7.49888 13.8814 6.38068 14.9993 5.00121 15L8.5 15Z" fill="black"/>
</svg>
