<svg width="25" height="24" viewBox="0 0 25 24" fill="none" xmlns="http://www.w3.org/2000/svg">
<path d="M12.5006 6.5C11.6722 6.5 11.0006 7.17157 11.0006 8C11.0006 8.82843 11.6722 9.5 12.5006 9.5C13.3291 9.5 14.0006 8.82843 14.0006 8C14.0006 7.17157 13.3291 6.5 12.5006 6.5Z" fill="black"/>
<path d="M10.5006 16C10.5006 14.8954 11.3961 14 12.5006 14C13.6052 14 14.5006 14.8954 14.5006 16C14.5006 17.1046 13.6052 18 12.5006 18C11.3961 18 10.5006 17.1046 10.5006 16Z" fill="black"/>
<path fill-rule="evenodd" clip-rule="evenodd" d="M16.6469 2H8.35437C6.75575 2 5.43795 3.25356 5.35812 4.85019L4.65812 18.8502C4.57244 20.5637 5.93868 22 7.65437 22H17.3469C19.0626 22 20.4288 20.5637 20.3431 18.8502L19.6431 4.85019C19.5633 3.25356 18.2455 2 16.6469 2ZM9.00063 8C9.00063 6.067 10.5676 4.5 12.5006 4.5C14.4336 4.5 16.0006 6.067 16.0006 8C16.0006 9.933 14.4336 11.5 12.5006 11.5C10.5676 11.5 9.00063 9.933 9.00063 8ZM12.5006 12C10.2915 12 8.50063 13.7909 8.50063 16C8.50063 18.2091 10.2915 20 12.5006 20C14.7098 20 16.5006 18.2091 16.5006 16C16.5006 13.7909 14.7098 12 12.5006 12Z" fill="black"/>
</svg>
