<svg width="25" height="24" viewBox="0 0 25 24" fill="none" xmlns="http://www.w3.org/2000/svg">
<path d="M10.7689 3.45105C11.5665 2.18298 13.4335 2.18298 14.2311 3.45105L16.1599 6.5178C16.4406 6.96396 16.8864 7.28413 17.4023 7.41009L20.9489 8.27584C22.4153 8.63382 22.9922 10.3891 22.0187 11.5308L19.6643 14.2919C19.3218 14.6936 19.1515 15.2116 19.1897 15.7356L19.4527 19.3374C19.5615 20.8268 18.0511 21.9116 16.6518 21.3491L13.2678 19.9888C12.7755 19.7909 12.2245 19.7909 11.7322 19.9888L8.34818 21.3491C6.94893 21.9116 5.43851 20.8268 5.54726 19.3374L5.81026 15.7356C5.84853 15.2116 5.67825 14.6936 5.33572 14.2919L2.98129 11.5308C2.00776 10.3891 2.58469 8.63382 4.05115 8.27584L7.59768 7.41009C8.11365 7.28413 8.55944 6.96396 8.84006 6.5178L10.7689 3.45105Z" fill="black"/>
</svg>
