<svg width="25" height="24" viewBox="0 0 25 24" fill="none" xmlns="http://www.w3.org/2000/svg">
<path d="M6.64939 7.86642C6.43558 7.22498 5.93224 6.72164 5.2908 6.50783C4.63798 6.29022 4.63798 5.36684 5.2908 5.14923C5.93224 4.93542 6.43558 4.43208 6.64939 3.79064C6.867 3.13782 7.79039 3.13782 8.00799 3.79064C8.2218 4.43208 8.72514 4.93542 9.36659 5.14923C10.0194 5.36684 10.0194 6.29022 9.36659 6.50783C8.72514 6.72164 8.2218 7.22498 8.00799 7.86642C7.79039 8.51924 6.867 8.51924 6.64939 7.86642Z" fill="black"/>
<path d="M6.79822 20.7327C6.37059 19.4499 5.36391 18.4432 4.08103 18.0156C2.7754 17.5803 2.7754 15.7336 4.08103 15.2984C5.36391 14.8707 6.37059 13.8641 6.79822 12.5812C7.23343 11.2755 9.0802 11.2755 9.51541 12.5812C9.94304 13.8641 10.9497 14.8707 12.2326 15.2984C13.5382 15.7336 13.5382 17.5803 12.2326 18.0156C10.9497 18.4432 9.94304 19.4499 9.51541 20.7327C9.0802 22.0384 7.23343 22.0384 6.79822 20.7327Z" fill="black"/>
<path d="M14.6859 11.2617C15.6481 11.5824 16.4031 12.3374 16.7238 13.2996C17.0502 14.2788 18.4353 14.2788 18.7617 13.2996C19.0824 12.3374 19.8374 11.5824 20.7996 11.2617C21.7788 10.9353 21.7788 9.5502 20.7996 9.2238C19.8374 8.90308 19.0824 8.14807 18.7617 7.1859C18.4353 6.20668 17.0502 6.20668 16.7238 7.1859C16.4031 8.14807 15.6481 8.90308 14.6859 9.2238C13.7067 9.5502 13.7067 10.9353 14.6859 11.2617Z" fill="black"/>
</svg>
