<svg width="25" height="24" viewBox="0 0 25 24" fill="none" xmlns="http://www.w3.org/2000/svg">
<path fill-rule="evenodd" clip-rule="evenodd" d="M10.5 1C9.94772 1 9.5 1.44772 9.5 2C9.5 2.55228 9.94772 3 10.5 3H11.5V5.05999C7.41525 5.55355 4.25 9.03213 4.25 13.25C4.25 17.8063 7.94365 21.5 12.5 21.5C17.0563 21.5 20.75 17.8063 20.75 13.25C20.75 9.03213 17.5848 5.55355 13.5 5.05999V3H14.5C15.0523 3 15.5 2.55228 15.5 2C15.5 1.44772 15.0523 1 14.5 1H10.5ZM12 8C12.5523 8 13 8.44772 13 9V13H15C15.5523 13 16 13.4477 16 14C16 14.5523 15.5523 15 15 15H12C11.4477 15 11 14.5523 11 14V9C11 8.44772 11.4477 8 12 8Z" fill="black"/>
</svg>
