<svg width="25" height="24" viewBox="0 0 25 24" fill="none" xmlns="http://www.w3.org/2000/svg">
<path d="M3.34392 5.12101L2.77126 6.32587C2.30799 7.30057 2.44502 8.43338 3.12943 9.28669L3.27476 9.46789C3.48634 9.73168 3.7357 9.97123 4.04953 10.0972C4.92002 10.4465 5.93425 10.3696 6.74144 9.86643L6.8504 9.79851C7.75604 9.23393 8.91577 9.16642 9.88931 9.62159L11.1036 10.1893C11.9896 10.6036 13.0324 10.6036 13.9184 10.1893L15.1327 9.62159C16.1062 9.16642 17.2659 9.23393 18.1716 9.79851L18.2805 9.86643C19.2334 10.4604 20.4747 10.4604 21.4276 9.86643C22.3512 9.29066 22.7342 8.19909 22.3548 7.2236L21.6074 5.3016C21.1796 4.20162 20.0954 3.44326 18.8461 3.37025L12.511 3L6.02341 3.37915C4.85293 3.44756 3.82023 4.11889 3.34392 5.12101Z" fill="black"/>
<path fill-rule="evenodd" clip-rule="evenodd" d="M7.10374 11.152L6.99988 11.2136C6.09155 11.7524 4.90821 11.7524 3.99988 11.2136L4.36971 18.4522C4.44253 19.8776 5.76273 21 7.36661 21H17.6331C19.237 21 20.5572 19.8776 20.63 18.4522L20.9999 11.2136C20.0916 11.7524 18.9082 11.7524 17.9999 11.2136L17.896 11.152C17.0327 10.64 15.9271 10.5787 14.9991 10.9916L13.8415 11.5065C12.9969 11.8822 12.0028 11.8822 11.1582 11.5065L10.0007 10.9916C9.07262 10.5787 7.96708 10.64 7.10374 11.152ZM10.2074 16.4457L10.4998 19.5672H14.4998L14.7922 16.4457C14.904 15.2525 13.8456 14.2292 12.4998 14.2292C11.154 14.2292 10.0957 15.2525 10.2074 16.4457Z" fill="black"/>
</svg>
