<svg width="25" height="24" viewBox="0 0 25 24" fill="none" xmlns="http://www.w3.org/2000/svg">
<path d="M13.5 2C13.5 1.44772 13.0523 1 12.5 1C11.9477 1 11.5 1.44772 11.5 2V3.5C11.5 4.05228 11.9477 4.5 12.5 4.5C13.0523 4.5 13.5 4.05228 13.5 3.5V2Z" fill="black"/>
<path d="M2.97382 6.5C3.24996 6.02171 3.86155 5.85783 4.33984 6.13397L5.63888 6.88397C6.11717 7.16012 6.28105 7.77171 6.00491 8.25C5.72876 8.72829 5.11717 8.89217 4.63888 8.61603L3.33984 7.86603C2.86155 7.58988 2.69768 6.97829 2.97382 6.5Z" fill="black"/>
<path d="M19.3599 7.13397C18.8816 7.41012 18.7177 8.02171 18.9938 8.5C19.27 8.97829 19.8816 9.14217 20.3599 8.86603L21.6589 8.11603C22.1372 7.83988 22.3011 7.22829 22.0249 6.75C21.7488 6.27171 21.1372 6.10783 20.6589 6.38397L19.3599 7.13397Z" fill="black"/>
<path d="M20.3599 15.134C19.8816 14.8578 19.27 15.0217 18.9938 15.5C18.7177 15.9783 18.8816 16.5899 19.3599 16.866L20.6589 17.616C21.1372 17.8922 21.7488 17.7283 22.0249 17.25C22.3011 16.7717 22.1372 16.1601 21.6589 15.884L20.3599 15.134Z" fill="black"/>
<path d="M2.5 18.3529C2.5 19.8149 3.61929 21 5 21H9.5C11.1569 21 12.5 19.5778 12.5 17.8235C12.5 16.4188 11.6389 15.2271 10.4451 14.8079C10.1643 13.2099 8.8406 12 7.25 12C5.45507 12 4 13.5407 4 15.4412C4 15.601 4.01029 15.7583 4.03022 15.9124C3.13116 16.3134 2.5 17.2551 2.5 18.3529Z" fill="black"/>
<path d="M18.5001 12C18.5001 14.6324 16.8048 16.8689 14.4465 17.6772C14.1959 15.9755 13.0885 14.5868 11.6232 14.0558C11.2301 11.7476 9.37691 10 7.15006 10C7.04497 10 6.94071 10.0039 6.8374 10.0116C7.6578 7.67514 9.88331 6 12.5001 6C15.8138 6 18.5001 8.68629 18.5001 12Z" fill="black"/>
</svg>
