<svg width="25" height="24" viewBox="0 0 25 24" fill="none" xmlns="http://www.w3.org/2000/svg">
<path d="M13.4999 2C13.4999 1.44772 13.0522 1 12.4999 1C11.9476 1 11.4999 1.44772 11.4999 2V3.5C11.4999 4.05228 11.9476 4.5 12.4999 4.5C13.0522 4.5 13.4999 4.05228 13.4999 3.5V2Z" fill="black"/>
<path d="M4.33977 6.13397C3.86147 5.85783 3.24988 6.02171 2.97374 6.5C2.6976 6.97829 2.86147 7.58988 3.33977 7.86603L4.6388 8.61603C5.1171 8.89217 5.72869 8.72829 6.00483 8.25C6.28097 7.77171 6.1171 7.16012 5.6388 6.88397L4.33977 6.13397Z" fill="black"/>
<path d="M18.4999 12C18.4999 15.3137 15.8136 18 12.4999 18C9.18621 18 6.49992 15.3137 6.49992 12C6.49992 8.68629 9.18621 6 12.4999 6C15.8136 6 18.4999 8.68629 18.4999 12Z" fill="black"/>
<path d="M18.9938 15.5C19.2699 15.0217 19.8815 14.8578 20.3598 15.134L21.6588 15.884C22.1371 16.1601 22.301 16.7717 22.0249 17.25C21.7487 17.7283 21.1371 17.8922 20.6588 17.616L19.3598 16.866C18.8815 16.5899 18.7176 15.9783 18.9938 15.5Z" fill="black"/>
<path d="M19.3598 7.13397C18.8815 7.41012 18.7176 8.02171 18.9938 8.5C19.2699 8.97829 19.8815 9.14217 20.3598 8.86603L21.6588 8.11603C22.1371 7.83988 22.301 7.22829 22.0249 6.75C21.7487 6.27171 21.1371 6.10783 20.6588 6.38397L19.3598 7.13397Z" fill="black"/>
<path d="M12.4999 19C13.0522 19 13.4999 19.4477 13.4999 20V21.5C13.4999 22.0523 13.0522 22.5 12.4999 22.5C11.9476 22.5 11.4999 22.0523 11.4999 21.5V20C11.4999 19.4477 11.9476 19 12.4999 19Z" fill="black"/>
<path d="M2.97374 17.5C2.6976 17.0217 2.86147 16.4101 3.33977 16.134L4.6388 15.384C5.1171 15.1078 5.72869 15.2717 6.00483 15.75C6.28097 16.2283 6.1171 16.8399 5.6388 17.116L4.33977 17.866C3.86147 18.1422 3.24988 17.9783 2.97374 17.5Z" fill="black"/>
</svg>
