<svg width="25" height="24" viewBox="0 0 25 24" fill="none" xmlns="http://www.w3.org/2000/svg">
<path d="M16.8479 3.3535C16.3449 3.25271 15.8999 3.16357 15.3526 3.46747C14.4761 3.95411 14.1783 4.98451 14.4852 5.90972C14.963 7.35028 17.0028 8.3701 17.9493 8.77488C18.2514 8.90407 18.5933 8.85394 18.8455 8.64344C19.636 7.98389 21.297 6.42132 21.341 4.90421C21.3693 3.92983 20.7882 3.02835 19.8089 2.81389C19.1973 2.67996 18.7967 2.89311 18.3438 3.1341C18.1759 3.22347 18.0007 3.31667 17.805 3.39742C17.6896 3.44501 17.5639 3.46345 17.4397 3.45099C17.229 3.42986 17.0344 3.39088 16.8479 3.3535Z" fill="black"/>
<path d="M5.5 8.99999H3.5C2.94772 8.99999 2.5 9.44771 2.5 9.99999V20C2.5 20.5523 2.94772 21 3.5 21H5.5C6.05228 21 6.5 20.5523 6.5 20V18.9999C6.97893 18.6806 8.09356 19.0211 9.48961 19.4475C11.5915 20.0895 14.3313 20.9264 16.5 19.9999C19.811 18.5855 23.7 15.1999 22.5 13.9999C21.8453 13.3452 20.3332 13.8336 18.629 14.3841C17.1422 14.8643 15.5092 15.3918 14.1718 15.2485C13.3776 15.1634 13.5477 14.2813 14.3189 14.0734C16.1989 13.5665 18.0006 12.8624 18.4316 12.1458C18.487 12.0537 18.5024 11.9449 18.4934 11.8378C18.4298 11.0839 17.9012 10.5328 16.5 10.9999C15.1505 11.4497 14.0226 11.1318 12.9434 10.8277C12.126 10.5973 11.3365 10.3748 10.5 10.4999C9.08791 10.7111 7.89552 11.1712 6.95421 11.7173C6.66501 11.8851 6.5 12.1999 6.5 12.5343V9.99999C6.5 9.44771 6.05228 8.99999 5.5 8.99999Z" fill="black"/>
</svg>
