<svg width="25" height="24" viewBox="0 0 25 24" fill="none" xmlns="http://www.w3.org/2000/svg">
<path fill-rule="evenodd" clip-rule="evenodd" d="M2.5 5C2.5 3.34315 3.84315 2 5.5 2H19.5C21.1569 2 22.5 3.34315 22.5 5V19C22.5 20.6569 21.1569 22 19.5 22H5.5C3.84315 22 2.5 20.6569 2.5 19V5ZM4.29289 17.7071C3.90237 17.3166 3.90237 16.6834 4.29289 16.2929L7.29289 13.2929C7.68342 12.9024 8.31658 12.9024 8.70711 13.2929C9.09763 13.6834 9.09763 14.3166 8.70711 14.7071L7.41421 16L20 16C20.5523 16 21 16.4477 21 17C21 17.5523 20.5523 18 20 18H7.41421L8.70711 19.2929C9.09763 19.6834 9.09763 20.3166 8.70711 20.7071C8.31658 21.0976 7.68342 21.0976 7.29289 20.7071L4.29289 17.7071ZM20.7071 6.29289C21.0976 6.68342 21.0976 7.31658 20.7071 7.70711L17.7071 10.7071C17.3166 11.0976 16.6834 11.0976 16.2929 10.7071C15.9024 10.3166 15.9024 9.68342 16.2929 9.29289L17.5858 8L5 8C4.44772 8 4 7.55228 4 7C4 6.44771 4.44772 6 5 6L17.5858 6L16.2929 4.70711C15.9024 4.31658 15.9024 3.68342 16.2929 3.29289C16.6834 2.90237 17.3166 2.90237 17.7071 3.29289L20.7071 6.29289Z" fill="black"/>
</svg>
