<svg width="25" height="24" viewBox="0 0 25 24" fill="none" xmlns="http://www.w3.org/2000/svg">
<path fill-rule="evenodd" clip-rule="evenodd" d="M2.5 5C2.5 3.34315 3.84315 2 5.5 2H19.5C21.1569 2 22.5 3.34315 22.5 5V19C22.5 20.6569 21.1569 22 19.5 22H5.5C3.84315 22 2.5 20.6569 2.5 19V5ZM11.0858 20.7782C10.5335 20.7782 10.0858 20.3305 10.0858 19.7782V15.5355C10.0858 14.9832 10.5335 14.5355 11.0858 14.5355C11.6381 14.5355 12.0858 14.9832 12.0858 15.5355V17.364L19.5711 9.87867C19.9616 9.48815 20.5948 9.48815 20.9853 9.87867C21.3759 10.2692 21.3759 10.9024 20.9853 11.2929L13.5 18.7782H15.3285C15.8808 18.7782 16.3285 19.2259 16.3285 19.7782C16.3285 20.3305 15.8808 20.7782 15.3285 20.7782H11.0858ZM13.9142 3.22183C14.4665 3.22183 14.9142 3.66955 14.9142 4.22183L14.9142 8.46447C14.9142 9.01676 14.4665 9.46447 13.9142 9.46447C13.3619 9.46447 12.9142 9.01676 12.9142 8.46447V6.63605L5.42892 14.1213C5.0384 14.5119 4.40523 14.5119 4.01471 14.1213C3.62418 13.7308 3.62418 13.0976 4.01471 12.7071L11.5 5.22183L9.67156 5.22183C9.11928 5.22183 8.67156 4.77412 8.67156 4.22183C8.67156 3.66955 9.11928 3.22183 9.67156 3.22183L13.9142 3.22183Z" fill="black"/>
</svg>
