<svg width="25" height="24" viewBox="0 0 25 24" fill="none" xmlns="http://www.w3.org/2000/svg">
<path fill-rule="evenodd" clip-rule="evenodd" d="M2.5 5C2.5 3.34315 3.84315 2 5.5 2H19.5C21.1569 2 22.5 3.34315 22.5 5V19C22.5 20.6569 21.1569 22 19.5 22H5.5C3.84315 22 2.5 20.6569 2.5 19V5ZM16.7929 20.2071L13.7929 17.2071C13.4024 16.8166 13.4024 16.1834 13.7929 15.7929C14.1834 15.4024 14.8166 15.4024 15.2071 15.7929L16.5 17.0858V4.5C16.5 3.94771 16.9477 3.5 17.5 3.5C18.0523 3.5 18.5 3.94771 18.5 4.5V17.0858L19.7929 15.7929C20.1834 15.4024 20.8166 15.4024 21.2071 15.7929C21.5976 16.1834 21.5976 16.8166 21.2071 17.2071L18.2071 20.2071C17.8166 20.5976 17.1834 20.5976 16.7929 20.2071ZM6.79289 3.79289C7.18342 3.40237 7.81658 3.40237 8.20711 3.79289L11.2071 6.79289C11.5976 7.18342 11.5976 7.81658 11.2071 8.20711C10.8166 8.59763 10.1834 8.59763 9.79289 8.20711L8.5 6.91421V19.5C8.5 20.0523 8.05229 20.5 7.5 20.5C6.94772 20.5 6.5 20.0523 6.5 19.5V6.91421L5.20711 8.20711C4.81658 8.59763 4.18342 8.59763 3.79289 8.20711C3.40237 7.81658 3.40237 7.18342 3.79289 6.79289L6.79289 3.79289Z" fill="black"/>
</svg>
