<svg width="25" height="24" viewBox="0 0 25 24" fill="none" xmlns="http://www.w3.org/2000/svg">
<path d="M21.5 2C21.5 1.44772 21.0523 1 20.5 1C19.9477 1 19.5 1.44772 19.5 2V3.58579L12.9367 10.1491C12.7946 9.7699 12.4288 9.5 12 9.5C11.4477 9.5 11 9.94772 11 10.5V12.5C11 13.0523 11.4477 13.5 12 13.5H14C14.5523 13.5 15 13.0523 15 12.5C15 12.0712 14.7301 11.7054 14.3509 11.5633L20.9142 5H22.5C23.0523 5 23.5 4.55228 23.5 4C23.5 3.44772 23.0523 3 22.5 3H21.5V2Z" fill="black"/>
<path d="M12.5 2C14.5382 2 16.4339 2.60975 18.0148 3.65679L15.8302 5.84138C14.8399 5.30474 13.7055 5 12.5 5C8.63401 5 5.5 8.13401 5.5 12C5.5 15.866 8.63401 19 12.5 19C16.366 19 19.5 15.866 19.5 12C19.5 10.7945 19.1953 9.66014 18.6586 8.66981L20.8432 6.48522C21.8902 8.06609 22.5 9.96183 22.5 12C22.5 17.5228 18.0228 22 12.5 22C6.97715 22 2.5 17.5228 2.5 12C2.5 6.47715 6.97715 2 12.5 2Z" fill="black"/>
<path d="M12.5 7C13.1449 7 13.7612 7.12208 14.3272 7.34438L12.9383 8.7333C12.6585 8.58438 12.3391 8.5 12 8.5C10.8954 8.5 10 9.39543 10 10.5V12.5C10 13.6046 10.8954 14.5 12 14.5H14C15.1046 14.5 16 13.6046 16 12.5C16 12.1609 15.9156 11.8415 15.7667 11.5617L17.1556 10.1728C17.3779 10.7388 17.5 11.3551 17.5 12C17.5 14.7614 15.2614 17 12.5 17C9.73858 17 7.5 14.7614 7.5 12C7.5 9.23858 9.73858 7 12.5 7Z" fill="black"/>
</svg>
