<svg width="25" height="24" viewBox="0 0 25 24" fill="none" xmlns="http://www.w3.org/2000/svg">
<path d="M14.691 4.5H10.309L10.809 3.5H14.191L14.691 4.5Z" fill="black"/>
<path d="M3 12C3 11.7239 3.22386 11.5 3.5 11.5H21.5C21.7761 11.5 22 11.7239 22 12V15.5C22 16.0523 21.5523 16.5 21 16.5H4C3.44772 16.5 3 16.0523 3 15.5V12Z" fill="black"/>
<path d="M19.4815 6.52566L20.8063 10.5H4.19371L5.51849 6.52566C5.72266 5.91315 6.29587 5.5 6.94152 5.5H18.0585C18.7041 5.5 19.2773 5.91315 19.4815 6.52566Z" fill="black"/>
<path d="M17 17.5H20.5V19C20.5 19.2761 20.2761 19.5 20 19.5H17.5C17.2239 19.5 17 19.2761 17 19V17.5Z" fill="black"/>
<path d="M4.5 19V17.5H8V19C8 19.2761 7.77614 19.5 7.5 19.5H5C4.72386 19.5 4.5 19.2761 4.5 19Z" fill="black"/>
</svg>
