<svg width="25" height="24" viewBox="0 0 25 24" fill="none" xmlns="http://www.w3.org/2000/svg">
<path fill-rule="evenodd" clip-rule="evenodd" d="M18.5 4H6.5C4.84315 4 3.5 5.34315 3.5 7V17C3.5 18.6569 4.84315 20 6.5 20H18.5C20.1569 20 21.5 18.6569 21.5 17V7C21.5 5.34315 20.1569 4 18.5 4ZM6.652 8.47C6.35929 8.93834 6.50166 9.55529 6.97 9.848L9.6132 11.5L6.97 13.152C6.50166 13.4447 6.35929 14.0617 6.652 14.53C6.94471 14.9983 7.56166 15.1407 8.03 14.848L10.6732 13.196C11.9265 12.4127 11.9265 10.5873 10.6732 9.804L8.03 8.152C7.56166 7.85929 6.94471 8.00166 6.652 8.47ZM13.5 13C12.9477 13 12.5 13.4477 12.5 14C12.5 14.5523 12.9477 15 13.5 15H17.5C18.0523 15 18.5 14.5523 18.5 14C18.5 13.4477 18.0523 13 17.5 13H13.5Z" fill="black"/>
</svg>
