<svg width="25" height="24" viewBox="0 0 25 24" fill="none" xmlns="http://www.w3.org/2000/svg">
<path fill-rule="evenodd" clip-rule="evenodd" d="M17.5 16.8225C17.5 19.682 15.2614 22 12.5 22C9.73858 22 7.5 19.682 7.5 16.8225C7.5 15.1015 8.31098 13.5765 9.55882 12.6351C9.73754 12.5003 9.85294 12.2942 9.85294 12.0703V4.64706C9.85294 3.18513 11.0381 2 12.5 2C13.9619 2 15.1471 3.18513 15.1471 4.64706V12.0703C15.1471 12.2942 15.2625 12.5003 15.4412 12.6351C16.689 13.5765 17.5 15.1015 17.5 16.8225ZM13.5 5C13.5 4.44772 13.0523 4 12.5 4C11.9477 4 11.5 4.44772 11.5 5V16C11.5 16.5523 11.9477 17 12.5 17C13.0523 17 13.5 16.5523 13.5 16V5Z" fill="black"/>
</svg>
