<svg width="25" height="24" viewBox="0 0 25 24" fill="none" xmlns="http://www.w3.org/2000/svg">
<path d="M11.5 3.23535L5.22261 6.18942C4.17113 6.68423 3.5 7.74179 3.5 8.90387V14.882L10.7111 11.2765C10.9655 11.1493 11.2299 11.0509 11.5 10.9811V3.23535Z" fill="black"/>
<path d="M13.5 10.9811C13.7701 11.0509 14.0345 11.1493 14.2889 11.2765L21.5 14.882V8.90387C21.5 7.74179 20.8289 6.68423 19.7774 6.18942L13.5 3.23535V10.9811Z" fill="black"/>
<path d="M11.6056 13.0653L4.7603 16.4879L11.9734 19.8823C12.1381 19.9599 12.3179 20.0001 12.5 20.0001C12.6821 20.0001 12.8619 19.9599 13.0266 19.8823L20.2397 16.4879L13.3944 13.0653C12.8314 12.7838 12.1686 12.7838 11.6056 13.0653Z" fill="black"/>
</svg>
