<svg width="25" height="24" viewBox="0 0 25 24" fill="none" xmlns="http://www.w3.org/2000/svg">
<path fill-rule="evenodd" clip-rule="evenodd" d="M5.3745 4H19.0004C20.6573 4 22.0004 5.34315 22.0004 7V8.09168C22.0004 8.68395 21.8251 9.26297 21.4966 9.75577L20.9662 10.5514C20.369 11.4472 20.2976 12.5943 20.779 13.5572L21.6837 15.3666C21.892 15.7831 22.0004 16.2425 22.0004 16.7082L22.0004 17C22.0004 18.6568 20.6573 20 19.0004 20H5.50045C3.84359 20 2.50045 18.6569 2.50045 17L2.50045 16.8604C2.50045 16.2981 2.65845 15.7472 2.95645 15.2704L4.0067 13.59C4.6147 12.6172 4.6147 11.3828 4.0067 10.41L2.84869 8.55719C2.61929 8.19014 2.47264 7.77751 2.41895 7.34801C2.19673 5.57024 3.58291 4 5.3745 4ZM8.50045 6.5C8.50045 5.94772 8.05273 5.5 7.50045 5.5C6.94816 5.5 6.50045 5.94772 6.50045 6.5V8.5C6.50045 9.05229 6.94816 9.5 7.50045 9.5C8.05273 9.5 8.50045 9.05229 8.50045 8.5V6.5ZM7.50045 10C8.05273 10 8.50045 10.4477 8.50045 11V13C8.50045 13.5523 8.05273 14 7.50045 14C6.94816 14 6.50045 13.5523 6.50045 13V11C6.50045 10.4477 6.94816 10 7.50045 10ZM8.50045 15.5C8.50045 14.9477 8.05273 14.5 7.50045 14.5C6.94816 14.5 6.50045 14.9477 6.50045 15.5V17.5C6.50045 18.0523 6.94816 18.5 7.50045 18.5C8.05273 18.5 8.50045 18.0523 8.50045 17.5V15.5Z" fill="black"/>
</svg>
