<svg width="25" height="24" viewBox="0 0 25 24" fill="none" xmlns="http://www.w3.org/2000/svg">
<path fill-rule="evenodd" clip-rule="evenodd" d="M18.5 6.5C18.5 8.433 15.1421 10 11 10C6.85786 10 3.5 8.433 3.5 6.5C3.5 4.567 6.85786 3 11 3C15.1421 3 18.5 4.567 18.5 6.5ZM9 6.5C9 7.05228 9.89543 7.5 11 7.5C12.1046 7.5 13 7.05228 13 6.5C13 5.94772 12.1046 5.5 11 5.5C9.89543 5.5 9 5.94772 9 6.5Z" fill="black"/>
<path d="M11 11.4998C13.9867 11.4998 16.6676 10.8452 18.5 9.80713V9.99994H20.5C21.6046 9.99994 22.5 10.8954 22.5 11.9999V18.9999C22.5 20.1045 21.6046 20.9999 20.5 20.9999H11C6.85786 20.9999 3.5 19.4329 3.5 17.4999V9.80713C5.33236 10.8452 8.01327 11.4998 11 11.4998Z" fill="black"/>
</svg>
