<svg width="25" height="24" viewBox="0 0 25 24" fill="none" xmlns="http://www.w3.org/2000/svg">
<path fill-rule="evenodd" clip-rule="evenodd" d="M20.5 16C20.5 18.7614 18.2614 21 15.5 21H9.5C6.73858 21 4.5 18.7614 4.5 16V10C4.5 5.58172 8.08172 2 12.5 2C16.9183 2 20.5 5.58172 20.5 10V16ZM17.5 13V10C17.5 7.23858 15.2614 5 12.5 5C9.73858 5 7.5 7.23858 7.5 10V13C7.5 14.1046 8.39543 15 9.5 15H15.5C16.6046 15 17.5 14.1046 17.5 13ZM10.5 17C9.94772 17 9.5 17.4477 9.5 18C9.5 18.5523 9.94772 19 10.5 19H15.5C16.0523 19 16.5 18.5523 16.5 18C16.5 17.4477 16.0523 17 15.5 17H10.5Z" fill="black"/>
</svg>
