<svg width="25" height="24" viewBox="0 0 25 24" fill="none" xmlns="http://www.w3.org/2000/svg">
<path d="M12.5 4C14.1569 4 15.5 5.34315 15.5 7V18H11.5C11.5 15.7909 9.70914 14 7.5 14C5.29086 14 3.5 15.7909 3.5 18C2.94772 18 2.5 17.5523 2.5 17V7C2.5 5.34315 3.84315 4 5.5 4H12.5Z" fill="black"/>
<path d="M16.5 15.3542V9.5H18.5504C19.7359 9.5 20.8103 10.1982 21.2918 11.2816L22.2414 13.4182C22.4119 13.8018 22.5 14.2169 22.5 14.6366V15.3542C21.7671 14.5238 20.6947 14 19.5 14C18.3053 14 17.2329 14.5238 16.5 15.3542Z" fill="black"/>
<path fill-rule="evenodd" clip-rule="evenodd" d="M7.5 15C5.84315 15 4.5 16.3431 4.5 18C4.5 19.6569 5.84315 21 7.5 21C9.15685 21 10.5 19.6569 10.5 18C10.5 16.3431 9.15685 15 7.5 15ZM6.5 18C6.5 17.4477 6.94772 17 7.5 17C8.05228 17 8.5 17.4477 8.5 18C8.5 18.5523 8.05228 19 7.5 19C6.94772 19 6.5 18.5523 6.5 18Z" fill="black"/>
<path fill-rule="evenodd" clip-rule="evenodd" d="M19.5 15C17.8431 15 16.5 16.3431 16.5 18C16.5 19.6569 17.8431 21 19.5 21C21.1569 21 22.5 19.6569 22.5 18C22.5 16.3431 21.1569 15 19.5 15ZM18.5 18C18.5 17.4477 18.9477 17 19.5 17C20.0523 17 20.5 17.4477 20.5 18C20.5 18.5523 20.0523 19 19.5 19C18.9477 19 18.5 18.5523 18.5 18Z" fill="black"/>
</svg>
