<svg width="25" height="24" viewBox="0 0 25 24" fill="none" xmlns="http://www.w3.org/2000/svg">
<path fill-rule="evenodd" clip-rule="evenodd" d="M5.5 3H19.5C21.1569 3 22.5 4.34315 22.5 6V16C22.5 17.6569 21.1569 19 19.5 19H5.5C3.84315 19 2.5 17.6569 2.5 16V6C2.5 4.34315 3.84315 3 5.5 3ZM7 8C6.44772 8 6 8.44772 6 9C6 9.55228 6.44772 10 7 10H8V13C8 13.5523 8.44772 14 9 14C9.55228 14 10 13.5523 10 13V10H11C11.5523 10 12 9.55228 12 9C12 8.44772 11.5523 8 11 8H7ZM13.5528 8.10557C14.0468 7.85858 14.6474 8.05881 14.8944 8.55279L16 10.7639L17.1056 8.55279C17.3526 8.05881 17.9532 7.85858 18.4472 8.10557C18.9412 8.35256 19.1414 8.95324 18.8944 9.44721L16.8944 13.4472C16.725 13.786 16.3788 14 16 14C15.6212 14 15.275 13.786 15.1056 13.4472L13.1056 9.44721C12.8586 8.95324 13.0588 8.35256 13.5528 8.10557Z" fill="black"/>
<path d="M11 20C10.4477 20 10 20.4477 10 21C10 21.5523 10.4477 22 11 22H14C14.5523 22 15 21.5523 15 21C15 20.4477 14.5523 20 14 20H11Z" fill="black"/>
</svg>
