<svg width="25" height="24" viewBox="0 0 25 24" fill="none" xmlns="http://www.w3.org/2000/svg">
<path fill-rule="evenodd" clip-rule="evenodd" d="M5.5 2C3.84315 2 2.5 3.34315 2.5 5V19C2.5 20.6569 3.84315 22 5.5 22H19.5C21.1569 22 22.5 20.6569 22.5 19V5C22.5 3.34315 21.1569 2 19.5 2H5.5ZM4.04289 8.70711C3.65237 8.31658 3.65237 7.68342 4.04289 7.29289L8.04289 3.29289C8.43342 2.90237 9.06658 2.90237 9.45711 3.29289C9.84763 3.68342 9.84763 4.31658 9.45711 4.70711L7.16421 7H14.75C18.3399 7 21.25 9.91015 21.25 13.5C21.25 17.0899 18.3398 20 14.75 20H6.75C6.19772 20 5.75 19.5523 5.75 19C5.75 18.4477 6.19772 18 6.75 18H14.75C17.2353 18 19.25 15.9853 19.25 13.5C19.25 11.0147 17.2353 9 14.75 9H7.16421L9.45711 11.2929C9.84763 11.6834 9.84763 12.3166 9.45711 12.7071C9.06658 13.0976 8.43342 13.0976 8.04289 12.7071L4.04289 8.70711Z" fill="black"/>
</svg>
