<svg width="25" height="24" viewBox="0 0 25 24" fill="none" xmlns="http://www.w3.org/2000/svg">
<path fill-rule="evenodd" clip-rule="evenodd" d="M23.5 12C23.5 18.0751 18.5751 23 12.5 23C6.42487 23 1.5 18.0751 1.5 12C1.5 5.92487 6.42487 1 12.5 1C18.5751 1 23.5 5.92487 23.5 12ZM12.4969 21.5C9.60297 21.5 4.31118 19.5674 5.74025 17C6.99763 14.7411 9.54089 12.5 12.4969 12.5C15.453 12.5 17.9962 14.7411 19.2536 17C20.7053 19.6079 15.3909 21.5 12.4969 21.5ZM12.5 12C14.7091 12 16.5 10.2091 16.5 8C16.5 5.79086 14.7091 4 12.5 4C10.2909 4 8.5 5.79086 8.5 8C8.5 10.2091 10.2909 12 12.5 12Z" fill="black"/>
</svg>
