<svg width="25" height="24" viewBox="0 0 25 24" fill="none" xmlns="http://www.w3.org/2000/svg">
<path d="M23.1961 4.20711C23.5866 3.81658 23.5866 3.18342 23.1961 2.79289C22.8056 2.40237 22.1724 2.40237 21.7819 2.79289L19.8431 4.73163L19.5613 4.44974C19.1707 4.05922 18.5376 4.05922 18.147 4.44974C17.7565 4.84027 17.7565 5.47343 18.147 5.86395L19.136 6.85295C19.5266 7.24347 20.1597 7.24347 20.5503 6.85295L23.1961 4.20711Z" fill="black"/>
<path d="M16.5 7.00002C16.5 9.20915 14.7091 11 12.5 11C10.2909 11 8.5 9.20915 8.5 7.00002C8.5 4.79088 10.2909 3.00002 12.5 3.00002C14.7091 3.00002 16.5 4.79088 16.5 7.00002Z" fill="black"/>
<path d="M12.5 22C9.63273 22 4.14905 20.6701 5.80565 18C7.05143 15.9921 9.57123 14 12.5 14C15.4288 14 17.9486 15.9921 19.1943 18C20.8509 20.6701 15.3673 22 12.5 22Z" fill="black"/>
</svg>
