<svg width="25" height="24" viewBox="0 0 25 24" fill="none" xmlns="http://www.w3.org/2000/svg">
<path d="M14.4999 14C17.2613 14 19.4999 11.7614 19.4999 9C19.4999 6.23858 17.2613 4 14.4999 4C11.7385 4 9.49989 6.23858 9.49989 9C9.49989 11.7614 11.7385 14 14.4999 14Z" fill="black"/>
<path d="M8.6553 20.5272C8.36413 20.9965 7.74765 21.1409 7.27835 20.8497C6.80905 20.5586 6.66465 19.9421 6.95582 19.4728C8.32522 17.2656 11.1267 15 14.4999 15C17.8731 15 20.6746 17.2656 22.044 19.4728C22.3352 19.9421 22.1908 20.5586 21.7215 20.8497C21.2522 21.1409 20.6357 20.9965 20.3445 20.5272C19.2224 18.7185 16.9842 17 14.4999 17C12.0156 17 9.77745 18.7185 8.6553 20.5272Z" fill="black"/>
<path d="M8.39775 6.55972C8.64091 7.05559 8.43605 7.6547 7.94018 7.89786C7.03151 8.34344 6.49989 9.15179 6.49989 10C6.49989 10.8482 7.03151 11.6566 7.94018 12.1021C8.43605 12.3453 8.64091 12.9444 8.39775 13.4403C8.15459 13.9362 7.55548 14.141 7.05961 13.8979C5.5828 13.1737 4.49989 11.7335 4.49989 10C4.49989 8.26647 5.5828 6.82632 7.05961 6.10214C7.55548 5.85898 8.15459 6.06384 8.39775 6.55972Z" fill="black"/>
<path d="M4.6553 20.5272C4.36413 20.9965 3.74765 21.1409 3.27835 20.8497C2.80905 20.5586 2.66465 19.9421 2.95582 19.4728C3.53491 18.5394 4.46145 17.7604 5.49513 17.1559C5.97189 16.8772 6.58437 17.0377 6.86315 17.5144C7.14194 17.9912 6.98144 18.6037 6.50468 18.8824C5.64097 19.3875 5.0055 19.9627 4.6553 20.5272Z" fill="black"/>
</svg>
