<svg width="25" height="24" viewBox="0 0 25 24" fill="none" xmlns="http://www.w3.org/2000/svg">
<path d="M16.5 7C16.5 9.20914 14.7091 11 12.5 11C10.2909 11 8.5 9.20914 8.5 7C8.5 4.79086 10.2909 3 12.5 3C14.7091 3 16.5 4.79086 16.5 7Z" fill="black"/>
<path d="M12.5 22C9.63273 22 4.14905 20.6701 5.80565 18C7.05143 15.9921 9.57123 14 12.5 14C15.4288 14 17.9486 15.9921 19.1943 18C20.8509 20.6701 15.3673 22 12.5 22Z" fill="black"/>
<path d="M20.5 3.58433C20.5 3.58433 19.6029 2.6184 18.4067 3.17036C17.6357 3.52614 17.3951 4.22513 17.5399 5.01992C17.7239 6.03052 18.8233 6.93641 19.6287 7.47715C20.1593 7.83334 20.8408 7.83334 21.3713 7.47715C22.1767 6.9364 23.2761 6.03052 23.4601 5.01992C23.6049 4.22513 23.3643 3.52614 22.5933 3.17036C21.3971 2.6184 20.5 3.58433 20.5 3.58433Z" fill="black"/>
</svg>
