<svg width="25" height="24" viewBox="0 0 25 24" fill="none" xmlns="http://www.w3.org/2000/svg">
<path d="M21.9142 5.00015L22.6213 4.29304C23.0118 3.90252 23.0118 3.26935 22.6213 2.87883C22.2308 2.48831 21.5976 2.48831 21.2071 2.87883L20.5 3.58594L19.7929 2.87883C19.4024 2.48831 18.7692 2.48831 18.3787 2.87883C17.9882 3.26935 17.9882 3.90252 18.3787 4.29304L19.0858 5.00015L18.3787 5.70726C17.9882 6.09778 17.9882 6.73095 18.3787 7.12147C18.7692 7.512 19.4024 7.512 19.7929 7.12147L20.5 6.41436L21.2071 7.12147C21.5976 7.512 22.2308 7.512 22.6213 7.12147C23.0118 6.73095 23.0118 6.09778 22.6213 5.70726L21.9142 5.00015Z" fill="black"/>
<path d="M16.5 7.00009C16.5 9.20923 14.7091 11.0001 12.5 11.0001C10.2909 11.0001 8.5 9.20923 8.5 7.00009C8.5 4.79095 10.2909 3.00009 12.5 3.00009C14.7091 3.00009 16.5 4.79095 16.5 7.00009Z" fill="black"/>
<path d="M12.5 22.0001C9.63273 22.0001 4.14905 20.6702 5.80565 18.0001C7.05143 15.9922 9.57123 14.0001 12.5 14.0001C15.4288 14.0001 17.9486 15.9922 19.1943 18.0001C20.8509 20.6702 15.3673 22.0001 12.5 22.0001Z" fill="black"/>
</svg>
