<svg width="25" height="24" viewBox="0 0 25 24" fill="none" xmlns="http://www.w3.org/2000/svg">
<path d="M12.5002 13C14.7094 13 16.5002 11.2091 16.5002 9C16.5002 6.79086 14.7094 5 12.5002 5C10.2911 5 8.50022 6.79086 8.50022 9C8.50022 11.2091 10.2911 13 12.5002 13Z" fill="black"/>
<path d="M6.76221 18C5.34227 20.6701 10.0426 22 12.5002 22C14.9579 22 19.6582 20.6701 18.2382 18C17.1704 15.9921 15.0106 14 12.5002 14C9.98984 14 7.83002 15.9921 6.76221 18Z" fill="black"/>
<path d="M8.00022 12C8.00022 13.1046 7.10479 14 6.00022 14C4.89565 14 4.00022 13.1046 4.00022 12C4.00022 10.8954 4.89565 10 6.00022 10C7.10479 10 8.00022 10.8954 8.00022 12Z" fill="black"/>
<path d="M3.39595 19.4446C3.15041 19.9393 2.55033 20.1413 2.05563 19.8957C1.56093 19.6502 1.35895 19.0501 1.60449 18.5554C1.97187 17.8152 2.52795 17.0721 3.22747 16.5034C3.92726 15.9346 4.82399 15.5 5.84739 15.5C6.39968 15.5 6.84739 15.9477 6.84739 16.5C6.84739 17.0523 6.39968 17.5 5.84739 17.5C5.40641 17.5 4.941 17.688 4.48902 18.0554C4.03678 18.423 3.65146 18.9298 3.39595 19.4446Z" fill="black"/>
<path d="M21.3103 12C21.3103 13.1046 20.4149 14 19.3103 14C18.2057 14 17.3103 13.1046 17.3103 12C17.3103 10.8954 18.2057 10 19.3103 10C20.4149 10 21.3103 10.8954 21.3103 12Z" fill="black"/>
<path d="M23.4004 18.5554C23.6459 19.0501 23.4439 19.6502 22.9492 19.8957C22.4545 20.1413 21.8544 19.9393 21.6089 19.4446C21.3534 18.9298 20.9681 18.423 20.5158 18.0554C20.0638 17.688 19.5984 17.5 19.1574 17.5C18.6052 17.5 18.1574 17.0523 18.1574 16.5C18.1574 15.9477 18.6052 15.5 19.1574 15.5C20.1809 15.5 21.0776 15.9346 21.7774 16.5034C22.4769 17.0721 23.033 17.8152 23.4004 18.5554Z" fill="black"/>
</svg>
