<svg width="25" height="24" viewBox="0 0 25 24" fill="none" xmlns="http://www.w3.org/2000/svg">
<path d="M21.5 3C21.5 2.44772 21.0523 2 20.5 2C19.9477 2 19.5 2.44772 19.5 3V4H18.5C17.9477 4 17.5 4.44772 17.5 5C17.5 5.55228 17.9477 6 18.5 6H19.5V7C19.5 7.55228 19.9477 8 20.5 8C21.0523 8 21.5 7.55228 21.5 7V6H22.5C23.0523 6 23.5 5.55228 23.5 5C23.5 4.44772 23.0523 4 22.5 4H21.5V3Z" fill="black"/>
<path d="M16.5 7C16.5 9.20914 14.7091 11 12.5 11C10.2909 11 8.5 9.20914 8.5 7C8.5 4.79086 10.2909 3 12.5 3C14.7091 3 16.5 4.79086 16.5 7Z" fill="black"/>
<path d="M12.5 22C9.63273 22 4.14905 20.6701 5.80565 18C7.05143 15.9921 9.57123 14 12.5 14C15.4288 14 17.9486 15.9921 19.1943 18C20.8509 20.6701 15.3673 22 12.5 22Z" fill="black"/>
</svg>
