<svg width="25" height="24" viewBox="0 0 25 24" fill="none" xmlns="http://www.w3.org/2000/svg">
<path fill-rule="evenodd" clip-rule="evenodd" d="M15.5 5H5.5C3.84315 5 2.5 6.34315 2.5 8V16C2.5 17.6569 3.84315 19 5.5 19H15.5C17.1569 19 18.5 17.6569 18.5 16V15L20.9 16.8C21.5592 17.2944 22.5 16.824 22.5 16V8C22.5 7.17595 21.5592 6.70557 20.9 7.2L18.5 9V8C18.5 6.34315 17.1569 5 15.5 5ZM5.09292 9.63079C5.574 9.79115 5.9515 10.1687 6.11186 10.6497C6.27507 11.1394 6.96761 11.1394 7.13081 10.6497C7.29117 10.1687 7.66868 9.79115 8.14976 9.63079C8.63937 9.46759 8.63937 8.77505 8.14976 8.61185C7.66868 8.45149 7.29117 8.07398 7.13081 7.5929C6.96761 7.10329 6.27507 7.10329 6.11186 7.5929C5.9515 8.07398 5.574 8.45149 5.09292 8.61185C4.60331 8.77505 4.60331 9.46759 5.09292 9.63079Z" fill="black"/>
</svg>
