<svg width="25" height="24" viewBox="0 0 25 24" fill="none" xmlns="http://www.w3.org/2000/svg">
<path d="M23.2071 2.70711C23.5976 2.31658 23.5976 1.68342 23.2071 1.29289C22.8166 0.902369 22.1834 0.902369 21.7929 1.29289L1.79289 21.2929C1.40237 21.6834 1.40237 22.3166 1.79289 22.7071C2.18342 23.0976 2.81658 23.0976 3.20711 22.7071L23.2071 2.70711Z" fill="black"/>
<path fill-rule="evenodd" clip-rule="evenodd" d="M16.5006 5.17093C16.1877 5.06024 15.8509 5 15.5 5H5.5C3.84315 5 2.5 6.34315 2.5 8V16C2.5 16.8721 2.8721 17.6572 3.46619 18.2054L16.5006 5.17093ZM6.11186 10.6497C5.9515 10.1687 5.574 9.79115 5.09292 9.63079C4.60331 9.46759 4.60331 8.77505 5.09292 8.61185C5.574 8.45149 5.9515 8.07398 6.11186 7.5929C6.27507 7.10329 6.96761 7.10329 7.13081 7.5929C7.29117 8.07398 7.66868 8.45149 8.14976 8.61185C8.63937 8.77505 8.63937 9.46759 8.14976 9.63079C7.66868 9.79115 7.29117 10.1687 7.13081 10.6497C6.96761 11.1394 6.27507 11.1394 6.11186 10.6497Z" fill="black"/>
<path d="M8.32843 19H15.5C17.1569 19 18.5 17.6569 18.5 16V15L20.9 16.8C21.5592 17.2944 22.5 16.824 22.5 16V8C22.5 7.17595 21.5592 6.70557 20.9 7.2L18.5 9V8.82843L8.32843 19Z" fill="black"/>
</svg>
