<svg width="25" height="24" viewBox="0 0 25 24" fill="none" xmlns="http://www.w3.org/2000/svg">
<path fill-rule="evenodd" clip-rule="evenodd" d="M11.25 3C11.25 2.44772 11.6977 2 12.25 2C12.8023 2 13.25 2.44772 13.25 3V21C13.25 21.5523 12.8023 22 12.25 22C11.6977 22 11.25 21.5523 11.25 21V3ZM20.25 3C20.8023 3 21.25 3.44772 21.25 4V18C21.25 18.5523 20.8023 19 20.25 19C19.6977 19 19.25 18.5523 19.25 18L19.25 4C19.25 3.44772 19.6977 3 20.25 3ZM4.75 8C4.19772 8 3.75 8.44772 3.75 9V13C3.75 13.5523 4.19772 14 4.75 14C5.30228 14 5.75 13.5523 5.75 13V9C5.75 8.44772 5.30228 8 4.75 8ZM17.25 8C17.25 7.44772 16.8023 7 16.25 7C15.6977 7 15.25 7.44772 15.25 8V14C15.25 14.5523 15.6977 15 16.25 15C16.8023 15 17.25 14.5523 17.25 14V8ZM8.25 4C7.69772 4 7.25 4.44772 7.25 5V17C7.25 17.5523 7.69772 18 8.25 18C8.80228 18 9.25 17.5523 9.25 17V5C9.25 4.44772 8.80228 4 8.25 4Z" fill="black"/>
</svg>
