<svg width="25" height="24" viewBox="0 0 25 24" fill="none" xmlns="http://www.w3.org/2000/svg">
<path d="M8.82636 6.09634L5.07574 6.63215C3.59779 6.84328 2.5 8.10904 2.5 9.60199V14.3982C2.5 15.8912 3.59779 17.1569 5.07573 17.3681L8.82636 17.9039C9.26982 17.9672 9.69347 18.1291 10.0662 18.3776L13.9453 20.9636C14.6099 21.4067 15.5 20.9303 15.5 20.1316V3.86863C15.5 3.06993 14.6099 2.59354 13.9453 3.03657L10.0662 5.62264C9.69347 5.87113 9.26982 6.03299 8.82636 6.09634Z" fill="black"/>
<path d="M17.0592 14.5891C16.872 14.0696 17.1414 13.4966 17.661 13.3093C18.186 13.1201 18.5 12.6132 18.5 12.0001C18.5 11.3871 18.186 10.8801 17.661 10.6909C17.1414 10.5036 16.872 9.93065 17.0592 9.41107C17.2465 8.8915 17.8195 8.62209 18.339 8.80933C19.814 9.34086 20.5 10.7235 20.5 12.0001C20.5 13.2767 19.814 14.6594 18.339 15.1909C17.8195 15.3781 17.2465 15.1087 17.0592 14.5891Z" fill="black"/>
<path d="M18.161 17.0593C17.6414 17.2466 17.372 17.8196 17.5592 18.3391C17.7465 18.8587 18.3195 19.1281 18.839 18.9409C21.9806 17.8087 23.5 14.8514 23.5 12.0001C23.5 9.14885 21.9806 6.1915 18.839 5.05933C18.3195 4.87209 17.7465 5.1415 17.5592 5.66107C17.372 6.18065 17.6414 6.75364 18.161 6.94088C20.3527 7.73074 21.5 9.81238 21.5 12.0001C21.5 14.1878 20.3527 16.2695 18.161 17.0593Z" fill="black"/>
</svg>
