<svg width="25" height="24" viewBox="0 0 25 24" fill="none" xmlns="http://www.w3.org/2000/svg">
<path d="M5.07574 6.63215L8.82636 6.09634C9.26982 6.03299 9.69347 5.87113 10.0662 5.62264L13.9453 3.03657C14.6099 2.59354 15.5 3.06993 15.5 3.86863V20.1316C15.5 20.9303 14.6099 21.4067 13.9453 20.9636L10.0662 18.3776C9.69347 18.1291 9.26982 17.9672 8.82636 17.9039L5.07573 17.3681C3.59779 17.1569 2.5 15.8912 2.5 14.3982V9.60199C2.5 8.10904 3.59779 6.84328 5.07574 6.63215Z" fill="black"/>
<path d="M21.7426 11.8285L22.4497 11.1214C22.8402 10.7309 22.8402 10.0977 22.4497 9.70721C22.0592 9.31669 21.426 9.31669 21.0355 9.70721L20.3284 10.4143L19.6213 9.70721C19.2307 9.31669 18.5976 9.31669 18.207 9.70721C17.8165 10.0977 17.8165 10.7309 18.207 11.1214L18.9142 11.8285L18.207 12.5356C17.8165 12.9262 17.8165 13.5593 18.207 13.9499C18.5976 14.3404 19.2307 14.3404 19.6213 13.9499L20.3284 13.2427L21.0355 13.9499C21.426 14.3404 22.0592 14.3404 22.4497 13.9499C22.8402 13.5593 22.8402 12.9262 22.4497 12.5356L21.7426 11.8285Z" fill="black"/>
</svg>
