<svg width="25" height="24" viewBox="0 0 25 24" fill="none" xmlns="http://www.w3.org/2000/svg">
<path d="M23.2071 2.70711C23.5976 2.31658 23.5976 1.68342 23.2071 1.29289C22.8166 0.902369 22.1834 0.902369 21.7929 1.29289L1.79289 21.2929C1.40237 21.6834 1.40237 22.3166 1.79289 22.7071C2.18342 23.0976 2.81658 23.0976 3.20711 22.7071L23.2071 2.70711Z" fill="black"/>
<path d="M15.5 3.86838V6.17152L4.45939 17.2121C3.30269 16.7851 2.5 15.6746 2.5 14.398V9.60175C2.5 8.1088 3.59779 6.84304 5.07574 6.6319L8.82636 6.0961C9.26982 6.03275 9.69347 5.87089 10.0662 5.6224L13.9453 3.03633C14.6099 2.59329 15.5 3.06969 15.5 3.86838Z" fill="black"/>
<path d="M10.0662 18.3773C9.83264 18.2216 9.57909 18.0999 9.3132 18.0152L15.5 11.8284V20.1313C15.5 20.93 14.6099 21.4064 13.9453 20.9634L10.0662 18.3773Z" fill="black"/>
</svg>
