<svg width="25" height="24" viewBox="0 0 25 24" fill="none" xmlns="http://www.w3.org/2000/svg">
<path d="M5.07574 6.63215L8.82636 6.09634C9.26982 6.03299 9.69347 5.87113 10.0662 5.62264L13.9453 3.03657C14.6099 2.59354 15.5 3.06993 15.5 3.86863V20.1316C15.5 20.9303 14.6099 21.4067 13.9453 20.9636L10.0662 18.3776C9.69347 18.1291 9.26982 17.9672 8.82636 17.9039L5.07573 17.3681C3.59779 17.1569 2.5 15.8912 2.5 14.3982V9.60199C2.5 8.10904 3.59779 6.84328 5.07574 6.63215Z" fill="black"/>
<path d="M17.661 13.3093C17.1414 13.4966 16.872 14.0696 17.0592 14.5891C17.2465 15.1087 17.8195 15.3781 18.339 15.1909C19.814 14.6594 20.5 13.2767 20.5 12.0001C20.5 10.7235 19.814 9.34086 18.339 8.80933C17.8195 8.62209 17.2465 8.8915 17.0592 9.41107C16.872 9.93065 17.1414 10.5036 17.661 10.6909C18.186 10.8801 18.5 11.3871 18.5 12.0001C18.5 12.6132 18.186 13.1201 17.661 13.3093Z" fill="black"/>
</svg>
