<svg width="25" height="24" viewBox="0 0 25 24" fill="none" xmlns="http://www.w3.org/2000/svg">
<path fill-rule="evenodd" clip-rule="evenodd" d="M2.5469 13.5554C2.38815 11.9568 2.57197 9.91334 4.05171 8.40002C6.13222 6.2723 9.55771 6 12.5 6C15.4423 6 18.8678 6.27231 20.9483 8.40002C22.428 9.91335 22.6119 11.9568 22.4531 13.5555C22.2894 15.204 21.0192 16.435 19.4858 17.0623C18.0167 17.6633 16.3703 17.6633 14.9012 17.0623L14.8467 17.04C13.3427 16.4247 11.6573 16.4247 10.1532 17.04L10.0988 17.0623C8.6297 17.6633 6.98331 17.6633 5.51419 17.0623C3.98083 16.435 2.71061 15.204 2.5469 13.5554ZM9.55295 8.92109C9.7219 9.4194 10.2452 9.69734 10.7467 9.56915C10.7698 9.5653 10.831 9.55637 10.9474 9.54622C11.1953 9.52462 11.6641 9.5 12.5 9.5C13.3359 9.5 13.8047 9.52462 14.0526 9.54622C14.169 9.55637 14.2302 9.5653 14.2533 9.56915C14.7548 9.69734 15.2781 9.4194 15.447 8.92109C15.6244 8.39805 15.3441 7.83029 14.8211 7.65295C14.7953 7.64459 14.8217 7.65317 14.8195 7.6524L14.8178 7.65186L14.8146 7.65078L14.8082 7.64866L14.7953 7.64459C14.7868 7.64195 14.7782 7.63941 14.7697 7.63699C14.7527 7.63214 14.7352 7.6276 14.7173 7.62331C14.6818 7.61478 14.6422 7.60669 14.5974 7.59896C14.5087 7.58363 14.3896 7.56802 14.2262 7.55378C13.9004 7.52538 13.3692 7.5 12.5 7.5C11.6308 7.5 11.0996 7.52538 10.7738 7.55378C10.6104 7.56802 10.4913 7.58363 10.4026 7.59896C10.3578 7.60669 10.3182 7.61478 10.2827 7.62331C10.2648 7.6276 10.2473 7.63214 10.2303 7.63699C10.2218 7.63941 10.2132 7.64195 10.2047 7.64459L10.1918 7.64866L10.1854 7.65078L10.1822 7.65186L10.1805 7.6524C10.1783 7.65316 10.1789 7.65295 10.1789 7.65295C9.65587 7.83029 9.37562 8.39805 9.55295 8.92109Z" fill="black"/>
</svg>
