<svg width="25" height="24" viewBox="0 0 25 24" fill="none" xmlns="http://www.w3.org/2000/svg">
<path d="M16.7929 16.2929C17.1288 15.957 17.5245 15.7174 17.9457 15.5742C17.6631 15.1166 17.5 14.5773 17.5 14C17.5 12.3431 18.8431 11 20.5 11H22.5V10.5556C22.5 8.8987 21.1578 7.55556 19.501 7.55556H16L15.989 7.55H7.5C6.94772 7.55 6.5 7.10228 6.5 6.55C6.5 5.99772 6.94772 5.55 7.5 5.55H14.7643C14.3842 4.74032 13.9903 4 13.5138 4H6.72476C5.49606 4 4.5 4.99606 4.5 6.22476V17C4.5 18.6569 5.84315 20 7.5 20H16.1828C16.2091 19.9421 16.2374 19.8849 16.2676 19.8284C15.6605 18.6934 15.8356 17.2502 16.7929 16.2929Z" fill="black"/>
<path d="M22.5 13H20.5C19.9477 13 19.5 13.4477 19.5 14C19.5 14.5523 19.9477 15 20.5 15H22.5V13Z" fill="black"/>
<path d="M21.7426 19.8284L22.4497 19.1213C22.8402 18.7308 22.8402 18.0976 22.4497 17.7071C22.0592 17.3166 21.426 17.3166 21.0355 17.7071L20.3284 18.4142L19.6213 17.7071C19.2307 17.3166 18.5976 17.3166 18.207 17.7071C17.8165 18.0976 17.8165 18.7308 18.207 19.1213L18.9142 19.8284L18.207 20.5355C17.8165 20.9261 17.8165 21.5592 18.207 21.9497C18.5976 22.3403 19.2307 22.3403 19.6213 21.9497L20.3284 21.2426L21.0355 21.9497C21.426 22.3403 22.0592 22.3403 22.4497 21.9497C22.8402 21.5592 22.8402 20.9261 22.4497 20.5355L21.7426 19.8284Z" fill="black"/>
</svg>
