<svg width="25" height="24" viewBox="0 0 25 24" fill="none" xmlns="http://www.w3.org/2000/svg">
<path d="M21.9931 14.7578L22.2656 15H22.5V13H20.5C19.9477 13 19.5 13.4477 19.5 14C19.5 14.014 19.5003 14.0278 19.5009 14.0416C20.3705 13.8955 21.2915 14.1342 21.9931 14.7578Z" fill="black"/>
<path d="M7.5 20H16.0051C15.1838 18.7739 15.373 17.099 16.5069 16.0911L17.6862 15.0428C17.5658 14.718 17.5 14.3667 17.5 14C17.5 12.3431 18.8431 11 20.5 11H22.5V10.5556C22.5 8.8987 21.1578 7.55556 19.501 7.55556H16L15.989 7.55H7.5C6.94772 7.55 6.5 7.10228 6.5 6.55C6.5 5.99772 6.94772 5.55 7.5 5.55H14.7643C14.3842 4.74032 13.9903 4 13.5138 4H6.72476C5.49606 4 4.5 4.99606 4.5 6.22476V17C4.5 18.6569 5.84315 20 7.5 20Z" fill="black"/>
<path d="M20.6644 16.2526C20.2855 15.9158 19.7145 15.9158 19.3356 16.2526L17.8356 17.5859C17.4229 17.9528 17.3857 18.5849 17.7526 18.9977C18.0736 19.3588 18.5975 19.4325 19 19.1996V22C19 22.5523 19.4477 23 20 23C20.5523 23 21 22.5523 21 22V19.1996C21.4025 19.4325 21.9264 19.3588 22.2474 18.9977C22.6143 18.5849 22.5771 17.9528 22.1644 17.5859L20.6644 16.2526Z" fill="black"/>
</svg>
