<svg width="25" height="24" viewBox="0 0 25 24" fill="none" xmlns="http://www.w3.org/2000/svg">
<path d="M19.516 17.2303L19.823 16.9233C18.4922 16.6164 17.5 15.4241 17.5 14C17.5 12.3431 18.8431 11 20.5 11H22.5V10.5556C22.5 8.8987 21.1578 7.55556 19.501 7.55556H16L15.989 7.55H7.5C6.94772 7.55 6.5 7.10228 6.5 6.55C6.5 5.99772 6.94772 5.55 7.5 5.55H14.7643C14.3842 4.74032 13.9903 4 13.5138 4H6.72476C5.49606 4 4.5 4.99606 4.5 6.22476V17C4.5 18.6569 5.84315 20 7.5 20H15.8582C15.8954 19.2853 16.1869 18.5814 16.7328 18.0355C17.4881 17.2803 18.5458 17.0119 19.516 17.2303Z" fill="black"/>
<path d="M22.5 13H20.5C19.9477 13 19.5 13.4477 19.5 14C19.5 14.5523 19.9477 15 20.5 15H22.5V13Z" fill="black"/>
<path d="M23.1961 19.2071C23.5866 18.8166 23.5866 18.1834 23.1961 17.7929C22.8056 17.4024 22.1724 17.4024 21.7819 17.7929L19.8431 19.7316L19.5613 19.4497C19.1707 19.0592 18.5376 19.0592 18.147 19.4497C17.7565 19.8403 17.7565 20.4734 18.147 20.8639L19.136 21.8529C19.5266 22.2435 20.1597 22.2435 20.5503 21.8529L23.1961 19.2071Z" fill="black"/>
</svg>
