<svg width="25" height="24" viewBox="0 0 25 24" fill="none" xmlns="http://www.w3.org/2000/svg">
<path d="M18.5 20H6.5C4.84315 20 3.5 18.6569 3.5 17V6.22476C3.5 4.99606 4.49606 4 5.72476 4H12.5138C12.9903 4 13.3842 4.74032 13.7643 5.55H6.5C5.94772 5.55 5.5 5.99772 5.5 6.55C5.5 7.10228 5.94772 7.55 6.5 7.55H14.989L15 7.55556H18.501C20.1578 7.55556 21.5 8.8987 21.5 10.5556V11H19.5C17.8431 11 16.5 12.3431 16.5 14C16.5 15.6569 17.8431 17 19.5 17H21.5C21.5 18.6569 20.1569 20 18.5 20Z" fill="black"/>
<path d="M21.5 15V13H19.5C18.9477 13 18.5 13.4477 18.5 14C18.5 14.5523 18.9477 15 19.5 15H21.5Z" fill="black"/>
</svg>
