<svg width="25" height="24" viewBox="0 0 25 24" fill="none" xmlns="http://www.w3.org/2000/svg">
<path d="M15.5 19C15.5 17.42 16.7214 16.1253 18.2716 16.0086C17.792 15.4768 17.5 14.7725 17.5 14C17.5 12.3431 18.8431 11 20.5 11H22.5V10.5556C22.5 8.8987 21.1578 7.55556 19.501 7.55556H16L15.989 7.55H7.5C6.94772 7.55 6.5 7.10228 6.5 6.55C6.5 5.99772 6.94772 5.55 7.5 5.55H14.7643C14.3842 4.74032 13.9903 4 13.5138 4H6.72476C5.49606 4 4.5 4.99606 4.5 6.22476V17C4.5 18.6569 5.84315 20 7.5 20H15.6707C15.5602 19.6872 15.5 19.3506 15.5 19Z" fill="black"/>
<path d="M22.5 13H20.5C19.9477 13 19.5 13.4477 19.5 14C19.5 14.5523 19.9477 15 20.5 15H22.5V13Z" fill="black"/>
<path d="M18.5 18C17.9477 18 17.5 18.4477 17.5 19C17.5 19.5523 17.9477 20 18.5 20H22.5C23.0523 20 23.5 19.5523 23.5 19C23.5 18.4477 23.0523 18 22.5 18H18.5Z" fill="black"/>
</svg>
