<svg width="25" height="24" viewBox="0 0 25 24" fill="none" xmlns="http://www.w3.org/2000/svg">
<path d="M17 17C17 16.621 17.0703 16.2584 17.1985 15.9245C16.7625 15.4036 16.5 14.7325 16.5 14C16.5 12.3431 17.8431 11 19.5 11H21.5V10.5556C21.5 8.8987 20.1578 7.55556 18.501 7.55556H15L14.989 7.55H6.5C5.94772 7.55 5.5 7.10228 5.5 6.55C5.5 5.99772 5.94772 5.55 6.5 5.55H13.7643C13.3842 4.74032 12.9903 4 12.5138 4H5.72476C4.49606 4 3.5 4.99606 3.5 6.22476V17C3.5 18.6569 4.84315 20 6.5 20H15.5744C15.6828 19.5227 15.9096 19.0652 16.2578 18.6736C16.4774 18.4265 16.7286 18.2243 17 18.0677V17Z" fill="black"/>
<path d="M20 14C20.5464 14 21.0587 14.1461 21.5 14.4013V13H19.5C18.9477 13 18.5 13.4477 18.5 14C18.5 14.1281 18.5241 14.2506 18.568 14.3632C18.9936 14.1316 19.4814 14 20 14Z" fill="black"/>
<path d="M22.1644 21.4141L20.6644 22.7474C20.2855 23.0842 19.7145 23.0842 19.3356 22.7474L17.8356 21.4141C17.4229 21.0472 17.3857 20.4151 17.7526 20.0023C18.0736 19.6412 18.5975 19.5675 19 19.8004V17C19 16.4477 19.4477 16 20 16C20.5523 16 21 16.4477 21 17V19.8004C21.4025 19.5675 21.9264 19.6412 22.2474 20.0023C22.6143 20.4151 22.5771 21.0472 22.1644 21.4141Z" fill="black"/>
</svg>
