<svg width="25" height="24" viewBox="0 0 25 24" fill="none" xmlns="http://www.w3.org/2000/svg">
<path d="M17.6285 17.1285C17.6924 16.9178 17.7788 16.7169 17.885 16.5286C17.0521 15.9956 16.5 15.0623 16.5 14C16.5 12.3431 17.8431 11 19.5 11H21.5V10.5556C21.5 8.8987 20.1578 7.55556 18.501 7.55556H15L14.989 7.55H6.5C5.94772 7.55 5.5 7.10228 5.5 6.55C5.5 5.99772 5.94772 5.55 6.5 5.55H13.7643C13.3842 4.74032 12.9903 4 12.5138 4H5.72476C4.49606 4 3.5 4.99606 3.5 6.22476V17C3.5 18.6569 4.84315 20 6.5 20H15.5C15.5 18.6462 16.3967 17.5019 17.6285 17.1285Z" fill="black"/>
<path d="M21.5 15H19.5C18.9477 15 18.5 14.5523 18.5 14C18.5 13.4477 18.9477 13 19.5 13H21.5V15Z" fill="black"/>
<path d="M21.5 18C21.5 17.4477 21.0523 17 20.5 17C19.9477 17 19.5 17.4477 19.5 18V19H18.5C17.9477 19 17.5 19.4477 17.5 20C17.5 20.5523 17.9477 21 18.5 21H19.5V22C19.5 22.5523 19.9477 23 20.5 23C21.0523 23 21.5 22.5523 21.5 22V21H22.5C23.0523 21 23.5 20.5523 23.5 20C23.5 19.4477 23.0523 19 22.5 19H21.5V18Z" fill="black"/>
</svg>
