<svg width="25" height="24" viewBox="0 0 25 24" fill="none" xmlns="http://www.w3.org/2000/svg">
<path d="M9.51851 5.66487C9.68514 4.16575 10.9564 3 12.5 3C14.0436 3 15.3149 4.16575 15.4815 5.66487C14.577 5.23843 13.5663 5 12.5 5C11.4337 5 10.423 5.23843 9.51851 5.66487Z" fill="black"/>
<path d="M9.51851 18.3351C10.423 18.7616 11.4337 19 12.5 19C13.5663 19 14.577 18.7616 15.4815 18.3351C15.3149 19.8342 14.0436 21 12.5 21C10.9564 21 9.68514 19.8342 9.51851 18.3351Z" fill="black"/>
<path fill-rule="evenodd" clip-rule="evenodd" d="M16.1 16.8004C17.5573 15.7058 18.5 13.963 18.5 12C18.5 10.037 17.5573 8.29421 16.1 7.19956C15.0972 6.44633 13.8507 6 12.5 6C11.1493 6 9.90279 6.44633 8.9 7.19956C7.44266 8.29421 6.5 10.037 6.5 12C6.5 13.963 7.44266 15.7058 8.9 16.8004C9.90279 17.5537 11.1493 18 12.5 18C13.8507 18 15.0972 17.5537 16.1 16.8004ZM13 10C13 9.44772 12.5523 9 12 9C11.4477 9 11 9.44772 11 10V13C11 13.5523 11.4477 14 12 14H14C14.5523 14 15 13.5523 15 13C15 12.4477 14.5523 12 14 12H13V10Z" fill="black"/>
</svg>
