<svg width="25" height="24" viewBox="0 0 25 24" fill="none" xmlns="http://www.w3.org/2000/svg">
<path d="M8.31381 3.91884C7.9928 3.46943 7.36825 3.36534 6.91884 3.68634C6.46943 4.00735 6.36534 4.6319 6.68634 5.08132L11.5001 11.8205V12.0001H8.50008C7.94779 12.0001 7.50008 12.4478 7.50008 13.0001C7.50008 13.5524 7.94779 14.0001 8.50008 14.0001H11.5001V14.5001H8.50008C7.94779 14.5001 7.50008 14.9478 7.50008 15.5001C7.50008 16.0524 7.94779 16.5001 8.50008 16.5001H11.5001V20.5001C11.5001 21.0524 11.9478 21.5001 12.5001 21.5001C13.0524 21.5001 13.5001 21.0524 13.5001 20.5001V16.5001H16.5001C17.0524 16.5001 17.5001 16.0524 17.5001 15.5001C17.5001 14.9478 17.0524 14.5001 16.5001 14.5001H13.5001V14.0001H16.5001C17.0524 14.0001 17.5001 13.5524 17.5001 13.0001C17.5001 12.4478 17.0524 12.0001 16.5001 12.0001H13.5001V11.8205L18.3138 5.08132C18.6348 4.6319 18.5307 4.00735 18.0813 3.68634C17.6319 3.36534 17.0074 3.46943 16.6863 3.91884L12.5001 9.77961L8.31381 3.91884Z" fill="black"/>
</svg>
