<svg xmlns="http://www.w3.org/2000/svg" viewBox="0 0 25 24" fill="currentColor" aria-hidden="true" data-slot="icon">
    <path d="M2.519 11.379A10 10 0 0 0 2.5 12zM2.86 9.332l-.17 1.023-.171 1.024M11.497 8.738l-.661.383-.659.379a2 2 0 0 0-1.004 1.738l.002.764-.002.76a2 2 0 0 0 1.004 1.738l.662.38.657.382a2 2 0 0 0 2.008 0l.66-.383.659-.379a2 2 0 0 0 1.004-1.738l-.002-.76v-.004l.002-.76A2 2 0 0 0 14.823 9.5l-.662-.38-.657-.382a2 2 0 0 0-2.008 0M10.378 21.774a10 10 0 0 1-4.797-2.554 2.3 2.3 0 0 1 2.216.051l.722.42.004.002.725.416a2.3 2.3 0 0 1 1.13 1.665M21.684 15.963a10 10 0 0 1-2.294 3.285 2.3 2.3 0 0 1 .157-1.98l.42-.724.001-.003.416-.725a2.3 2.3 0 0 1 1.754-1.141 10 10 0 0 1-.454 1.288M5.411 4.947A10 10 0 0 0 2.86 9.332 2.3 2.3 0 0 0 4.394 8.2l.41-.734.41-.728a2.3 2.3 0 0 0 .197-1.792M19.5 4.858a2.3 2.3 0 0 1-2.098-.108l-.723-.42-.004-.001-.724-.416a2.3 2.3 0 0 1-1.127-1.642A10 10 0 0 1 19.5 4.858"/>
    <path fill-rule="evenodd" d="M2.584 11.376 2.5 12c0 2.085.638 4.02 1.73 5.623l.332-.125a4.3 4.3 0 0 1 4.238.043l.72.418.003.002.721.414A4.3 4.3 0 0 1 12.4 22h.1c1.935 0 3.741-.55 5.272-1.5a4.3 4.3 0 0 1 .045-4.236l.417-.72.002-.003.414-.721a4.3 4.3 0 0 1 3.736-2.158h.092a10 10 0 0 0-.007-1.426 9.94 9.94 0 0 0-1.657-4.795l-.148.067a4.3 4.3 0 0 1-4.268-.028l-.72-.417-.003-.002-.72-.414a4.3 4.3 0 0 1-2.158-3.643A9.953 9.953 0 0 0 7.025 3.63a4.3 4.3 0 0 1-.069 4.09l-.41.728-.405.727a4.3 4.3 0 0 1-3.557 2.201m12.58-3.987-.657-.38a4 4 0 0 0-4.014 0l-.656.38-.656.377a4 4 0 0 0-2.008 3.476l.002.758-.002.758a4 4 0 0 0 2.008 3.476l.655.376.003.003.654.379a4 4 0 0 0 4.014 0l.654-.38.003-.002.656-.376a4 4 0 0 0 2.007-3.476l-.002-.756v-.004l.002-.756a4 4 0 0 0-2.008-3.476z" clip-rule="evenodd"/>
    <path d="M2.519 11.379 2.5 12l.084-.624z"/>
</svg>
