<svg xmlns="http://www.w3.org/2000/svg" viewBox="0 0 25 24" fill="currentColor" aria-hidden="true" data-slot="icon">
    <path d="M23.207 2.707a1 1 0 0 0-1.414-1.414l-20 20a1 1 0 1 0 1.414 1.414zM16.836 4.836l-.457-.457a3 3 0 0 0-2.122-.879h-3.514a3 3 0 0 0-2.122.879l-.686.686a3 3 0 0 1-1.007.664L4.386 6.746A3 3 0 0 0 2.5 9.53V17.5c0 .486.116.945.32 1.35l4.792-4.79a5 5 0 0 1 5.947-5.947z"/>
    <path d="M11.501 10.17a3 3 0 0 0-1.83 1.831zM6.828 20.5H19.5a3 3 0 0 0 3-3V9.531a3 3 0 0 0-1.886-2.785l-.022-.01-1.633 1.634a.448.448 0 0 1-.064.822c-.4.134-.715.449-.85.85a.448.448 0 0 1-.822.063l-.393.393a5 5 0 0 1-6.832 6.832z"/>
    <path d="M11.5 15.83A3 3 0 0 0 15.33 12z"/>
</svg>
