<svg xmlns="http://www.w3.org/2000/svg" viewBox="0 0 25 24" fill="currentColor" aria-hidden="true" data-slot="icon">
    <path d="M4.17 3.515c-.963.613-1.42 1.368-1.42 2.083s.457 1.47 1.42 2.084c.955.607 2.32 1.008 3.866 1.008s2.912-.4 3.866-1.008c.964-.613 1.42-1.368 1.42-2.084 0-.715-.456-1.47-1.42-2.083-.954-.608-2.32-1.008-3.866-1.008s-2.91.4-3.865 1.008"/>
    <path d="M13.323 8.498a6 6 0 0 1-.616.45c-1.23.782-2.883 1.242-4.67 1.242-1.788 0-3.442-.46-4.672-1.243a6 6 0 0 1-.615-.449v1.49c0 .716.457 1.47 1.42 2.084.955.607 2.32 1.008 3.866 1.008s2.912-.4 3.866-1.008c.964-.613 1.42-1.368 1.42-2.084z"/>
    <path d="M13.323 12.888a6 6 0 0 1-.616.45c-1.23.782-2.883 1.242-4.67 1.242-1.788 0-3.442-.46-4.672-1.243a6 6 0 0 1-.615-.449v1.49c0 .716.457 1.47 1.42 2.084.955.608 2.32 1.008 3.866 1.008s2.912-.4 3.866-1.008c.964-.613 1.42-1.368 1.42-2.083z"/>
    <path d="M13.323 17.279a6 6 0 0 1-.616.448c-1.23.783-2.883 1.243-4.67 1.243-1.788 0-3.442-.46-4.672-1.242a6 6 0 0 1-.615-.45v.393c0 .716.457 1.47 1.42 2.084.955.607 2.32 1.008 3.866 1.008s2.912-.4 3.866-1.008c.964-.614 1.42-1.368 1.42-2.084zM15.549 7.983c-.697.443-.99.964-.99 1.42s.293.977.99 1.42c.688.438 1.684.733 2.823.733s2.135-.295 2.823-.733c.697-.443.99-.964.99-1.42s-.293-.977-.99-1.42c-.688-.438-1.684-.733-2.823-.733s-2.135.295-2.823.733M22.184 11.966a5 5 0 0 1-.184.123c-.963.613-2.248.967-3.628.967s-2.665-.354-3.629-.967a5 5 0 0 1-.183-.123v.755c0 .456.292.977.989 1.42.688.438 1.684.733 2.823.733s2.135-.295 2.823-.733c.697-.443.99-.964.99-1.42zM22.184 15.284a5 5 0 0 1-.184.122c-.963.614-2.248.968-3.628.968s-2.665-.354-3.629-.967a5 5 0 0 1-.183-.123v.755c0 .456.292.976.989 1.42.688.438 1.684.733 2.823.733s2.135-.295 2.823-.733c.697-.444.99-.964.99-1.42zM22.181 18.604q-.09.062-.18.12c-.964.613-2.249.968-3.63.968s-2.664-.355-3.628-.968a5 5 0 0 1-.18-.12c.03.437.327.925.986 1.343.688.438 1.684.733 2.823.733s2.135-.295 2.823-.733c.659-.418.956-.906.986-1.343"/>
</svg>
