<svg xmlns="http://www.w3.org/2000/svg" viewBox="0 0 25 24" fill="currentColor" aria-hidden="true" data-slot="icon">
    <path d="M16.742 4.93a2 2 0 0 1 2.829 2.827l-3.536 3.536a1 1 0 0 1-1.414 0l-1.414-1.414a1 1 0 0 1 0-1.414z"/>
    <path d="m14.621 11.293-1.414-1.414-7.778 7.778a1 1 0 1 0 1.414 1.414z"/>
    <path stroke="#000" stroke-linecap="round" stroke-linejoin="round" stroke-width="2" d="M14.621 11.293a1 1 0 0 0 1.414 0l3.536-3.536a2 2 0 0 0-2.829-2.828l-3.535 3.536a1 1 0 0 0 0 1.414m1.414 1.414-1.414-1.414m1.414 1.414 1.414 1.414m-1.414-1.414-7.778 7.778a1 1 0 0 1-1.414-1.414l7.778-7.778m0 0-1.414-1.414"/>
</svg>
