<svg xmlns="http://www.w3.org/2000/svg" viewBox="0 0 25 24" fill="currentColor" aria-hidden="true" data-slot="icon">
    <path d="M13.5 2h-6a3 3 0 0 0-3 3v10.092q.361-.091.75-.092c1.59 0 2.914 1.21 3.195 2.808 1.194.42 2.055 1.61 2.055 3.015 0 .416-.075.813-.213 1.177H17.5a3 3 0 0 0 3-3v-9h-3a4 4 0 0 1-4-4z"/>
    <path d="M20.297 8a3 3 0 0 0-.492-.834L16.4 3.079a3 3 0 0 0-.9-.73V6a2 2 0 0 0 2 2zM4 22c-.828 0-1.5-.658-1.5-1.47 0-.61.379-1.134.918-1.356a2 2 0 0 1-.018-.262C3.4 17.856 4.273 17 5.35 17a1.94 1.94 0 0 1 1.917 1.56A1.77 1.77 0 0 1 8.5 20.235C8.5 21.21 7.694 22 6.7 22z"/>
</svg>
