<svg xmlns="http://www.w3.org/2000/svg" viewBox="0 0 25 24" fill="currentColor" aria-hidden="true" data-slot="icon">
    <path d="M12.785 7.2H18.5a3 3 0 0 1 2.999 3v4.718l-1.825-.78a1.71 1.71 0 0 0-1.35 0l-1.993.852-.813.385c-.61.289-1.02.91-1.019 1.617.002.826.046 1.973.23 3.008H6.5a3 3 0 0 1-3-3V6.567A2.567 2.567 0 0 1 6.067 4h2.547c.719 0 1.822 1.178 2.648 2.06.3.32.562.6.757.771.14.123.58.369.766.369"/>
    <path d="m20.934 16.803-.452-.203-1.107-.448a1 1 0 0 0-.75 0l-1.107.448-.452.203a.94.94 0 0 0-.566.851c.002.625.051 1.598.31 2.246.33.825 1.209 1.49 1.747 1.838a.81.81 0 0 0 .886 0c.538-.347 1.416-1.013 1.746-1.838.26-.648.31-1.621.311-2.246 0-.372-.227-.7-.566-.851"/>
</svg>
