<svg xmlns="http://www.w3.org/2000/svg" viewBox="0 0 25 24" fill="currentColor" aria-hidden="true" data-slot="icon">
    <path d="M19.131 2.224a1 1 0 0 0-1.262 1.552l.817.664H10.06A7.56 7.56 0 0 0 2.5 12a1 1 0 1 0 2 0 5.56 5.56 0 0 1 5.56-5.56h8.979l-1.237 1.203a1 1 0 1 0 1.396 1.434l3-2.92a1 1 0 0 0-.067-1.493zM5.869 21.776a1 1 0 1 0 1.262-1.552l-.817-.664h8.626A7.56 7.56 0 0 0 22.5 12a1 1 0 1 0-2 0 5.56 5.56 0 0 1-5.56 5.56H5.961l1.236-1.203a1 1 0 0 0-1.394-1.434l-3 2.92a1 1 0 0 0 .066 1.493z"/>
</svg>
