<svg xmlns="http://www.w3.org/2000/svg" viewBox="0 0 25 24" fill="currentColor" aria-hidden="true" data-slot="icon">
    <path d="M12.16 1a1 1 0 0 1 1 1v2.131l1.446-.963a1 1 0 1 1 1.11 1.664L13.16 6.535v3.62l3.719-2.148L17 5.011A1 1 0 0 1 19 5.09l-.07 1.733 1.89-1.092a1 1 0 1 1 1 1.732L19.976 8.53l1.557.77a1 1 0 1 1-.886 1.793l-2.753-1.361-3.83 2.211 3.317 1.916 2.656-1.394a1 1 0 0 1 .929 1.771l-1.535.806 1.89 1.092a1 1 0 0 1-1 1.732L18.476 16.8l.112 1.734a1 1 0 0 1-1.996.129l-.198-3.065-3.232-1.866v3.733l2.555 1.703a1 1 0 0 1-1.11 1.664l-1.445-.963V22a1 1 0 0 1-2 0v-2.131l-1.446.963a1 1 0 0 1-1.109-1.664l2.555-1.703v-3.846l-2.733 1.578-.198 3.064a1 1 0 1 1-1.995-.13l.111-1.733L4.5 17.464a1 1 0 0 1-1-1.732l1.846-1.066-1.557-.77a1 1 0 1 1 .887-1.792l2.752 1.36 2.635-1.52-3.135-1.81-2.752 1.36a1 1 0 1 1-.887-1.792l1.557-.77L3 7.866a1 1 0 0 1 1-1.732L5.846 7.2l-.111-1.734a1 1 0 1 1 1.995-.128l.198 3.064 3.233 1.866V6.551L8.626 4.947a1 1 0 0 1 1.07-1.69l1.465.927V2a1 1 0 0 1 1-1"/>
</svg>
