<svg width="25" height="24" viewBox="0 0 25 24" fill="none" xmlns="http://www.w3.org/2000/svg">
<path fill-rule="evenodd" clip-rule="evenodd" d="M8.77373 2.45862C8.12546 0.513791 5.37454 0.513793 4.72627 2.45862C4.48742 3.17516 3.92516 3.73742 3.20862 3.97627C1.26379 4.62454 1.26379 7.37546 3.20862 8.02373C3.92516 8.26258 4.48742 8.82484 4.72627 9.54138C5.37454 11.4862 8.12546 11.4862 8.77373 9.54138C9.01258 8.82484 9.57484 8.26258 10.2914 8.02373C12.2362 7.37546 12.2362 4.62454 10.2914 3.97627C9.57484 3.73742 9.01258 3.17516 8.77373 2.45862ZM6.62363 3.09108C6.63974 3.04276 6.65852 3.02846 6.66826 3.02187C6.68419 3.01109 6.71241 3 6.75 3C6.78759 3 6.81581 3.01109 6.83174 3.02187C6.84148 3.02846 6.86026 3.04276 6.87637 3.09108C7.31428 4.40482 8.34518 5.43572 9.65892 5.87363C9.70724 5.88974 9.72154 5.90852 9.72813 5.91826C9.73891 5.93419 9.75 5.96241 9.75 6C9.75 6.03759 9.73891 6.06581 9.72813 6.08174C9.72154 6.09148 9.70724 6.11026 9.65892 6.12637C8.34518 6.56428 7.31428 7.59518 6.87637 8.90892C6.86026 8.95724 6.84148 8.97154 6.83174 8.97813C6.81581 8.98891 6.78759 9 6.75 9C6.71241 9 6.68419 8.98891 6.66826 8.97813C6.65852 8.97154 6.63974 8.95724 6.62363 8.90892C6.18572 7.59518 5.15482 6.56428 3.84108 6.12637C3.79276 6.11026 3.77846 6.09148 3.77187 6.08174C3.76109 6.06581 3.75 6.03759 3.75 6C3.75 5.96241 3.76109 5.93419 3.77187 5.91826C3.77846 5.90852 3.79276 5.88974 3.84108 5.87363C5.15482 5.43572 6.18572 4.40482 6.62363 3.09108Z" fill="black"/>
<path fill-rule="evenodd" clip-rule="evenodd" d="M18.58 9.03976C17.6735 6.32008 13.8265 6.32008 12.92 9.03976C12.4274 10.5177 11.2677 11.6774 9.78976 12.17C7.07008 13.0765 7.07008 16.9235 9.78976 17.83C11.2677 18.3227 12.4274 19.4823 12.92 20.9602C13.8265 23.6799 17.6735 23.6799 18.58 20.9602C19.0726 19.4823 20.2323 18.3227 21.7102 17.83C24.4299 16.9235 24.4299 13.0765 21.7102 12.17C20.2323 11.6774 19.0727 10.5177 18.58 9.03976ZM14.8173 9.67222C15.1161 8.77593 16.3839 8.77593 16.6827 9.67222C17.3744 11.7473 19.0027 13.3756 21.0778 14.0673C21.9741 14.3661 21.9741 15.6339 21.0778 15.9327C19.0027 16.6244 17.3744 18.2527 16.6827 20.3278C16.3839 21.2241 15.1161 21.2241 14.8173 20.3278C14.1256 18.2527 12.4973 16.6244 10.4222 15.9327C9.52593 15.6339 9.52593 14.3661 10.4222 14.0673C12.4973 13.3756 14.1256 11.7473 14.8173 9.67222Z" fill="black"/>
</svg>
