<svg width="25" height="24" viewBox="0 0 25 24" fill="none" xmlns="http://www.w3.org/2000/svg">
<path fill-rule="evenodd" clip-rule="evenodd" d="M12.25 1C10.5931 1 9.25 2.34315 9.25 4V7.46482L4.1406 10.8711C3.5842 11.242 3.25 11.8665 3.25 12.5352V14.6126C3.25 15.9777 4.58739 16.9416 5.88246 16.5099L9.25 15.3874V17.5858L7.25 19.5858C5.99007 20.8457 6.8824 23 8.66421 23H10.1269C10.2904 23 10.4533 22.9799 10.612 22.9403L12.25 22.5308L13.888 22.9403C14.0467 22.9799 14.2096 23 14.3731 23H15.8358C17.6176 23 18.5099 20.8457 17.25 19.5858L15.25 17.5858V15.3874L18.6175 16.5099C19.9126 16.9416 21.25 15.9777 21.25 14.6126V12.5352C21.25 11.8665 20.9158 11.242 20.3594 10.8711L15.25 7.46482V4C15.25 2.34315 13.9069 1 12.25 1ZM11.25 4C11.25 3.44772 11.6977 3 12.25 3C12.8023 3 13.25 3.44772 13.25 4V7.46482C13.25 8.13352 13.5842 8.75799 14.1406 9.12892L19.25 12.5352V14.6126L15.8825 13.4901C14.5874 13.0584 13.25 14.0223 13.25 15.3874V17.5858C13.25 18.1162 13.4607 18.6249 13.8358 19L15.8358 21H14.3731L12.7351 20.5905C12.4166 20.5109 12.0834 20.5109 11.7649 20.5905L10.1269 21H8.66421L10.6642 19C11.0393 18.6249 11.25 18.1162 11.25 17.5858V15.3874C11.25 14.0223 9.91261 13.0584 8.61754 13.4901L5.25 14.6126V12.5352L10.3594 9.12892C10.9158 8.75799 11.25 8.13352 11.25 7.46482V4Z" fill="black"/>
</svg>
