<svg width="25" height="24" viewBox="0 0 25 24" fill="none" xmlns="http://www.w3.org/2000/svg">
<path fill-rule="evenodd" clip-rule="evenodd" d="M11.75 19.5C11.75 20.8807 10.6307 22 9.25 22C7.86929 22 6.75 20.8807 6.75 19.5V14.6907C6.75 13.2615 6.14338 11.8994 5.08104 10.9433L4.31781 10.2564C3.31985 9.35823 2.75 8.0787 2.75 6.73609V6.14781C2.75 3.85704 4.60704 2 6.89781 2C8.40416 2 9.79211 2.81667 10.5237 4.13346L11.0127 5.01368C11.4962 5.8841 11.75 6.8634 11.75 7.85913V19.5ZM4.75 6.14781C4.75 4.96161 5.71161 4 6.89781 4C7.67783 4 8.39653 4.42289 8.77534 5.10474L9.26436 5.98497C9.58286 6.55827 9.75 7.20329 9.75 7.85913V19.5C9.75 19.7761 9.52614 20 9.25 20C8.97386 20 8.75 19.7761 8.75 19.5V14.6907C8.75 12.6945 7.90274 10.7921 6.41896 9.45671L5.65574 8.7698C5.07921 8.25093 4.75 7.51173 4.75 6.73609V6.14781Z" fill="black"/>
<path fill-rule="evenodd" clip-rule="evenodd" d="M12.75 19.5C12.75 20.8807 13.8693 22 15.25 22C16.6307 22 17.75 20.8807 17.75 19.5V14.6907C17.75 13.2615 18.3566 11.8994 19.419 10.9433L20.1822 10.2564C21.1801 9.35823 21.75 8.0787 21.75 6.73609V6.14781C21.75 3.85704 19.893 2 17.6022 2C16.0958 2 14.7079 2.81667 13.9763 4.13346L13.4873 5.01368C13.0038 5.8841 12.75 6.8634 12.75 7.85913V19.5ZM19.75 6.14781C19.75 4.96161 18.7884 4 17.6022 4C16.8222 4 16.1035 4.42289 15.7247 5.10474L15.2356 5.98497C14.9171 6.55827 14.75 7.20329 14.75 7.85913V19.5C14.75 19.7761 14.9739 20 15.25 20C15.5261 20 15.75 19.7761 15.75 19.5V14.6907C15.75 12.6945 16.5973 10.7921 18.081 9.45671L18.8443 8.7698C19.4208 8.25093 19.75 7.51173 19.75 6.73609V6.14781Z" fill="black"/>
</svg>
