<svg width="25" height="24" viewBox="0 0 25 24" fill="none" xmlns="http://www.w3.org/2000/svg">
<path d="M2.05559 4.53044C1.66506 4.92096 1.66506 5.55413 2.05559 5.94465C2.44611 6.33518 3.07928 6.33518 3.4698 5.94465L5.94468 3.46978C6.3352 3.07925 6.3352 2.44609 5.94468 2.05557C5.55415 1.66504 4.92099 1.66504 4.53046 2.05557L2.05559 4.53044Z" fill="black"/>
<path d="M12.25 9C12.25 8.44771 11.8023 8 11.25 8C10.6977 8 10.25 8.44771 10.25 9V14C10.25 14.5523 10.6977 15 11.25 15H14.25C14.8023 15 15.25 14.5523 15.25 14C15.25 13.4477 14.8023 13 14.25 13H12.25V9Z" fill="black"/>
<path fill-rule="evenodd" clip-rule="evenodd" d="M12.25 2C6.72715 2 2.25 6.47715 2.25 12C2.25 17.5228 6.72715 22 12.25 22C17.7728 22 22.25 17.5228 22.25 12C22.25 6.47715 17.7728 2 12.25 2ZM4.25 12C4.25 7.58172 7.83172 4 12.25 4C16.6683 4 20.25 7.58172 20.25 12C20.25 16.4183 16.6683 20 12.25 20C7.83172 20 4.25 16.4183 4.25 12Z" fill="black"/>
<path d="M18.5429 2.29289C18.9334 1.90237 19.5666 1.90237 19.9571 2.29289L22.432 4.76776C22.8225 5.15829 22.8225 5.79145 22.432 6.18198C22.0415 6.5725 21.4083 6.5725 21.0178 6.18198L18.5429 3.7071C18.1524 3.31658 18.1524 2.68341 18.5429 2.29289Z" fill="black"/>
</svg>
