<svg width="25" height="24" viewBox="0 0 25 24" fill="none" xmlns="http://www.w3.org/2000/svg">
<path d="M2.75 6C2.75 3.79086 4.54086 2 6.75 2H8.75C9.30228 2 9.75 2.44772 9.75 3C9.75 3.55228 9.30228 4 8.75 4H6.75C5.64543 4 4.75 4.89543 4.75 6V8C4.75 8.55228 4.30228 9 3.75 9C3.19772 9 2.75 8.55228 2.75 8V6Z" fill="black"/>
<path d="M22.75 6C22.75 3.79086 20.9591 2 18.75 2H16.75C16.1977 2 15.75 2.44772 15.75 3C15.75 3.55228 16.1977 4 16.75 4H18.75C19.8546 4 20.75 4.89543 20.75 6V8C20.75 8.55228 21.1977 9 21.75 9C22.3023 9 22.75 8.55228 22.75 8V6Z" fill="black"/>
<path d="M6.75 22C4.54086 22 2.75 20.2091 2.75 18V16C2.75 15.4477 3.19772 15 3.75 15C4.30228 15 4.75 15.4477 4.75 16V18C4.75 19.1046 5.64543 20 6.75 20H8.75C9.30228 20 9.75 20.4477 9.75 21C9.75 21.5523 9.30228 22 8.75 22H6.75Z" fill="black"/>
<path d="M22.75 18C22.75 20.2091 20.9591 22 18.75 22H16.75C16.1977 22 15.75 21.5523 15.75 21C15.75 20.4477 16.1977 20 16.75 20H18.75C19.8546 20 20.75 19.1046 20.75 18V16C20.75 15.4477 21.1977 15 21.75 15C22.3023 15 22.75 15.4477 22.75 16V18Z" fill="black"/>
<path fill-rule="evenodd" clip-rule="evenodd" d="M12.75 6C12.4199 6 12.0938 6.07289 11.7951 6.21346L9.04681 7.50676C7.64484 8.16651 6.75 9.57659 6.75 11.126V14.3682C6.75 15.0056 7.1181 15.5856 7.69482 15.857L11.7951 17.7865C12.0938 17.9271 12.4199 18 12.75 18C13.0801 18 13.4062 17.9271 13.7049 17.7865L17.8052 15.857C18.3819 15.5856 18.75 15.0056 18.75 14.3682V11.126C18.75 9.57659 17.8552 8.16651 16.4532 7.50676L13.7049 6.21346C13.4062 6.07289 13.0801 6 12.75 6ZM13.75 11.159V8.44506L15.6016 9.3164C16.3026 9.64628 16.75 10.3513 16.75 11.126V12.9771L13.75 11.159ZM12.8533 15.9769L15.6609 14.6557L12.75 12.8915L9.83913 14.6557L12.6467 15.9769C12.679 15.9921 12.7143 16 12.75 16C12.7857 16 12.821 15.9921 12.8533 15.9769ZM11.75 8.44506V11.159L8.75 12.9771V11.126C8.75 10.3513 9.19742 9.64628 9.89841 9.3164L11.75 8.44506Z" fill="black"/>
</svg>
