<svg width="25" height="24" viewBox="0 0 25 24" fill="none" xmlns="http://www.w3.org/2000/svg">
<path d="M5.54289 6.20711C5.15237 5.81658 5.15237 5.18342 5.54289 4.79289C5.93342 4.40237 6.56658 4.40237 6.95711 4.79289L10.2145 8.05026V6.22183C10.2145 5.66954 10.6622 5.22183 11.2145 5.22183C11.7668 5.22183 12.2145 5.66954 12.2145 6.22183V10.4645C12.2145 11.0168 11.7668 11.4645 11.2145 11.4645L6.97183 11.4645C6.41954 11.4645 5.97183 11.0168 5.97183 10.4645C5.97183 9.91219 6.41954 9.46447 6.97183 9.46447H8.80026L5.54289 6.20711Z" fill="black"/>
<path d="M14.2855 12.5355L18.5282 12.5355C19.0805 12.5355 19.5282 12.9832 19.5282 13.5355C19.5282 14.0878 19.0805 14.5355 18.5282 14.5355L16.6997 14.5355L19.9571 17.7929C20.3476 18.1834 20.3476 18.8166 19.9571 19.2071C19.5666 19.5976 18.9334 19.5976 18.5429 19.2071L15.2855 15.9497L15.2855 17.7782C15.2855 18.3305 14.8378 18.7782 14.2855 18.7782C13.7332 18.7782 13.2855 18.3305 13.2855 17.7782L13.2855 13.5355C13.2855 12.9833 13.7333 12.5355 14.2855 12.5355Z" fill="black"/>
</svg>
