<svg width="25" height="24" viewBox="0 0 25 24" fill="none" xmlns="http://www.w3.org/2000/svg">
<path d="M21.528 4.2218C21.528 3.66952 21.0803 3.2218 20.528 3.2218H16.2854C15.7331 3.2218 15.2854 3.66952 15.2854 4.2218C15.2854 4.77409 15.7331 5.2218 16.2854 5.2218H18.1138L5.97168 17.3639L5.97168 15.5355C5.97168 14.9832 5.52397 14.5355 4.97168 14.5355C4.41939 14.5355 3.97168 14.9832 3.97168 15.5355V19.7782C3.97168 20.3304 4.4194 20.7782 4.97168 20.7782H9.21432C9.76661 20.7782 10.2143 20.3304 10.2143 19.7782C10.2143 19.2259 9.76661 18.7782 9.21432 18.7782L7.38589 18.7781L19.528 6.63602V8.46444C19.528 9.01673 19.9757 9.46444 20.528 9.46444C21.0803 9.46444 21.528 9.01673 21.528 8.46444V4.2218Z" fill="black"/>
</svg>
