<svg width="25" height="24" viewBox="0 0 25 24" fill="none" xmlns="http://www.w3.org/2000/svg">
<path d="M19.0152 1.8568C18.5909 1.50324 17.9604 1.56056 17.6068 1.98484C17.2532 2.40912 17.3106 3.03968 17.7349 3.39325L19.0795 4.51381C16.2405 5.34514 13.9375 7.39132 12.75 10.0379C11.5626 7.39133 9.25958 5.34514 6.42054 4.51381L7.76522 3.39325C8.1895 3.03968 8.24682 2.40912 7.89326 1.98484C7.53969 1.56056 6.90913 1.50324 6.48485 1.8568L3.487 4.35501C3.28104 4.52574 3.1437 4.77818 3.12676 5.0663C3.11572 5.25394 3.15716 5.43254 3.23838 5.58778L5.23061 9.57224C5.4776 10.0662 6.07827 10.2664 6.57225 10.0195C7.06623 9.77246 7.26645 9.17179 7.01946 8.67781L5.90411 6.44711C9.22984 7.44317 11.625 10.5252 11.625 14.1397L11.625 21.625C11.625 22.1773 12.0728 22.625 12.625 22.625C12.6674 22.625 12.7091 22.6224 12.75 22.6173C12.791 22.6224 12.8327 22.625 12.875 22.625C13.4273 22.625 13.875 22.1773 13.875 21.625V14.1397C13.875 10.5252 16.2702 7.44317 19.596 6.44711L18.4806 8.67781C18.2336 9.17179 18.4338 9.77246 18.9278 10.0195C19.4218 10.2664 20.0225 10.0662 20.2695 9.57224L22.2617 5.58778C22.3429 5.43253 22.3844 5.25394 22.3733 5.0663C22.3564 4.77817 22.219 4.52574 22.0131 4.35501L19.0152 1.8568Z" fill="black"/>
</svg>
