<svg width="25" height="24" viewBox="0 0 25 24" fill="none" xmlns="http://www.w3.org/2000/svg">
<g clip-path="url(#clip0_4001_1327)">
<path d="M20.25 12C20.25 12 20.244 14.5181 19.75 16C19.7315 16.0556 19.7128 16.1129 19.6939 16.1718C19.0725 18.1138 16.0255 18.0203 15.75 16V16M8.24999 13.4V13.4C8.24999 16.155 10.949 18.1003 13.5626 17.2291L13.7218 17.1761C14.0724 17.0592 14.4058 16.8961 14.7132 16.6912L15.75 16M15.75 16C15.51 14.9878 16.1469 14.3882 16.4488 13.0694C16.6767 12.0735 16.3714 11.0637 15.7019 10.292C14.99 9.47135 13.957 9 12.8706 9L12.5973 9C10.1964 9 8.25 10.9464 8.25 13.3473L8.25 13.6154M14.75 20L12.214 20.2415C7.94334 20.6483 4.25 17.2899 4.25 13C4.25 8.58172 7.83173 5 12.25 5L12.7833 5C16.9071 5 20.25 8.34294 20.25 12.4667" stroke="black" stroke-width="2" stroke-linecap="round" stroke-linejoin="round"/>
</g>
<defs>
<clipPath id="clip0_4001_1327">
<rect width="24" height="24" fill="white" transform="translate(0.25)"/>
</clipPath>
</defs>
</svg>
