<svg width="25" height="24" viewBox="0 0 25 24" fill="none" xmlns="http://www.w3.org/2000/svg">
<path fill-rule="evenodd" clip-rule="evenodd" d="M9.90452 6.78252C11.6706 5.89988 13.75 7.18316 13.75 9.15864V9.35856L18.9045 6.78252C20.6706 5.89988 22.75 7.18316 22.75 9.15864V14.8414C22.75 16.8169 20.6706 18.1002 18.9045 17.2175L13.75 14.6415V14.8414C13.75 16.8169 11.6706 18.1002 9.90452 17.2175L4.21907 14.3761C2.2603 13.3972 2.26031 10.6028 4.21908 9.6239L9.90452 6.78252ZM11.75 9.15864C11.75 8.67132 11.2363 8.35278 10.7986 8.57155L5.11317 11.4129C4.62894 11.6549 4.62895 12.3451 5.11316 12.5871L10.7986 15.4285C11.2363 15.6473 11.75 15.3287 11.75 14.8414V9.15864ZM13.75 12.0015C13.7505 12.234 13.8716 12.4664 14.1132 12.5871L19.7986 15.4285C20.2363 15.6473 20.75 15.3287 20.75 14.8414V9.15864C20.75 8.67132 20.2363 8.35278 19.7986 8.57155L14.1132 11.4129C13.8716 11.5337 13.7505 11.766 13.75 11.9986V12.0015Z" fill="black"/>
</svg>
