<svg width="25" height="24" viewBox="0 0 25 24" fill="none" xmlns="http://www.w3.org/2000/svg">
<path fill-rule="evenodd" clip-rule="evenodd" d="M20.7306 7.98767C20.3127 6.32704 18.8699 5.14404 17.1947 5.01225C17.1103 4.74695 17.0136 4.48446 16.903 4.22842C16.5431 3.39535 16.0158 2.58332 15.2389 1.97719C14.4475 1.35975 13.4523 1 12.25 1C11.0477 1 10.0526 1.35975 9.26114 1.97719C8.48424 2.58332 7.9569 3.39535 7.59701 4.22842C7.4864 4.48445 7.38971 4.74694 7.30528 5.01225C5.63013 5.14402 4.18733 6.32704 3.76936 7.98767C2.77242 11.9485 2.28401 14.8632 2.25172 17.0021C2.21966 19.1254 2.63414 20.6872 3.67725 21.6981C4.70663 22.6958 6.12792 22.9346 7.51748 22.9874C8.22945 23.0145 8.99754 22.9933 9.78122 22.9672L10.0685 22.9575C10.7722 22.9336 11.4958 22.9091 12.25 22.9091C13.0041 22.9091 13.7276 22.9336 14.4313 22.9575L14.7188 22.9672C15.5025 22.9933 16.2705 23.0145 16.9825 22.9874C18.3721 22.9345 19.7934 22.6958 20.8227 21.6981C21.8658 20.6872 22.2803 19.1254 22.2483 17.0021C22.216 14.8632 21.7276 11.9485 20.7306 7.98767ZM8.74999 9.00001C8.75 8.42184 8.78569 7.71927 8.89571 7H15.6043C15.7143 7.71926 15.75 8.42184 15.75 9C15.75 9.55228 16.1977 10 16.75 10C17.3023 10 17.75 9.55228 17.75 9C17.75 8.48542 17.7255 7.84496 17.6431 7.15238C18.2022 7.38582 18.6385 7.86932 18.7911 8.47584C19.7774 12.3945 20.2198 15.1292 20.2485 17.0323C20.2775 18.9508 19.8833 19.8234 19.4308 20.262C18.9647 20.7138 18.2035 20.9395 16.9065 20.9888C16.2752 21.0128 15.574 20.9945 14.7852 20.9683L14.5008 20.9587C13.7997 20.9349 13.0405 20.9091 12.25 20.9091C11.4594 20.9091 10.7003 20.9349 9.99916 20.9587L9.71475 20.9683C8.92597 20.9945 8.22477 21.0128 7.59347 20.9888C6.2965 20.9395 5.53533 20.7138 5.06916 20.262C4.6167 19.8234 4.22252 18.9508 4.25149 17.0323C4.28023 15.1292 4.72256 12.3945 5.70886 8.47584C5.86152 7.86932 6.2978 7.38581 6.85693 7.15237C6.77447 7.84495 6.75 8.48542 6.74999 8.99999C6.74999 9.55228 7.1977 10 7.74999 10C8.30227 10 8.74999 9.55229 8.74999 9.00001ZM14.0086 3.55406C14.4417 3.89191 14.7888 4.3848 15.0576 5H9.44239C9.71121 4.3848 10.0583 3.89191 10.4914 3.55406C10.915 3.22358 11.4723 3 12.25 3C13.0277 3 13.585 3.22358 14.0086 3.55406Z" fill="black"/>
</svg>
