<svg width="25" height="24" viewBox="0 0 25 24" fill="none" xmlns="http://www.w3.org/2000/svg">
<path fill-rule="evenodd" clip-rule="evenodd" d="M14.2571 7.00822C13.0159 6.28821 11.4841 6.28821 10.2429 7.00822L9.58749 7.38842L8.93054 7.76591C7.68639 8.48082 6.9205 9.80739 6.92344 11.2423L6.925 12L6.92344 12.7577C6.9205 14.1926 7.68639 15.5192 8.93054 16.2341L9.58572 16.6106L9.58928 16.6126L10.2429 16.9918C11.4841 17.7118 13.0159 17.7118 14.2571 16.9918L14.9107 16.6126L14.9143 16.6106L15.5695 16.2341C16.8136 15.5192 17.5795 14.1926 17.5766 12.7577L17.575 12.0021V11.9979L17.5766 11.2423C17.5795 9.80739 16.8136 8.48082 15.5695 7.76591L14.9143 7.38944L14.2571 7.00822ZM10.5893 9.11944L11.2465 8.73822C11.8671 8.37821 12.6329 8.37821 13.2535 8.73822L13.9107 9.11944L13.9143 9.12149L14.573 9.50001C15.1951 9.85747 15.578 10.5207 15.5766 11.2382L15.575 11.9979V12.0021L15.5766 12.7618C15.578 13.4793 15.1951 14.1425 14.573 14.5L13.9143 14.8785L13.9107 14.8806L13.2536 15.2618C12.6329 15.6218 11.8671 15.6218 11.2464 15.2618L10.5893 14.8806L10.5857 14.8785L9.92699 14.5C9.30491 14.1425 8.92197 13.4793 8.92344 12.7618L8.92501 12.0021L8.92344 11.2382C8.92197 10.5207 9.30491 9.85747 9.92699 9.50001L10.5857 9.12149L10.5893 9.11944Z" fill="black"/>
<path fill-rule="evenodd" clip-rule="evenodd" d="M12.25 1C6.17487 1 1.25 5.92487 1.25 12C1.25 18.0751 6.17487 23 12.25 23C18.3251 23 23.25 18.0751 23.25 12C23.25 6.36343 19.0114 1.7183 13.5471 1.07578C13.1213 1.02571 12.6885 1 12.25 1ZM3.25 12C3.25 11.8399 3.25418 11.6808 3.26244 11.5228C4.63312 11.4518 5.87672 10.6814 6.54878 9.47594L6.91775 8.81413L7.28941 8.15388C7.94033 6.99752 7.97232 5.60064 7.39134 4.42284C8.79281 3.52233 10.4604 3 12.25 3C12.3109 3 12.3716 3.0006 12.4322 3.0018C12.4892 4.36885 13.2425 5.6173 14.4359 6.30302L15.0911 6.67949L15.0946 6.68154L15.7482 7.06071C16.9735 7.77149 18.482 7.7806 19.7145 7.08805L19.7748 7.06093C20.7074 8.47893 21.25 10.1762 21.25 12C21.25 12.1715 21.2452 12.3418 21.2357 12.5109C19.802 12.5091 18.4768 13.2748 17.7624 14.518L17.386 15.1732L17.3839 15.1768L17.0048 15.8304C16.3136 17.0219 16.2859 18.4811 16.9217 19.6941C15.5599 20.5227 13.9607 21 12.25 21H12.2473C12.1846 19.6399 11.4326 18.3993 10.2445 17.7165L9.58928 17.3401L9.58572 17.338L8.9321 16.9588C7.71654 16.2537 6.22228 16.2391 4.9952 16.9151L4.76642 17.0013C3.80861 15.5709 3.25 13.8507 3.25 12ZM4.80192 8.50205C4.54287 8.96671 4.11397 9.30208 3.61706 9.44761C4.03006 8.04853 4.77392 6.79134 5.75804 5.76665C5.8606 6.23842 5.79053 6.73941 5.54656 7.17283L5.17388 7.83489L5.17188 7.83846L4.80192 8.50205ZM15.4323 4.56893C14.9423 4.28733 14.6006 3.81595 14.4784 3.2778C15.9921 3.66328 17.3526 4.43269 18.4501 5.47621C17.8962 5.68145 17.2728 5.63295 16.7518 5.33071L16.0946 4.9495L16.091 4.94745L15.4323 4.56893ZM19.4965 15.5145C19.7952 14.9947 20.3074 14.6419 20.8864 14.5407C20.4481 16.0328 19.6337 17.364 18.5528 18.4245C18.3913 17.8986 18.452 17.3214 18.7348 16.8339L19.116 16.1768L19.118 16.1732L19.4965 15.5145ZM9.24801 19.4506C9.74578 19.7367 10.0904 20.2185 10.2076 20.7672C8.65098 20.4061 7.24926 19.641 6.11876 18.5885C6.69924 18.3327 7.37226 18.3661 7.92855 18.6888L8.58572 19.0701L8.58928 19.0721L9.24801 19.4506Z" fill="black"/>
</svg>
