<svg width="25" height="24" viewBox="0 0 25 24" fill="none" xmlns="http://www.w3.org/2000/svg">
<path fill-rule="evenodd" clip-rule="evenodd" d="M13.3825 2.15671C12.9719 2.01987 12.5281 2.01987 12.1175 2.15671L4.11754 4.82338C3.30086 5.09561 2.75 5.85988 2.75 6.72074V8.99998C2.75 10.1046 3.64543 11 4.75 11H5.75V16H4.75C3.64543 16 2.75 16.8954 2.75 18V20C2.75 21.1046 3.64543 22 4.75 22H20.75C21.8546 22 22.75 21.1046 22.75 20V18C22.75 16.8954 21.8546 16 20.75 16H19.75V11H20.75C21.8546 11 22.75 10.1046 22.75 8.99998V6.72074C22.75 5.85988 22.1991 5.09561 21.3825 4.82338L13.3825 2.15671ZM17.75 16V11H15.75V16H17.75ZM13.75 16V11H11.75V16H13.75ZM9.75 16V11H7.75V16H9.75ZM4.75 18V20H20.75V18H4.75ZM4.75 8.99998L4.75 6.72074L12.75 4.05408L20.75 6.72074V8.99998H4.75Z" fill="black"/>
</svg>
