<svg width="25" height="24" viewBox="0 0 25 24" fill="none" xmlns="http://www.w3.org/2000/svg">
<path fill-rule="evenodd" clip-rule="evenodd" d="M16.25 2C14.8693 2 13.75 3.11929 13.75 4.5V19.5C13.75 20.8807 14.8693 22 16.25 22H20.25C21.6307 22 22.75 20.8807 22.75 19.5V4.5C22.75 3.11929 21.6307 2 20.25 2H16.25ZM15.75 4.5C15.75 4.22386 15.9739 4 16.25 4H20.25C20.5261 4 20.75 4.22386 20.75 4.5V19.5C20.75 19.7761 20.5261 20 20.25 20H16.25C15.9739 20 15.75 19.7761 15.75 19.5V4.5Z" fill="black"/>
<path fill-rule="evenodd" clip-rule="evenodd" d="M5.25 11C3.86929 11 2.75 12.1193 2.75 13.5V19.5C2.75 20.8807 3.86929 22 5.25 22H9.25C10.6307 22 11.75 20.8807 11.75 19.5V13.5C11.75 12.1193 10.6307 11 9.25 11H5.25ZM4.75 13.5C4.75 13.2239 4.97386 13 5.25 13H9.25C9.52614 13 9.75 13.2239 9.75 13.5V19.5C9.75 19.7761 9.52614 20 9.25 20H5.25C4.97386 20 4.75 19.7761 4.75 19.5V13.5Z" fill="black"/>
</svg>
