<svg width="25" height="24" viewBox="0 0 25 24" fill="none" xmlns="http://www.w3.org/2000/svg">
<path fill-rule="evenodd" clip-rule="evenodd" d="M13.75 4.5C13.75 3.11929 12.6307 2 11.25 2H5.25C3.86929 2 2.75 3.11929 2.75 4.5V8.5C2.75 9.88071 3.86929 11 5.25 11H11.25C12.6307 11 13.75 9.88071 13.75 8.5V4.5ZM11.25 4C11.5261 4 11.75 4.22386 11.75 4.5V8.5C11.75 8.77614 11.5261 9 11.25 9L5.25 9C4.97386 9 4.75 8.77614 4.75 8.5L4.75 4.5C4.75 4.22386 4.97386 4 5.25 4L11.25 4Z" fill="black"/>
<path fill-rule="evenodd" clip-rule="evenodd" d="M22.75 15.5C22.75 14.1193 21.6307 13 20.25 13L5.25 13C3.86929 13 2.75 14.1193 2.75 15.5V19.5C2.75 20.8807 3.86929 22 5.25 22H20.25C21.6307 22 22.75 20.8807 22.75 19.5V15.5ZM20.25 15C20.5261 15 20.75 15.2239 20.75 15.5V19.5C20.75 19.7761 20.5261 20 20.25 20H5.25C4.97386 20 4.75 19.7761 4.75 19.5L4.75 15.5C4.75 15.2239 4.97386 15 5.25 15L20.25 15Z" fill="black"/>
</svg>
