<svg width="25" height="24" viewBox="0 0 25 24" fill="none" xmlns="http://www.w3.org/2000/svg">
<path d="M6.75 8C7.30228 8 7.75 8.44772 7.75 9V15C7.75 15.5523 7.30228 16 6.75 16C6.19772 16 5.75 15.5523 5.75 15V9C5.75 8.44772 6.19772 8 6.75 8Z" fill="black"/>
<path d="M10.75 9C10.75 8.44772 10.3023 8 9.75 8C9.19772 8 8.75 8.44772 8.75 9V15C8.75 15.5523 9.19772 16 9.75 16C10.3023 16 10.75 15.5523 10.75 15V9Z" fill="black"/>
<path d="M12.75 8C13.3023 8 13.75 8.44772 13.75 9V15C13.75 15.5523 13.3023 16 12.75 16C12.1977 16 11.75 15.5523 11.75 15V9C11.75 8.44772 12.1977 8 12.75 8Z" fill="black"/>
<path d="M16.75 9C16.75 8.44772 16.3023 8 15.75 8C15.1977 8 14.75 8.44772 14.75 9V15C14.75 15.5523 15.1977 16 15.75 16C16.3023 16 16.75 15.5523 16.75 15V9Z" fill="black"/>
<path fill-rule="evenodd" clip-rule="evenodd" d="M2.25 9C2.25 6.79086 4.04086 5 6.25 5H16.25C18.4591 5 20.25 6.79086 20.25 9V9.20802C21.133 9.5938 21.75 10.4748 21.75 11.5V12.5C21.75 13.5252 21.133 14.4062 20.25 14.792V15C20.25 17.2091 18.4591 19 16.25 19H6.25C4.04086 19 2.25 17.2091 2.25 15V9ZM18.25 15C18.25 16.1046 17.3546 17 16.25 17H6.25C5.14543 17 4.25 16.1046 4.25 15V9C4.25 7.89543 5.14543 7 6.25 7H16.25C17.3546 7 18.25 7.89543 18.25 9V15Z" fill="black"/>
</svg>
