<svg width="25" height="24" viewBox="0 0 25 24" fill="none" xmlns="http://www.w3.org/2000/svg">
<path fill-rule="evenodd" clip-rule="evenodd" d="M6.25 5C4.04086 5 2.25 6.79086 2.25 9V15C2.25 17.2091 4.04086 19 6.25 19H16.7071C18.9163 19 20.7071 17.2091 20.7071 15V14.9854C21.5775 14.8733 22.25 14.1295 22.25 13.2286V10.7714C22.25 9.87054 21.5775 9.12673 20.7071 9.01461V9C20.7071 6.79086 18.9163 5 16.7071 5H6.25ZM4.25 9C4.25 7.89543 5.14543 7 6.25 7H16.7071C17.8117 7 18.7071 7.89543 18.7071 9V15C18.7071 16.1046 17.8117 17 16.7071 17H6.25C5.14543 17 4.25 16.1046 4.25 15V9Z" fill="black"/>
</svg>
