<svg width="25" height="24" viewBox="0 0 25 24" fill="none" xmlns="http://www.w3.org/2000/svg">
<path fill-rule="evenodd" clip-rule="evenodd" d="M12.25 9.52566C12.25 8.09997 10.2866 7.71389 9.74679 9.03343L8.49365 12.0967C8.14377 12.9519 8.77282 13.8889 9.69686 13.8889H10.25V14.4743C10.25 15.9 12.2134 16.2861 12.7532 14.9666L14.0064 11.9033C14.3562 11.0481 13.7272 10.1111 12.8031 10.1111H12.25V9.52566ZM10.7395 11.8889L10.7585 11.8425C10.7795 11.8586 10.8009 11.8741 10.8229 11.8889H10.7395ZM11.7415 12.1575C11.7205 12.1414 11.6991 12.1259 11.6771 12.1111H11.7605L11.7415 12.1575Z" fill="black"/>
<path fill-rule="evenodd" clip-rule="evenodd" d="M6.25 5C4.04086 5 2.25 6.79086 2.25 9V15C2.25 17.2091 4.04086 19 6.25 19H16.25C18.4591 19 20.25 17.2091 20.25 15V14.792C21.133 14.4062 21.75 13.5252 21.75 12.5V11.5C21.75 10.4748 21.133 9.5938 20.25 9.20802V9C20.25 6.79086 18.4591 5 16.25 5H6.25ZM18.25 9C18.25 7.89543 17.3546 7 16.25 7H6.25C5.14543 7 4.25 7.89543 4.25 9V15C4.25 16.1046 5.14543 17 6.25 17H16.25C17.3546 17 18.25 16.1046 18.25 15V9Z" fill="black"/>
</svg>
