<svg width="25" height="24" viewBox="0 0 25 24" fill="none" xmlns="http://www.w3.org/2000/svg">
<path fill-rule="evenodd" clip-rule="evenodd" d="M3.25 4C2.14543 4 1.25 4.89543 1.25 6V7C1.25 8.10457 2.14543 9 3.25 9C2.14543 9 1.25 9.89543 1.25 11V18C1.25 19.0626 2.07866 19.9316 3.125 19.9962V20C3.125 20.5523 3.57272 21 4.125 21C4.67728 21 5.125 20.5523 5.125 20H19.375C19.375 20.5523 19.8227 21 20.375 21C20.9273 21 21.375 20.5523 21.375 20V19.9962C22.4213 19.9316 23.25 19.0626 23.25 18V11C23.25 9.89543 22.3546 9 21.25 9H8.25C9.35457 9 10.25 8.10457 10.25 7V6C10.25 4.89543 9.35457 4 8.25 4H3.25ZM3.25 6H8.25V7H3.25V6ZM3.25 11H21.25V18H3.25V11Z" fill="black"/>
</svg>
