<svg width="25" height="24" viewBox="0 0 25 24" fill="none" xmlns="http://www.w3.org/2000/svg">
<path d="M11.75 6C11.1977 6 10.75 6.44772 10.75 7H6.48244C6.13663 6.4022 5.49028 6 4.75 6C3.64543 6 2.75 6.89543 2.75 8C2.75 9.10457 3.64543 10 4.75 10C5.49028 10 6.13663 9.5978 6.48244 9H8.38587C5.0497 10.6207 2.75 14.0418 2.75 18V19C2.75 19.5523 3.19772 20 3.75 20C4.30228 20 4.75 19.5523 4.75 19V18C4.75 13.5817 8.33172 10 12.75 10C17.1683 10 20.75 13.5817 20.75 18V19C20.75 19.5523 21.1977 20 21.75 20C22.3023 20 22.75 19.5523 22.75 19V18C22.75 14.0418 20.4503 10.6207 17.1141 9H20.0176C20.3634 9.5978 21.0097 10 21.75 10C22.8546 10 23.75 9.10457 23.75 8C23.75 6.89543 22.8546 6 21.75 6C21.0097 6 20.3634 6.4022 20.0176 7H14.75C14.75 6.44772 14.3023 6 13.75 6H11.75Z" fill="black"/>
</svg>
