<svg width="25" height="24" viewBox="0 0 25 24" fill="none" xmlns="http://www.w3.org/2000/svg">
<path d="M13.25 3.57088C14.4571 3.74351 15.5649 4.22405 16.4912 4.93041L15.0589 6.36273C14.2583 5.81823 13.2913 5.5 12.25 5.5C9.48836 5.5 7.25002 7.73772 7.25002 10.4989V14.1716L4.08264 17.339C4.16495 16.9323 4.31696 16.5377 4.51911 16.1776C4.73407 15.7947 4.92843 15.4151 5.06629 15.0855C5.13506 14.9211 5.18428 14.782 5.21521 14.6703C5.23046 14.6152 5.2397 14.5724 5.24491 14.5409C5.24925 14.5146 5.24991 14.5015 5.25001 14.4996L5.25002 14.4917V10.4989C5.25002 6.97223 7.8579 4.05593 11.25 3.57087V3C11.25 2.44772 11.6977 2 12.25 2C12.8023 2 13.25 2.44772 13.25 3V3.57088Z" fill="black"/>
<path d="M17.2105 9.86792L18.8674 8.21103C19.1154 8.92807 19.25 9.69798 19.25 10.4994V14.4993C19.25 14.4993 19.2504 14.5124 19.2551 14.5409C19.2603 14.5724 19.2696 14.6152 19.2848 14.6703C19.3158 14.782 19.365 14.9211 19.4338 15.0855C19.5716 15.4151 19.766 15.7947 19.9809 16.1776C20.3851 16.8975 20.5888 17.7554 20.4359 18.5712C20.2746 19.4316 19.7208 20.1819 18.775 20.542C17.93 20.8637 16.8054 21.1579 15.3201 21.333C15.2848 21.3637 15.243 21.3987 15.195 21.4371C15.0447 21.5574 14.83 21.7132 14.5586 21.8682C14.0201 22.176 13.2238 22.5 12.25 22.5C11.2762 22.5 10.4799 22.176 9.94136 21.8682C9.67 21.7132 9.45528 21.5574 9.30499 21.4371C9.25699 21.3987 9.2152 21.3637 9.17986 21.333C8.02328 21.1966 7.08535 20.9881 6.32791 20.7505L7.96634 19.1121C9.01862 19.3356 10.4161 19.5 12.25 19.5C15.174 19.5 16.9884 19.0822 18.0633 18.6729C18.3231 18.574 18.43 18.4166 18.4701 18.2027C18.5185 17.9444 18.4643 17.5616 18.2369 17.1566C18.0031 16.74 17.768 16.2861 17.5886 15.8571C17.4235 15.4623 17.25 14.9629 17.25 14.5V10.4994C17.25 10.2855 17.2366 10.0747 17.2105 9.86792Z" fill="black"/>
<path d="M20.9571 3.29289C21.3476 3.68342 21.3476 4.31658 20.9571 4.70711L4.95711 20.7071C4.56658 21.0976 3.93342 21.0976 3.54289 20.7071C3.15237 20.3166 3.15237 19.6834 3.54289 19.2929L19.5429 3.29289C19.9334 2.90237 20.5666 2.90237 20.9571 3.29289Z" fill="black"/>
</svg>
