<svg width="25" height="24" viewBox="0 0 25 24" fill="none" xmlns="http://www.w3.org/2000/svg">
<path fill-rule="evenodd" clip-rule="evenodd" d="M13.2504 3C13.2504 2.44772 12.8026 2 12.2504 2C11.6981 2 11.2504 2.44772 11.2504 3V3.57087C7.85823 4.05593 5.25035 6.97223 5.25035 10.4989L5.25035 14.4993C5.25035 14.4993 5.25036 14.4991 5.25035 14.4993C5.25025 14.5012 5.24957 14.5146 5.24524 14.5409C5.24003 14.5724 5.23079 14.6152 5.21553 14.6703C5.18461 14.782 5.13539 14.9211 5.06662 15.0855C4.92876 15.4151 4.7344 15.7947 4.51944 16.1776C4.1153 16.8975 3.91158 17.7554 4.06452 18.5712C4.2258 19.4316 4.77959 20.1819 5.72541 20.542C6.57032 20.8637 7.69498 21.1579 9.18021 21.333C9.21555 21.3637 9.25734 21.3987 9.30534 21.4371C9.45563 21.5574 9.67035 21.7132 9.94171 21.8682C10.4803 22.176 11.2766 22.5 12.2504 22.5C13.2241 22.5 14.0204 22.176 14.559 21.8682C14.8304 21.7132 15.0451 21.5574 15.1954 21.4371C15.2434 21.3987 15.2852 21.3637 15.3205 21.333C16.8057 21.1579 17.9304 20.8637 18.7753 20.542C19.7211 20.1819 20.2749 19.4316 20.4362 18.5712C20.5891 17.7554 20.3854 16.8975 19.9813 16.1776C19.7663 15.7947 19.5719 15.4151 19.4341 15.0855C19.3653 14.9211 19.3161 14.782 19.2852 14.6703C19.2699 14.6152 19.2607 14.5724 19.2555 14.5409C19.2511 14.5146 19.2505 14.5015 19.2504 14.4996C19.2504 14.4994 19.2504 14.4996 19.2504 14.4996L19.2504 14.4911V10.4994C19.2504 6.9728 16.6425 4.05601 13.2504 3.57088V3ZM7.25035 10.4989C7.25035 7.73772 9.48869 5.5 12.2504 5.5C15.0119 5.5 17.2504 7.73809 17.2504 10.4994V14.5C17.2504 14.9629 17.4238 15.4623 17.5889 15.8571C17.7683 16.2861 18.0034 16.74 18.2373 17.1566C18.4646 17.5616 18.5189 17.9444 18.4704 18.2027C18.4303 18.4166 18.3235 18.574 18.0636 18.6729C16.9887 19.0822 15.1743 19.5 12.2504 19.5C9.32642 19.5 7.51196 19.0822 6.4371 18.6729C6.17724 18.574 6.07036 18.4166 6.03028 18.2027C5.98185 17.9444 6.03606 17.5616 6.26344 17.1566C6.49729 16.74 6.73238 16.2861 6.91177 15.8571C7.0769 15.4623 7.25035 14.9629 7.25035 14.5V10.4989Z" fill="black"/>
</svg>
