<svg width="25" height="24" viewBox="0 0 25 24" fill="none" xmlns="http://www.w3.org/2000/svg">
<path fill-rule="evenodd" clip-rule="evenodd" d="M2.75 4C2.75 3.44772 3.19772 3 3.75 3H5.25C5.80228 3 6.25 3.44772 6.25 4V5.66667L7.25 7H13.8838C13.7987 6.85291 13.75 6.68214 13.75 6.5C13.75 5.94772 14.1977 5.5 14.75 5.5H18.25C18.8023 5.5 19.25 5.94772 19.25 6.5C19.25 7.05228 18.8023 7.5 18.25 7.5H17.2852L16.8326 8.17883L17.7202 11.5073C17.8129 11.5025 17.9061 11.5 18 11.5C20.8995 11.5 23.25 13.8505 23.25 16.75C23.25 19.6495 20.8995 22 18 22C15.1005 22 12.75 19.6495 12.75 16.75C12.75 15.9627 12.9233 15.2159 13.2338 14.5456L10.4334 13.2727C11.2527 14.1988 11.75 15.4163 11.75 16.75C11.75 19.6495 9.3995 22 6.5 22C3.60051 22 1.25 19.6495 1.25 16.75C1.25 14.1051 3.20578 11.9171 5.75 11.5532V8.33333L4.45 6.6C4.32018 6.4269 4.25 6.21637 4.25 6V5H3.75C3.19772 5 2.75 4.55228 2.75 4ZM15.7794 11.9914C15.2847 12.2226 14.832 12.5287 14.4359 12.8951L7.75 9.85609V9H14.9817L15.7794 11.9914ZM15.0551 15.3735C14.8593 15.7915 14.75 16.258 14.75 16.75C14.75 18.5449 16.2051 20 18 20C19.7949 20 21.25 18.5449 21.25 16.75C21.25 15.0406 19.9303 13.6395 18.2542 13.5098L18.7162 15.2423C18.8159 15.6159 18.6912 16.0135 18.396 16.2633C18.1009 16.5131 17.6882 16.5704 17.3362 16.4104L15.0551 15.3735ZM5.75 15.5V13.587C4.31665 13.9255 3.25 15.2132 3.25 16.75C3.25 18.5449 4.70507 20 6.5 20C8.29493 20 9.75 18.5449 9.75 16.75C9.75 15.398 8.92448 14.2389 7.75 13.7491V15.5C7.75 16.0523 7.30228 16.5 6.75 16.5C6.19772 16.5 5.75 16.0523 5.75 15.5Z" fill="black"/>
</svg>
