<svg width="25" height="24" viewBox="0 0 25 24" fill="none" xmlns="http://www.w3.org/2000/svg">
<path d="M9.7501 1.75C9.33444 1.75 8.96212 2.00713 8.81491 2.39585L8.58532 3.00213C8.09314 2.95295 7.63967 2.90387 7.27258 2.86265C6.99817 2.83184 6.77259 2.80549 6.6159 2.78687L6.43515 2.76518L6.37377 2.75768C5.82568 2.68981 5.32556 3.07901 5.25768 3.6271C5.18981 4.1752 5.57911 4.67455 6.12721 4.74242L6.194 4.75059L6.37998 4.77291C6.54032 4.79196 6.77019 4.81881 7.04942 4.85016C7.60738 4.91281 8.36468 4.99369 9.15922 5.0662C10.231 5.16401 11.4058 5.25 12.2501 5.25C13.0944 5.25 14.2692 5.16401 15.341 5.0662C16.1355 4.99369 16.8928 4.91281 17.4508 4.85016C17.73 4.81881 17.9599 4.79196 18.1202 4.77291L18.3062 4.75059L18.3729 4.74244C18.921 4.67456 19.3104 4.1752 19.2425 3.6271C19.1747 3.07901 18.6753 2.68972 18.1272 2.75758L18.0651 2.76518L17.8843 2.78687C17.7276 2.80549 17.502 2.83184 17.2276 2.86265C16.8605 2.90387 16.4071 2.95295 15.9149 3.00213L15.6853 2.39585C15.5381 2.00713 15.1658 1.75 14.7501 1.75H9.7501Z" fill="black"/>
<path d="M11.2501 11.75C11.2501 11.1977 10.8024 10.75 10.2501 10.75C9.69782 10.75 9.2501 11.1977 9.2501 11.75V16.75C9.2501 17.3023 9.69782 17.75 10.2501 17.75C10.8024 17.75 11.2501 17.3023 11.2501 16.75V11.75Z" fill="black"/>
<path d="M14.2501 10.75C14.8024 10.75 15.2501 11.1977 15.2501 11.75V16.75C15.2501 17.3023 14.8024 17.75 14.2501 17.75C13.6978 17.75 13.2501 17.3023 13.2501 16.75V11.75C13.2501 11.1977 13.6978 10.75 14.2501 10.75Z" fill="black"/>
<path fill-rule="evenodd" clip-rule="evenodd" d="M19.1598 8.05056C19.2504 6.78179 18.1565 5.76463 16.9134 5.9083C15.6414 6.0553 13.6784 6.25 12.2501 6.25C10.8218 6.25 8.85884 6.0553 7.58681 5.9083C6.34368 5.76463 5.24983 6.78179 5.34045 8.05056L6.19719 20.0448C6.26213 20.954 6.93937 21.7228 7.86875 21.8626C8.86535 22.0124 10.694 22.2518 12.2513 22.25C13.7893 22.2482 15.6255 22.0099 16.6265 21.8614C17.5574 21.7232 18.2381 20.954 18.3032 20.0421L19.1598 8.05056ZM17.143 7.89507C17.1465 7.89467 17.1491 7.89491 17.1491 7.89491L17.1518 7.89551C17.154 7.89628 17.1575 7.89811 17.1609 7.90137C17.1632 7.90353 17.1649 7.90617 17.1649 7.90617L17.1648 7.90806L16.3092 19.8865C15.3185 20.0329 13.6206 20.2484 12.2489 20.25C10.8624 20.2516 9.17497 20.0359 8.19112 19.8885L7.33537 7.90806L7.3353 7.90617C7.3353 7.90617 7.337 7.90353 7.33928 7.90137C7.34272 7.89811 7.34621 7.89628 7.34843 7.89551L7.35108 7.89491C7.35108 7.89491 7.35374 7.89467 7.3572 7.89507C8.63149 8.04234 10.6956 8.25 12.2501 8.25C13.8047 8.25 15.8687 8.04234 17.143 7.89507Z" fill="black"/>
</svg>
