<svg width="25" height="24" viewBox="0 0 25 24" fill="none" xmlns="http://www.w3.org/2000/svg">
<path fill-rule="evenodd" clip-rule="evenodd" d="M13.3594 4.20437C12.0303 3.3183 10.25 4.27108 10.25 5.86848V9.91933L7.87473 8.01909C7.44347 7.67408 6.81418 7.744 6.46917 8.17526C6.12416 8.60652 6.19408 9.23582 6.62534 9.58083L9.64926 12L6.62534 14.4191C6.19408 14.7641 6.12416 15.3934 6.46917 15.8247C6.81418 16.2559 7.44347 16.3258 7.87473 15.9808L10.25 14.0806V18.1314C10.25 19.7288 12.0303 20.6816 13.3594 19.7955L16.5567 17.6641C17.7441 16.8724 17.7441 15.1275 16.5567 14.3359L13.0528 12L16.5567 9.66406C17.7441 8.87241 17.7441 7.1275 16.5567 6.33586L13.3594 4.20437ZM15.4473 7.99996L12.25 10.1314V5.86848L15.4473 7.99996ZM15.4473 16L12.25 18.1314V13.8685L15.4473 16Z" fill="black"/>
</svg>
