<svg width="25" height="24" viewBox="0 0 25 24" fill="none" xmlns="http://www.w3.org/2000/svg">
<path fill-rule="evenodd" clip-rule="evenodd" d="M8.25 8.28481V20C8.25 21.1046 7.35457 22 6.25 22H4.25C3.14543 22 2.25 21.1046 2.25 20V4.00001C2.25 2.89544 3.14543 2.00001 4.25 2.00001H6.25C6.99846 2.00001 7.65089 2.41114 7.99379 3.01989C8.23827 2.78661 8.54524 2.61222 8.89698 2.52596L10.8394 2.0496C11.9122 1.78652 12.9951 2.4429 13.2582 3.51569L16.25 15.7152V4.00001C16.25 2.89544 17.1454 2.00001 18.25 2.00001H20.25C21.3546 2.00001 22.25 2.89544 22.25 4.00001V20C22.25 21.1046 21.3546 22 20.25 22H18.25C17.5015 22 16.8491 21.5889 16.5062 20.9801C16.2617 21.2134 15.9547 21.3878 15.603 21.474L13.6606 21.9504C12.5878 22.2135 11.5048 21.5571 11.2418 20.4843L8.25 8.28481ZM9.37334 4.4684L11.3158 3.99204L15.1266 19.5316L13.1842 20.0079L9.37334 4.4684ZM6.25 4.00001L4.25 4.00001V20H6.25V4.00001ZM20.25 4.00001L18.25 4.00001V20H20.25V4.00001Z" fill="black"/>
</svg>
