<svg width="25" height="24" viewBox="0 0 25 24" fill="none" xmlns="http://www.w3.org/2000/svg">
<path d="M5.88636 3.81825C4.88868 3.81825 4.06818 4.63509 4.06818 5.6572V13.8013C4.06818 14.7075 5.1966 15.053 5.70844 14.3498L5.95787 14.007C6.40259 13.396 7.03622 13.0343 7.70455 12.9221V14.8253C7.60019 14.8864 7.50557 14.9703 7.42793 15.077L7.17849 15.4197C5.61202 17.5721 2.25 16.4364 2.25 13.8013V5.6572C2.25 3.64388 3.87159 2 5.88636 2H10.4318C12.4397 2 14.0571 3.63262 14.0681 5.63651H12.2499C12.2389 4.62408 11.4228 3.81825 10.4318 3.81825H5.88636Z" fill="black"/>
<path fill-rule="evenodd" clip-rule="evenodd" d="M18.8084 6.54563C20.6629 6.54563 22.25 7.98255 22.25 9.85577V19.4878C22.25 20.7114 21.4193 21.5614 20.4817 21.8664C19.5467 22.1706 18.3814 21.9789 17.6171 21.0472L15.7285 18.745C15.6634 18.6657 15.5583 18.6141 15.4318 18.6141C15.3053 18.6141 15.2002 18.6657 15.1351 18.745L13.2465 21.0472C12.4822 21.9789 11.3169 22.1706 10.3819 21.8664C9.44435 21.5614 8.61364 20.7114 8.61364 19.4878V9.85577C8.61364 7.98255 10.2008 6.54563 12.0552 6.54563H18.8084ZM20.4318 9.85577C20.4318 9.07691 19.7513 8.36389 18.8084 8.36389H12.0552C11.1123 8.36389 10.4318 9.07691 10.4318 9.85577V19.4878C10.4318 19.7884 10.6181 20.0312 10.9443 20.1373C11.2731 20.2443 11.6183 20.1653 11.8409 19.8939L13.7295 17.5918C14.6001 16.5305 16.2635 16.5305 17.1342 17.5918L19.0228 19.8939C19.2454 20.1653 19.5905 20.2443 19.9193 20.1373C20.2455 20.0312 20.4318 19.7884 20.4318 19.4878V9.85577Z" fill="black"/>
</svg>
