<svg width="25" height="24" viewBox="0 0 25 24" fill="none" xmlns="http://www.w3.org/2000/svg">
<path fill-rule="evenodd" clip-rule="evenodd" d="M7.67857 1C5.26874 1 3.25 2.89041 3.25 5.30126V19.7948C3.25 22.9156 7.24131 24.0975 9.11786 21.7744L11.6747 18.6091C11.9608 18.2549 12.5392 18.2549 12.8253 18.609L15.3821 21.7744C17.2587 24.0975 21.25 22.9156 21.25 19.7948V5.30126C21.25 2.89041 19.2313 1 16.8214 1H7.67857ZM5.25 5.30126C5.25 4.06564 6.30131 3 7.67857 3H16.8214C18.1987 3 19.25 4.06564 19.25 5.30126V19.7948C19.25 20.8651 17.7337 21.5028 16.938 20.5176L14.3811 17.3523C13.2945 16.0071 11.2055 16.0071 10.1189 17.3523L7.56204 20.5177C6.76628 21.5028 5.25 20.8651 5.25 19.7948V5.30126Z" fill="black"/>
</svg>
