<svg width="25" height="24" viewBox="0 0 25 24" fill="none" xmlns="http://www.w3.org/2000/svg">
<path d="M7.67857 1C5.26874 1 3.25 2.89041 3.25 5.30126V19.7948C3.25 22.9156 7.24131 24.0975 9.11786 21.7744L11.6747 18.6091C11.9608 18.2549 12.5392 18.2549 12.8253 18.6091L15.3821 21.7744C17.2587 24.0975 21.25 22.9156 21.25 19.7948V10.5C21.25 9.94772 20.8023 9.5 20.25 9.5C19.6977 9.5 19.25 9.94772 19.25 10.5V19.7948C19.25 20.8651 17.7337 21.5028 16.938 20.5177L14.3811 17.3523C13.2945 16.0071 11.2055 16.0071 10.1189 17.3523L7.56204 20.5177C6.76628 21.5028 5.25 20.8651 5.25 19.7948V5.30126C5.25 4.06564 6.30131 3 7.67857 3H14.75C15.3023 3 15.75 2.55228 15.75 2C15.75 1.44772 15.3023 1 14.75 1H7.67857Z" fill="black"/>
<path d="M19.25 2C19.25 1.44772 18.8023 1 18.25 1C17.6977 1 17.25 1.44772 17.25 2V4H15.25C14.6977 4 14.25 4.44772 14.25 5C14.25 5.55228 14.6977 6 15.25 6H17.25V8C17.25 8.55228 17.6977 9 18.25 9C18.8023 9 19.25 8.55228 19.25 8V6H21.25C21.8023 6 22.25 5.55228 22.25 5C22.25 4.44772 21.8023 4 21.25 4H19.25V2Z" fill="black"/>
</svg>
