<svg width="25" height="24" viewBox="0 0 25 24" fill="none" xmlns="http://www.w3.org/2000/svg">
<path d="M5.80279 10.8944C5.30881 10.6474 5.10858 10.0468 5.35557 9.5528C5.60256 9.05882 6.20324 8.85859 6.69721 9.10558L9.69721 10.6056C10.1912 10.8526 10.3914 11.4532 10.1444 11.9472C9.89744 12.4412 9.29676 12.6414 8.80279 12.3944L5.80279 10.8944Z" fill="black"/>
<path d="M5.80279 13.8944C5.30881 13.6474 5.10858 13.0468 5.35557 12.5528C5.60256 12.0588 6.20324 11.8586 6.69721 12.1056L9.69721 13.6056C10.1912 13.8526 10.3914 14.4532 10.1444 14.9472C9.89744 15.4412 9.29676 15.6414 8.80279 15.3944L5.80279 13.8944Z" fill="black"/>
<path d="M19.1444 9.5528C19.3914 10.0468 19.1912 10.6474 18.6972 10.8944L15.6972 12.3944C15.2032 12.6414 14.6026 12.4412 14.3556 11.9472C14.1086 11.4532 14.3088 10.8526 14.8028 10.6056L17.8028 9.10558C18.2968 8.85859 18.8974 9.05882 19.1444 9.5528Z" fill="black"/>
<path d="M19.1444 12.5528C19.3914 13.0468 19.1912 13.6474 18.6972 13.8944L15.6972 15.3944C15.2032 15.6414 14.6026 15.4412 14.3556 14.9472C14.1086 14.4532 14.3088 13.8526 14.8028 13.6056L17.8028 12.1056C18.2968 11.8586 18.8974 12.0588 19.1444 12.5528Z" fill="black"/>
<path fill-rule="evenodd" clip-rule="evenodd" d="M12.25 20C12.6002 20.9367 12.6002 20.9367 12.6003 20.9366L12.6094 20.9332L12.6335 20.9241L12.7242 20.8897C12.8025 20.8598 12.9158 20.8162 13.0571 20.7608C13.3397 20.6501 13.7355 20.492 14.1905 20.3017C15.094 19.9237 16.2562 19.4082 17.2287 18.878C18.3087 18.2892 19.9046 17.6167 20.8595 17.2305C21.6914 16.894 22.25 16.0865 22.25 15.1753V5.56921C22.25 4.12799 20.8704 3.04736 19.4506 3.48369C18.5143 3.77144 17.2882 4.17501 16.3508 4.58314C15.3715 5.00951 14.2038 5.65997 13.3029 6.18836C12.8898 6.43062 12.5253 6.65173 12.25 6.82114C11.9747 6.65173 11.6102 6.43062 11.1971 6.18836C10.2962 5.65997 9.1285 5.00951 8.14918 4.58314C7.21177 4.17501 5.98568 3.77144 5.04939 3.48369C3.62964 3.04736 2.25 4.12799 2.25 5.56921V15.1753C2.25 16.0865 2.80861 16.894 3.64051 17.2305C4.59538 17.6167 6.19127 18.2892 7.27134 18.878C8.24383 19.4082 9.40605 19.9237 10.3095 20.3017C10.7645 20.492 11.1603 20.6501 11.4429 20.7608C11.5842 20.8162 11.6975 20.8598 11.7758 20.8897L11.8665 20.9241L11.8906 20.9332L11.899 20.9364C11.899 20.9364 11.8998 20.9367 12.25 20ZM4.46185 5.39544C4.37004 5.36723 4.25 5.4291 4.25 5.56921V15.1753C4.25 15.2578 4.30132 15.3404 4.39048 15.3764C5.3446 15.7624 7.03695 16.4723 8.22866 17.122C9.11058 17.6028 10.1984 18.0872 11.0813 18.4566C11.1385 18.4805 11.1948 18.5039 11.25 18.5268V8.55415C10.9794 8.38719 10.6084 8.16171 10.1853 7.91353C9.29701 7.39254 8.21473 6.79301 7.35082 6.41688C6.5225 6.05625 5.38671 5.67968 4.46185 5.39544ZM13.25 8.55415V18.5268C13.3052 18.5039 13.3615 18.4805 13.4187 18.4566C14.3016 18.0872 15.3894 17.6028 16.2713 17.122C17.4631 16.4723 19.1554 15.7624 20.1095 15.3764C20.1987 15.3404 20.25 15.2578 20.25 15.1753V5.56921C20.25 5.4291 20.13 5.36723 20.0381 5.39544C19.1133 5.67968 17.9775 6.05625 17.1492 6.41688C16.2853 6.79301 15.203 7.39254 14.3147 7.91353C13.8916 8.16171 13.5206 8.38719 13.25 8.55415Z" fill="black"/>
<path d="M12.25 20L12.6003 20.9366C12.3745 21.0211 12.1248 21.0208 11.899 20.9364L12.25 20Z" fill="black"/>
</svg>
