<svg width="25" height="24" viewBox="0 0 25 24" fill="none" xmlns="http://www.w3.org/2000/svg">
<path fill-rule="evenodd" clip-rule="evenodd" d="M6.91667 2C4.87995 2 3.25 3.66829 3.25 5.7V17.9789C3.25 20.1879 5.02193 22 7.23381 22H18.7063C19.1034 22 19.6123 21.9101 19.9883 21.5051C20.3661 21.0981 20.3991 20.5997 20.3743 20.278C20.349 19.9499 20.2511 19.6198 20.1554 19.3446C20.065 19.0847 19.9526 18.8085 19.8493 18.5545L19.8215 18.4862C19.5788 17.8889 19.4045 17.4279 19.3648 17.0769C19.3598 17.0328 19.3579 16.9969 19.3576 16.9682C19.6612 16.9222 19.9532 16.8233 20.218 16.6515C20.6161 16.3932 20.8575 16.0319 21.0009 15.6696C21.2503 15.0393 21.2502 14.2528 21.25 13.6578L21.25 5.7C21.25 3.66829 19.6201 2 17.5833 2H6.91667ZM17.3775 17.3017C17.3666 17.2057 17.3593 17.1046 17.3579 17H5.25V17.9789C5.25 19.1069 6.14986 20 7.23381 20H18.2658C18.1934 19.7919 18.1005 19.5635 17.992 19.2967L17.9609 19.2202C17.7455 18.6901 17.4531 17.9708 17.3775 17.3017ZM19.1215 14.9763C19.0978 14.9846 19.037 15 18.9167 15H5.25V5.7C5.25 4.74937 6.00787 4 6.91667 4H17.5833C18.4921 4 19.25 4.74937 19.25 5.7V13.6155C19.25 13.9483 19.2475 14.2231 19.2279 14.462C19.2081 14.7039 19.1745 14.8495 19.1412 14.9337C19.1329 14.9547 19.1261 14.9682 19.1215 14.9763ZM19.1318 14.9723L19.1337 14.9713C19.1337 14.9713 19.1331 14.9716 19.1318 14.9723ZM18.3809 20.4431C18.3808 20.4461 18.3808 20.4478 18.3809 20.4478C18.3809 20.4479 18.3809 20.4471 18.3809 20.4454" fill="black"/>
</svg>
