<svg width="25" height="24" viewBox="0 0 25 24" fill="none" xmlns="http://www.w3.org/2000/svg">
<path d="M7.75 12.25C7.75 12.9404 8.30964 13.5 9 13.5C9.69036 13.5 10.25 12.9404 10.25 12.25C10.25 11.5596 9.69036 11 9 11C8.30964 11 7.75 11.5596 7.75 12.25Z" fill="black"/>
<path d="M16 13.5C15.3096 13.5 14.75 12.9404 14.75 12.25C14.75 11.5596 15.3096 11 16 11C16.6904 11 17.25 11.5596 17.25 12.25C17.25 12.9404 16.6904 13.5 16 13.5Z" fill="black"/>
<path d="M9.85557 15.5528C10.1026 15.0588 10.7032 14.8586 11.1972 15.1056L11.4084 15.2111C12.2529 15.6334 13.2471 15.6334 14.0916 15.2111L14.3028 15.1056C14.7968 14.8586 15.3974 15.0588 15.6444 15.5528C15.8914 16.0468 15.6912 16.6474 15.1972 16.8944L14.9861 17C13.5784 17.7038 11.9216 17.7038 10.5139 17L10.3028 16.8944C9.80881 16.6474 9.60858 16.0468 9.85557 15.5528Z" fill="black"/>
<path fill-rule="evenodd" clip-rule="evenodd" d="M17.4571 1.29289C17.0666 0.902369 16.4334 0.902369 16.0429 1.29289L15.3358 2H13.75C13.4012 2 13.0776 2.18173 12.8961 2.47956L11.9694 4H7.75C4.43629 4 1.75 6.68629 1.75 10V18C1.75 20.2091 3.54086 22 5.75 22H19.75C21.9591 22 23.75 20.2091 23.75 18V10C23.75 6.68629 21.0637 4 17.75 4H15.75C16.0152 4 16.2696 3.89464 16.4571 3.70711L17.4571 2.70711C17.8476 2.31658 17.8476 1.68342 17.4571 1.29289ZM7.75 6C5.54086 6 3.75 7.79086 3.75 10V18C3.75 19.1046 4.64543 20 5.75 20H19.75C20.8546 20 21.75 19.1046 21.75 18V10C21.75 7.79086 19.9591 6 17.75 6H7.75Z" fill="black"/>
</svg>
