<svg width="25" height="24" viewBox="0 0 25 24" fill="none" xmlns="http://www.w3.org/2000/svg">
<path fill-rule="evenodd" clip-rule="evenodd" d="M5.25 2.5C3.59315 2.5 2.25 3.84315 2.25 5.5V7.5C2.25 8.24028 2.6522 8.88663 3.25 9.23244V17.5C3.25 19.7091 5.04086 21.5 7.25 21.5H17.25C19.4591 21.5 21.25 19.7091 21.25 17.5V9.23244C21.8478 8.88663 22.25 8.24028 22.25 7.5V5.5C22.25 3.84315 20.9069 2.5 19.25 2.5H5.25ZM7.25 19.5C6.14543 19.5 5.25 18.6046 5.25 17.5V9.5H19.25V17.5C19.25 18.6046 18.3546 19.5 17.25 19.5H7.25ZM19.25 4.5C19.8023 4.5 20.25 4.94772 20.25 5.5V7.5H4.25V5.5C4.25 4.94772 4.69772 4.5 5.25 4.5H19.25Z" fill="black"/>
</svg>
