<svg width="25" height="24" viewBox="0 0 25 24" fill="none" xmlns="http://www.w3.org/2000/svg">
<path fill-rule="evenodd" clip-rule="evenodd" d="M1.13843 6.90534C1.16148 6.72017 1.19786 6.47269 1.27555 6.24529C1.32322 6.01399 1.42814 5.82914 1.52038 5.70065C1.64713 5.52407 1.80234 5.37993 1.94472 5.26584C2.22984 5.03736 2.59698 4.82457 2.98176 4.63008C3.76135 4.23603 4.79399 3.82811 5.85621 3.44836C7.99092 2.68519 10.3804 1.98846 11.4303 1.69079C11.977 1.53576 12.5452 1.5431 13.0868 1.71002C14.1329 2.03244 16.5174 2.78255 18.6465 3.56278C19.7068 3.95132 20.7307 4.35705 21.4998 4.72849C21.8792 4.9117 22.2356 5.10498 22.5108 5.30195C22.6463 5.39899 22.8001 5.52347 22.9296 5.67655C23.0157 5.77832 23.1547 5.96684 23.2172 6.22716C23.2993 6.45946 23.337 6.71522 23.3607 6.90531C23.3964 7.19238 23.4209 7.53908 23.4378 7.91841C23.4716 8.67972 23.4773 9.63557 23.4674 10.6379C23.4476 12.646 23.3643 14.8947 23.3065 16.263C23.2568 17.4415 22.5171 18.47 21.4303 18.9048L13.3637 22.1314C12.6485 22.4175 11.8506 22.4175 11.1354 22.1314L3.06884 18.9048C1.98201 18.47 1.24232 17.4415 1.19256 16.263C1.13479 14.8947 1.05157 12.646 1.03172 10.6379C1.02181 9.63555 1.02752 8.67972 1.06136 7.91842C1.07822 7.53909 1.1027 7.1924 1.13843 6.90534ZM11.2495 20.023V11.1745C11.212 11.1612 11.1747 11.1471 11.1376 11.1323L3.06428 7.90295L3.05938 8.00723C3.02793 8.71483 3.02184 9.62868 3.03162 10.6181C3.05115 12.5935 3.13328 14.8166 3.19078 16.1786C3.20696 16.5617 3.44723 16.9021 3.81162 17.0478L11.2495 20.023ZM13.2495 20.023V11.1745C13.287 11.1612 13.3243 11.1471 13.3615 11.1323L21.4349 7.90293L21.4398 8.00725C21.4712 8.71484 21.4773 9.62869 21.4675 10.6181C21.448 12.5935 21.3658 14.8166 21.3083 16.1786C21.2921 16.5617 21.0519 16.9021 20.6875 17.0478L13.2495 20.023ZM17.9584 5.44066C18.7507 5.73102 19.4889 6.01927 20.0954 6.28463L17.2659 7.41643L9.92159 4.21968C10.7746 3.95947 11.5072 3.74782 11.9758 3.61494C12.1495 3.5657 12.3236 3.56764 12.4977 3.62129C13.5357 3.94122 15.8798 4.67896 17.9584 5.44066ZM7.04689 5.14967L14.6545 8.461L12.6187 9.27534C12.3803 9.3707 12.1188 9.3707 11.8804 9.27534L4.26791 6.23034C4.89056 5.94382 5.67602 5.63675 6.52949 5.33163C6.70042 5.27052 6.87318 5.2098 7.04689 5.14967Z" fill="black"/>
</svg>
