<svg width="25" height="24" viewBox="0 0 25 24" fill="none" xmlns="http://www.w3.org/2000/svg">
<path fill-rule="evenodd" clip-rule="evenodd" d="M8.25 7.32929C9.41519 6.91746 10.25 5.80622 10.25 4.5C10.25 2.84315 8.90685 1.5 7.25 1.5C5.59315 1.5 4.25 2.84315 4.25 4.5C4.25 5.80622 5.08481 6.91746 6.25 7.32929V12.6707C5.08481 13.0825 4.25 14.1938 4.25 15.5C4.25 16.8071 5.0859 17.9189 6.25229 18.3301C6.25085 18.3521 6.25011 18.3742 6.25011 18.3966V21.5C6.25011 22.0523 6.69783 22.5 7.25011 22.5C7.8024 22.5 8.25011 22.0523 8.25011 21.5V18.3966C8.25011 18.3742 8.24938 18.352 8.24793 18.33C9.01505 18.0595 9.63919 17.4859 9.97656 16.7531C13.6492 16.7655 16.0835 15.9362 17.5366 14.0849C18.8854 12.3665 19.1966 9.97596 19.2432 7.3317C20.4119 6.9218 21.25 5.80877 21.25 4.5C21.25 2.84315 19.9069 1.5 18.25 1.5C16.5931 1.5 15.25 2.84315 15.25 4.5C15.25 5.80335 16.0811 6.91258 17.2423 7.32657C17.1918 9.90318 16.8796 11.6828 15.9634 12.85C15.0883 13.9649 13.4629 14.7389 10.1563 14.7531C9.90755 13.7823 9.18519 13.0012 8.25 12.6707V7.32929ZM8.25 4.5C8.25 3.94772 7.80228 3.5 7.25 3.5C6.69772 3.5 6.25 3.94772 6.25 4.5C6.25 5.05228 6.69772 5.5 7.25 5.5C7.80228 5.5 8.25 5.05228 8.25 4.5ZM18.25 5.5C18.8023 5.5 19.25 5.05228 19.25 4.5C19.25 3.94772 18.8023 3.5 18.25 3.5C17.6977 3.5 17.25 3.94772 17.25 4.5C17.25 5.05228 17.6977 5.5 18.25 5.5ZM8.25 15.5C8.25 14.9477 7.80228 14.5 7.25 14.5C6.69772 14.5 6.25 14.9477 6.25 15.5C6.25 16.0523 6.69772 16.5 7.25 16.5C7.80228 16.5 8.25 16.0523 8.25 15.5Z" fill="black"/>
</svg>
