<svg width="25" height="24" viewBox="0 0 25 24" fill="none" xmlns="http://www.w3.org/2000/svg">
<path fill-rule="evenodd" clip-rule="evenodd" d="M12.7495 1C11.3688 1 10.2495 2.11929 10.2495 3.5V6C10.2495 6.55228 9.80181 7 9.24953 7H6.74953C5.09267 7 3.74953 8.34315 3.74953 10V13.9377L3.03826 19.6279C2.81444 21.4185 4.2106 23 6.01509 23H19.484C21.2885 23 22.6846 21.4185 22.4608 19.6279L21.7495 13.9377V10C21.7495 8.34315 20.4064 7 18.7495 7H16.2495C15.6972 7 15.2495 6.55228 15.2495 6V3.5C15.2495 2.11929 14.1302 1 12.7495 1ZM5.02281 19.876L5.63231 15H19.8667L20.4762 19.876C20.5508 20.4728 20.0855 21 19.484 21H17.6168L17.2395 18.3586C17.1614 17.8118 16.6548 17.4319 16.1081 17.5101C15.5614 17.5882 15.1815 18.0947 15.2596 18.6414L15.5965 21H6.01509C5.41359 21 4.94821 20.4728 5.02281 19.876ZM18.7495 9C19.3018 9 19.7495 9.44772 19.7495 10V13H5.74953V10C5.74953 9.44772 6.19724 9 6.74953 9H9.24953C10.9064 9 12.2495 7.65685 12.2495 6V3.5C12.2495 3.22386 12.4734 3 12.7495 3C13.0257 3 13.2495 3.22386 13.2495 3.5V6C13.2495 7.65685 14.5927 9 16.2495 9H18.7495Z" fill="black"/>
</svg>
