<svg width="25" height="24" viewBox="0 0 25 24" fill="none" xmlns="http://www.w3.org/2000/svg">
<path fill-rule="evenodd" clip-rule="evenodd" d="M5.75921 11.8637C5.75313 11.8129 5.75 11.7612 5.75 11.7087V5C5.75 3.89543 6.64543 3 7.75 3H8.75V2C8.75 1.44771 9.19772 1 9.75 1C10.3023 1 10.75 1.44771 10.75 2V3H11.25V2C11.25 1.44771 11.6977 1 12.25 1C12.8023 1 13.25 1.44771 13.25 2V3.02469C15.7767 3.27555 17.75 5.40733 17.75 8C17.75 9.27077 17.2759 10.4308 16.495 11.3129C18.396 12.021 19.75 13.8524 19.75 16C19.75 18.7614 17.5114 21 14.75 21H13.25V22C13.25 22.5523 12.8023 23 12.25 23C11.6977 23 11.25 22.5523 11.25 22V21H10.75V22C10.75 22.5523 10.3023 23 9.75 23C9.19772 23 8.75 22.5523 8.75 22V21H7.75C6.64543 21 5.75 20.1046 5.75 19V12C5.75 11.9538 5.75314 11.9083 5.75921 11.8637ZM7.75 11H12.75C14.4069 11 15.75 9.65685 15.75 8C15.75 6.34315 14.4069 5 12.75 5H7.75V11ZM7.75 13V19H14.75C16.4069 19 17.75 17.6569 17.75 16C17.75 14.3431 16.4069 13 14.75 13H7.75Z" fill="black"/>
</svg>
