<svg width="25" height="24" viewBox="0 0 25 24" fill="none" xmlns="http://www.w3.org/2000/svg">
<path fill-rule="evenodd" clip-rule="evenodd" d="M7.94918 5.08018L8.05225 4.66789C8.59116 2.51225 10.528 1 12.75 1C14.972 1 16.9088 2.51225 17.4477 4.66789L17.5508 5.08018C18.7188 5.31752 19.7018 6.06375 20.2585 7.07733L21.0429 6.29289C21.4334 5.90237 22.0666 5.90237 22.4571 6.29289C22.8476 6.68342 22.8476 7.31658 22.4571 7.70711L20.75 9.41422V12L22.25 12C22.8023 12 23.25 12.4477 23.25 13C23.25 13.5523 22.8023 14 22.25 14L20.6881 14C20.5686 14.9588 20.2793 15.8648 19.8515 16.6872L21.4571 18.2929C21.8476 18.6834 21.8476 19.3166 21.4571 19.7071C21.0666 20.0976 20.4334 20.0976 20.0429 19.7071L18.6922 18.3564C17.228 19.9797 15.1082 21 12.75 21C10.3918 21 8.27196 19.9797 6.80779 18.3564L5.45711 19.7071C5.06658 20.0976 4.43342 20.0976 4.04289 19.7071C3.65237 19.3166 3.65237 18.6834 4.04289 18.2929L5.64854 16.6872C5.22066 15.8648 4.93145 14.9588 4.81189 14L3.25 14C2.69772 14 2.25 13.5523 2.25 13C2.25 12.4477 2.69771 12 3.25 12L4.75 12V9.41421L3.04289 7.70711C2.65237 7.31658 2.65237 6.68342 3.04289 6.29289C3.43342 5.90237 4.06658 5.90237 4.45711 6.29289L5.24154 7.07732C5.79817 6.06375 6.78124 5.31752 7.94918 5.08018ZM12.75 19C9.43629 19 6.75 16.3137 6.75 13V9C6.75 7.89543 7.64543 7 8.75 7H16.75C17.8546 7 18.75 7.89543 18.75 9V13C18.75 16.3137 16.0637 19 12.75 19ZM15.4647 5C15.0981 3.81669 14.001 3 12.75 3C11.499 3 10.4019 3.81669 10.0353 5H15.4647Z" fill="black"/>
</svg>
