<svg width="25" height="24" viewBox="0 0 25 24" fill="none" xmlns="http://www.w3.org/2000/svg">
<path d="M12.25 7C12.25 7.55228 11.8023 8 11.25 8H10.25C9.69772 8 9.25 7.55228 9.25 7C9.25 6.44772 9.69772 6 10.25 6H11.25C11.8023 6 12.25 6.44772 12.25 7Z" fill="black"/>
<path d="M15.25 11C15.8023 11 16.25 10.5523 16.25 10C16.25 9.44772 15.8023 9 15.25 9H14.25C13.6977 9 13.25 9.44772 13.25 10C13.25 10.5523 13.6977 11 14.25 11H15.25Z" fill="black"/>
<path d="M12.25 13C12.25 13.5523 11.8023 14 11.25 14H10.25C9.69772 14 9.25 13.5523 9.25 13C9.25 12.4477 9.69772 12 10.25 12H11.25C11.8023 12 12.25 12.4477 12.25 13Z" fill="black"/>
<path d="M15.25 8C15.8023 8 16.25 7.55228 16.25 7C16.25 6.44772 15.8023 6 15.25 6H14.25C13.6977 6 13.25 6.44772 13.25 7C13.25 7.55228 13.6977 8 14.25 8H15.25Z" fill="black"/>
<path d="M12.25 10C12.25 10.5523 11.8023 11 11.25 11H10.25C9.69772 11 9.25 10.5523 9.25 10C9.25 9.44772 9.69772 9 10.25 9H11.25C11.8023 9 12.25 9.44772 12.25 10Z" fill="black"/>
<path d="M15.25 14C15.8023 14 16.25 13.5523 16.25 13C16.25 12.4477 15.8023 12 15.25 12H14.25C13.6977 12 13.25 12.4477 13.25 13C13.25 13.5523 13.6977 14 14.25 14H15.25Z" fill="black"/>
<path d="M12.25 16C12.25 16.5523 11.8023 17 11.25 17H10.25C9.69772 17 9.25 16.5523 9.25 16C9.25 15.4477 9.69772 15 10.25 15H11.25C11.8023 15 12.25 15.4477 12.25 16Z" fill="black"/>
<path d="M15.25 17C15.8023 17 16.25 16.5523 16.25 16C16.25 15.4477 15.8023 15 15.25 15H14.25C13.6977 15 13.25 15.4477 13.25 16C13.25 16.5523 13.6977 17 14.25 17H15.25Z" fill="black"/>
<path fill-rule="evenodd" clip-rule="evenodd" d="M6.75 5C6.75 3.89543 7.64543 3 8.75 3H16.75C17.8546 3 18.75 3.89543 18.75 5V19H20.75C21.3023 19 21.75 19.4477 21.75 20C21.75 20.5523 21.3023 21 20.75 21H4.75C4.19772 21 3.75 20.5523 3.75 20C3.75 19.4477 4.19772 19 4.75 19H6.75V5ZM8.75 19H16.75V5H8.75V19Z" fill="black"/>
</svg>
