<svg width="25" height="24" viewBox="0 0 25 24" fill="none" xmlns="http://www.w3.org/2000/svg">
<path d="M16.75 14C16.75 14.5523 16.3023 15 15.75 15H14.75C14.1977 15 13.75 14.5523 13.75 14C13.75 13.4477 14.1977 13 14.75 13H15.75C16.3023 13 16.75 13.4477 16.75 14Z" fill="black"/>
<path d="M15.75 12C16.3023 12 16.75 11.5523 16.75 11C16.75 10.4477 16.3023 10 15.75 10H14.75C14.1977 10 13.75 10.4477 13.75 11C13.75 11.5523 14.1977 12 14.75 12H15.75Z" fill="black"/>
<path d="M11.75 14C11.75 14.5523 11.3023 15 10.75 15H9.75C9.19772 15 8.75 14.5523 8.75 14C8.75 13.4477 9.19772 13 9.75 13H10.75C11.3023 13 11.75 13.4477 11.75 14Z" fill="black"/>
<path d="M10.75 12C11.3023 12 11.75 11.5523 11.75 11C11.75 10.4477 11.3023 10 10.75 10H9.75C9.19772 10 8.75 10.4477 8.75 11C8.75 11.5523 9.19772 12 9.75 12H10.75Z" fill="black"/>
<path fill-rule="evenodd" clip-rule="evenodd" d="M13.7282 4.39948C13.1167 4.05974 12.372 4.06422 11.7646 4.41131L5.75772 7.84383C5.13457 8.19992 4.75 8.8626 4.75 9.58032V19C4.19772 19 3.75 19.4477 3.75 20C3.75 20.5523 4.19772 21 4.75 21H20.75C21.3023 21 21.75 20.5523 21.75 20C21.75 19.4477 21.3023 19 20.75 19V9.56619C20.75 8.86366 20.3814 8.21265 19.779 7.8512L18.25 6.93381V6C18.25 5.44771 17.8023 5 17.25 5C16.7625 5 16.3565 5.3488 16.2679 5.81045L13.7282 4.39948ZM13.75 19V17C13.75 16.4477 13.3023 16 12.75 16C12.1977 16 11.75 16.4477 11.75 17V19H6.75V9.58032L12.7569 6.1478L16.7498 8.36606L18.75 9.56619V19H13.75Z" fill="black"/>
</svg>
