<svg width="25" height="24" viewBox="0 0 25 24" fill="none" xmlns="http://www.w3.org/2000/svg">
<path d="M10.25 7C10.25 7.55228 9.80229 8 9.25 8H8.25C7.69772 8 7.25 7.55228 7.25 7C7.25 6.44772 7.69772 6 8.25 6H9.25C9.80229 6 10.25 6.44772 10.25 7Z" fill="black"/>
<path d="M13.25 11C13.8023 11 14.25 10.5523 14.25 10C14.25 9.44772 13.8023 9 13.25 9H12.25C11.6977 9 11.25 9.44772 11.25 10C11.25 10.5523 11.6977 11 12.25 11H13.25Z" fill="black"/>
<path d="M10.25 13C10.25 13.5523 9.80229 14 9.25 14H8.25C7.69772 14 7.25 13.5523 7.25 13C7.25 12.4477 7.69772 12 8.25 12H9.25C9.80229 12 10.25 12.4477 10.25 13Z" fill="black"/>
<path d="M13.25 8C13.8023 8 14.25 7.55228 14.25 7C14.25 6.44772 13.8023 6 13.25 6H12.25C11.6977 6 11.25 6.44772 11.25 7C11.25 7.55228 11.6977 8 12.25 8H13.25Z" fill="black"/>
<path d="M10.25 10C10.25 10.5523 9.80229 11 9.25 11H8.25C7.69772 11 7.25 10.5523 7.25 10C7.25 9.44772 7.69772 9 8.25 9H9.25C9.80229 9 10.25 9.44772 10.25 10Z" fill="black"/>
<path d="M13.25 14C13.8023 14 14.25 13.5523 14.25 13C14.25 12.4477 13.8023 12 13.25 12H12.25C11.6977 12 11.25 12.4477 11.25 13C11.25 13.5523 11.6977 14 12.25 14H13.25Z" fill="black"/>
<path d="M10.25 16C10.25 16.5523 9.80229 17 9.25 17H8.25C7.69772 17 7.25 16.5523 7.25 16C7.25 15.4477 7.69772 15 8.25 15H9.25C9.80229 15 10.25 15.4477 10.25 16Z" fill="black"/>
<path d="M13.25 17C13.8023 17 14.25 16.5523 14.25 16C14.25 15.4477 13.8023 15 13.25 15H12.25C11.6977 15 11.25 15.4477 11.25 16C11.25 16.5523 11.6977 17 12.25 17H13.25Z" fill="black"/>
<path fill-rule="evenodd" clip-rule="evenodd" d="M4.75 5C4.75 3.89543 5.64543 3 6.75 3H14.75C15.8546 3 16.75 3.89543 16.75 5V9H19.75C20.8546 9 21.75 9.89543 21.75 11V19H22.75C23.3023 19 23.75 19.4477 23.75 20C23.75 20.5523 23.3023 21 22.75 21H2.75C2.19772 21 1.75 20.5523 1.75 20C1.75 19.4477 2.19772 19 2.75 19H4.75V5ZM6.75 19H14.75V5H6.75V19ZM19.75 15V14H19.25C18.6977 14 18.25 13.5523 18.25 13C18.25 12.4477 18.6977 12 19.25 12H19.75V11H16.75V19H19.75V17H19.25C18.6977 17 18.25 16.5523 18.25 16C18.25 15.4477 18.6977 15 19.25 15H19.75Z" fill="black"/>
</svg>
