<svg width="25" height="24" viewBox="0 0 25 24" fill="none" xmlns="http://www.w3.org/2000/svg">
<path d="M15.75 11C16.3023 11 16.75 10.5523 16.75 10C16.75 9.44773 16.3023 9.00001 15.75 9.00001H14.75C14.1977 9.00001 13.75 9.44773 13.75 10C13.75 10.5523 14.1977 11 14.75 11H15.75Z" fill="black"/>
<path d="M11.75 13C11.75 13.5523 11.3023 14 10.75 14H9.75C9.19772 14 8.75 13.5523 8.75 13C8.75 12.4477 9.19772 12 9.75 12H10.75C11.3023 12 11.75 12.4477 11.75 13Z" fill="black"/>
<path d="M10.75 11C11.3023 11 11.75 10.5523 11.75 10C11.75 9.44773 11.3023 9.00001 10.75 9.00001H9.75C9.19772 9.00001 8.75 9.44773 8.75 10C8.75 10.5523 9.19772 11 9.75 11H10.75Z" fill="black"/>
<path d="M16.75 13C16.75 13.5523 16.3023 14 15.75 14H14.75C14.1977 14 13.75 13.5523 13.75 13C13.75 12.4477 14.1977 12 14.75 12H15.75C16.3023 12 16.75 12.4477 16.75 13Z" fill="black"/>
<path d="M10.75 17C11.3023 17 11.75 16.5523 11.75 16C11.75 15.4477 11.3023 15 10.75 15H9.75C9.19772 15 8.75 15.4477 8.75 16C8.75 16.5523 9.19772 17 9.75 17H10.75Z" fill="black"/>
<path d="M16.75 16C16.75 16.5523 16.3023 17 15.75 17H14.75C14.1977 17 13.75 16.5523 13.75 16C13.75 15.4477 14.1977 15 14.75 15H15.75C16.3023 15 16.75 15.4477 16.75 16Z" fill="black"/>
<path fill-rule="evenodd" clip-rule="evenodd" d="M13.7423 4.41528C13.1274 4.06393 12.3726 4.06393 11.7577 4.41528L5.75772 7.84385C5.13457 8.19993 4.75 8.86262 4.75 9.58034V19H3.25C2.69772 19 2.25 19.4477 2.25 20C2.25 20.5523 2.69772 21 3.25 21H22.25C22.8023 21 23.25 20.5523 23.25 20C23.25 19.4477 22.8023 19 22.25 19H20.75V9.58034C20.75 8.86262 20.3654 8.19993 19.7423 7.84385L13.7423 4.41528ZM13.75 19V18C13.75 17.4477 13.3023 17 12.75 17C12.1977 17 11.75 17.4477 11.75 18V19H6.75V9.58034L12.75 6.15176L18.75 9.58034V19H13.75Z" fill="black"/>
</svg>
