<svg width="25" height="24" viewBox="0 0 25 24" fill="none" xmlns="http://www.w3.org/2000/svg">
<path fill-rule="evenodd" clip-rule="evenodd" d="M7.75 5C7.75 3.89543 8.64543 3 9.75 3H15.75C16.8546 3 17.75 3.89543 17.75 5V19H20.75C21.3023 19 21.75 19.4477 21.75 20C21.75 20.5523 21.3023 21 20.75 21H4.75C4.19772 21 3.75 20.5523 3.75 20C3.75 19.4477 4.19772 19 4.75 19H7.75V5ZM15.75 15H13.75C13.1977 15 12.75 15.4477 12.75 16C12.75 16.5523 13.1977 17 13.75 17H15.75V19H9.75V17H10.75C11.3023 17 11.75 16.5523 11.75 16C11.75 15.4477 11.3023 15 10.75 15H9.75V14H11.75C12.3023 14 12.75 13.5523 12.75 13C12.75 12.4477 12.3023 12 11.75 12H9.75V11H10.75C11.3023 11 11.75 10.5523 11.75 10C11.75 9.44772 11.3023 9 10.75 9H9.75V8H11.75C12.3023 8 12.75 7.55228 12.75 7C12.75 6.44772 12.3023 6 11.75 6H9.75V5H15.75V6H14.75C14.1977 6 13.75 6.44772 13.75 7C13.75 7.55228 14.1977 8 14.75 8H15.75V9H13.75C13.1977 9 12.75 9.44772 12.75 10C12.75 10.5523 13.1977 11 13.75 11H15.75V12H14.75C14.1977 12 13.75 12.4477 13.75 13C13.75 13.5523 14.1977 14 14.75 14H15.75V15Z" fill="black"/>
</svg>
