<svg width="25" height="24" viewBox="0 0 25 24" fill="none" xmlns="http://www.w3.org/2000/svg">
<path d="M12.25 2C14.2375 2 16.0445 2.77311 17.3866 4.03501L15.9714 5.45015C14.9921 4.54974 13.6852 4 12.25 4C9.21243 4 6.75 6.46243 6.75 9.5C6.75 10.9345 7.29913 12.2416 8.20003 13.2215L6.78512 14.6364C5.52375 13.2949 4.75 11.4882 4.75 9.5C4.75 5.35786 8.10786 2 12.25 2Z" fill="black"/>
<path d="M17.7475 9.33097L19.5012 7.57719C19.6635 8.19084 19.75 8.83532 19.75 9.5C19.75 12.2622 18.2566 14.674 16.0371 15.9748L15.2938 18.9479C15.1392 19.5662 14.5837 20 13.9463 20C13.8083 20 13.6674 20.0127 13.5124 20.0348C13.9374 20.1501 14.25 20.5385 14.25 21C14.25 21.5523 13.8023 22 13.25 22H11.25C10.6977 22 10.25 21.5523 10.25 21C10.25 20.5385 10.5626 20.1501 10.9876 20.0348C10.8326 20.0127 10.6917 20 10.5537 20C9.91633 20 9.36078 19.5662 9.20621 18.9479L8.99106 18.0874L10.6403 16.4381L11.0374 18.0263C11.348 18.0584 11.6373 18.114 11.8814 18.161L11.9145 18.1674C11.9798 18.1799 12.042 18.1918 12.1038 18.2034C12.1856 18.2187 12.2335 18.222 12.25 18.222C12.2665 18.222 12.3144 18.2187 12.3962 18.2034C12.458 18.1918 12.5202 18.1799 12.5855 18.1674L12.6186 18.161C12.8627 18.114 13.152 18.0584 13.4626 18.0263L14.2031 15.0646C14.2736 14.7826 14.4633 14.5452 14.7229 14.4143C16.5206 13.5076 17.75 11.6465 17.75 9.5C17.75 9.44345 17.7491 9.38711 17.7475 9.33097Z" fill="black"/>
<path d="M20.9571 3.29289C21.3476 3.68342 21.3476 4.31658 20.9571 4.70711L6.45711 19.2071C6.06658 19.5976 5.43342 19.5976 5.04289 19.2071C4.65237 18.8166 4.65237 18.1834 5.04289 17.7929L19.5429 3.29289C19.9334 2.90237 20.5666 2.90237 20.9571 3.29289Z" fill="black"/>
</svg>
