<svg width="25" height="24" viewBox="0 0 25 24" fill="none" xmlns="http://www.w3.org/2000/svg">
<path d="M13.4417 7.28995C13.7866 7.63203 13.8302 8.1631 13.571 8.5529C13.8251 8.63905 14.0388 8.82562 14.1561 9.07695C14.3204 9.42894 14.2661 9.84425 14.0167 10.1421L12.7604 11.6421C12.4058 12.0655 11.7751 12.1213 11.3517 11.7667C10.9714 11.4481 10.8877 10.9067 11.1316 10.493C10.7764 10.4508 10.4668 10.2204 10.3269 9.88461C10.1717 9.51196 10.2557 9.08249 10.54 8.79585L12.0275 7.29585C12.4164 6.9037 13.0496 6.90106 13.4417 7.28995Z" fill="black"/>
<path fill-rule="evenodd" clip-rule="evenodd" d="M4.75 9.5C4.75 5.35786 8.10786 2 12.25 2C16.3921 2 19.75 5.35786 19.75 9.5C19.75 12.2622 18.2566 14.674 16.0371 15.9748L15.2938 18.9479C15.1392 19.5662 14.5837 20 13.9463 20C13.8083 20 13.6674 20.0127 13.5124 20.0348C13.9374 20.1501 14.25 20.5385 14.25 21C14.25 21.5523 13.8023 22 13.25 22H11.25C10.6977 22 10.25 21.5523 10.25 21C10.25 20.5385 10.5626 20.1501 10.9876 20.0348C10.8326 20.0127 10.6917 20 10.5537 20C9.91633 20 9.36078 19.5662 9.20621 18.9479L8.46293 15.9748C6.24338 14.674 4.75 12.2622 4.75 9.5ZM12.25 4C9.21243 4 6.75 6.46243 6.75 9.5C6.75 11.6465 7.97943 13.5076 9.77712 14.4143C10.0367 14.5452 10.2264 14.7826 10.2969 15.0646L11.0374 18.0263C11.348 18.0584 11.6373 18.114 11.8814 18.161L11.9145 18.1674C11.9798 18.1799 12.042 18.1918 12.1038 18.2034C12.1856 18.2187 12.2335 18.222 12.25 18.222C12.2665 18.222 12.3144 18.2187 12.3962 18.2034C12.458 18.1918 12.5202 18.1799 12.5855 18.1674L12.6186 18.161C12.8627 18.114 13.152 18.0584 13.4626 18.0263L14.2031 15.0646C14.2736 14.7826 14.4633 14.5452 14.7229 14.4143C16.5206 13.5076 17.75 11.6465 17.75 9.5C17.75 6.46243 15.2876 4 12.25 4Z" fill="black"/>
</svg>
