<svg width="25" height="24" viewBox="0 0 25 24" fill="none" xmlns="http://www.w3.org/2000/svg">
<path fill-rule="evenodd" clip-rule="evenodd" d="M7.25 4C6.69772 4 6.25 4.44772 6.25 5V15C6.25 15.5523 6.69772 16 7.25 16H17.25C17.8023 16 18.25 15.5523 18.25 15V5C18.25 4.44772 17.8023 4 17.25 4H7.25ZM8.25 14V6H16.25V14H8.25Z" fill="black"/>
<path fill-rule="evenodd" clip-rule="evenodd" d="M6.25 1C4.59315 1 3.25 2.34315 3.25 4V12.6337C2.86757 12.4126 2.37008 12.4657 2.04289 12.7929C1.65237 13.1834 1.65237 13.8166 2.04289 14.2071L3.25 15.4142V18C3.25 19.3062 4.08481 20.4175 5.25 20.8293V21C5.25 22.1046 6.14543 23 7.25 23H8.25C9.35457 23 10.25 22.1046 10.25 21H14.25C14.25 22.1046 15.1454 23 16.25 23H17.25C18.3546 23 19.25 22.1046 19.25 21V20.8293C20.4152 20.4175 21.25 19.3062 21.25 18V15.4142L22.4571 14.2071C22.8476 13.8166 22.8476 13.1834 22.4571 12.7929C22.1299 12.4657 21.6324 12.4126 21.25 12.6337V4C21.25 2.34315 19.9069 1 18.25 1H6.25ZM5.25 4C5.25 3.44772 5.69772 3 6.25 3H18.25C18.8023 3 19.25 3.44772 19.25 4V18C19.25 18.5523 18.8023 19 18.25 19H6.25C5.69772 19 5.25 18.5523 5.25 18V4Z" fill="black"/>
</svg>
