<svg width="25" height="24" viewBox="0 0 25 24" fill="none" xmlns="http://www.w3.org/2000/svg">
<path fill-rule="evenodd" clip-rule="evenodd" d="M8.25 1C8.80228 1 9.25 1.44772 9.25 2V3H15.25V2C15.25 1.44772 15.6977 1 16.25 1C16.8023 1 17.25 1.44772 17.25 2V3H18.25C20.4591 3 22.25 4.79086 22.25 7V18C22.25 20.2091 20.4591 22 18.25 22H6.25C4.04086 22 2.25 20.2091 2.25 18V7C2.25 4.79086 4.04086 3 6.25 3H7.25V2C7.25 1.44772 7.69772 1 8.25 1ZM15.25 5C15.25 5.55228 15.6977 6 16.25 6C16.8023 6 17.25 5.55228 17.25 5H18.25C19.3546 5 20.25 5.89543 20.25 7V7.5H4.25V7C4.25 5.89543 5.14543 5 6.25 5H7.25C7.25 5.55228 7.69772 6 8.25 6C8.80228 6 9.25 5.55228 9.25 5H15.25ZM20.25 9.5H4.25V18C4.25 19.1046 5.14543 20 6.25 20H18.25C19.3546 20 20.25 19.1046 20.25 18V9.5Z" fill="black"/>
</svg>
