<svg width="25" height="24" viewBox="0 0 25 24" fill="none" xmlns="http://www.w3.org/2000/svg">
<path fill-rule="evenodd" clip-rule="evenodd" d="M9.25 2C9.25 1.44772 8.80228 1 8.25 1C7.69772 1 7.25 1.44772 7.25 2V3H6.25C4.04086 3 2.25 4.79086 2.25 7V18C2.25 20.2091 4.04086 22 6.25 22H15.25C15.8023 22 16.25 21.5523 16.25 21C16.25 20.4477 15.8023 20 15.25 20H6.25C5.14543 20 4.25 19.1046 4.25 18V9.5H20.25V15.5C20.25 16.0523 20.6977 16.5 21.25 16.5C21.8023 16.5 22.25 16.0523 22.25 15.5V7C22.25 4.79086 20.4591 3 18.25 3H17.25V2C17.25 1.44772 16.8023 1 16.25 1C15.6977 1 15.25 1.44772 15.25 2V3H9.25V2ZM16.25 6C15.6977 6 15.25 5.55228 15.25 5H9.25C9.25 5.55228 8.80228 6 8.25 6C7.69772 6 7.25 5.55228 7.25 5H6.25C5.14543 5 4.25 5.89543 4.25 7V7.5H20.25V7C20.25 5.89543 19.3546 5 18.25 5H17.25C17.25 5.55228 16.8023 6 16.25 6Z" fill="black"/>
<path d="M22.1997 19.1213C22.5902 18.7308 22.5902 18.0976 22.1997 17.7071C21.8092 17.3166 21.176 17.3166 20.7855 17.7071L20.0784 18.4142L19.3713 17.7071C18.9807 17.3166 18.3476 17.3166 17.957 17.7071C17.5665 18.0976 17.5665 18.7308 17.957 19.1213L18.6642 19.8284L17.957 20.5355C17.5665 20.9261 17.5665 21.5592 17.957 21.9497C18.3476 22.3403 18.9807 22.3403 19.3713 21.9497L20.0784 21.2426L20.7855 21.9497C21.176 22.3403 21.8092 22.3403 22.1997 21.9497C22.5902 21.5592 22.5902 20.9261 22.1997 20.5355L21.4926 19.8284L22.1997 19.1213Z" fill="black"/>
</svg>
