<svg width="25" height="24" viewBox="0 0 25 24" fill="none" xmlns="http://www.w3.org/2000/svg">
<path d="M5.25 17.5C5.25 16.9477 5.69772 16.5 6.25 16.5H13.25C13.8023 16.5 14.25 16.9477 14.25 17.5C14.25 18.0523 13.8023 18.5 13.25 18.5H6.25C5.69772 18.5 5.25 18.0523 5.25 17.5Z" fill="black"/>
<path d="M16.25 16.5C15.6977 16.5 15.25 16.9477 15.25 17.5C15.25 18.0523 15.6977 18.5 16.25 18.5H18.25C18.8023 18.5 19.25 18.0523 19.25 17.5C19.25 16.9477 18.8023 16.5 18.25 16.5H16.25Z" fill="black"/>
<path fill-rule="evenodd" clip-rule="evenodd" d="M8.25 1.5C8.80228 1.5 9.25 1.94772 9.25 2.5V3.5H15.25V2.5C15.25 1.94772 15.6977 1.5 16.25 1.5C16.8023 1.5 17.25 1.94772 17.25 2.5V3.5H18.25C20.4591 3.5 22.25 5.29086 22.25 7.5V18.5C22.25 20.7091 20.4591 22.5 18.25 22.5H6.25C4.04086 22.5 2.25 20.7091 2.25 18.5V7.5C2.25 5.29086 4.04086 3.5 6.25 3.5H7.25V2.5C7.25 1.94772 7.69772 1.5 8.25 1.5ZM15.25 5.5C15.25 6.05228 15.6977 6.5 16.25 6.5C16.8023 6.5 17.25 6.05228 17.25 5.5H18.25C19.3546 5.5 20.25 6.39543 20.25 7.5V8H4.25V7.5C4.25 6.39543 5.14543 5.5 6.25 5.5H7.25C7.25 6.05228 7.69772 6.5 8.25 6.5C8.80228 6.5 9.25 6.05228 9.25 5.5H15.25ZM20.25 10H4.25V18.5C4.25 19.6046 5.14543 20.5 6.25 20.5H18.25C19.3546 20.5 20.25 19.6046 20.25 18.5V10Z" fill="black"/>
</svg>
