<svg width="25" height="24" viewBox="0 0 25 24" fill="none" xmlns="http://www.w3.org/2000/svg">
<path fill-rule="evenodd" clip-rule="evenodd" d="M9.25 2C9.25 1.44772 8.80228 1 8.25 1C7.69772 1 7.25 1.44772 7.25 2V3H6.25C4.04086 3 2.25 4.79086 2.25 7V18C2.25 20.2091 4.04086 22 6.25 22H15.25C15.8023 22 16.25 21.5523 16.25 21C16.25 20.4477 15.8023 20 15.25 20H6.25C5.14543 20 4.25 19.1046 4.25 18V9.5H20.25V15C20.25 15.5523 20.6977 16 21.25 16C21.8023 16 22.25 15.5523 22.25 15V7C22.25 4.79086 20.4591 3 18.25 3H17.25V2C17.25 1.44772 16.8023 1 16.25 1C15.6977 1 15.25 1.44772 15.25 2V3H9.25V2ZM16.25 6C15.6977 6 15.25 5.55228 15.25 5H9.25C9.25 5.55228 8.80228 6 8.25 6C7.69772 6 7.25 5.55228 7.25 5H6.25C5.14543 5 4.25 5.89543 4.25 7V7.5H20.25V7C20.25 5.89543 19.3546 5 18.25 5H17.25C17.25 5.55228 16.8023 6 16.25 6Z" fill="black"/>
<path d="M21.25 18C21.25 17.4477 20.8023 17 20.25 17C19.6977 17 19.25 17.4477 19.25 18V19H18.25C17.6977 19 17.25 19.4477 17.25 20C17.25 20.5523 17.6977 21 18.25 21H19.25V22C19.25 22.5523 19.6977 23 20.25 23C20.8023 23 21.25 22.5523 21.25 22V21H22.25C22.8023 21 23.25 20.5523 23.25 20C23.25 19.4477 22.8023 19 22.25 19H21.25V18Z" fill="black"/>
</svg>
