<svg width="25" height="24" viewBox="0 0 25 24" fill="none" xmlns="http://www.w3.org/2000/svg">
<path fill-rule="evenodd" clip-rule="evenodd" d="M4.43206 3.34322C3.69369 4.08158 3.18866 5.18806 3.47673 6.38665C3.91834 8.22417 5.24723 11.5726 9.21023 15.5356C13.1732 19.4986 16.5217 20.8275 18.3592 21.2691C19.5578 21.5572 20.6643 21.0521 21.4026 20.3138L21.9382 19.7782C23.5003 18.2161 23.5003 15.6835 21.9382 14.1214L21.0093 13.1925C19.736 11.9193 17.7689 11.6537 16.2036 12.5438L16.1071 12.5987C15.4657 12.9634 14.7288 12.9336 14.2068 12.5558C13.7855 12.2509 13.3829 11.9301 13.0993 11.6465C12.8157 11.3629 12.4949 10.9603 12.19 10.5391C11.8122 10.017 11.7824 9.28016 12.1472 8.63873L12.2021 8.5422C13.0921 6.9769 12.8266 5.00982 11.5533 3.73656L10.6244 2.80768C9.06235 1.24558 6.52969 1.24559 4.96759 2.80768L4.43206 3.34322ZM5.42135 5.9193C5.33756 5.57066 5.45942 5.14428 5.84627 4.75743L6.38181 4.2219C7.16286 3.44085 8.42918 3.44085 9.21023 4.22189L10.1391 5.15077C10.7757 5.7874 10.9085 6.77094 10.4635 7.55359L10.4086 7.65012C9.70368 8.88978 9.67895 10.4807 10.5698 11.7116C10.8971 12.1638 11.2903 12.6659 11.6851 13.0607C12.0799 13.4555 12.582 13.8488 13.0342 14.176C14.2652 15.0669 15.8561 15.0422 17.0957 14.3373L17.1922 14.2824C17.9749 13.8373 18.9584 13.9701 19.5951 14.6067L20.5239 15.5356C21.305 16.3167 21.305 17.583 20.5239 18.364L19.9884 18.8996C19.6016 19.2864 19.1752 19.4083 18.8265 19.3245C17.3575 18.9714 14.3341 17.8311 10.6244 14.1214C6.91477 10.4117 5.77441 7.38834 5.42135 5.9193Z" fill="black"/>
<path d="M18.7491 5.00003C18.7491 4.44775 18.3014 4.00003 17.7491 4.00003C17.1968 4.00003 16.7491 4.44775 16.7491 5.00003V6.00003H15.7491C15.1968 6.00003 14.7491 6.44775 14.7491 7.00003C14.7491 7.55232 15.1968 8.00003 15.7491 8.00003H16.7491V9.00003C16.7491 9.55232 17.1968 10 17.7491 10C18.3014 10 18.7491 9.55232 18.7491 9.00003V8.00003H19.7491C20.3014 8.00003 20.7491 7.55232 20.7491 7.00003C20.7491 6.44775 20.3014 6.00003 19.7491 6.00003H18.7491V5.00003Z" fill="black"/>
</svg>
