<svg width="25" height="24" viewBox="0 0 25 24" fill="none" xmlns="http://www.w3.org/2000/svg">
<path fill-rule="evenodd" clip-rule="evenodd" d="M3.47673 6.38665C3.18866 5.18806 3.69369 4.08158 4.43206 3.34322L4.96759 2.80768C6.52969 1.24559 9.06235 1.24558 10.6244 2.80768L11.5533 3.73656C12.8266 5.00982 13.0921 6.9769 12.2021 8.5422L12.1472 8.63873C11.7824 9.28016 11.8122 10.017 12.19 10.5391C12.4949 10.9603 12.8157 11.3629 13.0993 11.6465C13.3829 11.9301 13.7855 12.2509 14.2068 12.5558C14.7288 12.9336 15.4657 12.9634 16.1071 12.5987L16.2036 12.5438C17.7689 11.6537 19.736 11.9193 21.0093 13.1925L21.9382 14.1214C23.5003 15.6835 23.5003 18.2161 21.9382 19.7782L21.4026 20.3138C20.6643 21.0521 19.5578 21.5572 18.3592 21.2691C16.5217 20.8275 13.1732 19.4986 9.21023 15.5356C5.24723 11.5726 3.91834 8.22417 3.47673 6.38665ZM5.84627 4.75743C5.45942 5.14428 5.33756 5.57066 5.42135 5.9193C5.77441 7.38834 6.91477 10.4117 10.6244 14.1214C14.3341 17.8311 17.3575 18.9714 18.8265 19.3245C19.1752 19.4083 19.6016 19.2864 19.9884 18.8996L20.5239 18.364C21.305 17.583 21.305 16.3167 20.5239 15.5356L19.5951 14.6067C18.9584 13.9701 17.9749 13.8373 17.1922 14.2824L17.0957 14.3373C15.8561 15.0422 14.2652 15.0669 13.0342 14.176C12.582 13.8488 12.0799 13.4555 11.6851 13.0607C11.2903 12.6659 10.8971 12.1638 10.5698 11.7116C9.67895 10.4807 9.70368 8.88978 10.4086 7.65012L10.4635 7.55359C10.9085 6.77094 10.7757 5.7874 10.1391 5.15077L9.21023 4.22189C8.42918 3.44085 7.16286 3.44085 6.38181 4.2219L5.84627 4.75743Z" fill="black"/>
<path d="M18.7588 3.00636C19.3731 3.269 19.9326 3.64799 20.406 4.12135C20.8794 4.59471 21.2583 5.1542 21.521 5.76857C21.7836 6.38299 21.9252 7.04127 21.9359 7.70634C21.9467 8.37151 21.8263 9.03056 21.5799 9.64531C21.4921 9.86434 21.389 10.0761 21.2714 10.2792C20.9947 10.7572 20.3829 10.9203 19.905 10.6436C19.427 10.3669 19.2639 9.75513 19.5406 9.27717C19.6101 9.15703 19.6713 9.03148 19.7234 8.90132C19.8698 8.53615 19.9427 8.14124 19.9362 7.73861C19.9297 7.33588 19.8439 6.93342 19.682 6.55473C19.5201 6.17599 19.2856 5.82943 18.9918 5.53556C18.6979 5.2417 18.3514 5.00728 17.9726 4.84537C17.5939 4.68349 17.1915 4.59766 16.7887 4.59116C16.3861 4.58467 15.9912 4.65756 15.626 4.8039C15.4959 4.85606 15.3703 4.91722 15.2502 4.98678C14.7722 5.26349 14.1604 5.10035 13.8837 4.62239C13.607 4.14443 13.7701 3.53264 14.2481 3.25592C14.4512 3.13834 14.663 3.03521 14.882 2.94743C15.4968 2.70106 16.1558 2.58069 16.821 2.59142C17.4861 2.60215 18.1444 2.74371 18.7588 3.00636Z" fill="black"/>
<path d="M18.3704 6.20714C18.071 5.90774 17.7084 5.68506 17.309 5.54841C16.9105 5.41205 16.488 5.36541 16.0685 5.40062C15.6493 5.43579 15.2384 5.55207 14.8569 5.73574C14.6377 5.84126 14.4293 5.96847 14.2349 6.11424C13.7931 6.44561 13.7035 7.07242 14.0349 7.51424C14.3663 7.95607 14.9931 8.04561 15.4349 7.71424C15.5273 7.64491 15.6246 7.58582 15.7244 7.5378C15.8988 7.45383 16.0733 7.40724 16.2357 7.39361C16.3977 7.38002 16.5414 7.39959 16.6615 7.44069C16.7808 7.4815 16.8789 7.54405 16.9562 7.62135C17.0335 7.69865 17.0961 7.7968 17.1369 7.91606C17.178 8.03617 17.1976 8.17984 17.184 8.34186C17.1703 8.50423 17.1237 8.67878 17.0398 8.85321C16.9918 8.95296 16.9327 9.05023 16.8633 9.14267C16.532 9.5845 16.6215 10.2113 17.0633 10.5427C17.5052 10.874 18.132 10.7845 18.4633 10.3427C18.6091 10.1483 18.7363 9.93992 18.8418 9.72072C19.0255 9.3392 19.1418 8.92828 19.177 8.50911C19.2122 8.08959 19.1655 7.66703 19.0292 7.26854C18.8925 6.8692 18.6698 6.50654 18.3704 6.20714Z" fill="black"/>
</svg>
