<svg width="25" height="24" viewBox="0 0 25 24" fill="none" xmlns="http://www.w3.org/2000/svg">
<path fill-rule="evenodd" clip-rule="evenodd" d="M10.6244 2.80756C9.06235 1.24546 6.52969 1.24546 4.96759 2.80756L4.43206 3.34309C3.69369 4.08146 3.18866 5.18793 3.47673 6.38653C3.91834 8.22404 5.24723 11.5725 9.21023 15.5355C13.1732 19.4985 16.5217 20.8274 18.3592 21.269C19.5578 21.5571 20.6643 21.052 21.4026 20.3137L21.9382 19.7781C23.5003 18.216 23.5003 15.6834 21.9382 14.1213L21.0093 13.1924C19.736 11.9191 17.7689 11.6536 16.2036 12.5437L16.1071 12.5985C15.4657 12.9633 14.7288 12.9335 14.2068 12.5557C13.7855 12.2508 13.3829 11.93 13.0993 11.6464C12.8157 11.3628 12.4949 10.9602 12.19 10.539C11.8122 10.0169 11.7824 9.28004 12.1472 8.63861L12.2021 8.54207C13.0921 6.97677 12.8266 5.0097 11.5533 3.73644L10.6244 2.80756ZM6.38181 4.22177C7.16286 3.44072 8.42918 3.44072 9.21023 4.22177L10.1391 5.15065C10.7757 5.78728 10.9085 6.77082 10.4635 7.55347L10.4086 7.65C9.70368 8.88966 9.67895 10.4805 10.5698 11.7115C10.8971 12.1637 11.2903 12.6658 11.6851 13.0606C12.0799 13.4554 12.582 13.8487 13.0342 14.1759C14.2652 15.0668 15.8561 15.042 17.0957 14.3371L17.1922 14.2822C17.9749 13.8372 18.9584 13.97 19.5951 14.6066L20.5239 15.5355C21.305 16.3165 21.305 17.5829 20.5239 18.3639L19.9884 18.8994C19.6016 19.2863 19.1752 19.4082 18.8265 19.3244C17.3575 18.9713 14.3341 17.8309 10.6244 14.1213C6.91478 10.4116 5.77441 7.38822 5.42135 5.91918C5.33756 5.57053 5.45942 5.14416 5.84627 4.75731L6.38181 4.22177Z" fill="black"/>
</svg>
