<svg width="25" height="24" viewBox="0 0 25 24" fill="none" xmlns="http://www.w3.org/2000/svg">
<path fill-rule="evenodd" clip-rule="evenodd" d="M4.43206 3.34322C3.69369 4.08158 3.18866 5.18806 3.47673 6.38665C3.91834 8.22417 5.24723 11.5726 9.21023 15.5356C13.1732 19.4986 16.5217 20.8275 18.3592 21.2691C19.5578 21.5572 20.6643 21.0521 21.4026 20.3138L21.9382 19.7782C23.5003 18.2161 23.5003 15.6835 21.9382 14.1214L21.0093 13.1925C19.736 11.9193 17.7689 11.6537 16.2036 12.5438L16.1071 12.5987C15.4657 12.9634 14.7288 12.9336 14.2068 12.5558C13.7855 12.2509 13.3829 11.9301 13.0993 11.6465C12.8157 11.3629 12.4949 10.9603 12.19 10.5391C11.8122 10.017 11.7824 9.28016 12.1472 8.63873L12.2021 8.5422C13.0921 6.9769 12.8266 5.00982 11.5533 3.73656L10.6244 2.80768C9.06235 1.24558 6.52969 1.24559 4.96759 2.80768L4.43206 3.34322ZM5.42135 5.9193C5.33756 5.57066 5.45942 5.14428 5.84627 4.75743L6.38181 4.2219C7.16286 3.44085 8.42918 3.44085 9.21023 4.22189L10.1391 5.15077C10.7757 5.7874 10.9085 6.77094 10.4635 7.55359L10.4086 7.65012C9.70368 8.88978 9.67895 10.4807 10.5698 11.7116C10.8971 12.1638 11.2903 12.6659 11.6851 13.0607C12.0799 13.4555 12.582 13.8488 13.0342 14.176C14.2652 15.0669 15.8561 15.0422 17.0957 14.3373L17.1922 14.2824C17.9749 13.8373 18.9584 13.9701 19.5951 14.6067L20.5239 15.5356C21.305 16.3167 21.305 17.583 20.5239 18.364L19.9884 18.8996C19.6016 19.2864 19.1752 19.4083 18.8265 19.3245C17.3575 18.9714 14.3341 17.8311 10.6244 14.1214C6.91477 10.4117 5.77441 7.38834 5.42135 5.9193Z" fill="black"/>
<path d="M14.486 9.32646C14.5158 9.83252 14.9195 10.2362 15.4255 10.266L17.429 10.3839C17.9803 10.4163 18.4536 9.99564 18.486 9.44431C18.5144 8.96199 18.196 8.53944 17.7467 8.4195L19.7269 6.43931C20.1174 6.04879 20.1174 5.41562 19.7269 5.0251C19.3364 4.63457 18.7032 4.63457 18.3127 5.0251L16.3325 7.00529C16.2126 6.55601 15.79 6.23762 15.3077 6.266C14.7564 6.29843 14.3357 6.77166 14.3681 7.32299L14.486 9.32646Z" fill="black"/>
</svg>
