<svg width="25" height="24" viewBox="0 0 25 24" fill="none" xmlns="http://www.w3.org/2000/svg">
<path d="M23.4571 1.29289C23.8476 1.68342 23.8476 2.31658 23.4571 2.70711L3.45711 22.7071C3.06658 23.0976 2.43342 23.0976 2.04289 22.7071C1.65237 22.3166 1.65237 21.6834 2.04289 21.2929L22.0429 1.29289C22.4334 0.902369 23.0666 0.902369 23.4571 1.29289Z" fill="black"/>
<path d="M12.75 8C13.1134 8 13.4678 8.03877 13.8092 8.1124L11.7513 10.1702C10.8978 10.4714 10.2214 11.1478 9.92023 12.0013L7.8624 14.0592C7.78877 13.7178 7.75 13.3634 7.75 13C7.75 10.2386 9.98858 8 12.75 8Z" fill="black"/>
<path d="M12.75 16C12.3991 16 12.0623 15.9398 11.7494 15.8291L10.2483 17.3301C10.9841 17.7561 11.8386 18 12.75 18C15.5114 18 17.75 15.7614 17.75 13C17.75 12.0886 17.5061 11.2341 17.0801 10.4983L15.5791 11.9994C15.6898 12.3123 15.75 12.6491 15.75 13C15.75 14.6569 14.4069 16 12.75 16Z" fill="black"/>
<path d="M18.2959 10.0415C18.1674 10.427 17.6451 10.4482 17.4731 10.1053L19.2088 8.36963C19.5518 8.54159 19.5305 9.06386 19.145 9.19236C18.7441 9.32599 18.4295 9.64058 18.2959 10.0415Z" fill="black"/>
<path d="M17.3358 3.67157L17.7929 4.12868L16.3787 5.54289L15.9216 5.08579C15.5465 4.71071 15.0378 4.5 14.5074 4.5H10.9926C10.4622 4.5 9.9535 4.71071 9.57843 5.08579L8.89252 5.77169C8.50948 6.15474 8.05262 6.45598 7.54966 6.65717L5.00722 7.67415C4.2479 7.97787 3.75 8.71329 3.75 9.5311V17.5C3.75 17.7034 3.78037 17.8998 3.83683 18.0847L2.33604 19.5855C1.96428 18.9783 1.75 18.2642 1.75 17.5V9.5311C1.75 7.89548 2.7458 6.42465 4.26444 5.81719L6.80688 4.80022C7.05836 4.69962 7.28679 4.549 7.47831 4.35748L8.16421 3.67157C8.91436 2.92143 9.93177 2.5 10.9926 2.5H14.5074C15.5682 2.5 16.5856 2.92143 17.3358 3.67157Z" fill="black"/>
<path d="M19.75 19.5H8.07843L6.07843 21.5H19.75C21.9591 21.5 23.75 19.7091 23.75 17.5V9.5311C23.75 8.02871 22.9098 6.66535 21.596 5.98244L20.0724 7.506L20.4928 7.67415C21.2521 7.97787 21.75 8.71329 21.75 9.5311V17.5C21.75 18.6046 20.8546 19.5 19.75 19.5Z" fill="black"/>
</svg>
