<svg width="25" height="24" viewBox="0 0 25 24" fill="none" xmlns="http://www.w3.org/2000/svg">
<path fill-rule="evenodd" clip-rule="evenodd" d="M7.75 13C7.75 10.2386 9.98858 8 12.75 8C15.5114 8 17.75 10.2386 17.75 13C17.75 15.7614 15.5114 18 12.75 18C9.98858 18 7.75 15.7614 7.75 13ZM12.75 10C11.0931 10 9.75 11.3431 9.75 13C9.75 14.6569 11.0931 16 12.75 16C14.4069 16 15.75 14.6569 15.75 13C15.75 11.3431 14.4069 10 12.75 10Z" fill="black"/>
<path d="M16.5977 9.19233C16.9986 9.32596 17.3131 9.64055 17.4468 10.0415C17.5828 10.4495 18.1599 10.4495 18.2959 10.0415C18.4295 9.64055 18.7441 9.32596 19.145 9.19233C19.553 9.05633 19.553 8.47921 19.145 8.34321C18.7441 8.20957 18.4295 7.89498 18.2959 7.49408C18.1599 7.08607 17.5828 7.08607 17.4468 7.49408C17.3131 7.89498 16.9986 8.20957 16.5977 8.34321C16.1896 8.47921 16.1896 9.05633 16.5977 9.19233Z" fill="black"/>
<path fill-rule="evenodd" clip-rule="evenodd" d="M8.16421 3.67157C8.91436 2.92143 9.93177 2.5 10.9926 2.5H14.5074C15.5682 2.5 16.5856 2.92143 17.3358 3.67157L18.0217 4.35748C18.2132 4.549 18.4416 4.69962 18.6931 4.80022L21.2356 5.81719C22.7542 6.42465 23.75 7.89548 23.75 9.5311V17.5C23.75 19.7091 21.9591 21.5 19.75 21.5H5.75C3.54086 21.5 1.75 19.7091 1.75 17.5V9.5311C1.75 7.89548 2.7458 6.42465 4.26444 5.81719L6.80688 4.80022C7.05836 4.69962 7.28679 4.549 7.47831 4.35748L8.16421 3.67157ZM10.9926 4.5C10.4622 4.5 9.9535 4.71071 9.57843 5.08579L8.89252 5.77169C8.50948 6.15474 8.05262 6.45598 7.54966 6.65717L5.00722 7.67415C4.2479 7.97787 3.75 8.71329 3.75 9.5311V17.5C3.75 18.6046 4.64543 19.5 5.75 19.5H19.75C20.8546 19.5 21.75 18.6046 21.75 17.5V9.5311C21.75 8.71329 21.2521 7.97787 20.4928 7.67415L17.9503 6.65717C17.4474 6.45598 16.9905 6.15473 16.6075 5.77169L15.9216 5.08579C15.5465 4.71071 15.0378 4.5 14.5074 4.5H10.9926Z" fill="black"/>
</svg>
