<svg width="25" height="24" viewBox="0 0 25 24" fill="none" xmlns="http://www.w3.org/2000/svg">
<path fill-rule="evenodd" clip-rule="evenodd" d="M8.75 3V5H9.25C10.6307 5 11.75 6.11929 11.75 7.5V10.5C11.75 11.8807 10.6307 13 9.25 13H8.75V21C8.75 21.5523 8.30228 22 7.75 22C7.19772 22 6.75 21.5523 6.75 21L6.75 13H6.25C4.86929 13 3.75 11.8807 3.75 10.5V7.5C3.75 6.11929 4.86929 5 6.25 5H6.75L6.75 3C6.75 2.44772 7.19772 2 7.75 2C8.30228 2 8.75 2.44772 8.75 3ZM6.25 7H9.25C9.52614 7 9.75 7.22386 9.75 7.5V10.5C9.75 10.7761 9.52614 11 9.25 11H6.25C5.97386 11 5.75 10.7761 5.75 10.5V7.5C5.75 7.22386 5.97386 7 6.25 7Z" fill="black"/>
<path fill-rule="evenodd" clip-rule="evenodd" d="M16.75 19V21C16.75 21.5523 17.1977 22 17.75 22C18.3023 22 18.75 21.5523 18.75 21V19H19.25C20.6307 19 21.75 17.8807 21.75 16.5V10.5C21.75 9.11929 20.6307 8 19.25 8H18.75V3C18.75 2.44772 18.3023 2 17.75 2C17.1977 2 16.75 2.44772 16.75 3V8H16.25C14.8693 8 13.75 9.11929 13.75 10.5V16.5C13.75 17.8807 14.8693 19 16.25 19H16.75ZM16.25 10C15.9739 10 15.75 10.2239 15.75 10.5V16.5C15.75 16.7761 15.9739 17 16.25 17H19.25C19.5261 17 19.75 16.7761 19.75 16.5V10.5C19.75 10.2239 19.5261 10 19.25 10H16.25Z" fill="black"/>
</svg>
