<svg width="25" height="24" viewBox="0 0 25 24" fill="none" xmlns="http://www.w3.org/2000/svg">
<path fill-rule="evenodd" clip-rule="evenodd" d="M17.25 3C18.6307 3 19.75 4.11929 19.75 5.5V6H21.75C22.3023 6 22.75 6.44772 22.75 7C22.75 7.55228 22.3023 8 21.75 8H19.75V8.5C19.75 9.88071 18.6307 11 17.25 11H14.25C12.8693 11 11.75 9.88071 11.75 8.5V8L3.75 8C3.19772 8 2.75 7.55228 2.75 7C2.75 6.44772 3.19772 6 3.75 6L11.75 6V5.5C11.75 4.11929 12.8693 3 14.25 3H17.25ZM17.75 5.5V8.5C17.75 8.77614 17.5261 9 17.25 9H14.25C13.9739 9 13.75 8.77614 13.75 8.5V5.5C13.75 5.22386 13.9739 5 14.25 5L17.25 5C17.5261 5 17.75 5.22386 17.75 5.5Z" fill="black"/>
<path fill-rule="evenodd" clip-rule="evenodd" d="M5.75 16H3.75C3.19772 16 2.75 16.4477 2.75 17C2.75 17.5523 3.19772 18 3.75 18H5.75V18.5C5.75 19.8807 6.86929 21 8.25 21H14.25C15.6307 21 16.75 19.8807 16.75 18.5V18H21.75C22.3023 18 22.75 17.5523 22.75 17C22.75 16.4477 22.3023 16 21.75 16H16.75V15.5C16.75 14.1193 15.6307 13 14.25 13H8.25C6.86929 13 5.75 14.1193 5.75 15.5V16ZM14.75 15.5C14.75 15.2239 14.5261 15 14.25 15H8.25C7.97386 15 7.75 15.2239 7.75 15.5V18.5C7.75 18.7761 7.97386 19 8.25 19H14.25C14.5261 19 14.75 18.7761 14.75 18.5V15.5Z" fill="black"/>
</svg>
