<svg width="22" height="22" viewBox="0 0 22 22" fill="none" xmlns="http://www.w3.org/2000/svg">
  <path
    d="M14.1719 9.36133V17.6719C14.1719 17.9513 13.9735 18.1846 13.71 18.2383L13.5938 18.25H4.32812C4.00902 18.25 3.75 17.991 3.75 17.6719V6.38379C3.75 6.06469 4.00903 5.80566 4.32812 5.80566H10.6162C10.7693 5.80568 10.916 5.86643 11.0244 5.97461L14.0029 8.95215L14.0742 9.04102C14.137 9.13521 14.1719 9.2464 14.1719 9.36133ZM15.6719 9.36133C15.6719 8.87905 15.5043 8.41373 15.2012 8.04395L15.0635 7.8916L12.085 4.91406C11.6954 4.52465 11.1672 4.30568 10.6162 4.30566H4.32812C3.1806 4.30566 2.25 5.23626 2.25 6.38379V17.6719C2.25 18.8194 3.18061 19.75 4.32812 19.75H13.5938L13.8066 19.7393C14.8543 19.6327 15.6719 18.7476 15.6719 17.6719V9.36133Z"
    fill="currentColor" />
  <path
    d="M14.335 8.97412C14.5339 8.97411 14.7246 8.89503 14.8652 8.75439L16.2734 7.34619L16.3252 7.28955C16.5656 6.99498 16.548 6.56029 16.2734 6.28564L13.6914 3.70361C13.3985 3.41077 12.9237 3.41074 12.6309 3.70361L11.2227 5.11182C11.082 5.25246 11.0029 5.44319 11.0029 5.64209C11.0029 5.84099 11.082 6.03171 11.2227 6.17236L13.8047 8.75439L13.9189 8.84814C14.0412 8.92966 14.1858 8.97412 14.335 8.97412ZM12.8135 5.64209L13.1611 5.29443L14.6826 6.81592L14.335 7.16357L12.8135 5.64209Z"
    fill="currentColor" />
  <path
    d="M12.3042 9.76074L12.4165 9.75195C12.6736 9.71311 12.896 9.54304 12.9976 9.29785C13.0992 9.05253 13.0623 8.77473 12.9077 8.56543L12.8345 8.48047L10.8716 6.51758C10.731 6.37696 10.5402 6.2979 10.3413 6.29785H5.97314C5.01688 6.29792 4.2417 7.07302 4.2417 8.0293C4.24179 8.98552 5.01692 9.76067 5.97314 9.76074H12.3042ZM5.7417 8.0293C5.7417 7.90145 5.84531 7.79792 5.97314 7.79785H10.0308L10.4937 8.26074H5.97314C5.84538 8.26067 5.74179 8.15712 5.7417 8.0293Z"
    fill="currentColor" />
  <path
    d="M12.3042 9.76074L12.4165 9.75195C12.6736 9.71311 12.896 9.54304 12.9976 9.29785C13.1136 9.0176 13.049 8.69496 12.8345 8.48047L10.8716 6.51758C10.731 6.37696 10.5402 6.2979 10.3413 6.29785H5.97314C5.01688 6.29792 4.2417 7.07302 4.2417 8.0293C4.24179 8.98552 5.01692 9.76067 5.97314 9.76074H12.3042ZM5.7417 8.0293C5.7417 7.90145 5.84531 7.79792 5.97314 7.79785H10.0308L10.4937 8.26074H5.97314C5.84538 8.26067 5.74179 8.15712 5.7417 8.0293Z"
    fill="currentColor" />
  <path
    d="M15.1567 6.97949C15.3556 6.97949 15.5464 6.90038 15.687 6.75977L17.1343 5.3125H17.938L18.0151 5.30859C18.3931 5.27 18.688 4.95069 18.688 4.5625V3C18.6879 2.58585 18.3522 2.25 17.938 2.25H15.5698C15.371 2.25 15.1802 2.32922 15.0396 2.46973L13.2183 4.29102C12.9255 4.58391 12.9254 5.0587 13.2183 5.35156L14.6265 6.75977L14.7407 6.85352C14.863 6.93506 15.0076 6.97947 15.1567 6.97949ZM14.8091 4.82129L15.8804 3.75H17.188V3.8125H16.8237C16.6747 3.8125 16.53 3.85702 16.4077 3.93848L16.2935 4.03223L15.1567 5.16895L14.8091 4.82129Z"
    fill="currentColor" />
  <path
    d="M18.5894 7.70898C18.4471 7.5316 18.2318 7.42878 18.0044 7.42871C17.7768 7.42871 17.5608 7.53139 17.4185 7.70898L18.0044 8.17871L18.5894 7.70898ZM18.0044 11.7168C18.9685 11.7167 19.7505 10.9348 19.7505 9.9707C19.7504 9.65304 19.6203 9.34207 19.52 9.13379C19.4066 8.89839 19.2628 8.66038 19.1294 8.45703C18.9943 8.25115 18.8605 8.06566 18.7612 7.93262C18.7113 7.86573 18.669 7.81082 18.6392 7.77246C18.6243 7.75336 18.6124 7.73821 18.604 7.72754C18.5998 7.72224 18.5967 7.7179 18.5942 7.71484C18.593 7.71331 18.5921 7.71188 18.5913 7.71094L18.5903 7.70996L18.0044 8.17871L17.4185 7.70898L17.4175 7.71094C17.4168 7.71185 17.4157 7.71338 17.4146 7.71484C17.4122 7.71786 17.4089 7.7223 17.4048 7.72754C17.3963 7.73825 17.3836 7.75326 17.3687 7.77246C17.3389 7.81081 17.2975 7.86575 17.2476 7.93262C17.1483 8.06566 17.0146 8.25105 16.8794 8.45703C16.7459 8.66042 16.6012 8.89833 16.4878 9.13379C16.3875 9.34207 16.2584 9.65313 16.2583 9.9707C16.2583 10.9349 17.0402 11.7168 18.0044 11.7168ZM18.0044 10.2168C17.8735 10.2168 17.7668 10.1144 17.7593 9.98535C17.7619 9.98091 17.7746 9.91866 17.8394 9.78418C17.8837 9.69205 17.9406 9.59165 18.0034 9.4873C18.0664 9.59181 18.124 9.69192 18.1685 9.78418C18.2304 9.91275 18.245 9.97527 18.2485 9.98438C18.2415 10.1138 18.1355 10.2167 18.0044 10.2168Z"
    fill="currentColor" />
  <path
    d="M10.603 16.3975L10.6792 16.3936C11.0575 16.3553 11.353 16.0359 11.353 15.6475V12.3633C11.3529 11.9492 11.0171 11.6134 10.603 11.6133H7.31885C6.90469 11.6133 6.56894 11.9491 6.56885 12.3633V15.6475L6.57275 15.7246C6.61138 16.1026 6.93068 16.3975 7.31885 16.3975H10.603ZM8.06885 13.1133H9.85303V14.8975H8.06885V13.1133Z"
    fill="currentColor" />
  <path
    d="M10.0728 12.8936C10.3474 13.1682 10.7821 13.1856 11.0767 12.9453L11.1333 12.8936L12.1294 11.8975L12.1812 11.8408C12.4212 11.5462 12.4039 11.1114 12.1294 10.8369C11.8549 10.5624 11.4201 10.5451 11.1255 10.7852L11.0688 10.8369L10.0728 11.833L10.021 11.8896C9.78069 12.1842 9.79815 12.619 10.0728 12.8936Z"
    fill="currentColor" />
  <path
    d="M6.8457 12.9453C7.14028 13.1855 7.57505 13.1681 7.84961 12.8936C8.12406 12.619 8.14154 12.1842 7.90137 11.8896L7.84961 11.833L6.85352 10.8369C6.56065 10.5442 6.08583 10.5442 5.79297 10.8369C5.50012 11.1298 5.5002 11.6046 5.79297 11.8975L6.78906 12.8936L6.8457 12.9453Z"
    fill="currentColor" />
  <path
    d="M11.1255 17.2251C11.4201 17.4653 11.8548 17.4479 12.1294 17.1733C12.4038 16.8988 12.4213 16.464 12.1812 16.1694L12.1294 16.1128L11.1333 15.1167C10.8404 14.824 10.3656 14.824 10.0728 15.1167C9.7799 15.4096 9.77998 15.8843 10.0728 16.1772L11.0688 17.1733L11.1255 17.2251Z"
    fill="currentColor" />
  <path
    d="M5.79297 17.1733C6.06757 17.4479 6.50229 17.4654 6.79688 17.2251L6.85352 17.1733L7.84961 16.1772L7.90137 16.1206C8.14145 15.826 8.12413 15.3912 7.84961 15.1167C7.57509 14.8422 7.14028 14.8249 6.8457 15.0649L6.78906 15.1167L5.79297 16.1128L5.74121 16.1694C5.5009 16.464 5.51836 16.8987 5.79297 17.1733Z"
    fill="currentColor" />
</svg>