<svg width="25" height="24" viewBox="0 0 25 24" fill="none" xmlns="http://www.w3.org/2000/svg">
<path fill-rule="evenodd" clip-rule="evenodd" d="M17.25 21C16.1454 21 15.25 20.1046 15.25 19V18H9.25V19C9.25 20.1046 8.35457 21 7.25 21H4.75C3.64543 21 2.75 20.1046 2.75 19V17.792C1.86705 17.4062 1.25 16.5252 1.25 15.5V12C1.25 11.5534 1.3964 11.1409 1.64384 10.8081L1.54289 10.7071C1.15237 10.3166 1.15237 9.68342 1.54289 9.29289C1.88639 8.9494 2.4176 8.90803 2.80631 9.1688L3.84547 6.05132C4.25381 4.82629 5.40023 4 6.69152 4H17.8085C19.0998 4 20.2462 4.82629 20.6545 6.05132L21.6937 9.1688C22.0824 8.90803 22.6136 8.9494 22.9571 9.29289C23.3476 9.68342 23.3476 10.3166 22.9571 10.7071L22.8562 10.8081C23.1036 11.1409 23.25 11.5534 23.25 12V15.5C23.25 16.5252 22.633 17.4062 21.75 17.792V19C21.75 20.1046 20.8546 21 19.75 21H17.25ZM5.74284 6.68377C5.87895 6.27543 6.26109 6 6.69152 6H17.8085C18.2389 6 18.621 6.27543 18.7572 6.68377L19.8626 10H4.63743L5.74284 6.68377ZM3.75 16C3.47386 16 3.25 15.7761 3.25 15.5V12H21.25V15.5C21.25 15.7761 21.0261 16 20.75 16H3.75ZM17.25 18H19.75V19H17.25V18ZM4.75 18H7.25V19H4.75V18Z" fill="black"/>
</svg>
