<svg width="25" height="24" viewBox="0 0 25 24" fill="none" xmlns="http://www.w3.org/2000/svg">
<path fill-rule="evenodd" clip-rule="evenodd" d="M1.75 6.5C1.75 4.29086 3.54086 2.5 5.75 2.5H19.75C21.9591 2.5 23.75 4.29086 23.75 6.5V14.25C23.75 14.8023 23.3023 15.25 22.75 15.25C22.1977 15.25 21.75 14.8023 21.75 14.25V9H3.75V17.5C3.75 18.6046 4.64543 19.5 5.75 19.5H15.25C15.8023 19.5 16.25 19.9477 16.25 20.5C16.25 21.0523 15.8023 21.5 15.25 21.5H5.75C3.54086 21.5 1.75 19.7091 1.75 17.5V6.5ZM3.75 7H21.75V6.5C21.75 5.39543 20.8546 4.5 19.75 4.5H5.75C4.64543 4.5 3.75 5.39543 3.75 6.5V7Z" fill="black"/>
<path d="M4.75 16C4.75 15.4477 5.19772 15 5.75 15H13.75C14.3023 15 14.75 15.4477 14.75 16C14.75 16.5523 14.3023 17 13.75 17H5.75C5.19772 17 4.75 16.5523 4.75 16Z" fill="black"/>
<path d="M22.4144 20.4141L20.9144 21.7474C20.5355 22.0842 19.9645 22.0842 19.5856 21.7474L18.0856 20.4141C17.6729 20.0472 17.6357 19.4151 18.0026 19.0023C18.3236 18.6412 18.8475 18.5675 19.25 18.8004V16C19.25 15.4477 19.6977 15 20.25 15C20.8023 15 21.25 15.4477 21.25 16V18.8004C21.6525 18.5675 22.1764 18.6412 22.4974 19.0023C22.8643 19.4151 22.8271 20.0472 22.4144 20.4141Z" fill="black"/>
</svg>
