<svg width="25" height="24" viewBox="0 0 25 24" fill="none" xmlns="http://www.w3.org/2000/svg">
<path fill-rule="evenodd" clip-rule="evenodd" d="M1.75 6.5C1.75 4.29086 3.54086 2.5 5.75 2.5H19.75C21.9591 2.5 23.75 4.29086 23.75 6.5V14.25C23.75 14.8023 23.3023 15.25 22.75 15.25C22.1977 15.25 21.75 14.8023 21.75 14.25V9H3.75V17.5C3.75 18.6046 4.64543 19.5 5.75 19.5H15.25C15.8023 19.5 16.25 19.9477 16.25 20.5C16.25 21.0523 15.8023 21.5 15.25 21.5H5.75C3.54086 21.5 1.75 19.7091 1.75 17.5V6.5ZM3.75 7H21.75V6.5C21.75 5.39543 20.8546 4.5 19.75 4.5H5.75C4.64543 4.5 3.75 5.39543 3.75 6.5V7Z" fill="black"/>
<path d="M4.75 16C4.75 15.4477 5.19772 15 5.75 15H13.75C14.3023 15 14.75 15.4477 14.75 16C14.75 16.5523 14.3023 17 13.75 17H5.75C5.19772 17 4.75 16.5523 4.75 16Z" fill="black"/>
<path d="M23.4461 18.4962C23.8366 18.1056 23.8366 17.4725 23.4461 17.0819C23.0556 16.6914 22.4224 16.6914 22.0319 17.0819L20.0931 19.0207L19.8113 18.7388C19.4207 18.3483 18.7876 18.3483 18.397 18.7388C18.0065 19.1293 18.0065 19.7625 18.397 20.153L19.386 21.142C19.7766 21.5325 20.4097 21.5325 20.8003 21.142L23.4461 18.4962Z" fill="black"/>
</svg>
