<svg width="25" height="24" viewBox="0 0 25 24" fill="none" xmlns="http://www.w3.org/2000/svg">
<path d="M4.75 16C4.75 15.4477 5.19772 15 5.75 15H13.75C14.3023 15 14.75 15.4477 14.75 16C14.75 16.5523 14.3023 17 13.75 17H5.75C5.19772 17 4.75 16.5523 4.75 16Z" fill="black"/>
<path d="M16.75 15C16.1977 15 15.75 15.4477 15.75 16C15.75 16.5523 16.1977 17 16.75 17H18.75C19.3023 17 19.75 16.5523 19.75 16C19.75 15.4477 19.3023 15 18.75 15H16.75Z" fill="black"/>
<path fill-rule="evenodd" clip-rule="evenodd" d="M1.75 6.5C1.75 4.29086 3.54086 2.5 5.75 2.5H19.75C21.9591 2.5 23.75 4.29086 23.75 6.5V17.5C23.75 19.7091 21.9591 21.5 19.75 21.5H5.75C3.54086 21.5 1.75 19.7091 1.75 17.5V6.5ZM5.75 4.5C4.64543 4.5 3.75 5.39543 3.75 6.5V7H21.75V6.5C21.75 5.39543 20.8546 4.5 19.75 4.5H5.75ZM21.75 9H3.75V17.5C3.75 18.6046 4.64543 19.5 5.75 19.5H19.75C20.8546 19.5 21.75 18.6046 21.75 17.5V9Z" fill="black"/>
</svg>
