<svg width="25" height="24" viewBox="0 0 25 24" fill="none" xmlns="http://www.w3.org/2000/svg">
<path fill-rule="evenodd" clip-rule="evenodd" d="M1.75 6.5C1.75 4.29086 3.54086 2.5 5.75 2.5H19.75C21.9591 2.5 23.75 4.29086 23.75 6.5V14.25C23.75 14.8023 23.3023 15.25 22.75 15.25C22.1977 15.25 21.75 14.8023 21.75 14.25V9H3.75V17.5C3.75 18.6046 4.64543 19.5 5.75 19.5H15.25C15.8023 19.5 16.25 19.9477 16.25 20.5C16.25 21.0523 15.8023 21.5 15.25 21.5H5.75C3.54086 21.5 1.75 19.7091 1.75 17.5V6.5ZM3.75 7H21.75V6.5C21.75 5.39543 20.8546 4.5 19.75 4.5H5.75C4.64543 4.5 3.75 5.39543 3.75 6.5V7Z" fill="black"/>
<path d="M4.75 16C4.75 15.4477 5.19772 15 5.75 15H13.75C14.3023 15 14.75 15.4477 14.75 16C14.75 16.5523 14.3023 17 13.75 17H5.75C5.19772 17 4.75 16.5523 4.75 16Z" fill="black"/>
<path d="M21.9926 18.8284L22.6997 18.1213C23.0902 17.7308 23.0902 17.0976 22.6997 16.7071C22.3092 16.3166 21.676 16.3166 21.2855 16.7071L20.5784 17.4142L19.8713 16.7071C19.4807 16.3166 18.8476 16.3166 18.457 16.7071C18.0665 17.0976 18.0665 17.7308 18.457 18.1213L19.1642 18.8284L18.457 19.5355C18.0665 19.9261 18.0665 20.5592 18.457 20.9497C18.8476 21.3403 19.4807 21.3403 19.8713 20.9497L20.5784 20.2426L21.2855 20.9497C21.676 21.3403 22.3092 21.3403 22.6997 20.9497C23.0902 20.5592 23.0902 19.9261 22.6997 19.5355L21.9926 18.8284Z" fill="black"/>
</svg>
