<svg width="25" height="24" viewBox="0 0 25 24" fill="none" xmlns="http://www.w3.org/2000/svg">
<path fill-rule="evenodd" clip-rule="evenodd" d="M1.75 6.5C1.75 4.29086 3.54086 2.5 5.75 2.5H19.75C21.9591 2.5 23.75 4.29086 23.75 6.5V14.25C23.75 14.8023 23.3023 15.25 22.75 15.25C22.1977 15.25 21.75 14.8023 21.75 14.25V9H3.75V17.5C3.75 18.6046 4.64543 19.5 5.75 19.5H15.25C15.8023 19.5 16.25 19.9477 16.25 20.5C16.25 21.0523 15.8023 21.5 15.25 21.5H5.75C3.54086 21.5 1.75 19.7091 1.75 17.5V6.5ZM3.75 7H21.75V6.5C21.75 5.39543 20.8546 4.5 19.75 4.5H5.75C4.64543 4.5 3.75 5.39543 3.75 6.5V7Z" fill="black"/>
<path d="M4.75 16C4.75 15.4477 5.19772 15 5.75 15H13.75C14.3023 15 14.75 15.4477 14.75 16C14.75 16.5523 14.3023 17 13.75 17H5.75C5.19772 17 4.75 16.5523 4.75 16Z" fill="black"/>
<path d="M17.0026 19.1644C16.6658 18.7855 16.6658 18.2145 17.0026 17.8356L18.3359 16.3356C18.7028 15.9229 19.3349 15.8857 19.7477 16.2526C20.1088 16.5736 20.1825 17.0975 19.9496 17.5H22.75C23.3023 17.5 23.75 17.9477 23.75 18.5C23.75 19.0523 23.3023 19.5 22.75 19.5H19.9496C20.1825 19.9025 20.1088 20.4264 19.7477 20.7474C19.3349 21.1143 18.7028 21.0771 18.3359 20.6644L17.0026 19.1644Z" fill="black"/>
</svg>
