<svg width="25" height="24" viewBox="0 0 25 24" fill="none" xmlns="http://www.w3.org/2000/svg">
<path fill-rule="evenodd" clip-rule="evenodd" d="M2.75 1C2.19772 1 1.75 1.44772 1.75 2C1.75 2.55228 2.19772 3 2.75 3C3.55847 3 4.25052 3.57985 4.39205 4.37584L5.11838 8.46078L5.52924 10.8415C5.78674 12.3337 5.99235 13.5252 6.25232 14.4717C6.5201 15.4467 6.86794 16.2529 7.46254 16.9368C7.8706 17.4061 8.34915 17.8091 8.88104 18.1314C9.65607 18.6011 10.5097 18.8067 11.516 18.9048C12.4929 19 13.702 19 15.2161 19H15.6852C16.3578 19 16.9175 19 17.3798 18.9652C17.8636 18.9287 18.3097 18.8504 18.7438 18.6585C19.3719 18.3809 19.9179 17.9462 20.3294 17.3964C20.6137 17.0163 20.79 16.5991 20.934 16.1359C21.0717 15.6932 21.1972 15.1476 21.348 14.4922L21.367 14.4097C21.5963 13.4132 21.7836 12.5993 21.8743 11.9347C21.9675 11.2515 21.9778 10.6093 21.7654 9.98941C21.4667 9.11739 20.876 8.37531 20.0932 7.88865C19.5367 7.54271 18.9086 7.4087 18.2218 7.34634C17.5538 7.28569 16.7186 7.2857 15.6961 7.28571H6.94082L6.36117 4.02571C6.04991 2.27519 4.52798 1 2.75 1ZM7.49132 10.4505L7.2903 9.28572H15.6483C16.7303 9.28572 17.4742 9.28668 18.0409 9.33814C18.5991 9.38883 18.8663 9.48092 19.0372 9.58718C19.4286 9.83051 19.724 10.2016 19.8734 10.6376C19.9386 10.828 19.9684 11.109 19.8926 11.6643C19.8157 12.2282 19.6498 12.9534 19.4072 14.0078C19.246 14.7084 19.1368 15.18 19.0242 15.542C18.9155 15.8916 18.8232 16.071 18.728 16.1982C18.5223 16.4731 18.2492 16.6904 17.9352 16.8293C17.7899 16.8935 17.5943 16.9433 17.2293 16.9708C16.8512 16.9993 16.3671 17 15.6483 17H15.2679C13.6903 17 12.5786 16.9989 11.71 16.9142C10.8596 16.8314 10.337 16.6751 9.91751 16.421C9.56291 16.2061 9.24388 15.9374 8.97184 15.6245C8.65003 15.2544 8.4072 14.766 8.1809 13.942C7.94976 13.1004 7.75962 12.0052 7.49132 10.4505Z" fill="black"/>
<path d="M9.5 22C10.1904 22 10.75 21.4404 10.75 20.75C10.75 20.0596 10.1904 19.5 9.5 19.5C8.80964 19.5 8.25 20.0596 8.25 20.75C8.25 21.4404 8.80964 22 9.5 22Z" fill="black"/>
<path d="M19.75 20.75C19.75 21.4404 19.1904 22 18.5 22C17.8096 22 17.25 21.4404 17.25 20.75C17.25 20.0596 17.8096 19.5 18.5 19.5C19.1904 19.5 19.75 20.0596 19.75 20.75Z" fill="black"/>
<path d="M18.9571 2.29289C18.5666 1.90237 17.9334 1.90237 17.5429 2.29289C17.1524 2.68342 17.1524 3.31658 17.5429 3.70711L18.25 4.41421L17.5429 5.12132C17.1524 5.51184 17.1524 6.14501 17.5429 6.53553C17.9334 6.92606 18.5666 6.92606 18.9571 6.53553L19.6642 5.82843L20.3713 6.53553C20.7618 6.92606 21.395 6.92606 21.7855 6.53553C22.1761 6.14501 22.1761 5.51184 21.7855 5.12132L21.0784 4.41421L21.7855 3.70711C22.1761 3.31658 22.1761 2.68342 21.7855 2.29289C21.395 1.90237 20.7618 1.90237 20.3713 2.29289L19.6642 3L18.9571 2.29289Z" fill="black"/>
</svg>
