<svg width="25" height="24" viewBox="0 0 25 24" fill="none" xmlns="http://www.w3.org/2000/svg">
<path fill-rule="evenodd" clip-rule="evenodd" d="M1.75 2C1.75 1.44772 2.19772 1 2.75 1C4.46434 1 5.91894 2.24144 6.21556 3.92747L6.7561 7H16.1514C17.2465 6.99999 18.134 6.99998 18.8422 7.062C19.5675 7.12553 20.2214 7.26118 20.7996 7.60785C21.6203 8.09999 22.2476 8.85541 22.5663 9.75271C22.793 10.391 22.7821 11.0532 22.6825 11.7573C22.5857 12.4415 22.3857 13.2795 22.141 14.3051L22.1207 14.3902C21.9598 15.065 21.8258 15.6266 21.6789 16.0822C21.525 16.5597 21.3372 16.9871 21.0365 17.3748C20.6009 17.9363 20.0258 18.3764 19.3692 18.6563C18.9189 18.8482 18.4549 18.9273 17.945 18.9644C17.4556 19 16.8615 19 16.1409 19H15.6484C14.0281 19 12.7418 19 11.7041 18.9025C10.639 18.8024 9.74306 18.5932 8.93037 18.1183C8.36937 17.7904 7.86316 17.3796 7.43052 16.8996C6.8006 16.2009 6.42972 15.3741 6.14356 14.3692C5.86607 13.3948 5.6466 12.1681 5.37175 10.6321L4.9323 8.17614L4.93179 8.17326L4.24581 4.274C4.11479 3.52928 3.47842 3 2.75 3C2.19772 3 1.75 2.55228 1.75 2ZM18.6677 9.05437C18.0571 9.0009 17.2576 9 16.1047 9H7.11148L7.33111 10.2274C7.61748 11.8278 7.82039 12.9551 8.06709 13.8214C8.30826 14.6683 8.56783 15.1743 8.91601 15.5605C9.20926 15.8858 9.55434 16.1664 9.93952 16.3915C10.4017 16.6617 10.9748 16.8251 11.8913 16.9113C12.8245 16.999 14.0168 17 15.6987 17H16.1047C16.8704 17 17.3916 16.9994 17.7999 16.9697C18.196 16.9409 18.4168 16.8881 18.5849 16.8165C18.9339 16.6677 19.2331 16.4365 19.4562 16.1489C19.5605 16.0145 19.6596 15.8278 19.7754 15.4686C19.8956 15.0958 20.0121 14.6103 20.1841 13.8892C20.4431 12.8036 20.6201 12.0572 20.7022 11.4771C20.783 10.9061 20.7512 10.6179 20.6816 10.4221C20.5221 9.97292 20.2036 9.58247 19.7711 9.32315C19.5729 9.20432 19.2712 9.10723 18.6677 9.05437Z" fill="black"/>
<path d="M9.5 22C10.1904 22 10.75 21.4404 10.75 20.75C10.75 20.0596 10.1904 19.5 9.5 19.5C8.80964 19.5 8.25 20.0596 8.25 20.75C8.25 21.4404 8.80964 22 9.5 22Z" fill="black"/>
<path d="M19.75 20.75C19.75 21.4404 19.1904 22 18.5 22C17.8096 22 17.25 21.4404 17.25 20.75C17.25 20.0596 17.8096 19.5 18.5 19.5C19.1904 19.5 19.75 20.0596 19.75 20.75Z" fill="black"/>
<path d="M18.25 3C17.6977 3 17.25 3.44772 17.25 4C17.25 4.55228 17.6977 5 18.25 5H22.25C22.8023 5 23.25 4.55228 23.25 4C23.25 3.44772 22.8023 3 22.25 3H18.25Z" fill="black"/>
</svg>
