<svg width="25" height="24" viewBox="0 0 25 24" fill="none" xmlns="http://www.w3.org/2000/svg">
<path fill-rule="evenodd" clip-rule="evenodd" d="M2.75 1C2.19772 1 1.75 1.44772 1.75 2C1.75 2.55228 2.19772 3 2.75 3C3.47842 3 4.11479 3.52928 4.24581 4.274L4.93169 8.17269L4.9323 8.17614L5.37175 10.6321C5.6466 12.1681 5.86607 13.3948 6.14356 14.3692C6.42972 15.3741 6.8006 16.2009 7.43052 16.8996C7.86316 17.3796 8.36937 17.7904 8.93037 18.1183C9.74306 18.5932 10.639 18.8024 11.7041 18.9025C12.7418 19 14.028 19 15.6483 19H16.1409C16.8615 19 17.4556 19 17.945 18.9644C18.4549 18.9273 18.9189 18.8482 19.3692 18.6563C20.0258 18.3764 20.6009 17.9363 21.0365 17.3748C21.3372 16.9871 21.525 16.5597 21.6789 16.0822C21.8258 15.6266 21.9598 15.065 22.1207 14.3902L22.141 14.3051C22.3857 13.2795 22.5857 12.4415 22.6825 11.7573C22.7821 11.0532 22.793 10.391 22.5663 9.75271C22.2476 8.85541 21.6203 8.09999 20.7996 7.60785C20.2214 7.26118 19.5675 7.12553 18.8422 7.062C18.134 6.99998 17.2465 6.99999 16.1514 7H6.7561L6.21556 3.92747C5.91894 2.24144 4.46434 1 2.75 1ZM16.1047 9C17.2576 9 18.0571 9.0009 18.6677 9.05437C19.2712 9.10723 19.5729 9.20432 19.7711 9.32315C20.2036 9.58247 20.5221 9.97292 20.6816 10.4221C20.7512 10.6179 20.783 10.9061 20.7022 11.4771C20.6201 12.0572 20.4431 12.8036 20.1841 13.8892C20.0121 14.6103 19.8956 15.0958 19.7754 15.4686C19.6596 15.8278 19.5605 16.0145 19.4562 16.1489C19.2331 16.4365 18.9339 16.6677 18.5849 16.8165C18.4168 16.8881 18.196 16.9409 17.7999 16.9697C17.3916 16.9994 16.8704 17 16.1047 17H15.6987C14.0168 17 12.8245 16.999 11.8913 16.9113C10.9748 16.8251 10.4017 16.6617 9.93952 16.3915C9.55434 16.1664 9.20926 15.8858 8.91601 15.5605C8.56783 15.1743 8.30826 14.6683 8.06709 13.8214C7.82039 12.9551 7.61748 11.8278 7.33111 10.2274L7.11148 9H16.1047Z" fill="black"/>
<path d="M10.75 20.75C10.75 21.4404 10.1904 22 9.5 22C8.80964 22 8.25 21.4404 8.25 20.75C8.25 20.0596 8.80964 19.5 9.5 19.5C10.1904 19.5 10.75 20.0596 10.75 20.75Z" fill="black"/>
<path d="M18.5 22C19.1904 22 19.75 21.4404 19.75 20.75C19.75 20.0596 19.1904 19.5 18.5 19.5C17.8096 19.5 17.25 20.0596 17.25 20.75C17.25 21.4404 17.8096 22 18.5 22Z" fill="black"/>
</svg>
