<svg width="25" height="24" viewBox="0 0 25 24" fill="none" xmlns="http://www.w3.org/2000/svg">
<path d="M6.04289 14.3739C5.65237 13.9833 5.65237 13.3502 6.04289 12.9597L10.0429 8.95965C10.4059 8.59662 10.9849 8.56748 11.3825 8.89223L12.6564 9.93253L16.0178 6.31899C16.2065 6.11611 16.471 6.00063 16.7481 6.00009C17.0251 5.99956 17.29 6.11401 17.4795 6.31615L19.4795 8.44948C19.8573 8.8524 19.8369 9.48523 19.4339 9.86296C19.031 10.2407 18.3982 10.2203 18.0205 9.81737L16.7528 8.46524L13.4822 11.9812C13.1231 12.3673 12.5259 12.4081 12.1175 12.0746L10.8178 11.0132L7.45711 14.3739C7.06658 14.7644 6.43342 14.7644 6.04289 14.3739Z" fill="black"/>
<path fill-rule="evenodd" clip-rule="evenodd" d="M1.75 5C1.75 2.79086 3.54086 1 5.75 1H19.75C21.9591 1 23.75 2.79086 23.75 5V15C23.75 17.2091 21.9591 19 19.75 19H15.1642L17.4571 21.2929C17.8476 21.6834 17.8476 22.3166 17.4571 22.7071C17.0666 23.0976 16.4334 23.0976 16.0429 22.7071L12.75 19.4142L9.45711 22.7071C9.06658 23.0976 8.43342 23.0976 8.04289 22.7071C7.65237 22.3166 7.65237 21.6834 8.04289 21.2929L10.3358 19H5.75C3.54086 19 1.75 17.2091 1.75 15V5ZM19.75 17C20.8546 17 21.75 16.1046 21.75 15V5C21.75 3.89543 20.8546 3 19.75 3H5.75C4.64543 3 3.75 3.89543 3.75 5V15C3.75 16.1046 4.64543 17 5.75 17H19.75Z" fill="black"/>
</svg>
