<svg width="25" height="24" viewBox="0 0 25 24" fill="none" xmlns="http://www.w3.org/2000/svg">
<path d="M6.04289 14.9597C5.65237 15.3502 5.65237 15.9833 6.04289 16.3739C6.43342 16.7644 7.06658 16.7644 7.45711 16.3739L10.8178 13.0132L12.1175 14.0746C12.5259 14.4081 13.1231 14.3673 13.4822 13.9812L16.7528 10.4652L18.0205 11.8174C18.3982 12.2203 19.031 12.2407 19.4339 11.863C19.8369 11.4852 19.8573 10.8524 19.4795 10.4495L17.4795 8.31615C17.29 8.11401 17.0251 7.99956 16.7481 8.00009C16.471 8.00063 16.2065 8.11611 16.0178 8.31899L12.6564 11.9325L11.3825 10.8922C10.9849 10.5675 10.4059 10.5966 10.0429 10.9597L6.04289 14.9597Z" fill="black"/>
<path fill-rule="evenodd" clip-rule="evenodd" d="M5.75 3C3.54086 3 1.75 4.79086 1.75 7V17C1.75 19.2091 3.54086 21 5.75 21H19.75C21.9591 21 23.75 19.2091 23.75 17V7C23.75 4.79086 21.9591 3 19.75 3H5.75ZM3.75 7C3.75 5.89543 4.64543 5 5.75 5H19.75C20.8546 5 21.75 5.89543 21.75 7V17C21.75 18.1046 20.8546 19 19.75 19H5.75C4.64543 19 3.75 18.1046 3.75 17V7Z" fill="black"/>
</svg>
