<svg width="25" height="24" viewBox="0 0 25 24" fill="none" xmlns="http://www.w3.org/2000/svg">
<path d="M6.04289 9.7071C5.65237 9.31657 5.65237 8.68341 6.04289 8.29288C6.43342 7.90236 7.06658 7.90236 7.45711 8.29288L10.8178 11.6535L12.1175 10.5921C12.5259 10.2586 13.1231 10.2995 13.4822 10.6856L16.7528 14.2015L18.0205 12.8494C18.3982 12.4465 19.031 12.4261 19.4339 12.8038C19.8369 13.1815 19.8573 13.8144 19.4795 14.2173L17.4795 16.3506C17.29 16.5527 17.0251 16.6672 16.7481 16.6667C16.471 16.6661 16.2065 16.5506 16.0178 16.3478L12.6564 12.7342L11.3825 13.7745C10.9849 14.0993 10.4059 14.0701 10.0429 13.7071L6.04289 9.7071Z" fill="black"/>
<path fill-rule="evenodd" clip-rule="evenodd" d="M5.75 3C3.54086 3 1.75 4.79086 1.75 7V17C1.75 19.2091 3.54086 21 5.75 21H19.75C21.9591 21 23.75 19.2091 23.75 17V7C23.75 4.79086 21.9591 3 19.75 3H5.75ZM3.75 7C3.75 5.89543 4.64543 5 5.75 5H19.75C20.8546 5 21.75 5.89543 21.75 7V17C21.75 18.1046 20.8546 19 19.75 19H5.75C4.64543 19 3.75 18.1046 3.75 17V7Z" fill="black"/>
</svg>
