<svg width="25" height="24" viewBox="0 0 25 24" fill="none" xmlns="http://www.w3.org/2000/svg">
<path d="M6.75 15C6.19772 15 5.75 14.5523 5.75 14C5.75 13.4477 6.19772 13 6.75 13C7.30228 13 7.75 13.4477 7.75 14C7.75 14.5523 7.30228 15 6.75 15Z" fill="black"/>
<path d="M9.75 14C9.75 14.5523 10.1977 15 10.75 15C11.3023 15 11.75 14.5523 11.75 14C11.75 13.4477 11.3023 13 10.75 13C10.1977 13 9.75 13.4477 9.75 14Z" fill="black"/>
<path d="M14.75 15C14.1977 15 13.75 14.5523 13.75 14C13.75 13.4477 14.1977 13 14.75 13C15.3023 13 15.75 13.4477 15.75 14C15.75 14.5523 15.3023 15 14.75 15Z" fill="black"/>
<path fill-rule="evenodd" clip-rule="evenodd" d="M21.228 13.448L18.7464 13.7582C18.7488 13.8385 18.75 13.9191 18.75 14C18.75 18.4183 15.1683 22 10.75 22C10.0891 22 9.44556 21.9196 8.82926 21.7677L4.53037 21.2303C3.47307 21.0982 2.73827 20.1126 2.91345 19.0616L3.17714 17.4794L2.98231 15.9207C2.83036 15.3044 2.75 14.6609 2.75 14C2.75 9.58172 6.33172 6 10.75 6C10.8636 6 10.9767 6.00237 11.0892 6.00706C11.9109 3.67344 14.1339 2 16.75 2C20.0637 2 22.75 4.68629 22.75 8C22.75 8.48944 22.6912 8.96646 22.5798 9.42385L22.4479 10.4794L22.6294 11.5684C22.7812 12.4793 22.1444 13.3335 21.228 13.448ZM16.75 4C18.9591 4 20.75 5.79086 20.75 8C20.75 8.34404 20.7068 8.67655 20.626 8.99301L20.6105 9.05391L20.4565 10.2856C20.437 10.4414 20.4403 10.5993 20.4661 10.7543L20.5924 11.5119L18.4383 11.7812C17.6924 9.19202 15.674 7.142 13.1039 6.35192C13.732 4.96457 15.1293 4 16.75 4ZM10.75 8C7.43629 8 4.75 10.6863 4.75 14C4.75 14.5153 4.81473 15.014 4.93599 15.4891L4.95154 15.55L5.16396 17.2494C5.18644 17.4293 5.18272 17.6114 5.15293 17.7902L4.90764 19.2619L9.19996 19.7985L9.26087 19.814C9.73597 19.9353 10.2347 20 10.75 20C14.0637 20 16.75 17.3137 16.75 14C16.75 10.6863 14.0637 8 10.75 8Z" fill="black"/>
</svg>
