<svg width="25" height="24" viewBox="0 0 25 24" fill="none" xmlns="http://www.w3.org/2000/svg">
<path d="M6.75 10C6.75 9.44772 7.19772 9 7.75 9H12.75C13.3023 9 13.75 9.44772 13.75 10C13.75 10.5523 13.3023 11 12.75 11H7.75C7.19772 11 6.75 10.5523 6.75 10Z" fill="black"/>
<path d="M7.75 13C7.19772 13 6.75 13.4477 6.75 14C6.75 14.5523 7.19772 15 7.75 15H16.75C17.3023 15 17.75 14.5523 17.75 14C17.75 13.4477 17.3023 13 16.75 13H7.75Z" fill="black"/>
<path fill-rule="evenodd" clip-rule="evenodd" d="M2.75 12C2.75 6.47715 7.22715 2 12.75 2C18.2728 2 22.75 6.47715 22.75 12C22.75 17.5228 18.2728 22 12.75 22C11.9177 22 11.1078 21.8981 10.3327 21.7056L4.78877 21.0126C3.59049 20.8628 2.75773 19.7459 2.95626 18.5547L3.29915 16.4974C3.30113 16.4854 3.30138 16.4733 3.29988 16.4613L3.04438 14.4173C2.8519 13.6422 2.75 12.8323 2.75 12ZM12.75 4C8.33172 4 4.75 7.58172 4.75 12C4.75 12.6866 4.83625 13.3515 4.99801 13.9853L5.01355 14.0462L5.28444 16.2132C5.30992 16.4171 5.30571 16.6235 5.27193 16.8262L4.92905 18.8835C4.91737 18.9536 4.96635 19.0193 5.03684 19.0281L10.7038 19.7364L10.7647 19.752C11.3985 19.9137 12.0635 20 12.75 20C17.1683 20 20.75 16.4183 20.75 12C20.75 7.58172 17.1683 4 12.75 4Z" fill="black"/>
</svg>
