<svg width="25" height="24" viewBox="0 0 25 24" fill="none" xmlns="http://www.w3.org/2000/svg">
<path d="M16.5 12C16.5 12.6904 17.0596 13.25 17.75 13.25C18.4404 13.25 19 12.6904 19 12C19 11.3096 18.4404 10.75 17.75 10.75C17.0596 10.75 16.5 11.3096 16.5 12Z" fill="black"/>
<path d="M12.75 13.25C12.0596 13.25 11.5 12.6904 11.5 12C11.5 11.3096 12.0596 10.75 12.75 10.75C13.4404 10.75 14 11.3096 14 12C14 12.6904 13.4404 13.25 12.75 13.25Z" fill="black"/>
<path d="M6.5 12C6.5 12.6904 7.05964 13.25 7.75 13.25C8.44036 13.25 9 12.6904 9 12C9 11.3096 8.44036 10.75 7.75 10.75C7.05964 10.75 6.5 11.3096 6.5 12Z" fill="black"/>
<path fill-rule="evenodd" clip-rule="evenodd" d="M12.75 2C7.22715 2 2.75 6.47715 2.75 12C2.75 12.8323 2.8519 13.6422 3.04438 14.4173L3.29988 16.4613C3.30138 16.4733 3.30113 16.4854 3.29915 16.4974L2.95626 18.5547C2.75773 19.7459 3.59049 20.8628 4.78877 21.0126L10.3327 21.7056C11.1078 21.8981 11.9177 22 12.75 22C18.2728 22 22.75 17.5228 22.75 12C22.75 6.47715 18.2728 2 12.75 2ZM4.75 12C4.75 7.58172 8.33172 4 12.75 4C17.1683 4 20.75 7.58172 20.75 12C20.75 16.4183 17.1683 20 12.75 20C12.0635 20 11.3985 19.9137 10.7647 19.752L10.7038 19.7364L5.03684 19.0281C4.96635 19.0193 4.91737 18.9536 4.92905 18.8835L5.27193 16.8262C5.30571 16.6235 5.30992 16.4171 5.28444 16.2132L5.01355 14.0462L4.99801 13.9853C4.83625 13.3515 4.75 12.6866 4.75 12Z" fill="black"/>
</svg>
