<svg width="25" height="24" viewBox="0 0 25 24" fill="none" xmlns="http://www.w3.org/2000/svg">
<path d="M15.9254 10.7375C16.3327 10.3644 16.3605 9.73188 15.9875 9.3246C15.6144 8.91732 14.9819 8.88954 14.5746 9.26255L10.8825 12.644L9.9254 11.7674C9.51812 11.3944 8.88557 11.4221 8.51255 11.8294C8.13954 12.2367 8.16732 12.8693 8.5746 13.2423L10.2071 14.7374C10.5893 15.0875 11.1757 15.0875 11.5579 14.7374L15.9254 10.7375Z" fill="black"/>
<path fill-rule="evenodd" clip-rule="evenodd" d="M12.25 2C6.72715 2 2.25 6.47715 2.25 12C2.25 17.5228 6.72715 22 12.25 22C17.7728 22 22.25 17.5228 22.25 12C22.25 6.47715 17.7728 2 12.25 2ZM4.25 12C4.25 7.58172 7.83172 4 12.25 4C16.6683 4 20.25 7.58172 20.25 12C20.25 16.4183 16.6683 20 12.25 20C7.83172 20 4.25 16.4183 4.25 12Z" fill="black"/>
</svg>
