<svg width="25" height="24" viewBox="0 0 25 24" fill="none" xmlns="http://www.w3.org/2000/svg">
<path d="M16.9676 9.69646C17.3522 9.30015 17.3428 8.66705 16.9465 8.28241C16.5501 7.89776 15.9171 7.90722 15.5324 8.30354L10.4267 13.5642L8.9676 12.0608C8.58295 11.6645 7.94986 11.655 7.55354 12.0397C7.15722 12.4243 7.14776 13.0574 7.5324 13.4537L9.7091 15.6965C9.89742 15.8905 10.1563 16 10.4267 16C10.6971 16 10.956 15.8905 11.1443 15.6965L16.9676 9.69646Z" fill="black"/>
<path fill-rule="evenodd" clip-rule="evenodd" d="M7.25 3C5.04086 3 3.25 4.79086 3.25 7V17C3.25 19.2091 5.04086 21 7.25 21H17.25C19.4591 21 21.25 19.2091 21.25 17V7C21.25 4.79086 19.4591 3 17.25 3H7.25ZM5.25 7C5.25 5.89543 6.14543 5 7.25 5H17.25C18.3546 5 19.25 5.89543 19.25 7V17C19.25 18.1046 18.3546 19 17.25 19H7.25C6.14543 19 5.25 18.1046 5.25 17V7Z" fill="black"/>
</svg>
