<svg width="25" height="24" viewBox="0 0 25 24" fill="none" xmlns="http://www.w3.org/2000/svg">
<path d="M13.4571 3.29289C13.2696 3.10536 13.0152 3 12.75 3C12.4848 3 12.2304 3.10536 12.0429 3.29289L6.04289 9.29289C5.65237 9.68342 5.65237 10.3166 6.04289 10.7071C6.43342 11.0976 7.06658 11.0976 7.45711 10.7071L12.75 5.41421L18.0429 10.7071C18.4334 11.0976 19.0666 11.0976 19.4571 10.7071C19.8476 10.3166 19.8476 9.68342 19.4571 9.29289L13.4571 3.29289Z" fill="black"/>
<path d="M13.4571 21.7071C13.2696 21.8946 13.0152 22 12.75 22C12.4848 22 12.2304 21.8946 12.0429 21.7071L6.04289 15.7071C5.65237 15.3166 5.65237 14.6834 6.04289 14.2929C6.43342 13.9024 7.06658 13.9024 7.45711 14.2929L12.75 19.5858L18.0429 14.2929C18.4334 13.9024 19.0666 13.9024 19.4571 14.2929C19.8476 14.6834 19.8476 15.3166 19.4571 15.7071L13.4571 21.7071Z" fill="black"/>
</svg>
