<svg width="25" height="24" viewBox="0 0 25 24" fill="none" xmlns="http://www.w3.org/2000/svg">
<path d="M21.9571 13.2071C22.1446 13.0196 22.25 12.7652 22.25 12.5C22.25 12.2348 22.1446 11.9804 21.9571 11.7929L15.9571 5.79289C15.5666 5.40237 14.9334 5.40237 14.5429 5.79289C14.1524 6.18342 14.1524 6.81658 14.5429 7.20711L19.8358 12.5L14.5429 17.7929C14.1524 18.1834 14.1524 18.8166 14.5429 19.2071C14.9334 19.5976 15.5666 19.5976 15.9571 19.2071L21.9571 13.2071Z" fill="black"/>
<path d="M3.54289 13.2071C3.35536 13.0196 3.25 12.7652 3.25 12.5C3.25 12.2348 3.35536 11.9804 3.54289 11.7929L9.54289 5.79289C9.93342 5.40237 10.5666 5.40237 10.9571 5.79289C11.3476 6.18342 11.3476 6.81658 10.9571 7.20711L5.66421 12.5L10.9571 17.7929C11.3476 18.1834 11.3476 18.8166 10.9571 19.2071C10.5666 19.5976 9.93342 19.5976 9.54289 19.2071L3.54289 13.2071Z" fill="black"/>
</svg>
