<svg width="22" height="12" viewBox="0 0 22 12" fill="none" xmlns="http://www.w3.org/2000/svg">
  <path
    d="M17.7068 9.03174C17.2589 9.03174 16.8729 9.36491 16.8128 9.78369C16.8024 9.83119 16.7974 9.88423 16.7974 9.94113C16.7974 10.4415 17.2052 10.8487 17.7068 10.8487C18.2069 10.8487 18.6141 10.4415 18.6141 9.94113C18.6141 9.88239 18.6091 9.83086 18.6031 9.80652C18.5389 9.36491 18.1536 9.03174 17.7068 9.03174ZM17.7068 10.1612C17.5846 10.1612 17.4849 10.0625 17.4849 9.94113L17.4889 9.90555C17.5043 9.7993 17.598 9.71924 17.7068 9.71924C17.8162 9.71924 17.9072 9.79762 17.926 9.923L17.9266 9.94113C17.9266 10.0645 17.83 10.1612 17.7068 10.1612Z"
    fill="currentColor" />
  <path
    d="M8.22238 9.03174C7.7749 9.03174 7.38885 9.36475 7.32809 9.78369C7.31802 9.83086 7.31299 9.88239 7.31299 9.94113C7.31299 10.4415 7.72086 10.8487 8.22238 10.8487C8.72256 10.8487 9.12976 10.4415 9.12976 9.94113C9.12976 9.88239 9.12473 9.83086 9.11868 9.80618C9.05289 9.35736 8.6759 9.03174 8.22238 9.03174ZM8.22238 10.1612C8.10019 10.1612 8.00049 10.0625 8.00049 9.94113L8.00418 9.90588C8.01996 9.79947 8.11362 9.71924 8.22238 9.71924C8.33182 9.71924 8.42279 9.79779 8.44159 9.923L8.44226 9.94113C8.44226 10.0645 8.34558 10.1612 8.22238 10.1612Z"
    fill="currentColor" />
  <path
    d="M4.20773 9.03174C3.75992 9.03174 3.37387 9.36491 3.31378 9.78369C3.30338 9.83119 3.29834 9.88423 3.29834 9.94113C3.29834 10.4415 3.70621 10.8487 4.20773 10.8487C4.70792 10.8487 5.11511 10.4415 5.11511 9.94113C5.11511 9.88239 5.11008 9.83086 5.10403 9.80652C5.03992 9.36491 4.65454 9.03174 4.20773 9.03174ZM4.20773 10.1612C4.08554 10.1612 3.98584 10.0625 3.98584 9.94113L3.98987 9.90555C4.00531 9.7993 4.09897 9.71924 4.20773 9.71924C4.31717 9.71924 4.40814 9.79762 4.42694 9.923L4.42761 9.94113C4.42761 10.0645 4.33093 10.1612 4.20773 10.1612Z"
    fill="currentColor" />
  <path
    d="M21.2883 6.08639C21.2859 6.07978 21.2868 6.07236 21.284 6.06587L21.2831 6.06371C21.2831 6.06377 21.2831 6.06365 21.2831 6.06371L19.2642 1.4229C19.1259 1.106 18.8133 0.90123 18.4686 0.90123H15.0045C14.8145 0.90123 14.6608 1.05515 14.6608 1.24498V7.26077H13.3671C14.011 6.51239 14.3711 5.562 14.3711 4.54686C14.3711 3.22557 13.7668 2.01053 12.7134 1.21342C12.6537 1.16827 12.5808 1.14377 12.506 1.14377H11.5013V0.674805C11.5013 0.48497 11.3475 0.331055 11.1575 0.331055H8.3642C8.17419 0.331055 8.02045 0.48497 8.02045 0.674805V1.14377H2.4805C2.40564 1.14377 2.33279 1.16827 2.27304 1.21342C1.21997 2.01036 0.615723 3.2254 0.615723 4.54686C0.615723 5.56208 0.975796 6.51247 1.61953 7.26077H1.53183C1.34183 7.26077 1.18808 7.41469 1.18808 7.60452V9.93977C1.18808 10.1296 1.34183 10.2835 1.53183 10.2835H2.40056C2.56153 11.1345 3.30983 11.7811 4.20932 11.7811C5.10612 11.7811 5.85254 11.1345 6.01308 10.2835H6.41545C6.57642 11.1345 7.32472 11.7811 8.22421 11.7811C9.12102 11.7811 9.86718 11.1345 10.0277 10.2835H15.8998C16.0608 11.1345 16.8091 11.7811 17.7086 11.7811C18.6054 11.7811 19.3518 11.1345 19.5123 10.2835H20.3693C20.8893 10.2835 21.3126 9.86122 21.3126 9.34207V6.203C21.3126 6.2013 21.3116 6.19977 21.3116 6.19807C21.311 6.1593 21.3014 6.12225 21.2883 6.08639ZM20.326 5.58694L18.0493 4.70967V2.75073H19.0922L20.326 5.58694ZM8.70795 1.01855H10.8138V1.14377H8.70795V1.01855ZM1.30322 4.54686C1.30322 3.48053 1.77386 2.49712 2.59866 1.83127H12.3878C13.2126 2.49728 13.6836 3.48053 13.6836 4.54686C13.6836 5.61201 13.2126 6.59476 12.3878 7.26077H2.59866C1.77386 6.59492 1.30322 5.61218 1.30322 4.54686ZM1.87558 7.94827H14.6608V9.59602H10.0216C9.8595 8.72584 9.118 8.09967 8.22421 8.09967C7.33467 8.09967 6.56874 8.74932 6.42036 9.59602H6.00666C5.84461 8.72584 5.1031 8.09967 4.20932 8.09967C3.31944 8.09967 2.55385 8.74932 2.40577 9.59602H1.87558V7.94827ZM4.20932 11.0936C3.57226 11.0936 3.0537 10.5774 3.05353 9.943C3.05357 9.94187 3.0542 9.94093 3.0542 9.93977C3.0542 9.93931 3.05395 9.93891 3.05395 9.93845C3.05412 9.8787 3.05819 9.82532 3.06998 9.76672C3.15121 9.2083 3.64099 8.78717 4.20932 8.78717C4.78369 8.78717 5.26071 9.19923 5.34766 9.78955C5.35538 9.82534 5.35949 9.87744 5.35983 9.93604C5.35983 9.93736 5.35907 9.93845 5.35907 9.93977C5.35907 9.94131 5.35991 9.94258 5.35995 9.94412C5.35924 10.578 4.84336 11.0936 4.20932 11.0936ZM8.22421 11.0936C7.58707 11.0936 7.06842 10.5773 7.06842 9.94279C7.06842 9.86256 7.07513 9.81523 7.08453 9.76689C7.16611 9.2083 7.65588 8.78717 8.22421 8.78717C8.79858 8.78717 9.2756 9.19923 9.36221 9.78804C9.3701 9.82526 9.3743 9.87878 9.37447 9.93883C9.37447 9.93849 9.37447 9.93917 9.37447 9.93883C9.37447 9.93931 9.37455 9.94065 9.37455 9.94114C9.37455 9.94172 9.37463 9.94221 9.37463 9.94279C9.37463 10.5773 8.85867 11.0936 8.22421 11.0936ZM17.7086 11.0936C17.0714 11.0936 16.5528 10.5773 16.5528 9.94279C16.5528 9.94191 16.553 9.94116 16.553 9.94028C16.5532 9.88004 16.5573 9.82572 16.5692 9.76672C16.6505 9.2083 17.1402 8.78717 17.7086 8.78717C18.2829 8.78717 18.7599 9.19923 18.8469 9.78955C18.8549 9.82681 18.8593 9.8812 18.8593 9.94279C18.8593 10.5773 18.343 11.0936 17.7086 11.0936ZM20.3693 9.59602H19.5059C19.3438 8.72584 18.6023 8.09967 17.7086 8.09967C16.8187 8.09967 16.0531 8.74932 15.905 9.59602H15.3483V1.58873H18.4686C18.5401 1.58873 18.6052 1.6317 18.6341 1.69749L18.7932 2.06323H17.8818C17.5951 2.06323 17.3618 2.29654 17.3618 2.58339V4.82565C17.3618 5.03949 17.4964 5.23436 17.6951 5.30989L20.6251 6.43891V6.54356H19.711C19.521 6.54356 19.3672 6.69748 19.3672 6.88731V7.45648C19.3672 7.84018 19.6794 8.15237 20.0631 8.15237H20.6251V9.34207C20.6251 9.48206 20.5103 9.59602 20.3693 9.59602ZM20.6247 7.23106V7.46169L20.0547 7.45648V7.23106H20.6247Z"
    fill="currentColor" />
  <path
    d="M21.4272 6.2002C21.4254 6.20217 21.4234 6.20407 21.4214 6.20605L21.4243 6.20508C21.4256 6.20377 21.426 6.20151 21.4272 6.2002ZM3.0542 9.93977C3.0542 9.93931 3.05395 9.93891 3.05395 9.93845C3.05403 9.90872 3.05464 9.88054 3.05713 9.85254L3.06998 9.76672C3.15121 9.2083 3.64099 8.78717 4.20932 8.78717L4.31592 8.79199C4.84186 8.83947 5.26615 9.23617 5.34766 9.78955C5.35538 9.82534 5.35949 9.87744 5.35983 9.93604L5.35907 9.93977C5.35907 9.94131 5.35991 9.94258 5.35995 9.94412L5.354 10.0615C5.29441 10.6404 4.80365 11.0935 4.20932 11.0936L4.20947 10.8936C4.70024 10.8935 5.10545 10.5191 5.15479 10.041L5.15967 9.94434L5.15869 9.93945V9.93359C5.15824 9.88272 5.15524 9.84788 5.15186 9.83203L5.14893 9.81836C5.07555 9.32459 4.6817 8.98738 4.20947 8.9873C3.73941 8.9873 3.33485 9.33683 3.26807 9.7959L3.26611 9.80664L3.25439 9.93945C3.25439 9.941 3.25345 9.94283 3.25342 9.94434C3.25431 10.4669 3.6825 10.8936 4.20947 10.8936L4.20932 11.0936L4.09131 11.0879C3.54823 11.0328 3.11457 10.6013 3.05908 10.0605L3.05353 9.943L3.0542 9.93977ZM7.06842 9.94279C7.06843 9.90283 7.0699 9.8706 7.07275 9.84277L7.08453 9.76689C7.16611 9.2083 7.65588 8.78717 8.22421 8.78717L8.33057 8.79199C8.85661 8.83937 9.28101 9.236 9.36221 9.78804C9.3701 9.82526 9.3743 9.87878 9.37447 9.93883L9.37463 9.94279L9.36865 10.0605C9.30952 10.6399 8.81893 11.0936 8.22421 11.0936L8.22412 10.8936C8.71523 10.8936 9.12055 10.5186 9.16943 10.04L9.17432 9.94238L9.17529 9.95801V9.95312C9.17514 9.9505 9.17434 9.94675 9.17432 9.94238V9.93945L9.1665 9.8291L9.16357 9.81738C9.09075 9.32496 8.69677 8.9873 8.22412 8.9873C7.75414 8.98735 7.34979 9.33656 7.28271 9.7959L7.28076 9.80469C7.27351 9.84196 7.26809 9.87676 7.26807 9.94238C7.26807 10.4655 7.69664 10.8935 8.22412 10.8936L8.22421 11.0936L8.10596 11.0879C7.563 11.0327 7.13019 10.6012 7.07471 10.0605L7.06842 9.94279ZM16.553 9.94028C16.5531 9.91018 16.5546 9.88089 16.5571 9.85254L16.5692 9.76672C16.6505 9.2083 17.1402 8.78717 17.7086 8.78717L17.8149 8.79199C18.341 8.83939 18.7654 9.2361 18.8469 9.78955C18.8549 9.82681 18.8593 9.8812 18.8593 9.94279L18.853 10.0605C18.7938 10.6399 18.3033 11.0936 17.7086 11.0936L17.7085 10.8936C18.1997 10.8936 18.6059 10.5186 18.6548 10.04L18.6597 9.94238C18.6596 9.88777 18.6556 9.84955 18.6519 9.83203L18.6489 9.81836C18.5759 9.32396 18.1811 8.9873 17.7085 8.9873C17.2385 8.98733 16.8339 9.33685 16.7671 9.7959L16.7651 9.80664C16.7565 9.8497 16.7536 9.89004 16.7534 9.94043C16.7534 9.94176 16.7525 9.94305 16.7524 9.94434C16.7533 10.4668 17.1815 10.8935 17.7085 10.8936L17.7086 11.0936L17.5903 11.0879C17.0474 11.0327 16.6146 10.6012 16.5591 10.0605L16.5528 9.94279C16.5528 9.94191 16.553 9.94116 16.553 9.94028ZM16.7515 9.96387C16.7512 9.96632 16.7507 9.96843 16.7505 9.96973V9.97168C16.7506 9.97072 16.7511 9.967 16.7515 9.96387ZM5.16748 9.88184C5.16682 9.88412 5.16559 9.88805 5.16455 9.89258C5.16409 9.8946 5.16405 9.89694 5.16357 9.89941C5.16393 9.89768 5.16421 9.89604 5.16455 9.89453L5.16846 9.87891C5.16846 9.87891 5.16801 9.88003 5.16748 9.88184ZM14.6608 7.94827V9.59602H10.0216L9.98486 9.43555C9.76655 8.64983 9.06208 8.09967 8.22421 8.09967C7.39041 8.09971 6.66532 8.67059 6.45557 9.43945L6.42036 9.59602H6.00666L5.96924 9.43555C5.75087 8.64998 5.04705 8.09974 4.20932 8.09967C3.37516 8.09967 2.65041 8.67056 2.44092 9.43945L2.40577 9.59602H1.87558V7.94827H14.6608ZM15.3483 1.58873H18.4686L18.521 1.59668C18.5706 1.61193 18.6125 1.64836 18.6341 1.69749L18.7932 2.06323H17.8818L17.8813 1.86328H18.4878L18.4556 1.78906H15.5483V9.39648H15.7446C15.9743 8.53565 16.7809 7.89944 17.7085 7.89941C18.6428 7.89941 19.4272 8.51822 19.6646 9.39648H20.3696L20.3693 9.59602H19.5059L19.4692 9.43555C19.2655 8.70228 18.6383 8.1737 17.8745 8.10645L17.7086 8.09967C16.8744 8.0997 16.1494 8.67055 15.9399 9.43945L15.905 9.59602H15.3483V1.58873ZM20.4253 9.3418V8.35254H20.063C19.5689 8.35247 19.1675 7.95017 19.1675 7.45605V6.8877C19.1675 6.58747 19.4109 6.34375 19.7114 6.34375L19.711 6.54356L19.6421 6.55078C19.4852 6.58269 19.3672 6.72107 19.3672 6.88731V7.45648L19.3813 7.59668C19.4371 7.86829 19.6517 8.08308 19.9233 8.13867L20.0631 8.15237H20.6251V9.34207L20.6196 9.39355C20.599 9.49254 20.5202 9.57061 20.4204 9.59082L20.3693 9.59602L20.3696 9.39648C20.4014 9.39629 20.4253 9.36985 20.4253 9.3418ZM9.20068 8.14844C9.67468 8.40759 10.0329 8.85142 10.1802 9.39648H14.4604V8.14844H9.20068ZM5.18506 8.14844C5.65935 8.40756 6.01817 8.85118 6.16553 9.39648H6.26025C6.40388 8.85894 6.77292 8.41049 7.25537 8.14844H5.18506ZM2.07568 9.39648H2.24561C2.38908 8.85882 2.75816 8.41046 3.24072 8.14844H2.07568V9.39648ZM20.6247 7.23106V7.46169L20.0547 7.45648V7.23106H20.6247ZM13.4839 4.54688C13.4839 3.56386 13.0591 2.65812 12.314 2.03125H2.67236C1.92739 2.65793 1.50342 3.56383 1.50342 4.54688C1.50342 5.52855 1.92679 6.43388 2.67139 7.06055H12.3149C13.0597 6.43368 13.4839 5.52837 13.4839 4.54688ZM12.5063 0.943359C12.5951 0.943419 12.6817 0.965959 12.7593 1.00684L12.8345 1.05371L13.0356 1.21582C13.7606 1.83291 14.2534 2.65198 14.4604 3.5625V1.24512C14.4604 0.94494 14.7039 0.701254 15.0044 0.701172L15.0045 0.90123C14.8145 0.90123 14.6608 1.05515 14.6608 1.24498V7.26077H13.3671C13.9707 6.55914 14.3248 5.67995 14.3667 4.73633L14.3711 4.54686C14.3711 3.22557 13.7668 2.01053 12.7134 1.21342C12.6687 1.17965 12.6167 1.15749 12.562 1.14844L12.506 1.14377L12.5063 0.943359ZM14.4604 5.53125C14.3339 6.08303 14.1009 6.60048 13.7759 7.06055H14.4604V5.53125ZM17.1616 4.8252V2.58301C17.1618 2.18606 17.4845 1.86351 17.8813 1.86328L17.8818 2.06323L17.7769 2.07422C17.5404 2.1229 17.362 2.33268 17.3618 2.58339V4.82565L17.3677 4.9043C17.396 5.08596 17.5213 5.24366 17.6951 5.30989L20.6251 6.43891V6.54356H19.711L19.7114 6.34375H19.8218L17.6245 5.49609C17.348 5.39101 17.1616 5.12193 17.1616 4.8252ZM21.4692 6.13379C21.4698 6.13237 21.4717 6.13121 21.4722 6.12988C21.4759 6.11925 21.4764 6.10903 21.478 6.10059C21.4763 6.1095 21.4741 6.12096 21.4692 6.13379ZM21.2886 6.06348L21.284 6.06587L21.2831 6.06371L21.2886 6.06348ZM18.4683 0.701172C18.8927 0.701172 19.2777 0.95318 19.4478 1.34277L21.4595 5.96875C21.4573 5.96472 21.4531 5.95968 21.4487 5.95312L21.2831 6.06371L21.2026 5.88086L19.2642 1.4229C19.1432 1.1457 18.8888 0.954715 18.5962 0.911133L18.4686 0.90123L18.4683 0.701172ZM21.4731 6C21.4743 6.00356 21.4746 6.00895 21.4761 6.01465C21.4738 6.00653 21.4715 5.99716 21.4673 5.9873C21.4693 5.99212 21.4719 5.99616 21.4731 6ZM21.3882 5.89453L21.3862 5.89258C21.3772 5.88717 21.3652 5.88109 21.3511 5.87598C21.3666 5.8816 21.3789 5.88874 21.3882 5.89453ZM20.326 5.58694L18.0493 4.70967V2.75073H19.0922L20.326 5.58694ZM18.2495 4.57227L19.9507 5.22754L18.9614 2.95117H18.2495V4.57227ZM11.5013 0.674805C11.5013 0.508766 11.3837 0.370019 11.2271 0.337891L11.1575 0.331055L11.1577 0.130859C11.4581 0.130975 11.7017 0.374648 11.7017 0.674805V0.943359H12.5063L12.506 1.14377H11.5013V0.674805ZM7.8208 0.674805C7.8208 0.374719 8.06344 0.13109 8.36377 0.130859L8.3642 0.331055C8.17419 0.331055 8.02045 0.48497 8.02045 0.674805V1.14377H2.4805L2.48096 0.943359H7.8208V0.674805ZM10.8138 1.14377H8.70795V1.01855H10.8138V1.14377ZM18.4683 0.701172L18.4686 0.90123H15.0045L15.0044 0.701172H18.4683ZM11.1577 0.130859L11.1575 0.331055H8.3642L8.36377 0.130859H11.1577ZM21.5122 9.3418C21.5122 9.93245 21.0614 10.4191 20.4858 10.4775L20.3696 10.4834H19.6714C19.434 11.3451 18.6458 11.9814 17.7085 11.9814C16.7692 11.9814 15.9797 11.3452 15.7417 10.4834H10.186C9.94869 11.3449 9.16134 11.9814 8.22412 11.9814C7.28479 11.9814 6.49536 11.3452 6.25732 10.4834H6.17139C5.93399 11.3449 5.14659 11.9814 4.20947 11.9814C3.27003 11.9814 2.47968 11.3454 2.2417 10.4834H1.53174C1.23126 10.4833 0.987793 10.2397 0.987793 9.93945V7.60449C0.987804 7.40231 1.09934 7.22747 1.26318 7.13379C0.717484 6.39397 0.415531 5.49721 0.415527 4.54688C0.415527 3.16279 1.04979 1.88846 2.15283 1.05371L2.22705 1.00684C2.30479 0.965862 2.39208 0.943359 2.48096 0.943359L2.4805 1.14377L2.42529 1.14844C2.37029 1.15741 2.31795 1.17949 2.27304 1.21342L2.08057 1.36719C1.14645 2.16217 0.615723 3.30797 0.615723 4.54686L0.619629 4.73633C0.661524 5.68004 1.01601 6.55921 1.61953 7.26077H1.53183C1.34183 7.26077 1.18808 7.41469 1.18808 7.60452V9.93977L1.19482 10.0088C1.22217 10.1431 1.32804 10.2488 1.4624 10.2764L1.53183 10.2835H2.40056C2.55146 11.0813 3.21856 11.6993 4.04248 11.7734L4.20932 11.7811C5.10612 11.7811 5.85254 11.1345 6.01308 10.2835H6.41545C6.56634 11.0812 7.23332 11.6992 8.05713 11.7734L8.22421 11.7811C9.12102 11.7811 9.86718 11.1345 10.0277 10.2835H15.8998C16.0507 11.0812 16.7177 11.6992 17.5415 11.7734L17.7086 11.7811C18.6054 11.7811 19.3518 11.1345 19.5123 10.2835H20.3693L20.4653 10.2783C20.9086 10.2333 21.2628 9.88098 21.3081 9.43848L21.3126 9.34207V6.203L21.3116 6.19807C21.311 6.1593 21.3014 6.12225 21.2883 6.08639L21.284 6.06587L21.2886 6.06348H21.4819C21.4819 6.05342 21.4826 6.0453 21.4819 6.04004L21.48 6.03125C21.479 6.02502 21.4773 6.01954 21.4761 6.01465C21.4779 6.02112 21.481 6.02642 21.4819 6.03125C21.4826 6.03459 21.4825 6.03818 21.4829 6.04102C21.4935 6.07318 21.5008 6.1103 21.5054 6.15137C21.5058 6.15304 21.5069 6.1552 21.5073 6.15723C21.5093 6.1659 21.5106 6.17908 21.5112 6.19531V6.19824C21.5113 6.19981 21.5122 6.2015 21.5122 6.20312V9.3418ZM13.6782 4.74512C13.6272 5.66732 13.2211 6.51516 12.5386 7.13184L12.3878 7.26077H2.59866L2.44775 7.13184C1.76536 6.5153 1.36004 5.66741 1.30908 4.74512L1.30322 4.54686C1.30322 3.48053 1.77386 2.49712 2.59866 1.83127H12.3878C13.2126 2.49728 13.6836 3.48053 13.6836 4.54686L13.6782 4.74512Z"
    fill="currentColor" />
  <path fill-rule="evenodd" clip-rule="evenodd"
    d="M6.78662 5.30518L6.77197 5.15984C6.77197 5.20941 6.77705 5.25839 6.78662 5.30518Z" fill="currentColor" />
  <path fill-rule="evenodd" clip-rule="evenodd"
    d="M8.02783 3.26611C8.37221 3.78365 8.90216 4.66055 8.90228 5.15984L8.89502 5.30322C8.82296 6.01301 8.22166 6.56878 7.49338 6.56892L7.35744 6.56241C7.40218 6.56671 7.44753 6.56892 7.49338 6.56892C8.27017 6.56892 8.90228 5.93681 8.90228 5.15984C8.90228 4.49416 7.96066 3.15676 7.772 2.89542L8.02783 3.26611ZM7.21475 2.89542L6.9585 3.26611C6.61411 3.78368 6.0846 4.66061 6.08447 5.15984C6.08447 4.49416 7.02609 3.15676 7.21475 2.89542ZM6.08447 5.15984L6.09093 5.29531C6.08666 5.25072 6.08447 5.20553 6.08447 5.15984Z"
    fill="currentColor" />
  <path fill-rule="evenodd" clip-rule="evenodd"
    d="M7.772 2.89542C7.6431 2.7165 7.34366 2.7165 7.21475 2.89542L6.9585 3.26611C6.61411 3.78368 6.0846 4.66061 6.08447 5.15984L6.09093 5.29531C6.15503 5.96421 6.68874 6.49808 7.35744 6.56241L7.49338 6.56892C8.22166 6.56878 8.82296 6.01301 8.89502 5.30322L8.90228 5.15984C8.90216 4.66055 8.37221 3.78365 8.02783 3.26611L7.772 2.89542ZM7.96826 4.98389C8.00433 5.08139 8.01508 5.13754 8.01514 5.15967C8.01514 5.44698 7.78081 5.681 7.49365 5.68115C7.20637 5.68115 6.97217 5.44707 6.97217 5.15967C6.97222 5.13754 6.98203 5.08134 7.01807 4.98389C7.05215 4.89174 7.10326 4.77944 7.16748 4.65283C7.2562 4.47794 7.36973 4.28254 7.49268 4.08252C7.6158 4.28281 7.731 4.47773 7.81982 4.65283C7.88401 4.77938 7.93418 4.89177 7.96826 4.98389ZM6.78662 5.30518L6.77197 5.15984C6.77197 5.20941 6.77705 5.25839 6.78662 5.30518Z"
    fill="currentColor" />
  <path fill-rule="evenodd" clip-rule="evenodd"
    d="M9.10205 5.15967C9.10205 6.04698 8.38079 6.76889 7.49365 6.76904C6.60639 6.76904 5.88428 6.04707 5.88428 5.15967C5.88432 4.95362 5.95533 4.71567 6.04932 4.48584C6.14516 4.25153 6.2739 4.00511 6.40576 3.77588C6.66938 3.31766 6.95597 2.91219 7.05225 2.77881L7.09619 2.72607C7.20424 2.61234 7.35426 2.56104 7.49365 2.56104C7.65287 2.56111 7.82555 2.62817 7.93408 2.77881L8.19482 3.15479C8.31159 3.33026 8.44954 3.54642 8.58154 3.77588C8.71337 4.00506 8.84118 4.25158 8.93701 4.48584C9.031 4.71567 9.10201 4.95362 9.10205 5.15967ZM6.08447 5.15984C6.08447 4.49416 7.02609 3.15676 7.21475 2.89542C7.34366 2.7165 7.6431 2.7165 7.772 2.89542C7.96066 3.15676 8.90228 4.49416 8.90228 5.15984C8.90228 5.93681 8.27017 6.56892 7.49338 6.56892C7.44753 6.56892 7.40218 6.56671 7.35744 6.56241L7.34912 6.56201C6.68692 6.49436 6.15854 5.96568 6.09131 5.30322L6.09093 5.29531C6.08666 5.25072 6.08447 5.20553 6.08447 5.15984Z"
    fill="currentColor" />
</svg>