<svg width="25" height="24" viewBox="0 0 25 24" fill="none" xmlns="http://www.w3.org/2000/svg">
<path fill-rule="evenodd" clip-rule="evenodd" d="M10.25 1C8.94378 1 7.83254 1.83481 7.42071 3H7.25C5.04086 3 3.25 4.79086 3.25 7V18C3.25 20.2091 5.04086 22 7.25 22H17.25C19.4591 22 21.25 20.2091 21.25 18V7C21.25 4.79086 19.4591 3 17.25 3H17.0793C16.6675 1.83481 15.5562 1 14.25 1H10.25ZM9.25 4C9.25 3.44772 9.69772 3 10.25 3H14.25C14.8023 3 15.25 3.44772 15.25 4C15.25 4.55228 14.8023 5 14.25 5H10.25C9.69772 5 9.25 4.55228 9.25 4ZM5.25 7C5.25 5.89543 6.14543 5 7.25 5H7.42071C7.83254 6.16519 8.94378 7 10.25 7H14.25C15.5562 7 16.6675 6.16519 17.0793 5H17.25C18.3546 5 19.25 5.89543 19.25 7V18C19.25 19.1046 18.3546 20 17.25 20H7.25C6.14543 20 5.25 19.1046 5.25 18V7Z" fill="black"/>
</svg>
