<svg width="25" height="24" viewBox="0 0 25 24" fill="none" xmlns="http://www.w3.org/2000/svg">
<path d="M12.25 8.5C12.25 7.94772 11.8023 7.5 11.25 7.5C10.6977 7.5 10.25 7.94772 10.25 8.5V13.5C10.25 14.0523 10.6977 14.5 11.25 14.5H14.25C14.8023 14.5 15.25 14.0523 15.25 13.5C15.25 12.9477 14.8023 12.5 14.25 12.5H12.25V8.5Z" fill="black"/>
<path fill-rule="evenodd" clip-rule="evenodd" d="M12.25 2C6.72715 2 2.25 6.47715 2.25 12C2.25 17.5228 6.72715 22 12.25 22C17.7728 22 22.25 17.5228 22.25 12C22.25 6.47715 17.7728 2 12.25 2ZM4.25 12C4.25 7.58172 7.83172 4 12.25 4C16.6683 4 20.25 7.58172 20.25 12C20.25 16.4183 16.6683 20 12.25 20C7.83172 20 4.25 16.4183 4.25 12Z" fill="black"/>
</svg>
