<svg width="25" height="24" viewBox="0 0 25 24" fill="none" xmlns="http://www.w3.org/2000/svg">
<path d="M10.35 3C7.9874 3 6.15 4.81974 6.15 6.97059C6.15 7.15387 6.16307 7.33371 6.18825 7.50945C6.25356 7.96533 5.99908 8.40686 5.57187 8.57888C4.47857 9.01912 3.75 10.0336 3.75 11.1765C3.75 12.2927 4.45361 13.2947 5.50235 13.7464C5.1037 14.2761 4.8079 14.8877 4.64461 15.5513C2.94917 14.7907 1.75 13.1383 1.75 11.1765C1.75 9.4138 2.72485 7.89465 4.15062 7.05549C4.15021 7.02723 4.15 6.99893 4.15 6.97059C4.15 3.63108 6.96884 1 10.35 1C13.0904 1 15.4528 2.72183 16.2574 5.1527C15.5542 4.89227 14.7937 4.75 14 4.75C13.9441 4.75 13.8883 4.75071 13.8328 4.75211C13.0843 3.70425 11.8158 3 10.35 3Z" fill="black"/>
<path fill-rule="evenodd" clip-rule="evenodd" d="M14.35 6C10.9688 6 8.15 8.63108 8.15 11.9706C8.15 11.9989 8.15021 12.0272 8.15062 12.0555C6.72485 12.8947 5.75 14.4138 5.75 16.1765C5.75 18.8825 8.03158 21 10.75 21H17.95C21.1103 21 23.75 18.5401 23.75 15.4118C23.75 13.1112 22.3155 11.1662 20.3051 10.3038C19.5499 7.79347 17.1468 6 14.35 6ZM10.15 11.9706C10.15 9.81974 11.9874 8 14.35 8C16.4388 8 18.127 9.43019 18.4805 11.2469C18.5505 11.6061 18.811 11.8985 19.1599 12.0091C20.6911 12.4945 21.75 13.8558 21.75 15.4118C21.75 17.3514 20.0917 19 17.95 19H10.75C9.05014 19 7.75 17.6938 7.75 16.1765C7.75 15.0336 8.47857 14.0191 9.57187 13.5789C9.99908 13.4069 10.2536 12.9653 10.1882 12.5094C10.1631 12.3337 10.15 12.1539 10.15 11.9706Z" fill="black"/>
</svg>
