<svg width="25" height="24" viewBox="0 0 25 24" fill="none" xmlns="http://www.w3.org/2000/svg">
<path d="M6.75 9.5C6.75 6.46243 9.21243 4 12.25 4C14.9407 4 17.182 5.93318 17.657 8.48668C17.7236 8.84475 17.9797 9.1383 18.3254 9.25295C20.3161 9.9132 21.75 11.7905 21.75 14C21.75 16.4765 19.9485 18.5342 17.5845 18.9308C17.0399 19.0222 16.6724 19.5378 16.7638 20.0825C16.8552 20.6272 17.3708 20.9946 17.9155 20.9033C21.2269 20.3477 23.75 17.4695 23.75 14C23.75 11.1075 21.9962 8.62697 19.4963 7.55958C18.6409 4.358 15.7217 2 12.25 2C8.10786 2 4.75 5.35786 4.75 9.5C4.75 9.60028 4.75197 9.70014 4.75589 9.79955C2.96048 10.8354 1.75 12.7754 1.75 15C1.75 17.9039 3.81196 20.324 6.55107 20.88C7.09231 20.9899 7.62015 20.6402 7.73001 20.0989C7.83988 19.5577 7.49018 19.0298 6.94893 18.92C5.12356 18.5494 3.75 16.934 3.75 15C3.75 13.3427 4.75818 11.9185 6.19865 11.3117C6.61549 11.1361 6.86256 10.7026 6.80119 10.2544C6.76748 10.0083 6.75 9.75644 6.75 9.5Z" fill="black"/>
<path d="M8.24389 18.1923C8.6448 18.326 8.95938 18.6405 9.09302 19.0415C9.22902 19.4495 9.80614 19.4495 9.94214 19.0415C10.0758 18.6405 10.3904 18.326 10.7913 18.1923C11.1993 18.0563 11.1993 17.4792 10.7913 17.3432C10.3904 17.2096 10.0758 16.895 9.94214 16.4941C9.80614 16.0861 9.22902 16.0861 9.09302 16.4941C8.95938 16.895 8.6448 17.2096 8.24389 17.3432C7.83589 17.4792 7.83589 18.0563 8.24389 18.1923Z" fill="black"/>
<path d="M12.093 22.0415C11.9594 21.6405 11.6448 21.326 11.2439 21.1923C10.8359 21.0563 10.8359 20.4792 11.2439 20.3432C11.6448 20.2096 11.9594 19.895 12.093 19.4941C12.229 19.0861 12.8061 19.0861 12.9421 19.4941C13.0758 19.895 13.3904 20.2096 13.7913 20.3432C14.1993 20.4792 14.1993 21.0563 13.7913 21.1923C13.3904 21.326 13.0758 21.6405 12.9421 22.0415C12.8061 22.4495 12.229 22.4495 12.093 22.0415Z" fill="black"/>
<path d="M14.2439 18.1923C14.6448 18.326 14.9594 18.6405 15.093 19.0415C15.229 19.4495 15.8061 19.4495 15.9421 19.0415C16.0758 18.6405 16.3904 18.326 16.7913 18.1923C17.1993 18.0563 17.1993 17.4792 16.7913 17.3432C16.3904 17.2096 16.0758 16.895 15.9421 16.4941C15.8061 16.0861 15.229 16.0861 15.093 16.4941C14.9594 16.895 14.6448 17.2096 14.2439 17.3432C13.8359 17.4792 13.8359 18.0563 14.2439 18.1923Z" fill="black"/>
</svg>
