<svg width="25" height="24" viewBox="0 0 25 24" fill="none" xmlns="http://www.w3.org/2000/svg">
<path d="M6.75 9.5C6.75 6.46243 9.21243 4 12.25 4C14.9407 4 17.182 5.93318 17.657 8.48668C17.7236 8.84475 17.9797 9.1383 18.3254 9.25295C20.3161 9.9132 21.75 11.7905 21.75 14C21.75 16.7614 19.5114 19 16.75 19C16.1977 19 15.75 19.4477 15.75 20C15.75 20.5523 16.1977 21 16.75 21C20.616 21 23.75 17.866 23.75 14C23.75 11.1075 21.9962 8.62697 19.4963 7.55958C18.6409 4.358 15.7217 2 12.25 2C8.10786 2 4.75 5.35786 4.75 9.5C4.75 9.60028 4.75197 9.70014 4.75589 9.79955C2.96048 10.8354 1.75 12.7754 1.75 15C1.75 18.3137 4.43629 21 7.75 21C8.30228 21 8.75 20.5523 8.75 20C8.75 19.4477 8.30228 19 7.75 19C5.54086 19 3.75 17.2091 3.75 15C3.75 13.3427 4.75818 11.9185 6.19865 11.3117C6.61549 11.1361 6.86256 10.7026 6.80119 10.2544C6.76748 10.0083 6.75 9.75644 6.75 9.5Z" fill="black"/>
<path d="M13.8245 15.5376C14.1214 15.0719 13.9846 14.4537 13.5189 14.1568C13.0532 13.8599 12.435 13.9967 12.1381 14.4624L9.90678 17.9624C9.7105 18.2703 9.69762 18.6607 9.8732 18.9808C10.0488 19.301 10.3849 19.5 10.75 19.5H12.0759L10.9852 21.526C10.7234 22.0122 10.9053 22.6187 11.3916 22.8805C11.8779 23.1423 12.4844 22.9603 12.7462 22.474L14.6305 18.974C14.7973 18.6641 14.789 18.2893 14.6085 17.9872C14.428 17.685 14.102 17.5 13.75 17.5H12.5735L13.8245 15.5376Z" fill="black"/>
</svg>
