<svg width="25" height="24" viewBox="0 0 25 24" fill="none" xmlns="http://www.w3.org/2000/svg">
<path d="M6.25 9.5C6.25 6.46243 8.71243 4 11.75 4C14.4407 4 16.682 5.93318 17.157 8.48668C17.2236 8.84475 17.4797 9.1383 17.8254 9.25295C19.8161 9.9132 21.25 11.7905 21.25 14C21.25 16.7614 19.0114 19 16.25 19C15.6977 19 15.25 19.4477 15.25 20C15.25 20.5523 15.6977 21 16.25 21C20.116 21 23.25 17.866 23.25 14C23.25 11.1075 21.4962 8.62697 18.9963 7.55958C18.1409 4.358 15.2217 2 11.75 2C7.60786 2 4.25 5.35786 4.25 9.5C4.25 9.60028 4.25197 9.70014 4.25589 9.79955C2.46048 10.8354 1.25 12.7754 1.25 15C1.25 18.3137 3.93629 21 7.25 21C7.80228 21 8.25 20.5523 8.25 20C8.25 19.4477 7.80228 19 7.25 19C5.04086 19 3.25 17.2091 3.25 15C3.25 13.3427 4.25818 11.9185 5.69865 11.3117C6.11549 11.1361 6.36256 10.7026 6.30119 10.2544C6.26748 10.0083 6.25 9.75644 6.25 9.5Z" fill="black"/>
<path d="M11.5856 14.2526C11.9645 13.9158 12.5355 13.9158 12.9144 14.2526L14.4144 15.5859C14.8271 15.9528 14.8643 16.5849 14.4974 16.9977C14.1764 17.3588 13.6525 17.4325 13.25 17.1996V22C13.25 22.5523 12.8023 23 12.25 23C11.6977 23 11.25 22.5523 11.25 22V17.1996C10.8475 17.4325 10.3236 17.3588 10.0026 16.9977C9.63567 16.5849 9.67285 15.9528 10.0856 15.5859L11.5856 14.2526Z" fill="black"/>
</svg>
