<svg width="25" height="24" viewBox="0 0 25 24" fill="none" xmlns="http://www.w3.org/2000/svg">
<path d="M6.75 9.5C6.75 6.46243 9.21243 4 12.25 4C14.9407 4 17.182 5.93318 17.657 8.48668C17.7236 8.84475 17.9797 9.1383 18.3254 9.25295C20.3161 9.9132 21.75 11.7905 21.75 14C21.75 16.4765 19.9485 18.5342 17.5845 18.9308C17.0399 19.0222 16.6724 19.5378 16.7638 20.0825C16.8552 20.6272 17.3708 20.9946 17.9155 20.9033C21.2269 20.3477 23.75 17.4695 23.75 14C23.75 11.1075 21.9962 8.62697 19.4963 7.55958C18.6409 4.358 15.7217 2 12.25 2C8.10786 2 4.75 5.35786 4.75 9.5C4.75 9.60028 4.75197 9.70014 4.75589 9.79955C2.96048 10.8354 1.75 12.7754 1.75 15C1.75 17.9039 3.81196 20.324 6.55107 20.88C7.09231 20.9899 7.62015 20.6402 7.73001 20.0989C7.83988 19.5577 7.49018 19.0298 6.94893 18.92C5.12356 18.5494 3.75 16.934 3.75 15C3.75 13.3427 4.75818 11.9185 6.19865 11.3117C6.61549 11.1361 6.86256 10.7026 6.80119 10.2544C6.76748 10.0083 6.75 9.75644 6.75 9.5Z" fill="black"/>
<path d="M11.2115 17.7747C11.3632 17.2437 11.0558 16.6902 10.5247 16.5385C9.99369 16.3868 9.4402 16.6942 9.28848 17.2253L8.28848 20.7253C8.13675 21.2563 8.44424 21.8098 8.97528 21.9615C9.50631 22.1132 10.0598 21.8058 10.2115 21.2747L11.2115 17.7747Z" fill="black"/>
<path d="M13.0247 16.5385C13.5558 16.6902 13.8632 17.2437 13.7115 17.7747L12.7115 21.2747C12.5598 21.8058 12.0063 22.1132 11.4753 21.9615C10.9442 21.8098 10.6368 21.2563 10.7885 20.7253L11.7885 17.2253C11.9402 16.6942 12.4937 16.3868 13.0247 16.5385Z" fill="black"/>
<path d="M16.2115 17.7747C16.3632 17.2437 16.0558 16.6902 15.5247 16.5385C14.9937 16.3868 14.4402 16.6942 14.2885 17.2253L13.2885 20.7253C13.1368 21.2563 13.4442 21.8098 13.9753 21.9615C14.5063 22.1132 15.0598 21.8058 15.2115 21.2747L16.2115 17.7747Z" fill="black"/>
</svg>
