<svg width="25" height="24" viewBox="0 0 25 24" fill="none" xmlns="http://www.w3.org/2000/svg">
<path d="M2.95711 22.7071L22.9571 2.70711C23.3476 2.31658 23.3476 1.68342 22.9571 1.29289C22.5666 0.902369 21.9334 0.902369 21.5429 1.29289L1.54289 21.2929C1.15237 21.6834 1.15237 22.3166 1.54289 22.7071C1.93342 23.0976 2.56658 23.0976 2.95711 22.7071Z" fill="black"/>
<path d="M17.8254 9.25298L19.354 7.72442C21.6619 8.86811 23.25 11.2476 23.25 14C23.25 17.866 20.116 21 16.25 21H7.25C6.88288 21 6.52346 20.967 6.17454 20.9039L8.07843 19H16.25C19.0114 19 21.25 16.7614 21.25 14C21.25 11.7905 19.8162 9.91325 17.8254 9.25298Z" fill="black"/>
<path d="M1.25 15C1.25 16.4459 1.76144 17.7723 2.61329 18.8083L4.03768 17.3839C3.54281 16.7181 3.25 15.8933 3.25 15C3.25 13.3427 4.25818 11.9185 5.69865 11.3117C6.11549 11.1361 6.36256 10.7026 6.30119 10.2544C6.26748 10.0083 6.25 9.75644 6.25 9.5C6.25 6.46243 8.71243 4 11.75 4C13.312 4 14.7225 4.65147 15.724 5.69757L17.1383 4.28324C15.7751 2.87524 13.8651 2 11.75 2C7.60786 2 4.25 5.35786 4.25 9.5C4.25 9.60028 4.25197 9.70014 4.25589 9.79955C2.46048 10.8354 1.25 12.7754 1.25 15Z" fill="black"/>
</svg>
