<svg width="25" height="24" viewBox="0 0 25 24" fill="none" xmlns="http://www.w3.org/2000/svg">
<path d="M21.25 1C21.8023 1 22.25 1.44772 22.25 2V5C22.25 5.55228 21.8023 6 21.25 6C20.6977 6 20.25 5.55228 20.25 5V2C20.25 1.44772 20.6977 1 21.25 1Z" fill="black"/>
<path fill-rule="evenodd" clip-rule="evenodd" d="M11.75 2C7.60786 2 4.25 5.35786 4.25 9.5C4.25 9.60028 4.25197 9.70014 4.25589 9.79955C2.46048 10.8354 1.25 12.7754 1.25 15C1.25 18.3137 3.93629 21 7.25 21H16.25C20.116 21 23.25 17.866 23.25 14C23.25 11.1075 21.4962 8.62697 18.9963 7.55958C18.1409 4.358 15.2217 2 11.75 2ZM6.25 9.5C6.25 6.46243 8.71243 4 11.75 4C14.4407 4 16.682 5.93318 17.157 8.48668C17.2236 8.84475 17.4797 9.1383 17.8254 9.25295C19.8161 9.9132 21.25 11.7905 21.25 14C21.25 16.7614 19.0114 19 16.25 19H7.25C5.04086 19 3.25 17.2091 3.25 15C3.25 13.3427 4.25818 11.9185 5.69865 11.3117C6.11549 11.1361 6.36256 10.7026 6.30119 10.2544C6.26748 10.0083 6.25 9.75644 6.25 9.5Z" fill="black"/>
<path d="M20.25 7.25C20.25 7.80228 20.6977 8.25 21.25 8.25C21.8023 8.25 22.25 7.80228 22.25 7.25C22.25 6.69772 21.8023 6.25 21.25 6.25C20.6977 6.25 20.25 6.69772 20.25 7.25Z" fill="black"/>
</svg>
