<svg width="25" height="24" viewBox="0 0 25 24" fill="none" xmlns="http://www.w3.org/2000/svg">
<path fill-rule="evenodd" clip-rule="evenodd" d="M12.25 2C8.10786 2 4.75 5.35786 4.75 9.5C4.75 9.60028 4.75197 9.70014 4.75589 9.79955C2.96048 10.8354 1.75 12.7754 1.75 15C1.75 18.3137 4.43629 21 7.75 21H16.75C20.616 21 23.75 17.866 23.75 14C23.75 11.1075 21.9962 8.62697 19.4963 7.55958C18.6409 4.358 15.7217 2 12.25 2ZM6.75 9.5C6.75 6.46243 9.21243 4 12.25 4C14.9407 4 17.182 5.93318 17.657 8.48668C17.7236 8.84475 17.9797 9.1383 18.3254 9.25295C20.3161 9.9132 21.75 11.7905 21.75 14C21.75 16.7614 19.5114 19 16.75 19H7.75C5.54086 19 3.75 17.2091 3.75 15C3.75 13.3427 4.75818 11.9185 6.19865 11.3117C6.61549 11.1361 6.86256 10.7026 6.80119 10.2544C6.76748 10.0083 6.75 9.75644 6.75 9.5Z" fill="black"/>
</svg>
