<svg width="25" height="24" viewBox="0 0 25 24" fill="none" xmlns="http://www.w3.org/2000/svg">
<path d="M8.75 2C6.54086 2 4.75 3.79086 4.75 6V9.1459C4.75 9.90344 4.322 10.596 3.64443 10.9348L3.30279 11.1056C2.964 11.275 2.75 11.6212 2.75 12C2.75 12.3788 2.964 12.725 3.30279 12.8944L3.64443 13.0652C4.322 13.404 4.75 14.0966 4.75 14.8541V18C4.75 20.2091 6.54086 22 8.75 22H10.25C10.8023 22 11.25 21.5523 11.25 21C11.25 20.4477 10.8023 20 10.25 20H8.75C7.64543 20 6.75 19.1046 6.75 18V14.8541C6.75 13.7636 6.30653 12.7405 5.55268 12C6.30653 11.2595 6.75 10.2364 6.75 9.1459V6C6.75 4.89543 7.64543 4 8.75 4H10.25C10.8023 4 11.25 3.55228 11.25 3C11.25 2.44772 10.8023 2 10.25 2H8.75Z" fill="black"/>
<path d="M16.75 2C18.9591 2 20.75 3.79086 20.75 6V9.1459C20.75 9.90344 21.178 10.596 21.8556 10.9348L22.1972 11.1056C22.536 11.275 22.75 11.6212 22.75 12C22.75 12.3788 22.536 12.725 22.1972 12.8944L21.8556 13.0652C21.178 13.404 20.75 14.0966 20.75 14.8541V18C20.75 20.2091 18.9591 22 16.75 22H15.25C14.6977 22 14.25 21.5523 14.25 21C14.25 20.4477 14.6977 20 15.25 20H16.75C17.8546 20 18.75 19.1046 18.75 18V14.8541C18.75 13.7636 19.1935 12.7405 19.9473 12C19.1935 11.2595 18.75 10.2364 18.75 9.1459V6C18.75 4.89543 17.8546 4 16.75 4H15.25C14.6977 4 14.25 3.55228 14.25 3C14.25 2.44772 14.6977 2 15.25 2H16.75Z" fill="black"/>
</svg>
