<svg width="25" height="24" viewBox="0 0 25 24" fill="none" xmlns="http://www.w3.org/2000/svg">
<path d="M16.1917 5.33633C16.3775 4.81622 16.1064 4.24401 15.5863 4.05826C15.0662 3.8725 14.494 4.14355 14.3083 4.66366L9.30826 18.6637C9.1225 19.1838 9.39355 19.756 9.91366 19.9417C10.4338 20.1275 11.006 19.8564 11.1917 19.3363L16.1917 5.33633Z" fill="black"/>
<path d="M9.58205 7.4453C9.8884 7.90483 9.76423 8.5257 9.3047 8.83205L4.55278 12L9.3047 15.1679C9.76423 15.4743 9.8884 16.0952 9.58205 16.5547C9.2757 17.0142 8.65483 17.1384 8.1953 16.832L2.1953 12.832C1.9171 12.6466 1.75 12.3344 1.75 12C1.75 11.6656 1.9171 11.3534 2.1953 11.1679L8.1953 7.16795C8.65483 6.86159 9.2757 6.98577 9.58205 7.4453Z" fill="black"/>
<path d="M15.9179 7.4453C15.6116 7.90483 15.7358 8.5257 16.1953 8.83205L20.9472 12L16.1953 15.1679C15.7358 15.4743 15.6116 16.0952 15.9179 16.5547C16.2243 17.0142 16.8452 17.1384 17.3047 16.832L23.3047 12.832C23.5829 12.6466 23.75 12.3344 23.75 12C23.75 11.6656 23.5829 11.3534 23.3047 11.1679L17.3047 7.16795C16.8452 6.86159 16.2243 6.98577 15.9179 7.4453Z" fill="black"/>
</svg>
