<svg width="25" height="24" viewBox="0 0 25 24" fill="none" xmlns="http://www.w3.org/2000/svg">
<path d="M3.75 9.99998C3.19772 9.99998 2.75 9.55226 2.75 8.99998C2.75 6.51069 3.58884 4.73346 4.81606 3.58294C5.19934 3.22361 5.61293 2.93261 6.03831 2.70286C5.7457 2.40664 5.659 1.94591 5.85557 1.55276C6.10256 1.05878 6.70324 0.858558 7.19721 1.10555L9.19721 2.10555C9.69119 2.35254 9.89142 2.95321 9.64443 3.44719L8.64443 5.44719C8.39744 5.94117 7.79676 6.14139 7.30279 5.8944C6.80881 5.64741 6.60858 5.04674 6.85557 4.55276L6.8659 4.5321C6.6295 4.67111 6.39936 4.84006 6.18394 5.04201C5.41116 5.76649 4.75 6.98926 4.75 8.99998C4.75 9.55226 4.30228 9.99998 3.75 9.99998Z" fill="black"/>
<path d="M6.54047 16.5077C7.18192 16.7215 7.68526 17.2249 7.89907 17.8663C8.11668 18.5191 9.04006 18.5191 9.25767 17.8663C9.47148 17.2249 9.97482 16.7215 10.6163 16.5077C11.2691 16.2901 11.2691 15.3667 10.6163 15.1491C9.97482 14.9353 9.47148 14.432 9.25767 13.7905C9.04006 13.1377 8.11668 13.1377 7.89907 13.7905C7.68526 14.432 7.18192 14.9353 6.54047 15.1491C5.88766 15.3667 5.88766 16.2901 6.54047 16.5077Z" fill="black"/>
<path fill-rule="evenodd" clip-rule="evenodd" d="M9.25 8.49998C9.25 8.84783 9.27545 9.19014 9.32465 9.52503C9.13531 9.50844 8.94365 9.49998 8.75 9.49998C5.16015 9.49998 2.25 12.4101 2.25 16C2.25 19.5898 5.16015 22.5 8.75 22.5C12.3399 22.5 15.25 19.5898 15.25 16C15.25 15.8063 15.2415 15.6147 15.2249 15.4253C15.5598 15.4745 15.9021 15.5 16.25 15.5C20.116 15.5 23.25 12.366 23.25 8.49998C23.25 4.63398 20.116 1.49998 16.25 1.49998C12.384 1.49998 9.25 4.63398 9.25 8.49998ZM16.25 3.49997C13.4886 3.49997 11.25 5.73855 11.25 8.49998C11.25 9.06735 11.3441 9.61072 11.5168 10.1166C12.8835 10.7604 13.9896 11.8664 14.6334 13.2332C15.1393 13.4059 15.6826 13.5 16.25 13.5C19.0114 13.5 21.25 11.2614 21.25 8.49998C21.25 5.73855 19.0114 3.49997 16.25 3.49997ZM8.75 11.5C6.26472 11.5 4.25 13.5147 4.25 16C4.25 18.4853 6.26472 20.5 8.75 20.5C11.2353 20.5 13.25 18.4853 13.25 16C13.25 13.5147 11.2353 11.5 8.75 11.5Z" fill="black"/>
<path d="M22.75 15C22.75 14.4477 22.3023 14 21.75 14C21.1977 14 20.75 14.4477 20.75 15C20.75 17.0107 20.0888 18.2335 19.3161 18.9579C19.1006 19.1599 18.8705 19.3288 18.6341 19.4678L18.6444 19.4472C18.8914 18.9532 18.6912 18.3525 18.1972 18.1055C17.7032 17.8586 17.1026 18.0588 16.8556 18.5528L15.8556 20.5528C15.6086 21.0467 15.8088 21.6474 16.3028 21.8944L18.3028 22.8944C18.7968 23.1414 19.3974 22.9412 19.6444 22.4472C19.841 22.054 19.7543 21.5933 19.4617 21.2971C19.8871 21.0673 20.3007 20.7763 20.6839 20.417C21.9112 19.2665 22.75 17.4893 22.75 15Z" fill="black"/>
</svg>
