<svg width="25" height="24" viewBox="0 0 25 24" fill="none" xmlns="http://www.w3.org/2000/svg">
<path fill-rule="evenodd" clip-rule="evenodd" d="M9.32465 9.52505C9.27545 9.19017 9.25 8.84786 9.25 8.5C9.25 4.63401 12.384 1.5 16.25 1.5C20.116 1.5 23.25 4.63401 23.25 8.5C23.25 12.366 20.116 15.5 16.25 15.5C15.9021 15.5 15.5598 15.4746 15.2249 15.4253C15.2415 15.6147 15.25 15.8064 15.25 16C15.25 19.5899 12.3399 22.5 8.75 22.5C5.16015 22.5 2.25 19.5899 2.25 16C2.25 12.4101 5.16015 9.5 8.75 9.5C8.94365 9.5 9.13531 9.50847 9.32465 9.52505ZM11.25 8.5C11.25 5.73858 13.4886 3.5 16.25 3.5C19.0114 3.5 21.25 5.73858 21.25 8.5C21.25 11.2614 19.0114 13.5 16.25 13.5C15.6826 13.5 15.1393 13.4059 14.6334 13.2332C13.9896 11.8665 12.8835 10.7604 11.5168 10.1166C11.3441 9.61074 11.25 9.06737 11.25 8.5ZM4.25 16C4.25 13.5147 6.26472 11.5 8.75 11.5C11.2353 11.5 13.25 13.5147 13.25 16C13.25 18.4853 11.2353 20.5 8.75 20.5C6.26472 20.5 4.25 18.4853 4.25 16Z" fill="black"/>
</svg>
