<svg width="25" height="24" viewBox="0 0 25 24" fill="none" xmlns="http://www.w3.org/2000/svg">
<path fill-rule="evenodd" clip-rule="evenodd" d="M14.75 7.47013V6.5C14.75 5.07302 13.843 3.9241 12.676 3.18146C11.4971 2.43128 9.92959 2 8.25 2C6.57041 2 5.00289 2.43128 3.82404 3.18146C2.65704 3.9241 1.75 5.07302 1.75 6.5V17.5C1.75 18.927 2.65704 20.0759 3.82404 20.8185C5.00289 21.5687 6.57041 22 8.25 22C9.92959 22 11.4971 21.5687 12.676 20.8185C13.2076 20.4802 13.6852 20.0576 14.0478 19.5628C14.3367 20.1591 14.8109 20.6564 15.3589 21.0294C16.2694 21.649 17.4713 22 18.75 22C20.0287 22 21.2306 21.649 22.1411 21.0294C23.0463 20.4133 23.75 19.4583 23.75 18.2778V9.72222C23.75 8.54172 23.0463 7.58668 22.1411 6.97061C21.2306 6.35099 20.0287 6 18.75 6C17.4713 6 16.2694 6.35099 15.3589 6.97061C15.1421 7.11819 14.9368 7.28521 14.75 7.47013ZM3.75 6.5C3.75 5.99399 4.07417 5.39291 4.89779 4.86879C5.70954 4.35222 6.89203 4 8.25 4C9.60797 4 10.7905 4.35222 11.6022 4.86879C12.4258 5.39291 12.75 5.99399 12.75 6.5C12.75 7.00601 12.4258 7.60709 11.6022 8.13121C10.7905 8.64778 9.60797 9 8.25 9C6.89203 9 5.70954 8.64778 4.89779 8.13121C4.07417 7.60709 3.75 7.00601 3.75 6.5ZM12.676 9.81854C12.7008 9.80275 12.7254 9.78679 12.75 9.77064V10.5C12.75 11.006 12.4258 11.6071 11.6022 12.1312C10.7905 12.6478 9.60797 13 8.25 13C6.89203 13 5.70954 12.6478 4.89779 12.1312C4.07417 11.6071 3.75 11.006 3.75 10.5V9.77064C3.77456 9.78679 3.79924 9.80275 3.82404 9.81854C5.00289 10.5687 6.57041 11 8.25 11C9.92959 11 11.4971 10.5687 12.676 9.81854ZM12.676 13.8185C12.7008 13.8028 12.7254 13.7868 12.75 13.7706V14.5C12.75 15.006 12.4258 15.6071 11.6022 16.1312C10.7905 16.6478 9.60797 17 8.25 17C6.89203 17 5.70954 16.6478 4.89779 16.1312C4.07417 15.6071 3.75 15.006 3.75 14.5V13.7706C3.77456 13.7868 3.79924 13.8028 3.82404 13.8185C5.00289 14.5687 6.57041 15 8.25 15C9.92959 15 11.4971 14.5687 12.676 13.8185ZM12.676 17.8185L12.7146 17.7937C12.6108 18.2289 12.2713 18.7054 11.6022 19.1312C10.7905 19.6478 9.60797 20 8.25 20C6.89203 20 5.70954 19.6478 4.89779 19.1312C4.22871 18.7054 3.88923 18.2289 3.7854 17.7937L3.82404 17.8185C5.00289 18.5687 6.57041 19 8.25 19C9.92959 19 11.4971 18.5687 12.676 17.8185ZM15.75 9.72222C15.75 9.39928 15.9417 8.99321 16.4842 8.62403C17.0214 8.2584 17.8195 8 18.75 8C19.6805 8 20.4786 8.2584 21.0158 8.62403C21.5583 8.99321 21.75 9.39928 21.75 9.72222C21.75 10.0452 21.5583 10.4512 21.0158 10.8204C20.4786 11.186 19.6805 11.4444 18.75 11.4444C17.8195 11.4444 17.0214 11.186 16.4842 10.8204C15.9417 10.4512 15.75 10.0452 15.75 9.72222ZM18.75 13.4444C19.8531 13.4444 20.899 13.1832 21.75 12.7137V12.8333C21.75 13.1563 21.5583 13.5623 21.0158 13.9315C20.4786 14.2972 19.6805 14.5556 18.75 14.5556C17.8195 14.5556 17.0214 14.2972 16.4842 13.9315C15.9417 13.5623 15.75 13.1563 15.75 12.8333V12.7137C16.601 13.1832 17.6469 13.4444 18.75 13.4444ZM18.75 16.5556C19.8531 16.5556 20.899 16.2944 21.75 15.8248V15.9444C21.75 16.2674 21.5583 16.6735 21.0158 17.0426C20.4786 17.4083 19.6805 17.6667 18.75 17.6667C17.8195 17.6667 17.0214 17.4083 16.4842 17.0426C15.9417 16.6735 15.75 16.2674 15.75 15.9444V15.8248C16.601 16.2944 17.6469 16.5556 18.75 16.5556ZM18.75 19.6667C19.661 19.6667 20.5331 19.4885 21.2886 19.1619C21.2097 19.234 21.1191 19.3057 21.0158 19.376C20.4786 19.7416 19.6805 20 18.75 20C17.8195 20 17.0214 19.7416 16.4842 19.376C16.3809 19.3057 16.2903 19.234 16.2114 19.1619C16.9669 19.4885 17.839 19.6667 18.75 19.6667Z" fill="black"/>
</svg>
