<svg width="25" height="24" viewBox="0 0 25 24" fill="none" xmlns="http://www.w3.org/2000/svg">
<path fill-rule="evenodd" clip-rule="evenodd" d="M1.75 19.5C1.75 20.8807 2.86929 22 4.25 22H9.25C10.6307 22 11.75 20.8807 11.75 19.5V4.5C11.75 3.11929 10.6307 2 9.25 2H4.25C2.86929 2 1.75 3.11929 1.75 4.5V19.5ZM4.25 20C3.97386 20 3.75 19.7761 3.75 19.5L3.75 4.5C3.75 4.22386 3.97386 4 4.25 4L9.25 4C9.52614 4 9.75 4.22386 9.75 4.5V19.5C9.75 19.7761 9.52614 20 9.25 20H4.25Z" fill="black"/>
<path fill-rule="evenodd" clip-rule="evenodd" d="M15.25 2C13.8693 2 12.75 3.11929 12.75 4.5V19.5C12.75 20.8807 13.8693 22 15.25 22H20.25C21.6307 22 22.75 20.8807 22.75 19.5V4.5C22.75 3.11929 21.6307 2 20.25 2H15.25ZM14.75 4.5C14.75 4.22386 14.9739 4 15.25 4H20.25C20.5261 4 20.75 4.22386 20.75 4.5V19.5C20.75 19.7761 20.5261 20 20.25 20H15.25C14.9739 20 14.75 19.7761 14.75 19.5V4.5Z" fill="black"/>
</svg>
