<svg width="25" height="24" viewBox="0 0 25 24" fill="none" xmlns="http://www.w3.org/2000/svg">
<path fill-rule="evenodd" clip-rule="evenodd" d="M15.7778 9.31953C15.7524 7.80991 14.1275 6.87173 12.8074 7.60455L9.69108 9.33452C9.04529 9.69302 8.64967 10.3783 8.66209 11.1168L8.72204 14.6806C8.74744 16.1902 10.3724 17.1284 11.6925 16.3956L14.8088 14.6656C15.4546 14.3071 15.8502 13.6218 15.8378 12.8833L15.7778 9.31953ZM10.6618 11.0831L13.7781 9.35317L13.8381 12.917L10.7218 14.6469L10.6618 11.0831Z" fill="black"/>
<path fill-rule="evenodd" clip-rule="evenodd" d="M12.25 1C6.17487 1 1.25 5.92487 1.25 12C1.25 18.0751 6.17487 23 12.25 23C18.3251 23 23.25 18.0751 23.25 12C23.25 5.92487 18.3251 1 12.25 1ZM3.25 12C3.25 7.02944 7.27944 3 12.25 3C17.2206 3 21.25 7.02944 21.25 12C21.25 16.9706 17.2206 21 12.25 21C7.27944 21 3.25 16.9706 3.25 12Z" fill="black"/>
</svg>
