<svg width="25" height="24" viewBox="0 0 25 24" fill="none" xmlns="http://www.w3.org/2000/svg">
<path fill-rule="evenodd" clip-rule="evenodd" d="M7.80902 1C7.48758 1 7.18573 1.15452 6.99778 1.41529C6.80983 1.67606 6.75869 2.01128 6.86034 2.31623L7.55244 4.39253C7.72238 4.90236 7.80902 5.43626 7.80902 5.97367V9.08871C7.80902 9.63301 7.67047 10.1684 7.40642 10.6443L3.02354 18.5446C1.91424 20.5442 3.36023 23 5.64689 23H18.8535C21.1401 23 22.5861 20.5442 21.4768 18.5447L17.3368 11.082C16.9157 10.323 16.6995 9.46752 16.7094 8.59963L16.7401 5.89554C16.7456 5.40697 16.8228 4.92185 16.969 4.45565L17.6455 2.29934C17.7408 1.99562 17.6858 1.66468 17.4974 1.40811C17.309 1.15154 17.0097 1 16.6914 1H7.80902ZM9.44981 3.76007L9.19645 3H15.3296L15.0607 3.85697C14.856 4.50965 14.748 5.18882 14.7402 5.87282L14.7095 8.57691C14.6957 9.79196 14.9984 10.9897 15.5879 12.0523L19.7279 19.5149C20.0977 20.1814 19.6157 21 18.8535 21H5.64689C4.88467 21 4.40267 20.1814 4.77244 19.5149L9.15532 11.6146C9.42059 11.1364 9.60786 10.6213 9.71209 10.0887H11.2502C11.8025 10.0887 12.2502 9.64099 12.2502 9.08871C12.2502 8.53642 11.8025 8.08871 11.2502 8.08871H9.80902V7H11.2502C11.8025 7 12.2502 6.55228 12.2502 6C12.2502 5.44772 11.8025 5 11.2502 5H9.74098C9.6819 4.57937 9.58456 4.16432 9.44981 3.76007Z" fill="black"/>
</svg>
