<svg width="25" height="24" viewBox="0 0 25 24" fill="none" xmlns="http://www.w3.org/2000/svg">
<path fill-rule="evenodd" clip-rule="evenodd" d="M14.25 2C12.0409 2 10.25 3.79086 10.25 6V8H6.25C4.04086 8 2.25 9.79086 2.25 12V18C2.25 20.2091 4.04086 22 6.25 22H10.25C12.4591 22 14.25 20.2091 14.25 18V16H18.25C20.4591 16 22.25 14.2091 22.25 12V6C22.25 3.79086 20.4591 2 18.25 2H14.25ZM14.25 14H18.25C19.3546 14 20.25 13.1046 20.25 12V6C20.25 4.89543 19.3546 4 18.25 4H14.25C13.1454 4 12.25 4.89543 12.25 6V8.53513C13.4456 9.22675 14.25 10.5194 14.25 12V14ZM4.25 12C4.25 10.8954 5.14543 10 6.25 10H10.25C11.3546 10 12.25 10.8954 12.25 12V18C12.25 19.1046 11.3546 20 10.25 20H6.25C5.14543 20 4.25 19.1046 4.25 18V12Z" fill="black"/>
</svg>
