<svg width="25" height="24" viewBox="0 0 25 24" fill="none" xmlns="http://www.w3.org/2000/svg">
<path d="M16.5429 2.79289C16.9334 2.40237 17.5666 2.40237 17.9571 2.79289L21.9571 6.79289C22.3476 7.18342 22.3476 7.81658 21.9571 8.20711C21.5666 8.59763 20.9334 8.59763 20.5429 8.20711L18.25 5.91421V7.5C18.25 15.232 11.982 21.5 4.25 21.5C3.69772 21.5 3.25 21.0523 3.25 20.5C3.25 19.9477 3.69772 19.5 4.25 19.5C10.8774 19.5 16.25 14.1274 16.25 7.5V5.91421L13.9571 8.20711C13.5666 8.59763 12.9334 8.59763 12.5429 8.20711C12.1524 7.81658 12.1524 7.18342 12.5429 6.79289L16.5429 2.79289Z" fill="black"/>
</svg>
