<svg width="25" height="24" viewBox="0 0 25 24" fill="none" xmlns="http://www.w3.org/2000/svg">
<path d="M21.9571 15.7929C22.3476 16.1834 22.3476 16.8166 21.9571 17.2071L17.9571 21.2071C17.5666 21.5976 16.9334 21.5976 16.5429 21.2071C16.1524 20.8166 16.1524 20.1834 16.5429 19.7929L18.8358 17.5L17.25 17.5C9.51801 17.5 3.25 11.232 3.25 3.5C3.25 2.94772 3.69771 2.5 4.25 2.5C4.80228 2.5 5.25 2.94772 5.25 3.5C5.25 10.1274 10.6226 15.5 17.25 15.5L18.8358 15.5L16.5429 13.2071C16.1524 12.8166 16.1524 12.1834 16.5429 11.7929C16.9334 11.4024 17.5666 11.4024 17.9571 11.7929L21.9571 15.7929Z" fill="black"/>
</svg>
