<svg width="25" height="24" viewBox="0 0 25 24" fill="none" xmlns="http://www.w3.org/2000/svg">
<path d="M8.95711 21.2071C8.56658 21.5976 7.93342 21.5976 7.54289 21.2071L3.54289 17.2071C3.15237 16.8166 3.15237 16.1834 3.54289 15.7929C3.93342 15.4024 4.56658 15.4024 4.95711 15.7929L7.25 18.0858V16.5C7.25 8.76801 13.518 2.5 21.25 2.5C21.8023 2.5 22.25 2.94772 22.25 3.5C22.25 4.05228 21.8023 4.5 21.25 4.5C14.6226 4.5 9.25 9.87258 9.25 16.5V18.0858L11.5429 15.7929C11.9334 15.4024 12.5666 15.4024 12.9571 15.7929C13.3476 16.1834 13.3476 16.8166 12.9571 17.2071L8.95711 21.2071Z" fill="black"/>
</svg>
