<svg width="25" height="24" viewBox="0 0 25 24" fill="none" xmlns="http://www.w3.org/2000/svg">
<path d="M3.54289 8.20711C3.15237 7.81658 3.15237 7.18342 3.54289 6.79289L7.54289 2.79289C7.93342 2.40237 8.56658 2.40237 8.95711 2.79289C9.34763 3.18342 9.34763 3.81658 8.95711 4.20711L6.66421 6.5H8.25C15.982 6.5 22.25 12.768 22.25 20.5C22.25 21.0523 21.8023 21.5 21.25 21.5C20.6977 21.5 20.25 21.0523 20.25 20.5C20.25 13.8726 14.8774 8.5 8.25 8.5H6.66421L8.95711 10.7929C9.34763 11.1834 9.34763 11.8166 8.95711 12.2071C8.56658 12.5976 7.93342 12.5976 7.54289 12.2071L3.54289 8.20711Z" fill="black"/>
</svg>
