<svg width="25" height="24" viewBox="0 0 25 24" fill="none" xmlns="http://www.w3.org/2000/svg">
<path d="M3.54289 17.2071C3.15237 16.8166 3.15237 16.1834 3.54289 15.7929L7.54289 11.7929C7.93342 11.4024 8.56658 11.4024 8.95711 11.7929C9.34763 12.1834 9.34763 12.8166 8.95711 13.2071L6.66421 15.5L8.25 15.5C14.8774 15.5 20.25 10.1274 20.25 3.5C20.25 2.94772 20.6977 2.5 21.25 2.5C21.8023 2.5 22.25 2.94772 22.25 3.5C22.25 11.232 15.982 17.5 8.25 17.5L6.66421 17.5L8.95711 19.7929C9.34763 20.1834 9.34763 20.8166 8.95711 21.2071C8.56658 21.5976 7.93342 21.5976 7.54289 21.2071L3.54289 17.2071Z" fill="black"/>
</svg>
