<svg width="25" height="24" viewBox="0 0 25 24" fill="none" xmlns="http://www.w3.org/2000/svg">
<path d="M8.95711 2.79289C8.56658 2.40237 7.93342 2.40237 7.54289 2.79289L3.54289 6.79289C3.15237 7.18342 3.15237 7.81658 3.54289 8.20711C3.93342 8.59763 4.56658 8.59763 4.95711 8.20711L7.25 5.91421V7.5C7.25 15.232 13.518 21.5 21.25 21.5C21.8023 21.5 22.25 21.0523 22.25 20.5C22.25 19.9477 21.8023 19.5 21.25 19.5C14.6226 19.5 9.25 14.1274 9.25 7.5V5.91421L11.5429 8.20711C11.9334 8.59763 12.5666 8.59763 12.9571 8.20711C13.3476 7.81658 13.3476 7.18342 12.9571 6.79289L8.95711 2.79289Z" fill="black"/>
</svg>
