<svg width="25" height="24" viewBox="0 0 25 24" fill="none" xmlns="http://www.w3.org/2000/svg">
<path d="M21.9571 8.20711C22.3476 7.81658 22.3476 7.18342 21.9571 6.79289L17.9571 2.79289C17.5666 2.40237 16.9334 2.40237 16.5429 2.79289C16.1524 3.18342 16.1524 3.81658 16.5429 4.20711L18.8358 6.5H17.25C9.51801 6.5 3.25 12.768 3.25 20.5C3.25 21.0523 3.69772 21.5 4.25 21.5C4.80229 21.5 5.25 21.0523 5.25 20.5C5.25 13.8726 10.6226 8.5 17.25 8.5H18.8358L16.5429 10.7929C16.1524 11.1834 16.1524 11.8166 16.5429 12.2071C16.9334 12.5976 17.5666 12.5976 17.9571 12.2071L21.9571 8.20711Z" fill="black"/>
</svg>
