<svg width="25" height="24" viewBox="0 0 25 24" fill="none" xmlns="http://www.w3.org/2000/svg">
<path fill-rule="evenodd" clip-rule="evenodd" d="M7.75 2C7.75 1.44772 7.30228 1 6.75 1C6.19772 1 5.75 1.44772 5.75 2V5H3.75C3.19772 5 2.75 5.44772 2.75 6C2.75 6.55228 3.19772 7 3.75 7H5.75V17C5.75 18.1046 6.64543 19 7.75 19H17.75V22C17.75 22.5523 18.1977 23 18.75 23C19.3023 23 19.75 22.5523 19.75 22V19H21.75C22.3023 19 22.75 18.5523 22.75 18C22.75 17.4477 22.3023 17 21.75 17H19.75V7C19.75 5.89543 18.8546 5 17.75 5H7.75V2ZM7.75 17V7H17.75V17H7.75Z" fill="black"/>
</svg>
