<svg width="25" height="24" viewBox="0 0 25 24" fill="none" xmlns="http://www.w3.org/2000/svg">
<path fill-rule="evenodd" clip-rule="evenodd" d="M3.25 3.5C2.69772 3.5 2.25 3.94772 2.25 4.5V16.5C2.25 18.7091 4.04086 20.5 6.25 20.5H14.25C16.1138 20.5 17.6799 19.2253 18.124 17.5001H18.9326C21.317 17.5001 23.25 15.5671 23.25 13.1826V10.8616C23.25 8.98625 21.8038 7.76532 20.4407 7.32317C19.7445 7.09732 18.9668 7.03175 18.25 7.2189V4.5C18.25 3.94772 17.8023 3.5 17.25 3.5H3.25ZM18.25 9.89613V15.5L18.9326 15.5001C20.2125 15.5001 21.25 14.4625 21.25 13.1826V10.8616C21.25 10.1511 20.6863 9.50542 19.8236 9.22558C19.411 9.09175 19.0268 9.08193 18.7506 9.15525C18.496 9.22283 18.3588 9.34729 18.2846 9.51854C18.2696 9.55322 18.25 9.63715 18.25 9.89613ZM16.25 5.5H4.25V16.5C4.25 17.6046 5.14543 18.5 6.25 18.5H14.25C15.3546 18.5 16.25 17.6046 16.25 16.5V5.5Z" fill="black"/>
</svg>
