<svg width="25" height="24" viewBox="0 0 25 24" fill="none" xmlns="http://www.w3.org/2000/svg">
<path fill-rule="evenodd" clip-rule="evenodd" d="M13.75 6.82929C14.9152 6.41746 15.75 5.30622 15.75 4C15.75 2.34315 14.4069 1 12.75 1C11.0931 1 9.75 2.34315 9.75 4C9.75 5.30622 10.5848 6.41746 11.75 6.82929V11H7.75C5.54086 11 3.75 12.7909 3.75 15V17.1707C2.58481 17.5825 1.75 18.6938 1.75 20C1.75 21.6569 3.09315 23 4.75 23C6.40685 23 7.75 21.6569 7.75 20C7.75 18.6938 6.91519 17.5825 5.75 17.1707V15C5.75 13.8954 6.64543 13 7.75 13H11.75L11.75 17.1707C10.5848 17.5825 9.75 18.6938 9.75 20C9.75 21.6569 11.0931 23 12.75 23C14.4069 23 15.75 21.6569 15.75 20C15.75 18.6938 14.9152 17.5825 13.75 17.1707L13.75 13H17.75C18.8546 13 19.75 13.8954 19.75 15V17.1707C18.5848 17.5825 17.75 18.6938 17.75 20C17.75 21.6569 19.0931 23 20.75 23C22.4069 23 23.75 21.6569 23.75 20C23.75 18.6938 22.9152 17.5825 21.75 17.1707V15C21.75 12.7909 19.9591 11 17.75 11H13.75V6.82929ZM12.75 3C13.3023 3 13.75 3.44772 13.75 4C13.75 4.55228 13.3023 5 12.75 5C12.1977 5 11.75 4.55228 11.75 4C11.75 3.44772 12.1977 3 12.75 3ZM20.75 19C20.1977 19 19.75 19.4477 19.75 20C19.75 20.5523 20.1977 21 20.75 21C21.3023 21 21.75 20.5523 21.75 20C21.75 19.4477 21.3023 19 20.75 19ZM12.75 19C13.3023 19 13.75 19.4477 13.75 20C13.75 20.5523 13.3023 21 12.75 21C12.1977 21 11.75 20.5523 11.75 20C11.75 19.4477 12.1977 19 12.75 19ZM4.75 19C5.30228 19 5.75 19.4477 5.75 20C5.75 20.5523 5.30228 21 4.75 21C4.19772 21 3.75 20.5523 3.75 20C3.75 19.4477 4.19772 19 4.75 19Z" fill="black"/>
</svg>
