<svg width="25" height="24" viewBox="0 0 25 24" fill="none" xmlns="http://www.w3.org/2000/svg">
<path fill-rule="evenodd" clip-rule="evenodd" d="M1.25 5.89991C1.25 3.69077 3.04086 1.8999 5.25 1.8999H15.25C17.4591 1.8999 19.25 3.69076 19.25 5.8999V6.99994C19.25 7.05648 19.2453 7.11192 19.2363 7.1659C20.4086 7.57384 21.25 8.68866 21.25 10V18C21.25 19.6569 19.9069 21 18.25 21H14.25C12.9738 21 11.8838 20.2032 11.4502 19.0799C11.3855 19.093 11.3186 19.0999 11.25 19.0999H7.05001C6.49773 19.0999 6.05001 18.6522 6.05001 18.0999C6.05001 17.5476 6.49773 17.0999 7.05001 17.0999H9.25001V16.6999H5.25C3.04086 16.6999 1.25 14.909 1.25 12.6999V5.89991ZM11.25 14.6999V10C11.25 8.34315 12.5931 7 14.25 7H17.25C17.25 6.99998 17.25 7.00002 17.25 7V5.8999C17.25 4.79533 16.3546 3.8999 15.25 3.8999H5.25C4.14543 3.8999 3.25 4.79533 3.25 5.89991V12.6999C3.25 13.8045 4.14543 14.6999 5.25 14.6999H11.25ZM13.25 10C13.25 9.44772 13.6977 9 14.25 9H14.5207C14.7031 9.19437 14.9624 9.31579 15.25 9.31579H17.25C17.5376 9.31579 17.7969 9.19437 17.9793 9H18.25C18.8023 9 19.25 9.44772 19.25 10V18C19.25 18.5523 18.8023 19 18.25 19H14.25C13.6977 19 13.25 18.5523 13.25 18V10Z" fill="black"/>
</svg>
