<svg width="25" height="24" viewBox="0 0 25 24" fill="none" xmlns="http://www.w3.org/2000/svg">
<path fill-rule="evenodd" clip-rule="evenodd" d="M7.84771 16.2079C7.41138 16.7123 6.77198 17.0307 6.05948 17.0307L5.30526 17.0307C5.12403 17.0307 4.96822 17.0308 4.82707 17.0167C3.47059 16.8808 2.39738 15.7892 2.26378 14.4094C2.24988 14.2658 2.24994 14.1074 2.25001 13.923V6.57655C2.24994 6.3922 2.24988 6.23374 2.26378 6.09016C2.39738 4.71042 3.47059 3.61881 4.82707 3.48291C4.96823 3.46877 5.12404 3.46884 5.30528 3.46891L6.05948 3.46892C6.8408 3.46892 7.53421 3.85172 7.96834 4.44298L9.94382 3.18706C10.3272 2.94277 10.6666 2.72647 11.0561 2.61284C11.4456 2.49921 11.8461 2.49965 12.2985 2.50016L16.1764 2.50011C16.7649 2.49927 17.2868 2.49852 17.7771 2.68592C18.2674 2.87331 18.6597 3.22341 19.102 3.61819L20.6235 4.97252L20.7327 5.06941C21.2644 5.54105 21.7366 5.95997 21.9944 6.53764C22.2521 7.11531 22.251 7.75268 22.2498 8.47028L22.2497 8.61761L22.2497 9.95116C22.2497 10.7524 22.2498 11.443 22.1809 11.999C22.1073 12.5931 21.942 13.167 21.5137 13.6498C21.4483 13.7235 21.3792 13.7938 21.3067 13.8603C20.8321 14.296 20.2678 14.4641 19.6838 14.5389C19.1371 14.609 18.4582 14.609 17.6705 14.6089L17.4879 14.6089C16.875 14.6089 16.5086 14.6108 16.2549 14.6439L16.2323 14.647L16.2397 14.6689C16.324 14.9145 16.4862 15.2487 16.7603 15.8063L17.4832 17.2768L17.4933 17.2975C18.1887 18.7274 17.6208 20.4601 16.2211 21.1796L16.2008 21.19L16.1863 21.1973C15.1574 21.7164 13.9229 21.5583 13.0526 20.7961L7.84771 16.2079ZM14.2954 19.3279C14.5855 19.582 14.997 19.6347 15.34 19.4617L15.349 19.4571L15.362 19.4505C15.8285 19.2107 16.0178 18.6331 15.786 18.1565L15.0313 16.6211C14.7911 16.1326 14.5712 15.6853 14.4415 15.3078C14.3054 14.9115 14.1929 14.3868 14.4212 13.8453C14.4956 13.6688 14.5954 13.5045 14.7173 13.3579C15.0914 12.9079 15.6032 12.7757 16.0125 12.7223C16.4025 12.6714 16.8941 12.6715 17.4311 12.6715L17.6121 12.6715C18.4748 12.6715 19.0323 12.6697 19.4457 12.6167C19.8352 12.5668 19.9616 12.4854 20.0306 12.422C20.0548 12.3998 20.0778 12.3764 20.0996 12.3518C20.1619 12.2816 20.242 12.153 20.2911 11.7568C20.3432 11.3363 20.345 10.7693 20.345 9.89185V8.61761C20.345 7.66484 20.3251 7.48441 20.2598 7.3382C20.1946 7.19199 20.0742 7.05795 19.3693 6.43055L17.9379 5.15665C17.3526 4.63574 17.2316 4.54708 17.1072 4.49951C16.9827 4.45195 16.8342 4.43762 16.0565 4.43762H12.39C11.7949 4.43762 11.6803 4.44623 11.5812 4.47515C11.4821 4.50407 11.3804 4.55853 10.8758 4.87935L8.44039 6.42756V14.1666L14.2954 19.3279ZM6.05948 15.0933C6.32247 15.0933 6.53566 14.8764 6.53566 14.6089V5.89066C6.53566 5.62316 6.32247 5.40631 6.05948 5.40631H5.34521C5.10144 5.40631 5.04859 5.40749 5.01377 5.41097C4.56161 5.45627 4.20387 5.82014 4.15934 6.28006C4.15591 6.31548 4.15475 6.36923 4.15475 6.61718V13.8824C4.15475 14.1303 4.15591 14.1841 4.15934 14.2195C4.20387 14.6794 4.56161 15.0433 5.01377 15.0886C5.04859 15.0921 5.10144 15.0933 5.34521 15.0933H6.05948Z" fill="black"/>
</svg>
