<svg width="25" height="24" viewBox="0 0 25 24" fill="none" xmlns="http://www.w3.org/2000/svg">
<path d="M11.5165 10.7726C12.0047 10.2844 12.0047 9.49297 11.5165 9.00482C11.0284 8.51666 10.2369 8.51666 9.74874 9.00482C9.26059 9.49297 9.26059 10.2844 9.74874 10.7726C10.2369 11.2607 11.0284 11.2607 11.5165 10.7726Z" fill="black"/>
<path d="M15.7592 13.2475C16.2473 13.7357 16.2473 14.5271 15.7592 15.0153C15.271 15.5034 14.4796 15.5034 13.9914 15.0153C13.5033 14.5271 13.5033 13.7357 13.9914 13.2475C14.4796 12.7593 15.271 12.7593 15.7592 13.2475Z" fill="black"/>
<path d="M9.92191 13.4143C9.53139 13.8048 9.53139 14.438 9.92191 14.8285C10.3124 15.219 10.9456 15.219 11.3361 14.8285L15.5788 10.5858C15.9693 10.1953 15.9693 9.56215 15.5788 9.17162C15.1882 8.7811 14.5551 8.7811 14.1646 9.17162L9.92191 13.4143Z" fill="black"/>
<path fill-rule="evenodd" clip-rule="evenodd" d="M15.2522 2.02893C13.8572 0.679484 11.6435 0.679484 10.2485 2.02893C9.89425 2.37168 9.4016 2.53175 8.9135 2.46271C6.9918 2.1909 5.20081 3.49213 4.86549 5.40377C4.78031 5.88931 4.47584 6.30838 4.04038 6.53943C2.32593 7.44907 1.64183 9.55451 2.49418 11.2982C2.71067 11.741 2.71067 12.259 2.49418 12.7019C1.64183 14.4456 2.32593 16.551 4.04038 17.4606C4.47584 17.6917 4.78031 18.1107 4.86549 18.5963C5.20081 20.5079 6.9918 21.8092 8.9135 21.5373C9.4016 21.4683 9.89425 21.6284 10.2485 21.9711C11.6435 23.3206 13.8572 23.3206 15.2522 21.9711C15.6065 21.6284 16.0991 21.4683 16.5872 21.5373C18.5089 21.8092 20.2999 20.5079 20.6352 18.5963C20.7204 18.1107 21.0249 17.6917 21.4603 17.4606C23.1748 16.551 23.8589 14.4456 23.0065 12.7019C22.79 12.259 22.79 11.741 23.0065 11.2982C23.8589 9.5545 23.1748 7.44907 21.4603 6.53943C21.0249 6.30838 20.7204 5.88931 20.6352 5.40377C20.2999 3.49213 18.5089 2.1909 16.5872 2.46271C16.0991 2.53175 15.6065 2.37168 15.2522 2.02893ZM11.6391 3.46638C12.2587 2.867 13.242 2.867 13.8616 3.46638C14.6593 4.23805 15.7684 4.59844 16.8673 4.443C17.7209 4.32227 18.5164 4.90023 18.6653 5.74932C18.8571 6.84248 19.5426 7.78598 20.523 8.30615C21.2845 8.71019 21.5883 9.64535 21.2097 10.4198C20.7223 11.4169 20.7223 12.5831 21.2097 13.5802C21.5883 14.3547 21.2845 15.2899 20.523 15.6939C19.5426 16.2141 18.8571 17.1576 18.6653 18.2507C18.5164 19.0998 17.7209 19.6778 16.8673 19.5571C15.7684 19.4016 14.6593 19.762 13.8616 20.5337C13.242 21.1331 12.2587 21.1331 11.6391 20.5337C10.8415 19.762 9.73231 19.4016 8.6334 19.5571C7.77985 19.6778 6.98435 19.0998 6.83541 18.2507C6.64365 17.1576 5.95816 16.2141 4.97776 15.6939C4.21626 15.2899 3.9124 14.3547 4.29099 13.5802C4.7784 12.5831 4.7784 11.4169 4.29099 10.4198C3.9124 9.64535 4.21626 8.71019 4.97776 8.30615C5.95816 7.78598 6.64365 6.84248 6.83541 5.74932C6.98435 4.90024 7.77985 4.32227 8.6334 4.443C9.73231 4.59844 10.8415 4.23805 11.6391 3.46638Z" fill="black"/>
</svg>
