<svg width="25" height="24" viewBox="0 0 25 24" fill="none" xmlns="http://www.w3.org/2000/svg">
<path fill-rule="evenodd" clip-rule="evenodd" d="M13.75 2C13.75 1.44772 13.3023 1 12.75 1C12.1977 1 11.75 1.44772 11.75 2V3C8.98858 3 6.75 5.23858 6.75 8C6.75 10.7614 8.98858 13 11.75 13V19C10.0931 19 8.75 17.6569 8.75 16C8.75 15.4477 8.30228 15 7.75 15C7.19772 15 6.75 15.4477 6.75 16C6.75 18.7614 8.98858 21 11.75 21V22C11.75 22.5523 12.1977 23 12.75 23C13.3023 23 13.75 22.5523 13.75 22V21C16.5114 21 18.75 18.7614 18.75 16C18.75 13.2386 16.5114 11 13.75 11V5C15.4069 5 16.75 6.34315 16.75 8C16.75 8.55228 17.1977 9 17.75 9C18.3023 9 18.75 8.55228 18.75 8C18.75 5.23858 16.5114 3 13.75 3V2ZM11.75 5C10.0931 5 8.75 6.34315 8.75 8C8.75 9.65685 10.0931 11 11.75 11V5ZM13.75 13V19C15.4069 19 16.75 17.6569 16.75 16C16.75 14.3431 15.4069 13 13.75 13Z" fill="black"/>
</svg>
