<svg width="25" height="24" viewBox="0 0 25 24" fill="none" xmlns="http://www.w3.org/2000/svg">
<path d="M13.75 4C13.75 4.82843 13.0784 5.5 12.25 5.5C11.4216 5.5 10.75 4.82843 10.75 4C10.75 3.17157 11.4216 2.5 12.25 2.5C13.0784 2.5 13.75 3.17157 13.75 4Z" fill="black"/>
<path d="M13.75 12C13.75 12.8284 13.0784 13.5 12.25 13.5C11.4216 13.5 10.75 12.8284 10.75 12C10.75 11.1716 11.4216 10.5 12.25 10.5C13.0784 10.5 13.75 11.1716 13.75 12Z" fill="black"/>
<path d="M12.25 21.5C13.0784 21.5 13.75 20.8284 13.75 20C13.75 19.1716 13.0784 18.5 12.25 18.5C11.4216 18.5 10.75 19.1716 10.75 20C10.75 20.8284 11.4216 21.5 12.25 21.5Z" fill="black"/>
</svg>
