<svg width="25" height="24" viewBox="0 0 25 24" fill="none" xmlns="http://www.w3.org/2000/svg">
<path d="M11 12C11 12.6904 11.5596 13.25 12.25 13.25C12.9404 13.25 13.5 12.6904 13.5 12C13.5 11.3096 12.9404 10.75 12.25 10.75C11.5596 10.75 11 11.3096 11 12Z" fill="black"/>
<path d="M12.25 8.75C11.5596 8.75 11 8.19036 11 7.5C11 6.80964 11.5596 6.25 12.25 6.25C12.9404 6.25 13.5 6.80964 13.5 7.5C13.5 8.19036 12.9404 8.75 12.25 8.75Z" fill="black"/>
<path d="M11 16.5C11 17.1904 11.5596 17.75 12.25 17.75C12.9404 17.75 13.5 17.1904 13.5 16.5C13.5 15.8096 12.9404 15.25 12.25 15.25C11.5596 15.25 11 15.8096 11 16.5Z" fill="black"/>
<path fill-rule="evenodd" clip-rule="evenodd" d="M12.25 2C6.72715 2 2.25 6.47715 2.25 12C2.25 17.5228 6.72715 22 12.25 22C17.7728 22 22.25 17.5228 22.25 12C22.25 6.47715 17.7728 2 12.25 2ZM4.25 12C4.25 7.58172 7.83172 4 12.25 4C16.6683 4 20.25 7.58172 20.25 12C20.25 16.4183 16.6683 20 12.25 20C7.83172 20 4.25 16.4183 4.25 12Z" fill="black"/>
</svg>
