<svg width="25" height="24" viewBox="0 0 25 24" fill="none" xmlns="http://www.w3.org/2000/svg">
<path d="M2.75 12C2.75 12.8284 3.42157 13.5 4.25 13.5C5.07843 13.5 5.75 12.8284 5.75 12C5.75 11.1716 5.07843 10.5 4.25 10.5C3.42157 10.5 2.75 11.1716 2.75 12Z" fill="black"/>
<path d="M12.25 13.5C11.4216 13.5 10.75 12.8284 10.75 12C10.75 11.1716 11.4216 10.5 12.25 10.5C13.0784 10.5 13.75 11.1716 13.75 12C13.75 12.8284 13.0784 13.5 12.25 13.5Z" fill="black"/>
<path d="M20.25 13.5C19.4216 13.5 18.75 12.8284 18.75 12C18.75 11.1716 19.4216 10.5 20.25 10.5C21.0784 10.5 21.75 11.1716 21.75 12C21.75 12.8284 21.0784 13.5 20.25 13.5Z" fill="black"/>
</svg>
