<svg width="25" height="24" viewBox="0 0 25 24" fill="none" xmlns="http://www.w3.org/2000/svg">
<path d="M12.25 10.75C11.5596 10.75 11 11.3096 11 12C11 12.6904 11.5596 13.25 12.25 13.25C12.9404 13.25 13.5 12.6904 13.5 12C13.5 11.3096 12.9404 10.75 12.25 10.75Z" fill="black"/>
<path d="M15.5 12C15.5 11.3096 16.0596 10.75 16.75 10.75C17.4404 10.75 18 11.3096 18 12C18 12.6904 17.4404 13.25 16.75 13.25C16.0596 13.25 15.5 12.6904 15.5 12Z" fill="black"/>
<path d="M7.75 10.75C7.05964 10.75 6.5 11.3096 6.5 12C6.5 12.6904 7.05964 13.25 7.75 13.25C8.44036 13.25 9 12.6904 9 12C9 11.3096 8.44036 10.75 7.75 10.75Z" fill="black"/>
<path fill-rule="evenodd" clip-rule="evenodd" d="M12.25 2C6.72715 2 2.25 6.47715 2.25 12C2.25 17.5228 6.72715 22 12.25 22C17.7728 22 22.25 17.5228 22.25 12C22.25 6.47715 17.7728 2 12.25 2ZM4.25 12C4.25 7.58172 7.83172 4 12.25 4C16.6683 4 20.25 7.58172 20.25 12C20.25 16.4183 16.6683 20 12.25 20C7.83172 20 4.25 16.4183 4.25 12Z" fill="black"/>
</svg>
