<svg width="25" height="24" viewBox="0 0 25 24" fill="none" xmlns="http://www.w3.org/2000/svg">
<path d="M16.9571 13.7071L12.9571 17.7071C12.5666 18.0976 11.9334 18.0976 11.5429 17.7071L7.54289 13.7071C7.15237 13.3166 7.15237 12.6834 7.54289 12.2929C7.93342 11.9024 8.56658 11.9024 8.95711 12.2929L11.25 14.5858V3C11.25 2.44771 11.6977 2 12.25 2C12.8023 2 13.25 2.44771 13.25 3V14.5858L15.5429 12.2929C15.9334 11.9024 16.5666 11.9024 16.9571 12.2929C17.3476 12.6834 17.3476 13.3166 16.9571 13.7071Z" fill="black"/>
<path d="M4.25 17.5C4.25 16.9477 3.80228 16.5 3.25 16.5C2.69772 16.5 2.25 16.9477 2.25 17.5V19C2.25 21.2091 4.04086 23 6.25 23H18.25C20.4591 23 22.25 21.2091 22.25 19V17.5C22.25 16.9477 21.8023 16.5 21.25 16.5C20.6977 16.5 20.25 16.9477 20.25 17.5V19C20.25 20.1046 19.3546 21 18.25 21H6.25C5.14543 21 4.25 20.1046 4.25 19V17.5Z" fill="black"/>
</svg>
