<svg width="25" height="24" viewBox="0 0 25 24" fill="none" xmlns="http://www.w3.org/2000/svg">
<path fill-rule="evenodd" clip-rule="evenodd" d="M4.75 11.5C3.36929 11.5 2.25 10.3807 2.25 9L2.25 4C2.25 2.61929 3.36929 1.5 4.75 1.5H9.75C11.1307 1.5 12.25 2.61929 12.25 4V9C12.25 10.3807 11.1307 11.5 9.75 11.5H4.75ZM4.25 9C4.25 9.27614 4.47386 9.5 4.75 9.5L9.75 9.5C10.0261 9.5 10.25 9.27614 10.25 9V4C10.25 3.72386 10.0261 3.5 9.75 3.5L4.75 3.5C4.47386 3.5 4.25 3.72386 4.25 4L4.25 9Z" fill="black"/>
<path fill-rule="evenodd" clip-rule="evenodd" d="M8.42604 13.1942C7.50039 12.2686 5.99961 12.2686 5.07396 13.1942L2.44424 15.824C1.51859 16.7496 1.51859 18.2504 2.44424 19.176L5.07396 21.8058C5.99961 22.7314 7.50039 22.7314 8.42604 21.8058L11.0558 19.176C11.9814 18.2504 11.9814 16.7496 11.0558 15.824L8.42604 13.1942ZM6.48818 14.6085C6.63278 14.4639 6.86722 14.4639 7.01182 14.6085L9.64155 17.2382C9.78615 17.3828 9.78615 17.6172 9.64155 17.7618L7.01182 20.3915C6.86722 20.5361 6.63278 20.5361 6.48818 20.3916L3.85845 17.7618C3.71385 17.6172 3.71385 17.3828 3.85845 17.2382L6.48818 14.6085Z" fill="black"/>
<path fill-rule="evenodd" clip-rule="evenodd" d="M13.25 20C13.25 21.3807 14.3693 22.5 15.75 22.5H20.75C22.1307 22.5 23.25 21.3807 23.25 20V15C23.25 13.6193 22.1307 12.5 20.75 12.5H15.75C14.3693 12.5 13.25 13.6193 13.25 15V20ZM15.75 20.5C15.4739 20.5 15.25 20.2761 15.25 20V15C15.25 14.7239 15.4739 14.5 15.75 14.5H20.75C21.0261 14.5 21.25 14.7239 21.25 15V20C21.25 20.2761 21.0261 20.5 20.75 20.5H15.75Z" fill="black"/>
<path fill-rule="evenodd" clip-rule="evenodd" d="M13.25 6.5C13.25 9.26142 15.4886 11.5 18.25 11.5C21.0114 11.5 23.25 9.26142 23.25 6.5C23.25 3.73858 21.0114 1.5 18.25 1.5C15.4886 1.5 13.25 3.73858 13.25 6.5ZM18.25 3.5C19.9069 3.5 21.25 4.84315 21.25 6.5C21.25 8.15685 19.9069 9.5 18.25 9.5C16.5931 9.5 15.25 8.15685 15.25 6.5C15.25 4.84315 16.5931 3.5 18.25 3.5Z" fill="black"/>
</svg>
