<svg width="25" height="24" viewBox="0 0 25 24" fill="none" xmlns="http://www.w3.org/2000/svg">
<path d="M8.95001 8C9.77844 8 10.45 8.67157 10.45 9.5C10.45 10.3284 9.77844 11 8.95001 11C8.12158 11 7.45001 10.3284 7.45001 9.5C7.45001 8.67157 8.12158 8 8.95001 8Z" fill="black"/>
<path d="M17.05 9.5C17.05 8.67157 16.3784 8 15.55 8C14.7216 8 14.05 8.67157 14.05 9.5C14.05 10.3284 14.7216 11 15.55 11C16.3784 11 17.05 10.3284 17.05 9.5Z" fill="black"/>
<path d="M10.9571 15.2929C10.5666 14.9024 9.93342 14.9024 9.54289 15.2929C9.15237 15.6834 9.15237 16.3166 9.54289 16.7071C11.038 18.2022 13.462 18.2022 14.9571 16.7071C15.3476 16.3166 15.3476 15.6834 14.9571 15.2929C14.5666 14.9024 13.9334 14.9024 13.5429 15.2929C12.8288 16.0069 11.6712 16.0069 10.9571 15.2929Z" fill="black"/>
<path fill-rule="evenodd" clip-rule="evenodd" d="M12.25 2C6.72715 2 2.25 6.47715 2.25 12C2.25 17.5228 6.72715 22 12.25 22C17.7728 22 22.25 17.5228 22.25 12C22.25 6.47715 17.7728 2 12.25 2ZM4.25 12C4.25 7.58172 7.83172 4 12.25 4C16.6683 4 20.25 7.58172 20.25 12C20.25 16.4183 16.6683 20 12.25 20C7.83172 20 4.25 16.4183 4.25 12Z" fill="black"/>
</svg>
