<svg width="25" height="24" viewBox="0 0 25 24" fill="none" xmlns="http://www.w3.org/2000/svg">
<path d="M12.25 4C7.83172 4 4.25 7.58172 4.25 12C4.25 16.4183 7.83172 20 12.25 20C16.6683 20 20.25 16.4183 20.25 12C20.25 11.5446 20.212 11.0988 20.1393 10.6655C20.048 10.1208 20.4154 9.60516 20.9601 9.51378C21.5048 9.4224 22.0204 9.78987 22.1118 10.3345C22.2028 10.8768 22.25 11.4333 22.25 12C22.25 17.5228 17.7728 22 12.25 22C6.72715 22 2.25 17.5228 2.25 12C2.25 6.47715 6.72715 2 12.25 2C13.8447 2 15.3549 2.37401 16.695 3.04001C17.1896 3.28579 17.3913 3.88597 17.1455 4.38055C16.8997 4.87513 16.2995 5.07682 15.805 4.83103C14.7352 4.2994 13.529 4 12.25 4Z" fill="black"/>
<path d="M20.25 3C20.8023 3 21.25 3.44772 21.25 4V5H22.25C22.8023 5 23.25 5.44772 23.25 6C23.25 6.55228 22.8023 7 22.25 7H21.25V8C21.25 8.55228 20.8023 9 20.25 9C19.6977 9 19.25 8.55228 19.25 8V7H18.25C17.6977 7 17.25 6.55228 17.25 6C17.25 5.44772 17.6977 5 18.25 5H19.25V4C19.25 3.44772 19.6977 3 20.25 3Z" fill="black"/>
<path d="M9.54289 15.2929C9.93342 14.9024 10.5666 14.9024 10.9571 15.2929C11.6712 16.0069 12.8288 16.0069 13.5429 15.2929C13.9334 14.9024 14.5666 14.9024 14.9571 15.2929C15.3476 15.6834 15.3476 16.3166 14.9571 16.7071C13.462 18.2022 11.038 18.2022 9.54289 16.7071C9.15237 16.3166 9.15237 15.6834 9.54289 15.2929Z" fill="black"/>
<path d="M10.45 9.5C10.45 8.67157 9.77844 8 8.95001 8C8.12158 8 7.45001 8.67157 7.45001 9.5C7.45001 10.3284 8.12158 11 8.95001 11C9.77844 11 10.45 10.3284 10.45 9.5Z" fill="black"/>
<path d="M15.55 8C16.3784 8 17.05 8.67157 17.05 9.5C17.05 10.3284 16.3784 11 15.55 11C14.7216 11 14.05 10.3284 14.05 9.5C14.05 8.67157 14.7216 8 15.55 8Z" fill="black"/>
</svg>
