<svg width="25" height="24" viewBox="0 0 25 24" fill="none" xmlns="http://www.w3.org/2000/svg">
<path fill-rule="evenodd" clip-rule="evenodd" d="M19.2665 11.1782L13.162 12.9223C12.8927 12.9992 12.6072 12.9992 12.3378 12.9223L6.23334 11.1782C5.1757 10.876 4.79222 9.57592 5.51656 8.74811L11.621 1.77155C12.2187 1.08856 13.2812 1.08856 13.8788 1.77155L19.9833 8.74811C20.7076 9.57592 20.3241 10.876 19.2665 11.1782ZM7.54094 9.47172L12.7499 10.96L17.9589 9.47172L12.7499 3.5186L7.54094 9.47172Z" fill="black"/>
<path fill-rule="evenodd" clip-rule="evenodd" d="M13.9575 22.0469C13.358 22.8605 12.1418 22.8605 11.5423 22.0469L5.81436 14.2733C4.96554 13.1213 6.05815 11.5481 7.43403 11.9412L12.7499 13.46L18.0658 11.9412C19.4417 11.5481 20.5343 13.1213 19.6855 14.2733L13.9575 22.0469ZM8.29398 14.2669L12.7499 20.3142L17.2058 14.2669L13.162 15.4223C12.8927 15.4992 12.6072 15.4992 12.3378 15.4223L8.29398 14.2669Z" fill="black"/>
</svg>
