<svg width="25" height="24" viewBox="0 0 25 24" fill="none" xmlns="http://www.w3.org/2000/svg">
<path d="M13.4404 3C10.0602 3 7.28158 5.64316 7.09516 9H4.25C3.69772 9 3.25 9.44772 3.25 10C3.25 10.5523 3.69772 11 4.25 11H7.03076L6.98389 12.5H4.25C3.69772 12.5 3.25 12.9477 3.25 13.5C3.25 14.0523 3.69772 14.5 4.25 14.5H6.92139L6.84717 16.8751C6.77664 19.1321 8.58712 21 10.8452 21H17.75C18.3023 21 18.75 20.5523 18.75 20C18.75 19.4477 18.3023 19 17.75 19H10.8452C9.71617 19 8.81093 18.066 8.84619 16.9375L8.92236 14.5H13.25C13.8023 14.5 14.25 14.0523 14.25 13.5C14.25 12.9477 13.8023 12.5 13.25 12.5H8.98486L9.03174 11H13.25C13.8023 11 14.25 10.5523 14.25 10C14.25 9.44772 13.8023 9 13.25 9H9.09968C9.28179 6.75295 11.1616 5 13.4404 5H14.5139C15.5056 5 16.4121 5.56027 16.8556 6.44721C17.1026 6.94119 17.7032 7.14142 18.1972 6.89443C18.6912 6.64744 18.8914 6.04676 18.6444 5.55279C17.8622 3.98827 16.2631 3 14.5139 3H13.4404Z" fill="black"/>
</svg>
