<svg width="25" height="24" viewBox="0 0 25 24" fill="none" xmlns="http://www.w3.org/2000/svg">
<path d="M6.75 2C4.54086 2 2.75 3.79086 2.75 6V8C2.75 8.55228 3.19772 9 3.75 9C4.30228 9 4.75 8.55228 4.75 8V6C4.75 4.89543 5.64543 4 6.75 4H8.75C9.30228 4 9.75 3.55228 9.75 3C9.75 2.44772 9.30228 2 8.75 2H6.75Z" fill="black"/>
<path d="M18.75 2C20.9591 2 22.75 3.79086 22.75 6V8C22.75 8.55228 22.3023 9 21.75 9C21.1977 9 20.75 8.55228 20.75 8V6C20.75 4.89543 19.8546 4 18.75 4H16.75C16.1977 4 15.75 3.55228 15.75 3C15.75 2.44772 16.1977 2 16.75 2H18.75Z" fill="black"/>
<path d="M2.75 18C2.75 20.2091 4.54086 22 6.75 22H8.75C9.30228 22 9.75 21.5523 9.75 21C9.75 20.4477 9.30228 20 8.75 20H6.75C5.64543 20 4.75 19.1046 4.75 18V16C4.75 15.4477 4.30228 15 3.75 15C3.19772 15 2.75 15.4477 2.75 16V18Z" fill="black"/>
<path d="M18.75 22C20.9591 22 22.75 20.2091 22.75 18V16C22.75 15.4477 22.3023 15 21.75 15C21.1977 15 20.75 15.4477 20.75 16V18C20.75 19.1046 19.8546 20 18.75 20H16.75C16.1977 20 15.75 20.4477 15.75 21C15.75 21.5523 16.1977 22 16.75 22H18.75Z" fill="black"/>
</svg>
