<svg width="25" height="24" viewBox="0 0 25 24" fill="none" xmlns="http://www.w3.org/2000/svg">
<path d="M20.9569 3.29289C21.3474 3.68342 21.3474 4.31658 20.9569 4.70711L4.95686 20.7071C4.56634 21.0976 3.93317 21.0976 3.54265 20.7071C3.15212 20.3166 3.15212 19.6834 3.54265 19.2929L19.5426 3.29289C19.9332 2.90237 20.5663 2.90237 20.9569 3.29289Z" fill="black"/>
<path d="M16.0493 5.37204C14.923 4.84163 13.653 4.5 12.2497 4.5C9.30564 4.5 6.94852 6.00369 5.27335 7.59968C3.59432 9.19934 2.50486 10.9797 2.07359 11.7498C1.79097 12.2545 1.75731 12.8571 1.9893 13.3924C2.15131 13.7662 2.42684 14.3452 2.83294 15.0172C3.11859 15.4899 3.73333 15.6415 4.20601 15.3559C4.67868 15.0702 4.83029 14.4555 4.54464 13.9828C4.21802 13.4423 3.99137 12.9749 3.85389 12.6644C4.25964 11.9493 5.2206 10.4123 6.65292 9.0477C8.1324 7.63816 10.0198 6.5 12.2497 6.5C13.0518 6.5 13.8095 6.64724 14.5199 6.90139L16.0493 5.37204Z" fill="black"/>
<path d="M17.9403 9.13789C19.3208 10.4795 20.2487 11.965 20.6456 12.6644C20.5081 12.9749 20.2815 13.4423 19.9548 13.9828C19.6692 14.4555 19.8208 15.0702 20.2935 15.3559C20.7661 15.6415 21.3809 15.4899 21.6665 15.0172C22.0726 14.3452 22.3482 13.7662 22.5102 13.3924C22.7422 12.8571 22.7085 12.2545 22.4259 11.7498C22.0057 10.9995 20.9608 9.29032 19.3546 7.72355L17.9403 9.13789Z" fill="black"/>
<path d="M12.2498 8C12.6132 8 12.9675 8.03877 13.3089 8.1124L11.2511 10.1702C10.3976 10.4714 9.7212 11.1478 9.41999 12.0013L7.36216 14.0592C7.28853 13.7178 7.24976 13.3634 7.24976 13C7.24976 10.2386 9.48833 8 12.2498 8Z" fill="black"/>
<path d="M12.2498 16C11.8989 16 11.5621 15.9398 11.2491 15.8291L9.74807 17.3301C10.4839 17.7561 11.3383 18 12.2498 18C15.0112 18 17.2498 15.7614 17.2498 13C17.2498 12.0886 17.0059 11.2341 16.5799 10.4983L15.0788 11.9994C15.1895 12.3123 15.2498 12.6491 15.2498 13C15.2498 14.6569 13.9066 16 12.2498 16Z" fill="black"/>
</svg>
