<svg width="25" height="24" viewBox="0 0 25 24" fill="none" xmlns="http://www.w3.org/2000/svg">
<path d="M4.54464 13.9828C4.83029 14.4555 4.67868 15.0702 4.20601 15.3559C3.73333 15.6415 3.11859 15.4899 2.83294 15.0172C2.42684 14.3452 2.15131 13.7662 1.9893 13.3924C1.75731 12.8571 1.79097 12.2545 2.07359 11.7498C2.50486 10.9797 3.59432 9.19934 5.27335 7.59968C6.94852 6.00369 9.30564 4.5 12.2497 4.5C15.1938 4.5 17.551 6.00369 19.2261 7.59968C20.9052 9.19933 21.9946 10.9797 22.4259 11.7498C22.7085 12.2545 22.7422 12.8571 22.5102 13.3924C22.3482 13.7662 22.0726 14.3452 21.6665 15.0172C21.3809 15.4899 20.7661 15.6415 20.2935 15.3559C19.8208 15.0702 19.6692 14.4555 19.9548 13.9828C20.2815 13.4423 20.5081 12.9749 20.6456 12.6644C20.2398 11.9493 19.2789 10.4123 17.8466 9.0477C16.3671 7.63816 14.4797 6.5 12.2497 6.5C10.0198 6.5 8.1324 7.63816 6.65292 9.0477C5.2206 10.4123 4.25964 11.9493 3.85389 12.6644C3.99137 12.9749 4.21802 13.4423 4.54464 13.9828Z" fill="black"/>
<path fill-rule="evenodd" clip-rule="evenodd" d="M12.2497 8C9.48831 8 7.24974 10.2386 7.24974 13C7.24974 15.7614 9.48831 18 12.2497 18C15.0112 18 17.2497 15.7614 17.2497 13C17.2497 10.2386 15.0112 8 12.2497 8ZM9.24974 13C9.24974 11.3431 10.5929 10 12.2497 10C13.9066 10 15.2497 11.3431 15.2497 13C15.2497 14.6569 13.9066 16 12.2497 16C10.5929 16 9.24974 14.6569 9.24974 13Z" fill="black"/>
</svg>
