<svg width="25" height="24" viewBox="0 0 25 24" fill="none" xmlns="http://www.w3.org/2000/svg">
<path d="M6.25 2C4.04086 2 2.25 3.79086 2.25 6V8C2.25 8.55228 2.69772 9 3.25 9C3.80228 9 4.25 8.55228 4.25 8V6C4.25 4.89543 5.14543 4 6.25 4H8.25C8.80228 4 9.25 3.55228 9.25 3C9.25 2.44772 8.80228 2 8.25 2H6.25Z" fill="black"/>
<path d="M18.25 2C20.4591 2 22.25 3.79086 22.25 6V8C22.25 8.55228 21.8023 9 21.25 9C20.6977 9 20.25 8.55228 20.25 8V6C20.25 4.89543 19.3546 4 18.25 4H16.25C15.6977 4 15.25 3.55228 15.25 3C15.25 2.44772 15.6977 2 16.25 2H18.25Z" fill="black"/>
<path d="M2.25 18C2.25 20.2091 4.04086 22 6.25 22H8.25C8.80228 22 9.25 21.5523 9.25 21C9.25 20.4477 8.80228 20 8.25 20H6.25C5.14543 20 4.25 19.1046 4.25 18V16C4.25 15.4477 3.80228 15 3.25 15C2.69772 15 2.25 15.4477 2.25 16V18Z" fill="black"/>
<path d="M18.25 22C20.4591 22 22.25 20.2091 22.25 18V16C22.25 15.4477 21.8023 15 21.25 15C20.6977 15 20.25 15.4477 20.25 16V18C20.25 19.1046 19.3546 20 18.25 20H16.25C15.6977 20 15.25 20.4477 15.25 21C15.25 21.5523 15.6977 22 16.25 22H18.25Z" fill="black"/>
<path d="M7 8.25C7 8.94036 7.55964 9.5 8.25 9.5C8.94036 9.5 9.5 8.94036 9.5 8.25C9.5 7.55964 8.94036 7 8.25 7C7.55964 7 7 7.55964 7 8.25Z" fill="black"/>
<path d="M16.25 9.5C15.5596 9.5 15 8.94036 15 8.25C15 7.55964 15.5596 7 16.25 7C16.9404 7 17.5 7.55964 17.5 8.25C17.5 8.94036 16.9404 9.5 16.25 9.5Z" fill="black"/>
<path d="M9.35557 15.5528C9.60256 15.0588 10.2032 14.8586 10.6972 15.1056C11.6747 15.5943 12.8253 15.5943 13.8028 15.1056C14.2968 14.8586 14.8974 15.0588 15.1444 15.5528C15.3914 16.0468 15.1912 16.6474 14.6972 16.8944C13.1567 17.6647 11.3433 17.6647 9.80279 16.8944C9.30881 16.6474 9.10858 16.0468 9.35557 15.5528Z" fill="black"/>
<path d="M13.1444 10.0528C12.8974 9.55881 12.2968 9.35858 11.8028 9.60557C11.3088 9.85256 11.1086 10.4532 11.3556 10.9472L11.8828 12.0017C11.7983 12.1484 11.75 12.3186 11.75 12.5C11.75 13.0523 12.1977 13.5 12.75 13.5H12.9264C13.8185 13.5 14.3986 12.5612 13.9997 11.7633L13.1444 10.0528Z" fill="black"/>
</svg>
