<svg width="25" height="24" viewBox="0 0 25 24" fill="none" xmlns="http://www.w3.org/2000/svg">
<path fill-rule="evenodd" clip-rule="evenodd" d="M22.2459 2.90947C22.1979 2.38119 21.7457 1.98232 21.2155 2.0006C15.0319 2.21383 10.7301 5.47336 7.90271 9.37579C5.09288 13.254 3.69474 17.8158 3.26005 20.8586C3.18615 21.3759 3.52298 21.8628 4.03307 21.9762C4.54316 22.0896 5.05453 21.7911 5.20667 21.2912C5.29091 21.0144 5.37648 20.7255 5.46454 20.4281C6.0136 18.5742 6.65944 16.3936 7.67942 14.8021C8.2602 13.8959 8.89049 13.3028 9.57715 13.0432C10.2265 12.7976 11.0911 12.7886 12.3028 13.3944C13.5203 14.0032 15.0245 13.5774 15.85 12.5226C16.4739 11.7253 16.6633 10.6795 16.338 9.53411C17.5277 9.5075 18.7952 9.33348 19.8558 8.75182C20.6836 8.2979 21.3765 7.60354 21.8091 6.59852C22.2333 5.6131 22.3807 4.39213 22.2459 2.90947ZM13.1972 11.6056C11.7244 10.8692 10.3687 10.7076 9.15304 11.076C9.2731 10.899 9.39617 10.7233 9.52229 10.5492C11.9271 7.23002 15.4026 4.54006 20.2931 4.06436C20.2798 4.82008 20.1541 5.38506 19.9721 5.80775C19.7277 6.37565 19.3581 6.74379 18.8942 6.9982C17.8849 7.55167 16.4143 7.58622 14.8026 7.50139C14.4248 7.48151 14.0682 7.67645 13.881 8.00514C13.6939 8.33382 13.7081 8.73999 13.918 9.05471C14.7544 10.3093 14.4961 11.0075 14.275 11.29C13.9755 11.6726 13.4797 11.7468 13.1972 11.6056Z" fill="black"/>
<path d="M5.25 3.00001C5.25 2.44773 4.80229 2.00001 4.25 2.00001C3.69772 2.00001 3.25 2.44773 3.25 3.00001V4.00001H2.25C1.69772 4.00001 1.25 4.44773 1.25 5.00001C1.25 5.55229 1.69772 6.00001 2.25 6.00001H3.25V7.00001C3.25 7.55229 3.69772 8.00001 4.25 8.00001C4.80229 8.00001 5.25 7.55229 5.25 7.00001V6.00001H6.25C6.80229 6.00001 7.25 5.55229 7.25 5.00001C7.25 4.44773 6.80229 4.00001 6.25 4.00001H5.25V3.00001Z" fill="black"/>
</svg>
