<svg width="25" height="24" viewBox="0 0 25 24" fill="none" xmlns="http://www.w3.org/2000/svg">
<path fill-rule="evenodd" clip-rule="evenodd" d="M22.246 2.90947C22.198 2.38119 21.7458 1.98232 21.2156 2.0006C15.032 2.21383 10.7302 5.47336 7.90281 9.37579C5.09298 13.254 3.69484 17.8158 3.26015 20.8586C3.18625 21.3759 3.52308 21.8628 4.03317 21.9762C4.54326 22.0896 5.05463 21.7911 5.20678 21.2912C5.29103 21.0143 5.37663 20.7253 5.46472 20.4279C6.01378 18.574 6.65954 16.3936 7.67952 14.8021C8.2603 13.8959 8.89059 13.3028 9.57725 13.0432C10.2266 12.7976 11.0912 12.7886 12.3029 13.3944C13.5204 14.0032 15.0246 13.5774 15.8501 12.5226C16.474 11.7253 16.6634 10.6795 16.3381 9.53411C17.5278 9.5075 18.7953 9.33348 19.8559 8.75182C20.6837 8.2979 21.3766 7.60354 21.8092 6.59852C22.2334 5.6131 22.3808 4.39213 22.246 2.90947ZM13.1973 11.6056C11.7245 10.8692 10.3688 10.7076 9.15314 11.076C9.2732 10.899 9.39627 10.7233 9.5224 10.5492C11.9272 7.23002 15.4027 4.54006 20.2932 4.06436C20.2799 4.82008 20.1542 5.38506 19.9722 5.80775C19.7278 6.37565 19.3582 6.74379 18.8943 6.9982C17.885 7.55167 16.4144 7.58622 14.8027 7.50139C14.4249 7.48151 14.0683 7.67645 13.8811 8.00514C13.694 8.33382 13.7082 8.73999 13.9181 9.05471C14.7545 10.3093 14.4962 11.0075 14.2751 11.29C13.9756 11.6726 13.4798 11.7468 13.1973 11.6056Z" fill="black"/>
</svg>
