<svg width="25" height="24" viewBox="0 0 25 24" fill="none" xmlns="http://www.w3.org/2000/svg">
<path fill-rule="evenodd" clip-rule="evenodd" d="M21.7164 2.0006C22.2465 1.98232 22.6987 2.38119 22.7467 2.90947C22.8815 4.39213 22.7342 5.6131 22.31 6.59852C21.8774 7.60354 21.1844 8.2979 20.3567 8.75182C19.296 9.33348 18.0286 9.5075 16.8389 9.53411C17.1641 10.6795 16.9748 11.7253 16.3509 12.5226C15.5253 13.5774 14.0212 14.0032 12.8036 13.3944C11.5919 12.7886 10.7274 12.7976 10.078 13.0432C9.39134 13.3028 8.76105 13.8959 8.18027 14.8021C7.16029 16.3936 6.51453 18.574 5.96547 20.4279C5.87741 20.7252 5.79175 21.0144 5.70753 21.2912C5.55538 21.7911 5.04402 22.0896 4.53392 21.9762C4.02383 21.8628 3.68701 21.3759 3.7609 20.8586C4.19559 17.8158 5.59373 13.254 8.40356 9.37579C11.231 5.47336 15.5328 2.21383 21.7164 2.0006ZM9.65389 11.076C10.8695 10.7076 12.2253 10.8692 13.6981 11.6056C13.9805 11.7468 14.4764 11.6726 14.7758 11.29C14.9969 11.0075 15.2552 10.3093 14.4188 9.05471C14.209 8.73999 14.1947 8.33382 14.3819 8.00514C14.5691 7.67645 14.9257 7.48151 15.3034 7.50139C16.9152 7.58622 18.3858 7.55167 19.395 6.9982C19.8589 6.74379 20.2285 6.37565 20.473 5.80775C20.6549 5.38506 20.7807 4.82008 20.794 4.06436C15.9035 4.54006 12.428 7.23002 10.0231 10.5492C9.89702 10.7233 9.77395 10.899 9.65389 11.076Z" fill="black"/>
<path d="M4.36272 6.64975C4.20236 6.16867 3.82485 5.79116 3.34377 5.6308C2.85416 5.4676 2.85416 4.77506 3.34377 4.61186C3.82485 4.4515 4.20236 4.07399 4.36272 3.59291C4.52592 3.1033 5.21846 3.1033 5.38166 3.59291C5.54203 4.07399 5.91953 4.4515 6.40061 4.61186C6.89022 4.77506 6.89022 5.4676 6.40061 5.6308C5.91953 5.79116 5.54203 6.16867 5.38166 6.64975C5.21846 7.13936 4.52592 7.13936 4.36272 6.64975Z" fill="black"/>
<path d="M13.3437 18.6308C13.8248 18.7912 14.2023 19.1687 14.3627 19.6497C14.5259 20.1394 15.2184 20.1394 15.3816 19.6497C15.542 19.1687 15.9195 18.7912 16.4006 18.6308C16.8902 18.4676 16.8902 17.7751 16.4006 17.6119C15.9195 17.4515 15.542 17.074 15.3816 16.5929C15.2184 16.1033 14.5259 16.1033 14.3627 16.5929C14.2023 17.074 13.8248 17.4515 13.3437 17.6119C12.8541 17.7751 12.8541 18.4676 13.3437 18.6308Z" fill="black"/>
</svg>
