<svg width="25" height="24" viewBox="0 0 25 24" fill="none" xmlns="http://www.w3.org/2000/svg">
<path fill-rule="evenodd" clip-rule="evenodd" d="M7.25 1C5.04086 1 3.25 2.79086 3.25 5V14C3.25 14.5523 3.69772 15 4.25 15C4.80228 15 5.25 14.5523 5.25 14V5C5.25 3.89543 6.14543 3 7.25 3H13.25V6C13.25 8.20914 15.0409 10 17.25 10H19.25V19C19.25 20.1046 18.3546 21 17.25 21H10.25C9.69772 21 9.25 21.4477 9.25 22C9.25 22.5523 9.69772 23 10.25 23H17.25C19.4591 23 21.25 21.2091 21.25 19V9.08615C21.25 8.1504 20.9219 7.24427 20.3229 6.52541L16.9178 2.43926C16.1578 1.52729 15.032 1 13.8449 1H7.25ZM18.9294 8C18.8859 7.93274 18.8382 7.86786 18.7864 7.80578L15.3813 3.71963C15.3397 3.66966 15.2958 3.622 15.25 3.57674V6C15.25 7.10457 16.1454 8 17.25 8H18.9294Z" fill="black"/>
<path d="M4.95711 16.2929C5.34763 16.6834 5.34763 17.3166 4.95711 17.7071L3.66421 19L4.95711 20.2929C5.34763 20.6834 5.34763 21.3166 4.95711 21.7071C4.56658 22.0976 3.93342 22.0976 3.54289 21.7071L1.54289 19.7071C1.35536 19.5196 1.25 19.2652 1.25 19C1.25 18.7348 1.35536 18.4804 1.54289 18.2929L3.54289 16.2929C3.93342 15.9024 4.56658 15.9024 4.95711 16.2929Z" fill="black"/>
<path d="M6.54289 17.7071C6.15237 17.3166 6.15237 16.6834 6.54289 16.2929C6.93342 15.9024 7.56658 15.9024 7.95711 16.2929L9.95711 18.2929C10.1446 18.4804 10.25 18.7348 10.25 19C10.25 19.2652 10.1446 19.5196 9.95711 19.7071L7.95711 21.7071C7.56658 22.0976 6.93342 22.0976 6.54289 21.7071C6.15237 21.3166 6.15237 20.6834 6.54289 20.2929L7.83579 19L6.54289 17.7071Z" fill="black"/>
</svg>
