<svg width="25" height="24" viewBox="0 0 25 24" fill="none" xmlns="http://www.w3.org/2000/svg">
<path fill-rule="evenodd" clip-rule="evenodd" d="M3.25 5C3.25 2.79086 5.04086 1 7.25 1H13.8449C15.032 1 16.1578 1.52729 16.9178 2.43926L20.3229 6.52541C20.9219 7.24427 21.25 8.1504 21.25 9.08615V19C21.25 21.2091 19.4591 23 17.25 23H10.25C9.69772 23 9.25 22.5523 9.25 22C9.25 21.4477 9.69772 21 10.25 21H17.25C18.3546 21 19.25 20.1046 19.25 19V10H17.25C15.0409 10 13.25 8.20914 13.25 6V3H7.25C6.14543 3 5.25 3.89543 5.25 5V14C5.25 14.5523 4.80228 15 4.25 15C3.69772 15 3.25 14.5523 3.25 14V5ZM18.7864 7.80578C18.8382 7.86786 18.8859 7.93274 18.9294 8H17.25C16.1454 8 15.25 7.10457 15.25 6V3.57674C15.2958 3.622 15.3397 3.66966 15.3813 3.71963L18.7864 7.80578Z" fill="black"/>
<path fill-rule="evenodd" clip-rule="evenodd" d="M5.1 16C3.5873 16 2.31365 17.1338 2.16457 18.6195C1.61017 19.0694 1.25 19.7537 1.25 20.5294C1.25 21.9125 2.38805 23 3.75 23H6.45C7.97764 23 9.25 21.7808 9.25 20.2353C9.25 19.2002 8.67703 18.3101 7.84224 17.8365C7.40611 16.7524 6.3347 16 5.1 16ZM4.15 18.9118C4.15 18.4268 4.55657 18 5.1 18C5.57895 18 5.95661 18.3354 6.03458 18.7464C6.10263 19.105 6.36069 19.3981 6.70783 19.5109C7.03489 19.6173 7.25 19.9115 7.25 20.2353C7.25 20.6391 6.91059 21 6.45 21H3.75C3.4551 21 3.25 20.7707 3.25 20.5294C3.25 20.3474 3.36284 20.1751 3.54985 20.0978C3.97125 19.9238 4.22159 19.4868 4.15852 19.0352C4.15294 18.9953 4.15 18.9541 4.15 18.9118Z" fill="black"/>
</svg>
