<svg width="25" height="24" viewBox="0 0 25 24" fill="none" xmlns="http://www.w3.org/2000/svg">
<path fill-rule="evenodd" clip-rule="evenodd" d="M7.25 1C5.04086 1 3.25 2.79086 3.25 5V19C3.25 21.2091 5.04086 23 7.25 23H17.25C19.4591 23 21.25 21.2091 21.25 19V9.08615C21.25 8.1504 20.9219 7.24427 20.3229 6.52541L16.9178 2.43926C16.1578 1.52729 15.032 1 13.8449 1H7.25ZM5.25 5C5.25 3.89543 6.14543 3 7.25 3H13.25V6C13.25 8.20914 15.0409 10 17.25 10H19.25V19C19.25 20.1046 18.3546 21 17.25 21H7.25C6.14543 21 5.25 20.1046 5.25 19V5ZM18.9294 8C18.8859 7.93274 18.8382 7.86786 18.7864 7.80578L15.3813 3.71963C15.3397 3.66966 15.2958 3.622 15.25 3.57674V6C15.25 7.10457 16.1454 8 17.25 8H18.9294Z" fill="black"/>
</svg>
