<svg width="25" height="24" viewBox="0 0 25 24" fill="none" xmlns="http://www.w3.org/2000/svg">
<path fill-rule="evenodd" clip-rule="evenodd" d="M7.25 3C6.14543 3 5.25 3.89543 5.25 5V19C5.25 20.1046 6.14543 21 7.25 21H9.25C9.80228 21 10.25 21.4477 10.25 22C10.25 22.5523 9.80228 23 9.25 23H7.25C5.04086 23 3.25 21.2091 3.25 19V5C3.25 2.79086 5.04086 1 7.25 1H13.8449C15.032 1 16.1578 1.52729 16.9178 2.43926L20.3229 6.52541C20.9219 7.24427 21.25 8.1504 21.25 9.08615V19C21.25 21.2091 19.4591 23 17.25 23H15.25C14.6977 23 14.25 22.5523 14.25 22C14.25 21.4477 14.6977 21 15.25 21H17.25C18.3546 21 19.25 20.1046 19.25 19V10H17.25C15.0409 10 13.25 8.20914 13.25 6V3H7.25ZM18.7864 7.80578C18.8382 7.86786 18.8859 7.93274 18.9294 8H17.25C16.1454 8 15.25 7.10457 15.25 6V3.57674C15.2958 3.622 15.3397 3.66966 15.3813 3.71963L18.7864 7.80578Z" fill="black"/>
<path d="M14.4144 20.4141L12.9144 21.7474C12.5355 22.0842 11.9645 22.0842 11.5856 21.7474L10.0856 20.4141C9.67285 20.0472 9.63567 19.4151 10.0026 19.0023C10.3236 18.6412 10.8475 18.5675 11.25 18.8004V14C11.25 13.4477 11.6977 13 12.25 13C12.8023 13 13.25 13.4477 13.25 14V18.8004C13.6525 18.5675 14.1764 18.6412 14.4974 19.0023C14.8643 19.4151 14.8271 20.0472 14.4144 20.4141Z" fill="black"/>
</svg>
