<svg width="25" height="24" viewBox="0 0 25 24" fill="none" xmlns="http://www.w3.org/2000/svg">
<path fill-rule="evenodd" clip-rule="evenodd" d="M5.53098 2C3.71895 2 2.25 3.46895 2.25 5.28098C2.25 5.95415 2.45706 6.61103 2.8431 7.1625L8.88846 15.7987C9.12378 16.1349 9.25 16.5353 9.25 16.9457V19.1568C9.25 21.2065 11.407 22.5396 13.2402 21.6229C14.4719 21.0071 15.25 19.7481 15.25 18.371V16.9457C15.25 16.5353 15.3762 16.1349 15.6115 15.7987L21.6569 7.1625C22.0429 6.61102 22.25 5.95415 22.25 5.28098C22.25 3.46895 20.7811 2 18.969 2H5.53098ZM13.25 18.371C13.25 18.9906 12.8999 19.557 12.3458 19.8341C11.8423 20.0858 11.25 19.7197 11.25 19.1568V16.9457C11.25 16.125 10.9976 15.3242 10.5269 14.6518L4.48156 6.01558C4.33084 5.80027 4.25 5.5438 4.25 5.28098C4.25 4.57352 4.82352 4 5.53098 4H18.969C19.6765 4 20.25 4.57352 20.25 5.28098C20.25 5.54381 20.1692 5.80027 20.0184 6.01558L13.9731 14.6518C13.5024 15.3242 13.25 16.125 13.25 16.9457V18.371Z" fill="black"/>
</svg>
