<svg width="25" height="24" viewBox="0 0 25 24" fill="none" xmlns="http://www.w3.org/2000/svg">
<path d="M4.25 6C4.25 5.44772 4.69772 5 5.25 5H19.25C19.8023 5 20.25 5.44772 20.25 6C20.25 6.55228 19.8023 7 19.25 7H5.25C4.69772 7 4.25 6.55228 4.25 6Z" fill="black"/>
<path d="M6.25 12C6.25 11.4477 6.69772 11 7.25 11H17.25C17.8023 11 18.25 11.4477 18.25 12C18.25 12.5523 17.8023 13 17.25 13H7.25C6.69772 13 6.25 12.5523 6.25 12Z" fill="black"/>
<path d="M9.25 17C8.69772 17 8.25 17.4477 8.25 18C8.25 18.5523 8.69772 19 9.25 19H15.25C15.8023 19 16.25 18.5523 16.25 18C16.25 17.4477 15.8023 17 15.25 17H9.25Z" fill="black"/>
</svg>
