<svg width="25" height="24" viewBox="0 0 25 24" fill="none" xmlns="http://www.w3.org/2000/svg">
<path d="M2.25 17.2V12C2.25 6.47715 6.72715 2 12.25 2V2C17.7728 2 22.25 6.47715 22.25 12V21" stroke="black" stroke-width="2" stroke-linecap="round" stroke-linejoin="round"/>
<path d="M5.25 18.7143V17V11.6933C5.25 11.0461 5.36863 10.4044 5.6 9.8V9.8M19.25 11.8571C19.25 9.8091 18.3334 7.97076 16.8802 6.71429C15.6462 5.64738 14.0253 5 12.25 5C10.1633 5 8.28994 5.89438 7.00748 7.31316" stroke="black" stroke-width="2" stroke-linecap="round" stroke-linejoin="round"/>
<path d="M8.25 13V12C8.25 9.79086 10.0409 8 12.25 8V8C14.4591 8 16.25 9.79086 16.25 12V12" stroke="black" stroke-width="2" stroke-linecap="round" stroke-linejoin="round"/>
<path d="M12.25 12V13C12.25 14.1046 13.1454 15 14.25 15V15C15.3546 15 16.25 14.1046 16.25 13V12" stroke="black" stroke-width="2" stroke-linecap="round" stroke-linejoin="round"/>
<path d="M8.25 12.4V12.5C8.25 15.5376 10.7124 18 13.75 18V18C16.7876 18 19.25 15.5376 19.25 12.5V12" stroke="black" stroke-width="2" stroke-linecap="round" stroke-linejoin="round"/>
<path d="M17.5837 20C16.5734 20.6468 15.3724 21.0218 14.0837 21.0218C13.447 21.0218 12.8316 20.9292 12.25 20.7568" stroke="black" stroke-width="2" stroke-linecap="round" stroke-linejoin="round"/>
<path d="M8.25 19V20" stroke="black" stroke-width="2" stroke-linecap="round" stroke-linejoin="round"/>
</svg>
