<svg width="25" height="24" viewBox="0 0 25 24" fill="none" xmlns="http://www.w3.org/2000/svg">
<path d="M13.75 9.25C13.75 8.69772 13.3023 8.25 12.75 8.25C12.1977 8.25 11.75 8.69772 11.75 9.25C11.1977 9.25 10.75 9.69772 10.75 10.25C10.75 10.8023 11.1977 11.25 11.75 11.25C11.75 11.8023 12.1977 12.25 12.75 12.25C13.3023 12.25 13.75 11.8023 13.75 11.25C14.3023 11.25 14.75 10.8023 14.75 10.25C14.75 9.69772 14.3023 9.25 13.75 9.25Z" fill="black"/>
<path fill-rule="evenodd" clip-rule="evenodd" d="M2.75 10.2111C2.75 10.9233 3.14182 11.5439 3.72165 11.8693L4.28193 17.4029C4.48876 19.4456 6.20848 21 8.26159 21H17.2384C19.2915 21 21.0112 19.4456 21.2181 17.4029L21.7784 11.8693C22.3582 11.5439 22.75 10.9233 22.75 10.2111V8.88889C22.75 7.10931 21.3074 5.66667 19.5278 5.66667H17.212C16.7767 4.12766 15.3617 3 13.6833 3H11.8167C10.1383 3 8.72331 4.12766 8.28802 5.66667H5.97222C4.19264 5.66667 2.75 7.1093 2.75 8.88889V10.2111ZM5.97222 7.66667C5.29721 7.66667 4.75 8.21387 4.75 8.88889V10.116C4.84411 10.1254 4.93437 10.1478 5.01897 10.1814L11.6931 12.6533C11.9154 12.7356 12.1506 12.7778 12.3877 12.7778H13.1123C13.3494 12.7778 13.5846 12.7356 13.8069 12.6533L20.481 10.1814C20.5656 10.1478 20.6559 10.1254 20.75 10.116V8.88889C20.75 8.21387 20.2028 7.66667 19.5278 7.66667H5.97222ZM6.27176 17.2015L5.80645 12.6058L10.9985 14.5288C11.4431 14.6935 11.9135 14.7778 12.3877 14.7778H13.1123C13.5865 14.7778 14.0569 14.6935 14.5015 14.5288L19.6936 12.6058L19.2282 17.2015C19.1248 18.2228 18.265 19 17.2384 19H8.26159C7.23503 19 6.37517 18.2228 6.27176 17.2015ZM13.6833 5C14.2286 5 14.7127 5.26185 15.0168 5.66667H10.4832C10.7873 5.26185 11.2714 5 11.8167 5H13.6833Z" fill="black"/>
</svg>
