<svg width="25" height="24" viewBox="0 0 25 24" fill="none" xmlns="http://www.w3.org/2000/svg">
<path fill-rule="evenodd" clip-rule="evenodd" d="M5.85484 1.58141C6.22183 1.42354 6.64756 1.49925 6.93762 1.77395L6.94026 1.77644L6.95079 1.78635L6.99445 1.82712C7.03316 1.86312 7.09042 1.91599 7.16276 1.98175C7.30768 2.1135 7.51184 2.29582 7.74778 2.49721C8.23149 2.91009 8.80507 3.36532 9.26662 3.64381C10.7738 4.55318 13.1509 4.81389 15.3152 4.79804C16.368 4.79033 17.3173 4.7184 18.0036 4.64821C18.3461 4.61318 18.6215 4.57875 18.8096 4.55334C18.9036 4.54064 18.9757 4.5302 19.0234 4.5231L19.0762 4.51508L19.0882 4.51319L19.0903 4.51286C19.4421 4.45605 19.7979 4.59071 20.0237 4.86642C20.2495 5.14221 20.3115 5.51737 20.1863 5.85115L18.8597 9.38878L21.098 12.97C21.2725 13.2492 21.2984 13.5964 21.1672 13.8984C21.0361 14.2004 20.7647 14.4184 20.4416 14.4815C15.1734 15.5098 11.9876 14.7997 7.25 13.5398V21.5C7.25 22.0523 6.80228 22.5 6.25 22.5C5.69772 22.5 5.25 22.0523 5.25 21.5V2.50002C5.25 2.10049 5.48782 1.73929 5.85484 1.58141ZM15.3299 6.79799C16.2364 6.79135 17.0678 6.74055 17.7387 6.68215L16.8137 9.1489C16.7044 9.44035 16.737 9.76607 16.902 10.03L18.6103 12.7634C14.4777 13.3458 11.7305 12.6668 7.25 11.4697V4.67074C7.57259 4.91957 7.91236 5.16254 8.23338 5.35624C10.253 6.57484 13.1259 6.81413 15.3299 6.79799Z" fill="black"/>
</svg>
