<svg width="25" height="24" viewBox="0 0 25 24" fill="none" xmlns="http://www.w3.org/2000/svg">
<path d="M12.75 21.3333C14.8833 21.2222 19.47 20 20.75 16C14.35 16 12.75 19.5556 12.75 21.3333Z" stroke="black" stroke-width="2" stroke-linecap="round" stroke-linejoin="round"/>
<path d="M12.75 21.3333C10.6167 21.2222 6.03 20 4.75 16C11.15 16 12.75 19.5556 12.75 21.3333Z" stroke="black" stroke-width="2" stroke-linecap="round" stroke-linejoin="round"/>
<path d="M12.75 21.3333V13.3333M12.75 4.00001C15.0489 4.04034 17.4597 3.18501 18.3712 2.82384C18.5264 2.76235 18.6906 2.90409 18.6502 3.06601L18.1127 5.21571C18.0932 5.29384 18.0833 5.37406 18.0833 5.45458V8.00001C18.0833 10.9455 15.6955 13.3333 12.75 13.3333V13.3333C9.80446 13.3333 7.41665 10.9455 7.41665 8.00001V5.45457C7.41665 5.37405 7.40677 5.29384 7.38724 5.21572L6.84333 3.03999C6.80405 2.88289 6.95728 2.74389 7.11003 2.79766C8.04384 3.12636 10.6194 3.96263 12.75 4.00001Z" stroke="black" stroke-width="2" stroke-linecap="round"/>
</svg>
