<svg width="25" height="24" viewBox="0 0 25 24" fill="none" xmlns="http://www.w3.org/2000/svg">
<path d="M5.81692 3C3.84696 3 2.25 4.59696 2.25 6.56692V17C2.25 19.2091 4.04086 21 6.25 21H13.25C13.8023 21 14.25 20.5523 14.25 20C14.25 19.4477 13.8023 19 13.25 19H6.25C5.14543 19 4.25 18.1046 4.25 17V6.56692C4.25 5.70153 4.95153 5 5.81692 5H8.33408C8.33497 5.00067 8.338 5.00191 8.34324 5.00403C8.37153 5.01554 8.46433 5.05326 8.63332 5.17128C8.87291 5.33861 9.1526 5.58635 9.45694 5.88585C9.74043 6.16484 10.0193 6.46251 10.2857 6.74694L10.3353 6.79984C10.6002 7.08258 10.8804 7.38114 11.1079 7.58162C11.2695 7.72409 11.4999 7.86084 11.6805 7.95285C11.7811 8.00406 11.898 8.05773 12.0188 8.10103C12.1155 8.13573 12.3106 8.2 12.5347 8.2H18.2514C19.3553 8.2 20.25 9.09484 20.25 10.2V12.5C20.25 13.0523 20.6977 13.5 21.25 13.5C21.8023 13.5 22.25 13.0523 22.25 12.5V10.2C22.25 7.99145 20.4611 6.2 18.2514 6.2H12.6495C12.6325 6.19236 12.6117 6.18266 12.5884 6.17076C12.54 6.14614 12.493 6.11913 12.4557 6.09557C12.4387 6.0848 12.4265 6.07653 12.4191 6.07132C12.2798 5.94676 12.0765 5.73301 11.7947 5.43229L11.7397 5.37363C11.4785 5.0947 11.1735 4.76909 10.8598 4.46035C10.527 4.13287 10.1543 3.79405 9.77848 3.53158C9.43934 3.29472 8.93354 3 8.36436 3H5.81692Z" fill="black"/>
<path fill-rule="evenodd" clip-rule="evenodd" d="M21.9167 16.6667C21.9167 15.1939 20.7228 14 19.25 14C17.7772 14 16.5833 15.1939 16.5833 16.6667V16.8912C15.795 17.2657 15.25 18.0692 15.25 19V20.6667C15.25 21.7712 16.1454 22.6667 17.25 22.6667H21.25C22.3546 22.6667 23.25 21.7712 23.25 20.6667V19C23.25 18.0692 22.705 17.2657 21.9167 16.8912V16.6667ZM18.5833 16.6667C18.5833 16.2985 18.8818 16 19.25 16C19.6182 16 19.9167 16.2985 19.9167 16.6667H18.5833ZM17.25 19C17.25 18.8159 17.3992 18.6667 17.5833 18.6667H20.9167C21.1008 18.6667 21.25 18.8159 21.25 19V20.6667H17.25V19Z" fill="black"/>
</svg>
