<svg width="25" height="24" viewBox="0 0 25 24" fill="none" xmlns="http://www.w3.org/2000/svg">
<path d="M2.25 6.56692C2.25 4.59696 3.84696 3 5.81692 3H8.36436C8.93354 3 9.43934 3.29472 9.77848 3.53158C10.1543 3.79405 10.527 4.13287 10.8598 4.46035C11.1735 4.76909 11.4785 5.0947 11.7397 5.37363L11.7947 5.43229C12.0765 5.73301 12.2798 5.94676 12.4191 6.07132C12.4265 6.07653 12.4387 6.0848 12.4557 6.09557C12.493 6.11913 12.54 6.14614 12.5884 6.17076C12.6117 6.18266 12.6322 6.19236 12.6492 6.2H18.2514C20.4611 6.2 22.25 7.99145 22.25 10.2V12.5C22.25 13.0523 21.8023 13.5 21.25 13.5C20.6977 13.5 20.25 13.0523 20.25 12.5V10.2C20.25 9.09484 19.3553 8.2 18.2514 8.2H12.5347C12.3106 8.2 12.1155 8.13573 12.0188 8.10103C11.898 8.05773 11.7811 8.00406 11.6805 7.95285C11.4999 7.86084 11.2695 7.72409 11.1079 7.58162C10.8804 7.38114 10.6002 7.08258 10.3353 6.79984L10.2857 6.74694C10.0193 6.46251 9.74043 6.16484 9.45694 5.88585C9.1526 5.58635 8.87291 5.33861 8.63332 5.17128C8.46433 5.05326 8.37153 5.01554 8.34324 5.00403C8.338 5.00191 8.33497 5.00067 8.33408 5H5.81692C4.95153 5 4.25 5.70153 4.25 6.56692V17C4.25 18.1046 5.14543 19 6.25 19H13.25C13.8023 19 14.25 19.4477 14.25 20C14.25 20.5523 13.8023 21 13.25 21H6.25C4.04086 21 2.25 19.2091 2.25 17V6.56692Z" fill="black"/>
<path fill-rule="evenodd" clip-rule="evenodd" d="M15.45 16C15.45 14.3431 16.7931 13 18.45 13C20.1068 13 21.45 14.3431 21.45 16C21.45 17.0227 20.9382 17.9259 20.1568 18.4674C20.8441 18.86 21.3779 19.4432 21.7017 19.9913C21.847 20.2371 21.9468 20.5247 21.9499 20.8422C21.953 21.1637 21.8562 21.4494 21.7105 21.6841C21.4407 22.1189 21.0072 22.3786 20.6688 22.5341C19.9685 22.856 19.0748 23 18.45 23C17.8251 23 16.9315 22.856 16.2311 22.5341C15.8927 22.3786 15.4593 22.1189 15.1894 21.6841C15.0437 21.4494 14.9469 21.1637 14.95 20.8422C14.9531 20.5247 15.0529 20.2371 15.1982 19.9913C15.522 19.4432 16.0558 18.86 16.7431 18.4674C15.9617 17.9259 15.45 17.0227 15.45 16ZM18.45 15C17.8977 15 17.45 15.4477 17.45 16C17.45 16.5523 17.8977 17 18.45 17C19.0023 17 19.45 16.5523 19.45 16C19.45 15.4477 19.0023 15 18.45 15ZM18.45 20C17.9695 20 17.4597 20.3089 17.1105 20.7365C17.4976 20.9024 18.0657 21 18.45 21C18.8342 21 19.4023 20.9024 19.7894 20.7365C19.4403 20.3089 18.9304 20 18.45 20Z" fill="black"/>
</svg>
