<svg width="25" height="24" viewBox="0 0 25 24" fill="none" xmlns="http://www.w3.org/2000/svg">
<path d="M2.25 6.56692C2.25 4.59696 3.84696 3 5.81692 3H8.36436C8.93354 3 9.43934 3.29472 9.77848 3.53158C10.1543 3.79405 10.527 4.13287 10.8598 4.46035C11.1735 4.76909 11.4785 5.0947 11.7397 5.37363L11.7947 5.43229C12.0765 5.73301 12.2798 5.94676 12.4191 6.07132C12.4265 6.07653 12.4387 6.0848 12.4557 6.09557C12.493 6.11913 12.54 6.14614 12.5884 6.17076C12.6117 6.18266 12.6322 6.19236 12.6492 6.2H18.2514C20.4611 6.2 22.25 7.99145 22.25 10.2V12.5C22.25 13.0523 21.8023 13.5 21.25 13.5C20.6977 13.5 20.25 13.0523 20.25 12.5V10.2C20.25 9.09484 19.3553 8.2 18.2514 8.2H12.5347C12.3106 8.2 12.1155 8.13573 12.0188 8.10103C11.898 8.05773 11.7811 8.00406 11.6805 7.95285C11.4999 7.86084 11.2695 7.72409 11.1079 7.58162C10.8804 7.38114 10.6002 7.08258 10.3353 6.79984L10.2857 6.74694C10.0193 6.46251 9.74043 6.16484 9.45694 5.88585C9.1526 5.58635 8.87291 5.33861 8.63332 5.17128C8.46433 5.05326 8.37153 5.01554 8.34324 5.00403C8.338 5.00191 8.33497 5.00067 8.33408 5H5.81692C4.95153 5 4.25 5.70153 4.25 6.56692V17C4.25 18.1046 5.14543 19 6.25 19H14.75C15.3023 19 15.75 19.4477 15.75 20C15.75 20.5523 15.3023 21 14.75 21H6.25C4.04086 21 2.25 19.2091 2.25 17V6.56692Z" fill="black"/>
<path d="M22.9974 17.1644L21.6641 18.6644C21.2972 19.0771 20.6651 19.1143 20.2523 18.7474C19.8912 18.4264 19.8175 17.9025 20.0504 17.5H17.25C16.6977 17.5 16.25 17.0523 16.25 16.5C16.25 15.9477 16.6977 15.5 17.25 15.5H20.0504C19.8175 15.0975 19.8912 14.5736 20.2523 14.2526C20.6651 13.8857 21.2972 13.9229 21.6641 14.3356L22.9974 15.8356C23.3342 16.2145 23.3342 16.7855 22.9974 17.1644Z" fill="black"/>
<path d="M16.5026 21.1644C16.1658 20.7855 16.1658 20.2145 16.5026 19.8356L17.8359 18.3356C18.2028 17.9229 18.8349 17.8857 19.2477 18.2526C19.6088 18.5736 19.6825 19.0975 19.4496 19.5H22.25C22.8023 19.5 23.25 19.9477 23.25 20.5C23.25 21.0523 22.8023 21.5 22.25 21.5H19.4496C19.6825 21.9025 19.6088 22.4264 19.2477 22.7474C18.8349 23.1143 18.2028 23.0771 17.8359 22.6644L16.5026 21.1644Z" fill="black"/>
</svg>
