<svg width="25" height="24" viewBox="0 0 25 24" fill="none" xmlns="http://www.w3.org/2000/svg">
<path d="M5.81692 3C3.84696 3 2.25 4.59696 2.25 6.56692V17C2.25 19.2091 4.04086 21 6.25 21H13.25C13.8023 21 14.25 20.5523 14.25 20C14.25 19.4477 13.8023 19 13.25 19H6.25C5.14543 19 4.25 18.1046 4.25 17V6.56692C4.25 5.70153 4.95153 5 5.81692 5H8.33408C8.33497 5.00067 8.338 5.00191 8.34324 5.00403C8.37153 5.01554 8.46433 5.05326 8.63332 5.17128C8.87291 5.33861 9.1526 5.58635 9.45694 5.88585C9.74043 6.16484 10.0193 6.46251 10.2857 6.74694L10.3353 6.79984C10.6002 7.08258 10.8804 7.38114 11.1079 7.58162C11.2695 7.72409 11.4999 7.86084 11.6805 7.95285C11.7811 8.00406 11.898 8.05773 12.0188 8.10103C12.1155 8.13573 12.3106 8.2 12.5347 8.2H18.2514C19.3553 8.2 20.25 9.09484 20.25 10.2V14.5C20.25 15.0523 20.6977 15.5 21.25 15.5C21.8023 15.5 22.25 15.0523 22.25 14.5V10.2C22.25 7.99145 20.4611 6.2 18.2514 6.2H12.6495C12.6325 6.19236 12.6117 6.18266 12.5884 6.17076C12.54 6.14614 12.493 6.11913 12.4557 6.09557C12.4387 6.0848 12.4265 6.07653 12.4191 6.07132C12.2798 5.94676 12.0765 5.73301 11.7947 5.43229L11.7397 5.37363C11.4785 5.0947 11.1735 4.76909 10.8598 4.46035C10.527 4.13287 10.1543 3.79405 9.77848 3.53158C9.43934 3.29472 8.93354 3 8.36436 3H5.81692Z" fill="black"/>
<path fill-rule="evenodd" clip-rule="evenodd" d="M19.5006 15.225C19.0192 15.0301 18.4808 15.0301 17.9994 15.225L16.8928 15.6731C16.8814 15.6777 16.8701 15.6825 16.859 15.6875L16.4071 15.8901C15.7354 16.1911 15.2481 16.8599 15.25 17.6566C15.2516 18.2761 15.2937 19.4268 15.6323 20.2719C15.8716 20.8693 16.2843 21.3578 16.6657 21.7216C17.0544 22.0925 17.4639 22.3841 17.7654 22.5785C18.3671 22.9665 19.1329 22.9665 19.7346 22.5785C20.0361 22.3841 20.4456 22.0925 20.8343 21.7216C21.2157 21.3578 21.6284 20.8693 21.8677 20.2719C22.2063 19.4268 22.2484 18.2761 22.25 17.6566C22.2519 16.8599 21.7646 16.1911 21.0929 15.8901L20.641 15.6875C20.6299 15.6825 20.6186 15.6777 20.6072 15.6731L19.5006 15.225ZM17.2503 17.7038L17.6603 17.52L18.75 17.0788L19.8397 17.52L20.2497 17.7038C20.2452 18.3252 20.1866 19.0903 20.0112 19.5281C19.9201 19.7554 19.7286 20.0124 19.4538 20.2746C19.2224 20.4953 18.9679 20.6859 18.75 20.8323C18.5321 20.6859 18.2776 20.4953 18.0462 20.2746C17.7714 20.0124 17.5799 19.7554 17.4888 19.5281C17.3134 19.0903 17.2548 18.3252 17.2503 17.7038Z" fill="black"/>
</svg>
