<svg width="25" height="24" viewBox="0 0 25 24" fill="none" xmlns="http://www.w3.org/2000/svg">
<path d="M5.81692 3C3.84696 3 2.25 4.59696 2.25 6.56692V17C2.25 19.2091 4.04086 21 6.25 21H13.25C13.8023 21 14.25 20.5523 14.25 20C14.25 19.4477 13.8023 19 13.25 19H6.25C5.14543 19 4.25 18.1046 4.25 17V6.56692C4.25 5.70153 4.95153 5 5.81692 5H8.33408C8.33497 5.00067 8.338 5.00191 8.34324 5.00403C8.37153 5.01554 8.46433 5.05326 8.63332 5.17128C8.87291 5.33861 9.1526 5.58635 9.45694 5.88585C9.74043 6.16484 10.0193 6.46251 10.2857 6.74694L10.3353 6.79984C10.6002 7.08258 10.8804 7.38114 11.1079 7.58162C11.2695 7.72409 11.4999 7.86084 11.6805 7.95285C11.7811 8.00406 11.898 8.05773 12.0188 8.10103C12.1155 8.13573 12.3106 8.2 12.5347 8.2H18.2514C19.3553 8.2 20.25 9.09484 20.25 10.2V14.5C20.25 15.0523 20.6977 15.5 21.25 15.5C21.8023 15.5 22.25 15.0523 22.25 14.5V10.2C22.25 7.99145 20.4611 6.2 18.2514 6.2H12.6495C12.6325 6.19236 12.6117 6.18266 12.5884 6.17076C12.54 6.14614 12.493 6.11913 12.4557 6.09557C12.4387 6.0848 12.4265 6.07653 12.4191 6.07132C12.2798 5.94676 12.0765 5.73301 11.7947 5.43229L11.7397 5.37363C11.4785 5.0947 11.1735 4.76909 10.8598 4.46035C10.527 4.13287 10.1543 3.79405 9.77848 3.53158C9.43934 3.29472 8.93354 3 8.36436 3H5.81692Z" fill="black"/>
<path fill-rule="evenodd" clip-rule="evenodd" d="M19.1 16C17.5873 16 16.3136 17.1338 16.1646 18.6195C15.6102 19.0694 15.25 19.7537 15.25 20.5294C15.25 21.9125 16.388 23 17.75 23H20.45C21.9776 23 23.25 21.7808 23.25 20.2353C23.25 19.2002 22.677 18.3101 21.8422 17.8365C21.4061 16.7524 20.3347 16 19.1 16ZM18.15 18.9118C18.15 18.4268 18.5566 18 19.1 18C19.579 18 19.9566 18.3354 20.0346 18.7464C20.1026 19.105 20.3607 19.3981 20.7078 19.5109C21.0349 19.6173 21.25 19.9115 21.25 20.2353C21.25 20.6391 20.9106 21 20.45 21H17.75C17.4551 21 17.25 20.7707 17.25 20.5294C17.25 20.3474 17.3628 20.1751 17.5498 20.0978C17.9713 19.9238 18.2216 19.4868 18.1585 19.0352C18.1529 18.9953 18.15 18.9541 18.15 18.9118Z" fill="black"/>
</svg>
