<svg width="25" height="24" viewBox="0 0 25 24" fill="none" xmlns="http://www.w3.org/2000/svg">
<path d="M5.81692 3C3.84696 3 2.25 4.59696 2.25 6.56692V17C2.25 19.2091 4.04086 21 6.25 21H14.25C14.8023 21 15.25 20.5523 15.25 20C15.25 19.4477 14.8023 19 14.25 19H6.25C5.14543 19 4.25 18.1046 4.25 17V6.56692C4.25 5.70153 4.95153 5 5.81692 5H8.33408C8.33497 5.00067 8.338 5.00191 8.34324 5.00403C8.37153 5.01554 8.46433 5.05326 8.63332 5.17128C8.87291 5.33861 9.1526 5.58635 9.45694 5.88585C9.74043 6.16484 10.0193 6.46251 10.2857 6.74694L10.3353 6.79984C10.6002 7.08258 10.8804 7.38114 11.1079 7.58162C11.2695 7.72409 11.4999 7.86084 11.6805 7.95285C11.7811 8.00406 11.898 8.05773 12.0188 8.10103C12.1155 8.13573 12.3106 8.2 12.5347 8.2H18.2514C19.3553 8.2 20.25 9.09484 20.25 10.2V15C20.25 15.5523 20.6977 16 21.25 16C21.8023 16 22.25 15.5523 22.25 15V10.2C22.25 7.99145 20.4611 6.2 18.2514 6.2H12.6495C12.6325 6.19236 12.6117 6.18266 12.5884 6.17076C12.54 6.14614 12.493 6.11913 12.4557 6.09557C12.4387 6.0848 12.4265 6.07653 12.4191 6.07132C12.2798 5.94676 12.0765 5.73301 11.7947 5.43229L11.7397 5.37363C11.4785 5.0947 11.1735 4.76909 10.8598 4.46035C10.527 4.13287 10.1543 3.79405 9.77848 3.53158C9.43934 3.29472 8.93354 3 8.36436 3H5.81692Z" fill="black"/>
<path d="M20.9144 21.4141L19.4144 22.7474C19.0355 23.0842 18.4645 23.0842 18.0856 22.7474L16.5856 21.4141C16.1729 21.0472 16.1357 20.4151 16.5026 20.0023C16.8236 19.6412 17.3475 19.5675 17.75 19.8004V17C17.75 16.4477 18.1977 16 18.75 16C19.3023 16 19.75 16.4477 19.75 17V19.8004C20.1525 19.5675 20.6764 19.6412 20.9974 20.0023C21.3643 20.4151 21.3271 21.0472 20.9144 21.4141Z" fill="black"/>
</svg>
