<svg width="25" height="24" viewBox="0 0 25 24" fill="none" xmlns="http://www.w3.org/2000/svg">
<path fill-rule="evenodd" clip-rule="evenodd" d="M10.75 5C10.75 6.28515 9.94191 7.38156 8.80612 7.80882C8.94522 8.81334 9.33694 9.76867 9.91435 10.5111C10.6369 11.4401 11.6142 12 12.75 12C13.8858 12 14.8631 11.4401 15.5856 10.5111C16.1631 9.76867 16.5548 8.81334 16.6939 7.80882C15.5581 7.38156 14.75 6.28515 14.75 5C14.75 3.34315 16.0931 2 17.75 2C19.4069 2 20.75 3.34315 20.75 5C20.75 6.32325 19.8933 7.4464 18.7043 7.84505C18.5507 9.26584 18.0153 10.6449 17.1644 11.7389C16.3273 12.8152 15.1614 13.6386 13.75 13.9068V16.1707C14.9152 16.5825 15.75 17.6938 15.75 19C15.75 20.6569 14.4069 22 12.75 22C11.0931 22 9.75 20.6569 9.75 19C9.75 17.6938 10.5848 16.5825 11.75 16.1707V13.9068C10.3386 13.6386 9.17274 12.8152 8.33565 11.7389C7.48473 10.6449 6.94926 9.26584 6.79575 7.84505C5.60672 7.4464 4.75 6.32325 4.75 5C4.75 3.34315 6.09315 2 7.75 2C9.40685 2 10.75 3.34315 10.75 5ZM7.75 4C8.30228 4 8.75 4.44772 8.75 5C8.75 5.55228 8.30228 6 7.75 6C7.19772 6 6.75 5.55228 6.75 5C6.75 4.44772 7.19772 4 7.75 4ZM17.75 6C18.3023 6 18.75 5.55228 18.75 5C18.75 4.44772 18.3023 4 17.75 4C17.1977 4 16.75 4.44772 16.75 5C16.75 5.55228 17.1977 6 17.75 6ZM11.75 19C11.75 18.4477 12.1977 18 12.75 18C13.3023 18 13.75 18.4477 13.75 19C13.75 19.5523 13.3023 20 12.75 20C12.1977 20 11.75 19.5523 11.75 19Z" fill="black"/>
</svg>
