<svg width="25" height="24" viewBox="0 0 25 24" fill="none" xmlns="http://www.w3.org/2000/svg">
<path fill-rule="evenodd" clip-rule="evenodd" d="M6.59548 6.78249C4.82936 5.89985 2.75 7.18313 2.75 9.15861V14.8414C2.75 16.8168 4.82936 18.1001 6.59548 17.2175L11.75 14.6414V14.8414C11.75 16.8168 13.8294 18.1001 15.5955 17.2175L21.2809 14.3761C23.2397 13.3972 23.2397 10.6028 21.2809 9.62386L15.5955 6.78249C13.8294 5.89985 11.75 7.18313 11.75 9.15861V9.35853L6.59548 6.78249ZM13.75 14.8414C13.75 15.3287 14.2637 15.6472 14.7014 15.4285L20.3868 12.5871C20.8711 12.3451 20.8711 11.6549 20.3868 11.4129L14.7014 8.57152C14.2637 8.35275 13.75 8.67129 13.75 9.15861V14.8414ZM11.75 11.9991C11.7497 11.7664 11.6287 11.5337 11.3868 11.4129L5.70139 8.57152C5.26366 8.35275 4.75 8.67129 4.75 9.15861V14.8414C4.75 15.3287 5.26366 15.6472 5.70139 15.4285L11.3868 12.5871C11.6287 12.4662 11.7497 12.2336 11.75 12.0008V11.9991Z" fill="black"/>
</svg>
