<svg width="25" height="24" viewBox="0 0 25 24" fill="none" xmlns="http://www.w3.org/2000/svg">
<path d="M8.25011 10C8.8024 10 9.25011 10.4477 9.25011 11V12H10.2501C10.8024 12 11.2501 12.4477 11.2501 13C11.2501 13.5523 10.8024 14 10.2501 14H9.25011V15C9.25011 15.5523 8.8024 16 8.25011 16C7.69783 16 7.25011 15.5523 7.25011 15V14H6.25011C5.69783 14 5.25011 13.5523 5.25011 13C5.25011 12.4477 5.69783 12 6.25011 12H7.25011V11C7.25011 10.4477 7.69783 10 8.25011 10Z" fill="black"/>
<path d="M16.2501 10C16.8024 10 17.2501 10.4477 17.2501 11C17.2501 11.5523 16.8024 12 16.2501 12C15.6978 12 15.2501 11.5523 15.2501 11C15.2501 10.4477 15.6978 10 16.2501 10Z" fill="black"/>
<path d="M17.2501 15C17.2501 14.4477 16.8024 14 16.2501 14C15.6978 14 15.2501 14.4477 15.2501 15C15.2501 15.5523 15.6978 16 16.2501 16C16.8024 16 17.2501 15.5523 17.2501 15Z" fill="black"/>
<path d="M18.2501 12C18.8024 12 19.2501 12.4477 19.2501 13C19.2501 13.5523 18.8024 14 18.2501 14C17.6978 14 17.2501 13.5523 17.2501 13C17.2501 12.4477 17.6978 12 18.2501 12Z" fill="black"/>
<path d="M15.2501 13C15.2501 12.4477 14.8024 12 14.2501 12C13.6978 12 13.2501 12.4477 13.2501 13C13.2501 13.5523 13.6978 14 14.2501 14C14.8024 14 15.2501 13.5523 15.2501 13Z" fill="black"/>
<path fill-rule="evenodd" clip-rule="evenodd" d="M16.2501 2.99997C16.25 2.44769 15.8023 1.99999 15.25 2C14.6977 2.00001 14.25 2.44774 14.2501 3.00003C14.2501 3.17334 14.1898 3.45556 14.0385 3.66571C13.9239 3.82487 13.7242 4 13.2501 4C12.7203 4 12.2156 4.10956 11.8012 4.39767C11.3685 4.69848 11.1397 5.12054 11.0485 5.53514C11.0256 5.6392 11.011 5.74337 11.0035 5.84673C6.67237 5.51731 2.73634 8.46986 1.87582 12.7724L1.65274 13.8878C1.35737 15.3647 1.62307 16.8986 2.39794 18.19C3.80738 20.5391 6.61857 21.649 9.25262 20.8964L10.6251 20.5043C11.6872 20.2008 12.813 20.2008 13.8751 20.5043L15.2476 20.8964C17.8817 21.649 20.6928 20.5391 22.1023 18.19C22.8772 16.8986 23.1428 15.3647 22.8475 13.8878L22.6244 12.7724C21.8201 8.75069 18.3286 5.90848 14.339 5.82364C14.9109 5.62282 15.3508 5.266 15.6616 4.83429C16.1103 4.21111 16.2501 3.49333 16.2501 2.99997ZM11.8902 7.93301C12.1157 8.01992 12.3719 8.02529 12.6102 7.933C12.8481 7.92308 13.0857 7.90333 13.3225 7.87374C16.7777 7.44184 19.9803 9.75021 20.6632 13.1647L20.8863 14.2801C21.0841 15.269 20.9062 16.2962 20.3873 17.161C19.4435 18.7341 17.5609 19.4774 15.797 18.9734L14.4246 18.5813C13.0034 18.1752 11.4969 18.1752 10.0757 18.5813L8.70317 18.9734C6.93928 19.4774 5.05676 18.7341 4.11293 17.161C3.59403 16.2962 3.41611 15.269 3.6139 14.2801L3.83698 13.1647C4.51987 9.75021 7.72257 7.44184 11.1778 7.87374C11.4145 7.90334 11.6522 7.92309 11.8902 7.93301Z" fill="black"/>
</svg>
