<svg width="25" height="24" viewBox="0 0 25 24" fill="none" xmlns="http://www.w3.org/2000/svg">
<path d="M7.34377 4.63081C7.82485 4.79117 8.20236 5.16868 8.36272 5.64976C8.52592 6.13937 9.21846 6.13937 9.38166 5.64976C9.54203 5.16868 9.91953 4.79117 10.4006 4.63081C10.8902 4.46761 10.8902 3.77507 10.4006 3.61186C9.91953 3.4515 9.54203 3.074 9.38166 2.59292C9.21846 2.10331 8.52592 2.10331 8.36272 2.59292C8.20236 3.074 7.82485 3.4515 7.34377 3.61186C6.85416 3.77507 6.85416 4.46761 7.34377 4.63081Z" fill="black"/>
<path fill-rule="evenodd" clip-rule="evenodd" d="M14.7509 9.00002C11.9894 9.00002 9.75085 11.2386 9.75085 14C9.75085 16.7614 11.9894 19 14.7509 19C17.5123 19 19.7509 16.7614 19.7509 14C19.7509 11.2386 17.5123 9.00002 14.7509 9.00002ZM11.7509 14C11.7509 12.3432 13.094 11 14.7509 11C16.4077 11 17.7509 12.3432 17.7509 14C17.7509 15.6569 16.4077 17 14.7509 17C13.094 17 11.7509 15.6569 11.7509 14Z" fill="black"/>
<path fill-rule="evenodd" clip-rule="evenodd" d="M16.9348 5.85426C15.7132 4.71527 13.7885 4.71527 12.5669 5.85426C12.3119 6.09205 11.9476 6.21011 11.5795 6.15993C9.9266 5.93459 8.33296 7.01094 8.03038 8.67352C7.97285 8.9896 7.76408 9.27787 7.44368 9.44172C5.94204 10.2096 5.30882 12.0196 6.07887 13.538C6.22729 13.8306 6.22729 14.1694 6.07887 14.4621C5.30882 15.9804 5.94204 17.7904 7.44368 18.5583C7.76408 18.7222 7.97285 19.0104 8.03038 19.3265C8.33296 20.9891 9.9266 22.0654 11.5795 21.8401C11.9476 21.7899 12.3119 21.908 12.5669 22.1458C13.7885 23.2848 15.7132 23.2848 16.9348 22.1458C17.1898 21.908 17.5541 21.7899 17.9222 21.8401C19.5751 22.0654 21.1688 20.9891 21.4713 19.3265C21.5289 19.0104 21.7376 18.7222 22.058 18.5583C23.5597 17.7904 24.1929 15.9804 23.4228 14.4621C23.2744 14.1694 23.2744 13.8306 23.4228 13.538C24.1929 12.0196 23.5597 10.2096 22.058 9.44172C21.7376 9.27787 21.5289 8.9896 21.4713 8.67352C21.1688 7.01094 19.5751 5.93459 17.9222 6.15993C17.5541 6.21011 17.1898 6.09205 16.9348 5.85426ZM13.9309 7.31704C14.3842 6.89434 15.1175 6.89434 15.5708 7.31704C16.2736 7.97229 17.241 8.2713 18.1924 8.1416C18.8468 8.05237 19.4036 8.4819 19.5037 9.03163C19.6764 9.98063 20.2907 10.7843 21.1474 11.2224C21.7043 11.5072 21.8925 12.1338 21.6391 12.6333C21.2023 13.4946 21.2023 14.5054 21.6391 15.3667C21.8925 15.8663 21.7043 16.4929 21.1474 16.7776C20.2907 17.2158 19.6764 18.0194 19.5037 18.9684C19.4036 19.5181 18.8468 19.9477 18.1924 19.8584C17.241 19.7287 16.2736 20.0277 15.5708 20.683C15.1175 21.1057 14.3842 21.1057 13.9309 20.683C13.2281 20.0277 12.2607 19.7287 11.3093 19.8584C10.6549 19.9477 10.0981 19.5181 9.99805 18.9684C9.82534 18.0194 9.21105 17.2158 8.35429 16.7776C7.7974 16.4929 7.60923 15.8663 7.86258 15.3667C8.29939 14.5054 8.29939 13.4946 7.86258 12.6333C7.60923 12.1338 7.7974 11.5072 8.35429 11.2224C9.21105 10.7843 9.82534 9.98063 9.99805 9.03163C10.0981 8.4819 10.6549 8.05237 11.3093 8.1416C12.2607 8.2713 13.2281 7.97229 13.9309 7.31704Z" fill="black"/>
<path d="M4.36272 9.64976C4.20236 9.16868 3.82485 8.79117 3.34377 8.63081C2.85416 8.46761 2.85416 7.77507 3.34377 7.61186C3.82485 7.4515 4.20236 7.074 4.36272 6.59292C4.52592 6.10331 5.21846 6.10331 5.38166 6.59292C5.54203 7.074 5.91953 7.4515 6.40061 7.61186C6.89022 7.77507 6.89022 8.46761 6.40061 8.63081C5.91953 8.79117 5.54203 9.16868 5.38166 9.64976C5.21846 10.1394 4.52592 10.1394 4.36272 9.64976Z" fill="black"/>
</svg>
