<svg width="25" height="24" viewBox="0 0 25 24" fill="none" xmlns="http://www.w3.org/2000/svg">
<path fill-rule="evenodd" clip-rule="evenodd" d="M9.25001 2C9.18416 2 9.11846 2.0065 9.05389 2.01942L5.11625 2.80695C4.12213 3.00577 3.29568 3.69323 2.91917 4.63452L1.32153 8.62861C1.19192 8.95264 1.24061 9.32081 1.45001 9.6L9.85001 20.8C10.4166 21.5554 11.3057 22 12.25 22C13.1943 22 14.0834 21.5554 14.65 20.8L23.05 9.6C23.2594 9.32081 23.3081 8.95264 23.1785 8.62861L21.5808 4.63452C21.2043 3.69323 20.3779 3.00577 19.3838 2.80695L15.4461 2.01942C15.3816 2.0065 15.3159 2 15.25 2H9.25001ZM19.8796 10.4939L15.423 16.436L17.9484 10.8801L19.8796 10.4939ZM20.875 8.25519L17.9582 8.83856L16.6621 4.30222L18.9915 4.76811C19.3229 4.83438 19.5984 5.06354 19.7239 5.3773L20.875 8.25519ZM8.57574 9L10.0043 4H14.4957L15.9243 9H8.57574ZM12.25 18.5834L8.80301 11H15.697L12.25 18.5834ZM9.077 16.436L6.55161 10.8801L4.62042 10.4939L9.077 16.436ZM4.77612 5.3773L3.62497 8.25519L6.54183 8.83856L7.83793 4.30222L5.50848 4.76811C5.17711 4.83438 4.90163 5.06354 4.77612 5.3773Z" fill="black"/>
</svg>
