<svg width="25" height="24" viewBox="0 0 25 24" fill="none" xmlns="http://www.w3.org/2000/svg">
<path fill-rule="evenodd" clip-rule="evenodd" d="M13.9482 2.10465L12.75 3.19394L11.5518 2.10465C9.67732 0.400596 7.05698 1.9314 6.98078 3.99995H4.25C2.59315 3.99995 1.25 5.34309 1.25 6.99995V8.88883C1.25 9.69296 1.69959 10.3921 2.36111 10.7485V18.9999C2.36111 21.2091 4.15197 22.9999 6.36111 22.9999H18.1389C20.348 22.9999 22.1389 21.2091 22.1389 18.9999V10.7485C22.8004 10.3921 23.25 9.69296 23.25 8.88883V6.99995C23.25 5.34309 21.9069 3.99995 20.25 3.99995H18.5192C18.443 1.9314 15.8227 0.400596 13.9482 2.10465ZM8.26833 5.99995C8.25673 6.00015 8.24514 6.00015 8.23356 5.99995H4.25C3.69772 5.99995 3.25 6.44766 3.25 6.99995V8.88883C3.25 8.9502 3.29975 8.99995 3.36111 8.99995H21.1389C21.2003 8.99995 21.25 8.9502 21.25 8.88883V6.99995C21.25 6.44766 20.8023 5.99995 20.25 5.99995H17.2664C17.2549 6.00015 17.2433 6.00015 17.2317 5.99995H8.26833ZM13.75 10.9999H10.75V13.6875C10.75 13.7219 10.7584 13.7381 10.7647 13.7477C10.7734 13.7609 10.7893 13.7765 10.8131 13.7879C10.837 13.7994 10.8591 13.8021 10.8748 13.8006C10.8863 13.7996 10.9042 13.796 10.931 13.7745C11.7021 13.1576 12.7979 13.1576 13.569 13.7745C13.5958 13.796 13.6137 13.7996 13.6252 13.8006C13.6409 13.8021 13.663 13.7994 13.6869 13.7879C13.7107 13.7765 13.7266 13.7609 13.7353 13.7477C13.7416 13.7381 13.75 13.7219 13.75 13.6875V10.9999ZM8.75 10.9999V13.6875C8.75 15.4579 10.7979 16.4422 12.1804 15.3362C12.2211 15.3037 12.2789 15.3037 12.3196 15.3362C13.7021 16.4422 15.75 15.4579 15.75 13.6875V10.9999H20.1389V18.9999C20.1389 20.1045 19.2435 20.9999 18.1389 20.9999H6.36111C5.25654 20.9999 4.36111 20.1045 4.36111 18.9999V10.9999H8.75ZM10.2064 3.58453L10.6634 3.99995H9.00741C9.09147 3.4984 9.73734 3.15808 10.2064 3.58453ZM16.4926 3.99995C16.4085 3.4984 15.7627 3.15808 15.2936 3.58453L14.8366 3.99995H16.4926Z" fill="black"/>
</svg>
