<svg width="25" height="24" viewBox="0 0 25 24" fill="none" xmlns="http://www.w3.org/2000/svg">
<path fill-rule="evenodd" clip-rule="evenodd" d="M12.25 1C6.17487 1 1.25 5.92487 1.25 12C1.25 18.0751 6.17487 23 12.25 23C18.3251 23 23.25 18.0751 23.25 12C23.25 5.92487 18.3251 1 12.25 1ZM4.40933 11.3023L3.25076 11.8816C3.27781 9.78424 4.02227 7.85988 5.25 6.34267V8.35994L4.40933 11.3023ZM7.25 4.51555C8.6801 3.55827 10.3999 3 12.25 3C17.0848 3 21.0291 6.81226 21.241 11.5947L17.7948 15.0409L17.3054 19.4471C15.8644 20.4272 14.1241 21 12.25 21C7.96891 21 4.38597 18.0109 3.47435 14.0059L6.09067 12.6977L6.46723 11.3797C6.32344 12.2094 6.71108 13.0986 7.54374 13.5149L9.79033 14.6382L10.0249 18.1571C10.1578 20.1508 12.81 20.7387 13.7729 18.9879L17.4068 12.3809C17.6856 11.874 17.7312 11.2711 17.5318 10.7279L16.692 8.43988C16.3586 7.53161 15.4228 6.99224 14.4697 7.15899L9.88894 7.9605C9.48376 8.03139 9.11029 8.22549 8.81943 8.51635L7.02395 10.3118C6.82624 10.5095 6.6801 10.735 6.5832 10.9739L7.25 8.64006V4.51555ZM19.7052 15.9591L20.7768 14.8874C20.4886 15.7388 20.0765 16.533 19.5619 17.2487L19.7052 15.9591ZM10.6848 12.8493L8.43816 11.726L10.2336 9.93057L14.8144 9.12906L15.6543 11.4171L12.0205 18.0241L11.7859 14.5052C11.7387 13.7969 11.3196 13.1668 10.6848 12.8493Z" fill="black"/>
</svg>
