<svg width="25" height="24" viewBox="0 0 25 24" fill="none" xmlns="http://www.w3.org/2000/svg">
<path fill-rule="evenodd" clip-rule="evenodd" d="M12.25 1C8.65056 1 5.45486 2.7299 3.4497 5.39942C2.06871 7.23797 1.25 9.52482 1.25 12C1.25 14.4752 2.06871 16.762 3.4497 18.6006C5.45486 21.2701 8.65056 23 12.25 23C15.8494 23 19.0451 21.2701 21.0503 18.6006C22.4313 16.762 23.25 14.4752 23.25 12C23.25 9.52482 22.4313 7.23797 21.0503 5.39942C19.0451 2.7299 15.8494 1 12.25 1ZM5.15148 6.9176C5.37565 6.89682 5.63969 6.87293 5.93444 6.84733C5.85258 8.06193 5.78095 9.49456 5.75782 11H3.30486C3.4694 9.50989 3.99743 8.13055 4.79856 6.95084C4.90102 6.94104 5.01929 6.92986 5.15148 6.9176ZM4.79856 17.0492C3.99743 15.8695 3.4694 14.4901 3.30486 13H5.75782C5.78095 14.5054 5.85258 15.9381 5.93444 17.1527C5.63969 17.1271 5.37565 17.1032 5.15148 17.0824C5.01929 17.0701 4.90102 17.059 4.79856 17.0492ZM7.75806 13C7.78297 14.5746 7.86241 16.0714 7.95023 17.3123C9.02446 17.3887 10.1923 17.4564 11.25 17.4852V13H7.75806ZM8.16935 19.8659C8.1754 19.9251 8.18118 19.9809 8.18664 20.0329C9.12517 20.5086 10.1582 20.8245 11.25 20.9451V19.4859C10.2376 19.4595 9.13779 19.3986 8.11654 19.3288C8.1346 19.5195 8.15151 19.6907 8.16673 19.8403C8.16761 19.8489 8.16848 19.8574 8.16935 19.8659ZM16.3134 20.0329C15.3748 20.5086 14.3418 20.8245 13.25 20.9451V19.4859C14.2624 19.4595 15.3622 19.3986 16.3835 19.3288C16.3654 19.5195 16.3485 19.6907 16.3333 19.8403C16.3263 19.9091 16.3196 19.9734 16.3134 20.0329ZM16.5498 17.3123C15.4755 17.3887 14.3077 17.4564 13.25 17.4852V13H16.7419C16.717 14.5746 16.6376 16.0714 16.5498 17.3123ZM16.5498 6.68766C16.6376 7.92861 16.717 9.42539 16.7419 11H13.25V6.51476C14.3077 6.5436 15.4755 6.61133 16.5498 6.68766ZM16.3835 4.67121C15.3622 4.60142 14.2624 4.54054 13.25 4.51407V3.05489C14.3418 3.17552 15.3748 3.49139 16.3134 3.96708C16.3196 4.02656 16.3263 4.09085 16.3333 4.15974C16.3485 4.30931 16.3654 4.48051 16.3835 4.67121ZM8.11654 4.67121C9.13779 4.60142 10.2376 4.54054 11.25 4.51407V3.05489C10.1582 3.17552 9.12517 3.49139 8.18664 3.96708C8.1804 4.02656 8.17375 4.09085 8.16673 4.15974C8.15151 4.30931 8.1346 4.48051 8.11654 4.67121ZM11.25 6.51476C10.1923 6.5436 9.02446 6.61133 7.95023 6.68766C7.86241 7.92861 7.78297 9.42539 7.75806 11H11.25V6.51476ZM19.3485 6.9176C19.1244 6.89682 18.8603 6.87293 18.5656 6.84733C18.6474 8.06193 18.7191 9.49456 18.7422 11H21.1951C21.0306 9.50989 20.5026 8.13055 19.7014 6.95084C19.599 6.94104 19.4807 6.92986 19.3485 6.9176ZM18.5656 17.1527C18.6474 15.9381 18.7191 14.5054 18.7422 13H21.1951C21.0306 14.4901 20.5026 15.8695 19.7014 17.0492C19.599 17.059 19.4807 17.0701 19.3485 17.0824C19.1244 17.1032 18.8603 17.1271 18.5656 17.1527Z" fill="black"/>
</svg>
