<svg width="25" height="24" viewBox="0 0 25 24" fill="none" xmlns="http://www.w3.org/2000/svg">
<path fill-rule="evenodd" clip-rule="evenodd" d="M12.25 8C10.0409 8 8.25 9.79086 8.25 12C8.25 14.2091 10.0409 16 12.25 16C14.4591 16 16.25 14.2091 16.25 12C16.25 9.79086 14.4591 8 12.25 8ZM10.25 12C10.25 10.8954 11.1454 10 12.25 10C13.3546 10 14.25 10.8954 14.25 12C14.25 13.1046 13.3546 14 12.25 14C11.1454 14 10.25 13.1046 10.25 12Z" fill="black"/>
<path fill-rule="evenodd" clip-rule="evenodd" d="M12.25 1C12.8023 1 13.25 1.44772 13.25 2V3.05493C17.4216 3.51608 20.7339 6.82838 21.1951 11H22.25C22.8023 11 23.25 11.4477 23.25 12C23.25 12.5523 22.8023 13 22.25 13H21.1951C20.7339 17.1716 17.4216 20.4839 13.25 20.9451V22C13.25 22.5523 12.8023 23 12.25 23C11.6977 23 11.25 22.5523 11.25 22V20.9451C7.07838 20.4839 3.76608 17.1716 3.30493 13H2.25C1.69772 13 1.25 12.5523 1.25 12C1.25 11.4477 1.69772 11 2.25 11H3.30493C3.76608 6.82838 7.07838 3.51608 11.25 3.05493V2C11.25 1.44772 11.6977 1 12.25 1ZM19.25 12C19.25 8.13401 16.116 5 12.25 5C8.38401 5 5.25 8.13401 5.25 12C5.25 15.866 8.38401 19 12.25 19C16.116 19 19.25 15.866 19.25 12Z" fill="black"/>
</svg>
