<svg width="25" height="24" viewBox="0 0 25 24" fill="none" xmlns="http://www.w3.org/2000/svg">
<path fill-rule="evenodd" clip-rule="evenodd" d="M13.0226 2.54689C12.5476 2.26188 11.9541 2.26188 11.4791 2.54689L2.45091 7.96379C1.4799 8.5464 1.4799 9.95367 2.45091 10.5363L4.25083 11.6162V18.0158C4.25083 18.4537 4.44382 18.9004 4.83461 19.193C5.5958 19.7629 8.50205 21.75 12.2508 21.75C15.9996 21.75 18.9059 19.7629 19.6671 19.193C20.0578 18.9004 20.2508 18.4537 20.2508 18.0158V11.6162L22.0508 10.5363C23.0218 9.95367 23.0218 8.5464 22.0508 7.96379L13.0226 2.54689ZM4.19448 9.25003L12.2508 4.41622L20.3072 9.25003L16.9453 11.2672L13.3321 8.6863C12.8827 8.36529 12.2581 8.46938 11.9371 8.9188C11.6161 9.36821 11.7202 9.99276 12.1696 10.3138L15.0752 12.3892L12.2508 14.0838L4.19448 9.25003ZM15.2508 14.6162L13.0226 15.9532C12.5476 16.2382 11.9541 16.2382 11.4791 15.9532L6.25083 12.8162V17.7491C7.13349 18.3662 9.43516 19.75 12.2508 19.75C15.0665 19.75 17.3682 18.3662 18.2508 17.7491V12.8162L17.2508 13.4162V16C17.2508 16.5523 16.8031 17 16.2508 17C15.6985 17 15.2508 16.5523 15.2508 16V14.6162Z" fill="black"/>
</svg>
