<svg width="25" height="24" viewBox="0 0 25 24" fill="none" xmlns="http://www.w3.org/2000/svg">
<path fill-rule="evenodd" clip-rule="evenodd" d="M4.75 11.5C3.36929 11.5 2.25 10.3807 2.25 9V4C2.25 2.61929 3.36929 1.5 4.75 1.5H9.75C11.1307 1.5 12.25 2.61929 12.25 4V9C12.25 10.3807 11.1307 11.5 9.75 11.5H4.75ZM4.25 9C4.25 9.27614 4.47386 9.5 4.75 9.5L9.75 9.5C10.0261 9.5 10.25 9.27614 10.25 9V4C10.25 3.72386 10.0261 3.5 9.75 3.5L4.75 3.5C4.47386 3.5 4.25 3.72386 4.25 4L4.25 9Z" fill="black"/>
<path fill-rule="evenodd" clip-rule="evenodd" d="M2.25 20C2.25 21.3807 3.36929 22.5 4.75 22.5H9.75C11.1307 22.5 12.25 21.3807 12.25 20V15C12.25 13.6193 11.1307 12.5 9.75 12.5H4.75C3.36929 12.5 2.25 13.6193 2.25 15V20ZM4.75 20.5C4.47386 20.5 4.25 20.2761 4.25 20L4.25 15C4.25 14.7239 4.47386 14.5 4.75 14.5H9.75C10.0261 14.5 10.25 14.7239 10.25 15V20C10.25 20.2761 10.0261 20.5 9.75 20.5H4.75Z" fill="black"/>
<path fill-rule="evenodd" clip-rule="evenodd" d="M13.25 20C13.25 21.3807 14.3693 22.5 15.75 22.5H20.75C22.1307 22.5 23.25 21.3807 23.25 20V15C23.25 13.6193 22.1307 12.5 20.75 12.5H15.75C14.3693 12.5 13.25 13.6193 13.25 15V20ZM15.75 20.5C15.4739 20.5 15.25 20.2761 15.25 20V15C15.25 14.7239 15.4739 14.5 15.75 14.5H20.75C21.0261 14.5 21.25 14.7239 21.25 15V20C21.25 20.2761 21.0261 20.5 20.75 20.5H15.75Z" fill="black"/>
<path fill-rule="evenodd" clip-rule="evenodd" d="M13.25 9C13.25 10.3807 14.3693 11.5 15.75 11.5H20.75C22.1307 11.5 23.25 10.3807 23.25 9V4C23.25 2.61929 22.1307 1.5 20.75 1.5H15.75C14.3693 1.5 13.25 2.61929 13.25 4V9ZM15.75 9.5C15.4739 9.5 15.25 9.27614 15.25 9V4C15.25 3.72386 15.4739 3.5 15.75 3.5L20.75 3.5C21.0261 3.5 21.25 3.72386 21.25 4V9C21.25 9.27614 21.0261 9.5 20.75 9.5L15.75 9.5Z" fill="black"/>
</svg>
