<svg width="25" height="24" viewBox="0 0 25 24" fill="none" xmlns="http://www.w3.org/2000/svg">
<path fill-rule="evenodd" clip-rule="evenodd" d="M2.75 8.5C2.75 9.88071 3.86929 11 5.25 11L20.25 11C21.6307 11 22.75 9.88071 22.75 8.5V4.5C22.75 3.11929 21.6307 2 20.25 2H5.25C3.86929 2 2.75 3.11929 2.75 4.5V8.5ZM5.25 9C4.97386 9 4.75 8.77614 4.75 8.5L4.75 4.5C4.75 4.22386 4.97386 4 5.25 4L20.25 4C20.5261 4 20.75 4.22386 20.75 4.5V8.5C20.75 8.77614 20.5261 9 20.25 9L5.25 9Z" fill="black"/>
<path fill-rule="evenodd" clip-rule="evenodd" d="M5.25 22C3.86929 22 2.75 20.8807 2.75 19.5V14.5C2.75 13.1193 3.86929 12 5.25 12H9.25C10.6307 12 11.75 13.1193 11.75 14.5V19.5C11.75 20.8807 10.6307 22 9.25 22H5.25ZM4.75 19.5C4.75 19.7761 4.97386 20 5.25 20H9.25C9.52614 20 9.75 19.7761 9.75 19.5V14.5C9.75 14.2239 9.52614 14 9.25 14H5.25C4.97386 14 4.75 14.2239 4.75 14.5L4.75 19.5Z" fill="black"/>
<path fill-rule="evenodd" clip-rule="evenodd" d="M16.25 22C14.8693 22 13.75 20.8807 13.75 19.5V14.5C13.75 13.1193 14.8693 12 16.25 12H20.25C21.6307 12 22.75 13.1193 22.75 14.5V19.5C22.75 20.8807 21.6307 22 20.25 22H16.25ZM15.75 19.5C15.75 19.7761 15.9739 20 16.25 20H20.25C20.5261 20 20.75 19.7761 20.75 19.5V14.5C20.75 14.2239 20.5261 14 20.25 14H16.25C15.9739 14 15.75 14.2239 15.75 14.5V19.5Z" fill="black"/>
</svg>
