<svg width="25" height="24" viewBox="0 0 25 24" fill="none" xmlns="http://www.w3.org/2000/svg">
<path d="M21.25 16V13C21.25 8.02944 17.2206 4 12.25 4C7.27944 4 3.25 8.02944 3.25 13V16M21.25 16V18.4118C21.25 19.2889 20.5389 20 19.6618 20C18.7846 20 18.0735 19.2889 18.0735 18.4118V16.2389C18.0735 14.2634 20.9545 14.0467 21.25 16ZM3.25 16V18.4118C3.25 19.2889 3.96108 20 4.83824 20C5.71539 20 6.42647 19.2889 6.42647 18.4118V16.2507C6.42647 14.2814 3.5589 14.0551 3.25 16Z" stroke="black" stroke-width="2" stroke-linecap="round" stroke-linejoin="round"/>
</svg>
