<svg width="25" height="24" viewBox="0 0 25 24" fill="none" xmlns="http://www.w3.org/2000/svg">
<path fill-rule="evenodd" clip-rule="evenodd" d="M12.2501 3C6.7273 3 2.25015 7.47715 2.25015 13V15.9841C2.24995 15.9956 2.24995 16.007 2.25015 16.0183V18.4118C2.25015 19.8412 3.40894 21 4.83838 21C6.26782 21 7.42662 19.8412 7.42662 18.4118V16.2507C7.42662 14.3089 5.71177 13.4095 4.25015 13.7078V13C4.25015 8.58172 7.83187 5 12.2501 5C16.6684 5 20.2501 8.58172 20.2501 13V13.6972C18.789 13.3985 17.0737 14.2952 17.0737 16.2389V18.4118C17.0737 18.8882 17.2024 19.3346 17.427 19.718C16.5419 20.1581 15.334 20.5 13.7501 20.5C13.1979 20.5 12.7501 20.9478 12.7501 21.5C12.7501 22.0523 13.1979 22.5 13.7501 22.5C16.194 22.5 18.0057 21.8106 19.2466 20.9669C19.3818 20.9887 19.5205 21 19.6619 21C21.0914 21 22.2501 19.8412 22.2501 18.4118V16.0178C22.2503 16.0068 22.2503 15.9958 22.2501 15.9847V13C22.2501 7.47715 17.773 3 12.2501 3ZM19.5021 18.978C19.5529 18.9923 19.6065 19 19.6619 19C19.9868 19 20.2501 18.7366 20.2501 18.4118V16.0882C20.209 15.8995 20.124 15.8038 20.0464 15.7481C19.9453 15.6756 19.796 15.6306 19.6261 15.6433C19.4562 15.6561 19.3153 15.723 19.2262 15.8098C19.1507 15.8833 19.0737 16.0063 19.0737 16.2389V18.4118C19.0737 18.631 19.1936 18.8222 19.3715 18.9234C19.4161 18.9384 19.4597 18.9567 19.5021 18.978ZM4.25015 18.4118V16.0927C4.29272 15.907 4.3776 15.8125 4.45537 15.7573C4.55692 15.6853 4.70617 15.641 4.87555 15.6544C5.04493 15.6678 5.18538 15.7349 5.27438 15.822C5.34998 15.8959 5.42662 16.0191 5.42662 16.2507V18.4118C5.42662 18.7366 5.16326 19 4.83838 19C4.51351 19 4.25015 18.7366 4.25015 18.4118Z" fill="black"/>
</svg>
