<svg width="25" height="24" viewBox="0 0 25 24" fill="none" xmlns="http://www.w3.org/2000/svg">
<path fill-rule="evenodd" clip-rule="evenodd" d="M10.75 2C9.64543 2 8.75 2.89543 8.75 4V8H4.75C3.64543 8 2.75 8.89543 2.75 10V14C2.75 15.1046 3.64543 16 4.75 16H8.75V20C8.75 21.1046 9.64543 22 10.75 22H14.75C15.8546 22 16.75 21.1046 16.75 20V16H20.75C21.8546 16 22.75 15.1046 22.75 14V10C22.75 8.89543 21.8546 8 20.75 8H16.75V4C16.75 2.89543 15.8546 2 14.75 2H10.75ZM8.75 10C9.85457 10 10.75 9.10457 10.75 8V4H14.75V8C14.75 9.10457 15.6454 10 16.75 10H20.75V14H16.75C15.6454 14 14.75 14.8954 14.75 16V20H10.75V16C10.75 14.8954 9.85457 14 8.75 14H4.75V10H8.75Z" fill="black"/>
</svg>
