<svg width="25" height="24" viewBox="0 0 25 24" fill="none" xmlns="http://www.w3.org/2000/svg">
<path d="M12.1073 8.48548C11.9195 8.17252 11.5761 7.98671 11.2114 8.00072C10.8467 8.01472 10.5186 8.22632 10.3553 8.55277L8.63173 12H8.24976C7.69748 12 7.24976 12.4477 7.24976 13C7.24976 13.5523 7.69748 14 8.24976 14H9.24976C9.62854 14 9.9748 13.786 10.1442 13.4472L11.3295 11.0765L13.3923 14.5145C13.5686 14.8084 13.8833 14.9915 14.226 14.9997C14.5687 15.0079 14.8917 14.8399 15.0818 14.5547L16.7849 12H17.2498C17.802 12 18.2498 11.5523 18.2498 11C18.2498 10.4477 17.802 9.99998 17.2498 9.99998H16.2498C15.9154 9.99998 15.6032 10.1671 15.4177 10.4453L14.2943 12.1305L12.1073 8.48548Z" fill="black"/>
<path fill-rule="evenodd" clip-rule="evenodd" d="M12.43 3.21034C11.9462 3.08011 11.4953 2.91447 11.0234 2.7375L10.9314 2.70297C10.4992 2.54063 10.0341 2.36591 9.56004 2.23475C8.49202 1.93924 7.33308 1.85075 5.94678 2.40065C2.73195 3.67589 1.32129 7.13393 1.86473 10.3675C2.28708 12.8806 3.94522 15.1328 5.70582 16.9088C7.48613 18.7047 9.48789 20.1294 10.7948 20.9779C11.989 21.7532 13.5105 21.7532 14.7047 20.9779C16.0116 20.1294 18.0134 18.7047 19.7937 16.9088C21.5543 15.1328 23.2124 12.8806 23.6348 10.3675C24.1782 7.13392 22.7676 3.6759 19.5527 2.40066C18.1665 1.85075 17.0075 1.93924 15.9395 2.23475C15.4655 2.36592 15.0003 2.54063 14.5681 2.70296L14.4761 2.7375C14.0043 2.91447 13.5533 3.08011 13.0695 3.21034C12.8604 3.26662 12.6391 3.26662 12.43 3.21034ZM6.68423 4.25973C7.57337 3.90704 8.27142 3.95334 9.02669 4.16232C9.41141 4.26877 9.79774 4.41374 10.2529 4.58454L10.3211 4.61012C10.7921 4.78678 11.3237 4.98374 11.9102 5.1416C12.4598 5.28953 13.0397 5.28953 13.5893 5.1416C14.1758 4.98374 14.7074 4.78679 15.1785 4.61012L15.2467 4.58453C15.7018 4.41374 16.0881 4.26877 16.4729 4.16232C17.2281 3.95335 17.9262 3.90704 18.8153 4.25973C20.9596 5.11032 22.087 7.50992 21.6625 10.036C21.3427 11.9388 20.0332 13.8264 18.3733 15.5007C16.7332 17.1552 14.8619 18.4913 13.6156 19.3004C13.0838 19.6457 12.4157 19.6457 11.8839 19.3004C10.6377 18.4913 8.76628 17.1552 7.12618 15.5007C5.46637 13.8264 4.15685 11.9388 3.83707 10.036C3.41253 7.50991 4.53993 5.11031 6.68423 4.25973Z" fill="black"/>
</svg>
