<svg width="24" height="24" viewBox="0 0 24 24" fill="none" xmlns="http://www.w3.org/2000/svg">
  <path
    d="M15.5494 1.4506C15.7724 1.57844 15.9189 1.78926 15.9714 2.0223C16.0166 2.22278 15.9923 2.43971 15.8874 2.6344L15.0063 4.27061L11.1771 11.3809H12.6023C12.9133 11.3809 13.2012 11.5507 13.3588 11.827L13.3611 11.8305L13.4125 11.9364C13.5019 12.1544 13.5045 12.3999 13.4204 12.6202L13.3714 12.7284L10.1157 18.8836L9.17281 20.6663L8.95895 21.0707C8.72552 21.512 8.17281 21.672 7.73967 21.4237C7.32733 21.1873 7.17621 20.6669 7.39783 20.2464L7.73672 19.6034L8.68527 17.8037L11.1177 13.1886H9.69252C9.42059 13.1886 9.16598 13.0588 9.00102 12.8414L8.93598 12.7425L8.9337 12.739C8.77661 12.4632 8.77226 12.1217 8.92343 11.8411L11.9958 6.13772L13.929 2.54905L14.3338 1.7976C14.5693 1.36055 15.1188 1.2037 15.5494 1.4506Z"
    fill="currentColor" />
  <path fill-rule="evenodd" clip-rule="evenodd"
    d="M10.4582 2.73113C11.0985 3.0554 11.6198 3.43494 12 3.75405C12.0788 3.68797 12.1636 3.61929 12.2542 3.54905L11.1183 5.65767C11.046 5.58413 10.943 5.48432 10.8121 5.36979C10.5144 5.10934 10.0847 4.7838 9.55463 4.51536C8.51359 3.98813 7.11305 3.68538 5.47421 4.51536C4.40422 5.05725 3.73297 5.83711 3.36269 6.77235C2.98498 7.72635 2.89931 8.89997 3.11934 10.2261C3.46078 12.2839 4.92818 14.3153 6.72617 16.0763C7.11139 16.4535 7.50584 16.8127 7.89887 17.1511L6.94385 18.9632C6.4063 18.5146 5.85938 18.0268 5.32674 17.5051C3.43518 15.6525 1.59341 13.248 1.14632 10.5534C0.883901 8.97188 0.957972 7.41304 1.50313 6.03611C2.05573 4.64041 3.07049 3.49085 4.5706 2.73113C6.919 1.54179 9.00728 1.99629 10.4582 2.73113ZM11.9958 6.13772L13.929 2.54905C14.5276 2.28898 15.2155 2.0876 15.9714 2.0223C16.0166 2.22278 15.9923 2.43971 15.8874 2.6344L15.0063 4.27061C14.8093 4.34275 14.6222 4.42582 14.4454 4.51535C13.9154 4.78379 13.4857 5.10933 13.188 5.36977C13.0402 5.49902 12.9281 5.60953 12.8555 5.68469C12.8192 5.72218 12.7931 5.75063 12.7775 5.76789L12.7624 5.78493L12.7616 5.78583L12.7609 5.7866C12.571 6.00935 12.2929 6.13773 12.0001 6.13773L11.9958 6.13772ZM16.2847 4.00518C16.9637 3.97159 17.7156 4.10508 18.5257 4.51536C19.5957 5.05725 20.2669 5.83712 20.6372 6.77235C21.0149 7.72635 21.1006 8.89997 20.8806 10.2261C20.5391 12.2839 19.0718 14.3153 17.2738 16.0762C15.4995 17.8141 13.5295 19.1668 12.4038 19.8798C12.1507 20.0401 11.8493 20.0401 11.5963 19.8798C11.4023 19.7569 11.1833 19.6151 10.9445 19.4556L10.0047 21.2323C10.1931 21.3565 10.3678 21.4691 10.5261 21.5694C11.4326 22.1435 12.5675 22.1435 13.4739 21.5694C14.6582 20.8193 16.7581 19.3808 18.6732 17.5051C20.5648 15.6525 22.4065 13.248 22.8536 10.5534C23.116 8.97188 23.0419 7.41304 22.4968 6.03611C21.9442 4.64041 20.9294 3.49085 19.4293 2.73113C18.5732 2.29755 17.7516 2.08244 16.9829 2.01973C17.0153 2.32483 16.9734 2.64029 16.8494 2.93805L16.7674 3.10895L16.2847 4.00518ZM7.73672 19.6034C8.24242 19.9986 8.72827 20.3546 9.17281 20.6663L10.1157 18.8836C9.66845 18.5649 9.184 18.2031 8.68527 17.8037L7.73672 19.6034Z"
    fill="currentColor" />
</svg>