<svg width="25" height="24" viewBox="0 0 25 24" fill="none" xmlns="http://www.w3.org/2000/svg">
<path fill-rule="evenodd" clip-rule="evenodd" d="M10.7082 2.73112C11.3485 3.0554 11.8698 3.43493 12.25 3.75404C12.6303 3.43494 13.1515 3.0554 13.7917 2.73113C15.2427 1.99628 17.3309 1.54179 19.6793 2.73112C21.1794 3.49084 22.1942 4.6404 22.7468 6.0361C23.2919 7.41303 23.366 8.97187 23.1036 10.5534C22.6565 13.248 20.8148 15.6525 18.9232 17.5051C17.0081 19.3808 14.9082 20.8193 13.7239 21.5694C12.8175 22.1435 11.6826 22.1435 10.7761 21.5694C9.59185 20.8193 7.49191 19.3808 5.57674 17.5051C3.68518 15.6525 1.84341 13.248 1.39632 10.5534C1.1339 8.97187 1.20797 7.41303 1.75313 6.0361C2.30573 4.6404 3.32049 3.49084 4.8206 2.73112C7.169 1.54179 9.25728 1.99628 10.7082 2.73112ZM11.4882 5.78544C11.6781 6.0089 11.9567 6.13773 12.2501 6.13772C12.5429 6.13772 12.821 6.00934 13.0109 5.78659C13.0112 5.78634 13.0114 5.78608 13.0116 5.78583C13.0118 5.78552 13.0121 5.78522 13.0124 5.78492L13.0275 5.76789C13.0431 5.75062 13.0692 5.72217 13.1055 5.68468C13.1781 5.60952 13.2902 5.49901 13.438 5.36976C13.7357 5.10932 14.1654 4.78378 14.6954 4.51535C15.7364 3.98812 17.1369 3.68537 18.7757 4.51535C19.8457 5.05724 20.5169 5.83711 20.8872 6.77234C21.2649 7.72635 21.3506 8.89996 21.1306 10.2261C20.7891 12.2838 19.3218 14.3153 17.5238 16.0762C15.7495 17.8141 13.7795 19.1668 12.6538 19.8798C12.4007 20.0401 12.0993 20.0401 11.8463 19.8798C10.7205 19.1668 8.75054 17.8141 6.97617 16.0762C5.17818 14.3153 3.71078 12.2838 3.36934 10.2261C3.14931 8.89996 3.23498 7.72635 3.61269 6.77234C3.98297 5.83711 4.65422 5.05724 5.72421 4.51535C7.36305 3.68537 8.76359 3.98812 9.80463 4.51535C10.3347 4.78379 10.7644 5.10934 11.0621 5.36978C11.2098 5.49903 11.322 5.60954 11.3946 5.68469C11.4309 5.72219 11.457 5.75064 11.4726 5.7679L11.4882 5.78544Z" fill="black"/>
</svg>
