<svg width="25" height="24" viewBox="0 0 25 24" fill="none" xmlns="http://www.w3.org/2000/svg">
<path d="M10.607 3.94985C9.93644 2.27355 7.56356 2.27356 6.89305 3.94985L4.07297 11H2.75C2.19772 11 1.75 11.4478 1.75 12C1.75 12.5523 2.19772 13 2.75 13H4.07297C4.89078 13 5.62619 12.5021 5.92992 11.7428L8.75 4.69263L14.893 20.0502C15.5636 21.7265 17.9364 21.7265 18.607 20.0502L21.427 13L22.75 13C23.3023 13 23.75 12.5523 23.75 12C23.75 11.4478 23.3023 11 22.75 11H21.427C20.6092 11 19.8738 11.4979 19.5701 12.2573L16.75 19.3075L10.607 3.94985Z" fill="black"/>
</svg>
