<svg width="25" height="24" viewBox="0 0 25 24" fill="none" xmlns="http://www.w3.org/2000/svg">
<path d="M6.04934 3C6.04934 2.44772 5.60163 2 5.04934 2C4.49706 2 4.04934 2.44772 4.04934 3V6.6C4.04934 7.15228 4.49706 7.6 5.04934 7.6H8.65C9.20228 7.6 9.65 7.15228 9.65 6.6C9.65 6.04772 9.20228 5.6 8.65 5.6H7.44897C8.78664 4.59477 10.4488 4 12.25 4C16.6683 4 20.25 7.58172 20.25 12C20.25 16.4183 16.6683 20 12.25 20C7.83172 20 4.25 16.4183 4.25 12C4.25 11.4477 3.80228 11 3.25 11C2.69772 11 2.25 11.4477 2.25 12C2.25 17.5228 6.72715 22 12.25 22C17.7728 22 22.25 17.5228 22.25 12C22.25 6.47715 17.7728 2 12.25 2C9.90754 2 7.75317 2.80596 6.04934 4.15416V3Z" fill="black"/>
<path d="M12.25 8.5C12.25 7.94772 11.8023 7.5 11.25 7.5C10.6977 7.5 10.25 7.94772 10.25 8.5V13.5C10.25 14.0523 10.6977 14.5 11.25 14.5H14.25C14.8023 14.5 15.25 14.0523 15.25 13.5C15.25 12.9477 14.8023 12.5 14.25 12.5H12.25V8.5Z" fill="black"/>
</svg>
