<svg width="25" height="24" viewBox="0 0 25 24" fill="none" xmlns="http://www.w3.org/2000/svg">
<path fill-rule="evenodd" clip-rule="evenodd" d="M14.5445 2.38506C13.1672 1.42096 11.3341 1.42096 9.95681 2.38506L3.07923 7.19936C1.92061 8.0104 1.27639 9.37297 1.38486 10.7831L2.08988 19.9483C2.22285 21.6769 3.78905 22.9333 5.50531 22.6881L8.67492 22.2353C10.1529 22.0241 11.2507 20.7584 11.2507 19.2654V18C11.2507 17.4477 11.6984 17 12.2507 17C12.8029 17 13.2507 17.4477 13.2507 18V19.2654C13.2507 20.7584 14.3484 22.0241 15.8264 22.2353L18.996 22.6881C20.7123 22.9333 22.2785 21.6769 22.4114 19.9483L23.1165 10.7831C23.2249 9.37297 22.5807 8.0104 21.4221 7.19936L14.5445 2.38506ZM11.1037 4.02352C11.7924 3.54148 12.7089 3.54148 13.3976 4.02352L20.2752 8.83783C20.8545 9.24334 21.1766 9.92463 21.1223 10.6297L20.4173 19.7949C20.373 20.3711 19.8509 20.7899 19.2789 20.7082L16.1092 20.2554C15.6166 20.185 15.2507 19.7631 15.2507 19.2654V18C15.2507 16.3432 13.9075 15 12.2507 15C10.5938 15 9.25066 16.3432 9.25066 18V19.2654C9.25066 19.7631 8.88473 20.185 8.39208 20.2554L5.22246 20.7082C4.65038 20.7899 4.12831 20.3711 4.08399 19.7949L3.37897 10.6297C3.32474 9.92463 3.64685 9.24334 4.22616 8.83783L11.1037 4.02352Z" fill="black"/>
</svg>
