<svg width="25" height="24" viewBox="0 0 25 24" fill="none" xmlns="http://www.w3.org/2000/svg">
<path fill-rule="evenodd" clip-rule="evenodd" d="M14.6496 3.05C13.2273 1.98333 11.2718 1.98333 9.84955 3.05L2.97699 8.20442C1.87566 9.03042 1.27648 10.3647 1.3908 11.7366L2.02377 19.3322C2.19653 21.4053 3.9296 23 6.00995 23H18.4892C20.5695 23 22.3026 21.4053 22.4753 19.3322L23.1083 11.7366C23.2226 10.3647 22.6234 9.03042 21.5221 8.20442L14.6496 3.05ZM11.0496 4.65C11.7607 4.11667 12.7384 4.11667 13.4496 4.65L20.3221 9.80442C20.8728 10.2174 21.1724 10.8846 21.1152 11.5705L20.4822 19.1661C20.3959 20.2027 19.5293 21 18.4892 21H15.3364L15.5385 18.5744C15.6988 16.6503 14.1804 15 12.2496 15C10.3187 15 8.80027 16.6503 8.96062 18.5744L9.16275 21H6.00995C4.96977 21 4.10324 20.2027 4.01686 19.1661L3.38389 11.5705C3.32673 10.8846 3.62632 10.2174 4.17699 9.80442L11.0496 4.65ZM13.5454 18.4083L13.3294 21H11.1697L10.9537 18.4083C10.8905 17.6502 11.4888 17 12.2496 17C13.0103 17 13.6086 17.6502 13.5454 18.4083Z" fill="black"/>
</svg>
