<svg width="25" height="24" viewBox="0 0 25 24" fill="none" xmlns="http://www.w3.org/2000/svg">
<path d="M6.93301 8.79827C7.41409 8.95863 7.79159 9.33614 7.95195 9.81722C8.11516 10.3068 8.8077 10.3068 8.9709 9.81722C9.13126 9.33614 9.50876 8.95863 9.98985 8.79827C10.4795 8.63507 10.4795 7.94253 9.98985 7.77933C9.50876 7.61897 9.13126 7.24146 8.9709 6.76038C8.8077 6.27077 8.11516 6.27077 7.95195 6.76038C7.79159 7.24146 7.41409 7.61897 6.93301 7.77933C6.44339 7.94253 6.44339 8.63507 6.93301 8.79827Z" fill="black"/>
<path fill-rule="evenodd" clip-rule="evenodd" d="M12.75 1C6.67487 1 1.75 5.92487 1.75 12C1.75 18.0751 6.67487 23 12.75 23C18.8251 23 23.75 18.0751 23.75 12C23.75 5.92487 18.8251 1 12.75 1ZM3.75 12C3.75 7.02944 7.77944 3 12.75 3C17.7206 3 21.75 7.02944 21.75 12C21.75 12.4672 21.7144 12.926 21.6458 13.374L17.6407 10.7253L17.639 10.7242C15.9238 9.58223 13.594 10.4699 13.0737 12.4641L13.0705 12.4769L12.7214 13.8913C11.4064 13.3809 9.88378 13.8586 9.1077 15.0791L6.57377 18.5463C4.83512 16.9054 3.75 14.5794 3.75 12ZM16.5343 12.3914L21.0852 15.4011C19.7767 18.6045 16.6752 20.8852 13.0279 20.9958L15.0103 12.9637C15.1866 12.3024 15.961 12.0092 16.5313 12.3894L16.5343 12.3914ZM12.2315 15.8759L11.0084 20.8316C9.9908 20.6321 9.03468 20.2611 8.17134 19.7499L10.7667 16.1986L10.7874 16.165C11.0695 15.7071 11.6632 15.5544 12.1313 15.8192L12.2315 15.8759Z" fill="black"/>
</svg>
