<svg width="25" height="24" viewBox="0 0 25 24" fill="none" xmlns="http://www.w3.org/2000/svg">
<path fill-rule="evenodd" clip-rule="evenodd" d="M3.75 7C3.75 5.89543 4.64543 5 5.75 5H16.75C17.3023 5 17.75 4.55228 17.75 4C17.75 3.44772 17.3023 3 16.75 3H5.75C3.54086 3 1.75 4.79086 1.75 7V18C1.75 20.2091 3.54086 22 5.75 22H6.25H9.48703H14.25H19.75C21.9591 22 23.75 20.2091 23.75 18V17.5V10C23.75 9.44772 23.3023 9 22.75 9C22.1977 9 21.75 9.44772 21.75 10V14.6492L18.0938 10.079C16.4026 7.96503 13.1439 8.10644 11.6422 10.359L10.5025 12.0684C9.14009 11.3206 7.42121 11.7382 6.55752 13.0457L3.75 17.2956V7ZM16.5321 11.3284L21.75 17.8508V18C21.75 19.1046 20.8546 20 19.75 20H14.25H9.48703C8.68834 20 8.21195 19.1099 8.65498 18.4453L11.5773 14.0619L11.588 14.0458L13.3063 11.4684C14.0571 10.3421 15.6865 10.2714 16.5321 11.3284ZM6.99088 17.3359C6.42321 18.1874 6.35871 19.1624 6.6578 20H6.25C5.69771 20 5.25 19.5523 5.25 19V18.9539C5.25 18.7579 5.30759 18.5662 5.41562 18.4027L8.22627 14.148C8.48105 13.7624 8.95908 13.609 9.38044 13.7516L6.99088 17.3359ZM5.93252 8.79827C6.4136 8.95863 6.7911 9.33614 6.95146 9.81722C7.11467 10.3068 7.80721 10.3068 7.97041 9.81722C8.13077 9.33614 8.50828 8.95863 8.98936 8.79827C9.47897 8.63507 9.47897 7.94253 8.98936 7.77933C8.50828 7.61897 8.13077 7.24146 7.97041 6.76038C7.80721 6.27077 7.11467 6.27077 6.95146 6.76038C6.7911 7.24146 6.4136 7.61897 5.93252 7.77933C5.44291 7.94253 5.44291 8.63507 5.93252 8.79827ZM18.75 5C18.1977 5 17.75 5.44772 17.75 6C17.75 6.55228 18.1977 7 18.75 7H22.75C23.3023 7 23.75 6.55228 23.75 6C23.75 5.44772 23.3023 5 22.75 5H18.75Z" fill="black"/>
</svg>
