<svg width="25" height="24" viewBox="0 0 25 24" fill="none" xmlns="http://www.w3.org/2000/svg">
<path d="M23.4461 4.20711C23.8366 3.81658 23.8366 3.18342 23.4461 2.79289C23.0556 2.40237 22.4224 2.40237 22.0319 2.79289L20.0931 4.73163L19.8113 4.44974C19.4207 4.05922 18.7876 4.05922 18.397 4.44974C18.0065 4.84027 18.0065 5.47343 18.397 5.86395L19.386 6.85295C19.7766 7.24347 20.4097 7.24347 20.8003 6.85295L23.4461 4.20711Z" fill="black"/>
<path fill-rule="evenodd" clip-rule="evenodd" d="M3.75 7.00002C3.75 5.89545 4.64543 5.00002 5.75 5.00002H16.75C17.3023 5.00002 17.75 4.5523 17.75 4.00002C17.75 3.44773 17.3023 3.00002 16.75 3.00002H5.75C3.54086 3.00002 1.75 4.79088 1.75 7.00002V18C1.75 20.2092 3.54086 22 5.75 22H19.75C21.9591 22 23.75 20.2092 23.75 18V10C23.75 9.44773 23.3023 9.00002 22.75 9.00002C22.1977 9.00002 21.75 9.44773 21.75 10V14.6492L18.0938 10.079C16.4026 7.96504 13.1439 8.10646 11.6422 10.359L10.5025 12.0684C9.14009 11.3207 7.42121 11.7383 6.55752 13.0457L3.75 17.2956V7.00002ZM16.5321 11.3284L21.75 17.8508V18C21.75 19.1046 20.8546 20 19.75 20H9.48703C8.68834 20 8.21195 19.1099 8.65498 18.4453L13.3063 11.4684C14.0571 10.3421 15.6865 10.2714 16.5321 11.3284ZM6.99088 17.3359C6.42321 18.1874 6.35871 19.1624 6.6578 20H6.25C5.69771 20 5.25 19.5523 5.25 19V18.9539C5.25 18.7579 5.30759 18.5663 5.41562 18.4027L8.22627 14.1481C8.48105 13.7624 8.95908 13.609 9.38044 13.7516L6.99088 17.3359Z" fill="black"/>
<path d="M5.93301 8.79829C6.41409 8.95865 6.79159 9.33615 6.95195 9.81724C7.11516 10.3068 7.8077 10.3068 7.9709 9.81724C8.13126 9.33615 8.50876 8.95865 8.98985 8.79829C9.47946 8.63509 9.47946 7.94255 8.98985 7.77934C8.50876 7.61898 8.13126 7.24148 7.9709 6.7604C7.8077 6.27078 7.11516 6.27079 6.95195 6.7604C6.79159 7.24148 6.41409 7.61898 5.93301 7.77934C5.44339 7.94255 5.44339 8.63509 5.93301 8.79829Z" fill="black"/>
</svg>
