<svg width="25" height="24" viewBox="0 0 25 24" fill="none" xmlns="http://www.w3.org/2000/svg">
<path fill-rule="evenodd" clip-rule="evenodd" d="M3.75 7C3.75 5.89543 4.64543 5 5.75 5H16.75C17.3023 5 17.75 4.55228 17.75 4C17.75 3.44772 17.3023 3 16.75 3H5.75C3.54086 3 1.75 4.79086 1.75 7V18C1.75 20.2091 3.54086 22 5.75 22H19.75C21.9591 22 23.75 20.2091 23.75 18V10C23.75 9.44772 23.3023 9 22.75 9C22.1977 9 21.75 9.44772 21.75 10V14.6492L18.0938 10.079C16.4026 7.96503 13.1439 8.10644 11.6422 10.359L10.5025 12.0684C9.14009 11.3206 7.42121 11.7382 6.55752 13.0457L3.75 17.2956V7ZM16.5321 11.3284L21.75 17.8508V18C21.75 19.1046 20.8546 20 19.75 20H9.48703C8.68834 20 8.21195 19.1099 8.65498 18.4453L13.3063 11.4684C14.0571 10.3421 15.6865 10.2714 16.5321 11.3284ZM6.99088 17.3359C6.42321 18.1874 6.35871 19.1624 6.6578 20H6.25C5.69771 20 5.25 19.5523 5.25 19V18.9539C5.25 18.7579 5.30759 18.5662 5.41562 18.4027L8.22627 14.148C8.48105 13.7624 8.95908 13.609 9.38044 13.7516L6.99088 17.3359Z" fill="black"/>
<path d="M5.93301 8.79827C6.41409 8.95863 6.79159 9.33614 6.95195 9.81722C7.11516 10.3068 7.8077 10.3068 7.9709 9.81722C8.13126 9.33614 8.50876 8.95863 8.98985 8.79827C9.47946 8.63507 9.47946 7.94253 8.98985 7.77933C8.50876 7.61897 8.13126 7.24146 7.9709 6.76038C7.8077 6.27077 7.11516 6.27077 6.95195 6.76038C6.79159 7.24146 6.41409 7.61897 5.93301 7.77933C5.44339 7.94253 5.44339 8.63507 5.93301 8.79827Z" fill="black"/>
<path d="M22.9926 5.82843L23.6997 5.12132C24.0902 4.7308 24.0902 4.09763 23.6997 3.70711C23.3092 3.31658 22.676 3.31658 22.2855 3.70711L21.5784 4.41421L20.8713 3.70711C20.4807 3.31658 19.8476 3.31658 19.457 3.70711C19.0665 4.09763 19.0665 4.7308 19.457 5.12132L20.1642 5.82843L19.457 6.53553C19.0665 6.92606 19.0665 7.55922 19.457 7.94975C19.8476 8.34027 20.4807 8.34027 20.8713 7.94975L21.5784 7.24264L22.2855 7.94975C22.676 8.34027 23.3092 8.34027 23.6997 7.94975C24.0902 7.55922 24.0902 6.92606 23.6997 6.53553L22.9926 5.82843Z" fill="black"/>
</svg>
