<svg width="25" height="24" viewBox="0 0 25 24" fill="none" xmlns="http://www.w3.org/2000/svg">
<path d="M5.93288 8.79827C6.41396 8.95863 6.79147 9.33614 6.95183 9.81722C7.11503 10.3068 7.80757 10.3068 7.97078 9.81722C8.13114 9.33614 8.50864 8.95863 8.98972 8.79827C9.47933 8.63507 9.47933 7.94253 8.98972 7.77933C8.50864 7.61897 8.13114 7.24146 7.97078 6.76038C7.80757 6.27077 7.11503 6.27077 6.95183 6.76038C6.79147 7.24146 6.41396 7.61897 5.93288 7.77933C5.44327 7.94253 5.44327 8.63507 5.93288 8.79827Z" fill="black"/>
<path fill-rule="evenodd" clip-rule="evenodd" d="M5.75 2C3.54086 2 1.75 3.79086 1.75 6V18C1.75 20.2091 3.54086 22 5.75 22H19.75C21.9591 22 23.75 20.2091 23.75 18V6C23.75 3.79086 21.9591 2 19.75 2H5.75ZM21.75 13.7982V6C21.75 4.89543 20.8546 4 19.75 4H5.75C4.64543 4 3.75 4.89543 3.75 6V18C3.75 19.1046 4.64543 20 5.75 20H5.89267C5.80007 19.7163 5.75 19.4135 5.75 19.0989C5.75 18.504 5.93287 17.9235 6.27383 17.4361L9.08552 13.4163C9.97169 12.1494 11.6756 11.7634 13.0212 12.5248L13.3369 12.7034L13.8096 12.0282C14.7445 10.6926 16.5749 10.3481 17.9314 11.2524L21.75 13.7982ZM12.1847 14.3494L12.0363 14.2655C11.5878 14.0117 11.0198 14.1403 10.7244 14.5626L7.9127 18.5824C7.8068 18.7338 7.75 18.9141 7.75 19.0989C7.75 19.5966 8.15344 20 8.65111 20H9.76216C9.45586 19.142 9.53063 18.141 10.1336 17.2796L12.1847 14.3494ZM12.5913 20H19.75C20.8546 20 21.75 19.1046 21.75 18V16.737C21.75 16.4027 21.5829 16.0905 21.3047 15.905L16.822 12.9165C16.3698 12.6151 15.7597 12.7299 15.4481 13.1751L11.7721 18.4265C11.3081 19.0893 11.7823 20 12.5913 20Z" fill="black"/>
</svg>
