<svg width="25" height="24" viewBox="0 0 25 24" fill="none" xmlns="http://www.w3.org/2000/svg">
<path d="M12.2493 5.99999C12.8016 5.99999 13.2493 6.4477 13.2493 6.99999V14C13.2493 14.5523 12.8016 15 12.2493 15C11.697 15 11.2493 14.5523 11.2493 14V6.99999C11.2493 6.4477 11.697 5.99999 12.2493 5.99999Z" fill="black"/>
<path d="M12.2493 18C11.5589 18 10.9993 17.4403 10.9993 16.75C10.9993 16.0596 11.5589 15.5 12.2493 15.5C12.9396 15.5 13.4993 16.0596 13.4993 16.75C13.4993 17.4403 12.9396 18 12.2493 18Z" fill="black"/>
<path fill-rule="evenodd" clip-rule="evenodd" d="M14.2564 1.00821C13.0152 0.288199 11.4834 0.288198 10.2422 1.00821L6.99356 2.8927L3.73367 4.7659C2.48952 5.48081 1.72363 6.80737 1.72657 8.2423L1.73428 11.9979V12.002L1.72657 15.7577C1.72363 17.1926 2.48952 18.5192 3.73367 19.2341L6.99 21.1052L6.99356 21.1073L10.2422 22.9918C11.4834 23.7118 13.0152 23.7118 14.2564 22.9918L17.505 21.1073L17.5086 21.1052L20.7649 19.2341C22.009 18.5192 22.7749 17.1926 22.772 15.7577L22.7643 12.002V11.9979L22.772 8.2423C22.7749 6.80737 22.009 5.48081 20.7649 4.7659L17.5086 2.89476L17.505 2.8927L14.2564 1.00821ZM11.2457 2.7382C11.8663 2.3782 12.6322 2.3782 13.2528 2.7382L16.505 4.62475L16.5086 4.6268L19.7684 6.5C20.3905 6.85745 20.7735 7.52073 20.772 8.2382L20.7643 11.9979V12.002L20.772 15.7618C20.7735 16.4792 20.3905 17.1425 19.7684 17.5L16.5086 19.3732L16.505 19.3752L13.2528 21.2618C12.6322 21.6218 11.8663 21.6218 11.2457 21.2618L7.99356 19.3752L4.73012 17.5C4.10804 17.1425 3.7251 16.4792 3.72657 15.7618L3.73428 12.002V11.9979L3.72657 8.23819C3.7251 7.52073 4.10804 6.85745 4.73012 6.5L7.99 4.6268L7.99355 4.62475L11.2457 2.7382Z" fill="black"/>
</svg>
