<svg width="25" height="24" viewBox="0 0 25 24" fill="none" xmlns="http://www.w3.org/2000/svg">
<path fill-rule="evenodd" clip-rule="evenodd" d="M10.7509 4.87702C11.3778 3.70766 13.1227 3.70766 13.7496 4.87702L20.0607 16.6501C20.6148 17.6837 19.8681 19 18.5614 19H5.93908C4.63237 19 3.88572 17.6837 4.43976 16.6501L10.7509 4.87702ZM14.6309 4.40456L15.5123 3.93209C14.1313 1.35597 10.3692 1.35597 8.98822 3.9321L2.67706 15.7052C1.36564 18.1516 3.21295 21 5.93908 21H18.5614C21.2875 21 23.1348 18.1516 21.8234 15.7052L15.5123 3.93209L14.6309 4.40456ZM12.2502 6C12.8025 6 13.2502 6.44772 13.2502 7V14C13.2502 14.5523 12.8025 15 12.2502 15C11.698 15 11.2502 14.5523 11.2502 14V7C11.2502 6.44772 11.698 6 12.2502 6ZM12.2502 18C11.5599 18 11.0002 17.4404 11.0002 16.75C11.0002 16.0596 11.5599 15.5 12.2502 15.5C12.9406 15.5 13.5002 16.0596 13.5002 16.75C13.5002 17.4404 12.9406 18 12.2502 18Z" fill="black"/>
</svg>
