<svg width="25" height="24" viewBox="0 0 25 24" fill="none" xmlns="http://www.w3.org/2000/svg">
<path d="M12.25 6C12.8023 6 13.25 6.44772 13.25 7V14C13.25 14.5523 12.8023 15 12.25 15C11.6977 15 11.25 14.5523 11.25 14V7C11.25 6.44772 11.6977 6 12.25 6Z" fill="black"/>
<path d="M11 16.75C11 17.4404 11.5596 18 12.25 18C12.9404 18 13.5 17.4404 13.5 16.75C13.5 16.0596 12.9404 15.5 12.25 15.5C11.5596 15.5 11 16.0596 11 16.75Z" fill="black"/>
<path fill-rule="evenodd" clip-rule="evenodd" d="M2.25 12C2.25 6.47715 6.72715 2 12.25 2C17.7728 2 22.25 6.47715 22.25 12C22.25 17.5228 17.7728 22 12.25 22C6.72715 22 2.25 17.5228 2.25 12ZM12.25 4C7.83172 4 4.25 7.58172 4.25 12C4.25 16.4183 7.83172 20 12.25 20C16.6683 20 20.25 16.4183 20.25 12C20.25 7.58172 16.6683 4 12.25 4Z" fill="black"/>
</svg>
