<svg width="25" height="24" viewBox="0 0 25 24" fill="none" xmlns="http://www.w3.org/2000/svg">
<path d="M4.71185 18.1254L4.90884 19.1663C4.96086 19.4412 5.09209 19.691 5.28674 19.8856C5.84483 20.4437 6.77432 20.419 7.36283 19.8305L14.8781 12.3153C15.3727 11.8207 16.0618 11.5804 16.7319 11.6688C18.686 11.9265 20.5566 10.5168 20.8814 8.54174L20.9533 8.10391C21.3635 5.60917 19.3669 3.50226 16.8612 3.78562L16.3866 3.8393C14.2902 4.07638 12.7792 6.08925 13.1654 8.13019C13.2961 8.82081 13.0636 9.54928 12.548 10.0649L11.2007 11.4122C10.8706 11.7422 10.4706 11.9927 10.0338 12.1426L8.79945 12.5662C8.11558 12.801 7.5701 13.3464 7.33538 14.0303C7.13747 14.6069 6.71659 15.09 6.17024 15.3678L6.08584 15.4107C5.07424 15.9249 4.50737 17.0449 4.71185 18.1254Z" stroke="black" stroke-width="2" stroke-linecap="round"/>
<circle cx="1" cy="1" r="1" transform="matrix(0.707107 0.707107 0.707107 -0.707107 15.6855 7.65686)" fill="black"/>
</svg>
