<svg width="25" height="24" viewBox="0 0 25 24" fill="none" xmlns="http://www.w3.org/2000/svg">
<path d="M5.25 12C5.25 11.4477 5.69772 11 6.25 11H8.25C8.80228 11 9.25 11.4477 9.25 12C9.25 12.5523 8.80228 13 8.25 13H6.25C5.69772 13 5.25 12.5523 5.25 12Z" fill="black"/>
<path d="M11.25 11C10.6977 11 10.25 11.4477 10.25 12C10.25 12.5523 10.6977 13 11.25 13H13.25C13.8023 13 14.25 12.5523 14.25 12C14.25 11.4477 13.8023 11 13.25 11H11.25Z" fill="black"/>
<path d="M15.25 12C15.25 11.4477 15.6977 11 16.25 11H18.25C18.8023 11 19.25 11.4477 19.25 12C19.25 12.5523 18.8023 13 18.25 13H16.25C15.6977 13 15.25 12.5523 15.25 12Z" fill="black"/>
<path d="M18.25 17C18.8023 17 19.25 16.5523 19.25 16C19.25 15.4477 18.8023 15 18.25 15H17.25C16.6977 15 16.25 15.4477 16.25 16C16.25 16.5523 16.6977 17 17.25 17H18.25Z" fill="black"/>
<path d="M8.25 16C8.25 16.5523 7.80228 17 7.25 17H6.25C5.69772 17 5.25 16.5523 5.25 16C5.25 15.4477 5.69772 15 6.25 15H7.25C7.80228 15 8.25 15.4477 8.25 16Z" fill="black"/>
<path d="M10.25 15C9.69772 15 9.25 15.4477 9.25 16C9.25 16.5523 9.69772 17 10.25 17H14.75C15.3023 17 15.75 16.5523 15.75 16C15.75 15.4477 15.3023 15 14.75 15H10.25Z" fill="black"/>
<path fill-rule="evenodd" clip-rule="evenodd" d="M16.2499 4.49997C16.2499 3.94769 15.8022 3.49999 15.2499 3.5C14.6976 3.50001 14.2499 3.94774 14.2499 4.50003C14.2499 4.67334 14.1897 4.95556 14.0384 5.16571C13.9238 5.32487 13.7241 5.5 13.25 5.5C12.7202 5.5 12.2155 5.60956 11.8011 5.89767C11.3684 6.19848 11.1396 6.62054 11.0483 7.03514C11.0141 7.19087 10.9985 7.34687 10.9972 7.5H6.25C4.04086 7.5 2.25 9.29086 2.25 11.5V16.5C2.25 18.7091 4.04086 20.5 6.25 20.5H18.25C20.4591 20.5 22.25 18.7091 22.25 16.5V11.5C22.25 9.29086 20.4591 7.5 18.25 7.5H13.25C14.3759 7.5 15.1761 7.00847 15.6615 6.33429C16.1102 5.71111 16.25 4.99333 16.2499 4.49997ZM12.2299 9.5C12.2438 9.50029 12.2577 9.50029 12.2717 9.5H18.25C19.3546 9.5 20.25 10.3954 20.25 11.5V16.5C20.25 17.6046 19.3546 18.5 18.25 18.5H6.25C5.14543 18.5 4.25 17.6046 4.25 16.5V11.5C4.25 10.3954 5.14543 9.5 6.25 9.5H12.2299Z" fill="black"/>
</svg>
