<svg width="25" height="24" viewBox="0 0 25 24" fill="none" xmlns="http://www.w3.org/2000/svg">
<path fill-rule="evenodd" clip-rule="evenodd" d="M6.1452 2C5.1261 2 4.26998 2.76627 4.15743 3.77914L3.37966 10.7791C3.24802 11.9639 4.1754 13 5.36742 13H11.2502V20H8.25016C7.69788 20 7.25016 20.4477 7.25016 21C7.25016 21.5523 7.69788 22 8.25016 22H16.2502C16.8024 22 17.2502 21.5523 17.2502 21C17.2502 20.4477 16.8024 20 16.2502 20H13.2502V13H19.1329C20.3249 13 21.2523 11.9639 21.1207 10.7791L20.3429 3.77914C20.2303 2.76627 19.3742 2 18.3551 2H6.1452ZM5.36742 11L6.1452 4H18.3551L19.1329 11H5.36742Z" fill="black"/>
</svg>
