<svg width="25" height="24" viewBox="0 0 25 24" fill="none" xmlns="http://www.w3.org/2000/svg">
<path fill-rule="evenodd" clip-rule="evenodd" d="M5.25 1.5C3.04086 1.5 1.25 3.29086 1.25 5.5V15.5C1.25 17.7091 3.04086 19.5 5.25 19.5H19.25C21.4591 19.5 23.25 17.7091 23.25 15.5V5.5C23.25 3.29086 21.4591 1.5 19.25 1.5H5.25ZM3.25 5.5C3.25 4.39543 4.14543 3.5 5.25 3.5H19.25C20.3546 3.5 21.25 4.39543 21.25 5.5V15.5C21.25 16.6046 20.3546 17.5 19.25 17.5H5.25C4.14543 17.5 3.25 16.6046 3.25 15.5V5.5Z" fill="black"/>
<path d="M2.25 20.5C1.69772 20.5 1.25 20.9477 1.25 21.5C1.25 22.0523 1.69772 22.5 2.25 22.5H22.25C22.8023 22.5 23.25 22.0523 23.25 21.5C23.25 20.9477 22.8023 20.5 22.25 20.5H2.25Z" fill="black"/>
</svg>
