<svg width="25" height="24" viewBox="0 0 25 24" fill="none" xmlns="http://www.w3.org/2000/svg">
<path fill-rule="evenodd" clip-rule="evenodd" d="M12.7499 5.07703L5.44248 8L8.11919 9.07068L8.12311 9.07225L12.7499 10.923L17.3765 9.07232L17.3808 9.0706L20.0573 8L12.7499 5.07703ZM3.53911 9.39271L5.05732 10L3.53911 10.6073C2.28189 11.1102 2.28188 12.8898 3.53911 13.3927L5.05732 14L3.53911 14.6073C2.28189 15.1102 2.28188 16.8898 3.53911 17.3927L12.1928 20.8542C12.5504 20.9972 12.9494 20.9972 13.307 20.8542L21.9607 17.3927C23.2179 16.8898 23.2179 15.1102 21.9607 14.6073L20.4425 14L21.9607 13.3927C23.2179 12.8898 23.2179 11.1102 21.9607 10.6073L20.4425 10L21.9607 9.39271C23.2179 8.88983 23.2179 7.11017 21.9607 6.60728L13.307 3.1458C12.9494 3.00275 12.5504 3.00275 12.1928 3.1458L3.53911 6.60728C2.28189 7.11017 2.28188 8.88982 3.53911 9.39271ZM17.3768 13.0722C17.378 13.0717 17.3793 13.0712 17.3805 13.0707L20.0573 12L17.7499 11.077L13.307 12.8542C12.9494 12.9972 12.5504 12.9972 12.1928 12.8542L7.7499 11.077L5.44248 12L8.11978 13.0709C8.12069 13.0713 8.12161 13.0716 8.12252 13.072L12.7499 14.923L17.3768 13.0722ZM7.7499 15.077L12.1928 16.8542C12.5504 16.9972 12.9494 16.9972 13.307 16.8542L17.7499 15.077L20.0573 16L12.7499 18.923L5.44248 16L7.7499 15.077Z" fill="black"/>
</svg>
