<svg width="25" height="24" viewBox="0 0 25 24" fill="none" xmlns="http://www.w3.org/2000/svg">
<path fill-rule="evenodd" clip-rule="evenodd" d="M8.77313 7.10891L6.63199 4.96777C9.90785 2.34408 14.5922 2.34408 17.868 4.96777L15.7269 7.10891C13.6522 5.63036 10.8478 5.63036 8.77313 7.10891ZM17.1411 8.52313L19.2822 6.38199C21.9059 9.65785 21.9059 14.3422 19.2822 17.618L17.1411 15.4769C18.6196 13.4022 18.6196 10.5978 17.1411 8.52313ZM15.7269 16.8911L17.868 19.0322C14.5922 21.6559 9.90785 21.6559 6.63199 19.0322L8.77313 16.8911C10.8478 18.3696 13.6522 18.3696 15.7269 16.8911ZM7.35891 15.4769L5.21777 17.618C2.59408 14.3422 2.59408 9.65785 5.21777 6.38199L7.35891 8.52313C5.88036 10.5978 5.88036 13.4022 7.35891 15.4769ZM20.0282 4.22183C15.7324 -0.0739418 8.76759 -0.0739418 4.47183 4.22183C0.176058 8.51759 0.176058 15.4824 4.47183 19.7782C8.76759 24.0739 15.7324 24.0739 20.0282 19.7782C24.3239 15.4824 24.3239 8.51759 20.0282 4.22183ZM9.42157 9.17157C10.9837 7.60948 13.5163 7.60948 15.0784 9.17157C16.6405 10.7337 16.6405 13.2663 15.0784 14.8284C13.5163 16.3905 10.9837 16.3905 9.42157 14.8284C7.85948 13.2663 7.85948 10.7337 9.42157 9.17157Z" fill="black"/>
</svg>
