<svg width="25" height="24" viewBox="0 0 25 24" fill="none" xmlns="http://www.w3.org/2000/svg">
<path d="M13.7502 3.92332V8.17157L11.7951 10.1266C11.7658 10.0228 11.7502 9.91321 11.7502 9.8V7.61661L9.62103 12.3007L7.24288 14.6788C6.88662 14.3452 6.74122 13.8031 6.96832 13.3034L11.4577 3.42676C11.9917 2.2519 13.7502 2.63279 13.7502 3.92332Z" fill="black"/>
<path d="M15.8793 11.6993L18.2574 9.32115C18.6137 9.65476 18.7591 10.1969 18.532 10.6966L14.0426 20.5732C13.5086 21.7481 11.7502 21.3672 11.7502 20.0767V15.8284L13.7052 13.8734C13.7345 13.9772 13.7502 14.0868 13.7502 14.2V16.3834L15.8793 11.6993Z" fill="black"/>
<path d="M21.4571 4.70711C21.8476 4.31658 21.8476 3.68342 21.4571 3.29289C21.0666 2.90237 20.4334 2.90237 20.0429 3.29289L4.04289 19.2929C3.65237 19.6834 3.65237 20.3166 4.04289 20.7071C4.43342 21.0976 5.06658 21.0976 5.45711 20.7071L21.4571 4.70711Z" fill="black"/>
</svg>
