<svg width="25" height="24" viewBox="0 0 25 24" fill="none" xmlns="http://www.w3.org/2000/svg">
<path fill-rule="evenodd" clip-rule="evenodd" d="M7.84771 7.79215C7.41138 7.28768 6.77198 6.96935 6.05948 6.96935L5.30526 6.96934C5.12403 6.96926 4.96822 6.9692 4.82707 6.98334C3.47059 7.11923 2.39738 8.21084 2.26378 9.59059C2.24988 9.73416 2.24994 9.89263 2.25001 10.077V17.4234C2.24994 17.6078 2.24988 17.7663 2.26378 17.9098C2.39738 19.2896 3.47059 20.3812 4.82707 20.5171C4.96823 20.5312 5.12404 20.5312 5.30528 20.5311L6.05948 20.5311C6.8408 20.5311 7.53421 20.1483 7.96834 19.557L9.94382 20.8129C10.3272 21.0572 10.6666 21.2735 11.0561 21.3872C11.4456 21.5008 11.8461 21.5003 12.2985 21.4998L16.1764 21.4999C16.7649 21.5007 17.2868 21.5015 17.7771 21.3141C18.2674 21.1267 18.6597 20.7766 19.102 20.3818L20.6235 19.0275L20.7327 18.9306C21.2644 18.4589 21.7366 18.04 21.9944 17.4624C22.2521 16.8847 22.251 16.2473 22.2498 15.5297L22.2497 15.3824L22.2497 14.0488C22.2497 13.2476 22.2498 12.557 22.1809 12.001C22.1073 11.4069 21.942 10.833 21.5137 10.3502C21.4483 10.2765 21.3792 10.2062 21.3067 10.1397C20.8321 9.70401 20.2678 9.53592 19.6838 9.46107C19.1371 9.391 18.4582 9.39104 17.6705 9.39108L17.4879 9.39109C16.875 9.39109 16.5086 9.38917 16.2549 9.35607L16.2323 9.35298L16.2397 9.33107C16.324 9.0855 16.4862 8.75132 16.7603 8.19371L17.4832 6.72317L17.4933 6.70249C18.1887 5.27261 17.6208 3.53991 16.2211 2.82037L16.2008 2.81001L16.1863 2.80267C15.1574 2.2836 13.9229 2.44166 13.0526 3.2039L7.84771 7.79215ZM14.2954 4.67205C14.5855 4.41797 14.997 4.36528 15.34 4.53831L15.349 4.54287L15.362 4.54948C15.8285 4.78933 16.0178 5.3669 15.786 5.84352L15.0313 7.3789C14.7911 7.86742 14.5712 8.31468 14.4415 8.69224C14.3054 9.0885 14.1929 9.6132 14.4212 10.1547C14.4956 10.3312 14.5954 10.4955 14.7173 10.6421C15.0914 11.0921 15.6032 11.2243 16.0125 11.2777C16.4025 11.3286 16.8941 11.3285 17.4311 11.3285L17.6121 11.3285C18.4748 11.3285 19.0323 11.3303 19.4457 11.3833C19.8352 11.4332 19.9616 11.5146 20.0306 11.578C20.0548 11.6002 20.0778 11.6236 20.0996 11.6482C20.1619 11.7184 20.242 11.847 20.2911 12.2432C20.3432 12.6637 20.345 13.2307 20.345 14.1082V15.3824C20.345 16.3352 20.3251 16.5156 20.2598 16.6618C20.1946 16.808 20.0742 16.942 19.3693 17.5694L17.9379 18.8434C17.3526 19.3643 17.2316 19.4529 17.1072 19.5005C16.9827 19.5481 16.8342 19.5624 16.0565 19.5624H12.39C11.7949 19.5624 11.6803 19.5538 11.5812 19.5248C11.4821 19.4959 11.3804 19.4415 10.8758 19.1207L8.44039 17.5724V9.83342L14.2954 4.67205ZM6.05948 8.90674C6.32247 8.90674 6.53566 9.12359 6.53566 9.39109V18.1093C6.53566 18.3768 6.32247 18.5937 6.05948 18.5937H5.34521C5.10144 18.5937 5.04859 18.5925 5.01377 18.589C4.56161 18.5437 4.20387 18.1799 4.15934 17.7199C4.15591 17.6845 4.15475 17.6308 4.15475 17.3828V10.1176C4.15475 9.86966 4.15591 9.81591 4.15934 9.78048C4.20387 9.32057 4.56161 8.9567 5.01377 8.9114C5.04859 8.90791 5.10144 8.90674 5.34521 8.90674H6.05948Z" fill="black"/>
</svg>
