<svg width="25" height="24" viewBox="0 0 25 24" fill="none" xmlns="http://www.w3.org/2000/svg">
<path d="M12.9576 4.22191C14.9102 2.26929 18.076 2.26929 20.0286 4.22191C21.9812 6.17453 21.9812 9.34036 20.0286 11.293L17.2002 14.1214C16.8097 14.5119 16.1765 14.5119 15.786 14.1214C15.3955 13.7309 15.3955 13.0977 15.786 12.7072L18.6144 9.87877C19.786 8.70719 19.786 6.8077 18.6144 5.63613C17.4428 4.46455 15.5433 4.46455 14.3718 5.63613L11.5433 8.46455C11.1528 8.85508 10.5197 8.85508 10.1291 8.46455C9.73861 8.07403 9.73861 7.44086 10.1291 7.05034L12.9576 4.22191Z" fill="black"/>
<path d="M8.71492 9.87877C9.10544 10.2693 9.10544 10.9025 8.71492 11.293L5.88649 14.1214C4.71492 15.293 4.71492 17.1925 5.88649 18.364C7.05806 19.5356 8.95756 19.5356 10.1291 18.364L12.9576 15.5356C13.3481 15.1451 13.9812 15.1451 14.3718 15.5356C14.7623 15.9261 14.7623 16.5593 14.3718 16.9498L11.5433 19.7783C9.59072 21.7309 6.4249 21.7309 4.47228 19.7783C2.51966 17.8256 2.51966 14.6598 4.47228 12.7072L7.30071 9.87877C7.69123 9.48824 8.32439 9.48824 8.71492 9.87877Z" fill="black"/>
<path d="M19.6144 15.5355C19.6144 16.0878 19.1667 16.5355 18.6144 16.5355H17.2002C16.9263 16.5355 16.6781 16.4254 16.4975 16.247C16.6759 16.4276 16.786 16.6757 16.786 16.9496V18.3639C16.786 18.9161 16.3383 19.3639 15.786 19.3639C15.2337 19.3639 14.786 18.9161 14.786 18.3639V16.9496C14.786 16.3974 15.2337 15.9496 15.786 15.9496C16.0599 15.9496 16.3081 16.0598 16.4887 16.2381C16.3103 16.0575 16.2002 15.8094 16.2002 15.5355C16.2002 14.9832 16.6479 14.5355 17.2002 14.5355H18.6144C19.1667 14.5355 19.6144 14.9832 19.6144 15.5355Z" fill="black"/>
<path d="M8.71494 4.63616C8.16266 4.63616 7.71494 5.08388 7.71494 5.63616V7.05037C7.71494 7.32428 7.82506 7.57246 8.00345 7.75306C7.82284 7.57466 7.57464 7.46453 7.30072 7.46453H5.88651C5.33423 7.46453 4.88651 7.91225 4.88651 8.46453C4.88651 9.01682 5.33423 9.46453 5.88651 9.46453H7.30072C7.85301 9.46453 8.30072 9.01682 8.30072 8.46453C8.30072 8.19063 8.1906 7.94244 8.01222 7.76184C8.19283 7.94024 8.44102 8.05037 8.71494 8.05037C9.26723 8.05037 9.71494 7.60266 9.71494 7.05037V5.63616C9.71494 5.08388 9.26723 4.63616 8.71494 4.63616Z" fill="black"/>
</svg>
