<svg width="25" height="24" viewBox="0 0 25 24" fill="none" xmlns="http://www.w3.org/2000/svg">
<path d="M20.0286 4.22191C18.076 2.26929 14.9102 2.26929 12.9576 4.22191L10.1291 7.05034C9.73861 7.44086 9.73861 8.07403 10.1291 8.46455C10.5197 8.85508 11.1528 8.85508 11.5433 8.46455L14.3718 5.63613C15.5433 4.46455 17.4428 4.46455 18.6144 5.63613C19.786 6.8077 19.786 8.70719 18.6144 9.87877L15.786 12.7072C15.3955 13.0977 15.3955 13.7309 15.786 14.1214C16.1765 14.5119 16.8097 14.5119 17.2002 14.1214L20.0286 11.293C21.9812 9.34036 21.9812 6.17453 20.0286 4.22191Z" fill="black"/>
<path d="M14.3718 11.293C14.7623 10.9025 14.7623 10.2693 14.3718 9.87877C13.9812 9.48824 13.3481 9.48824 12.9576 9.87877L10.1291 12.7072C9.73861 13.0977 9.73861 13.7309 10.1291 14.1214C10.5197 14.5119 11.1528 14.5119 11.5433 14.1214L14.3718 11.293Z" fill="black"/>
<path d="M8.71492 11.293C9.10544 10.9025 9.10544 10.2693 8.71492 9.87877C8.32439 9.48824 7.69123 9.48824 7.30071 9.87877L4.47228 12.7072C2.51966 14.6598 2.51966 17.8256 4.47228 19.7783C6.4249 21.7309 9.59072 21.7309 11.5433 19.7783L14.3718 16.9498C14.7623 16.5593 14.7623 15.9261 14.3718 15.5356C13.9812 15.1451 13.3481 15.1451 12.9576 15.5356L10.1291 18.364C8.95756 19.5356 7.05806 19.5356 5.88649 18.364C4.71492 17.1925 4.71492 15.293 5.88649 14.1214L8.71492 11.293Z" fill="black"/>
</svg>
