<svg width="25" height="24" viewBox="0 0 25 24" fill="none" xmlns="http://www.w3.org/2000/svg">
<path d="M2.75 4.5C2.75 3.94772 3.19772 3.5 3.75 3.5H21.75C22.3023 3.5 22.75 3.94772 22.75 4.5C22.75 5.05228 22.3023 5.5 21.75 5.5H3.75C3.19772 5.5 2.75 5.05228 2.75 4.5Z" fill="black"/>
<path d="M2.75 9.5C2.75 8.94772 3.19772 8.5 3.75 8.5H19.75C20.3023 8.5 20.75 8.94772 20.75 9.5C20.75 10.0523 20.3023 10.5 19.75 10.5H3.75C3.19772 10.5 2.75 10.0523 2.75 9.5Z" fill="black"/>
<path d="M3.75 13.5C3.19772 13.5 2.75 13.9477 2.75 14.5C2.75 15.0523 3.19772 15.5 3.75 15.5H17.75C18.3023 15.5 18.75 15.0523 18.75 14.5C18.75 13.9477 18.3023 13.5 17.75 13.5H3.75Z" fill="black"/>
<path d="M2.75 19.5C2.75 18.9477 3.19772 18.5 3.75 18.5H15.75C16.3023 18.5 16.75 18.9477 16.75 19.5C16.75 20.0523 16.3023 20.5 15.75 20.5H3.75C3.19772 20.5 2.75 20.0523 2.75 19.5Z" fill="black"/>
<path d="M21.75 17.5C21.75 16.9477 21.3023 16.5 20.75 16.5C20.1977 16.5 19.75 16.9477 19.75 17.5V18.5H18.75C18.1977 18.5 17.75 18.9477 17.75 19.5C17.75 20.0523 18.1977 20.5 18.75 20.5H19.75V21.5C19.75 22.0523 20.1977 22.5 20.75 22.5C21.3023 22.5 21.75 22.0523 21.75 21.5V20.5H22.75C23.3023 20.5 23.75 20.0523 23.75 19.5C23.75 18.9477 23.3023 18.5 22.75 18.5H21.75V17.5Z" fill="black"/>
</svg>
