<svg width="25" height="24" viewBox="0 0 25 24" fill="none" xmlns="http://www.w3.org/2000/svg">
<path d="M13.25 15C13.25 14.4477 12.8023 14 12.25 14C11.6977 14 11.25 14.4477 11.25 15V17C11.25 17.5523 11.6977 18 12.25 18C12.8023 18 13.25 17.5523 13.25 17V15Z" fill="black"/>
<path fill-rule="evenodd" clip-rule="evenodd" d="M8.25 6.75C8.25 4.67893 9.92893 3 12 3C14.0711 3 15.75 4.67893 15.75 6.75V7.5C15.75 8.05228 16.1977 8.5 16.75 8.5C17.3023 8.5 17.75 8.05228 17.75 7.5V6.75C17.75 3.57436 15.1756 1 12 1C8.82436 1 6.25 3.57436 6.25 6.75V9C4.04086 9 2.25 10.7909 2.25 13V19C2.25 21.2091 4.04086 23 6.25 23H18.25C20.4591 23 22.25 21.2091 22.25 19V13C22.25 10.7909 20.4591 9 18.25 9H8.25V6.75ZM4.25 13C4.25 11.8954 5.14543 11 6.25 11H18.25C19.3546 11 20.25 11.8954 20.25 13V19C20.25 20.1046 19.3546 21 18.25 21H6.25C5.14543 21 4.25 20.1046 4.25 19V13Z" fill="black"/>
</svg>
