<svg width="25" height="24" viewBox="0 0 25 24" fill="none" xmlns="http://www.w3.org/2000/svg">
<path fill-rule="evenodd" clip-rule="evenodd" d="M23.75 3.42942C23.75 2.04053 22.3691 1.07449 21.0644 1.5506L13.7665 4.21371L6.43817 4.78675C4.35632 4.94954 2.75 6.68638 2.75 8.77457V10.2254C2.75 12.3136 4.35633 14.0505 6.43817 14.2133L6.85077 14.2455L7.55448 20.3589C7.72774 21.864 9.00202 23 10.5171 23C12.3042 23 13.6901 21.4388 13.4782 19.6643L12.8875 14.7176L13.7665 14.7863L21.0644 17.4494C22.3691 17.9255 23.75 16.9595 23.75 15.5706V3.42942ZM6.59408 6.78066L12.9808 6.28125V12.7188L6.59409 12.2193C5.55316 12.1379 4.75 11.2695 4.75 10.2254V8.77457C4.75 7.73047 5.55316 6.86206 6.59408 6.78066ZM21.75 15.5706L14.9808 13.1004V5.89959L21.75 3.42942L21.75 15.5706ZM9.54136 20.1302L8.88226 14.4044L10.8543 14.5586L11.4923 19.9014C11.5621 20.4858 11.1057 21 10.5171 21C10.0181 21 9.59842 20.6259 9.54136 20.1302Z" fill="black"/>
</svg>
