<svg width="25" height="24" viewBox="0 0 25 24" fill="none" xmlns="http://www.w3.org/2000/svg">
<path fill-rule="evenodd" clip-rule="evenodd" d="M11.2099 3.1567C10.4498 2.27959 9.10506 2.23162 8.28434 3.05235L7.70215 3.63453C6.9602 4.37648 6.91778 5.56568 7.60498 6.35861L19.2918 19.8434C20.052 20.7205 21.3967 20.7685 22.2174 19.9477L22.7996 19.3655C23.5415 18.6236 23.5839 17.4344 22.8967 16.6415L11.2099 3.1567ZM9.11636 5.04875L9.69855 4.46656L9.88535 4.6821L9.30316 5.26429L9.11636 5.04875ZM10.6164 6.77951L11.1985 6.19733L21.3854 17.9513L20.8032 18.5335L10.6164 6.77951Z" fill="black"/>
<path d="M4.36272 8.64978C4.20236 8.1687 3.82485 7.7912 3.34377 7.63083C2.85416 7.46763 2.85416 6.77509 3.34377 6.61189C3.82485 6.45153 4.20236 6.07402 4.36272 5.59294C4.52592 5.10333 5.21846 5.10333 5.38166 5.59294C5.54203 6.07402 5.91953 6.45153 6.40061 6.61189C6.89022 6.77509 6.89022 7.46763 6.40061 7.63083C5.91953 7.79119 5.54203 8.1687 5.38166 8.64978C5.21846 9.13939 4.52592 9.13939 4.36272 8.64978Z" fill="black"/>
<path d="M8.36272 15.6498C8.20236 15.1687 7.82485 14.7912 7.34377 14.6308C6.85416 14.4676 6.85416 13.7751 7.34377 13.6119C7.82485 13.4515 8.20236 13.074 8.36272 12.5929C8.52592 12.1033 9.21846 12.1033 9.38166 12.5929C9.54203 13.074 9.91953 13.4515 10.4006 13.6119C10.8902 13.7751 10.8902 14.4676 10.4006 14.6308C9.91953 14.7912 9.54203 15.1687 9.38166 15.6498C9.21846 16.1394 8.52592 16.1394 8.36272 15.6498Z" fill="black"/>
</svg>
