<svg width="25" height="24" viewBox="0 0 25 24" fill="none" xmlns="http://www.w3.org/2000/svg">
<path fill-rule="evenodd" clip-rule="evenodd" d="M19.7503 21C21.9594 21 23.7503 19.2091 23.7503 17V8.02268C23.7506 8.00739 23.7506 7.99206 23.7503 7.9767V7C23.7503 4.79086 21.9594 3 19.7503 3H5.75027C3.54113 3 1.75027 4.79086 1.75027 7V7.97671C1.74991 7.99206 1.74991 8.00739 1.75027 8.02268V17C1.75027 19.2091 3.54113 21 5.75027 21H19.7503ZM3.75027 17C3.75027 18.1046 4.6457 19 5.75027 19H19.7503C20.8548 19 21.7503 18.1046 21.7503 17V9.47703L14.2358 12.4828C13.2822 12.8643 12.2183 12.8643 11.2647 12.4828L3.75027 9.47703V17ZM13.493 10.6259L21.7503 7.32297V7C21.7503 5.89543 20.8548 5 19.7503 5H5.75027C4.6457 5 3.75027 5.89543 3.75027 7V7.32297L12.0075 10.6259C12.4843 10.8166 13.0162 10.8166 13.493 10.6259Z" fill="black"/>
</svg>
