<svg width="25" height="24" viewBox="0 0 25 24" fill="none" xmlns="http://www.w3.org/2000/svg">
<path fill-rule="evenodd" clip-rule="evenodd" d="M3.75027 17C3.75027 18.1046 4.6457 19 5.75027 19H15.7503C16.3026 19 16.7503 19.4477 16.7503 20C16.7503 20.5523 16.3026 21 15.7503 21H5.75027C3.54113 21 1.75027 19.2091 1.75027 17V8.02268C1.74991 8.00739 1.74991 7.99206 1.75027 7.97671V7C1.75027 4.79086 3.54113 3 5.75027 3H19.7503C21.9594 3 23.7503 4.79086 23.7503 7V7.9767C23.7506 7.99206 23.7506 8.00739 23.7503 8.02268V16C23.7503 16.5523 23.3025 17 22.7503 17C22.198 17 21.7503 16.5523 21.7503 16V9.47703L14.2358 12.4828C13.2822 12.8643 12.2183 12.8643 11.2647 12.4828L3.75027 9.47703V17ZM3.75027 7V7.32297L12.0075 10.6259C12.4843 10.8166 13.0162 10.8166 13.493 10.6259L21.7503 7.32297V7C21.7503 5.89543 20.8548 5 19.7503 5H5.75027C4.6457 5 3.75027 5.89543 3.75027 7Z" fill="black"/>
<path d="M18.7503 18C18.198 18 17.7503 18.4477 17.7503 19C17.7503 19.5523 18.198 20 18.7503 20H22.7503C23.3025 20 23.7503 19.5523 23.7503 19C23.7503 18.4477 23.3025 18 22.7503 18H18.7503Z" fill="black"/>
</svg>
