<svg width="25" height="24" viewBox="0 0 25 24" fill="none" xmlns="http://www.w3.org/2000/svg">
<path fill-rule="evenodd" clip-rule="evenodd" d="M4.60987 2.27805C3.28266 1.64605 1.75 2.61377 1.75 4.08377V15.7134C1.75 16.8705 2.41548 17.9245 3.4602 18.422L8.02007 20.5933C8.1906 20.6745 8.38065 20.7058 8.56821 20.6835L15.8811 19.8129L19.8901 21.7219C21.2173 22.3539 22.75 21.3862 22.75 19.9162V8.2866C22.75 7.12948 22.0845 6.07551 21.0398 5.57802L16.4799 3.40665C16.3134 3.32736 16.1282 3.29566 15.9448 3.31507L11.6698 3.76745C11.6599 3.76849 11.65 3.76969 11.6402 3.77103L8.61068 4.1832L4.60987 2.27805ZM20.75 19.9162L17.05 18.1543V5.8933L20.1799 7.38374C20.5282 7.54957 20.75 7.90089 20.75 8.2866V19.9162ZM15.05 17.8977V5.42092L11.895 5.75478L9.45 6.08744V18.5644L15.05 17.8977ZM3.75 4.08377L7.45 5.84568V18.1067L4.32007 16.6162C3.97183 16.4504 3.75 16.0991 3.75 15.7134V4.08377Z" fill="black"/>
</svg>
