<svg width="25" height="24" viewBox="0 0 25 24" fill="none" xmlns="http://www.w3.org/2000/svg">
<path fill-rule="evenodd" clip-rule="evenodd" d="M12.2502 5.49999C9.76487 5.49999 7.75015 7.51471 7.75015 9.99999C7.75015 12.4853 9.76487 14.5 12.2502 14.5C14.7354 14.5 16.7502 12.4853 16.7502 9.99999C16.7502 7.51471 14.7354 5.49999 12.2502 5.49999ZM9.75015 9.99999C9.75015 8.61928 10.8694 7.49999 12.2502 7.49999C13.6309 7.49999 14.7502 8.61928 14.7502 9.99999C14.7502 11.3807 13.6309 12.5 12.2502 12.5C10.8694 12.5 9.75015 11.3807 9.75015 9.99999Z" fill="black"/>
<path fill-rule="evenodd" clip-rule="evenodd" d="M8.05939 3.59198C10.5971 1.90017 13.9032 1.90017 16.4409 3.59198C19.8718 5.87924 20.835 10.495 18.6053 13.9635L14.7737 19.9237C13.5928 21.7607 10.9075 21.7607 9.72662 19.9237L5.89505 13.9635C3.66528 10.495 4.6285 5.87924 8.05939 3.59198ZM9.1688 5.25608C11.0347 4.01213 13.4656 4.01213 15.3315 5.25608C17.8542 6.93785 18.5624 10.3317 16.9229 12.882L13.0913 18.8422C12.6977 19.4546 11.8026 19.4546 11.409 18.8422L7.57741 12.882C5.93792 10.3317 6.64615 6.93785 9.1688 5.25608Z" fill="black"/>
</svg>
