<svg width="25" height="24" viewBox="0 0 25 24" fill="none" xmlns="http://www.w3.org/2000/svg">
<path fill-rule="evenodd" clip-rule="evenodd" d="M6.25 2C4.04086 2 2.25 3.79086 2.25 6V18C2.25 20.2091 4.04086 22 6.25 22H18.25C20.4591 22 22.25 20.2091 22.25 18V6C22.25 3.79086 20.4591 2 18.25 2H6.25ZM4.25 6C4.25 4.89543 5.14543 4 6.25 4H18.25C19.3546 4 20.25 4.89543 20.25 6V6.45434L9.81544 13.1689L4.25 6.15159V6ZM11.0643 14.7435L20.25 8.83264V18C20.25 19.1046 19.3546 20 18.25 20H15.2332L11.0643 14.7435ZM12.6806 20H6.25C5.14543 20 4.25 19.1046 4.25 18V9.37015L12.6806 20Z" fill="black"/>
</svg>
