<svg width="25" height="24" viewBox="0 0 25 24" fill="none" xmlns="http://www.w3.org/2000/svg">
<path fill-rule="evenodd" clip-rule="evenodd" d="M11.6444 7.82918C10.3146 7.16428 8.75 8.13127 8.75 9.61803V14.382C8.75 15.8687 10.3146 16.8357 11.6444 16.1708L16.4084 13.7889C17.8825 13.0518 17.8825 10.9482 16.4084 10.2111L11.6444 7.82918ZM10.75 9.61803L15.5139 12L10.75 14.382V9.61803Z" fill="black"/>
<path fill-rule="evenodd" clip-rule="evenodd" d="M5.75 2.5C3.54086 2.5 1.75 4.29086 1.75 6.5V17.5C1.75 19.7091 3.54086 21.5 5.75 21.5H19.75C21.9591 21.5 23.75 19.7091 23.75 17.5V6.5C23.75 4.29086 21.9591 2.5 19.75 2.5H5.75ZM3.75 6.5C3.75 5.39543 4.64543 4.5 5.75 4.5H19.75C20.8546 4.5 21.75 5.39543 21.75 6.5V17.5C21.75 18.6046 20.8546 19.5 19.75 19.5H5.75C4.64543 19.5 3.75 18.6046 3.75 17.5V6.5Z" fill="black"/>
</svg>
