<svg width="25" height="24" viewBox="0 0 25 24" fill="none" xmlns="http://www.w3.org/2000/svg">
<path fill-rule="evenodd" clip-rule="evenodd" d="M8.76772 7.82297C9.92364 7.40617 10.75 6.29959 10.75 5C10.75 3.34315 9.40685 2 7.75 2C6.09315 2 4.75 3.34315 4.75 5C4.75 6.30622 5.58481 7.41746 6.75 7.82929V16.1707C5.58481 16.5825 4.75 17.6938 4.75 19C4.75 20.6569 6.09315 22 7.75 22C9.40685 22 10.75 20.6569 10.75 19C10.75 17.6938 9.91519 16.5825 8.75 16.1707V13.4199C9.0522 13.9588 9.38247 14.4944 9.73627 15.0133C10.6181 16.3066 11.669 17.5298 12.8277 18.4396C13.7464 19.1609 14.7845 19.7249 15.8947 19.9231C16.2841 21.1283 17.4152 22 18.75 22C20.4069 22 21.75 20.6569 21.75 19C21.75 17.3431 20.4069 16 18.75 16C17.4853 16 16.4034 16.7826 15.9621 17.8899C15.3617 17.7273 14.7234 17.3852 14.0629 16.8666C13.1123 16.1202 12.1944 15.0684 11.3887 13.8867C10.5856 12.7088 9.91677 11.4354 9.45167 10.2749C9.05352 9.2814 8.82948 8.43197 8.76772 7.82297ZM7.75 4C8.30228 4 8.75 4.44772 8.75 5C8.75 5.55228 8.30228 6 7.75 6C7.19772 6 6.75 5.55228 6.75 5C6.75 4.44772 7.19772 4 7.75 4ZM17.75 19C17.75 19.5523 18.1977 20 18.75 20C19.3023 20 19.75 19.5523 19.75 19C19.75 18.4477 19.3023 18 18.75 18C18.1977 18 17.75 18.4477 17.75 19ZM6.75 19C6.75 18.4477 7.19772 18 7.75 18C8.30228 18 8.75 18.4477 8.75 19C8.75 19.5523 8.30228 20 7.75 20C7.19772 20 6.75 19.5523 6.75 19Z" fill="black"/>
</svg>
