<svg width="25" height="24" viewBox="0 0 25 24" fill="none" xmlns="http://www.w3.org/2000/svg">
<path d="M7.75 7.5C7.19772 7.5 6.75 7.94772 6.75 8.5C6.75 9.05228 7.19772 9.5 7.75 9.5H17.75C18.3023 9.5 18.75 9.05228 18.75 8.5C18.75 7.94772 18.3023 7.5 17.75 7.5H7.75Z" fill="black"/>
<path d="M6.75 13C6.75 12.4477 7.19772 12 7.75 12H10.75C11.3023 12 11.75 12.4477 11.75 13C11.75 13.5523 11.3023 14 10.75 14H7.75C7.19772 14 6.75 13.5523 6.75 13Z" fill="black"/>
<path d="M15.75 14.5C15.1977 14.5 14.75 14.9477 14.75 15.5C14.75 16.0523 15.1977 16.5 15.75 16.5H17.75C18.3023 16.5 18.75 16.0523 18.75 15.5C18.75 14.9477 18.3023 14.5 17.75 14.5H15.75Z" fill="black"/>
<path d="M14.75 18C14.75 17.4477 15.1977 17 15.75 17H19.75C20.3023 17 20.75 17.4477 20.75 18C20.75 18.5523 20.3023 19 19.75 19H15.75C15.1977 19 14.75 18.5523 14.75 18Z" fill="black"/>
<path fill-rule="evenodd" clip-rule="evenodd" d="M22.75 12.7639V6.5C22.75 4.29086 20.9591 2.5 18.75 2.5H6.75C4.54086 2.5 2.75 4.29086 2.75 6.5V14.5C2.75 16.7091 4.54086 18.5 6.75 18.5H8.66385C9.13172 18.5 9.58479 18.664 9.94422 18.9636L12.1098 20.7682C12.401 21.0109 12.7893 21.06 13.1186 20.9298C13.5882 21.2347 14.1484 21.4118 14.75 21.4118H15.1215C15.5385 21.4118 15.9451 21.5421 16.2844 21.7846L17.1426 22.398C17.8382 22.8951 18.7729 22.8951 19.4685 22.398L20.5221 21.645C20.7343 21.4933 20.9886 21.4118 21.2494 21.4118C22.6305 21.4118 23.75 20.2922 23.75 18.9112V15C23.75 14.1115 23.3637 13.3132 22.75 12.7639ZM11.75 17.865V15C11.75 13.3431 13.0931 12 14.75 12H20.75V6.5C20.75 5.39543 19.8546 4.5 18.75 4.5H6.75C5.64543 4.5 4.75 5.39543 4.75 6.5V14.5C4.75 15.6046 5.64543 16.5 6.75 16.5H8.66385C9.5996 16.5 10.5057 16.8281 11.2246 17.4271L11.75 17.865ZM19.3592 20.0178C19.9107 19.6237 20.5716 19.4118 21.2494 19.4118C21.5259 19.4118 21.75 19.1877 21.75 18.9112V15C21.75 14.4477 21.3023 14 20.75 14H14.75C14.1977 14 13.75 14.4477 13.75 15V18.4118C13.75 18.9641 14.1977 19.4118 14.75 19.4118H15.1215C15.9556 19.4118 16.7688 19.6725 17.4473 20.1575L18.3056 20.7709L19.3592 20.0178Z" fill="black"/>
</svg>
