<svg width="25" height="24" viewBox="0 0 25 24" fill="none" xmlns="http://www.w3.org/2000/svg">
<path d="M6.75 8.5C6.75 7.94772 7.19772 7.5 7.75 7.5H12.75C13.3023 7.5 13.75 7.94772 13.75 8.5C13.75 9.05228 13.3023 9.5 12.75 9.5H7.75C7.19772 9.5 6.75 9.05228 6.75 8.5Z" fill="black"/>
<path d="M7.75 11.5C7.19772 11.5 6.75 11.9477 6.75 12.5C6.75 13.0523 7.19772 13.5 7.75 13.5H16.75C17.3023 13.5 17.75 13.0523 17.75 12.5C17.75 11.9477 17.3023 11.5 16.75 11.5H7.75Z" fill="black"/>
<path fill-rule="evenodd" clip-rule="evenodd" d="M16.15 19.95L17.55 18.9C17.8962 18.6404 18.3173 18.5 18.75 18.5C20.9591 18.5 22.75 16.7091 22.75 14.5V6.5C22.75 4.29086 20.9591 2.5 18.75 2.5H6.75C4.54086 2.5 2.75 4.29086 2.75 6.5V14.5C2.75 16.7091 4.54086 18.5 6.75 18.5H8.75C9.18274 18.5 9.60381 18.6404 9.95 18.9L11.35 19.95C12.7722 21.0167 14.7278 21.0167 16.15 19.95ZM18.75 16.5C17.8845 16.5 17.0424 16.7807 16.35 17.3L14.95 18.35C14.2389 18.8833 13.2611 18.8833 12.55 18.35L11.15 17.3C10.4576 16.7807 9.61548 16.5 8.75 16.5H6.75C5.64543 16.5 4.75 15.6046 4.75 14.5V6.5C4.75 5.39543 5.64543 4.5 6.75 4.5H18.75C19.8546 4.5 20.75 5.39543 20.75 6.5V14.5C20.75 15.6046 19.8546 16.5 18.75 16.5Z" fill="black"/>
</svg>
