<svg width="25" height="24" viewBox="0 0 25 24" fill="none" xmlns="http://www.w3.org/2000/svg">
<path d="M6.75 10C6.75 9.44772 7.19772 9 7.75 9H12.75C13.3023 9 13.75 9.44772 13.75 10C13.75 10.5523 13.3023 11 12.75 11H7.75C7.19772 11 6.75 10.5523 6.75 10Z" fill="black"/>
<path d="M7.75 13C7.19772 13 6.75 13.4477 6.75 14C6.75 14.5523 7.19772 15 7.75 15H16.75C17.3023 15 17.75 14.5523 17.75 14C17.75 13.4477 17.3023 13 16.75 13H7.75Z" fill="black"/>
<path fill-rule="evenodd" clip-rule="evenodd" d="M1.75 16C1.75 18.2091 3.54086 20 5.75 20H17.75C19.9591 20 21.75 18.2091 21.75 16V9.29669C21.75 8.94864 21.8408 8.60661 22.0135 8.30442L22.7633 6.99228C23.5252 5.65897 22.5625 4 21.0268 4H5.75C3.54086 4 1.75 5.79086 1.75 8V16ZM5.75 18C4.64543 18 3.75 17.1046 3.75 16V8C3.75 6.89543 4.64543 6 5.75 6H21.0268L20.277 7.31214C19.9317 7.91653 19.75 8.60059 19.75 9.29669V16C19.75 17.1046 18.8546 18 17.75 18H5.75Z" fill="black"/>
</svg>
