<svg width="25" height="24" viewBox="0 0 25 24" fill="none" xmlns="http://www.w3.org/2000/svg">
<path d="M22.0429 1.29289C22.4334 0.902369 23.0666 0.902369 23.4571 1.29289C23.8476 1.68342 23.8476 2.31658 23.4571 2.70711L3.45711 22.7071C3.06658 23.0976 2.43342 23.0976 2.04289 22.7071C1.65237 22.3166 1.65237 21.6834 2.04289 21.2929L22.0429 1.29289Z" fill="black"/>
<path d="M5.84192 16.0797C5.79137 15.9504 5.74359 15.8184 5.69871 15.6838C5.52406 15.1599 4.95774 14.8767 4.4338 15.0513C3.90986 15.226 3.6267 15.7923 3.80134 16.3163C3.95142 16.7665 4.12699 17.1932 4.32537 17.5963L5.84192 16.0797Z" fill="black"/>
<path d="M6.8396 20.7389C11.5638 24.501 19.4619 23.0268 21.6987 16.3163C21.8734 15.7923 21.5902 15.226 21.0663 15.0513C20.5423 14.8767 19.976 15.1599 19.8013 15.6838C18.0667 20.8876 12.0117 22.0953 8.2718 19.3067L6.8396 20.7389Z" fill="black"/>
<path d="M12.75 2C14.7266 2 16.5119 2.81928 17.7848 4.13678L16.3703 5.55129C15.4596 4.59558 14.1744 4 12.75 4C9.98858 4 7.75 6.23858 7.75 9V13C7.75 13.3634 7.78877 13.7178 7.8624 14.0592L6.26975 15.6518C5.93471 14.8339 5.75 13.9385 5.75 13V9C5.75 5.13401 8.88401 2 12.75 2Z" fill="black"/>
<path d="M12.75 18C11.8386 18 10.9841 17.7561 10.2483 17.3301L8.79915 18.7793C9.92358 19.5494 11.2842 20 12.75 20C16.616 20 19.75 16.866 19.75 13V9C19.75 8.63007 19.7213 8.26684 19.666 7.91241L17.75 9.82843V13C17.75 15.7614 15.5114 18 12.75 18Z" fill="black"/>
</svg>
