<svg width="25" height="24" viewBox="0 0 25 24" fill="none" xmlns="http://www.w3.org/2000/svg">
<path d="M10.7503 8C11.3026 8 11.7503 8.44772 11.7503 9V13C11.7503 13.5523 11.3026 14 10.7503 14C10.198 14 9.75027 13.5523 9.75027 13V9C9.75027 8.44772 10.198 8 10.7503 8Z" fill="black"/>
<path d="M15.7503 9C15.7503 8.44772 15.3026 8 14.7503 8C14.198 8 13.7503 8.44772 13.7503 9V13C13.7503 13.5523 14.198 14 14.7503 14C15.3026 14 15.7503 13.5523 15.7503 13V9Z" fill="black"/>
<path fill-rule="evenodd" clip-rule="evenodd" d="M12.7503 2C8.88428 2 5.75027 5.13401 5.75027 9V13C5.75027 16.866 8.88428 20 12.7503 20C16.6163 20 19.7503 16.866 19.7503 13V9C19.7503 5.13401 16.6163 2 12.7503 2ZM7.75027 9C7.75027 6.23858 9.98885 4 12.7503 4C15.5117 4 17.7503 6.23858 17.7503 9V13C17.7503 15.7614 15.5117 18 12.7503 18C9.98885 18 7.75027 15.7614 7.75027 13V9Z" fill="black"/>
<path d="M5.69895 15.6838C5.52431 15.1598 4.95799 14.8767 4.43404 15.0513C3.9101 15.226 3.62694 15.7923 3.80159 16.3162C6.66819 24.916 18.8324 24.916 21.699 16.3162C21.8736 15.7923 21.5904 15.226 21.0665 15.0513C20.5426 14.8767 19.9762 15.1598 19.8016 15.6838C17.5428 22.4602 7.95776 22.4602 5.69895 15.6838Z" fill="black"/>
</svg>
