<svg width="25" height="24" viewBox="0 0 25 24" fill="none" xmlns="http://www.w3.org/2000/svg">
<path fill-rule="evenodd" clip-rule="evenodd" d="M15.25 1.5C17.4591 1.5 19.25 3.29086 19.25 5.5V18.5C19.25 20.7091 17.4591 22.5 15.25 22.5H9.25C7.04086 22.5 5.25 20.7091 5.25 18.5V5.5C5.25 3.29086 7.04086 1.5 9.25 1.5H15.25ZM7.25 5.5C7.25 4.39543 8.14543 3.5 9.25 3.5H9.83535C10.0413 4.0826 10.5969 4.5 11.25 4.5H13.25C13.9031 4.5 14.4587 4.0826 14.6646 3.5H15.25C16.3546 3.5 17.25 4.39543 17.25 5.5V18.5C17.25 19.6046 16.3546 20.5 15.25 20.5H9.25C8.14543 20.5 7.25 19.6046 7.25 18.5V5.5Z" fill="black"/>
</svg>
