<svg width="25" height="24" viewBox="0 0 25 24" fill="none" xmlns="http://www.w3.org/2000/svg">
<path d="M5.75 6.5C5.19772 6.5 4.75 6.94772 4.75 7.5C4.75 8.05228 5.19772 8.5 5.75 8.5H7.75C8.30228 8.5 8.75 8.05228 8.75 7.5C8.75 6.94772 8.30228 6.5 7.75 6.5H5.75Z" fill="black"/>
<path d="M16.75 7.5C16.75 6.94772 17.1977 6.5 17.75 6.5H19.75C20.3023 6.5 20.75 6.94772 20.75 7.5C20.75 8.05228 20.3023 8.5 19.75 8.5H17.75C17.1977 8.5 16.75 8.05228 16.75 7.5Z" fill="black"/>
<path d="M5.75 15.5C5.19772 15.5 4.75 15.9477 4.75 16.5C4.75 17.0523 5.19772 17.5 5.75 17.5H7.75C8.30228 17.5 8.75 17.0523 8.75 16.5C8.75 15.9477 8.30228 15.5 7.75 15.5H5.75Z" fill="black"/>
<path d="M16.75 16.5C16.75 15.9477 17.1977 15.5 17.75 15.5H19.75C20.3023 15.5 20.75 15.9477 20.75 16.5C20.75 17.0523 20.3023 17.5 19.75 17.5H17.75C17.1977 17.5 16.75 17.0523 16.75 16.5Z" fill="black"/>
<path fill-rule="evenodd" clip-rule="evenodd" d="M12.75 9C14.4069 9 15.75 10.3431 15.75 12C15.75 13.6569 14.4069 15 12.75 15C11.0931 15 9.75 13.6569 9.75 12C9.75 10.3431 11.0931 9 12.75 9ZM13.75 12C13.75 11.4477 13.3023 11 12.75 11C12.1977 11 11.75 11.4477 11.75 12C11.75 12.5523 12.1977 13 12.75 13C13.3023 13 13.75 12.5523 13.75 12Z" fill="black"/>
<path fill-rule="evenodd" clip-rule="evenodd" d="M5.75 4C3.54086 4 1.75 5.79086 1.75 8V16C1.75 18.2091 3.54086 20 5.75 20H19.75C21.9591 20 23.75 18.2091 23.75 16V8C23.75 5.79086 21.9591 4 19.75 4H5.75ZM3.75 8C3.75 6.89543 4.64543 6 5.75 6H19.75C20.8546 6 21.75 6.89543 21.75 8V16C21.75 17.1046 20.8546 18 19.75 18H5.75C4.64543 18 3.75 17.1046 3.75 16V8Z" fill="black"/>
</svg>
