<svg width="25" height="24" viewBox="0 0 25 24" fill="none" xmlns="http://www.w3.org/2000/svg">
<path fill-rule="evenodd" clip-rule="evenodd" d="M13.218 6.1102C14.6902 6.1102 15.8836 7.30366 15.8836 8.77586C15.8836 10.2481 14.6902 11.4415 13.218 11.4415C11.7458 11.4415 10.5523 10.2481 10.5523 8.77586C10.5523 7.30366 11.7458 6.1102 13.218 6.1102ZM13.8836 8.77586C13.8836 8.40823 13.5856 8.1102 13.218 8.1102C12.8503 8.1102 12.5523 8.40823 12.5523 8.77586C12.5523 9.1435 12.8503 9.44152 13.218 9.44152C13.5856 9.44152 13.8836 9.1435 13.8836 8.77586Z" fill="black"/>
<path fill-rule="evenodd" clip-rule="evenodd" d="M3.88965 5.94604C3.88965 3.73691 5.68051 1.94604 7.88965 1.94604H18.5463C20.7554 1.94604 22.5463 3.73691 22.5463 5.94604V11.6057C22.5463 12.1507 22.4373 12.6702 22.2399 13.1436L21.9597 15.2035C21.8488 16.0186 21.5028 16.7364 21.003 17.304C20.9898 17.3454 20.9737 17.3863 20.9547 17.4267L20.007 19.4353C18.9409 21.6951 16.0869 22.4351 14.057 20.9781L5.46716 14.8124C5.39481 14.7605 5.33146 14.7007 5.27743 14.635C4.42756 13.9015 3.88965 12.8164 3.88965 11.6057V5.94604ZM18.5463 15.6057C19.0076 15.6057 19.4507 15.5276 19.8631 15.3839C19.5 16.3303 18.4558 16.8826 17.4347 16.5839L14.091 15.6057H18.5463ZM6.58943 4.42632C6.16109 4.79313 5.88965 5.33789 5.88965 5.94604V11.6057C5.88965 12.2138 6.16109 12.7586 6.58943 13.1254C6.46307 12.958 6.38814 12.7495 6.38814 12.5236C6.38814 11.9713 6.83586 11.5236 7.38814 11.5236H9.0538C9.60609 11.5236 10.0538 11.9713 10.0538 12.5236C10.0538 13.0759 9.60609 13.5236 9.0538 13.5236H7.38814C7.36215 13.5236 7.33639 13.5226 7.3109 13.5207C7.49411 13.576 7.68841 13.6057 7.88965 13.6057H18.5463C18.7475 13.6057 18.9418 13.576 19.125 13.5207C19.0995 13.5226 19.0738 13.5236 19.0478 13.5236H17.3821C16.8298 13.5236 16.3821 13.0759 16.3821 12.5236C16.3821 11.9713 16.8298 11.5236 17.3821 11.5236H19.0478C19.6001 11.5236 20.0478 11.9713 20.0478 12.5236C20.0478 12.7495 19.9729 12.958 19.8465 13.1254C20.2748 12.7586 20.5463 12.2138 20.5463 11.6057V5.94604C20.5463 5.33789 20.2748 4.79313 19.8465 4.42632C19.9729 4.59376 20.0478 4.80219 20.0478 5.02812C20.0478 5.58041 19.6001 6.02812 19.0478 6.02812H17.3821C16.8298 6.02812 16.3821 5.58041 16.3821 5.02812C16.3821 4.47584 16.8298 4.02812 17.3821 4.02812H19.0478C19.0738 4.02812 19.0995 4.02911 19.125 4.03106C18.9418 3.97577 18.7475 3.94604 18.5463 3.94604H7.88965C7.68841 3.94604 7.49411 3.97577 7.3109 4.03106C7.33639 4.02911 7.36215 4.02812 7.38814 4.02812H9.0538C9.60609 4.02812 10.0538 4.47584 10.0538 5.02812C10.0538 5.58041 9.60609 6.02812 9.0538 6.02812H7.38814C6.83586 6.02812 6.38814 5.58041 6.38814 5.02812C6.38814 4.80219 6.46307 4.59376 6.58943 4.42632ZM18.1578 18.6629C17.7363 18.6797 17.3037 18.6294 16.8731 18.5034L12.0895 17.104L15.2232 19.3533C16.2135 20.0641 17.596 19.7291 18.1578 18.6629Z" fill="black"/>
</svg>
