<svg width="25" height="24" viewBox="0 0 25 24" fill="none" xmlns="http://www.w3.org/2000/svg">
<path d="M5.84106 6.4166C5.29088 6.36847 4.80585 6.77546 4.75771 7.32564C4.70958 7.87583 5.11657 8.36086 5.66675 8.40899L7.65914 8.5833C8.20932 8.63144 8.69436 8.22445 8.74249 7.67427C8.79063 7.12408 8.38363 6.63905 7.83345 6.59091L5.84106 6.4166Z" fill="black"/>
<path d="M16.7577 8.32564C16.8058 7.77546 17.2909 7.36847 17.8411 7.4166L19.8335 7.59091C20.3836 7.63905 20.7906 8.12408 20.7425 8.67427C20.6944 9.22445 20.2093 9.63144 19.6591 9.5833L17.6668 9.40899C17.1166 9.36086 16.7096 8.87583 16.7577 8.32564Z" fill="black"/>
<path d="M5.84106 15.0038C5.29088 14.9556 4.80585 15.3626 4.75771 15.9128C4.70958 16.463 5.11657 16.948 5.66675 16.9962L7.65914 17.1705C8.20932 17.2186 8.69436 16.8116 8.74249 16.2614C8.79063 15.7112 8.38363 15.2262 7.83345 15.1781L5.84106 15.0038Z" fill="black"/>
<path d="M16.7577 17.3256C16.8058 16.7755 17.2909 16.3685 17.8411 16.4166L19.8335 16.5909C20.3836 16.639 20.7906 17.1241 20.7425 17.6743C20.6944 18.2244 20.2093 18.6314 19.6591 18.5833L17.6668 18.409C17.1166 18.3609 16.7096 17.8758 16.7577 17.3256Z" fill="black"/>
<path fill-rule="evenodd" clip-rule="evenodd" d="M12.75 8.99996C14.4069 8.99996 15.75 10.3431 15.75 12C15.75 13.6568 14.4069 15 12.75 15C11.0931 15 9.75 13.6568 9.75 12C9.75 10.3431 11.0931 8.99996 12.75 8.99996ZM13.75 12C13.75 11.4477 13.3023 11 12.75 11C12.1977 11 11.75 11.4477 11.75 12C11.75 12.5522 12.1977 13 12.75 13C13.3023 13 13.75 12.5522 13.75 12Z" fill="black"/>
<path fill-rule="evenodd" clip-rule="evenodd" d="M5.99433 3.24155C3.6811 3.043 1.75 4.87584 1.75 7.16857V15.1596C1.75 17.2848 3.40497 19.0305 5.49824 19.2066C6.35626 19.2788 7.40879 19.3733 8.65243 19.4952C8.87536 19.517 9.37104 19.6182 10.0877 19.7839C10.5589 19.8929 11.0892 20.0209 11.6464 20.1554C11.9091 20.2188 12.1786 20.2838 12.4498 20.3488C13.2891 20.5498 14.1472 20.7506 14.8857 20.9017C15.5928 21.0464 16.2856 21.1667 16.7458 21.1686C17.8894 21.1735 19.0079 21.1519 19.9651 21.1227C22.1062 21.0573 23.75 19.2885 23.75 17.1811V9.19276C23.75 6.88035 21.8064 5.07283 19.5336 5.13426C18.681 5.1573 17.7251 5.17275 16.7542 5.16865C16.5234 5.16767 16.0212 5.09263 15.2866 4.94232C14.5835 4.79843 13.7534 4.60449 12.9157 4.40383C12.6533 4.34097 12.3895 4.2773 12.1293 4.21447L12.1282 4.21423C11.5655 4.07839 11.019 3.94647 10.5383 3.83531C9.85812 3.67802 9.22589 3.54182 8.84757 3.50473C7.74864 3.39699 6.79679 3.31043 5.99433 3.24155ZM3.75 7.16857C3.75 6.0188 4.70662 5.13838 5.82329 5.23422C6.61777 5.30242 7.56158 5.38824 8.65243 5.49518C8.87536 5.51704 9.37104 5.61817 10.0877 5.78389C10.5589 5.89287 11.0894 6.02092 11.6467 6.15545C11.9096 6.2189 12.1784 6.28379 12.4498 6.3488C13.2891 6.54984 14.1472 6.7506 14.8857 6.90172C15.5928 7.04641 16.2856 7.16668 16.7458 7.16863C17.7424 7.17284 18.7197 7.15699 19.5877 7.13353C20.7741 7.10146 21.75 8.04466 21.75 9.19276V17.1811C21.75 18.2426 20.9303 19.0923 19.9041 19.1236C18.9631 19.1523 17.8687 19.1734 16.7542 19.1686C16.5234 19.1677 16.0212 19.0926 15.2866 18.9423C14.5835 18.7984 13.7534 18.6045 12.9157 18.4038C12.653 18.3409 12.389 18.2772 12.1284 18.2143C11.5656 18.0784 11.019 17.9465 10.5383 17.8353C9.85812 17.678 9.22589 17.5418 8.84757 17.5047C7.59472 17.3819 6.53303 17.2866 5.66593 17.2136C4.58407 17.1226 3.75 16.2208 3.75 15.1596V7.16857Z" fill="black"/>
</svg>
