<svg width="25" height="24" viewBox="0 0 25 24" fill="none" xmlns="http://www.w3.org/2000/svg">
<path fill-rule="evenodd" clip-rule="evenodd" d="M1.75 12C1.75 5.92487 6.67487 1 12.75 1C13.7141 1 14.6506 1.12426 15.5438 1.35818C15.9143 1.45521 16.2139 1.69252 16.3892 2.01508C16.5534 2.31713 16.5803 2.63802 16.5412 2.90478C16.4668 3.41238 16.0993 3.99552 15.4108 4.15988C12.775 4.7891 10.75 7.19456 10.75 10C10.75 13.3137 13.4363 16 16.75 16C18.2252 16 19.5737 15.4689 20.6188 14.5863C21.1596 14.1296 21.8477 14.1791 22.3022 14.4255C22.5404 14.5547 22.7809 14.7696 22.9234 15.0829C23.0752 15.4169 23.0836 15.7976 22.94 16.15C21.3028 20.1663 17.3585 23 12.75 23C6.67487 23 1.75 18.0751 1.75 12ZM12.75 3C7.77944 3 3.75 7.02944 3.75 12C3.75 16.9706 7.77944 21 12.75 21C15.7376 21 18.3866 19.5441 20.0241 17.3012C19.0245 17.7501 17.916 18 16.75 18C12.3317 18 8.75 14.4183 8.75 10C8.75 6.99337 10.4646 4.36784 12.9252 3.00167C12.8669 3.00056 12.8085 3 12.75 3Z" fill="black"/>
<path d="M16.093 8.04145C15.9594 7.64055 15.6448 7.32596 15.2439 7.19233C14.8359 7.05633 14.8359 6.47921 15.2439 6.34321C15.6448 6.20957 15.9594 5.89498 16.093 5.49408C16.229 5.08607 16.8061 5.08607 16.9421 5.49408C17.0758 5.89498 17.3904 6.20957 17.7913 6.34321C18.1993 6.47921 18.1993 7.05633 17.7913 7.19233C17.3904 7.32596 17.0758 7.64055 16.9421 8.04145C16.8061 8.44946 16.229 8.44946 16.093 8.04145Z" fill="black"/>
<path d="M14.2439 13.1923C14.6448 13.326 14.9594 13.6405 15.093 14.0415C15.229 14.4495 15.8061 14.4495 15.9421 14.0415C16.0758 13.6405 16.3904 13.326 16.7913 13.1923C17.1993 13.0563 17.1993 12.4792 16.7913 12.3432C16.3904 12.2096 16.0758 11.895 15.9421 11.4941C15.8061 11.0861 15.229 11.0861 15.093 11.4941C14.9594 11.895 14.6448 12.2096 14.2439 12.3432C13.8359 12.4792 13.8359 13.0563 14.2439 13.1923Z" fill="black"/>
</svg>
