<svg width="25" height="24" viewBox="0 0 25 24" fill="none" xmlns="http://www.w3.org/2000/svg">
<path fill-rule="evenodd" clip-rule="evenodd" d="M12.75 1C6.67487 1 1.75 5.92487 1.75 12C1.75 18.0751 6.67487 23 12.75 23C17.3585 23 21.3028 20.1663 22.94 16.15C23.0836 15.7976 23.0752 15.4169 22.9234 15.0829C22.7809 14.7696 22.5404 14.5547 22.3022 14.4255C21.8477 14.1791 21.1596 14.1296 20.6188 14.5863C19.5737 15.4689 18.2252 16 16.75 16C13.4363 16 10.75 13.3137 10.75 10C10.75 7.19456 12.775 4.7891 15.4108 4.15988C16.0993 3.99552 16.4668 3.41238 16.5412 2.90478C16.5803 2.63802 16.5534 2.31713 16.3892 2.01508C16.2139 1.69252 15.9143 1.45521 15.5438 1.35818C14.6506 1.12426 13.7141 1 12.75 1ZM3.75 12C3.75 7.02944 7.77944 3 12.75 3C12.8085 3 12.8669 3.00056 12.9252 3.00167C10.4646 4.36784 8.75 6.99337 8.75 10C8.75 14.4183 12.3317 18 16.75 18C17.916 18 19.0245 17.7501 20.0241 17.3012C18.3866 19.5441 15.7376 21 12.75 21C7.77944 21 3.75 16.9706 3.75 12Z" fill="black"/>
</svg>
