<svg width="25" height="24" viewBox="0 0 25 24" fill="none" xmlns="http://www.w3.org/2000/svg">
<path fill-rule="evenodd" clip-rule="evenodd" d="M12.75 23C11.0307 23 9.40087 22.6048 7.94891 21.8995C4.28149 20.1178 1.75 16.3555 1.75 12C1.75 5.92487 6.67487 1 12.75 1C13.7141 1 14.6506 1.12426 15.5438 1.35818C15.9143 1.45521 16.2139 1.69252 16.3892 2.01508C16.5534 2.31713 16.5803 2.63802 16.5412 2.90478C16.4668 3.41238 16.0993 3.99552 15.4108 4.15988C12.775 4.7891 10.75 7.19456 10.75 10C10.75 10.8824 10.9399 11.7189 11.2811 12.4722C12.133 11.0046 13.6552 10 15.45 10C17.7153 10 19.5533 11.6088 20.1464 13.7174C20.4739 13.8848 20.7783 14.0912 21.055 14.3305C21.4953 14.1677 21.9634 14.2417 22.302 14.4252C22.5401 14.5542 22.7809 14.7691 22.9234 15.0824C23.0754 15.4165 23.0837 15.7973 22.9401 16.1497C22.837 16.4026 22.7248 16.6508 22.6039 16.8939C22.6995 17.2866 22.75 17.6969 22.75 18.1176C22.75 20.7416 20.7603 23 18.15 23H12.75ZM3.75 12C3.75 7.02944 7.77944 3 12.75 3C12.8085 3 12.8669 3.00056 12.9252 3.00167C10.4646 4.36784 8.75 6.99337 8.75 10C8.75 11.6425 9.24608 13.1722 10.0968 14.4437C10.2388 14.656 10.3908 14.8612 10.552 15.0584C10.5507 15.1075 10.55 15.1566 10.55 15.2059L10.55 15.2262C9.44933 15.9938 8.75 17.3083 8.75 18.7647C8.75 19.2542 8.83026 19.7297 8.97905 20.1746C8.92671 20.1504 8.87463 20.1257 8.82284 20.1005C5.81791 18.6407 3.75 15.5609 3.75 12ZM12.55 15.2059C12.55 13.3629 13.9181 12 15.45 12C16.8108 12 18.0336 13.0654 18.2987 14.6018C18.3599 14.9572 18.6078 15.252 18.9473 15.3734C19.9576 15.7348 20.75 16.7966 20.75 18.1176C20.75 19.782 19.5162 21 18.15 21H12.75C11.7152 21 10.75 20.0717 10.75 18.7647C10.75 17.7962 11.2951 17.0125 11.9999 16.6923C12.399 16.511 12.6335 16.0908 12.5783 15.6559C12.5597 15.5093 12.55 15.3591 12.55 15.2059Z" fill="black"/>
</svg>
