<svg width="25" height="24" viewBox="0 0 25 24" fill="none" xmlns="http://www.w3.org/2000/svg">
<path d="M12.25 7.5C12.8023 7.5 13.25 7.94772 13.25 8.5V12.5C13.25 13.0523 12.8023 13.5 12.25 13.5C11.6977 13.5 11.25 13.0523 11.25 12.5V8.5C11.25 7.94772 11.6977 7.5 12.25 7.5Z" fill="black"/>
<path fill-rule="evenodd" clip-rule="evenodd" d="M16.2499 1.99997C16.2499 1.44769 15.8022 0.999985 15.2499 1C14.6976 1.00001 14.2499 1.44774 14.2499 2.00003C14.2499 2.17334 14.1897 2.45556 14.0384 2.66571C13.9238 2.82487 13.7241 3 13.25 3C12.7202 3 12.2155 3.10956 11.8011 3.39767C11.3684 3.69848 11.1396 4.12054 11.0483 4.53514C11.0068 4.72402 10.9927 4.91329 10.9982 5.09737C7.17455 5.69822 4.25 9.00758 4.25 13V15C4.25 19.4183 7.83172 23 12.25 23C16.6683 23 20.25 19.4183 20.25 15V13C20.25 8.83371 17.0652 5.41128 12.9973 5.03444C12.9972 5.03067 12.9972 5.02703 12.9971 5.02354C13.0451 5.01214 13.1254 5 13.25 5C14.3759 5 15.1761 4.50847 15.6615 3.83429C16.1102 3.21111 16.25 2.49333 16.2499 1.99997ZM12.2313 7.00003C12.2442 7.00028 12.2571 7.00028 12.27 7.00003C15.5745 7.01084 18.25 9.69297 18.25 13V15C18.25 18.3137 15.5637 21 12.25 21C8.93629 21 6.25 18.3137 6.25 15V13C6.25 9.69253 8.92618 7.01012 12.2313 7.00003Z" fill="black"/>
</svg>
