<svg width="25" height="24" viewBox="0 0 25 24" fill="none" xmlns="http://www.w3.org/2000/svg">
<path d="M13.4571 2.29289C13.0666 1.90237 12.4334 1.90237 12.0429 2.29289L9.04289 5.29289C8.65237 5.68342 8.65237 6.31658 9.04289 6.70711C9.43342 7.09763 10.0666 7.09763 10.4571 6.70711L11.75 5.41421V11H6.16421L7.45711 9.70711C7.84763 9.31658 7.84763 8.68342 7.45711 8.29289C7.06658 7.90237 6.43342 7.90237 6.04289 8.29289L3.04289 11.2929C2.65237 11.6834 2.65237 12.3166 3.04289 12.7071L6.04289 15.7071C6.43342 16.0976 7.06658 16.0976 7.45711 15.7071C7.84763 15.3166 7.84763 14.6834 7.45711 14.2929L6.16421 13H11.75V18.5858L10.4571 17.2929C10.0666 16.9024 9.43342 16.9024 9.04289 17.2929C8.65237 17.6834 8.65237 18.3166 9.04289 18.7071L12.0429 21.7071C12.4334 22.0976 13.0666 22.0976 13.4571 21.7071L16.4571 18.7071C16.8476 18.3166 16.8476 17.6834 16.4571 17.2929C16.0666 16.9024 15.4334 16.9024 15.0429 17.2929L13.75 18.5858V13H19.3358L18.0429 14.2929C17.6524 14.6834 17.6524 15.3166 18.0429 15.7071C18.4334 16.0976 19.0666 16.0976 19.4571 15.7071L22.4571 12.7071C22.8476 12.3166 22.8476 11.6834 22.4571 11.2929L19.4571 8.29289C19.0666 7.90237 18.4334 7.90237 18.0429 8.29289C17.6524 8.68342 17.6524 9.31658 18.0429 9.70711L19.3358 11H13.75V5.41421L15.0429 6.70711C15.4334 7.09763 16.0666 7.09763 16.4571 6.70711C16.8476 6.31658 16.8476 5.68342 16.4571 5.29289L13.4571 2.29289Z" fill="black"/>
<path d="M13.4571 2.29289C13.0666 1.90237 12.4334 1.90237 12.0429 2.29289L9.04289 5.29289C8.65237 5.68342 8.65237 6.31658 9.04289 6.70711C9.43342 7.09763 10.0666 7.09763 10.4571 6.70711L11.75 5.41421V11H6.16421L7.45711 9.70711C7.84763 9.31658 7.84763 8.68342 7.45711 8.29289C7.06658 7.90237 6.43342 7.90237 6.04289 8.29289L3.04289 11.2929C2.65237 11.6834 2.65237 12.3166 3.04289 12.7071L6.04289 15.7071C6.43342 16.0976 7.06658 16.0976 7.45711 15.7071C7.84763 15.3166 7.84763 14.6834 7.45711 14.2929L6.16421 13H11.75V18.5858L10.4571 17.2929C10.0666 16.9024 9.43342 16.9024 9.04289 17.2929C8.65237 17.6834 8.65237 18.3166 9.04289 18.7071L12.0429 21.7071C12.4334 22.0976 13.0666 22.0976 13.4571 21.7071L16.4571 18.7071C16.8476 18.3166 16.8476 17.6834 16.4571 17.2929C16.0666 16.9024 15.4334 16.9024 15.0429 17.2929L13.75 18.5858V13H19.3358L18.0429 14.2929C17.6524 14.6834 17.6524 15.3166 18.0429 15.7071C18.4334 16.0976 19.0666 16.0976 19.4571 15.7071L22.4571 12.7071C22.8476 12.3166 22.8476 11.6834 22.4571 11.2929L19.4571 8.29289C19.0666 7.90237 18.4334 7.90237 18.0429 8.29289C17.6524 8.68342 17.6524 9.31658 18.0429 9.70711L19.3358 11H13.75V5.41421L15.0429 6.70711C15.4334 7.09763 16.0666 7.09763 16.4571 6.70711C16.8476 6.31658 16.8476 5.68342 16.4571 5.29289L13.4571 2.29289Z" fill="black"/>
</svg>
