<svg width="25" height="24" viewBox="0 0 25 24" fill="none" xmlns="http://www.w3.org/2000/svg">
<path d="M10.8358 9.17157C10.4452 8.78105 9.81206 8.78105 9.42154 9.17157C9.03101 9.5621 9.03101 10.1953 9.42154 10.5858L10.8358 12L9.42154 13.4142C9.03101 13.8047 9.03101 14.4379 9.42154 14.8284C9.81206 15.219 10.4452 15.219 10.8358 14.8284L12.25 13.4142L13.6642 14.8284C14.0547 15.219 14.6879 15.219 15.0784 14.8284C15.4689 14.4379 15.4689 13.8047 15.0784 13.4142L13.6642 12L15.0784 10.5858C15.4689 10.1953 15.4689 9.5621 15.0784 9.17157C14.6879 8.78105 14.0547 8.78105 13.6642 9.17157L12.25 10.5858L10.8358 9.17157Z" fill="black"/>
<path fill-rule="evenodd" clip-rule="evenodd" d="M12.25 2C6.72715 2 2.25 6.47715 2.25 12C2.25 17.5228 6.72715 22 12.25 22C17.7728 22 22.25 17.5228 22.25 12C22.25 6.47715 17.7728 2 12.25 2ZM4.25 12C4.25 7.58172 7.83172 4 12.25 4C16.6683 4 20.25 7.58172 20.25 12C20.25 16.4183 16.6683 20 12.25 20C7.83172 20 4.25 16.4183 4.25 12Z" fill="black"/>
</svg>
