<svg width="25" height="24" viewBox="0 0 25 24" fill="none" xmlns="http://www.w3.org/2000/svg">
<path d="M7.30086 5.63616C6.91033 5.24563 6.27717 5.24563 5.88664 5.63616C5.49612 6.02668 5.49612 6.65984 5.88664 7.05037L10.8364 12.0001L5.88664 16.9499C5.49612 17.3404 5.49612 17.9736 5.88664 18.3641C6.27717 18.7546 6.91033 18.7546 7.30086 18.3641L12.2506 13.4143L17.2004 18.3641C17.5909 18.7546 18.224 18.7546 18.6146 18.3641C19.0051 17.9736 19.0051 17.3404 18.6146 16.9499L13.6648 12.0001L18.6146 7.05037C19.0051 6.65984 19.0051 6.02668 18.6146 5.63616C18.224 5.24563 17.5909 5.24563 17.2004 5.63616L12.2506 10.5859L7.30086 5.63616Z" fill="black"/>
</svg>
