<svg width="25" height="24" viewBox="0 0 25 24" fill="none" xmlns="http://www.w3.org/2000/svg">
<path fill-rule="evenodd" clip-rule="evenodd" d="M15.1693 2.18966C14.865 1.96956 14.4629 1.9386 14.1284 2.10951C13.7939 2.28042 13.5834 2.62437 13.5834 3V14.7366C12.829 14.4506 11.8187 14.2323 10.4983 14.2323C8.96057 14.2323 7.84253 14.5284 7.05885 14.8837C5.66369 15.5162 5.50368 17.0686 6.03744 18.1328C6.38883 18.8334 6.92095 19.7545 7.61429 20.5146C8.28992 21.2553 9.26411 22 10.4983 22C13.6483 22 15.5834 19.1506 15.5834 16.514V10.1566C16.8831 9.95183 17.8485 9.35192 18.5214 8.59749C19.3266 7.69467 19.6724 6.61882 19.7453 5.85993C19.7846 5.45 19.5687 5.05786 19.2012 4.872C18.3736 4.45346 16.2018 2.93625 15.1693 2.18966ZM13.2411 16.7669C13.3702 16.8317 13.4753 16.8945 13.5586 16.9502C13.3689 18.6132 12.1117 20 10.4983 20C10.1013 20 9.62534 19.7515 9.09192 19.1668C8.57622 18.6014 8.14044 17.8647 7.82518 17.2361C7.74217 17.0706 7.74007 16.9285 7.76121 16.8467C7.77119 16.808 7.78579 16.7827 7.80007 16.7654C7.81343 16.7492 7.83716 16.7268 7.8847 16.7052C8.38982 16.4762 9.22364 16.2323 10.4983 16.2323C11.886 16.2323 12.752 16.5213 13.2411 16.7669ZM17.0288 7.26626C16.7123 7.62112 16.2554 7.95119 15.5834 8.11826V4.92919C16.2726 5.40438 17.0179 5.90293 17.6145 6.26722C17.5004 6.58931 17.3128 6.94779 17.0288 7.26626Z" fill="black"/>
</svg>
