<svg width="25" height="24" viewBox="0 0 25 24" fill="none" xmlns="http://www.w3.org/2000/svg">
<path fill-rule="evenodd" clip-rule="evenodd" d="M15.1294 2.10951C15.4639 1.9386 15.866 1.96956 16.1704 2.18966C17.2028 2.93625 19.3746 4.45346 20.2022 4.872C20.5697 5.05786 20.7856 5.45 20.7463 5.85993C20.6734 6.61882 20.3276 7.69467 19.5224 8.59749C18.8495 9.35192 17.8841 9.95183 16.5844 10.1566V16.514C16.5844 19.1506 14.6493 22 11.4993 22C10.2651 22 9.29092 21.2553 8.6153 20.5146C7.92196 19.7545 7.38983 18.8334 7.03844 18.1328C6.50468 17.0686 6.66469 15.5162 8.05985 14.8837C8.84353 14.5284 9.96157 14.2323 11.4993 14.2323C12.8197 14.2323 13.83 14.4506 14.5844 14.7366V3C14.5844 2.62437 14.7949 2.28042 15.1294 2.10951ZM14.5596 16.9502C14.4763 16.8945 14.3712 16.8317 14.2421 16.7669C13.753 16.5213 12.887 16.2323 11.4993 16.2323C10.2246 16.2323 9.39082 16.4762 8.8857 16.7052C8.83816 16.7268 8.81443 16.7492 8.80108 16.7654C8.7868 16.7827 8.7722 16.808 8.76222 16.8467C8.74108 16.9285 8.74317 17.0706 8.82618 17.2361C9.14144 17.8647 9.57722 18.6014 10.0929 19.1668C10.6263 19.7515 11.1023 20 11.4993 20C13.1127 20 14.3699 18.6132 14.5596 16.9502ZM16.5844 8.11826C17.2564 7.95119 17.7133 7.62112 18.0298 7.26626C18.3138 6.94779 18.5014 6.58931 18.6155 6.26722C18.0189 5.90293 17.2736 5.40438 16.5844 4.92919V8.11826Z" fill="black"/>
<path d="M5.34377 5.6308C5.82485 5.79116 6.20236 6.16866 6.36272 6.64974C6.52592 7.13936 7.21846 7.13936 7.38166 6.64974C7.54203 6.16866 7.91953 5.79116 8.40061 5.6308C8.89022 5.46759 8.89022 4.77505 8.40061 4.61185C7.91953 4.45149 7.54203 4.07399 7.38166 3.5929C7.21846 3.10329 6.52592 3.10329 6.36272 3.5929C6.20236 4.07399 5.82485 4.45149 5.34377 4.61185C4.85416 4.77505 4.85416 5.46759 5.34377 5.6308Z" fill="black"/>
<path d="M9.34377 10.6308C9.82485 10.7912 10.2024 11.1687 10.3627 11.6497C10.5259 12.1394 11.2185 12.1394 11.3817 11.6497C11.542 11.1687 11.9195 10.7912 12.4006 10.6308C12.8902 10.4676 12.8902 9.77505 12.4006 9.61185C11.9195 9.45149 11.542 9.07399 11.3817 8.5929C11.2185 8.10329 10.5259 8.10329 10.3627 8.5929C10.2024 9.07399 9.82485 9.45149 9.34377 9.61185C8.85416 9.77505 8.85416 10.4676 9.34377 10.6308Z" fill="black"/>
</svg>
