<svg width="25" height="24" viewBox="0 0 25 24" fill="none" xmlns="http://www.w3.org/2000/svg">
<path fill-rule="evenodd" clip-rule="evenodd" d="M13.1871 3.04819C11.3481 2.7215 9.60425 4.10126 9.60425 5.99632V13.9659C8.95082 13.7433 8.10474 13.5815 7.02981 13.5815C5.66945 13.5815 4.67479 13.8406 3.97256 14.1553C2.66841 14.7399 2.52219 16.1801 3.01688 17.1552C3.32698 17.7665 3.79923 18.5757 4.41779 19.2461C5.01955 19.8983 5.90214 20.5709 7.02981 20.5709C9.86359 20.5709 11.6042 18.0356 11.6042 15.6903V8.29428L20.6183 9.92193L20.4153 14.4116C19.7569 14.181 18.8959 14.0107 17.7928 14.0107C16.4325 14.0107 15.4378 14.2697 14.7356 14.5844C13.4314 15.169 13.2852 16.6092 13.7799 17.5843C14.09 18.1956 14.5623 19.0048 15.1808 19.6752C15.7826 20.3274 16.6652 21 17.7928 21C20.2858 21 21.9418 19.0186 22.2934 16.9775C22.3201 16.8225 22.3299 16.6645 22.3226 16.507L22.6554 9.14514L22.6558 9.13845L22.7459 7.40366C22.825 5.88082 21.7367 4.56706 20.2476 4.30251L13.1871 3.04819ZM9.37778 16.0317C9.45222 16.0686 9.51684 16.1047 9.5723 16.1383C9.38014 17.4781 8.34215 18.5709 7.02981 18.5709C6.73018 18.5709 6.34387 18.3843 5.88771 17.8899C5.44836 17.4137 5.07369 16.7889 4.80048 16.2503C4.74147 16.134 4.74663 16.0472 4.75517 16.0145C4.75541 16.0136 4.75566 16.0127 4.7559 16.0118C4.75762 16.0059 4.75924 16.0023 4.76013 16.0005C4.76107 15.9987 4.76161 15.998 4.76172 15.9979C4.7618 15.9978 4.76286 15.9965 4.76599 15.9941C4.76923 15.9917 4.77673 15.9866 4.7906 15.9804C5.21607 15.7897 5.92929 15.5815 7.02981 15.5815C8.22778 15.5815 8.96763 15.8281 9.37778 16.0317ZM20.717 7.90741L11.6042 6.26194V5.99632C11.6042 5.40109 12.1686 4.89857 12.8372 5.01736L19.8978 6.27168C20.4283 6.36593 20.7735 6.81964 20.7486 7.29992L20.717 7.90741ZM20.3147 16.5558C20.3148 16.556 20.3162 16.5575 20.318 16.5618L20.312 16.6957C20.0638 17.9979 19.0614 19 17.7928 19C17.4932 19 17.1069 18.8134 16.6507 18.319C16.2114 17.8428 15.8367 17.218 15.5635 16.6795C15.5045 16.5632 15.5097 16.4763 15.5182 16.4436C15.5184 16.4427 15.5187 16.4418 15.5189 16.4409C15.5207 16.435 15.5223 16.4314 15.5232 16.4296C15.5237 16.4286 15.5241 16.428 15.5243 16.4276M20.3147 16.5558L20.3137 16.5549ZM20.3137 16.5549C20.3131 16.5544 20.3117 16.5533 20.3091 16.5517ZM20.3091 16.5517C19.9441 16.3366 19.1704 16.0107 17.7928 16.0107ZM17.7928 16.0107C16.6923 16.0107 15.9791 16.2188 15.5536 16.4095ZM15.5536 16.4095C15.5398 16.4157 15.5323 16.4208 15.529 16.4233ZM15.529 16.4233L15.5258 16.4259ZM15.5258 16.4259L15.5243 16.4276Z" fill="black"/>
</svg>
