<svg width="25" height="24" viewBox="0 0 25 24" fill="none" xmlns="http://www.w3.org/2000/svg">
<path fill-rule="evenodd" clip-rule="evenodd" d="M19.0836 5C19.0836 4.44772 18.6358 4 18.0836 4C17.5313 4 17.0836 4.44772 17.0836 5V9.28571H12.1425L9.16496 4.81934C8.34172 3.58448 6.41688 4.16728 6.41688 5.65139V9.28571H4.75C4.19772 9.28571 3.75 9.73343 3.75 10.2857C3.75 10.838 4.19772 11.2857 4.75 11.2857H6.41688V12.7143H4.75C4.19772 12.7143 3.75 13.162 3.75 13.7143C3.75 14.2666 4.19772 14.7143 4.75 14.7143H6.41688V19C6.41688 19.5523 6.8646 20 7.41688 20C7.96917 20 8.41688 19.5523 8.41688 19V14.7143H13.3579L16.3355 19.1807C17.1587 20.4155 19.0836 19.8327 19.0836 18.3486V14.7143H20.75C21.3023 14.7143 21.75 14.2666 21.75 13.7143C21.75 13.162 21.3023 12.7143 20.75 12.7143H19.0836V11.2857H20.75C21.3023 11.2857 21.75 10.838 21.75 10.2857C21.75 9.73343 21.3023 9.28571 20.75 9.28571H19.0836V5ZM14.4283 12.7143L13.4759 11.2857H17.0836V12.7143H14.4283ZM17.0836 16.6972L15.7616 14.7143H17.0836V16.6972ZM11.0722 11.2857L12.0246 12.7143H8.41688V11.2857H11.0722ZM8.41688 7.30278L9.73884 9.28571H8.41688V7.30278Z" fill="black"/>
</svg>
