<svg width="25" height="24" viewBox="0 0 25 24" fill="none" xmlns="http://www.w3.org/2000/svg">
<path fill-rule="evenodd" clip-rule="evenodd" d="M11.7942 5.45009C11.971 5.057 12.5292 5.057 12.7061 5.45009L18.9806 19.3936C19.157 19.7854 18.7895 20.2025 18.3786 20.0769L12.9807 18.4276C12.5045 18.2821 11.9957 18.2821 11.5196 18.4276L6.12166 20.0769C5.7107 20.2025 5.34325 19.7854 5.51959 19.3936L11.7942 5.45009ZM14.5299 4.62936C13.6455 2.66391 10.8548 2.66391 9.97031 4.62936L3.69575 18.5728C2.81405 20.5322 4.65131 22.6175 6.70609 21.9896L12.104 20.3403C12.1992 20.3112 12.301 20.3112 12.3962 20.3403L17.7941 21.9896C19.8489 22.6175 21.6862 20.5322 20.8045 18.5728L14.5299 4.62936Z" fill="black"/>
</svg>
