<svg width="25" height="24" viewBox="0 0 25 24" fill="none" xmlns="http://www.w3.org/2000/svg">
<path fill-rule="evenodd" clip-rule="evenodd" d="M21.509 5.83528C22.2733 3.8201 20.3 1.84677 18.2848 2.61115L3.98852 8.03389C1.97961 8.79589 1.8042 11.5696 3.70112 12.5786L8.68429 15.2292C8.77221 15.276 8.84416 15.3479 8.89092 15.4358L11.5415 20.419C12.5505 22.3159 15.3242 22.1405 16.0862 20.1316L21.509 5.83528ZM18.9941 4.48115C19.3972 4.32827 19.7918 4.72293 19.639 5.12597L14.2162 19.4223C14.0638 19.8241 13.5091 19.8592 13.3073 19.4798L10.6567 14.4966C10.4228 14.057 10.0631 13.6973 9.62352 13.4634L4.64034 10.8128C4.26096 10.611 4.29604 10.0563 4.69782 9.90389L18.9941 4.48115Z" fill="black"/>
</svg>
