<svg width="25" height="24" viewBox="0 0 25 24" fill="none" xmlns="http://www.w3.org/2000/svg">
<path d="M6.25 16C5.69772 16 5.25 16.4477 5.25 17C5.25 17.5523 5.69772 18 6.25 18H14.25C14.8023 18 15.25 17.5523 15.25 17C15.25 16.4477 14.8023 16 14.25 16H6.25Z" fill="black"/>
<path d="M5.25 14C5.25 13.4477 5.69772 13 6.25 13H14.25C14.8023 13 15.25 13.4477 15.25 14C15.25 14.5523 14.8023 15 14.25 15H6.25C5.69772 15 5.25 14.5523 5.25 14Z" fill="black"/>
<path d="M13.25 10C12.6977 10 12.25 10.4477 12.25 11C12.25 11.5523 12.6977 12 13.25 12H14.25C14.8023 12 15.25 11.5523 15.25 11C15.25 10.4477 14.8023 10 14.25 10H13.25Z" fill="black"/>
<path d="M12.25 8C12.25 7.44772 12.6977 7 13.25 7H14.25C14.8023 7 15.25 7.44772 15.25 8C15.25 8.55228 14.8023 9 14.25 9H13.25C12.6977 9 12.25 8.55228 12.25 8Z" fill="black"/>
<path fill-rule="evenodd" clip-rule="evenodd" d="M7.25 6C6.14543 6 5.25 6.89543 5.25 8V10C5.25 11.1046 6.14543 12 7.25 12H9.25C10.3546 12 11.25 11.1046 11.25 10V8C11.25 6.89543 10.3546 6 9.25 6H7.25ZM7.25 8H9.25V10H7.25V8Z" fill="black"/>
<path fill-rule="evenodd" clip-rule="evenodd" d="M5.25 2C3.59315 2 2.25 3.34315 2.25 5V19C2.25 20.6569 3.59315 22 5.25 22H20.25C21.9069 22 23.25 20.6569 23.25 19V17C23.25 15.3431 21.9069 14 20.25 14H18.25V5C18.25 3.34315 16.9069 2 15.25 2H5.25ZM20.25 20H18.25V16H20.25C20.8023 16 21.25 16.4477 21.25 17V19C21.25 19.5523 20.8023 20 20.25 20ZM16.25 20H5.25C4.69772 20 4.25 19.5523 4.25 19V5C4.25 4.44772 4.69772 4 5.25 4H15.25C15.8023 4 16.25 4.44772 16.25 5V20Z" fill="black"/>
</svg>
