<svg width="25" height="24" viewBox="0 0 25 24" fill="none" xmlns="http://www.w3.org/2000/svg">
<path fill-rule="evenodd" clip-rule="evenodd" d="M22.75 6.5C22.75 5.94772 22.3023 5.5 21.75 5.5C21.1977 5.5 20.75 5.94772 20.75 6.5V9.35854L15.5955 6.78251C13.8294 5.89987 11.75 7.18314 11.75 9.15863V9.35854L6.59548 6.78251C4.82936 5.89987 2.75 7.18314 2.75 9.15863V14.8414C2.75 16.8169 4.82936 18.1001 6.59548 17.2175L11.75 14.6415V14.8414C11.75 16.8169 13.8294 18.1001 15.5955 17.2175L20.75 14.6415V17.5C20.75 18.0523 21.1977 18.5 21.75 18.5C22.3023 18.5 22.75 18.0523 22.75 17.5V6.5ZM11.75 12.0009V11.9991C11.7497 11.7664 11.6287 11.5338 11.3868 11.4129L5.70139 8.57153C5.26366 8.35277 4.75 8.6713 4.75 9.15863V14.8414C4.75 15.3287 5.26366 15.6472 5.70139 15.4285L11.3868 12.5871C11.6287 12.4662 11.7497 12.2336 11.75 12.0009ZM13.75 14.8414C13.75 15.3287 14.2637 15.6472 14.7014 15.4285L20.3868 12.5871C20.8711 12.3451 20.8711 11.6549 20.3868 11.4129L14.7014 8.57153C14.2637 8.35277 13.75 8.6713 13.75 9.15863V14.8414Z" fill="black"/>
</svg>
