<svg width="25" height="24" viewBox="0 0 25 24" fill="none" xmlns="http://www.w3.org/2000/svg">
<path fill-rule="evenodd" clip-rule="evenodd" d="M12.7492 6.5C10.5401 6.5 8.74919 8.29086 8.74919 10.5C8.74919 12.7091 10.5401 14.5 12.7492 14.5C14.9583 14.5 16.7492 12.7091 16.7492 10.5C16.7492 8.29086 14.9583 6.5 12.7492 6.5ZM10.7492 10.5C10.7492 9.39543 11.6446 8.5 12.7492 8.5C13.8538 8.5 14.7492 9.39543 14.7492 10.5C14.7492 11.6046 13.8538 12.5 12.7492 12.5C11.6446 12.5 10.7492 11.6046 10.7492 10.5Z" fill="black"/>
<path fill-rule="evenodd" clip-rule="evenodd" d="M8.926 2C7.8365 2 6.83263 2.59068 6.30353 3.54307L2.41464 10.5431C1.91127 11.4491 1.91127 12.5509 2.41464 13.4569L6.30353 20.4569C6.83264 21.4093 7.8365 22 8.926 22H16.5724C17.6619 22 18.6657 21.4093 19.1949 20.4569L23.0837 13.4569C23.5871 12.5509 23.5871 11.4491 23.0837 10.5431L19.1949 3.54307C18.6657 2.59068 17.6619 2 16.5724 2H8.926ZM8.05184 4.51436C8.22821 4.19689 8.56283 4 8.926 4H16.5724C16.9356 4 17.2702 4.19689 17.4465 4.51436L21.3354 11.5144C21.5032 11.8164 21.5032 12.1836 21.3354 12.4856L18.7714 17.1009C18.395 16.8823 17.9218 16.6212 17.3909 16.3591C16.1105 15.7271 14.3379 15.0092 12.755 15C11.2805 14.9914 9.64835 15.5946 8.39859 16.175C7.74607 16.478 7.15974 16.7932 6.70158 17.0552L4.16295 12.4856C3.99516 12.1836 3.99516 11.8164 4.16295 11.5144L8.05184 4.51436ZM16.5057 18.1526C17.0046 18.3988 17.4498 18.6454 17.7999 18.8496L17.4465 19.4856C17.2702 19.8031 16.9356 20 16.5724 20H8.926C8.56283 20 8.22821 19.8031 8.05184 19.4856L7.67295 18.8036C8.09314 18.5627 8.63683 18.2695 9.24093 17.9889C10.4382 17.4329 11.7333 16.9941 12.7434 17C13.8397 17.0064 15.2615 17.5385 16.5057 18.1526Z" fill="black"/>
</svg>
