<svg width="25" height="24" viewBox="0 0 25 24" fill="none" xmlns="http://www.w3.org/2000/svg">
<path fill-rule="evenodd" clip-rule="evenodd" d="M8.926 4C8.56283 4 8.22821 4.19689 8.05184 4.51436L4.16295 11.5144C3.99516 11.8164 3.99516 12.1836 4.16295 12.4856L6.63031 16.9269L9.08471 13.4179C9.97088 12.151 11.6748 11.765 13.0204 12.5264L13.0372 12.5359L13.3285 12.7159L13.8088 12.0298C14.7437 10.6942 16.5741 10.3497 17.9306 11.254L17.9355 11.2573L20.2894 12.8468C20.5036 12.9915 20.6936 13.1594 20.858 13.3451L21.3354 12.4857C21.5032 12.1836 21.5032 11.8164 21.3354 11.5144L21.1642 11.2061C20.8959 10.7233 21.0699 10.1145 21.5527 9.84631C22.0354 9.57809 22.6442 9.75202 22.9125 10.2348L23.0837 10.5431C23.5871 11.4491 23.5871 12.5509 23.0837 13.4569L21.2657 16.7293C21.2551 16.7496 21.2441 16.7698 21.2329 16.79L19.1949 20.4585C18.6945 21.3592 17.7696 21.9363 16.7492 21.9964V22.0016H8.6503V21.9889C7.66929 21.8986 6.78767 21.33 6.30353 20.4585L6.12672 20.1403C6.11546 20.12 6.10421 20.0993 6.09302 20.078L2.41464 13.4569C1.91127 12.5509 1.91127 11.4491 2.41464 10.5431L6.30353 3.54307C6.83263 2.59068 7.8365 2 8.926 2H16.966C17.8247 2 18.6098 2.4852 18.9939 3.25332C19.2409 3.7473 19.0407 4.34798 18.5467 4.59497C18.0527 4.84195 17.452 4.64173 17.205 4.14775C17.1598 4.0572 17.0672 4 16.966 4H8.926ZM12.532 20C11.7589 19.9574 11.3186 19.0748 11.7713 18.4281L15.4473 13.1767C15.7584 12.7322 16.3672 12.617 16.8191 12.9167L16.8212 12.9181L19.1701 14.5043C19.5889 14.7871 19.7293 15.3362 19.5033 15.7835L17.4465 19.4856C17.2702 19.8031 16.9356 20 16.5724 20H12.532ZM9.76078 20H8.926C8.56283 20 8.22821 19.8031 8.05184 19.4856L7.8543 19.1301C7.81923 19.0612 7.79984 19.0057 7.79072 18.9651C7.78295 18.9305 7.78416 18.9141 7.78463 18.9106C7.82136 18.75 7.8749 18.6369 7.9119 18.584L10.7236 14.5642C11.0159 14.1463 11.5752 14.016 12.0214 14.2593L12.1797 14.3571L10.1328 17.2812C9.53019 18.1421 9.45514 19.1424 9.76078 20Z" fill="black"/>
<path d="M7.95104 9.81722C7.79068 9.33614 7.41317 8.95863 6.93209 8.79827C6.44248 8.63507 6.44248 7.94253 6.93209 7.77933C7.41317 7.61897 7.79068 7.24146 7.95104 6.76038C8.11424 6.27077 8.80678 6.27077 8.96998 6.76038C9.13034 7.24146 9.50785 7.61897 9.98893 7.77933C10.4785 7.94253 10.4785 8.63507 9.98893 8.79827C9.50785 8.95863 9.13034 9.33614 8.96998 9.81722C8.80678 10.3068 8.11424 10.3068 7.95104 9.81722Z" fill="black"/>
<path d="M18.7492 6C18.1969 6 17.7492 6.44772 17.7492 7C17.7492 7.55228 18.1969 8 18.7492 8H22.7492C23.3015 8 23.7492 7.55228 23.7492 7C23.7492 6.44772 23.3015 6 22.7492 6H18.7492Z" fill="black"/>
</svg>
