<svg width="25" height="24" viewBox="0 0 25 24" fill="none" xmlns="http://www.w3.org/2000/svg">
<path d="M8.05184 4.51436C8.22821 4.19689 8.56283 4 8.926 4H16.966C17.5183 4 17.966 3.55228 17.966 3C17.966 2.44772 17.5183 2 16.966 2H8.926C7.8365 2 6.83263 2.59068 6.30353 3.54307L2.41464 10.5431C1.91127 11.4491 1.91127 12.5509 2.41464 13.4569L6.30353 20.4569C6.78766 21.3284 7.66929 21.897 8.6503 21.9873V22H16.7492V21.9948C17.7696 21.9347 18.6945 21.3576 19.1949 20.4569L23.0837 13.4569C23.5871 12.5509 23.5871 11.4491 23.0837 10.543L22.9125 10.2348C22.6442 9.75202 22.0354 9.57809 21.5527 9.84631C21.0699 10.1145 20.8959 10.7233 21.1642 11.2061L21.3354 11.5144C21.5032 11.8164 21.5032 12.1836 21.3354 12.4857L20.3255 14.3035C20.1795 14.0599 19.9793 13.8441 19.7297 13.6756L17.3759 12.0861C16.4716 11.4832 15.2513 11.7129 14.628 12.6033L13.6061 14.0631L12.5279 13.3967C11.6309 12.8891 10.4949 13.1464 9.90415 13.9911L7.17051 17.8993L4.16295 12.4856C3.99516 12.1836 3.99516 11.8164 4.16295 11.5144L8.05184 4.51436Z" fill="black"/>
<path d="M6.9322 8.79827C7.41328 8.95863 7.79078 9.33614 7.95114 9.81722C8.11435 10.3068 8.80689 10.3068 8.97009 9.81722C9.13045 9.33614 9.50796 8.95863 9.98904 8.79827C10.4786 8.63507 10.4786 7.94253 9.98904 7.77933C9.50796 7.61897 9.13045 7.24146 8.97009 6.76038C8.80689 6.27077 8.11435 6.27077 7.95114 6.76038C7.79078 7.24146 7.41328 7.61897 6.9322 7.77933C6.44259 7.94253 6.44259 8.63507 6.9322 8.79827Z" fill="black"/>
<path d="M21.7492 4C21.7492 3.44772 21.3015 3 20.7492 3C20.1969 3 19.7492 3.44772 19.7492 4V5H18.7492C18.1969 5 17.7492 5.44772 17.7492 6C17.7492 6.55228 18.1969 7 18.7492 7H19.7492V8C19.7492 8.55228 20.1969 9 20.7492 9C21.3015 9 21.7492 8.55228 21.7492 8V7H22.7492C23.3015 7 23.7492 6.55228 23.7492 6C23.7492 5.44772 23.3015 5 22.7492 5H21.7492V4Z" fill="black"/>
</svg>
