<svg width="25" height="24" viewBox="0 0 25 24" fill="none" xmlns="http://www.w3.org/2000/svg">
<path d="M6.93207 8.79827C7.41316 8.95863 7.79066 9.33614 7.95102 9.81722C8.11422 10.3068 8.80677 10.3068 8.96997 9.81722C9.13033 9.33614 9.50783 8.95863 9.98892 8.79827C10.4785 8.63507 10.4785 7.94253 9.98892 7.77933C9.50783 7.61897 9.13033 7.24146 8.96997 6.76038C8.80677 6.27077 8.11422 6.27077 7.95102 6.76038C7.79066 7.24146 7.41316 7.61897 6.93207 7.77933C6.44246 7.94253 6.44246 8.63507 6.93207 8.79827Z" fill="black"/>
<path fill-rule="evenodd" clip-rule="evenodd" d="M19.1949 20.4569C18.6945 21.3576 17.7696 21.9347 16.7492 21.9948V22H8.6503V21.9873C7.66929 21.897 6.78766 21.3284 6.30353 20.4569L2.41464 13.4569C1.91127 12.5509 1.91127 11.4491 2.41464 10.5431L6.30353 3.54307C6.83263 2.59068 7.8365 2 8.926 2H16.5724C17.6619 2 18.6657 2.59068 19.1949 3.54307L23.0837 10.5431C23.5871 11.4491 23.5871 12.5509 23.0837 13.4569L19.1949 20.4569ZM8.05184 4.51436C8.22821 4.19689 8.56283 4 8.926 4H16.5724C16.9356 4 17.2702 4.19689 17.4465 4.51436L21.3354 11.5144C21.5032 11.8164 21.5032 12.1836 21.3354 12.4856L20.9048 13.2608L17.9355 11.2557L17.9306 11.2524C16.5741 10.3481 14.7437 10.6926 13.8088 12.0282L13.3285 12.7143L13.0372 12.5343L13.0204 12.5248C11.6748 11.7634 9.97088 12.1494 9.08471 13.4163L6.62981 16.926L4.16295 12.4856C3.99516 12.1836 3.99516 11.8164 4.16295 11.5144L8.05184 4.51436ZM16.8212 12.9165L19.9298 15.0157L17.4465 19.4856C17.2702 19.8031 16.9356 20 16.5724 20H12.5905C11.7815 20 11.3073 19.0893 11.7713 18.4265L15.4473 13.1751C15.7584 12.7306 16.3672 12.6154 16.8192 12.9152L16.8212 12.9165ZM10.1328 17.2796C9.52982 18.141 9.45505 19.142 9.76135 20H8.926C8.56283 20 8.22821 19.8031 8.05184 19.4856L7.77023 18.9787C7.79998 18.8137 7.85687 18.6611 7.9119 18.5824L10.7236 14.5626C11.0159 14.1447 11.5752 14.0144 12.0214 14.2577L12.1797 14.3555L10.1328 17.2796Z" fill="black"/>
</svg>
