<svg width="25" height="24" viewBox="0 0 25 24" fill="none" xmlns="http://www.w3.org/2000/svg">
<path fill-rule="evenodd" clip-rule="evenodd" d="M4.09127 7.28998C2.77519 8.04982 2.75391 9.94192 4.05257 10.7312L4.64631 11.092C4.9333 11.2664 5.17175 11.5103 5.33967 11.8011L9.57419 19.1355C10.6788 21.0487 13.1251 21.7042 15.0383 20.5996L20.6558 17.3564C22.5689 16.2518 23.2244 13.8054 22.1199 11.8923L16.6199 2.366C16.0676 1.40941 14.8444 1.08166 13.8878 1.63394L4.09127 7.28998ZM5.09126 9.02203L14.8878 3.366L20.3878 12.8923C20.9401 13.8489 20.6123 15.072 19.6558 15.6243L14.0383 18.8676C13.0817 19.4199 11.8585 19.0921 11.3062 18.1355L7.07172 10.8011C6.73588 10.2194 6.25898 9.73169 5.685 9.38286L5.09126 9.02203Z" fill="black"/>
<path fill-rule="evenodd" clip-rule="evenodd" d="M6.44204 16.4151C6.71885 17.2455 6.50272 18.1611 5.88375 18.78C4.98123 19.6825 3.51795 19.6825 2.61543 18.78C1.99646 18.1611 1.78032 17.2455 2.05713 16.4151L2.82656 14.1068C3.28241 12.7392 5.21676 12.7392 5.67261 14.1068L6.44204 16.4151ZM3.9545 17.0475L4.24959 16.1622L4.54467 17.0475C4.58193 17.1593 4.55284 17.2825 4.46953 17.3658C4.34806 17.4873 4.15112 17.4873 4.02964 17.3658C3.94633 17.2825 3.91724 17.1593 3.9545 17.0475Z" fill="black"/>
</svg>
