<svg width="25" height="24" viewBox="0 0 25 24" fill="none" xmlns="http://www.w3.org/2000/svg">
<path d="M16.7502 11C17.5786 11 18.2502 10.3284 18.2502 9.50001C18.2502 8.67159 17.5786 8.00001 16.7502 8.00001C15.9218 8.00001 15.2502 8.67159 15.2502 9.50001C15.2502 10.3284 15.9218 11 16.7502 11Z" fill="black"/>
<path d="M11.2502 8.50001C11.2502 9.32844 10.5786 10 9.75019 10C8.92177 10 8.25019 9.32844 8.25019 8.50001C8.25019 7.67159 8.92177 7.00001 9.75019 7.00001C10.5786 7.00001 11.2502 7.67159 11.2502 8.50001Z" fill="black"/>
<path d="M7.75019 16C8.57862 16 9.25019 15.3284 9.25019 14.5C9.25019 13.6716 8.57862 13 7.75019 13C6.92177 13 6.25019 13.6716 6.25019 14.5C6.25019 15.3284 6.92177 16 7.75019 16Z" fill="black"/>
<path fill-rule="evenodd" clip-rule="evenodd" d="M19.7495 18.5C21.5398 18.5 22.6256 17.0092 23.1166 15.4676C23.6266 13.866 23.6644 11.8139 23.1565 9.81615C22.6461 7.80831 21.5651 5.77985 19.754 4.28375C17.9286 2.77586 15.4305 1.86663 12.208 2.0009C8.7587 2.14462 6.16663 3.18005 4.369 4.79937C2.57203 6.4181 1.65168 8.54638 1.4149 10.7211C0.951358 14.9783 3.10378 19.6786 6.81658 21.4015C7.5054 21.7435 8.4292 22.025 9.3558 22.2021C10.2884 22.3803 11.3104 22.4696 12.1862 22.3718C12.6231 22.323 13.0759 22.2222 13.475 22.0248C13.8809 21.8241 14.2884 21.4922 14.4979 20.9682C14.7076 20.4436 14.6519 19.8935 14.4671 19.3913C14.2853 18.8972 13.9585 18.3878 13.5185 17.8598C13.0737 17.326 13.0959 17.0802 13.1009 17.0472C13.1061 17.0128 13.1422 16.887 13.4274 16.7009C13.4658 16.6758 13.5431 16.6393 13.7469 16.6693C13.9684 16.7019 14.255 16.8022 14.6223 16.9761C14.8924 17.104 15.1574 17.2469 15.4435 17.4012C15.5489 17.4581 15.6572 17.5165 15.7696 17.5763C16.158 17.7827 16.6029 18.0088 17.0382 18.1481C17.7443 18.374 18.633 18.5 19.7495 18.5ZM12.2912 3.99917C15.069 3.88343 17.0711 4.66169 18.4802 5.82568C19.9035 7.00146 20.7912 8.62924 21.2182 10.3089C21.6477 11.9986 21.5916 13.6653 21.2109 14.8606C20.8111 16.1159 20.2093 16.5 19.7495 16.5C18.7738 16.5 18.1024 16.3887 17.6477 16.2432C17.401 16.1642 17.097 16.0168 16.7082 15.8102C16.6208 15.7637 16.5282 15.7138 16.4321 15.6619C16.1333 15.5007 15.8 15.3208 15.478 15.1684C15.0503 14.966 14.5522 14.7662 14.0378 14.6906C13.5056 14.6123 12.8958 14.6596 12.3344 15.0259C11.8154 15.3646 11.2505 15.9144 11.1238 16.7457C10.9968 17.5785 11.3558 18.3886 11.9821 19.1402C12.3424 19.5725 12.5167 19.8823 12.5902 20.082C12.6116 20.1402 12.6222 20.1824 12.6274 20.2111C12.617 20.2172 12.6042 20.2243 12.5884 20.2321C12.4717 20.2898 12.2692 20.3501 11.9642 20.3841C11.3564 20.452 10.549 20.394 9.73129 20.2377C8.91401 20.0814 8.17318 19.8438 7.69693 19.6056L7.68294 19.5986L7.66874 19.5921C4.89013 18.3097 3.01104 14.5388 3.40315 10.9376C3.59447 9.18038 4.32567 7.53021 5.70759 6.28536C7.08886 5.0411 9.20302 4.12784 12.2912 3.99917ZM12.6659 20.1837L12.665 20.1844L12.6632 20.1864L12.6659 20.1837C12.6659 20.1836 12.6659 20.1837 12.6659 20.1837Z" fill="black"/>
</svg>
