<svg width="25" height="24" viewBox="0 0 25 24" fill="none" xmlns="http://www.w3.org/2000/svg">
<path d="M15.6394 7.40388C16.4205 6.62283 17.6868 6.62283 18.4679 7.40388C19.2489 8.18493 19.2489 9.45126 18.4679 10.2323L11.0432 17.6569C9.6764 19.0238 7.46032 19.0238 6.09349 17.6569C4.72665 16.2901 4.72665 14.074 6.09349 12.7072L13.412 5.38863C13.8026 4.9981 13.8026 4.36494 13.412 3.97441C13.0215 3.58389 12.3884 3.58389 11.9978 3.97441L4.67927 11.293C2.53139 13.4409 2.53139 16.9233 4.67927 19.0711C6.82716 21.219 10.3096 21.219 12.4574 19.0711L19.8821 11.6465C21.4442 10.0844 21.4442 7.55176 19.8821 5.98967C18.32 4.42757 15.7873 4.42757 14.2252 5.98967L6.58846 13.6264C5.61215 14.6027 5.61215 16.1856 6.58846 17.162C7.56477 18.1383 9.14768 18.1383 10.124 17.162L17.6547 9.63127C18.0452 9.24074 18.0452 8.60758 17.6547 8.21705C17.2642 7.82653 16.631 7.82653 16.2405 8.21705L8.70978 15.7477C8.51452 15.943 8.19794 15.943 8.00267 15.7477C7.80741 15.5525 7.80741 15.2359 8.00267 15.0406L15.6394 7.40388Z" fill="black"/>
</svg>
