<svg width="25" height="24" viewBox="0 0 25 24" fill="none" xmlns="http://www.w3.org/2000/svg">
<path fill-rule="evenodd" clip-rule="evenodd" d="M5.75 3C3.54086 3 1.75 4.79086 1.75 7V17C1.75 19.2091 3.54086 21 5.75 21H7.75C9.95914 21 11.75 19.2091 11.75 17V7C11.75 4.79086 9.95914 3 7.75 3H5.75ZM3.75 7C3.75 5.89543 4.64543 5 5.75 5H7.75C8.85457 5 9.75 5.89543 9.75 7V17C9.75 18.1046 8.85457 19 7.75 19H5.75C4.64543 19 3.75 18.1046 3.75 17V7Z" fill="black"/>
<path fill-rule="evenodd" clip-rule="evenodd" d="M16.75 3C14.5409 3 12.75 4.79086 12.75 7V17C12.75 19.2091 14.5409 21 16.75 21H18.75C20.9591 21 22.75 19.2091 22.75 17V7C22.75 4.79086 20.9591 3 18.75 3H16.75ZM14.75 7C14.75 5.89543 15.6454 5 16.75 5H18.75C19.8546 5 20.75 5.89543 20.75 7V17C20.75 18.1046 19.8546 19 18.75 19H16.75C15.6454 19 14.75 18.1046 14.75 17V7Z" fill="black"/>
</svg>
