<svg width="25" height="24" viewBox="0 0 25 24" fill="none" xmlns="http://www.w3.org/2000/svg">
<path fill-rule="evenodd" clip-rule="evenodd" d="M1.5 7.39991C1.5 5.19077 3.29086 3.3999 5.5 3.3999H15.5C17.7091 3.3999 19.5 5.19076 19.5 7.3999V11C19.5 11.1003 19.4852 11.1972 19.4577 11.2885C20.3236 11.7291 20.9167 12.6286 20.9167 13.6667V14.0245C21.705 14.399 22.25 15.2025 22.25 16.1333V18C22.25 19.1046 21.3546 20 20.25 20H16.25C15.2129 20 14.3601 19.2106 14.2599 18.1999C14.2566 18.1999 14.2533 18.1999 14.25 18.1999H11.5V18.6H12.75C13.3023 18.6 13.75 19.0477 13.75 19.6C13.75 20.1522 13.3023 20.6 12.75 20.6H8.25C7.69772 20.6 7.25 20.1522 7.25 19.6C7.25 19.0477 7.69772 18.6 8.25 18.6H9.50005V18.1999H5.5C3.29086 18.1999 1.5 16.409 1.5 14.1999V7.39991ZM14.25 16.1999V16.1333C14.25 15.2025 14.795 14.399 15.5833 14.0245V13.6667C15.5833 12.4523 16.395 11.4275 17.5055 11.1053C17.5019 11.0707 17.5 11.0356 17.5 11V7.3999C17.5 6.29533 16.6046 5.3999 15.5 5.3999H5.5C4.39543 5.3999 3.5 6.29533 3.5 7.39991V14.1999C3.5 15.3045 4.39543 16.1999 5.5 16.1999H14.25ZM17.5833 13.6667C17.5833 13.2985 17.8818 13 18.25 13C18.6182 13 18.9167 13.2985 18.9167 13.6667V13.8H17.5833V13.6667ZM16.25 16.1333C16.25 15.9492 16.3992 15.8 16.5833 15.8H19.9167C20.1008 15.8 20.25 15.9492 20.25 16.1333V18H16.25V16.1333Z" fill="black"/>
</svg>
