<svg width="25" height="24" viewBox="0 0 25 24" fill="none" xmlns="http://www.w3.org/2000/svg">
<path fill-rule="evenodd" clip-rule="evenodd" d="M16.5 13.5C16.5 12.5335 17.2835 11.75 18.25 11.75C19.2165 11.75 20 12.5335 20 13.5C20 14.4665 19.2165 15.25 18.25 15.25C17.2835 15.25 16.5 14.4665 16.5 13.5ZM18.25 13.75C18.3881 13.75 18.5 13.6381 18.5 13.5C18.5 13.3619 18.3881 13.25 18.25 13.25C18.1119 13.25 18 13.3619 18 13.5C18 13.6381 18.1119 13.75 18.25 13.75Z" fill="black"/>
<path fill-rule="evenodd" clip-rule="evenodd" d="M18.25 15.25C19.2165 15.25 20 16.0335 20 17C20 17.9665 19.2165 18.75 18.25 18.75C17.2835 18.75 16.5 17.9665 16.5 17C16.5 16.0335 17.2835 15.25 18.25 15.25ZM18.5 17C18.5 17.1381 18.3881 17.25 18.25 17.25C18.1119 17.25 18 17.1381 18 17C18 16.8619 18.1119 16.75 18.25 16.75C18.3881 16.75 18.5 16.8619 18.5 17Z" fill="black"/>
<path fill-rule="evenodd" clip-rule="evenodd" d="M1.5 7.39991C1.5 5.19077 3.29086 3.3999 5.5 3.3999H15.5C17.7091 3.3999 19.5 5.19076 19.5 7.3999V9.25H19.8475C21.4461 9.25 22.7639 10.5036 22.8438 12.1002L23.1438 18.1002C23.2294 19.8137 21.8632 21.25 20.1475 21.25H16.3525C15.2295 21.25 14.2562 20.6346 13.7418 19.7289C13.6785 20.2203 13.2586 20.6 12.75 20.6H8.25C7.69772 20.6 7.25 20.1522 7.25 19.6C7.25 19.0477 7.69772 18.6 8.25 18.6H9.50005V18.1999H5.5C3.29086 18.1999 1.5 16.409 1.5 14.1999V7.39991ZM13.4124 18.8508C13.3697 18.6407 13.349 18.4229 13.3529 18.1999H11.5V18.6H12.75C13.0041 18.6 13.236 18.6947 13.4124 18.8508ZM13.4513 16.1999L13.6562 12.1002C13.7361 10.5036 15.0539 9.25 16.6525 9.25H17.5V7.3999C17.5 6.29533 16.6046 5.3999 15.5 5.3999H5.5C4.39543 5.3999 3.5 6.29533 3.5 7.39991V14.1999C3.5 15.3045 4.39543 16.1999 5.5 16.1999H13.4513ZM15.6537 12.2001C15.6804 11.6679 16.1196 11.25 16.6525 11.25H19.8475C20.3804 11.25 20.8196 11.6679 20.8463 12.2001L21.1463 18.2001C21.1748 18.7712 20.7194 19.25 20.1475 19.25H16.3525C15.7806 19.25 15.3252 18.7712 15.3537 18.2001L15.6537 12.2001Z" fill="black"/>
</svg>
