<svg width="25" height="24" viewBox="0 0 25 24" fill="none" xmlns="http://www.w3.org/2000/svg">
<path fill-rule="evenodd" clip-rule="evenodd" d="M5.5 3.3999C3.29086 3.3999 1.5 5.19077 1.5 7.39991V14.1999C1.5 16.409 3.29086 18.1999 5.5 18.1999H9.50001V18.5999H7.74997C7.19768 18.5999 6.74997 19.0476 6.74997 19.5999C6.74997 20.1522 7.19768 20.5999 7.74997 20.5999H13.25C13.8022 20.5999 14.25 20.1522 14.25 19.5999C14.25 19.0476 13.8022 18.5999 13.25 18.5999H11.5V18.1999H14.4016C14.3121 18.3892 14.2529 18.604 14.2501 18.8402C14.2458 19.208 14.3796 19.5187 14.5549 19.7541C14.8699 20.177 15.3594 20.4171 15.7308 20.5593C16.5224 20.8625 17.5434 21 18.25 21C18.9566 21 19.9776 20.8625 20.7692 20.5593C21.1406 20.4171 21.6301 20.177 21.9451 19.7541C22.1204 19.5187 22.2542 19.208 22.2499 18.8402C22.2457 18.479 22.1095 18.168 21.9347 17.9216C21.3625 17.1145 20.3178 16.315 19.0347 16.0735C19.0592 16.0275 19.0827 15.981 19.1054 15.9339C19.116 15.9119 19.1257 15.8898 19.1345 15.8675C20.3596 15.49 21.25 14.349 21.25 13C21.25 11.7893 20.5328 10.746 19.5 10.272V7.3999C19.5 5.19076 17.7091 3.3999 15.5 3.3999H5.5ZM15.25 13C15.25 14.1573 15.9053 15.1615 16.865 15.6619C16.5071 15.9962 16.0269 16.1999 15.5 16.1999H5.5C4.39543 16.1999 3.5 15.3045 3.5 14.1999V7.39991C3.5 6.29533 4.39543 5.3999 5.5 5.3999H15.5C16.6046 5.3999 17.5 6.29533 17.5 7.3999V10.0945C16.2061 10.4275 15.25 11.6021 15.25 13ZM18.25 12C17.6977 12 17.25 12.4477 17.25 13C17.25 13.5523 17.6977 14 18.25 14C18.8023 14 19.25 13.5523 19.25 13C19.25 12.4477 18.8023 12 18.25 12ZM16.5171 18.7177C17.0282 18.898 17.7514 19 18.25 19C18.7486 19 19.4718 18.898 19.9829 18.7177C19.555 18.3221 18.925 18 18.25 18C17.575 18 16.945 18.3221 16.5171 18.7177Z" fill="black"/>
</svg>
