<svg width="25" height="24" viewBox="0 0 25 24" fill="none" xmlns="http://www.w3.org/2000/svg">
<path fill-rule="evenodd" clip-rule="evenodd" d="M21.0899 3.66126C19.5279 2.09916 16.9952 2.09916 15.4331 3.66126L14.8014 4.29299L4.82649 14.2679C4.21451 14.8798 3.81752 15.6738 3.69512 16.5306L3.318 19.1705C3.12944 20.4904 4.26081 21.6218 5.58074 21.4332L8.22061 21.0561C9.07739 20.9337 9.87136 20.5367 10.4833 19.9247L20.4582 9.94984L21.0899 9.31811C22.652 7.75601 22.652 5.22335 21.0899 3.66126ZM19.6757 5.07547C20.4315 5.83123 20.456 7.04136 19.7491 7.82655L16.9247 5.00207C17.7098 4.29524 18.92 4.31971 19.6757 5.07547ZM15.5085 6.41431L18.3369 9.24273L9.06913 18.5105C8.76314 18.8165 8.36615 19.015 7.93776 19.0762L5.2979 19.4533L5.67502 16.8134C5.73622 16.3851 5.93471 15.9881 6.24071 15.6821L15.5085 6.41431Z" fill="black"/>
</svg>
