<svg width="25" height="24" viewBox="0 0 25 24" fill="none" xmlns="http://www.w3.org/2000/svg">
<path fill-rule="evenodd" clip-rule="evenodd" d="M20.8461 2.90997C19.4995 1.56338 17.3162 1.56338 15.9696 2.90997L7.44416 11.4354C6.83217 12.0474 6.43518 12.8414 6.31279 13.6982L6.06573 15.4275C5.87717 16.7475 7.00854 17.8788 8.32847 17.6903L10.0578 17.4432C10.9146 17.3208 11.7086 16.9238 12.3206 16.3119L20.8461 7.78639C22.1926 6.43981 22.1926 4.25655 20.8461 2.90997ZM17.5933 4.15049C18.157 3.76622 18.9318 3.82412 19.4318 4.32418C19.9319 4.82424 19.9898 5.59903 19.6055 6.1627L17.5933 4.15049ZM16.1612 5.54681L18.2092 7.59481L10.9064 14.8976C10.6004 15.2036 10.2034 15.4021 9.775 15.4633L8.04563 15.7104L8.29269 13.981C8.35388 13.5526 8.55238 13.1556 8.85837 12.8496L16.1612 5.54681Z" fill="black"/>
<path d="M6.25 1.99998C4.04086 1.99998 2.25 3.79084 2.25 5.99998V18C2.25 20.2091 4.04086 22 6.25 22H18.25C20.4591 22 22.25 20.2091 22.25 18V12C22.25 11.4477 21.8023 11 21.25 11C20.6977 11 20.25 11.4477 20.25 12V18C20.25 19.1045 19.3546 20 18.25 20H6.25C5.14543 20 4.25 19.1045 4.25 18V5.99998C4.25 4.89541 5.14543 3.99998 6.25 3.99998H8.93421C9.4865 3.99998 9.93421 3.55226 9.93421 2.99998C9.93421 2.44769 9.4865 1.99998 8.93421 1.99998H6.25Z" fill="black"/>
</svg>
