<svg width="25" height="24" viewBox="0 0 25 24" fill="none" xmlns="http://www.w3.org/2000/svg">
<path fill-rule="evenodd" clip-rule="evenodd" d="M16.8882 1.0805C15.643 0.902936 14.75 1.94051 14.75 3.00002V8.00002C14.75 9.10459 15.6454 10 16.75 10H21.75C22.8095 10 23.8471 9.10699 23.6695 7.86181C23.1692 4.35355 20.3965 1.58078 16.8882 1.0805ZM16.75 3.00002C16.7492 3.00286 16.7461 3.01068 16.7348 3.02146C16.7251 3.03073 16.7077 3.0434 16.6814 3.05231C16.6534 3.0618 16.6258 3.06332 16.6059 3.06047C16.6541 3.06735 16.7021 3.0748 16.75 3.08282V8.00002H21.6672C21.6752 8.04788 21.6827 8.09593 21.6896 8.14416C21.6867 8.12417 21.6882 8.09663 21.6977 8.06862C21.7066 8.04231 21.7193 8.02491 21.7286 8.01522C21.7393 8.00396 21.7472 8.00092 21.75 8.00017L21.6672 8.00002C21.2463 5.48829 19.2617 3.50377 16.75 3.08282V3.00002Z" fill="black"/>
<path fill-rule="evenodd" clip-rule="evenodd" d="M13.75 4.00002C13.75 2.92868 12.8566 1.92674 11.6419 2.06081C6.64004 2.61283 2.75 6.85146 2.75 12C2.75 17.5229 7.22715 22 12.75 22C17.8986 22 22.1372 18.11 22.6892 13.1081C22.8233 11.8934 21.8213 11 20.75 11H15.75C14.6454 11 13.75 10.1046 13.75 9.00002V4.00002ZM4.75 12C4.75 7.92065 7.80414 4.55327 11.75 4.06181V9.00002C11.75 11.2092 13.5409 13 15.75 13H20.6882C20.1967 16.9459 16.8294 20 12.75 20C8.33172 20 4.75 16.4183 4.75 12Z" fill="black"/>
</svg>
