<svg width="25" height="24" viewBox="0 0 25 24" fill="none" xmlns="http://www.w3.org/2000/svg">
<path fill-rule="evenodd" clip-rule="evenodd" d="M15.1966 2.47382C13.2835 1.36925 10.8371 2.02475 9.73254 3.93792L7.6867 7.48142C7.48928 7.82337 7.19505 8.09923 6.84111 8.27424L5.3197 9.02649C3.5298 9.9115 3.44854 12.4342 5.17776 13.4326L8.81263 15.5312L5.56269 21.1602C5.28654 21.6385 5.45042 22.2501 5.92871 22.5263C6.40701 22.8024 7.0186 22.6385 7.29474 22.1602L10.5447 16.5312L14.1796 18.6298C15.9088 19.6282 18.0529 18.2964 17.9244 16.3038L17.8152 14.6101C17.7898 14.2161 17.8816 13.8234 18.079 13.4814L20.1248 9.93792C21.2294 8.02475 20.5739 5.57839 18.6607 4.47382L15.1966 2.47382ZM10.6919 14.3068L15.1796 16.8978C15.5255 17.0974 15.9543 16.8311 15.9286 16.4326L15.8194 14.7389C15.7685 13.9508 15.9521 13.1653 16.347 12.4814L18.3928 8.93792C18.9451 7.98134 18.6173 6.75816 17.6607 6.20587L14.1966 4.20587C13.2401 3.65359 12.0169 3.98134 11.4646 4.93792L9.41876 8.48142C9.02391 9.16532 8.43545 9.71704 7.72756 10.0671L6.20615 10.8193C5.84817 10.9963 5.83192 11.5009 6.17776 11.7005L10.6654 14.2915C10.6698 14.2939 10.6743 14.2965 10.6787 14.299C10.6831 14.3016 10.6876 14.3042 10.6919 14.3068Z" fill="black"/>
</svg>
