<svg width="25" height="24" viewBox="0 0 25 24" fill="none" xmlns="http://www.w3.org/2000/svg">
<path fill-rule="evenodd" clip-rule="evenodd" d="M10.2503 1C8.04112 1 6.25026 2.79086 6.25026 5V9.09167C6.25026 9.48652 6.13338 9.87254 5.91436 10.2011L4.97291 11.6132C3.86532 13.2746 5.05629 15.5 7.05303 15.5H11.2503V22C11.2503 22.5523 11.698 23 12.2503 23C12.8025 23 13.2503 22.5523 13.2503 22V15.5H17.4475C19.4442 15.5 20.6352 13.2746 19.5276 11.6132L18.5862 10.2011C18.3671 9.87254 18.2503 9.48652 18.2503 9.09167V5C18.2503 2.79086 16.4594 1 14.2503 1H10.2503ZM17.4475 13.5C17.8468 13.5 18.085 13.0549 17.8635 12.7226L16.9221 11.3105C16.484 10.6534 16.2503 9.88137 16.2503 9.09167V5C16.2503 3.89543 15.3548 3 14.2503 3H10.2503C9.14569 3 8.25026 3.89543 8.25026 5V9.09167C8.25026 9.88137 8.0165 10.6534 7.57846 11.3105L6.63701 12.7226C6.41549 13.0549 6.65368 13.5 7.05303 13.5H17.4475Z" fill="black"/>
</svg>
