<svg width="25" height="24" viewBox="0 0 25 24" fill="none" xmlns="http://www.w3.org/2000/svg">
<path fill-rule="evenodd" clip-rule="evenodd" d="M11.8294 5.26624C10.4026 3.94511 8.13821 3 4.75001 3C4.43069 3 4.13057 3.1525 3.9423 3.41041C3.75404 3.66833 3.70026 4.00065 3.79758 4.30478C4.54177 6.63036 6.24083 8.11231 7.96807 9.01191C9.27633 9.6933 10.646 10.0666 11.75 10.2332V18.2252C11.4466 18.3176 11.0681 18.4522 10.7539 18.6318C10.3218 18.8787 9.76874 19.2972 9.36079 19.6191C9.14839 19.7867 8.95979 19.9406 8.82433 20.0526C8.75647 20.1087 8.70164 20.1545 8.66346 20.1865L8.61906 20.2239L8.60704 20.2341L8.60371 20.2369L8.60274 20.2377C8.60269 20.2378 8.60223 20.2382 9.25001 21L8.60274 20.2377C8.18199 20.5955 8.13042 21.227 8.48818 21.6478C8.84592 22.0685 9.47698 22.1196 9.89773 21.7619L9.90037 21.7596L9.91007 21.7514L9.94943 21.7183C9.9841 21.6892 10.0349 21.6467 10.0984 21.5943C10.2255 21.4892 10.4021 21.3451 10.5998 21.1891C11.012 20.8638 11.459 20.5323 11.7461 20.3682C11.902 20.2792 12.1775 20.1806 12.472 20.0977C12.5759 20.0685 12.6716 20.044 12.75 20.0251C12.8284 20.044 12.9241 20.0685 13.028 20.0977C13.3225 20.1806 13.598 20.2792 13.7539 20.3682C14.041 20.5323 14.488 20.8638 14.9002 21.1891C15.0979 21.3451 15.2745 21.4892 15.4016 21.5943C15.4651 21.6467 15.5159 21.6892 15.5506 21.7183L15.5899 21.7514L15.5996 21.7596L15.6018 21.7615C16.0226 22.1192 16.6541 22.0685 17.0118 21.6478C17.3696 21.227 17.3185 20.5959 16.8978 20.2382L16.25 21C16.8978 20.2382 16.8978 20.2382 16.8978 20.2382L16.8963 20.2369L16.881 20.2239L16.8366 20.1865C16.7984 20.1545 16.7435 20.1087 16.6757 20.0526C16.5402 19.9406 16.3516 19.7867 16.1392 19.6191C15.7313 19.2972 15.1782 18.8787 14.7461 18.6318C14.4319 18.4522 14.0534 18.3176 13.75 18.2252V16.2332C14.854 16.0666 16.2237 15.6933 17.5319 15.0119C19.2592 14.1123 20.9582 12.6304 21.7024 10.3048C21.7998 10.0006 21.746 9.66833 21.5577 9.41041C21.3694 9.1525 21.0693 9 20.75 9C17.424 9 15.1809 9.91073 13.75 11.1939V9.5C13.75 9.47183 13.7488 9.44393 13.7466 9.41635C13.7488 9.38884 13.75 9.36115 13.75 9.33333C13.75 8.17619 13.2413 6.5735 11.8294 5.26624ZM11.485 8.15368C10.6883 7.98603 9.76982 7.69531 8.89194 7.23809C7.90928 6.72628 7.01535 6.02761 6.38048 5.09053C8.41403 5.32965 9.68852 6.00961 10.4706 6.73376C10.9682 7.19449 11.2891 7.69301 11.485 8.15368ZM14.015 14.1537C14.8118 13.986 15.7302 13.6953 16.6081 13.2381C17.5907 12.7263 18.4847 12.0276 19.1195 11.0905C17.086 11.3296 15.8115 12.0096 15.0294 12.7338C14.5318 13.1945 14.2109 13.693 14.015 14.1537Z" fill="black"/>
</svg>
