<svg width="25" height="24" viewBox="0 0 25 24" fill="none" xmlns="http://www.w3.org/2000/svg">
<path fill-rule="evenodd" clip-rule="evenodd" d="M12.75 1C13.3023 1 13.75 1.44772 13.75 2V7.19388C15.1809 5.91073 17.424 5 20.75 5C21.0693 5 21.3694 5.1525 21.5577 5.41041C21.746 5.66833 21.7998 6.00065 21.7024 6.30478C20.9615 8.62013 19.2741 10.0992 17.5548 11H18.5598C19.8023 11 20.744 12.1209 20.5299 13.3448L19.1299 21.3448C18.9624 22.3018 18.1314 23 17.1598 23H8.3402C7.36864 23 6.53762 22.3018 6.37014 21.3448L4.97014 13.3448C4.75597 12.1209 5.69776 11 6.9402 11H11.75V9.23323C10.646 9.06664 9.27633 8.6933 7.96807 8.01191C6.24083 7.11231 4.54177 5.63036 3.79758 3.30478C3.70026 3.00065 3.75404 2.66833 3.9423 2.41041C4.13057 2.1525 4.43069 2 4.75001 2C8.07602 2 10.3191 2.91073 11.75 4.19388V2C11.75 1.44772 12.1977 1 12.75 1ZM8.89194 6.23809C9.76982 6.69531 10.6883 6.98603 11.485 7.15368C11.2891 6.69301 10.9682 6.19449 10.4706 5.73376C9.68852 5.00961 8.41403 4.32965 6.38048 4.09053C7.01535 5.02761 7.90928 5.72628 8.89194 6.23809ZM16.6081 9.23809C15.7302 9.69531 14.8118 9.98603 14.015 10.1537C14.2109 9.69301 14.5318 9.19449 15.0294 8.73376C15.8115 8.00961 17.086 7.32965 19.1195 7.09053C18.4847 8.02761 17.5907 8.72628 16.6081 9.23809ZM8.3402 21L6.9402 13L18.5598 13L17.1598 21H8.3402Z" fill="black"/>
</svg>
