<svg width="25" height="24" viewBox="0 0 25 24" fill="none" xmlns="http://www.w3.org/2000/svg">
<path d="M2.75 4.5C2.75 3.94772 3.19772 3.5 3.75 3.5H21.75C22.3023 3.5 22.75 3.94772 22.75 4.5C22.75 5.05228 22.3023 5.5 21.75 5.5H3.75C3.19772 5.5 2.75 5.05228 2.75 4.5Z" fill="black"/>
<path d="M2.75 9.5C2.75 8.94772 3.19772 8.5 3.75 8.5H12.75C13.3023 8.5 13.75 8.94772 13.75 9.5C13.75 10.0523 13.3023 10.5 12.75 10.5H3.75C3.19772 10.5 2.75 10.0523 2.75 9.5Z" fill="black"/>
<path d="M3.75 13.5C3.19772 13.5 2.75 13.9477 2.75 14.5C2.75 15.0523 3.19772 15.5 3.75 15.5H9.75C10.3023 15.5 10.75 15.0523 10.75 14.5C10.75 13.9477 10.3023 13.5 9.75 13.5H3.75Z" fill="black"/>
<path d="M2.75 19.5C2.75 18.9477 3.19772 18.5 3.75 18.5H9.75C10.3023 18.5 10.75 18.9477 10.75 19.5C10.75 20.0523 10.3023 20.5 9.75 20.5H3.75C3.19772 20.5 2.75 20.0523 2.75 19.5Z" fill="black"/>
<path fill-rule="evenodd" clip-rule="evenodd" d="M19.5583 6.68966C19.2539 6.46955 18.8519 6.4386 18.5174 6.60951C18.1829 6.78042 17.9724 7.12437 17.9724 7.5V14.8668C17.5019 14.739 16.932 14.6549 16.249 14.6549C15.18 14.6549 14.3872 14.861 13.8184 15.1189C12.6671 15.6408 12.5625 16.9114 12.9771 17.738C13.2174 18.217 13.5882 18.8618 14.08 19.401C14.5541 19.9208 15.2866 20.5 16.249 20.5C18.5818 20.5 19.9724 18.3982 19.9724 16.5093V12.546C20.7764 12.3613 21.3972 11.9572 21.8464 11.4535C22.4369 10.7915 22.6911 10.0047 22.7454 9.43847C22.7848 9.02854 22.5688 8.6364 22.2013 8.45055C21.6785 8.18613 20.2548 7.19332 19.5583 6.68966ZM16.249 16.6549C17.1223 16.6549 17.6472 16.8355 17.9244 16.974C17.7403 17.8506 17.0486 18.5 16.249 18.5C16.1239 18.5 15.8896 18.4171 15.5577 18.0532C15.2539 17.7202 14.9872 17.2787 14.7854 16.882C15.0892 16.7672 15.5606 16.6549 16.249 16.6549ZM20.3538 10.1223C20.2574 10.2305 20.134 10.3382 19.9724 10.4281V9.41601C20.1778 9.55366 20.3814 9.68729 20.5721 9.80829C20.515 9.91476 20.4431 10.0223 20.3538 10.1223Z" fill="black"/>
</svg>
