<svg width="25" height="24" viewBox="0 0 25 24" fill="none" xmlns="http://www.w3.org/2000/svg">
<path d="M13.25 9C13.25 8.44772 12.8023 8 12.25 8C11.6977 8 11.25 8.44772 11.25 9V11H9.25C8.69772 11 8.25 11.4477 8.25 12C8.25 12.5523 8.69772 13 9.25 13H11.25V15C11.25 15.5523 11.6977 16 12.25 16C12.8023 16 13.25 15.5523 13.25 15V13H15.25C15.8023 13 16.25 12.5523 16.25 12C16.25 11.4477 15.8023 11 15.25 11H13.25V9Z" fill="black"/>
<path fill-rule="evenodd" clip-rule="evenodd" d="M12.25 2C6.72715 2 2.25 6.47715 2.25 12C2.25 17.5228 6.72715 22 12.25 22C17.7728 22 22.25 17.5228 22.25 12C22.25 6.47715 17.7728 2 12.25 2ZM4.25 12C4.25 7.58172 7.83172 4 12.25 4C16.6683 4 20.25 7.58172 20.25 12C20.25 16.4183 16.6683 20 12.25 20C7.83172 20 4.25 16.4183 4.25 12Z" fill="black"/>
</svg>
