<svg width="25" height="24" viewBox="0 0 25 24" fill="none" xmlns="http://www.w3.org/2000/svg">
<path d="M17.0553 2.79999C15.5773 2.24306 13.9526 2.21171 12.4541 2.71119C9.72029 3.62246 7.85242 6.13661 7.75408 8.99998H4.75C4.19772 8.99998 3.75 9.4477 3.75 9.99998C3.75 10.5523 4.19772 11 4.75 11H7.75V12.5H4.75C4.19772 12.5 3.75 12.9477 3.75 13.5C3.75 14.0523 4.19772 14.5 4.75 14.5H7.75V14.7622C7.75 17.7234 9.64485 20.3524 12.4541 21.2888C13.9526 21.7883 15.5773 21.7569 17.0553 21.2L17.5295 21.0213C19.6423 20.2252 21.2169 18.4249 21.7244 16.2248C21.8486 15.6866 21.5129 15.1497 20.9748 15.0256C20.4366 14.9014 19.8997 15.237 19.7756 15.7752C19.4185 17.3231 18.3108 18.5897 16.8243 19.1498L16.3502 19.3284C15.3018 19.7234 14.1494 19.7457 13.0865 19.3914C11.094 18.7272 9.75 16.8625 9.75 14.7622V14.5H15.75C16.3023 14.5 16.75 14.0523 16.75 13.5C16.75 12.9477 16.3023 12.5 15.75 12.5H9.75V11H15.75C16.3023 11 16.75 10.5523 16.75 9.99998C16.75 9.4477 16.3023 8.99998 15.75 8.99998H9.75576C9.85283 6.99779 11.1695 5.24757 13.0865 4.60856C14.1494 4.25428 15.3018 4.27652 16.3502 4.67154L16.8243 4.85019C18.3108 5.4103 19.4185 6.67691 19.7756 8.22477C19.8997 8.76292 20.4366 9.09854 20.9748 8.97439C21.5129 8.85025 21.8486 8.31335 21.7244 7.7752C21.2169 5.57509 19.6423 3.77476 17.5295 2.97864L17.0553 2.79999Z" fill="black"/>
</svg>
