<svg width="25" height="24" viewBox="0 0 25 24" fill="none" xmlns="http://www.w3.org/2000/svg">
<path fill-rule="evenodd" clip-rule="evenodd" d="M13.25 3C13.25 2.44772 12.8023 2 12.25 2C11.6977 2 11.25 2.44772 11.25 3V4.05493C6.75005 4.55237 3.25 8.36745 3.25 13C3.25 17.9706 7.27944 22 12.25 22C17.2206 22 21.25 17.9706 21.25 13C21.25 8.36745 17.75 4.55237 13.25 4.05493V3ZM11.25 6.07089V11C11.25 11.5523 11.6977 12 12.25 12C12.8023 12 13.25 11.5523 13.25 11V6.07089C16.6423 6.55612 19.25 9.47353 19.25 13C19.25 16.866 16.116 20 12.25 20C8.38401 20 5.25 16.866 5.25 13C5.25 9.47353 7.85771 6.55612 11.25 6.07089Z" fill="black"/>
</svg>
