<svg width="25" height="24" viewBox="0 0 25 24" fill="none" xmlns="http://www.w3.org/2000/svg">
<path fill-rule="evenodd" clip-rule="evenodd" d="M2.75 6.5C2.75 5.94772 3.19771 5.5 3.75 5.5C4.30229 5.5 4.75 5.94772 4.75 6.5V9.35854L9.90452 6.78251C11.6706 5.89987 13.75 7.18314 13.75 9.15863V9.35854L18.9045 6.78251C20.6706 5.89987 22.75 7.18314 22.75 9.15863V14.8414C22.75 16.8169 20.6706 18.1001 18.9045 17.2175L13.75 14.6415V14.8414C13.75 16.8169 11.6706 18.1001 9.90452 17.2175L4.75 14.6415V17.5C4.75 18.0523 4.30229 18.5 3.75 18.5C3.19771 18.5 2.75 18.0523 2.75 17.5V6.5ZM11.75 9.15863C11.75 8.6713 11.2363 8.35277 10.7986 8.57153L5.11317 11.4129C4.62894 11.6549 4.62895 12.3451 5.11316 12.5871L10.7986 15.4285C11.2363 15.6472 11.75 15.3287 11.75 14.8414V9.15863ZM13.75 12.0009C13.7503 12.2336 13.8713 12.4662 14.1132 12.5871L19.7986 15.4285C20.2363 15.6472 20.75 15.3287 20.75 14.8414V9.15863C20.75 8.6713 20.2363 8.35277 19.7986 8.57153L14.1132 11.4129C13.8713 11.5338 13.7503 11.7664 13.75 11.9991V12.0009Z" fill="black"/>
</svg>
