<svg width="25" height="24" viewBox="0 0 25 24" fill="none" xmlns="http://www.w3.org/2000/svg">
<path d="M6.25 8C6.80228 8 7.25 8.44772 7.25 9C7.25 9.55228 6.80228 10 6.25 10C5.69772 10 5.25 9.55228 5.25 9C5.25 8.44772 5.69772 8 6.25 8Z" fill="black"/>
<path d="M9.75 15.5C9.75 14.9477 10.1977 14.5 10.75 14.5H13.75C14.3023 14.5 14.75 14.9477 14.75 15.5C14.75 16.0523 14.3023 16.5 13.75 16.5H10.75C10.1977 16.5 9.75 16.0523 9.75 15.5Z" fill="black"/>
<path d="M10.75 17.5C10.1977 17.5 9.75 17.9477 9.75 18.5C9.75 19.0523 10.1977 19.5 10.75 19.5H12.75C13.3023 19.5 13.75 19.0523 13.75 18.5C13.75 17.9477 13.3023 17.5 12.75 17.5H10.75Z" fill="black"/>
<path fill-rule="evenodd" clip-rule="evenodd" d="M7.25 4C7.25 2.89543 8.14543 2 9.25 2H15.25C16.3546 2 17.25 2.89543 17.25 4V5H18.25C20.4591 5 22.25 6.79086 22.25 9V14C22.25 16.2091 20.4591 18 18.25 18H17.25V20C17.25 21.1046 16.3546 22 15.25 22H9.25C8.14543 22 7.25 21.1046 7.25 20V18H6.25C4.04086 18 2.25 16.2091 2.25 14V9C2.25 6.79086 4.04086 5 6.25 5H7.25V4ZM15.25 4V5H9.25V4H15.25ZM4.25 9C4.25 7.89543 5.14543 7 6.25 7H18.25C19.3546 7 20.25 7.89543 20.25 9V14C20.25 15.1046 19.3546 16 18.25 16H17.25V14C17.25 12.8954 16.3546 12 15.25 12H9.25C8.14543 12 7.25 12.8954 7.25 14V16H6.25C5.14543 16 4.25 15.1046 4.25 14V9ZM9.25 14H15.25V20H9.25V14Z" fill="black"/>
</svg>
