<svg width="25" height="24" viewBox="0 0 25 24" fill="none" xmlns="http://www.w3.org/2000/svg">
<path fill-rule="evenodd" clip-rule="evenodd" d="M8.95 7.5C7.73497 7.5 6.75 8.48497 6.75 9.7V14.3C6.75 15.515 7.73497 16.5 8.95 16.5H15.55C16.765 16.5 17.75 15.515 17.75 14.3V9.7C17.75 8.48497 16.765 7.5 15.55 7.5H8.95ZM8.75 9.7C8.75 9.58954 8.83954 9.5 8.95 9.5H15.55C15.6605 9.5 15.75 9.58954 15.75 9.7V14.3C15.75 14.4105 15.6605 14.5 15.55 14.5H8.95C8.83954 14.5 8.75 14.4105 8.75 14.3V9.7Z" fill="black"/>
<path fill-rule="evenodd" clip-rule="evenodd" d="M16.75 2C17.3023 2 17.75 2.44772 17.75 3V4.03095C19.21 4.21301 20.4257 5.18195 20.9592 6.5H22.25C22.8023 6.5 23.25 6.94772 23.25 7.5C23.25 8.05228 22.8023 8.5 22.25 8.5H21.25V9.5H22.25C22.8023 9.5 23.25 9.94772 23.25 10.5C23.25 11.0523 22.8023 11.5 22.25 11.5H21.25V12.5H22.25C22.8023 12.5 23.25 12.9477 23.25 13.5C23.25 14.0523 22.8023 14.5 22.25 14.5H21.25V15.5H22.25C22.8023 15.5 23.25 15.9477 23.25 16.5C23.25 17.0523 22.8023 17.5 22.25 17.5H20.9592C20.4879 18.6644 19.4842 19.5563 18.25 19.874V21C18.25 21.5523 17.8023 22 17.25 22C16.6977 22 16.25 21.5523 16.25 21V20H15.25V21C15.25 21.5523 14.8023 22 14.25 22C13.6977 22 13.25 21.5523 13.25 21V20H12.25V21C12.25 21.5523 11.8023 22 11.25 22C10.6977 22 10.25 21.5523 10.25 21V20H9.25V21C9.25 21.5523 8.80228 22 8.25 22C7.69772 22 7.25 21.5523 7.25 21V20C5.57131 20 4.13415 18.9659 3.54076 17.5H2.25C1.69772 17.5 1.25 17.0523 1.25 16.5C1.25 15.9477 1.69772 15.5 2.25 15.5H3.25V14.5H2.25C1.69772 14.5 1.25 14.0523 1.25 13.5C1.25 12.9477 1.69772 12.5 2.25 12.5H3.25V11.5H2.25C1.69772 11.5 1.25 11.0523 1.25 10.5C1.25 9.94772 1.69772 9.5 2.25 9.5H3.25V8.5H2.25C1.69772 8.5 1.25 8.05228 1.25 7.5C1.25 6.94772 1.69772 6.5 2.25 6.5H3.54076C4.07429 5.18195 5.28996 4.21301 6.75 4.03095V3C6.75 2.44772 7.19772 2 7.75 2C8.30228 2 8.75 2.44772 8.75 3V4H9.75V3C9.75 2.44772 10.1977 2 10.75 2C11.3023 2 11.75 2.44772 11.75 3V4H12.75V3C12.75 2.44772 13.1977 2 13.75 2C14.3023 2 14.75 2.44772 14.75 3V4H15.75V3C15.75 2.44772 16.1977 2 16.75 2ZM19.25 16C19.25 17.1046 18.3546 18 17.25 18H7.25C6.14543 18 5.25 17.1046 5.25 16V8C5.25 6.89543 6.14543 6 7.25 6H17.25C18.3546 6 19.25 6.89543 19.25 8V16Z" fill="black"/>
</svg>
