<svg width="25" height="24" viewBox="0 0 25 24" fill="none" xmlns="http://www.w3.org/2000/svg">
<path fill-rule="evenodd" clip-rule="evenodd" d="M15.4571 3.70711C15.8476 3.31658 15.8476 2.68342 15.4571 2.29289C15.0666 1.90237 14.4334 1.90237 14.0429 2.29289L12.0429 4.29289C11.6524 4.68342 11.6524 5.31658 12.0429 5.70711L14.0429 7.70711C14.4334 8.09763 15.0666 8.09763 15.4571 7.70711C15.8476 7.31658 15.8476 6.68342 15.4571 6.29289L15.1973 6.03313C16.642 6.24911 17.75 7.49516 17.75 9V16.1707C16.5848 16.5825 15.75 17.6938 15.75 19C15.75 20.6569 17.0931 22 18.75 22C20.4069 22 21.75 20.6569 21.75 19C21.75 17.6938 20.9152 16.5825 19.75 16.1707V9C19.75 6.37273 17.7236 4.21874 15.1486 4.01565L15.4571 3.70711ZM18.75 18C18.1977 18 17.75 18.4477 17.75 19C17.75 19.5523 18.1977 20 18.75 20C19.3023 20 19.75 19.5523 19.75 19C19.75 18.4477 19.3023 18 18.75 18Z" fill="black"/>
<path fill-rule="evenodd" clip-rule="evenodd" d="M10.75 5C10.75 6.30622 9.91519 7.41746 8.75 7.82929V16.1707C9.91519 16.5825 10.75 17.6938 10.75 19C10.75 20.6569 9.40685 22 7.75 22C6.09315 22 4.75 20.6569 4.75 19C4.75 17.6938 5.58481 16.5825 6.75 16.1707V7.82929C5.58481 7.41746 4.75 6.30622 4.75 5C4.75 3.34315 6.09315 2 7.75 2C9.40685 2 10.75 3.34315 10.75 5ZM7.75 4C8.30228 4 8.75 4.44772 8.75 5C8.75 5.55228 8.30228 6 7.75 6C7.19772 6 6.75 5.55228 6.75 5C6.75 4.44772 7.19772 4 7.75 4ZM6.75 19C6.75 18.4477 7.19772 18 7.75 18C8.30228 18 8.75 18.4477 8.75 19C8.75 19.5523 8.30228 20 7.75 20C7.19772 20 6.75 19.5523 6.75 19Z" fill="black"/>
</svg>
