<svg width="25" height="24" viewBox="0 0 25 24" fill="none" xmlns="http://www.w3.org/2000/svg">
<path fill-rule="evenodd" clip-rule="evenodd" d="M1.75 5.5C1.75 6.88071 2.86929 8 4.25 8H6.25C7.63071 8 8.75 6.88071 8.75 5.5V3.5C8.75 2.11929 7.63071 1 6.25 1H4.25C2.86929 1 1.75 2.11929 1.75 3.5V5.5ZM4.25 6C3.97386 6 3.75 5.77614 3.75 5.5V3.5C3.75 3.22386 3.97386 3 4.25 3H6.25C6.52614 3 6.75 3.22386 6.75 3.5V5.5C6.75 5.77614 6.52614 6 6.25 6H4.25Z" fill="black"/>
<path fill-rule="evenodd" clip-rule="evenodd" d="M15.75 5.5C15.75 6.88071 16.8693 8 18.25 8H20.25C21.6307 8 22.75 6.88071 22.75 5.5V3.5C22.75 2.11929 21.6307 1 20.25 1H18.25C16.8693 1 15.75 2.11929 15.75 3.5V5.5ZM18.25 6C17.9739 6 17.75 5.77614 17.75 5.5V3.5C17.75 3.22386 17.9739 3 18.25 3H20.25C20.5261 3 20.75 3.22386 20.75 3.5V5.5C20.75 5.77614 20.5261 6 20.25 6H18.25Z" fill="black"/>
<path fill-rule="evenodd" clip-rule="evenodd" d="M4.25 23C2.86929 23 1.75 21.8807 1.75 20.5V18.5C1.75 17.1193 2.86929 16 4.25 16H6.25C7.63071 16 8.75 17.1193 8.75 18.5V20.5C8.75 21.8807 7.63071 23 6.25 23H4.25ZM3.75 20.5C3.75 20.7761 3.97386 21 4.25 21H6.25C6.52614 21 6.75 20.7761 6.75 20.5V18.5C6.75 18.2239 6.52614 18 6.25 18H4.25C3.97386 18 3.75 18.2239 3.75 18.5V20.5Z" fill="black"/>
<path d="M13.25 3C13.25 2.44771 13.6977 2 14.25 2C14.8023 2 15.25 2.44771 15.25 3C15.25 3.55228 14.8023 4 14.25 4C13.6977 4 13.25 3.55228 13.25 3Z" fill="black"/>
<path d="M10.25 4C9.69772 4 9.25 4.44771 9.25 5V7C9.25 7.55228 9.69772 8 10.25 8H9.25C8.69772 8 8.25 8.44771 8.25 9C8.25 9.55228 8.69772 10 9.25 10C9.80229 10 10.25 9.55228 10.25 9V13C10.25 13.5523 10.6977 14 11.25 14H14.25C13.6977 14 13.25 14.4477 13.25 15V16H10.25C9.69772 16 9.25 16.4477 9.25 17C9.25 17.5523 9.69772 18 10.25 18H11.25V20H10.25C9.69772 20 9.25 20.4477 9.25 21C9.25 21.5523 9.69772 22 10.25 22H12.25C12.8023 22 13.25 21.5523 13.25 21V16H14.25C14.8023 16 15.25 15.5523 15.25 15C15.25 14.4477 14.8023 14 14.25 14H15.25C15.8023 14 16.25 13.5523 16.25 13C16.25 12.4477 15.8023 12 15.25 12H12.25V9C12.25 9.55228 12.6977 10 13.25 10H14.25C14.8023 10 15.25 9.55228 15.25 9C15.25 8.44771 14.8023 8 14.25 8H12.25C12.8023 8 13.25 7.55228 13.25 7C13.25 6.44771 12.8023 6 12.25 6H11.25V5C11.25 4.44771 10.8023 4 10.25 4Z" fill="black"/>
<path d="M13.25 4C12.6977 4 12.25 4.44771 12.25 5C12.25 5.55228 12.6977 6 13.25 6C13.8023 6 14.25 5.55228 14.25 5C14.25 4.44771 13.8023 4 13.25 4Z" fill="black"/>
<path d="M18.25 16C17.6977 16 17.25 15.5523 17.25 15V13C17.25 12.4477 17.6977 12 18.25 12C18.8023 12 19.25 12.4477 19.25 13V14H20.25C20.8023 14 21.25 14.4477 21.25 15C21.25 15.5523 20.8023 16 20.25 16H19.25C19.8023 16 20.25 16.4477 20.25 17V18H21.25C21.8023 18 22.25 18.4477 22.25 19V21C22.25 21.5523 21.8023 22 21.25 22C20.6977 22 20.25 21.5523 20.25 21V20H19.25C18.6977 20 18.25 19.5523 18.25 19V18H15.25C14.6977 18 14.25 17.5523 14.25 17C14.25 16.4477 14.6977 16 15.25 16H18.25Z" fill="black"/>
<path d="M21.25 12C20.6977 12 20.25 12.4477 20.25 13C20.25 13.5523 20.6977 14 21.25 14C21.8023 14 22.25 13.5523 22.25 13C22.25 12.4477 21.8023 12 21.25 12Z" fill="black"/>
<path d="M18.25 20C17.6977 20 17.25 20.4477 17.25 21C17.25 21.5523 17.6977 22 18.25 22C18.8023 22 19.25 21.5523 19.25 21C19.25 20.4477 18.8023 20 18.25 20Z" fill="black"/>
<path d="M15.25 19C14.6977 19 14.25 19.4477 14.25 20C14.25 20.5523 14.6977 21 15.25 21C15.8023 21 16.25 20.5523 16.25 20C16.25 19.4477 15.8023 19 15.25 19Z" fill="black"/>
<path d="M6.25 12H7.25C7.80228 12 8.25 12.4477 8.25 13C8.25 13.5523 7.80228 14 7.25 14H3.25C2.69772 14 2.25 13.5523 2.25 13V11C2.25 10.4477 2.69772 10 3.25 10H5.25C5.80228 10 6.25 10.4477 6.25 11V12Z" fill="black"/>
<path d="M17.25 9C16.6977 9 16.25 9.44771 16.25 10C16.25 10.5523 16.6977 11 17.25 11H21.25C21.8023 11 22.25 10.5523 22.25 10C22.25 9.44771 21.8023 9 21.25 9H17.25Z" fill="black"/>
</svg>
