<svg width="25" height="24" viewBox="0 0 25 24" fill="none" xmlns="http://www.w3.org/2000/svg">
<path d="M12.3901 10.1449C12.6724 9.93322 12.7401 9.53791 12.5444 9.24434C12.3117 8.8953 11.8178 8.84639 11.5212 9.14303L10.9571 9.70711C10.5666 10.0976 9.93342 10.0976 9.54289 9.70711C9.15237 9.31658 9.15237 8.68342 9.54289 8.29289L10.107 7.72881C11.296 6.53975 13.2757 6.73577 14.2085 8.13494C14.993 9.3117 14.7215 10.8963 13.5901 11.7449L13.5416 11.7813C13.358 11.919 13.25 12.135 13.25 12.3645L13.25 12.5C13.25 13.0523 12.8023 13.5 12.25 13.5C11.6977 13.5 11.25 13.0523 11.25 12.5L11.25 12.3645C11.25 11.5055 11.6544 10.6967 12.3416 10.1813L12.3901 10.1449Z" fill="black"/>
<path d="M11.25 15.5C11.25 16.0523 11.6977 16.5 12.25 16.5C12.8023 16.5 13.25 16.0523 13.25 15.5C13.25 14.9477 12.8023 14.5 12.25 14.5C11.6977 14.5 11.25 14.9477 11.25 15.5Z" fill="black"/>
<path fill-rule="evenodd" clip-rule="evenodd" d="M2.25 12C2.25 6.47715 6.72715 2 12.25 2C17.7728 2 22.25 6.47715 22.25 12C22.25 17.5228 17.7728 22 12.25 22C6.72715 22 2.25 17.5228 2.25 12ZM12.25 4C7.83172 4 4.25 7.58172 4.25 12C4.25 16.4183 7.83172 20 12.25 20C16.6683 20 20.25 16.4183 20.25 12C20.25 7.58172 16.6683 4 12.25 4Z" fill="black"/>
</svg>
