<svg width="25" height="24" viewBox="0 0 25 24" fill="none" xmlns="http://www.w3.org/2000/svg">
<path d="M7.25 10.3405V7C7.25 5.34315 8.59315 4 10.25 4H15.25C16.9069 4 18.25 5.34315 18.25 7V12.2903C18.25 12.5135 18.226 12.7344 18.1647 12.949C17.8333 14.1087 16.4806 18.0667 13.1429 19.4363C12.3297 19.77 11.4699 19.9183 10.7103 19.973C9.84017 20.0357 9.46052 18.909 9.90913 18.1609C10.0874 17.8636 10.2548 17.5312 10.3929 17.1663C10.61 16.5922 10.7228 16.027 10.7778 15.5361C10.8861 14.569 10.2712 13.724 9.40562 13.2794L8.87935 13.009C7.87898 12.4952 7.25 11.4651 7.25 10.3405Z" stroke="black" stroke-width="2" stroke-linecap="round" stroke-linejoin="round"/>
</svg>
