<svg width="25" height="24" viewBox="0 0 25 24" fill="none" xmlns="http://www.w3.org/2000/svg">
<path d="M8.75 6C8.19772 6 7.75 6.44772 7.75 7C7.75 7.55228 8.19772 8 8.75 8H16.75C17.3023 8 17.75 7.55228 17.75 7C17.75 6.44772 17.3023 6 16.75 6H8.75Z" fill="black"/>
<path d="M7.75 12C7.75 11.4477 8.19772 11 8.75 11H16.75C17.3023 11 17.75 11.4477 17.75 12C17.75 12.5523 17.3023 13 16.75 13H8.75C8.19772 13 7.75 12.5523 7.75 12Z" fill="black"/>
<path d="M8.75 16C8.19772 16 7.75 16.4477 7.75 17C7.75 17.5523 8.19772 18 8.75 18H11.4167C11.969 18 12.4167 17.5523 12.4167 17C12.4167 16.4477 11.969 16 11.4167 16H8.75Z" fill="black"/>
<path d="M14.0833 16C13.531 16 13.0833 16.4477 13.0833 17C13.0833 17.5523 13.531 18 14.0833 18H16.75C17.3023 18 17.75 17.5523 17.75 17C17.75 16.4477 17.3023 16 16.75 16H14.0833Z" fill="black"/>
<path fill-rule="evenodd" clip-rule="evenodd" d="M16.2318 21.9012C16.3442 21.9293 16.4533 21.9697 16.5569 22.0215C18.9428 23.2144 21.75 21.4795 21.75 18.812V5C21.75 2.79086 19.9591 1 17.75 1H7.75C5.54086 1 3.75 2.79086 3.75 5V18.812C3.75 21.4795 6.5572 23.2144 8.94308 22.0215C9.04674 21.9697 9.15575 21.9293 9.26818 21.9012L12.2649 21.152C12.5834 21.0724 12.9166 21.0724 13.2351 21.152L16.2318 21.9012ZM5.75 5C5.75 3.89543 6.64543 3 7.75 3H17.75C18.8546 3 19.75 3.89543 19.75 5V18.812C19.75 19.9927 18.5074 20.7607 17.4513 20.2326C17.2172 20.1156 16.9709 20.0244 16.7169 19.9609L13.7201 19.2118C13.0832 19.0525 12.4168 19.0525 11.7799 19.2118L8.78311 19.9609C8.52911 20.0244 8.28283 20.1156 8.04866 20.2326C6.99257 20.7607 5.75 19.9927 5.75 18.812V5Z" fill="black"/>
</svg>
