<svg width="25" height="24" viewBox="0 0 25 24" fill="none" xmlns="http://www.w3.org/2000/svg">
<path d="M22.2071 8.70711C22.5976 8.31658 22.5976 7.68342 22.2071 7.29289L18.2071 3.29289C17.8166 2.90237 17.1834 2.90237 16.7929 3.29289C16.4024 3.68342 16.4024 4.31658 16.7929 4.70711L19.0858 7H10C6.13401 7 3 10.134 3 14C3 17.866 6.13401 21 10 21H19.5C20.0523 21 20.5 20.5523 20.5 20C20.5 19.4477 20.0523 19 19.5 19H10C7.23858 19 5 16.7614 5 14C5 11.2386 7.23858 9 10 9H19.0858L16.7929 11.2929C16.4024 11.6834 16.4024 12.3166 16.7929 12.7071C17.1834 13.0976 17.8166 13.0976 18.2071 12.7071L22.2071 8.70711Z" fill="black"/>
</svg>
