<svg width="25" height="24" viewBox="0 0 25 24" fill="none" xmlns="http://www.w3.org/2000/svg">
<path d="M17.75 4C17.75 3.44772 18.1977 3 18.75 3C19.3023 3 19.75 3.44772 19.75 4V7.2C19.75 7.75229 19.3023 8.2 18.75 8.2H15.6384C15.0862 8.2 14.6384 7.75229 14.6384 7.2C14.6384 6.64772 15.0862 6.2 15.6384 6.2H16.3235C15.2381 5.44066 13.931 5 12.5275 5C8.81078 5 5.75 8.10723 5.75 12C5.75 12.5523 5.30229 13 4.75 13C4.19772 13 3.75 12.5523 3.75 12C3.75 7.05622 7.6534 3 12.5275 3C14.4872 3 16.2933 3.65852 17.75 4.76587V4Z" fill="black"/>
<path d="M7.75 20C7.75 20.5523 7.30228 21 6.75 21C6.19772 21 5.75 20.5523 5.75 20V16.8C5.75 16.2477 6.19772 15.8 6.75 15.8H9.86155C10.4138 15.8 10.8616 16.2477 10.8616 16.8C10.8616 17.3523 10.4138 17.8 9.86155 17.8H9.17654C10.2619 18.5593 11.569 19 12.9725 19C16.6892 19 19.75 15.8928 19.75 12C19.75 11.4477 20.1977 11 20.75 11C21.3023 11 21.75 11.4477 21.75 12C21.75 16.9438 17.8466 21 12.9725 21C11.0128 21 9.20674 20.3415 7.75 19.2341V20Z" fill="black"/>
</svg>
