<svg width="25" height="24" viewBox="0 0 25 24" fill="none" xmlns="http://www.w3.org/2000/svg">
<path d="M17.9742 2.36899C18.3227 1.94053 18.9525 1.87569 19.381 2.22417L22.381 4.66417C22.6024 4.84425 22.7363 5.11034 22.749 5.39545C22.7617 5.68056 22.652 5.95751 22.4475 6.15657L19.4475 9.07657C19.0517 9.46178 18.4186 9.45322 18.0334 9.05746C17.6482 8.66169 17.6567 8.02859 18.0525 7.64337L19.2889 6.43997H10.31C7.2393 6.43997 4.75 8.92927 4.75 12C4.75 12.5523 4.30228 13 3.75 13C3.19772 13 2.75 12.5523 2.75 12C2.75 7.8247 6.13473 4.43997 10.31 4.43997H18.9357L18.119 3.77577C17.6906 3.42729 17.6257 2.79745 17.9742 2.36899Z" fill="black"/>
<path d="M7.5258 21.631C7.17732 22.0594 6.54748 22.1243 6.11902 21.7758L3.11902 19.3358C2.89762 19.1557 2.7637 18.8896 2.75099 18.6045C2.73829 18.3194 2.84801 18.0424 3.05252 17.8434L6.05251 14.9234C6.44828 14.5382 7.08138 14.5467 7.4666 14.9425C7.85181 15.3382 7.84325 15.9714 7.44749 16.3566L6.21111 17.56H15.19C18.2607 17.56 20.75 15.0707 20.75 12C20.75 11.4477 21.1977 11 21.75 11C22.3023 11 22.75 11.4477 22.75 12C22.75 16.1752 19.3653 19.56 15.19 19.56H6.56434L7.38098 20.2242C7.80944 20.5727 7.87428 21.2025 7.5258 21.631Z" fill="black"/>
<path d="M13.5036 9.8477C13.5036 9.2289 13.0019 8.72727 12.3831 8.72727C12.1709 8.72727 11.9631 8.78753 11.7838 8.90105L10.5268 9.69687C10.3593 9.80291 10.2578 9.98733 10.2578 10.1856C10.2578 10.6402 10.7582 11.1171 11.1434 10.8756L11.6435 10.5659C11.6907 10.5367 11.8202 10.4758 11.8721 10.456C11.9193 10.438 11.9659 10.4744 11.9659 10.5251V15.2312C11.9659 15.6558 12.3101 16 12.7347 16C13.1593 16 13.5036 15.6558 13.5036 15.2312V9.8477Z" fill="black"/>
</svg>
