<svg width="25" height="24" viewBox="0 0 25 24" fill="none" xmlns="http://www.w3.org/2000/svg">
<path d="M19.381 2.2242C18.9525 1.87572 18.3227 1.94056 17.9742 2.36902C17.6257 2.79748 17.6906 3.42732 18.119 3.7758L18.9357 4.44H10.31C6.13473 4.44 2.75 7.82473 2.75 12C2.75 12.5523 3.19772 13 3.75 13C4.30228 13 4.75 12.5523 4.75 12C4.75 8.9293 7.2393 6.44 10.31 6.44H19.2889L18.0525 7.6434C17.6567 8.02862 17.6482 8.66172 18.0334 9.05749C18.4186 9.45325 19.0517 9.46181 19.4475 9.0766L22.4475 6.1566C22.652 5.95754 22.7617 5.68059 22.749 5.39548C22.7363 5.11037 22.6024 4.84428 22.381 4.6642L19.381 2.2242Z" fill="black"/>
<path d="M6.11902 21.7758C6.54748 22.1243 7.17732 22.0594 7.5258 21.631C7.87428 21.2025 7.80944 20.5727 7.38098 20.2242L6.56434 19.56H15.19C19.3653 19.56 22.75 16.1753 22.75 12C22.75 11.4477 22.3023 11 21.75 11C21.1977 11 20.75 11.4477 20.75 12C20.75 15.0707 18.2607 17.56 15.19 17.56H6.21111L7.44749 16.3566C7.84325 15.9714 7.85181 15.3383 7.4666 14.9425C7.08138 14.5467 6.44828 14.5382 6.05251 14.9234L3.05252 17.8434C2.84801 18.0425 2.73829 18.3194 2.75099 18.6045C2.7637 18.8896 2.89762 19.1557 3.11902 19.3358L6.11902 21.7758Z" fill="black"/>
</svg>
