<svg width="25" height="24" viewBox="0 0 25 24" fill="none" xmlns="http://www.w3.org/2000/svg">
<path d="M14.002 7.70833C13.5778 7.35477 12.9472 7.41209 12.5936 7.83637C12.309 8.17796 12.2907 8.65328 12.5158 9.01009C11.1578 9.78023 10.2495 11.2386 10.2495 12.8989V15.7736C10.2495 16.3259 10.6973 16.7736 11.2495 16.7736C11.8018 16.7736 12.2495 16.3259 12.2495 15.7736V12.8989C12.2495 12.3049 12.46 11.7578 12.812 11.3304C12.8982 11.5558 13.0658 11.7509 13.2987 11.8674C13.7927 12.1143 14.3934 11.9141 14.6403 11.4201L15.4007 9.89946C15.4819 9.74421 15.5234 9.56561 15.5123 9.37797C15.4954 9.08987 15.3581 8.83745 15.1521 8.66672L14.002 7.70833Z" fill="black"/>
<path fill-rule="evenodd" clip-rule="evenodd" d="M2.66376 9.17156C1.10166 10.7337 1.10166 13.2663 2.66376 14.8284L9.42113 21.5858C10.9832 23.1479 13.5159 23.1479 15.078 21.5858L21.8354 14.8284C23.3975 13.2663 23.3975 10.7337 21.8354 9.17156L15.078 2.41419C13.5159 0.85209 10.9832 0.852091 9.42113 2.41419L2.66376 9.17156ZM4.07797 13.4142C3.29693 12.6332 3.29693 11.3668 4.07797 10.5858L10.8353 3.8284C11.6164 3.04735 12.8827 3.04735 13.6638 3.8284L20.4211 10.5858C21.2022 11.3668 21.2022 12.6332 20.4211 13.4142L13.6638 20.1716C12.8827 20.9526 11.6164 20.9526 10.8353 20.1716L4.07797 13.4142Z" fill="black"/>
</svg>
