<svg width="25" height="24" viewBox="0 0 25 24" fill="none" xmlns="http://www.w3.org/2000/svg">
<path fill-rule="evenodd" clip-rule="evenodd" d="M12.2501 5.99999C10.8693 5.99999 9.75005 7.11928 9.75005 8.49999C9.75005 9.8807 10.8693 11 12.2501 11C13.6308 11 14.7501 9.8807 14.7501 8.49999C14.7501 7.11928 13.6308 5.99999 12.2501 5.99999ZM11.7501 8.49999C11.7501 8.22385 11.9739 7.99999 12.2501 7.99999C12.5262 7.99999 12.7501 8.22385 12.7501 8.49999C12.7501 8.77613 12.5262 8.99999 12.2501 8.99999C11.9739 8.99999 11.7501 8.77613 11.7501 8.49999Z" fill="black"/>
<path fill-rule="evenodd" clip-rule="evenodd" d="M12.8156 1.16228C12.649 1.0539 12.4519 0.996053 12.2501 0.999906C12.0482 0.996053 11.8511 1.0539 11.6845 1.16228C10.7754 1.57521 9.47419 2.50836 8.44201 4.84608C7.70836 6.50766 7.11329 8.871 6.86937 12.2615C6.5892 12.4126 6.33421 12.6155 6.11093 12.8397C5.69147 13.2609 5.31465 13.8246 5.00977 14.5021C4.39813 15.8612 4.0443 17.7457 4.25403 20.0891C4.30019 20.6048 4.73231 21 5.25005 21C6.42213 21 7.17948 20.4188 7.66952 19.8343C7.89502 19.5654 8.074 19.2844 8.2038 19.0807L8.21334 19.0657C8.29227 18.9418 8.34668 18.8587 8.38587 18.802C8.40554 18.7873 8.42475 18.7719 8.44348 18.7557C10.1397 17.2856 11.2667 16.75 12.2501 16.75C13.2334 16.75 14.3605 17.2856 16.0566 18.7557C16.0754 18.7719 16.0946 18.7874 16.1142 18.802C16.1534 18.8587 16.2078 18.9418 16.2868 19.0657L16.2963 19.0807C16.4261 19.2844 16.6051 19.5654 16.8306 19.8343C17.3206 20.4188 18.078 21 19.2501 21C19.7678 21 20.1999 20.6048 20.2461 20.0891C20.4558 17.7457 20.102 15.8612 19.4903 14.5021C19.1855 13.8246 18.8086 13.2609 18.3892 12.8397C18.1659 12.6155 17.9109 12.4126 17.6307 12.2615C17.3868 8.871 16.7917 6.50766 16.0581 4.84608C15.0259 2.50836 13.7247 1.57521 12.8156 1.16228ZM6.75005 17.6514C6.67238 17.7616 6.6046 17.8683 6.54961 17.9548L6.52665 17.9909C6.40865 18.1761 6.30709 18.3337 6.19678 18.4753C6.22707 17.2392 6.45263 16.2527 6.75005 15.5185V17.6514ZM17.7501 17.6514V15.5185C18.0475 16.2527 18.273 17.2392 18.3033 18.4753C18.193 18.3337 18.0915 18.1761 17.9735 17.9909L17.9505 17.9548C17.8955 17.8683 17.8277 17.7616 17.7501 17.6514ZM12.2501 3.11846C11.7333 3.42125 10.9632 4.08766 10.2716 5.65391C9.44659 7.52241 8.73363 10.6759 8.75035 15.988C9.91516 15.2059 11.0487 14.75 12.2501 14.75C13.4515 14.75 14.585 15.2059 15.7498 15.988C15.7665 10.6759 15.0535 7.52241 14.2285 5.65391C13.537 4.08766 12.7668 3.42125 12.2501 3.11846Z" fill="black"/>
<path fill-rule="evenodd" clip-rule="evenodd" d="M11.2435 17.7763C11.4966 17.6397 11.8461 17.5 12.2501 17.5C12.654 17.5 13.0036 17.6397 13.2566 17.7763C13.517 17.9169 13.7441 18.0919 13.9209 18.246C14.1007 18.4026 14.2497 18.5562 14.3531 18.6694C14.4054 18.7266 14.4476 18.7753 14.4778 18.811C14.493 18.829 14.5053 18.8438 14.5144 18.8549L14.5258 18.869L14.5297 18.8738L14.5313 18.8757L14.5319 18.8765C14.532 18.8767 14.5325 18.8772 13.7501 19.5L14.5319 18.8765C14.7257 19.12 14.7957 19.4406 14.7202 19.7425C14.5191 20.5468 14.0875 21.3938 13.7433 21.9961C13.5656 22.3072 13.3993 22.5732 13.2771 22.762C13.2159 22.8566 13.1653 22.9325 13.1294 22.9856C13.1246 22.9928 13.12 22.9996 13.1156 23.006C13.104 23.0231 13.0944 23.0371 13.087 23.0479L13.0748 23.0655L13.0712 23.0707L13.0694 23.0732C13.0694 23.0734 13.0693 23.0735 12.2501 22.5C11.418 23.0547 11.418 23.0546 11.4179 23.0545L11.4163 23.0521L11.4126 23.0466L11.3998 23.0272C11.3889 23.0107 11.3734 22.9869 11.3538 22.9568C11.3146 22.8964 11.2591 22.8101 11.1923 22.7038C11.0592 22.4918 10.8791 22.1972 10.6925 21.868C10.5071 21.5407 10.309 21.1683 10.1436 20.8028C9.98527 20.4527 9.82711 20.0451 9.76366 19.6644C9.71709 19.385 9.79122 19.0989 9.96765 18.8772L10.7501 19.5C9.96765 18.8772 9.96751 18.8774 9.96765 18.8772L9.96885 18.8757L9.97036 18.8738L9.97428 18.869L9.98568 18.8549C9.99484 18.8438 10.0071 18.829 10.0223 18.811C10.0526 18.7753 10.0947 18.7266 10.147 18.6694C10.2504 18.5562 10.3994 18.4026 10.5792 18.246C10.756 18.0919 10.9831 17.9169 11.2435 17.7763ZM11.8758 19.7691C11.9019 19.8334 11.9318 19.9032 11.9658 19.9784C12.0498 20.164 12.148 20.3595 12.2519 20.5541C12.3884 20.2903 12.5148 20.0199 12.6156 19.7613L12.6072 19.754C12.4971 19.6581 12.3931 19.583 12.3063 19.5362C12.2825 19.5233 12.2638 19.5146 12.2501 19.5089C12.2363 19.5146 12.2176 19.5233 12.1938 19.5362C12.107 19.583 12.003 19.6581 11.8929 19.754L11.8758 19.7691Z" fill="black"/>
<path d="M12.2501 22.5L13.0694 23.0732C12.88 23.3439 12.569 23.5037 12.2387 23.4999C11.9084 23.4962 11.6011 23.3294 11.4179 23.0545L12.2501 22.5Z" fill="black"/>
</svg>
