<svg width="25" height="24" viewBox="0 0 25 24" fill="none" xmlns="http://www.w3.org/2000/svg">
<path fill-rule="evenodd" clip-rule="evenodd" d="M18.0895 6.23051C17.1132 5.2542 15.5303 5.2542 14.554 6.23051C13.5777 7.20682 13.5777 8.78973 14.554 9.76604C15.5303 10.7424 17.1132 10.7424 18.0895 9.76604C19.0658 8.78973 19.0658 7.20682 18.0895 6.23051ZM15.9682 7.64472C16.1635 7.44946 16.4801 7.44946 16.6753 7.64472C16.8706 7.83998 16.8706 8.15657 16.6753 8.35183C16.4801 8.54709 16.1635 8.54709 15.9682 8.35183C15.773 8.15657 15.773 7.83998 15.9682 7.64472Z" fill="black"/>
<path fill-rule="evenodd" clip-rule="evenodd" d="M21.6248 2.6949C21.4849 2.54946 21.3046 2.45098 21.1103 2.40986C20.1681 2.05619 18.5768 1.79714 16.1764 2.73591C14.4892 3.39574 12.4088 4.64402 9.85704 6.85328C9.55208 6.7621 9.22844 6.72524 8.91208 6.7259C8.31763 6.72714 7.65256 6.85931 6.95792 7.12277C5.5644 7.65132 3.98167 8.73365 2.47292 10.539C2.14091 10.9363 2.16703 11.5213 2.53313 11.8874C3.36192 12.7162 4.30842 12.8407 5.06821 12.774C5.41782 12.7432 5.74305 12.6711 5.97891 12.6188L5.99625 12.615C6.13966 12.5832 6.23692 12.5629 6.30471 12.5505C6.3289 12.5541 6.35333 12.5567 6.37797 12.5585C8.61681 12.7184 9.7925 13.1365 10.4879 13.8319C11.1832 14.5272 11.6014 15.7029 11.7613 17.9418C11.7631 17.9668 11.7658 17.9916 11.7694 18.0162C11.757 18.0839 11.7367 18.181 11.7051 18.3238L11.7012 18.3412C11.6489 18.577 11.5768 18.9022 11.5461 19.2519C11.4793 20.0116 11.6039 20.9581 12.4327 21.7869C12.7988 22.153 13.3838 22.1792 13.781 21.8471C15.5864 20.3384 16.6687 18.7557 17.1973 17.3621C17.4608 16.6675 17.5929 16.0024 17.5942 15.408C17.5948 15.0914 17.5579 14.7676 17.4666 14.4625C19.6758 11.9108 20.924 9.83046 21.5838 8.14334C22.5226 5.74297 22.2636 4.1516 21.9099 3.20948C21.8688 3.01513 21.7703 2.83489 21.6248 2.6949ZM7.37552 9.16631C7.30361 9.23785 7.23138 9.31008 7.15883 9.383L5.96161 10.5802C5.82879 10.6032 5.7054 10.6307 5.60531 10.6531L5.56354 10.6624C5.34915 10.7099 5.16592 10.7495 4.98783 10.7716C5.88327 9.91896 6.74034 9.38087 7.46981 9.07203L7.37552 9.16631ZM8.57974 10.7905L8.55201 10.8184C9.9287 11.089 11.0526 11.5682 11.9021 12.4177C12.7516 13.2672 13.2307 14.391 13.5013 15.7677C17.2493 12.0432 18.9768 9.31835 19.7212 7.41488C20.353 5.79944 20.2786 4.77455 20.1268 4.19296C19.5452 4.0411 18.5203 3.96674 16.9049 4.59852C15.0408 5.32755 12.3889 6.99932 8.78196 10.5883L8.57974 10.7905ZM15.248 16.8503L13.7398 18.3584C13.7169 18.4913 13.6893 18.6147 13.667 18.7148L13.6577 18.7565C13.6102 18.9709 13.5706 19.1541 13.5485 19.3322C14.4011 18.4368 14.9392 17.5797 15.248 16.8503Z" fill="black"/>
<path fill-rule="evenodd" clip-rule="evenodd" d="M9.0506 13.846C9.3261 13.9283 9.67209 14.0767 9.9577 14.3623C10.2433 14.648 10.3917 14.9939 10.474 15.2694C10.5587 15.553 10.5956 15.8373 10.6117 16.0713C10.6281 16.3092 10.6248 16.5231 10.6179 16.6763C10.6144 16.7538 10.6098 16.818 10.6059 16.8647C10.604 16.8881 10.6022 16.9072 10.6008 16.9216L10.5989 16.9396L10.5982 16.9458L10.598 16.9482L10.5979 16.9492C10.5978 16.9494 10.5978 16.9501 9.60415 16.8372L10.5979 16.9492C10.5627 17.2584 10.3855 17.5346 10.1186 17.6947C9.40779 18.1212 8.50362 18.4149 7.83433 18.5975C7.4887 18.6917 7.18306 18.7623 6.96315 18.8094C6.85292 18.833 6.76352 18.8509 6.70057 18.8631C6.66908 18.8692 6.64416 18.8739 6.6265 18.8771L6.60553 18.8809L6.59929 18.8821L6.59621 18.8826C6.59607 18.8826 6.59595 18.8827 6.42216 17.8979C5.44158 17.7018 5.4416 17.7017 5.44162 17.7016L5.4422 17.6987L5.4435 17.6923L5.44815 17.6695C5.45215 17.6501 5.45794 17.6223 5.46542 17.5871C5.48038 17.5167 5.50217 17.4165 5.53012 17.2941C5.58585 17.05 5.66685 16.7143 5.76771 16.3497C5.868 15.9871 5.99125 15.5837 6.13281 15.2083C6.26836 14.8488 6.44475 14.4487 6.66909 14.1347C6.83375 13.9041 7.08846 13.7543 7.36995 13.7223L7.48282 14.7159C7.36995 13.7223 7.36973 13.7223 7.36995 13.7223L7.37186 13.7221L7.37426 13.7218L7.38048 13.7211L7.39845 13.7193C7.41283 13.7179 7.43198 13.7161 7.45538 13.7141C7.50207 13.7102 7.56629 13.7057 7.64377 13.7022C7.79691 13.6952 8.01084 13.692 8.24876 13.7084C8.4827 13.7245 8.767 13.7613 9.0506 13.846ZM8.08857 15.7022C8.06153 15.7661 8.03332 15.8367 8.0042 15.9139C7.93236 16.1045 7.86356 16.3121 7.79947 16.5232C8.08245 16.4332 8.36307 16.3314 8.61715 16.2198L8.61642 16.2088C8.60637 16.063 8.58594 15.9365 8.5577 15.8419C8.54995 15.816 8.54287 15.7967 8.53721 15.7828C8.52337 15.7772 8.50404 15.7701 8.47812 15.7623C8.38359 15.7341 8.25706 15.7137 8.11129 15.7036L8.08857 15.7022Z" fill="black"/>
<path d="M6.42216 17.8979L6.59621 18.8826C6.2709 18.94 5.93798 18.8331 5.70707 18.5969C5.47616 18.3607 5.37684 18.0255 5.44162 17.7016L6.42216 17.8979Z" fill="black"/>
</svg>
