<svg width="25" height="24" viewBox="0 0 25 24" fill="none" xmlns="http://www.w3.org/2000/svg">
<path d="M7.34941 4C7.34941 3.44772 6.9017 3 6.34941 3C5.79713 3 5.34941 3.44772 5.34941 4V7.2C5.34941 7.75229 5.79713 8.2 6.34941 8.2H9.55C10.1023 8.2 10.55 7.75229 10.55 7.2C10.55 6.64772 10.1023 6.2 9.55 6.2H8.82925C9.94815 5.44203 11.2974 5 12.75 5C16.616 5 19.75 8.13401 19.75 12C19.75 15.866 16.616 19 12.75 19C8.88401 19 5.75 15.866 5.75 12C5.75 11.4477 5.30228 11 4.75 11C4.19772 11 3.75 11.4477 3.75 12C3.75 16.9706 7.77944 21 12.75 21C17.7206 21 21.75 16.9706 21.75 12C21.75 7.02944 17.7206 3 12.75 3C10.7234 3 8.85327 3.67032 7.34941 4.79997V4Z" fill="black"/>
</svg>
