<svg width="25" height="24" viewBox="0 0 25 24" fill="none" xmlns="http://www.w3.org/2000/svg">
<path d="M18.1506 4C18.1506 3.44772 18.5983 3 19.1506 3C19.7029 3 20.1506 3.44772 20.1506 4V7.2C20.1506 7.75229 19.7029 8.2 19.1506 8.2H15.95C15.3977 8.2 14.95 7.75229 14.95 7.2C14.95 6.64772 15.3977 6.2 15.95 6.2H16.6708C15.5518 5.44203 14.2026 5 12.75 5C8.88401 5 5.75 8.13401 5.75 12C5.75 15.866 8.88401 19 12.75 19C16.616 19 19.75 15.866 19.75 12C19.75 11.4477 20.1977 11 20.75 11C21.3023 11 21.75 11.4477 21.75 12C21.75 16.9706 17.7206 21 12.75 21C7.77944 21 3.75 16.9706 3.75 12C3.75 7.02944 7.77944 3 12.75 3C14.7766 3 16.6467 3.67032 18.1506 4.79997V4Z" fill="black"/>
</svg>
