<svg width="25" height="24" viewBox="0 0 25 24" fill="none" xmlns="http://www.w3.org/2000/svg">
<path fill-rule="evenodd" clip-rule="evenodd" d="M4.50034 6.44995C4.50034 4.93117 5.73156 3.69995 7.25034 3.69995C8.76912 3.69995 10.0003 4.93117 10.0003 6.44995C10.0003 7.96873 8.76912 9.19995 7.25034 9.19995C5.73156 9.19995 4.50034 7.96873 4.50034 6.44995ZM7.25034 5.69995C6.83613 5.69995 6.50034 6.03574 6.50034 6.44995C6.50034 6.86416 6.83613 7.19995 7.25034 7.19995C7.66455 7.19995 8.00034 6.86416 8.00034 6.44995C8.00034 6.03574 7.66455 5.69995 7.25034 5.69995Z" fill="black"/>
<path fill-rule="evenodd" clip-rule="evenodd" d="M14.9703 14.46C14.9703 12.9412 16.2015 11.71 17.7203 11.71C19.2391 11.71 20.4703 12.9412 20.4703 14.46C20.4703 15.9787 19.2391 17.21 17.7203 17.21C16.2015 17.21 14.9703 15.9787 14.9703 14.46ZM17.7203 13.71C17.3061 13.71 16.9703 14.0457 16.9703 14.46C16.9703 14.8742 17.3061 15.21 17.7203 15.21C18.1345 15.21 18.4703 14.8742 18.4703 14.46C18.4703 14.0457 18.1345 13.71 17.7203 13.71Z" fill="black"/>
<path fill-rule="evenodd" clip-rule="evenodd" d="M11.9107 9.30302C13.4186 6.84009 12.7498 3.62902 10.384 1.97293C8.50241 0.655834 5.99809 0.655834 4.11652 1.97293C1.75067 3.62902 1.08186 6.84008 2.58978 9.30302L4.69169 12.7361C4.88673 13.0547 5.1264 13.3202 5.39581 13.5326C5.03438 14.0719 4.76929 14.7479 4.72693 15.5068C4.65646 16.7692 5.20907 18.1006 6.61019 19.2682C7.99963 20.4261 10.0697 21.1257 11.9912 21.5626C13.9467 22.0072 15.9024 22.2124 17.1839 22.2978C17.3758 22.3106 17.5587 22.2683 17.7171 22.1846C18.7032 22.184 19.6891 21.7062 20.2739 20.751L22.3758 17.3179C23.8837 14.855 23.2149 11.6439 20.8491 9.98782C18.9675 8.67073 16.4632 8.67073 14.5816 9.98782C12.2158 11.6439 11.5469 14.855 13.0549 17.3179L14.7146 20.0289C13.9833 19.9241 13.2067 19.7879 12.4346 19.6124C10.5811 19.191 8.90111 18.5739 7.89055 17.7318C6.89167 16.8994 6.69428 16.1474 6.72382 15.6182C6.75648 15.0332 7.07602 14.5303 7.39057 14.2682C7.43127 14.2343 7.46859 14.1978 7.50249 14.1593C8.40237 14.0847 9.27359 13.6103 9.8088 12.7362L11.9107 9.30302ZM5.26345 3.61139C6.45637 2.77635 8.04413 2.77635 9.23705 3.61139C10.737 4.66137 11.161 6.6972 10.205 8.25872L8.1031 11.6918C7.71302 12.329 6.78748 12.329 6.3974 11.6918L4.29548 8.25872C3.33945 6.6972 3.76348 4.66137 5.26345 3.61139ZM19.7021 11.6263C18.5092 10.7912 16.9215 10.7912 15.7285 11.6263C14.2286 12.6763 13.8045 14.7121 14.7606 16.2736L16.8625 19.7067C17.2526 20.3439 18.1781 20.3439 18.5682 19.7067L20.6701 16.2736C21.6261 14.7121 21.2021 12.6763 19.7021 11.6263Z" fill="black"/>
</svg>
