<svg width="25" height="24" viewBox="0 0 25 24" fill="none" xmlns="http://www.w3.org/2000/svg">
<path fill-rule="evenodd" clip-rule="evenodd" d="M4.75 1.5C3.36929 1.5 2.25 2.61929 2.25 4V9C2.25 10.3807 3.36929 11.5 4.75 11.5H19.75C21.1307 11.5 22.25 10.3807 22.25 9V4C22.25 2.61929 21.1307 1.5 19.75 1.5H4.75ZM4.25 4C4.25 3.72386 4.47386 3.5 4.75 3.5L19.75 3.5C20.0261 3.5 20.25 3.72386 20.25 4V9C20.25 9.27614 20.0261 9.5 19.75 9.5H4.75C4.47386 9.5 4.25 9.27614 4.25 9L4.25 4Z" fill="black"/>
<path fill-rule="evenodd" clip-rule="evenodd" d="M22.25 15C22.25 13.6193 21.1307 12.5 19.75 12.5L4.75 12.5C3.36929 12.5 2.25 13.6193 2.25 15V20C2.25 21.3807 3.36929 22.5 4.75 22.5H19.75C21.1307 22.5 22.25 21.3807 22.25 20V15ZM19.75 14.5C20.0261 14.5 20.25 14.7239 20.25 15V20C20.25 20.2761 20.0261 20.5 19.75 20.5H4.75C4.47386 20.5 4.25 20.2761 4.25 20L4.25 15C4.25 14.7239 4.47386 14.5 4.75 14.5L19.75 14.5Z" fill="black"/>
</svg>
