<svg width="25" height="24" viewBox="0 0 25 24" fill="none" xmlns="http://www.w3.org/2000/svg">
<path d="M2.25 6C2.25 3.79086 4.04086 2 6.25 2H8.25C8.80228 2 9.25 2.44772 9.25 3C9.25 3.55228 8.80228 4 8.25 4H6.25C5.14543 4 4.25 4.89543 4.25 6V8C4.25 8.55228 3.80228 9 3.25 9C2.69772 9 2.25 8.55228 2.25 8V6Z" fill="black"/>
<path d="M22.25 6C22.25 3.79086 20.4591 2 18.25 2H16.25C15.6977 2 15.25 2.44772 15.25 3C15.25 3.55228 15.6977 4 16.25 4H18.25C19.3546 4 20.25 4.89543 20.25 6V8C20.25 8.55228 20.6977 9 21.25 9C21.8023 9 22.25 8.55228 22.25 8V6Z" fill="black"/>
<path d="M6.25 22C4.04086 22 2.25 20.2091 2.25 18V16C2.25 15.4477 2.69772 15 3.25 15C3.80228 15 4.25 15.4477 4.25 16V18C4.25 19.1046 5.14543 20 6.25 20H8.25C8.80228 20 9.25 20.4477 9.25 21C9.25 21.5523 8.80228 22 8.25 22H6.25Z" fill="black"/>
<path d="M22.25 18C22.25 20.2091 20.4591 22 18.25 22H16.25C15.6977 22 15.25 21.5523 15.25 21C15.25 20.4477 15.6977 20 16.25 20H18.25C19.3546 20 20.25 19.1046 20.25 18V16C20.25 15.4477 20.6977 15 21.25 15C21.8023 15 22.25 15.4477 22.25 16V18Z" fill="black"/>
<path d="M2.25 12C1.69772 12 1.25 12.4477 1.25 13C1.25 13.5523 1.69772 14 2.25 14H22.25C22.8023 14 23.25 13.5523 23.25 13C23.25 12.4477 22.8023 12 22.25 12H2.25Z" fill="black"/>
</svg>
