<svg width="25" height="24" viewBox="0 0 25 24" fill="none" xmlns="http://www.w3.org/2000/svg">
<path fill-rule="evenodd" clip-rule="evenodd" d="M16.6653 3.40275C16.8877 2.89723 16.6583 2.30712 16.1527 2.08469C15.6472 1.86227 15.0571 2.09175 14.8347 2.59727L12.75 7.33519L10.6653 2.59727C10.4429 2.09175 9.85278 1.86227 9.34726 2.08469C8.84175 2.30712 8.61226 2.89723 8.83468 3.40275L11.6575 9.81819L9.7608 14.1288C9.43793 14.0448 9.09919 14 8.75 14C6.54086 14 4.75 15.7909 4.75 18C4.75 20.2091 6.54086 22 8.75 22C10.9591 22 12.75 20.2091 12.75 18C12.75 20.2091 14.5409 22 16.75 22C18.9591 22 20.75 20.2091 20.75 18C20.75 15.7909 18.9591 14 16.75 14C16.4008 14 16.0621 14.0448 15.7392 14.1288L13.8425 9.81819L16.6653 3.40275ZM15.4501 16.48C15.5184 16.466 15.5863 16.4445 15.6527 16.4153C15.8007 16.3502 15.9249 16.2537 16.0212 16.137C16.247 16.0485 16.4928 16 16.75 16C17.8546 16 18.75 16.8954 18.75 18C18.75 19.1046 17.8546 20 16.75 20C15.6454 20 14.75 19.1046 14.75 18C14.75 17.3917 15.0216 16.8468 15.4501 16.48ZM13.9855 15.1091C13.2242 15.8373 12.75 16.8633 12.75 18C12.75 16.8633 12.2758 15.8373 11.5145 15.1091L12.75 12.3012L13.9855 15.1091ZM9.47881 16.137C9.57505 16.2537 9.69934 16.3502 9.84726 16.4153C9.91368 16.4445 9.98157 16.466 10.0499 16.48C10.4784 16.8468 10.75 17.3917 10.75 18C10.75 19.1046 9.85457 20 8.75 20C7.64543 20 6.75 19.1046 6.75 18C6.75 16.8954 7.64543 16 8.75 16C9.00716 16 9.25298 16.0485 9.47881 16.137Z" fill="black"/>
</svg>
