<svg width="25" height="24" viewBox="0 0 25 24" fill="none" xmlns="http://www.w3.org/2000/svg">
<path d="M6.75 2C4.54086 2 2.75 3.79086 2.75 6V8C2.75 8.55228 3.19772 9 3.75 9C4.30228 9 4.75 8.55228 4.75 8V6C4.75 4.89543 5.64543 4 6.75 4H8.75C9.30228 4 9.75 3.55228 9.75 3C9.75 2.44772 9.30228 2 8.75 2H6.75Z" fill="black"/>
<path d="M18.75 2C20.9591 2 22.75 3.79086 22.75 6V8C22.75 8.55228 22.3023 9 21.75 9C21.1977 9 20.75 8.55228 20.75 8V6C20.75 4.89543 19.8546 4 18.75 4H16.75C16.1977 4 15.75 3.55228 15.75 3C15.75 2.44772 16.1977 2 16.75 2H18.75Z" fill="black"/>
<path d="M2.75 18C2.75 20.2091 4.54086 22 6.75 22H8.75C9.30228 22 9.75 21.5523 9.75 21C9.75 20.4477 9.30228 20 8.75 20H6.75C5.64543 20 4.75 19.1046 4.75 18V16C4.75 15.4477 4.30228 15 3.75 15C3.19772 15 2.75 15.4477 2.75 16V18Z" fill="black"/>
<path d="M18.75 22C20.9591 22 22.75 20.2091 22.75 18V16C22.75 15.4477 22.3023 15 21.75 15C21.1977 15 20.75 15.4477 20.75 16V18C20.75 19.1046 19.8546 20 18.75 20H16.75C16.1977 20 15.75 20.4477 15.75 21C15.75 21.5523 16.1977 22 16.75 22H18.75Z" fill="black"/>
<path d="M8.65973 10.079C8.94838 10.1752 9.17488 10.4017 9.2711 10.6904C9.36902 10.9841 9.78454 10.9841 9.88247 10.6904C9.97868 10.4017 10.2052 10.1752 10.4938 10.079C10.7876 9.98107 10.7876 9.56554 10.4938 9.46762C10.2052 9.3714 9.97868 9.1449 9.88247 8.85625C9.78454 8.56249 9.36902 8.56249 9.2711 8.85625C9.17488 9.1449 8.94838 9.3714 8.65973 9.46762C8.36596 9.56554 8.36596 9.98107 8.65973 10.079Z" fill="black"/>
<path fill-rule="evenodd" clip-rule="evenodd" d="M5.75 9.6001C5.75 7.39096 7.54086 5.6001 9.75 5.6001H15.75C17.9591 5.6001 19.75 7.39096 19.75 9.6001V14.4001C19.75 14.5205 19.7447 14.6396 19.7343 14.7573C19.7447 14.8511 19.75 14.946 19.75 15.0416C19.75 16.8964 18.2463 18.4001 16.3915 18.4001H9.75C7.54086 18.4001 5.75 16.6092 5.75 14.4001V9.6001ZM14.1913 16.4001H15.75C16.7103 16.4001 17.5125 15.7233 17.7057 14.8208C17.6628 14.7182 17.5903 14.6288 17.4951 14.5654L15.622 13.3166C15.1698 13.0152 14.5597 13.13 14.2481 13.5752L13.3721 14.8266C12.9081 15.4894 13.3823 16.4001 14.1913 16.4001ZM17.75 12.3316V9.6001C17.75 8.49553 16.8546 7.6001 15.75 7.6001H9.75C8.64543 7.6001 7.75 8.49553 7.75 9.6001V14.4001C7.75 14.894 7.92904 15.3461 8.22575 15.695C8.29018 15.4593 8.39486 15.235 8.53652 15.0325L9.93855 13.028C10.6341 12.0337 11.8797 11.632 12.9973 11.9765C13.9925 11.0263 15.5436 10.8607 16.7314 11.6525L17.75 12.3316ZM11.3052 14.5635C11.1226 15.1831 11.1564 15.8239 11.3622 16.4001H10.2907C10.2132 16.3998 10.15 16.3369 10.15 16.2594C10.15 16.2306 10.1589 16.2024 10.1754 16.1788L11.3052 14.5635Z" fill="black"/>
</svg>
