<svg width="25" height="24" viewBox="0 0 25 24" fill="none" xmlns="http://www.w3.org/2000/svg">
<path fill-rule="evenodd" clip-rule="evenodd" d="M11.25 2C6.27944 2 2.25 6.02944 2.25 11C2.25 15.9706 6.27944 20 11.25 20C13.375 20 15.328 19.2635 16.8677 18.0319L20.5429 21.7071C20.9334 22.0976 21.5666 22.0976 21.9571 21.7071C22.3476 21.3166 22.3476 20.6834 21.9571 20.2929L18.2819 16.6177C19.5135 15.078 20.25 13.125 20.25 11C20.25 6.02944 16.2206 2 11.25 2ZM4.25 11C4.25 7.13401 7.38401 4 11.25 4C15.116 4 18.25 7.13401 18.25 11C18.25 14.866 15.116 18 11.25 18C7.38401 18 4.25 14.866 4.25 11Z" fill="black"/>
</svg>
