<svg width="25" height="24" viewBox="0 0 25 24" fill="none" xmlns="http://www.w3.org/2000/svg">
<path fill-rule="evenodd" clip-rule="evenodd" d="M5.77498 12.836C6.42569 13.5089 7.38663 13.7534 8.26332 13.5009C7.60635 14.1339 7.33756 15.0883 7.59502 15.9883L8.71093 19.8893C9.28525 21.897 11.9222 22.3574 13.1429 20.6631L22.2065 8.08331C23.4664 6.33463 22.071 3.91781 19.9267 4.13458L4.50044 5.69397C2.42279 5.90399 1.50305 8.41784 2.95462 9.91908L5.77498 12.836ZM9.72125 14.8848L19.5737 8.31613L11.5202 19.494C11.276 19.8329 10.7487 19.7408 10.6338 19.3392L9.51789 15.4383C9.45807 15.2292 9.54029 15.0054 9.72125 14.8848ZM7.79384 11.5464L18.4087 6.29822L4.70158 7.68383L4.60101 6.6889L4.70158 7.68383C4.28605 7.72583 4.10211 8.2286 4.39242 8.52885L7.21279 11.4457C7.36396 11.6021 7.59888 11.6428 7.79384 11.5464Z" fill="black"/>
</svg>
