<svg width="25" height="24" viewBox="0 0 25 24" fill="none" xmlns="http://www.w3.org/2000/svg">
<path fill-rule="evenodd" clip-rule="evenodd" d="M21.1216 9.72024C23.0871 10.6047 23.0871 13.3954 21.1216 14.2798L6.9824 20.6425C5.07809 21.4994 3.02466 19.7822 3.53113 17.7564L4.5152 13.8201C4.74224 12.9119 5.45223 12.2198 6.33769 12C5.45223 11.7803 4.74224 11.0882 4.5152 10.18L3.53113 6.24374C3.02466 4.21784 5.07809 2.50066 6.9824 3.35759L21.1216 9.72024ZM18.7252 10.835L6.16167 5.18144C5.78081 5.01005 5.37012 5.35349 5.47142 5.75866L6.45548 9.69494C6.50823 9.90593 6.69133 10.0586 6.90837 10.0726L18.7252 10.835ZM18.7252 13.1651L6.90837 13.9275C6.69133 13.9415 6.50823 14.0942 6.45548 14.3051L5.47142 18.2414C5.37012 18.6466 5.78081 18.99 6.16167 18.8186L18.7252 13.1651Z" fill="black"/>
<path d="M17.3439 5.63079C17.825 5.79115 18.2025 6.16866 18.3628 6.64974C18.526 7.13935 19.2186 7.13935 19.3818 6.64974C19.5421 6.16866 19.9197 5.79115 20.4007 5.63079C20.8903 5.46759 20.8903 4.77505 20.4007 4.61185C19.9197 4.45149 19.5421 4.07398 19.3818 3.5929C19.2186 3.10329 18.526 3.10329 18.3628 3.5929C18.2025 4.07398 17.825 4.45149 17.3439 4.61185C16.8543 4.77505 16.8543 5.46759 17.3439 5.63079Z" fill="black"/>
</svg>
