<svg width="25" height="24" viewBox="0 0 25 24" fill="none" xmlns="http://www.w3.org/2000/svg">
<path fill-rule="evenodd" clip-rule="evenodd" d="M20.6197 14.2798C22.5851 13.3954 22.5851 10.6047 20.6197 9.72024L6.48045 3.35759C4.57614 2.50066 2.52271 4.21784 3.02918 6.24374L4.01325 10.18C4.24029 11.0882 4.95027 11.7803 5.83573 12C4.95027 12.2198 4.24029 12.9119 4.01325 13.8201L3.02918 17.7564C2.52271 19.7822 4.57614 21.4994 6.48045 20.6425L20.6197 14.2798ZM5.65972 5.18144L18.2232 10.835L6.40641 10.0726C6.18937 10.0586 6.00628 9.90593 5.95353 9.69494L4.96946 5.75866C4.86817 5.35349 5.27886 5.01005 5.65972 5.18144ZM6.40641 13.9275L18.2232 13.1651L5.65972 18.8186C5.27885 18.99 4.86817 18.6466 4.96946 18.2414L5.95353 14.3051C6.00628 14.0942 6.18937 13.9415 6.40641 13.9275Z" fill="black"/>
</svg>
