<svg width="25" height="24" viewBox="0 0 25 24" fill="none" xmlns="http://www.w3.org/2000/svg">
<path d="M15.25 6.5C14.6977 6.5 14.25 6.94772 14.25 7.5C14.25 8.05228 14.6977 8.5 15.25 8.5H19.75C20.3023 8.5 20.75 8.05228 20.75 7.5C20.75 6.94772 20.3023 6.5 19.75 6.5H15.25Z" fill="black"/>
<path d="M9.75 7.5C9.75 6.94772 10.1977 6.5 10.75 6.5H12.75C13.3023 6.5 13.75 6.94772 13.75 7.5C13.75 8.05228 13.3023 8.5 12.75 8.5H10.75C10.1977 8.5 9.75 8.05228 9.75 7.5Z" fill="black"/>
<path fill-rule="evenodd" clip-rule="evenodd" d="M5.25 3.5C3.04086 3.5 1.25 5.29086 1.25 7.5C1.25 9.70914 3.04086 11.5 5.25 11.5H19.25C21.4591 11.5 23.25 9.70914 23.25 7.5C23.25 5.29086 21.4591 3.5 19.25 3.5H5.25ZM19.25 5.5C20.3546 5.5 21.25 6.39543 21.25 7.5C21.25 8.60457 20.3546 9.5 19.25 9.5H5.25C4.14543 9.5 3.25 8.60457 3.25 7.5C3.25 6.39543 4.14543 5.5 5.25 5.5H19.25Z" fill="black"/>
<path d="M14.25 16.5C14.25 15.9477 14.6977 15.5 15.25 15.5H19.75C20.3023 15.5 20.75 15.9477 20.75 16.5C20.75 17.0523 20.3023 17.5 19.75 17.5H15.25C14.6977 17.5 14.25 17.0523 14.25 16.5Z" fill="black"/>
<path d="M10.75 15.5C10.1977 15.5 9.75 15.9477 9.75 16.5C9.75 17.0523 10.1977 17.5 10.75 17.5H12.75C13.3023 17.5 13.75 17.0523 13.75 16.5C13.75 15.9477 13.3023 15.5 12.75 15.5H10.75Z" fill="black"/>
<path fill-rule="evenodd" clip-rule="evenodd" d="M5.25 12.5C3.04086 12.5 1.25 14.2909 1.25 16.5C1.25 18.7091 3.04086 20.5 5.25 20.5H19.25C21.4591 20.5 23.25 18.7091 23.25 16.5C23.25 14.2909 21.4591 12.5 19.25 12.5H5.25ZM19.25 14.5C20.3546 14.5 21.25 15.3954 21.25 16.5C21.25 17.6046 20.3546 18.5 19.25 18.5H5.25C4.14543 18.5 3.25 17.6046 3.25 16.5C3.25 15.3954 4.14543 14.5 5.25 14.5H19.25Z" fill="black"/>
</svg>
