<svg width="25" height="24" viewBox="0 0 25 24" fill="none" xmlns="http://www.w3.org/2000/svg">
<path d="M14.25 17.5C14.25 16.9477 14.6977 16.5 15.25 16.5H19.75C20.3023 16.5 20.75 16.9477 20.75 17.5C20.75 18.0523 20.3023 18.5 19.75 18.5H15.25C14.6977 18.5 14.25 18.0523 14.25 17.5Z" fill="black"/>
<path d="M10.75 16.5C10.1977 16.5 9.75 16.9477 9.75 17.5C9.75 18.0523 10.1977 18.5 10.75 18.5H12.75C13.3023 18.5 13.75 18.0523 13.75 17.5C13.75 16.9477 13.3023 16.5 12.75 16.5H10.75Z" fill="black"/>
<path fill-rule="evenodd" clip-rule="evenodd" d="M23.25 17.5V6C23.25 3.79086 21.4591 2 19.25 2H5.25C3.04086 2 1.25 3.79086 1.25 6V17.5C1.25 19.7091 3.04086 21.5 5.25 21.5H19.25C21.4591 21.5 23.25 19.7091 23.25 17.5ZM5.25 4C4.14543 4 3.25 4.89543 3.25 6V14.0351C3.83835 13.6948 4.52143 13.5 5.25 13.5H19.25C19.9786 13.5 20.6617 13.6948 21.25 14.0351V6C21.25 4.89543 20.3546 4 19.25 4H5.25ZM21.25 17.5C21.25 16.3954 20.3546 15.5 19.25 15.5H5.25C4.14543 15.5 3.25 16.3954 3.25 17.5C3.25 18.6046 4.14543 19.5 5.25 19.5H19.25C20.3546 19.5 21.25 18.6046 21.25 17.5Z" fill="black"/>
</svg>
