<svg width="25" height="24" viewBox="0 0 25 24" fill="none" xmlns="http://www.w3.org/2000/svg">
<path fill-rule="evenodd" clip-rule="evenodd" d="M12.2494 6.00003C8.93567 6.00003 6.24938 8.68632 6.24938 12C6.24938 15.3137 8.93567 18 12.2494 18C15.5631 18 18.2494 15.3137 18.2494 12C18.2494 8.68632 15.5631 6.00003 12.2494 6.00003ZM8.24938 12C8.24938 9.79089 10.0402 8.00003 12.2494 8.00003C14.4585 8.00003 16.2494 9.79089 16.2494 12C16.2494 14.2092 14.4585 16 12.2494 16C10.0402 16 8.24938 14.2092 8.24938 12Z" fill="black"/>
<path fill-rule="evenodd" clip-rule="evenodd" d="M14.7512 2.02893C13.3563 0.679484 11.1425 0.679484 9.74757 2.02893C9.39327 2.37168 8.90062 2.53175 8.41252 2.46271C6.49082 2.1909 4.69984 3.49213 4.36451 5.40377C4.27934 5.88931 3.97487 6.30838 3.5394 6.53943C1.82495 7.44907 1.14085 9.55451 1.9932 11.2982C2.20969 11.741 2.20969 12.259 1.9932 12.7019C1.14085 14.4456 1.82495 16.551 3.5394 17.4606C3.97487 17.6917 4.27934 18.1107 4.36451 18.5963C4.69984 20.5079 6.49083 21.8092 8.41252 21.5373C8.90062 21.4683 9.39327 21.6284 9.74757 21.9711C11.1425 23.3206 13.3563 23.3206 14.7512 21.9711C15.1055 21.6284 15.5981 21.4683 16.0862 21.5373C18.0079 21.8092 19.7989 20.5079 20.1343 18.5963C20.2194 18.1107 20.5239 17.6917 20.9594 17.4606C22.6738 16.551 23.3579 14.4456 22.5056 12.7019C22.2891 12.259 22.2891 11.741 22.5056 11.2982C23.3579 9.5545 22.6738 7.44907 20.9594 6.53943C20.5239 6.30838 20.2194 5.88931 20.1343 5.40377C19.7989 3.49213 18.0079 2.1909 16.0862 2.46271C15.5981 2.53175 15.1055 2.37168 14.7512 2.02893ZM11.1382 3.46638C11.7577 2.867 12.741 2.867 13.3606 3.46638C14.1583 4.23805 15.2674 4.59844 16.3663 4.443C17.2199 4.32227 18.0154 4.90023 18.1643 5.74932C18.3561 6.84248 19.0416 7.78598 20.022 8.30615C20.7835 8.71019 21.0873 9.64535 20.7087 10.4198C20.2213 11.4169 20.2213 12.5831 20.7087 13.5802C21.0873 14.3547 20.7835 15.2899 20.022 15.6939C19.0416 16.2141 18.3561 17.1576 18.1643 18.2507C18.0154 19.0998 17.2199 19.6778 16.3663 19.5571C15.2674 19.4016 14.1583 19.762 13.3606 20.5337C12.741 21.1331 11.7577 21.1331 11.1382 20.5337C10.3405 19.762 9.23134 19.4016 8.13242 19.5571C7.27887 19.6778 6.48337 19.0998 6.33443 18.2507C6.14268 17.1576 5.45718 16.2141 4.47678 15.6939C3.71528 15.2899 3.41143 14.3547 3.79001 13.5802C4.27742 12.5831 4.27742 11.4169 3.79001 10.4198C3.41143 9.64535 3.71528 8.71019 4.47678 8.30615C5.45718 7.78598 6.14268 6.84248 6.33443 5.74932C6.48337 4.90024 7.27887 4.32227 8.13242 4.443C9.23134 4.59844 10.3405 4.23805 11.1382 3.46638Z" fill="black"/>
</svg>
