<svg width="25" height="24" viewBox="0 0 25 24" fill="none" xmlns="http://www.w3.org/2000/svg">
<path fill-rule="evenodd" clip-rule="evenodd" d="M8.25 3V5.12602C9.97523 5.57006 11.25 7.13616 11.25 9C11.25 10.8638 9.97523 12.4299 8.25 12.874V21C8.25 21.5523 7.80228 22 7.25 22C6.69772 22 6.25 21.5523 6.25 21L6.25 12.874C4.52477 12.4299 3.25 10.8638 3.25 9C3.25 7.13616 4.52477 5.57006 6.25 5.12602L6.25 3C6.25 2.44772 6.69772 2 7.25 2C7.80228 2 8.25 2.44772 8.25 3ZM5.25 9C5.25 7.89543 6.14543 7 7.25 7C8.35457 7 9.25 7.89543 9.25 9C9.25 10.1046 8.35457 11 7.25 11C6.14543 11 5.25 10.1046 5.25 9Z" fill="black"/>
<path fill-rule="evenodd" clip-rule="evenodd" d="M16.25 18.874V21C16.25 21.5523 16.6977 22 17.25 22C17.8023 22 18.25 21.5523 18.25 21V18.874C19.9752 18.4299 21.25 16.8638 21.25 15C21.25 13.1362 19.9752 11.5701 18.25 11.126V3C18.25 2.44772 17.8023 2 17.25 2C16.6977 2 16.25 2.44772 16.25 3V11.126C14.5248 11.5701 13.25 13.1362 13.25 15C13.25 16.8638 14.5248 18.4299 16.25 18.874ZM19.25 15C19.25 13.8954 18.3546 13 17.25 13C16.1454 13 15.25 13.8954 15.25 15C15.25 16.1046 16.1454 17 17.25 17C18.3546 17 19.25 16.1046 19.25 15Z" fill="black"/>
</svg>
