<svg width="25" height="24" viewBox="0 0 25 24" fill="none" xmlns="http://www.w3.org/2000/svg">
<path fill-rule="evenodd" clip-rule="evenodd" d="M15.25 3C17.1138 3 18.6799 4.27477 19.124 6H21.25C21.8023 6 22.25 6.44772 22.25 7C22.25 7.55228 21.8023 8 21.25 8H19.124C18.6799 9.72523 17.1138 11 15.25 11C13.3862 11 11.8201 9.72523 11.376 8L3.25 8C2.69772 8 2.25 7.55228 2.25 7C2.25 6.44772 2.69772 6 3.25 6L11.376 6C11.8201 4.27477 13.3862 3 15.25 3ZM15.25 5C16.3546 5 17.25 5.89543 17.25 7C17.25 8.10457 16.3546 9 15.25 9C14.1454 9 13.25 8.10457 13.25 7C13.25 5.89543 14.1454 5 15.25 5Z" fill="black"/>
<path fill-rule="evenodd" clip-rule="evenodd" d="M5.37602 16H3.25C2.69772 16 2.25 16.4477 2.25 17C2.25 17.5523 2.69772 18 3.25 18H5.37602C5.82006 19.7252 7.38616 21 9.25 21C11.1138 21 12.6799 19.7252 13.124 18L21.25 18C21.8023 18 22.25 17.5523 22.25 17C22.25 16.4477 21.8023 16 21.25 16L13.124 16C12.6799 14.2748 11.1138 13 9.25 13C7.38616 13 5.82006 14.2748 5.37602 16ZM9.25 19C10.3546 19 11.25 18.1046 11.25 17C11.25 15.8954 10.3546 15 9.25 15C8.14543 15 7.25 15.8954 7.25 17C7.25 18.1046 8.14543 19 9.25 19Z" fill="black"/>
</svg>
