<svg width="25" height="24" viewBox="0 0 25 24" fill="none" xmlns="http://www.w3.org/2000/svg">
<path fill-rule="evenodd" clip-rule="evenodd" d="M18.3123 2.81447C16.7782 2.00392 15.25 3.26041 15.25 4.7434C15.25 4.80762 15.2259 4.8757 15.1624 4.94123C15.0954 5.01022 14.995 5.06323 14.8802 5.07625C10.7556 5.54425 7.95357 8.08723 6.15487 10.9726C4.36507 13.8438 3.50604 17.1406 3.25616 19.3896C3.20577 19.843 3.4687 20.2731 3.89528 20.4349C4.32185 20.5968 4.8039 20.4494 5.06701 20.0767C5.94955 18.8264 7.50333 17.018 9.36432 15.5264C11.2461 14.0181 13.2997 12.9482 15.2074 12.9214L15.2091 12.9232C15.2257 12.9417 15.25 12.9864 15.25 13.0513C15.25 14.647 16.961 15.8519 18.4816 14.9396C19.7439 14.1822 21.1616 13.1527 22.1499 11.9716C23.1185 10.8138 23.8735 9.24957 23.1692 7.60606C22.1704 5.27566 19.9724 3.69153 18.3123 2.81447ZM17.25 4.7434C17.25 4.64747 17.2935 4.59759 17.3206 4.57942C17.3337 4.5706 17.3415 4.57009 17.3415 4.57009C17.3415 4.57009 17.3439 4.56994 17.348 4.57082C17.352 4.57169 17.362 4.57435 17.378 4.58283C18.8901 5.38174 20.6007 6.69009 21.3309 8.3939C21.5842 8.98496 21.418 9.72954 20.616 10.6881C19.8335 11.6233 18.6308 12.5176 17.4526 13.2246C17.4179 13.2454 17.3981 13.2462 17.3896 13.246C17.3776 13.2458 17.3594 13.2421 17.3376 13.2288C17.2944 13.2025 17.25 13.1466 17.25 13.0513C17.25 12.007 16.4667 10.9055 15.1905 10.9215C12.6117 10.9537 10.1195 12.358 8.11349 13.9658C7.39994 14.5377 6.7298 15.15 6.11847 15.7634C6.53592 14.5209 7.10516 13.2289 7.85211 12.0307C9.44243 9.47951 11.7747 7.44145 15.1057 7.06349C16.2256 6.93642 17.25 6.01821 17.25 4.7434Z" fill="black"/>
</svg>
