<svg width="25" height="24" viewBox="0 0 25 24" fill="none" xmlns="http://www.w3.org/2000/svg">
<path fill-rule="evenodd" clip-rule="evenodd" d="M17.25 2C15.0409 2 13.25 3.79086 13.25 6C13.25 6.17082 13.2607 6.33914 13.2815 6.50432C13.1369 6.62045 12.9485 6.76747 12.7288 6.92902C12.1929 7.32314 11.5038 7.77943 10.8287 8.09309C10.2487 8.36254 9.55204 8.59639 8.98147 8.76609C8.70014 8.84976 8.45735 8.91553 8.28572 8.96018C8.20002 8.98247 8.1324 8.99941 8.08697 9.01059L8.03608 9.02298L8.02415 9.02583L8.02175 9.0264C7.99671 9.03227 7.97194 9.03908 7.94782 9.0467C7.23653 8.39658 6.28958 8 5.25 8C3.04086 8 1.25 9.79086 1.25 12C1.25 14.2091 3.04086 16 5.25 16C6.28956 16 7.23649 15.6034 7.94778 14.9533C7.98402 14.9648 8.02128 14.9743 8.05948 14.9817L8.06057 14.9819L8.07053 14.9839L8.11628 14.9934C8.15782 15.0021 8.22066 15.0158 8.30117 15.0344C8.46245 15.0717 8.69304 15.1286 8.96409 15.2056C9.51329 15.3617 10.1974 15.5917 10.8028 15.8944C11.415 16.2005 12.1143 16.6641 12.6805 17.0694C12.915 17.2373 13.1205 17.3907 13.2795 17.5118C13.26 17.6718 13.25 17.8347 13.25 18C13.25 20.2091 15.0409 22 17.25 22C19.4591 22 21.25 20.2091 21.25 18C21.25 15.7909 19.4591 14 17.25 14C15.9438 14 14.7839 14.6261 14.0539 15.5945C13.987 15.5456 13.9171 15.495 13.8446 15.4431C13.2526 15.0193 12.4519 14.4829 11.6972 14.1056C10.9358 13.7249 10.1199 13.4549 9.51078 13.2818C9.3533 13.2371 9.20757 13.1982 9.07766 13.1651C9.18973 12.7965 9.25 12.4053 9.25 12C9.25 11.5892 9.18808 11.1929 9.07307 10.8199C9.21473 10.781 9.37635 10.7352 9.55163 10.6831C10.1588 10.5025 10.9621 10.2364 11.6713 9.90691C12.5195 9.51287 13.3305 8.96917 13.9137 8.54021C13.967 8.501 14.0187 8.46254 14.0687 8.42502C14.7995 9.38233 15.9526 10 17.25 10C19.4591 10 21.25 8.20914 21.25 6C21.25 3.79086 19.4591 2 17.25 2ZM15.25 6C15.25 4.89543 16.1454 4 17.25 4C18.3546 4 19.25 4.89543 19.25 6C19.25 7.10457 18.3546 8 17.25 8C16.1454 8 15.25 7.10457 15.25 6ZM3.25 12C3.25 10.8954 4.14543 10 5.25 10C6.35457 10 7.25 10.8954 7.25 12C7.25 13.1046 6.35457 14 5.25 14C4.14543 14 3.25 13.1046 3.25 12ZM15.25 18C15.25 16.8954 16.1454 16 17.25 16C18.3546 16 19.25 16.8954 19.25 18C19.25 19.1046 18.3546 20 17.25 20C16.1454 20 15.25 19.1046 15.25 18Z" fill="black"/>
</svg>
