<svg width="25" height="24" viewBox="0 0 25 24" fill="none" xmlns="http://www.w3.org/2000/svg">
<path fill-rule="evenodd" clip-rule="evenodd" d="M13.7376 2.01874C12.7828 1.63617 11.7172 1.63617 10.7624 2.01874L7.13578 3.47172C7.12451 3.47624 7.11331 3.48096 7.1022 3.48589L5.55467 4.17237C4.19745 4.77443 3.24987 6.10003 3.25 7.64368C3.25017 9.6109 3.39199 12.9406 4.31685 15.2252C4.9318 16.7443 6.03937 18.0609 7.16503 19.1131C8.29877 20.1728 9.50663 21.0157 10.3951 21.5766C11.5336 22.2955 12.9664 22.2955 14.1049 21.5766C14.9934 21.0157 16.2012 20.1728 17.335 19.1131C18.4606 18.0609 19.5682 16.7443 20.1832 15.2252C21.108 12.9406 21.2498 9.6109 21.25 7.64368C21.2501 6.10003 20.3025 4.77443 18.9453 4.17237L17.3978 3.48589C17.3867 3.48096 17.3755 3.47624 17.3642 3.47172L13.7376 2.01874ZM11.5062 3.87527C11.9836 3.68399 12.5164 3.68399 12.9938 3.87527L16.6035 5.32148L18.1343 6.00057C18.8232 6.30612 19.2501 6.94886 19.25 7.64351C19.2498 9.62433 19.0915 12.5918 18.3293 14.4748C17.8673 15.6159 16.9887 16.6991 15.9693 17.652C14.9579 18.5974 13.8616 19.365 13.0371 19.8856C12.5509 20.1926 11.9491 20.1926 11.4629 19.8856C10.6384 19.365 9.54215 18.5974 8.53075 17.652C7.51127 16.6991 6.63268 15.6159 6.1707 14.4748C5.40846 12.5918 5.25017 9.62433 5.25 7.64351C5.24994 6.94886 5.67684 6.30612 6.36565 6.00057L7.89653 5.32148L11.5062 3.87527Z" fill="black"/>
</svg>
