<svg width="25" height="24" viewBox="0 0 25 24" fill="none" xmlns="http://www.w3.org/2000/svg">
<path fill-rule="evenodd" clip-rule="evenodd" d="M11.2497 2.5C10.1451 2.5 9.24965 3.39543 9.24965 4.5V5.5H8.74965C6.54052 5.5 4.74965 7.29086 4.74965 9.5V11.132L3.57789 11.7178C2.16257 12.4255 1.20731 13.969 1.53848 15.657C1.67793 16.3678 1.88552 17.1968 2.19395 17.9893C2.49837 18.7716 2.92588 19.5836 3.53867 20.2032C4.23718 20.9094 5.00391 21.2953 5.82358 21.4385C6.61541 21.5768 7.39418 21.4771 8.10466 21.3254C8.50341 21.2403 8.96365 21.1171 9.40334 20.9994C9.68823 20.9231 9.96449 20.8492 10.2098 20.7894C10.9017 20.6207 11.5706 20.5 12.2497 20.5C12.9287 20.5 13.5976 20.6207 14.2895 20.7894C14.5348 20.8492 14.8111 20.9231 15.096 20.9994C15.5357 21.1171 15.9959 21.2403 16.3946 21.3254C17.1051 21.4771 17.8839 21.5768 18.6757 21.4385C19.4954 21.2953 20.2621 20.9094 20.9606 20.2032C21.5734 19.5836 22.0009 18.7716 22.3054 17.9893C22.6138 17.1968 22.8214 16.3678 22.9608 15.657C23.292 13.969 22.3367 12.4255 20.9214 11.7178L19.7497 11.132V9.5C19.7497 7.29086 17.9588 5.5 15.7497 5.5H15.2497V4.5C15.2497 3.39543 14.3542 2.5 13.2497 2.5H11.2497ZM10.4608 8.27639L6.74965 10.132V9.5C6.74965 8.39543 7.64508 7.5 8.74965 7.5H15.7497C16.8542 7.5 17.7497 8.39543 17.7497 9.5V10.132L14.0385 8.27639C12.9124 7.71334 11.5869 7.71334 10.4608 8.27639ZM11.3552 10.0652C11.9183 9.78372 12.581 9.78372 13.1441 10.0652L20.027 13.5067C20.7646 13.8755 21.1305 14.5979 20.9982 15.272C20.8726 15.9122 20.6929 16.618 20.4415 17.264C20.1861 17.9203 19.8812 18.4505 19.5387 18.7968C19.1196 19.2205 18.7248 19.3996 18.3316 19.4683C17.9105 19.5419 17.425 19.5003 16.8122 19.3695C16.4343 19.2888 16.0912 19.196 15.7145 19.0941C15.4271 19.0163 15.12 18.9332 14.7631 18.8462C14.0062 18.6618 13.16 18.5 12.2497 18.5C11.3393 18.5 10.4931 18.6618 9.73619 18.8462C9.37928 18.9332 9.07231 19.0163 8.78491 19.0941C8.40819 19.196 8.06495 19.2889 7.68711 19.3695C7.07433 19.5003 6.58879 19.5419 6.16773 19.4683C5.77451 19.3996 5.37976 19.2205 4.96064 18.7968C4.61809 18.4505 4.3132 17.9203 4.05778 17.264C3.80637 16.618 3.62668 15.9122 3.50106 15.272C3.36881 14.5979 3.73469 13.8755 4.47232 13.5067L11.3552 10.0652ZM13.2497 5.5H11.2497V4.5H13.2497V5.5Z" fill="black"/>
</svg>
