<svg width="25" height="24" viewBox="0 0 25 24" fill="none" xmlns="http://www.w3.org/2000/svg">
<path fill-rule="evenodd" clip-rule="evenodd" d="M9.25 7C9.25 5.34315 10.5931 4 12.25 4C13.775 4 15.0342 5.13782 15.225 6.6108L13.5429 8.29289C13.1524 8.68342 13.1524 9.31658 13.5429 9.70711C13.9334 10.0976 14.5666 10.0976 14.9571 9.70711L16.9571 7.70711L18.9571 5.70711C19.3476 5.31658 19.3476 4.68342 18.9571 4.29289C18.5666 3.90237 17.9334 3.90237 17.5429 4.29289L16.8345 5.00127C16.0632 3.23469 14.3008 2 12.25 2C9.48858 2 7.25 4.23858 7.25 7V20C7.25 20.5523 7.69772 21 8.25 21C8.80228 21 9.25 20.5523 9.25 20V7Z" fill="black"/>
</svg>
