<svg width="25" height="24" viewBox="0 0 25 24" fill="none" xmlns="http://www.w3.org/2000/svg">
<path d="M21.528 4.63606C21.9185 4.24554 21.9185 3.61237 21.528 3.22185C21.1374 2.83132 20.5043 2.83132 20.1137 3.22185L17.5782 5.75738V3.92896C17.5782 3.37667 17.1305 2.92896 16.5782 2.92896C16.0259 2.92896 15.5782 3.37667 15.5782 3.92896L15.5782 8.1716C15.5782 8.72388 16.0259 9.1716 16.5782 9.1716H20.8208C21.3731 9.1716 21.8208 8.72388 21.8208 8.1716C21.8208 7.61931 21.3731 7.1716 20.8208 7.1716H18.9924L21.528 4.63606Z" fill="black"/>
<path d="M9.92135 15.8285C9.92135 15.5632 9.816 15.3089 9.62846 15.1213C9.44092 14.9338 9.18657 14.8285 8.92135 14.8285L4.67871 14.8285C4.12643 14.8285 3.67871 15.2762 3.67871 15.8285C3.67871 16.3807 4.12643 16.8285 4.67871 16.8285L6.50714 16.8285L3.9716 19.364C3.58108 19.7545 3.58108 20.3877 3.9716 20.7782C4.36213 21.1687 4.99529 21.1687 5.38582 20.7782L7.92135 18.2427L7.92135 20.0711C7.92135 20.6234 8.36907 21.0711 8.92135 21.0711C9.47364 21.0711 9.92135 20.6234 9.92135 20.0711L9.92135 15.8285Z" fill="black"/>
<path d="M5.38584 3.22188C4.99531 2.83136 4.36215 2.83136 3.97162 3.22188C3.5811 3.61241 3.5811 4.24557 3.97162 4.6361L6.50716 7.17163H4.67873C4.12644 7.17163 3.67873 7.61935 3.67873 8.17163C3.67873 8.72392 4.12644 9.17163 4.67873 9.17163H8.92137C9.47365 9.17163 9.92137 8.72392 9.92137 8.17163V3.92899C9.92137 3.37671 9.47365 2.92899 8.92137 2.92899C8.36908 2.92899 7.92137 3.37671 7.92137 3.92899V5.75742L5.38584 3.22188Z" fill="black"/>
<path d="M16.5782 14.8285C16.313 14.8285 16.0587 14.9338 15.8711 15.1214C15.6836 15.3089 15.5782 15.5633 15.5782 15.8285L15.5782 20.0711C15.5782 20.6234 16.0259 21.0711 16.5782 21.0711C17.1305 21.0711 17.5782 20.6234 17.5782 20.0711L17.5782 18.2427L20.1138 20.7782C20.5043 21.1688 21.1374 21.1688 21.528 20.7782C21.9185 20.3877 21.9185 19.7545 21.528 19.364L18.9924 16.8285L20.8209 16.8285C21.3731 16.8285 21.8209 16.3808 21.8209 15.8285C21.8209 15.2762 21.3732 14.8285 20.8209 14.8285L16.5782 14.8285Z" fill="black"/>
</svg>
