<svg width="25" height="24" viewBox="0 0 25 24" fill="none" xmlns="http://www.w3.org/2000/svg">
<path d="M6.75 10C8.95914 10 10.75 8.20914 10.75 6V4C10.75 3.44772 10.3023 3 9.75 3C9.19772 3 8.75 3.44772 8.75 4V6C8.75 7.10457 7.85457 8 6.75 8H4.75C4.19772 8 3.75 8.44772 3.75 9C3.75 9.55228 4.19772 10 4.75 10H6.75Z" fill="black"/>
<path d="M18.75 10C16.5409 10 14.75 8.20914 14.75 6V4C14.75 3.44772 15.1977 3 15.75 3C16.3023 3 16.75 3.44772 16.75 4V6C16.75 7.10457 17.6454 8 18.75 8H20.75C21.3023 8 21.75 8.44772 21.75 9C21.75 9.55228 21.3023 10 20.75 10H18.75Z" fill="black"/>
<path d="M10.75 18C10.75 15.7909 8.95914 14 6.75 14H4.75C4.19772 14 3.75 14.4477 3.75 15C3.75 15.5523 4.19772 16 4.75 16H6.75C7.85457 16 8.75 16.8954 8.75 18V20C8.75 20.5523 9.19772 21 9.75 21C10.3023 21 10.75 20.5523 10.75 20V18Z" fill="black"/>
<path d="M18.75 14C16.5409 14 14.75 15.7909 14.75 18V20C14.75 20.5523 15.1977 21 15.75 21C16.3023 21 16.75 20.5523 16.75 20V18C16.75 16.8954 17.6454 16 18.75 16H20.75C21.3023 16 21.75 15.5523 21.75 15C21.75 14.4477 21.3023 14 20.75 14H18.75Z" fill="black"/>
</svg>
