<svg width="25" height="24" viewBox="0 0 25 24" fill="none" xmlns="http://www.w3.org/2000/svg">
<path d="M20.7586 4.2821C20.3622 3.89763 19.7291 3.90737 19.3446 4.30385C18.9862 4.67344 18.9704 5.24861 19.291 5.63636H16.375C13.1192 5.63636 10.625 8.48774 10.625 11.8182C10.625 14.2114 8.86594 16 6.875 16H3.75C3.19772 16 2.75 16.4477 2.75 17C2.75 17.5523 3.19772 18 3.75 18H6.875C10.1308 18 12.625 15.1486 12.625 11.8182C12.625 9.42494 14.3841 7.63636 16.375 7.63636H19.7124L19.2715 8.20638C18.9336 8.64325 19.0138 9.27131 19.4507 9.6092C19.8876 9.94708 20.5156 9.86685 20.8535 9.42998L22.541 7.24816C22.8525 6.84541 22.8117 6.27291 22.4461 5.91846L20.7586 4.2821Z" fill="black"/>
<path d="M3.75 6C3.19772 6 2.75 6.44772 2.75 7C2.75 7.55229 3.19772 8 3.75 8H6.875C7.70567 8 8.47931 8.30108 9.11102 8.82583C9.53585 9.17873 10.1663 9.12042 10.5192 8.69559C10.8721 8.27076 10.8138 7.64029 10.389 7.28739C9.42446 6.48617 8.20549 6 6.875 6H3.75Z" fill="black"/>
<path d="M20.8535 14.57C20.5156 14.1332 19.8876 14.0529 19.4507 14.3908C19.0138 14.7287 18.9336 15.3568 19.2715 15.7936L19.7124 16.3636H16.375C15.5114 16.3636 14.7086 16.0381 14.0634 15.4734C13.6478 15.1097 13.0161 15.1517 12.6523 15.5673C12.2886 15.9829 12.3307 16.6147 12.7463 16.9784C13.7279 17.8375 14.9907 18.3636 16.375 18.3636H19.291C18.9704 18.7514 18.9862 19.3266 19.3446 19.6961C19.7291 20.0926 20.3622 20.1024 20.7586 19.7179L22.4461 18.0815C22.8117 17.7271 22.8525 17.1546 22.541 16.7518L20.8535 14.57Z" fill="black"/>
</svg>
