<svg width="25" height="24" viewBox="0 0 25 24" fill="none" xmlns="http://www.w3.org/2000/svg">
<path d="M18.2498 2C18.8021 2 19.2498 2.44772 19.2498 3V21C19.2498 21.5523 18.8021 22 18.2498 22C17.6976 22 17.2498 21.5523 17.2498 21V3C17.2498 2.44772 17.6976 2 18.2498 2Z" fill="black"/>
<path d="M15.2498 9C15.2498 8.44772 14.8021 8 14.2498 8C13.6976 8 13.2498 8.44772 13.2498 9V21C13.2498 21.5523 13.6976 22 14.2498 22C14.8021 22 15.2498 21.5523 15.2498 21V9Z" fill="black"/>
<path d="M10.2498 12C10.8021 12 11.2498 12.4477 11.2498 13V21C11.2498 21.5523 10.8021 22 10.2498 22C9.69756 22 9.24985 21.5523 9.24985 21V13C9.24985 12.4477 9.69756 12 10.2498 12Z" fill="black"/>
<path d="M6.24985 16C6.80213 16 7.24985 16.4477 7.24985 17V21C7.24985 21.5523 6.80213 22 6.24985 22C5.69756 22 5.24985 21.5523 5.24985 21V17C5.24985 16.4477 5.69756 16 6.24985 16Z" fill="black"/>
<path d="M6.37117 4.70705C5.98064 4.31652 5.34748 4.31652 4.95696 4.70705C4.56643 5.09757 4.56643 5.73074 4.95696 6.12126L5.66406 6.82837L4.95696 7.53548C4.56643 7.926 4.56643 8.55917 4.95696 8.94969C5.34748 9.34021 5.98064 9.34021 6.37117 8.94969L7.07828 8.24258L7.78538 8.94969C8.17591 9.34021 8.80907 9.34021 9.1996 8.94969C9.59012 8.55917 9.59012 7.926 9.1996 7.53548L8.49249 6.82837L9.1996 6.12126C9.59012 5.73074 9.59012 5.09757 9.1996 4.70705C8.80907 4.31652 8.17591 4.31652 7.78538 4.70705L7.07828 5.41416L6.37117 4.70705Z" fill="black"/>
</svg>
