<svg width="25" height="24" viewBox="0 0 25 24" fill="none" xmlns="http://www.w3.org/2000/svg">
<path d="M7.75 4C8.30229 4 8.75 3.55228 8.75 3C8.75 2.44772 8.30229 2 7.75 2H6.25C4.04086 2 2.25 3.79086 2.25 6V18C2.25 20.2091 4.04086 22 6.25 22H7.75C8.30228 22 8.75 21.5523 8.75 21C8.75 20.4477 8.30229 20 7.75 20H6.25C5.14543 20 4.25 19.1046 4.25 18L4.25 6C4.25 4.89543 5.14543 4 6.25 4H7.75Z" fill="black"/>
<path d="M22.9571 12.7071C23.3476 12.3166 23.3476 11.6834 22.9571 11.2929L18.9571 7.29289C18.5666 6.90237 17.9334 6.90237 17.5429 7.29289C17.1524 7.68342 17.1524 8.31658 17.5429 8.70711L19.8358 11L8.25 11C7.69771 11 7.25 11.4477 7.25 12C7.25 12.5523 7.69771 13 8.25 13L19.8358 13L17.5429 15.2929C17.1524 15.6834 17.1524 16.3166 17.5429 16.7071C17.9334 17.0976 18.5666 17.0976 18.9571 16.7071L22.9571 12.7071Z" fill="black"/>
</svg>
