<svg width="25" height="24" viewBox="0 0 25 24" fill="none" xmlns="http://www.w3.org/2000/svg">
<path d="M19.25 3C19.25 2.44772 18.8023 2 18.25 2C17.6977 2 17.25 2.44772 17.25 3V21C17.25 21.5523 17.6977 22 18.25 22C18.8023 22 19.25 21.5523 19.25 21V3Z" fill="black"/>
<path d="M14.25 8C14.8023 8 15.25 8.44772 15.25 9V21C15.25 21.5523 14.8023 22 14.25 22C13.6977 22 13.25 21.5523 13.25 21V9C13.25 8.44772 13.6977 8 14.25 8Z" fill="black"/>
<path d="M11.25 13C11.25 12.4477 10.8023 12 10.25 12C9.69772 12 9.25 12.4477 9.25 13V21C9.25 21.5523 9.69772 22 10.25 22C10.8023 22 11.25 21.5523 11.25 21V13Z" fill="black"/>
<path d="M7.25 17C7.25 16.4477 6.80228 16 6.25 16C5.69772 16 5.25 16.4477 5.25 17V21C5.25 21.5523 5.69772 22 6.25 22C6.80228 22 7.25 21.5523 7.25 21V17Z" fill="black"/>
</svg>
