<svg width="25" height="24" viewBox="0 0 25 24" fill="none" xmlns="http://www.w3.org/2000/svg">
<path fill-rule="evenodd" clip-rule="evenodd" d="M7.75 4C8.30229 4 8.75 3.55228 8.75 3C8.75 2.44772 8.30229 2 7.75 2H6.25C4.04086 2 2.25 3.79086 2.25 6V18C2.25 20.2091 4.04086 22 6.25 22H7.75C8.30228 22 8.75 21.5523 8.75 21C8.75 20.4477 8.30229 20 7.75 20H6.25C5.14543 20 4.25 19.1046 4.25 18L4.25 6C4.25 4.89543 5.14543 4 6.25 4H7.75ZM7.54289 12.7071C7.15237 12.3166 7.15237 11.6834 7.54289 11.2929L11.5429 7.29289C11.9334 6.90237 12.5666 6.90237 12.9571 7.29289C13.3476 7.68342 13.3476 8.31658 12.9571 8.70711L10.6642 11L22.25 11C22.8023 11 23.25 11.4477 23.25 12C23.25 12.5523 22.8023 13 22.25 13L10.6642 13L12.9571 15.2929C13.3476 15.6834 13.3476 16.3166 12.9571 16.7071C12.5666 17.0976 11.9334 17.0976 11.5429 16.7071L7.54289 12.7071Z" fill="black"/>
</svg>
