<svg width="25" height="24" viewBox="0 0 25 24" fill="none" xmlns="http://www.w3.org/2000/svg">
<path d="M8.75 6C8.19772 6 7.75 6.44772 7.75 7C7.75 7.55228 8.19772 8 8.75 8H14.75C15.3023 8 15.75 7.55228 15.75 7C15.75 6.44772 15.3023 6 14.75 6H8.75Z" fill="black"/>
<path fill-rule="evenodd" clip-rule="evenodd" d="M7.25 2C5.04086 2 3.25 3.79086 3.25 6V18C3.25 20.2091 5.04086 22 7.25 22H17.25C19.4591 22 21.25 20.2091 21.25 18V8.7997C21.25 7.69406 20.7924 6.63774 19.9858 5.88155L16.9994 3.08185C16.258 2.3868 15.2799 2 14.2637 2H7.25ZM5.25 6C5.25 4.89543 6.14543 4 7.25 4H14.2637C14.7718 4 15.2608 4.1934 15.6315 4.54093L18.6179 7.34062C19.0212 7.71872 19.25 8.24688 19.25 8.7997V18C19.25 19.1046 18.3546 20 17.25 20H7.25C6.14543 20 5.25 19.1046 5.25 18V6Z" fill="black"/>
</svg>
