<svg width="25" height="24" viewBox="0 0 25 24" fill="none" xmlns="http://www.w3.org/2000/svg">
<path d="M5.25001 3C4.69773 3 4.25001 3.44772 4.25001 4C4.25001 4.55228 4.69773 5 5.25001 5H8.11497L4.48179 9.35982C4.23339 9.6579 4.17984 10.0728 4.34442 10.4242C4.509 10.7755 4.86199 11 5.25001 11H10.25C10.8023 11 11.25 10.5523 11.25 10C11.25 9.44772 10.8023 9 10.25 9H7.38505L11.0182 4.64018C11.2666 4.3421 11.3202 3.92723 11.1556 3.57584C10.991 3.22446 10.638 3 10.25 3H5.25001Z" fill="black"/>
<path d="M12.25 11C11.6977 11 11.25 11.4477 11.25 12C11.25 12.5523 11.6977 13 12.25 13H17.0462L11.4974 19.3415C11.2391 19.6368 11.1772 20.0559 11.3394 20.4132C11.5015 20.7705 11.8576 21 12.25 21H19.25C19.8023 21 20.25 20.5523 20.25 20C20.25 19.4477 19.8023 19 19.25 19H14.4538L20.0026 12.6585C20.261 12.3632 20.3228 11.9441 20.1606 11.5868C19.9985 11.2295 19.6424 11 19.25 11H12.25Z" fill="black"/>
</svg>
