<svg width="25" height="24" viewBox="0 0 25 24" fill="none" xmlns="http://www.w3.org/2000/svg">
<path d="M12.4105 1C12.9628 1 13.4105 1.44772 13.4105 2V4.13148L14.8558 3.16795C15.3153 2.8616 15.9362 2.98577 16.2426 3.4453C16.5489 3.90483 16.4247 4.5257 15.9652 4.83205L13.4105 6.53518V10.2679L16.6297 8.40937L16.751 5.4126C16.7733 4.86077 17.2388 4.43153 17.7906 4.45387C18.3424 4.47621 18.7717 4.94167 18.7493 5.4935L18.6792 7.22607L20.5707 6.13403C21.049 5.85789 21.6606 6.02176 21.9367 6.50005C22.2128 6.97835 22.049 7.58994 21.5707 7.86608L19.7248 8.93182L21.2819 9.70172C21.7769 9.94651 21.9798 10.5463 21.735 11.0414C21.4902 11.5364 20.8905 11.7393 20.3954 11.4945L17.6431 10.1337L14.4104 12.0001L17.6297 13.8587L20.2856 12.4654C20.7747 12.2088 21.3791 12.3973 21.6357 12.8863C21.8923 13.3754 21.7038 13.9799 21.2147 14.2364L19.6792 15.042L21.5707 16.134C22.049 16.4102 22.2128 17.0218 21.9367 17.5001C21.6606 17.9783 21.049 18.1422 20.5707 17.8661L18.7248 16.8003L18.8366 18.5338C18.8721 19.0849 18.4541 19.5605 17.903 19.5961C17.3518 19.6316 16.8762 19.2136 16.8407 18.6625L16.6431 15.5985L13.4105 13.7322V17.4648L15.9652 19.1679C16.4247 19.4743 16.5489 20.0952 16.2426 20.5547C15.9362 21.0142 15.3153 21.1384 14.8558 20.8321L13.4105 19.8685V22C13.4105 22.5523 12.9628 23 12.4105 23C11.8582 23 11.4105 22.5523 11.4105 22V19.8685L9.96522 20.8321C9.50569 21.1384 8.88482 21.0142 8.57847 20.5547C8.27212 20.0952 8.39629 19.4743 8.85582 19.1679L11.4105 17.4648V13.732L8.17775 15.5985L7.98014 18.6625C7.9446 19.2136 7.469 19.6316 6.91786 19.5961C6.36672 19.5605 5.94875 19.0849 5.98429 18.5338L6.09609 16.8003L4.25017 17.8661C3.77187 18.1422 3.16028 17.9783 2.88414 17.5001C2.608 17.0218 2.77187 16.4102 3.25017 16.134L5.09609 15.0683L3.53899 14.2984C3.04392 14.0536 2.84102 13.4538 3.08581 12.9588C3.3306 12.4637 3.93037 12.2608 4.42544 12.5056L7.17775 13.8664L10.4104 12.0001L7.17775 10.1337L4.42545 11.4945C3.93037 11.7393 3.3306 11.5364 3.08581 11.0414C2.84102 10.5463 3.04392 9.94651 3.53899 9.70172L5.09609 8.93182L3.25017 7.86608C2.77188 7.58994 2.608 6.97834 2.88414 6.50005C3.16028 6.02176 3.77188 5.85788 4.25017 6.13403L6.09609 7.19977L5.98429 5.46634C5.94875 4.9152 6.36672 4.43959 6.91786 4.40405C7.469 4.36851 7.9446 4.78648 7.98015 5.33762L8.17775 8.40162L11.4105 10.2681V6.55068L8.8759 4.94723C8.40917 4.65197 8.27016 4.03425 8.56543 3.56752C8.86069 3.10079 9.47841 2.96179 9.94514 3.25705L11.4105 4.18408V2C11.4105 1.44772 11.8582 1 12.4105 1Z" fill="black"/>
</svg>
