<svg width="25" height="24" viewBox="0 0 25 24" fill="none" xmlns="http://www.w3.org/2000/svg">
<path fill-rule="evenodd" clip-rule="evenodd" d="M19.75 8C19.2132 8 18.7046 8.12085 18.25 8.33682V8C18.25 5.79086 16.4591 4 14.25 4H10.25C8.04086 4 6.25 5.79086 6.25 8V8.33682C5.79537 8.12085 5.2868 8 4.75 8C2.817 8 1.25 9.567 1.25 11.5V12.5C1.25 13.2557 1.48947 13.9554 1.89666 14.5274C1.49913 14.8929 1.25 15.4174 1.25 16V17.6C1.25 18.6641 2.08108 19.5342 3.12959 19.5964C3.17811 20.1035 3.60525 20.5 4.125 20.5C4.64353 20.5 5.06989 20.1053 5.12006 19.6H19.3799C19.4301 20.1053 19.8565 20.5 20.375 20.5C20.8948 20.5 21.3219 20.1035 21.3704 19.5964C22.4189 19.5342 23.25 18.6641 23.25 17.6V16C23.25 15.4174 23.0009 14.8929 22.6033 14.5274C23.0105 13.9554 23.25 13.2557 23.25 12.5V11.5C23.25 9.567 21.683 8 19.75 8ZM19.75 14C18.9216 14 18.25 13.3284 18.25 12.5V11.5C18.25 10.6716 18.9216 10 19.75 10C20.5784 10 21.25 10.6716 21.25 11.5V12.5C21.25 13.3284 20.5784 14 19.75 14ZM4.74879 14C3.92092 13.9993 3.25 13.328 3.25 12.5L3.25 11.5C3.25 10.6716 3.92157 10 4.75 10C5.57778 10 6.24895 10.6705 6.25 11.4981V12.5016C6.24914 13.3289 5.57855 13.9993 4.75121 14L4.74879 14ZM3.25 16V17.6L21.25 17.6V16H3.25ZM8.25 8C8.25 6.89543 9.14543 6 10.25 6L14.25 6C15.3546 6 16.25 6.89543 16.25 8L16.25 14L8.25 14L8.25 8Z" fill="black"/>
</svg>
