<svg width="25" height="24" viewBox="0 0 25 24" fill="none" xmlns="http://www.w3.org/2000/svg">
<path fill-rule="evenodd" clip-rule="evenodd" d="M8.75065 8C8.75065 6.067 10.3177 4.5 12.2507 4.5C14.1836 4.5 15.7507 6.067 15.7507 8C15.7507 9.933 14.1836 11.5 12.2507 11.5C10.3177 11.5 8.75065 9.933 8.75065 8ZM12.2507 6.5C11.4222 6.5 10.7507 7.17157 10.7507 8C10.7507 8.82843 11.4222 9.5 12.2507 9.5C13.0791 9.5 13.7507 8.82843 13.7507 8C13.7507 7.17157 13.0791 6.5 12.2507 6.5Z" fill="black"/>
<path fill-rule="evenodd" clip-rule="evenodd" d="M12.2507 12C10.0415 12 8.25065 13.7909 8.25065 16C8.25065 18.2091 10.0415 20 12.2507 20C14.4598 20 16.2507 18.2091 16.2507 16C16.2507 13.7909 14.4598 12 12.2507 12ZM10.2507 16C10.2507 14.8954 11.1461 14 12.2507 14C13.3552 14 14.2507 14.8954 14.2507 16C14.2507 17.1046 13.3552 18 12.2507 18C11.1461 18 10.2507 17.1046 10.2507 16Z" fill="black"/>
<path fill-rule="evenodd" clip-rule="evenodd" d="M4.10939 4.80025C4.21583 2.67142 5.9729 1 8.1044 1H16.3969C18.5284 1 20.2855 2.67141 20.3919 4.80025L21.0919 18.8002C21.2062 21.085 19.3845 23 17.0969 23H7.4044C5.11681 23 3.29515 21.085 3.40939 18.8002L4.10939 4.80025ZM8.1044 3C7.03865 3 6.16012 3.83571 6.1069 4.90013L5.4069 18.9001C5.34978 20.0425 6.26061 21 7.4044 21H17.0969C18.2407 21 19.1515 20.0425 19.0944 18.9001L18.3944 4.90013C18.3412 3.83571 17.4627 3 16.3969 3H8.1044Z" fill="black"/>
</svg>
