<svg width="25" height="24" viewBox="0 0 25 24" fill="none" xmlns="http://www.w3.org/2000/svg">
<path d="M6.89915 7.8663C6.68533 7.22486 6.182 6.72152 5.54055 6.50771C4.88774 6.2901 4.88774 5.36671 5.54055 5.14911C6.182 4.9353 6.68534 4.43196 6.89915 3.79051C7.11675 3.1377 8.04014 3.1377 8.25775 3.79051C8.47156 4.43196 8.9749 4.9353 9.61634 5.14911C10.2692 5.36671 10.2692 6.2901 9.61634 6.50771C8.9749 6.72152 8.47156 7.22486 8.25775 7.8663C8.04014 8.51912 7.11675 8.51912 6.89915 7.8663Z" stroke="black" stroke-width="2" stroke-linecap="round"/>
<path d="M7.04798 20.7326C6.62035 19.4497 5.61367 18.4431 4.33078 18.0154C3.02516 17.5802 3.02516 15.7334 4.33078 15.2982C5.61367 14.8706 6.62035 13.8639 7.04798 12.581C7.48319 11.2754 9.32996 11.2754 9.76517 12.581C10.1928 13.8639 11.1995 14.8706 12.4824 15.2982C13.788 15.7334 13.788 17.5802 12.4824 18.0154C11.1995 18.4431 10.1928 19.4497 9.76517 20.7326C9.32996 22.0383 7.48319 22.0383 7.04798 20.7326Z" stroke="black" stroke-width="2" stroke-linecap="round"/>
<path d="M14.9357 11.2616C15.8978 11.5823 16.6528 12.3373 16.9736 13.2995C17.3 14.2787 18.6851 14.2787 19.0115 13.2995C19.3322 12.3373 20.0872 11.5823 21.0494 11.2616C22.0286 10.9352 22.0286 9.55008 21.0494 9.22367C20.0872 8.90295 19.3322 8.14794 19.0115 7.18578C18.6851 6.20656 17.3 6.20656 16.9736 7.18578C16.6528 8.14794 15.8978 8.90295 14.9357 9.22367C13.9564 9.55008 13.9564 10.9352 14.9357 11.2616Z" stroke="black" stroke-width="2" stroke-linecap="round"/>
</svg>
