<svg width="25" height="24" viewBox="0 0 25 24" fill="none" xmlns="http://www.w3.org/2000/svg">
<path fill-rule="evenodd" clip-rule="evenodd" d="M15.3272 2.91864C14.1375 1.02712 11.3618 1.02712 10.1721 2.91864L8.24318 5.98539C8.10209 6.2097 7.87582 6.37376 7.61014 6.43861L4.0636 7.30437C1.88585 7.83599 1.00516 10.4618 2.46997 12.1796L4.8244 14.9407C4.99721 15.1434 5.08153 15.4025 5.06252 15.6628L4.79952 19.2646C4.63546 21.5114 6.90372 23.1078 8.97075 22.2769L12.3547 20.9166C12.6077 20.815 12.8915 20.815 13.1445 20.9166L16.5285 22.2769C18.5955 23.1078 20.8638 21.5114 20.6997 19.2646L20.4367 15.6628C20.4177 15.4025 20.502 15.1434 20.6748 14.9407L23.0292 12.1796C24.494 10.4618 23.6134 7.83599 21.4356 7.30437L17.8891 6.43861C17.6234 6.37376 17.3971 6.2097 17.256 5.98539L15.3272 2.91864ZM11.865 3.98346C12.2705 3.33885 13.2287 3.33885 13.6342 3.98346L15.5631 7.05021C15.9832 7.71821 16.6485 8.19451 17.4148 8.38156L20.9613 9.24731C21.7165 9.43166 21.9896 10.3164 21.5074 10.8819L19.153 13.643C18.6407 14.2438 18.3845 15.0208 18.442 15.8084L18.705 19.4103C18.7584 20.1421 18.0059 20.7153 17.2744 20.4212L13.8904 19.061C13.1587 18.7668 12.3405 18.7669 11.6088 19.061L8.22481 20.4212C7.49335 20.7153 6.74077 20.1421 6.79421 19.4103L7.05721 15.8084C7.11473 15.0208 6.85849 14.2438 6.34624 13.643L3.99182 10.8819C3.50956 10.3164 3.78273 9.43166 4.5379 9.24731L8.08444 8.38156C8.85068 8.19451 9.516 7.71821 9.93615 7.05021L11.865 3.98346Z" fill="black"/>
</svg>
