<svg width="25" height="24" viewBox="0 0 25 24" fill="none" xmlns="http://www.w3.org/2000/svg">
<path d="M12.75 9C12.75 8.44772 12.3023 8 11.75 8C11.1977 8 10.75 8.44772 10.75 9V14C10.75 14.5523 11.1977 15 11.75 15H14.75C15.3023 15 15.75 14.5523 15.75 14C15.75 13.4477 15.3023 13 14.75 13H12.75V9Z" fill="black"/>
<path fill-rule="evenodd" clip-rule="evenodd" d="M9.25 2C9.25 1.44772 9.69772 1 10.25 1H14.25C14.8023 1 15.25 1.44772 15.25 2C15.25 2.55228 14.8023 3 14.25 3H13.25V4C13.25 4.01787 13.2495 4.03564 13.2486 4.05328C17.8876 4.55124 21.5 8.47876 21.5 13.25C21.5 18.3586 17.3586 22.5 12.25 22.5C7.14137 22.5 3 18.3586 3 13.25C3 8.47876 6.61241 4.55124 11.2514 4.05328C11.2505 4.03564 11.25 4.01787 11.25 4V3H10.25C9.69772 3 9.25 2.55228 9.25 2ZM12.25 6C8.24594 6 5 9.24594 5 13.25C5 17.2541 8.24594 20.5 12.25 20.5C16.2541 20.5 19.5 17.2541 19.5 13.25C19.5 9.24594 16.2541 6 12.25 6Z" fill="black"/>
</svg>
