<svg width="25" height="24" viewBox="0 0 25 24" fill="none" xmlns="http://www.w3.org/2000/svg">
<path fill-rule="evenodd" clip-rule="evenodd" d="M12.2503 1.99805L6.00346 2.38848C4.51573 2.48146 3.20312 3.39398 2.59772 4.75613L2.05181 5.98443C1.46298 7.30931 1.63715 8.84911 2.50706 10.009L2.76535 10.3534L3.12118 18.1816C3.21829 20.3179 4.97854 22 7.11706 22H17.3836C19.5221 22 21.2824 20.3179 21.3795 18.1816L21.7288 10.4965C22.6801 9.60721 23.0307 8.21988 22.574 6.96402L21.8615 5.00463C21.3178 3.50945 19.9397 2.47863 18.3519 2.37939L12.2503 1.99805ZM5.11912 18.0908L4.8163 11.4287C5.67289 11.5296 6.55703 11.3307 7.30502 10.832L7.40889 10.7628C7.97364 10.3863 8.69682 10.3413 9.30391 10.6448L10.4615 11.2236C11.5876 11.7867 12.9131 11.7867 14.0392 11.2236L15.1967 10.6448C15.8038 10.3413 16.527 10.3863 17.0918 10.7628L17.1956 10.832C17.9436 11.3307 18.8278 11.5296 19.6843 11.4287L19.3815 18.0908C19.333 19.159 18.4528 20 17.3836 20H15.3371L15.5393 17.5744C15.6996 15.6503 14.1811 14 12.2503 14C10.3195 14 8.80104 15.6503 8.96139 17.5744L9.16352 20H7.11706C6.0478 20 5.16767 19.159 5.11912 18.0908ZM18.305 9.16795C18.8775 9.54957 19.6232 9.54957 20.1956 9.16795C20.6925 8.8367 20.8985 8.20871 20.6944 7.6475L19.9819 5.68812C19.7101 4.94053 19.021 4.42512 18.2271 4.3755L12.2503 4.00195L6.12821 4.38458C5.38435 4.43107 4.72805 4.88733 4.42535 5.56841L3.87944 6.7967C3.58502 7.45915 3.67211 8.22904 4.10706 8.80898L4.43534 9.24669C4.98731 9.54746 5.66572 9.52121 6.19562 9.16795L6.29949 9.09871C7.46141 8.32409 8.94931 8.23146 10.1983 8.85597L11.3559 9.43475C11.919 9.71628 12.5817 9.71628 13.1447 9.43475L14.3023 8.85597C15.5513 8.23146 17.0392 8.32409 18.2012 9.09871L18.305 9.16795ZM13.5462 17.4083L13.3302 20H11.1705L10.9545 17.4083C10.8913 16.6502 11.4896 16 12.2503 16C13.0111 16 13.6093 16.6502 13.5462 17.4083Z" fill="black"/>
</svg>
