<svg width="25" height="24" viewBox="0 0 25 24" fill="none" xmlns="http://www.w3.org/2000/svg">
<path d="M13.25 9.72222C13.25 9.16994 12.8023 8.72222 12.25 8.72222C11.6977 8.72222 11.25 9.16994 11.25 9.72222V10.6111C11.25 11.1634 11.6977 11.6111 12.25 11.6111C12.8023 11.6111 13.25 11.1634 13.25 10.6111V9.72222Z" fill="black"/>
<path fill-rule="evenodd" clip-rule="evenodd" d="M13.1833 3C14.8617 3 16.2767 4.12766 16.712 5.66667H19.0278C20.8074 5.66667 22.25 7.10931 22.25 8.88889V10.2111C22.25 10.9233 21.8582 11.5439 21.2784 11.8693L20.7181 17.4029C20.5112 19.4456 18.7915 21 16.7384 21H7.76159C5.70848 21 3.98876 19.4456 3.78193 17.4029L3.22165 11.8693C2.64182 11.5439 2.25 10.9233 2.25 10.2111V8.88889C2.25 7.1093 3.69264 5.66667 5.47222 5.66667H7.78802C8.22331 4.12766 9.6383 3 11.3167 3H13.1833ZM9.98321 5.66667C10.2873 5.26185 10.7714 5 11.3167 5H13.1833C13.7286 5 14.2127 5.26185 14.5168 5.66667H9.98321ZM4.25 8.88889C4.25 8.21387 4.79721 7.66667 5.47222 7.66667H19.0278C19.7028 7.66667 20.25 8.21387 20.25 8.88889V10.116C20.1559 10.1254 20.0656 10.1478 19.981 10.1814L13.3069 12.6533C13.0846 12.7356 12.8494 12.7778 12.6123 12.7778H11.8877C11.6506 12.7778 11.4154 12.7356 11.1931 12.6533L4.51897 10.1814C4.43437 10.1478 4.34411 10.1254 4.25 10.116V8.88889ZM14.0015 14.5288L19.1936 12.6058L18.7282 17.2015C18.6248 18.2228 17.765 19 16.7384 19H7.76159C6.73503 19 5.87517 18.2228 5.77176 17.2015L5.30645 12.6058L10.4985 14.5288C10.9431 14.6935 11.4135 14.7778 11.8877 14.7778H12.6123C13.0865 14.7778 13.5569 14.6935 14.0015 14.5288Z" fill="black"/>
</svg>
