<svg width="25" height="24" viewBox="0 0 25 24" fill="none" xmlns="http://www.w3.org/2000/svg">
<path d="M12.75 1C13.3023 1 13.75 1.44772 13.75 2V3.5C13.75 4.05228 13.3023 4.5 12.75 4.5C12.1977 4.5 11.75 4.05228 11.75 3.5V2C11.75 1.44772 12.1977 1 12.75 1Z" fill="black"/>
<path fill-rule="evenodd" clip-rule="evenodd" d="M5.77729 11.3777C6.09219 7.80319 9.09373 5 12.75 5C16.616 5 19.75 8.13401 19.75 12C19.75 15.5776 17.0661 18.5284 13.6019 18.9487C13.1365 20.6808 11.623 22 9.75 22H5.25C3.26392 22 1.75 20.3125 1.75 18.3529C1.75 17.1291 2.33235 16.0249 3.25073 15.3586C3.28169 13.6117 4.29301 12.065 5.77729 11.3777ZM7.84711 11.0144C8.30478 8.72501 10.3259 7 12.75 7C15.5114 7 17.75 9.23858 17.75 12C17.75 14.4523 15.9846 16.4922 13.6554 16.9182C13.3956 15.6927 12.6183 14.6545 11.55 14.0926C11.0437 12.4355 9.61888 11.1626 7.84711 11.0144ZM5.25 15.4412C5.25 14.0383 6.31044 13 7.5 13C8.55659 13 9.50475 13.8117 9.71017 14.9809C9.77273 15.337 10.0226 15.6316 10.3638 15.7514C11.1409 16.0243 11.75 16.8262 11.75 17.8235C11.75 19.0802 10.8015 20 9.75 20H5.25C4.47466 20 3.75 19.3172 3.75 18.3529C3.75 17.6387 4.15908 17.0614 4.68757 16.8257C5.09106 16.6457 5.32863 16.2223 5.27196 15.7841C5.25753 15.6725 5.25 15.5581 5.25 15.4412Z" fill="black"/>
<path d="M20.6099 15.134C20.1316 14.8578 19.52 15.0217 19.2438 15.5C18.9677 15.9783 19.1316 16.5899 19.6099 16.866L20.9089 17.616C21.3872 17.8922 21.9988 17.7283 22.2749 17.25C22.5511 16.7717 22.3872 16.1601 21.9089 15.884L20.6099 15.134Z" fill="black"/>
<path d="M19.2438 8.5C18.9677 8.02171 19.1316 7.41012 19.6099 7.13397L20.9089 6.38397C21.3872 6.10783 21.9988 6.27171 22.2749 6.75C22.5511 7.22829 22.3872 7.83988 21.9089 8.11603L20.6099 8.86603C20.1316 9.14217 19.52 8.97829 19.2438 8.5Z" fill="black"/>
<path d="M4.58984 6.13397C4.11155 5.85783 3.49996 6.02171 3.22382 6.5C2.94768 6.97829 3.11155 7.58988 3.58984 7.86603L4.88888 8.61603C5.36717 8.89217 5.97877 8.72829 6.25491 8.25C6.53105 7.77171 6.36717 7.16012 5.88888 6.88397L4.58984 6.13397Z" fill="black"/>
</svg>
