<svg width="25" height="24" viewBox="0 0 25 24" fill="none" xmlns="http://www.w3.org/2000/svg">
<path d="M13.7502 2C13.7502 1.44772 13.3025 1 12.7502 1C12.1979 1 11.7502 1.44772 11.7502 2V3.5C11.7502 4.05228 12.1979 4.5 12.7502 4.5C13.3025 4.5 13.7502 4.05228 13.7502 3.5V2Z" fill="black"/>
<path fill-rule="evenodd" clip-rule="evenodd" d="M5.75017 12C5.75017 8.13401 8.88417 5 12.7502 5C16.6162 5 19.7502 8.13401 19.7502 12C19.7502 15.866 16.6162 19 12.7502 19C8.88417 19 5.75017 15.866 5.75017 12ZM12.7502 7C9.98874 7 7.75017 9.23858 7.75017 12C7.75017 14.7614 9.98874 17 12.7502 17C15.5116 17 17.7502 14.7614 17.7502 12C17.7502 9.23858 15.5116 7 12.7502 7Z" fill="black"/>
<path d="M12.7502 19C13.3025 19 13.7502 19.4477 13.7502 20V21.5C13.7502 22.0523 13.3025 22.5 12.7502 22.5C12.1979 22.5 11.7502 22.0523 11.7502 21.5V20C11.7502 19.4477 12.1979 19 12.7502 19Z" fill="black"/>
<path d="M19.244 15.5C19.5201 15.0217 20.1317 14.8578 20.61 15.134L21.9091 15.884C22.3874 16.1601 22.5512 16.7717 22.2751 17.25C21.999 17.7283 21.3874 17.8922 20.9091 17.616L19.61 16.866C19.1317 16.5899 18.9679 15.9783 19.244 15.5Z" fill="black"/>
<path d="M19.61 7.13397C19.1317 7.41012 18.9679 8.02171 19.244 8.5C19.5201 8.97829 20.1317 9.14217 20.61 8.86603L21.9091 8.11603C22.3874 7.83988 22.5512 7.22829 22.2751 6.75C21.999 6.27171 21.3874 6.10783 20.9091 6.38397L19.61 7.13397Z" fill="black"/>
<path d="M4.59001 6.13397C4.11172 5.85783 3.50013 6.02171 3.22399 6.5C2.94784 6.97829 3.11172 7.58988 3.59001 7.86603L4.88905 8.61603C5.36734 8.89217 5.97893 8.72829 6.25507 8.25C6.53122 7.77171 6.36734 7.16012 5.88905 6.88397L4.59001 6.13397Z" fill="black"/>
<path d="M3.22399 17.5C2.94784 17.0217 3.11172 16.4101 3.59001 16.134L4.88905 15.384C5.36734 15.1078 5.97893 15.2717 6.25507 15.75C6.53122 16.2283 6.36734 16.8399 5.88905 17.116L4.59001 17.866C4.11172 18.1422 3.50013 17.9783 3.22399 17.5Z" fill="black"/>
</svg>
