<svg width="25" height="24" viewBox="0 0 25 24" fill="none" xmlns="http://www.w3.org/2000/svg">
<path fill-rule="evenodd" clip-rule="evenodd" d="M16.8363 2.38135C16.9841 2.41086 17.1075 2.43419 17.2293 2.4492C17.3417 2.39985 17.4532 2.34207 17.5863 2.27135L17.6273 2.24954C17.7641 2.17664 17.938 2.08397 18.1187 2.00622C18.5655 1.81401 19.1013 1.68994 19.7728 1.83698C21.3008 2.17159 22.1304 3.56391 22.0906 4.93319C22.0591 6.01734 21.4698 6.99856 20.9102 7.71233C20.3297 8.45274 19.6579 9.05932 19.2362 9.41121C18.6952 9.8626 17.9539 9.97132 17.3061 9.69429C16.8011 9.47832 15.9834 9.09018 15.2148 8.54764C14.4738 8.02461 13.6275 7.25396 13.286 6.22451C12.8548 4.92432 13.2496 3.3524 14.6172 2.59313C15.2181 2.25946 15.767 2.22445 16.2502 2.28027C16.4456 2.30285 16.6388 2.34168 16.7908 2.37222L16.8363 2.38135ZM15.588 4.3417C15.7374 4.25877 15.8426 4.24649 16.0207 4.26706C16.1296 4.27964 16.2425 4.30222 16.4148 4.33666L16.4446 4.34261C16.6196 4.37756 16.8423 4.42113 17.0899 4.44595C17.3778 4.47482 17.6687 4.43215 17.9362 4.32182C18.1662 4.22696 18.3671 4.12127 18.5247 4.03754L18.5515 4.02328C18.7067 3.94081 18.8084 3.88675 18.9091 3.84342C19.0737 3.77259 19.1781 3.75414 19.345 3.79069C19.7757 3.88501 20.1083 4.29565 20.0915 4.87512C20.0789 5.30808 19.8157 5.86671 19.3362 6.47839C18.9028 7.0312 18.3843 7.51208 18.0175 7.82295C17.5768 7.63052 16.942 7.31878 16.3682 6.91369C15.7332 6.46548 15.3207 6.00594 15.1843 5.59482C15.0018 5.04459 15.2025 4.55573 15.588 4.3417Z" fill="black"/>
<path fill-rule="evenodd" clip-rule="evenodd" d="M1.25 9.99994C1.25 8.89537 2.14543 7.99994 3.25 7.99994H5.25C6.35457 7.99994 7.25 8.89537 7.25 9.99994V10.323C8.08359 9.95927 9.03827 9.66996 10.1021 9.51087C11.1704 9.35111 12.1916 9.64298 12.9945 9.87243C13.1183 9.90781 13.2369 9.9417 13.3497 9.97223C14.261 10.2189 15.0364 10.3503 15.9338 10.0512C16.7457 9.78056 17.5585 9.71475 18.2307 10.085C18.9424 10.4769 19.1916 11.1813 19.2398 11.7538C19.2607 12.0017 19.2331 12.3377 19.0386 12.6612C18.8836 12.9189 18.6702 13.1335 18.4482 13.3111C19.2047 13.0688 20.0008 12.8254 20.7002 12.7302C21.3674 12.6393 22.2952 12.6309 22.9571 13.2928C23.7193 14.0549 23.4938 15.0453 23.1834 15.6827C22.8592 16.3481 22.2831 17.0249 21.63 17.6448C20.3091 18.8985 18.4094 20.1648 16.6429 20.9195C14.4773 21.8446 11.9539 21.2775 10.0717 20.7396C9.64318 20.6171 9.25818 20.4992 8.90413 20.3908C8.41085 20.2398 7.97756 20.1071 7.57026 20.006C7.45199 19.9766 7.34552 19.9526 7.25 19.9335V19.9999C7.25 21.1045 6.35457 21.9999 5.25 21.9999H3.25C2.14543 21.9999 1.25 21.1045 1.25 19.9999V9.99994ZM7.25 12.5569C8.07949 12.0827 9.13716 11.6774 10.3979 11.4889C11.007 11.3978 11.5687 11.554 12.4003 11.7852C12.535 11.8227 12.6769 11.8621 12.8271 11.9028C13.8376 12.1763 15.0919 12.44 16.5662 11.9486C16.8096 11.8674 16.9784 11.8382 17.0898 11.8302L17.0622 11.8491C16.868 11.9801 16.6 12.1242 16.2621 12.2746C15.5872 12.5749 14.7206 12.8619 13.8085 13.1079C13.1197 13.2936 12.5315 13.8313 12.42 14.5546C12.3618 14.9321 12.4441 15.3603 12.7411 15.7079C13.0325 16.0488 13.4349 16.202 13.8153 16.2427C14.7017 16.3377 15.6353 16.1912 16.4969 15.9826C17.2443 15.8016 18.0046 15.556 18.691 15.3341C18.7986 15.2994 18.9044 15.2652 19.0081 15.2319C19.8064 14.9757 20.4573 14.7817 20.9701 14.7119C21.2016 14.6803 21.3479 14.6823 21.4365 14.6921C21.4239 14.7239 21.4072 14.7619 21.3853 14.8068C21.2143 15.1579 20.8362 15.6408 20.2532 16.1941C19.1019 17.2869 17.4016 18.4205 15.8571 19.0803C14.4135 19.697 12.537 19.3641 10.6214 18.8166C10.282 18.7196 9.92761 18.6116 9.57869 18.5052C9.03016 18.338 8.49453 18.1747 8.05215 18.0649C7.78644 17.999 7.5143 17.941 7.25 17.9068V12.5569ZM5.25 9.99994V19.9999H3.25V9.99994H5.25ZM21.4725 14.5539C21.474 14.553 21.4751 14.561 21.4715 14.5806C21.4693 14.5646 21.4711 14.5548 21.4725 14.5539ZM14.3005 15.0496C14.3003 15.0495 14.3023 15.0481 14.3072 15.0461C14.3032 15.0488 14.3008 15.0498 14.3005 15.0496Z" fill="black"/>
</svg>
