<svg width="25" height="24" viewBox="0 0 25 24" fill="none" xmlns="http://www.w3.org/2000/svg">
<path d="M22.4571 7.70711C22.8476 7.31658 22.8476 6.68342 22.4571 6.29289L19.4571 3.29289C19.0666 2.90237 18.4334 2.90237 18.0429 3.29289C17.6524 3.68342 17.6524 4.31658 18.0429 4.70711L19.3358 6L3.75 6C3.19772 6 2.75 6.44772 2.75 7C2.75 7.55229 3.19772 8 3.75 8L19.3358 8L18.0429 9.29289C17.6524 9.68342 17.6524 10.3166 18.0429 10.7071C18.4334 11.0976 19.0666 11.0976 19.4571 10.7071L22.4571 7.70711Z" fill="black"/>
<path d="M3.04289 17.7071C2.65237 17.3166 2.65237 16.6834 3.04289 16.2929L6.04289 13.2929C6.43342 12.9024 7.06658 12.9024 7.45711 13.2929C7.84763 13.6834 7.84763 14.3166 7.45711 14.7071L6.16421 16L21.75 16C22.3023 16 22.75 16.4477 22.75 17C22.75 17.5523 22.3023 18 21.75 18L6.16421 18L7.45711 19.2929C7.84763 19.6834 7.84763 20.3166 7.45711 20.7071C7.06658 21.0976 6.43342 21.0976 6.04289 20.7071L3.04289 17.7071Z" fill="black"/>
</svg>
