<svg width="25" height="24" viewBox="0 0 25 24" fill="none" xmlns="http://www.w3.org/2000/svg">
<path d="M7.04289 2.29289C7.43342 1.90237 8.06658 1.90237 8.45711 2.29289L11.4571 5.29289C11.8476 5.68342 11.8476 6.31658 11.4571 6.70711C11.0666 7.09763 10.4334 7.09763 10.0429 6.70711L8.75 5.41421L8.75 21C8.75 21.5523 8.30228 22 7.75 22C7.19771 22 6.75 21.5523 6.75 21L6.75 5.41421L5.45711 6.70711C5.06658 7.09763 4.43342 7.09763 4.04289 6.70711C3.65237 6.31658 3.65237 5.68342 4.04289 5.29289L7.04289 2.29289Z" fill="black"/>
<path d="M14.0429 18.7071L17.0429 21.7071C17.4334 22.0976 18.0666 22.0976 18.4571 21.7071L21.4571 18.7071C21.8476 18.3166 21.8476 17.6834 21.4571 17.2929C21.0666 16.9024 20.4334 16.9024 20.0429 17.2929L18.75 18.5858V3C18.75 2.44772 18.3023 2 17.75 2C17.1977 2 16.75 2.44772 16.75 3V18.5858L15.4571 17.2929C15.0666 16.9024 14.4334 16.9024 14.0429 17.2929C13.6524 17.6834 13.6524 18.3166 14.0429 18.7071Z" fill="black"/>
</svg>
