<svg width="25" height="24" viewBox="0 0 25 24" fill="none" xmlns="http://www.w3.org/2000/svg">
<path d="M11.3359 1.10046C10.7836 1.10046 10.3359 1.54818 10.3359 2.10046C10.3359 2.65275 10.7836 3.10046 11.3359 3.10046H13.1643L2.14348 14.1213C1.75295 14.5118 1.75295 15.145 2.14348 15.5355C2.534 15.926 3.16717 15.926 3.55769 15.5355L14.5785 4.51468V6.3431C14.5785 6.89539 15.0262 7.3431 15.5785 7.3431C16.1308 7.3431 16.5785 6.89539 16.5785 6.3431V2.10046C16.5785 1.54818 16.1308 1.10046 15.5785 1.10046H11.3359Z" fill="black"/>
<path d="M23.3567 9.87874C23.7472 9.48821 23.7472 8.85505 23.3567 8.46452C22.9662 8.074 22.333 8.074 21.9425 8.46452L10.9217 19.4853V17.6569C10.9217 17.1046 10.4739 16.6569 9.92166 16.6569C9.36938 16.6569 8.92166 17.1046 8.92166 17.6569V21.8996C8.92166 22.4518 9.36938 22.8996 9.92166 22.8996H14.1643C14.7166 22.8996 15.1643 22.4518 15.1643 21.8996C15.1643 21.3473 14.7166 20.8996 14.1643 20.8996H12.3359L23.3567 9.87874Z" fill="black"/>
</svg>
