<svg width="25" height="24" viewBox="0 0 25 24" fill="none" xmlns="http://www.w3.org/2000/svg">
<path fill-rule="evenodd" clip-rule="evenodd" d="M17.25 1.5C19.4591 1.5 21.25 3.29086 21.25 5.5V18.5C21.25 20.7091 19.4591 22.5 17.25 22.5H7.25C5.04086 22.5 3.25 20.7091 3.25 18.5V5.5C3.25 3.29086 5.04086 1.5 7.25 1.5H17.25ZM5.25 5.5C5.25 4.39543 6.14543 3.5 7.25 3.5H9.38378C9.55669 3.7989 9.87986 4 10.25 4H14.25C14.6201 4 14.9433 3.7989 15.1162 3.5H17.25C18.3546 3.5 19.25 4.39543 19.25 5.5V18.5C19.25 19.6046 18.3546 20.5 17.25 20.5H7.25C6.14543 20.5 5.25 19.6046 5.25 18.5V5.5Z" fill="black"/>
</svg>
