<svg width="25" height="24" viewBox="0 0 25 24" fill="none" xmlns="http://www.w3.org/2000/svg">
<path d="M18.485 2.93652C16.713 1.71513 14.565 1 12.25 1C6.17487 1 1.25 5.92487 1.25 12C1.25 18.0751 6.17487 23 12.25 23C18.3251 23 23.25 18.0751 23.25 12C23.25 9.685 22.5349 7.53703 21.3135 5.76495L19.8699 7.20852C20.7442 8.59597 21.25 10.2389 21.25 12C21.25 16.9706 17.2206 21 12.25 21C7.27944 21 3.25 16.9706 3.25 12C3.25 7.02944 7.27944 3 12.25 3C14.0111 3 15.654 3.50582 17.0415 4.3801L18.485 2.93652Z" fill="black"/>
<path d="M20.25 1C20.8023 1 21.25 1.44772 21.25 2V3H22.25C22.8023 3 23.25 3.44772 23.25 4C23.25 4.55228 22.8023 5 22.25 5H20.6642L14.1009 11.5633C14.4801 11.7054 14.75 12.0712 14.75 12.5C14.75 13.0523 14.3023 13.5 13.75 13.5H11.75C11.1977 13.5 10.75 13.0523 10.75 12.5V10.5C10.75 9.94772 11.1977 9.5 11.75 9.5C12.1788 9.5 12.5446 9.7699 12.6867 10.1491L19.25 3.58579V2C19.25 1.44772 19.6977 1 20.25 1Z" fill="black"/>
<path d="M12.25 5C13.4555 5 14.5899 5.30474 15.5802 5.84138L14.0772 7.34438C13.5112 7.12208 12.8949 7 12.25 7C9.48858 7 7.25 9.23858 7.25 12C7.25 14.7614 9.48858 17 12.25 17C15.0114 17 17.25 14.7614 17.25 12C17.25 11.3551 17.1279 10.7388 16.9056 10.1728L18.4086 8.66981C18.9453 9.66014 19.25 10.7945 19.25 12C19.25 15.866 16.116 19 12.25 19C8.38401 19 5.25 15.866 5.25 12C5.25 8.13401 8.38401 5 12.25 5Z" fill="black"/>
</svg>
