<svg width="25" height="24" viewBox="0 0 25 24" fill="none" xmlns="http://www.w3.org/2000/svg">
<path fill-rule="evenodd" clip-rule="evenodd" d="M10.25 2C9.87123 2 9.52497 2.214 9.35557 2.55279L8.63197 4H6.69152C5.40023 4 4.25381 4.82629 3.84547 6.05132L2.80631 9.1688C2.4176 8.90803 1.88639 8.9494 1.54289 9.29289C1.15237 9.68342 1.15237 10.3166 1.54289 10.7071L1.64384 10.8081C1.3964 11.1409 1.25 11.5534 1.25 12V15.5C1.25 16.5252 1.86705 17.4062 2.75 17.792V19C2.75 20.1046 3.64543 21 4.75 21H7.25C8.35457 21 9.25 20.1046 9.25 19V18H15.25V19C15.25 20.1046 16.1454 21 17.25 21H19.75C20.8546 21 21.75 20.1046 21.75 19V17.792C22.633 17.4062 23.25 16.5252 23.25 15.5V12C23.25 11.5534 23.1036 11.1409 22.8562 10.8081L22.9571 10.7071C23.3476 10.3166 23.3476 9.68342 22.9571 9.29289C22.6136 8.9494 22.0824 8.90803 21.6937 9.1688L20.6545 6.05132C20.2462 4.82629 19.0998 4 17.8085 4H15.868L15.1444 2.55279C14.975 2.214 14.6288 2 14.25 2H10.25ZM5.74284 6.68377L4.63743 10H19.8626L18.7572 6.68377C18.6211 6.27543 18.2389 6 17.8085 6H15.25H9.25H6.69152C6.26109 6 5.87895 6.27543 5.74284 6.68377ZM3.75 16C3.47386 16 3.25 15.7761 3.25 15.5V12H21.25V15.5C21.25 15.7761 21.0261 16 20.75 16H16.25H8.25H3.75ZM4.75 19V18H7.25V19H4.75ZM17.25 19V18H19.75V19H17.25Z" fill="black"/>
</svg>
