<svg width="25" height="24" viewBox="0 0 25 24" fill="none" xmlns="http://www.w3.org/2000/svg">
<path d="M6.902 8.47C6.60929 8.93834 6.75166 9.55529 7.22 9.848L9.8632 11.5L7.22 13.152C6.75166 13.4447 6.60929 14.0617 6.902 14.53C7.19471 14.9983 7.81166 15.1407 8.28 14.848L10.9232 13.196C12.1765 12.4127 12.1765 10.5873 10.9232 9.804L8.28 8.152C7.81166 7.85929 7.19471 8.00166 6.902 8.47Z" fill="black"/>
<path d="M13.75 13C13.1977 13 12.75 13.4477 12.75 14C12.75 14.5523 13.1977 15 13.75 15H17.75C18.3023 15 18.75 14.5523 18.75 14C18.75 13.4477 18.3023 13 17.75 13H13.75Z" fill="black"/>
<path fill-rule="evenodd" clip-rule="evenodd" d="M2.75 7C2.75 4.79086 4.54086 3 6.75 3H18.75C20.9591 3 22.75 4.79086 22.75 7V17C22.75 19.2091 20.9591 21 18.75 21H6.75C4.54086 21 2.75 19.2091 2.75 17V7ZM6.75 5C5.64543 5 4.75 5.89543 4.75 7V17C4.75 18.1046 5.64543 19 6.75 19H18.75C19.8546 19 20.75 18.1046 20.75 17V7C20.75 5.89543 19.8546 5 18.75 5H6.75Z" fill="black"/>
</svg>
