<svg width="25" height="24" viewBox="0 0 25 24" fill="none" xmlns="http://www.w3.org/2000/svg">
<path d="M13.75 5C13.75 4.44772 13.3023 4 12.75 4C12.1977 4 11.75 4.44772 11.75 5V16C11.75 16.5523 12.1977 17 12.75 17C13.3023 17 13.75 16.5523 13.75 16V5Z" fill="black"/>
<path fill-rule="evenodd" clip-rule="evenodd" d="M12.75 1C10.7358 1 9.10294 2.63284 9.10294 4.64706V11.9168C7.66787 13.0491 6.75 14.8303 6.75 16.8225C6.75 20.2011 9.4037 23 12.75 23C16.0963 23 18.75 20.2011 18.75 16.8225C18.75 14.8303 17.8321 13.0491 16.3971 11.9168V4.64706C16.3971 2.63284 14.7642 1 12.75 1ZM8.75 16.8225C8.75 15.4202 9.40975 14.1889 10.4111 13.4334C10.8085 13.1336 11.1029 12.6457 11.1029 12.0703V4.64706C11.1029 3.73741 11.8404 3 12.75 3C13.6596 3 14.3971 3.73741 14.3971 4.64706V12.0703C14.3971 12.6457 14.6915 13.1336 15.0889 13.4334C16.0902 14.1889 16.75 15.4202 16.75 16.8225C16.75 19.1628 14.9266 21 12.75 21C10.5734 21 8.75 19.1628 8.75 16.8225Z" fill="black"/>
</svg>
