<svg width="25" height="24" viewBox="0 0 25 24" fill="none" xmlns="http://www.w3.org/2000/svg">
<path fill-rule="evenodd" clip-rule="evenodd" d="M12.75 2C12.2735 2 11.8029 2.1052 11.3718 2.30808L5.04681 5.28454C3.64484 5.94429 2.75 7.35437 2.75 8.90382V16C2.75 16.9978 3.32623 17.9058 4.22902 18.3306L11.3718 21.6919C11.8029 21.8948 12.2735 22 12.75 22C13.2265 22 13.6971 21.8948 14.1282 21.6919L21.271 18.3306C22.1738 17.9058 22.75 16.9978 22.75 16V8.90382C22.75 7.35437 21.8552 5.94429 20.4532 5.28454L14.1282 2.30808C13.6971 2.1052 13.2265 2 12.75 2ZM20.75 14.382L13.75 10.882V4.34049L19.6016 7.09418C20.3026 7.42405 20.75 8.12909 20.75 8.90382V14.382ZM12.75 12.618L20.4843 16.4852C20.4636 16.4984 20.442 16.5104 20.4194 16.521L13.2766 19.8823C13.1119 19.9598 12.9321 20 12.75 20C12.5679 20 12.3881 19.9598 12.2234 19.8823L5.08062 16.521C5.05804 16.5104 5.03638 16.4984 5.01571 16.4852L12.75 12.618ZM11.75 10.882L4.75 14.382V8.90382C4.75 8.12909 5.19742 7.42405 5.89841 7.09418L11.75 4.34049V10.882Z" fill="black"/>
</svg>
