<svg width="25" height="24" viewBox="0 0 25 24" fill="none" xmlns="http://www.w3.org/2000/svg">
<path d="M8.74962 6.5C8.74962 5.94772 8.3019 5.5 7.74962 5.5C7.19733 5.5 6.74962 5.94772 6.74962 6.5V8.5C6.74962 9.05229 7.19733 9.5 7.74962 9.5C8.3019 9.5 8.74962 9.05229 8.74962 8.5V6.5Z" fill="black"/>
<path d="M7.74962 10C8.3019 10 8.74962 10.4477 8.74962 11V13C8.74962 13.5523 8.3019 14 7.74962 14C7.19733 14 6.74962 13.5523 6.74962 13V11C6.74962 10.4477 7.19733 10 7.74962 10Z" fill="black"/>
<path d="M8.74962 15.5C8.74962 14.9477 8.3019 14.5 7.74962 14.5C7.19733 14.5 6.74962 14.9477 6.74962 15.5V17.5C6.74962 18.0523 7.19733 18.5 7.74962 18.5C8.3019 18.5 8.74962 18.0523 8.74962 17.5V15.5Z" fill="black"/>
<path fill-rule="evenodd" clip-rule="evenodd" d="M23.2496 17L23.2496 16.7082C23.2496 16.0872 23.105 15.4748 22.8273 14.9194L21.9226 13.11C21.6017 12.468 21.6493 11.7033 22.0474 11.1061L22.5778 10.3105C23.0159 9.6534 23.2496 8.88137 23.2496 8.09168V7C23.2496 4.79086 21.4587 3 19.2496 3H5.62368C3.23058 3 1.37901 5.09742 1.67584 7.47204C1.74755 8.04574 1.94344 8.59691 2.24987 9.08719L3.40787 10.94C3.81321 11.5885 3.81321 12.4115 3.40787 13.06L2.35763 14.7404C1.9603 15.3761 1.74962 16.1107 1.74962 16.8604L1.74962 17C1.74962 19.2091 3.54048 21 5.74962 21H19.2496C21.4588 21 23.2496 19.2091 23.2496 17ZM21.2496 16.7082L21.2496 17C21.2496 18.1046 20.3542 19 19.2496 19L5.74962 19C4.64505 19 3.74962 18.1046 3.74962 17V16.8604C3.74962 16.4855 3.85496 16.1183 4.05362 15.8004L5.10387 14.12C5.91454 12.8229 5.91454 11.1771 5.10387 9.88L3.94586 8.02719C3.79348 7.78338 3.69606 7.50927 3.6604 7.22397C3.51278 6.04306 4.43358 5 5.62368 5L19.2496 5C20.3542 5 21.2496 5.89543 21.2496 7V8.09168C21.2496 8.48653 21.1327 8.87254 20.9137 9.20107L20.3833 9.99673C19.587 11.1911 19.4918 12.7205 20.1338 14.0044L21.0385 15.8138C21.1773 16.0915 21.2496 16.3977 21.2496 16.7082Z" fill="black"/>
</svg>
