<svg width="25" height="24" viewBox="0 0 25 24" fill="none" xmlns="http://www.w3.org/2000/svg">
<path d="M10.75 4.5C11.4239 4.5 12.0834 4.63444 12.6114 4.89847C13.0797 5.13258 13.75 5.64103 13.75 6.5C13.75 7.35897 13.0797 7.86742 12.6114 8.10153C12.0834 8.36556 11.4239 8.5 10.75 8.5C10.0761 8.5 9.41662 8.36556 8.88857 8.10153C8.42034 7.86742 7.75 7.35897 7.75 6.5C7.75 5.64103 8.42034 5.13258 8.88857 4.89847C9.41662 4.63444 10.0761 4.5 10.75 4.5Z" fill="black"/>
<path fill-rule="evenodd" clip-rule="evenodd" d="M19.25 6.5V9H20.25C21.9069 9 23.25 10.3431 23.25 12V19C23.25 20.6569 21.9069 22 20.25 22H10.75C8.5665 22 6.54093 21.589 5.02381 20.8811C3.5879 20.211 2.25 19.0858 2.25 17.5V6.5C2.25 4.9142 3.5879 3.78904 5.02381 3.11894C6.54093 2.41096 8.5665 2 10.75 2C12.9335 2 14.9591 2.41096 16.4762 3.11894C17.9121 3.78904 19.25 4.9142 19.25 6.5ZM4.25 6.5C4.25 6.15281 4.59104 5.52797 5.86958 4.93131C7.06693 4.37255 8.79136 4 10.75 4C12.7086 4 14.4331 4.37255 15.6304 4.93131C16.909 5.52797 17.25 6.15281 17.25 6.5C17.25 6.84719 16.909 7.47203 15.6304 8.06869C14.4331 8.62745 12.7086 9 10.75 9C8.79136 9 7.06693 8.62745 5.86958 8.06869C4.59104 7.47203 4.25 6.84719 4.25 6.5ZM4.25 17.5V9.46561C4.4995 9.61947 4.76 9.75795 5.02381 9.88106C6.54093 10.589 8.5665 11 10.75 11H20.25C20.8023 11 21.25 11.4477 21.25 12V19C21.25 19.5523 20.8023 20 20.25 20H10.75C8.79136 20 7.06693 19.6275 5.86958 19.0687C4.59104 18.472 4.25 17.8472 4.25 17.5Z" fill="black"/>
</svg>
