<svg width="25" height="24" viewBox="0 0 25 24" fill="none" xmlns="http://www.w3.org/2000/svg">
<path fill-rule="evenodd" clip-rule="evenodd" d="M6.25 10C6.25 6.68629 8.93629 4 12.25 4C15.5637 4 18.25 6.68629 18.25 10V13C18.25 14.6569 16.9069 16 15.25 16H9.25C7.59315 16 6.25 14.6569 6.25 13V10ZM12.25 6C10.0409 6 8.25 7.79086 8.25 10V13C8.25 13.5523 8.69772 14 9.25 14H15.25C15.8023 14 16.25 13.5523 16.25 13V10C16.25 7.79086 14.4591 6 12.25 6Z" fill="black"/>
<path d="M10.25 17C9.69772 17 9.25 17.4477 9.25 18C9.25 18.5523 9.69772 19 10.25 19H15.25C15.8023 19 16.25 18.5523 16.25 18C16.25 17.4477 15.8023 17 15.25 17H10.25Z" fill="black"/>
<path fill-rule="evenodd" clip-rule="evenodd" d="M3.25 10C3.25 5.02944 7.27944 1 12.25 1C17.2206 1 21.25 5.02944 21.25 10V16C21.25 19.3137 18.5637 22 15.25 22H9.25C5.93629 22 3.25 19.3137 3.25 16V10ZM12.25 3C8.38401 3 5.25 6.13401 5.25 10V16C5.25 18.2091 7.04086 20 9.25 20H15.25C17.4591 20 19.25 18.2091 19.25 16V10C19.25 6.13401 16.116 3 12.25 3Z" fill="black"/>
</svg>
