<svg width="25" height="24" viewBox="0 0 25 24" fill="none" xmlns="http://www.w3.org/2000/svg">
<path fill-rule="evenodd" clip-rule="evenodd" d="M7.25 21C8.55622 21 9.66746 20.1652 10.0793 19H16.4207C16.8325 20.1652 17.9438 21 19.25 21C20.5562 21 21.6675 20.1652 22.0793 19H22.25C22.8023 19 23.25 18.5523 23.25 18V14.6366C23.25 14.077 23.1326 13.5235 22.9052 13.0121L21.9556 10.8754C21.3136 9.43093 19.8811 8.5 18.3004 8.5H16.25V7C16.25 4.79086 14.4591 3 12.25 3H5.25C3.04086 3 1.25 4.79086 1.25 7V17C1.25 18.1046 2.14543 19 3.25 19H4.42071C4.83254 20.1652 5.94378 21 7.25 21ZM3.25 7C3.25 5.89543 4.14543 5 5.25 5H12.25C13.3546 5 14.25 5.89543 14.25 7V17H10.0793C9.66746 15.8348 8.55622 15 7.25 15C5.94378 15 4.83254 15.8348 4.42071 17H3.25V7ZM21.0776 13.8244C21.1913 14.0801 21.25 14.3568 21.25 14.6366V15.7639C20.7192 15.2889 20.0184 15 19.25 15C17.9438 15 16.8325 15.8348 16.4207 17H16.25V10.5H18.3004C19.0908 10.5 19.807 10.9655 20.128 11.6877L21.0776 13.8244ZM6.25 18C6.25 17.4477 6.69772 17 7.25 17C7.80228 17 8.25 17.4477 8.25 18C8.25 18.5523 7.80228 19 7.25 19C6.69772 19 6.25 18.5523 6.25 18ZM18.25 18C18.25 17.4477 18.6977 17 19.25 17C19.8023 17 20.25 17.4477 20.25 18C20.25 18.5523 19.8023 19 19.25 19C18.6977 19 18.25 18.5523 18.25 18Z" fill="black"/>
</svg>
