<svg width="25" height="24" viewBox="0 0 25 24" fill="none" xmlns="http://www.w3.org/2000/svg">
<path d="M6.75 8C6.19772 8 5.75 8.44772 5.75 9C5.75 9.55228 6.19772 10 6.75 10H7.75V13C7.75 13.5523 8.19772 14 8.75 14C9.30228 14 9.75 13.5523 9.75 13V10H10.75C11.3023 10 11.75 9.55228 11.75 9C11.75 8.44772 11.3023 8 10.75 8H6.75Z" fill="black"/>
<path d="M13.3028 8.10557C13.7968 7.85858 14.3974 8.05881 14.6444 8.55279L15.75 10.7639L16.8556 8.55279C17.1026 8.05881 17.7032 7.85858 18.1972 8.10557C18.6912 8.35256 18.8914 8.95324 18.6444 9.44721L16.6444 13.4472C16.475 13.786 16.1288 14 15.75 14C15.3712 14 15.025 13.786 14.8556 13.4472L12.8556 9.44721C12.6086 8.95324 12.8088 8.35256 13.3028 8.10557Z" fill="black"/>
<path fill-rule="evenodd" clip-rule="evenodd" d="M5.25 2C3.04086 2 1.25 3.79086 1.25 6V16C1.25 18.2091 3.04086 20 5.25 20H10.75C10.1977 20 9.75 20.4477 9.75 21C9.75 21.5523 10.1977 22 10.75 22H13.75C14.3023 22 14.75 21.5523 14.75 21C14.75 20.4477 14.3023 20 13.75 20H19.25C21.4591 20 23.25 18.2091 23.25 16V6C23.25 3.79086 21.4591 2 19.25 2H5.25ZM3.25 6C3.25 4.89543 4.14543 4 5.25 4H19.25C20.3546 4 21.25 4.89543 21.25 6V16C21.25 17.1046 20.3546 18 19.25 18H5.25C4.14543 18 3.25 17.1046 3.25 16V6Z" fill="black"/>
</svg>
