<svg width="25" height="24" viewBox="0 0 25 24" fill="none" xmlns="http://www.w3.org/2000/svg">
<path d="M3.29289 8.70711C2.90237 8.31658 2.90237 7.68342 3.29289 7.29289L7.29289 3.29289C7.68342 2.90237 8.31658 2.90237 8.70711 3.29289C9.09763 3.68342 9.09763 4.31658 8.70711 4.70711L6.41421 7H15.5C19.366 7 22.5 10.134 22.5 14C22.5 17.866 19.366 21 15.5 21H6C5.44772 21 5 20.5523 5 20C5 19.4477 5.44772 19 6 19H15.5C18.2614 19 20.5 16.7614 20.5 14C20.5 11.2386 18.2614 9 15.5 9H6.41421L8.70711 11.2929C9.09763 11.6834 9.09763 12.3166 8.70711 12.7071C8.31658 13.0976 7.68342 13.0976 7.29289 12.7071L3.29289 8.70711Z" fill="black"/>
</svg>
