<svg width="25" height="24" viewBox="0 0 25 24" fill="none" xmlns="http://www.w3.org/2000/svg">
<path d="M12.9571 2.29289C12.5666 1.90237 11.9334 1.90237 11.5429 2.29289L7.54289 6.29289C7.15237 6.68342 7.15237 7.31658 7.54289 7.70711C7.93342 8.09763 8.56658 8.09763 8.95711 7.70711L11.25 5.41421V17C11.25 17.5523 11.6977 18 12.25 18C12.8023 18 13.25 17.5523 13.25 17V5.41421L15.5429 7.70711C15.9334 8.09763 16.5666 8.09763 16.9571 7.70711C17.3476 7.31658 17.3476 6.68342 16.9571 6.29289L12.9571 2.29289Z" fill="black"/>
<path d="M4.25 17.5C4.25 16.9477 3.80228 16.5 3.25 16.5C2.69772 16.5 2.25 16.9477 2.25 17.5V19C2.25 21.2091 4.04086 23 6.25 23H18.25C20.4591 23 22.25 21.2091 22.25 19V17.5C22.25 16.9477 21.8023 16.5 21.25 16.5C20.6977 16.5 20.25 16.9477 20.25 17.5V19C20.25 20.1046 19.3546 21 18.25 21H6.25C5.14543 21 4.25 20.1046 4.25 19V17.5Z" fill="black"/>
</svg>
