<svg width="25" height="24" viewBox="0 0 25 24" fill="none" xmlns="http://www.w3.org/2000/svg">
<path fill-rule="evenodd" clip-rule="evenodd" d="M12.25 2C9.48858 2 7.25 4.23858 7.25 7C7.25 9.76142 9.48858 12 12.25 12C15.0114 12 17.25 9.76142 17.25 7C17.25 4.23858 15.0114 2 12.25 2ZM9.25 7C9.25 5.34315 10.5931 4 12.25 4C13.9069 4 15.25 5.34315 15.25 7C15.25 8.65685 13.9069 10 12.25 10C10.5931 10 9.25 8.65685 9.25 7Z" fill="black"/>
<path fill-rule="evenodd" clip-rule="evenodd" d="M12.25 23C10.7095 23 8.47982 22.6502 6.80543 21.9174C5.98343 21.5576 5.14745 21.0427 4.66175 20.2974C4.40632 19.9054 4.24483 19.4437 4.25013 18.9282C4.25537 18.4174 4.42344 17.9281 4.70591 17.4728C6.07532 15.2656 8.87679 13 12.25 13C15.6232 13 18.4247 15.2656 19.7941 17.4728C20.0766 17.9281 20.2446 18.4174 20.2499 18.9282C20.2552 19.4437 20.0937 19.9054 19.8382 20.2974C19.3525 21.0427 18.5166 21.5576 17.6946 21.9174C16.0202 22.6502 13.7905 23 12.25 23ZM6.40539 18.5272C6.27372 18.7394 6.25077 18.8757 6.25002 18.9487C6.24932 19.017 6.26686 19.0973 6.33736 19.2055C6.50354 19.4605 6.90707 19.7787 7.60732 20.0852C8.97744 20.6848 10.9232 21 12.25 21C13.5768 21 15.5226 20.6848 16.8927 20.0852C17.5929 19.7787 17.9965 19.4605 18.1626 19.2055C18.2331 19.0973 18.2507 19.017 18.25 18.9487C18.2492 18.8757 18.2263 18.7394 18.0946 18.5272C16.9725 16.7185 14.7343 15 12.25 15C9.76566 15 7.52754 16.7185 6.40539 18.5272Z" fill="black"/>
</svg>
