<svg width="25" height="24" viewBox="0 0 25 24" fill="none" xmlns="http://www.w3.org/2000/svg">
<path fill-rule="evenodd" clip-rule="evenodd" d="M7.25 7C7.25 4.23858 9.48858 2 12.25 2C15.0114 2 17.25 4.23858 17.25 7C17.25 9.76142 15.0114 12 12.25 12C9.48858 12 7.25 9.76142 7.25 7ZM12.25 4C10.5931 4 9.25 5.34315 9.25 7C9.25 8.65685 10.5931 10 12.25 10C13.9069 10 15.25 8.65685 15.25 7C15.25 5.34315 13.9069 4 12.25 4Z" fill="black"/>
<path fill-rule="evenodd" clip-rule="evenodd" d="M6.80543 21.9174C8.47982 22.6502 10.7095 23 12.25 23C13.7905 23 16.0202 22.6502 17.6946 21.9174C18.5166 21.5576 19.3525 21.0427 19.8382 20.2974C20.0937 19.9054 20.2552 19.4437 20.2499 18.9282C20.2446 18.4174 20.0766 17.9281 19.7941 17.4728C18.4247 15.2656 15.6232 13 12.25 13C8.87679 13 6.07532 15.2656 4.70591 17.4728C4.42344 17.9281 4.25537 18.4174 4.25013 18.9282C4.24483 19.4437 4.40632 19.9054 4.66175 20.2974C5.14745 21.0427 5.98343 21.5576 6.80543 21.9174ZM6.25002 18.9487C6.25077 18.8757 6.27372 18.7394 6.40539 18.5272C7.52754 16.7185 9.76566 15 12.25 15C14.7343 15 16.9725 16.7185 18.0946 18.5272C18.2263 18.7394 18.2492 18.8757 18.25 18.9487C18.2507 19.017 18.2331 19.0973 18.1626 19.2055C17.9965 19.4605 17.5929 19.7787 16.8927 20.0852C15.5226 20.6848 13.5768 21 12.25 21C10.9232 21 8.97744 20.6848 7.60732 20.0852C6.90707 19.7787 6.50354 19.4605 6.33736 19.2055C6.26686 19.0973 6.24932 19.017 6.25002 18.9487Z" fill="black"/>
<path d="M18.25 4C17.6977 4 17.25 4.44772 17.25 5C17.25 5.55228 17.6977 6 18.25 6H22.25C22.8023 6 23.25 5.55228 23.25 5C23.25 4.44772 22.8023 4 22.25 4H18.25Z" fill="black"/>
</svg>
