<svg width="25" height="24" viewBox="0 0 25 24" fill="none" xmlns="http://www.w3.org/2000/svg">
<path fill-rule="evenodd" clip-rule="evenodd" d="M14.2501 3C10.9364 3 8.25014 5.68629 8.25014 9C8.25014 12.3137 10.9364 15 14.2501 15C17.5638 15 20.2501 12.3137 20.2501 9C20.2501 5.68629 17.5638 3 14.2501 3ZM10.2501 9C10.2501 6.79086 12.041 5 14.2501 5C16.4593 5 18.2501 6.79086 18.2501 9C18.2501 11.2091 16.4593 13 14.2501 13C12.041 13 10.2501 11.2091 10.2501 9Z" fill="black"/>
<path d="M8.40554 20.5272C8.11437 20.9965 7.49789 21.1409 7.0286 20.8497C6.5593 20.5586 6.4149 19.9421 6.70606 19.4728C8.07546 17.2656 10.8769 15 14.2501 15C17.6233 15 20.4248 17.2656 21.7942 19.4728C22.0854 19.9421 21.941 20.5586 21.4717 20.8497C21.0024 21.1409 20.3859 20.9965 20.0948 20.5272C18.9726 18.7185 16.7345 17 14.2501 17C11.7658 17 9.52769 18.7185 8.40554 20.5272Z" fill="black"/>
<path d="M8.14799 6.55972C8.39116 7.05559 8.18629 7.6547 7.69042 7.89786C6.78175 8.34344 6.25014 9.15179 6.25014 10C6.25014 10.8482 6.78175 11.6566 7.69042 12.1021C8.18629 12.3453 8.39116 12.9444 8.14799 13.4403C7.90483 13.9362 7.30573 14.141 6.80985 13.8979C5.33305 13.1737 4.25014 11.7335 4.25014 10C4.25014 8.26647 5.33305 6.82632 6.80985 6.10214C7.30573 5.85898 7.90483 6.06384 8.14799 6.55972Z" fill="black"/>
<path d="M4.40554 20.5272C4.11437 20.9965 3.49789 21.1409 3.0286 20.8497C2.5593 20.5586 2.4149 19.9421 2.70606 19.4728C3.28516 18.5394 4.21169 17.7604 5.24537 17.1559C5.72213 16.8772 6.33462 17.0377 6.6134 17.5144C6.89218 17.9912 6.73169 18.6037 6.25493 18.8824C5.39122 19.3875 4.75575 19.9627 4.40554 20.5272Z" fill="black"/>
</svg>
