<svg width="25" height="24" viewBox="0 0 25 24" fill="none" xmlns="http://www.w3.org/2000/svg">
<path fill-rule="evenodd" clip-rule="evenodd" d="M12.2502 5C10.0411 5 8.25022 6.79086 8.25022 9C8.25022 11.2091 10.0411 13 12.2502 13C14.4594 13 16.2502 11.2091 16.2502 9C16.2502 6.79086 14.4594 5 12.2502 5ZM10.2502 9C10.2502 7.89543 11.1457 7 12.2502 7C13.3548 7 14.2502 7.89543 14.2502 9C14.2502 10.1046 13.3548 11 12.2502 11C11.1457 11 10.2502 10.1046 10.2502 9Z" fill="black"/>
<path fill-rule="evenodd" clip-rule="evenodd" d="M12.2502 22C11.1133 22 9.47409 21.7313 8.23006 21.1596C7.61982 20.8792 6.96504 20.4632 6.57882 19.8409C6.37493 19.5124 6.24611 19.1251 6.25032 18.6941C6.2545 18.2672 6.38838 17.8623 6.60761 17.4913C7.61008 15.7947 9.68977 14 12.2502 14C14.8107 14 16.8904 15.7947 17.8928 17.4913C18.1121 17.8623 18.2459 18.2672 18.2501 18.6941C18.2543 19.1251 18.1255 19.5124 17.9216 19.8409C17.5354 20.4632 16.8806 20.8792 16.2704 21.1596C15.0263 21.7313 13.3871 22 12.2502 22ZM8.32948 18.5087C8.25289 18.6383 8.25033 18.7027 8.25023 18.7136C8.25014 18.7209 8.24989 18.7407 8.27814 18.7862C8.35753 18.9142 8.58812 19.1231 9.0652 19.3423C9.99582 19.77 11.3391 20 12.2502 20C13.1614 20 14.5046 19.77 15.4352 19.3423C15.9123 19.1231 16.1429 18.9142 16.2223 18.7862C16.2505 18.7407 16.2503 18.7214 16.2502 18.7141C16.2501 18.7032 16.2476 18.6383 16.171 18.5087C15.3938 17.1934 13.8737 16 12.2502 16C10.6267 16 9.10669 17.1934 8.32948 18.5087Z" fill="black"/>
<path fill-rule="evenodd" clip-rule="evenodd" d="M2.75022 12C2.75022 10.3431 4.09337 9 5.75022 9C7.40708 9 8.75022 10.3431 8.75022 12C8.75022 13.6569 7.40708 15 5.75022 15C4.09337 15 2.75022 13.6569 2.75022 12ZM5.75022 11C5.19794 11 4.75022 11.4477 4.75022 12C4.75022 12.5523 5.19794 13 5.75022 13C6.30251 13 6.75022 12.5523 6.75022 12C6.75022 11.4477 6.30251 11 5.75022 11Z" fill="black"/>
<path d="M3.14595 19.4446C2.90041 19.9393 2.30033 20.1413 1.80563 19.8957C1.31093 19.6502 1.10895 19.0501 1.35449 18.5554C1.72187 17.8152 2.27795 17.0721 2.97747 16.5034C3.67726 15.9346 4.57399 15.5 5.59739 15.5C6.14968 15.5 6.59739 15.9477 6.59739 16.5C6.59739 17.0523 6.14968 17.5 5.59739 17.5C5.15641 17.5 4.691 17.688 4.23902 18.0554C3.78678 18.423 3.40146 18.9298 3.14595 19.4446Z" fill="black"/>
<path fill-rule="evenodd" clip-rule="evenodd" d="M16.0603 12C16.0603 10.3431 17.4034 9 19.0603 9C20.7171 9 22.0603 10.3431 22.0603 12C22.0603 13.6569 20.7171 15 19.0603 15C17.4034 15 16.0603 13.6569 16.0603 12ZM19.0603 11C18.508 11 18.0603 11.4477 18.0603 12C18.0603 12.5523 18.508 13 19.0603 13C19.6126 13 20.0603 12.5523 20.0603 12C20.0603 11.4477 19.6126 11 19.0603 11Z" fill="black"/>
<path d="M23.1504 18.5554C23.3959 19.0501 23.1939 19.6502 22.6992 19.8957C22.2045 20.1413 21.6044 19.9393 21.3589 19.4446C21.1034 18.9298 20.7181 18.423 20.2658 18.0554C19.8138 17.688 19.3484 17.5 18.9074 17.5C18.3552 17.5 17.9074 17.0523 17.9074 16.5C17.9074 15.9477 18.3552 15.5 18.9074 15.5C19.9309 15.5 20.8276 15.9346 21.5274 16.5034C22.2269 17.0721 22.783 17.8152 23.1504 18.5554Z" fill="black"/>
</svg>
