<svg width="25" height="24" viewBox="0 0 25 24" fill="none" xmlns="http://www.w3.org/2000/svg">
<g clip-path="url(#clip0_4001_1176)">
<path fill-rule="evenodd" clip-rule="evenodd" d="M12.25 3C9.48858 3 7.25 5.23858 7.25 8C7.25 10.7614 9.48858 13 12.25 13C15.0114 13 17.25 10.7614 17.25 8C17.25 5.23858 15.0114 3 12.25 3ZM9.25 8C9.25 6.34315 10.5931 5 12.25 5C13.9069 5 15.25 6.34315 15.25 8C15.25 9.65685 13.9069 11 12.25 11C10.5931 11 9.25 9.65685 9.25 8Z" fill="black"/>
<path fill-rule="evenodd" clip-rule="evenodd" d="M24.25 12C24.25 18.6274 18.8774 24 12.25 24L12.234 24C5.61396 23.9914 0.25 18.6221 0.25 12C0.25 5.37258 5.62258 0 12.25 0C18.8774 0 24.25 5.37258 24.25 12ZM2.25 12C2.25 6.47715 6.72715 2 12.25 2C17.7728 2 22.25 6.47715 22.25 12C22.25 14.387 21.4137 16.5786 20.0181 18.2979C19.9769 18.2032 19.9301 18.1084 19.8774 18.0136C18.5213 15.5774 15.7017 13 12.2469 13C8.79217 13 5.97256 15.5774 4.61649 18.0136C4.56462 18.1068 4.51857 18.2001 4.47815 18.2932C3.08481 16.5747 2.25 14.3848 2.25 12ZM7.71843 20.8306C9.07842 21.5567 10.9592 21.9985 12.2404 22L12.2469 22C13.5324 22 15.4236 21.5661 16.7869 20.8442C17.4739 20.4804 17.9144 20.1019 18.1187 19.7742C18.278 19.5187 18.3046 19.3003 18.1299 18.9864C16.9712 16.9048 14.7043 15 12.2469 15C9.7896 15 7.5227 16.9048 6.36401 18.9864C6.1984 19.2839 6.22069 19.4959 6.38309 19.7546C6.58964 20.0836 7.0322 20.4642 7.71843 20.8306Z" fill="black"/>
</g>
<defs>
<clipPath id="clip0_4001_1176">
<rect width="24" height="24" fill="white" transform="translate(0.25)"/>
</clipPath>
</defs>
</svg>
