<svg width="25" height="24" viewBox="0 0 25 24" fill="none" xmlns="http://www.w3.org/2000/svg">
<path fill-rule="evenodd" clip-rule="evenodd" d="M7.25 7C7.25 4.23858 9.48858 2 12.25 2C15.0114 2 17.25 4.23858 17.25 7C17.25 9.76142 15.0114 12 12.25 12C9.48858 12 7.25 9.76142 7.25 7ZM12.25 4C10.5931 4 9.25 5.34315 9.25 7C9.25 8.65685 10.5931 10 12.25 10C13.9069 10 15.25 8.65685 15.25 7C15.25 5.34315 13.9069 4 12.25 4Z" fill="black"/>
<path fill-rule="evenodd" clip-rule="evenodd" d="M6.80543 21.9174C8.47982 22.6502 10.7095 23 12.25 23C13.7905 23 16.0202 22.6502 17.6946 21.9174C18.5166 21.5576 19.3525 21.0427 19.8382 20.2974C20.0937 19.9054 20.2552 19.4437 20.2499 18.9282C20.2446 18.4174 20.0766 17.9281 19.7941 17.4728C18.4247 15.2656 15.6232 13 12.25 13C8.87679 13 6.07532 15.2656 4.70591 17.4728C4.42344 17.9281 4.25537 18.4174 4.25013 18.9282C4.24483 19.4437 4.40632 19.9054 4.66175 20.2974C5.14745 21.0427 5.98343 21.5576 6.80543 21.9174ZM6.25002 18.9487C6.25077 18.8757 6.27372 18.7394 6.40539 18.5272C7.52754 16.7185 9.76566 15 12.25 15C14.7343 15 16.9725 16.7185 18.0946 18.5272C18.2263 18.7394 18.2492 18.8757 18.25 18.9487C18.2507 19.017 18.2331 19.0973 18.1626 19.2055C17.9965 19.4605 17.5929 19.7787 16.8927 20.0852C15.5226 20.6848 13.5768 21 12.25 21C10.9232 21 8.97744 20.6848 7.60732 20.0852C6.90707 19.7787 6.50354 19.4605 6.33736 19.2055C6.26686 19.0973 6.24932 19.017 6.25002 18.9487Z" fill="black"/>
<path fill-rule="evenodd" clip-rule="evenodd" d="M20.4565 3.20835C20.4712 3.21487 20.4857 3.22146 20.5 3.22812C20.5143 3.22146 20.5288 3.21487 20.5435 3.20836C21.0126 3.00055 21.7066 2.86796 22.475 3.20835C22.9629 3.42451 23.3474 3.78006 23.5636 4.2576C23.7728 4.71971 23.7848 5.20744 23.7026 5.64071C23.5908 6.23022 23.2509 6.70823 22.9338 7.05245C22.6067 7.40752 22.2267 7.70311 21.9047 7.9246C21.0558 8.50861 19.9442 8.50861 19.0953 7.92461C18.7733 7.70312 18.3933 7.40753 18.0662 7.05246C17.7492 6.70824 17.4092 6.23023 17.2974 5.64071C17.2152 5.20744 17.2272 4.71971 17.4364 4.2576C17.6526 3.78006 18.0371 3.42451 18.525 3.20835C19.2934 2.86796 19.9874 3.00055 20.4565 3.20835ZM19.7732 5.11244C19.7851 5.12156 19.7931 5.12842 19.7967 5.13155C19.9837 5.3166 20.2364 5.42072 20.5 5.42072C20.7637 5.42071 21.0164 5.31659 21.2034 5.13154C21.2069 5.1284 21.2149 5.12155 21.2269 5.11243C21.2571 5.08929 21.3016 5.06 21.3536 5.03696C21.4452 4.99639 21.5362 4.97994 21.6649 5.03696C21.7156 5.05939 21.7358 5.07744 21.7403 5.0817L21.742 5.0834C21.742 5.0834 21.7433 5.08707 21.7443 5.09091C21.7458 5.0969 21.7477 5.10695 21.7489 5.12177C21.7514 5.15201 21.7505 5.20018 21.7376 5.26797C21.7251 5.33426 21.6617 5.48142 21.4628 5.69744C21.2738 5.9026 21.0249 6.1023 20.7712 6.27685C20.605 6.3912 20.3951 6.3912 20.2288 6.27685C19.9751 6.1023 19.7262 5.9026 19.5373 5.69743C19.3383 5.48142 19.275 5.33425 19.2624 5.26797C19.2495 5.20018 19.2486 5.15201 19.2511 5.12177C19.2523 5.10695 19.2543 5.0969 19.2557 5.09091C19.2567 5.08707 19.258 5.0834 19.258 5.0834L19.2597 5.0817C19.2642 5.07744 19.2844 5.05939 19.3351 5.03696C19.4638 4.97994 19.5548 4.99638 19.6464 5.03696C19.6985 5.06001 19.7429 5.0893 19.7732 5.11244Z" fill="black"/>
</svg>
