<svg width="25" height="24" viewBox="0 0 25 24" fill="none" xmlns="http://www.w3.org/2000/svg">
<path d="M16.6912 9.90267C17.0533 9.54183 17.0444 8.96541 16.6713 8.61519C16.2982 8.26498 15.7022 8.2736 15.3401 8.63443L10.5335 13.4241L9.15993 12.0553C8.79782 11.6945 8.20183 11.6859 7.82873 12.0361C7.45564 12.3863 7.44673 12.9627 7.80884 13.3236L9.85799 15.3656C10.0353 15.5422 10.279 15.6419 10.5335 15.6419C10.7881 15.6419 11.0318 15.5422 11.2091 15.3656L16.6912 9.90267Z" fill="black"/>
<path fill-rule="evenodd" clip-rule="evenodd" d="M14.6052 2.92149C13.292 1.69284 11.208 1.69284 9.89479 2.92149C9.56125 3.23356 9.09747 3.3793 8.63797 3.31644C6.82887 3.06896 5.14283 4.2537 4.82715 5.99422C4.74697 6.4363 4.46034 6.81785 4.05039 7.02822C2.43639 7.85643 1.79238 9.77339 2.59479 11.361C2.79859 11.7642 2.79859 12.2358 2.59479 12.639C1.79238 14.2266 2.4364 16.1436 4.05039 16.9718C4.46034 17.1821 4.74697 17.5637 4.82715 18.0058C5.14283 19.7463 6.82887 20.931 8.63797 20.6836C9.09747 20.6207 9.56125 20.7664 9.89479 21.0785C11.208 22.3072 13.292 22.3072 14.6052 21.0785C14.9388 20.7664 15.4025 20.6207 15.862 20.6836C17.6711 20.931 19.3572 19.7463 19.6729 18.0058C19.753 17.5637 20.0397 17.1821 20.4496 16.9718C22.0636 16.1436 22.7076 14.2266 21.9052 12.639C21.7014 12.2358 21.7014 11.7642 21.9052 11.361C22.7076 9.77339 22.0636 7.85643 20.4496 7.02822C20.0397 6.81785 19.753 6.4363 19.6729 5.99422C19.3572 4.2537 17.6711 3.06896 15.862 3.31644C15.4025 3.3793 14.9388 3.23356 14.6052 2.92149ZM11.2039 4.23026C11.7872 3.68453 12.7128 3.68453 13.2961 4.23026C14.047 4.93285 15.0912 5.26098 16.1257 5.11946C16.9293 5.00953 17.6781 5.53576 17.8184 6.30884C17.9989 7.30414 18.6442 8.16318 19.5672 8.63679C20.284 9.00466 20.5701 9.8561 20.2137 10.5612C19.7548 11.4691 19.7548 12.5309 20.2137 13.4388C20.5701 14.1439 20.284 14.9953 19.5672 15.3632C18.6442 15.8368 17.9989 16.6959 17.8184 17.6912C17.6781 18.4642 16.9293 18.9905 16.1257 18.8805C15.0912 18.739 14.047 19.0671 13.2961 19.7697C12.7128 20.3155 11.7872 20.3155 11.2039 19.7697C10.453 19.0671 9.4088 18.739 8.37428 18.8805C7.57074 18.9905 6.82186 18.4642 6.68164 17.6912C6.50112 16.6959 5.8558 15.8368 4.93284 15.3632C4.21596 14.9953 3.92991 14.1439 4.28631 13.4388C4.74516 12.5309 4.74516 11.4691 4.28631 10.5612C3.92991 9.8561 4.21596 9.00466 4.93284 8.63679C5.8558 8.16318 6.50112 7.30414 6.68164 6.30884C6.82186 5.53576 7.57074 5.00953 8.37428 5.11946C9.4088 5.26098 10.453 4.93285 11.2039 4.23026Z" fill="black"/>
</svg>
