<svg width="25" height="24" viewBox="0 0 25 24" fill="none" xmlns="http://www.w3.org/2000/svg">
<path d="M23.4571 1.29289C23.8476 1.68342 23.8476 2.31658 23.4571 2.70711L3.45711 22.7071C3.06658 23.0976 2.43342 23.0976 2.04289 22.7071C1.65237 22.3166 1.65237 21.6834 2.04289 21.2929L22.0429 1.29289C22.4334 0.902369 23.0666 0.902369 23.4571 1.29289Z" fill="black"/>
<path d="M6.36186 10.6497C6.2015 10.1687 5.824 9.79115 5.34292 9.63079C4.85331 9.46759 4.85331 8.77505 5.34292 8.61185C5.824 8.45149 6.2015 8.07398 6.36186 7.5929C6.52507 7.10329 7.21761 7.10329 7.38081 7.5929C7.54117 8.07398 7.91868 8.45149 8.39976 8.61185C8.88937 8.77505 8.88937 9.46759 8.39976 9.63079C7.91868 9.79115 7.54117 10.1687 7.38081 10.6497C7.21761 11.1394 6.52507 11.1394 6.36186 10.6497Z" fill="black"/>
<path d="M15.75 4C16.3828 4 16.9812 4.14692 17.5131 4.40851L15.9149 6.0067C15.8605 6.00226 15.8055 6 15.75 6H5.75C4.64543 6 3.75 6.89543 3.75 8V16C3.75 16.5959 4.01065 17.131 4.42416 17.4974L3.00865 18.9129C2.23379 18.1834 1.75 17.1482 1.75 16V8C1.75 5.79086 3.54086 4 5.75 4H15.75Z" fill="black"/>
<path fill-rule="evenodd" clip-rule="evenodd" d="M15.75 18H9.57843L7.57843 20H15.75C17.6425 20 19.228 18.6858 19.6436 16.9202L20.55 17.6C21.8685 18.5889 23.75 17.6481 23.75 16V8C23.75 6.75206 22.6712 5.90967 21.5749 6.00349L17.75 9.82843V16C17.75 17.1046 16.8546 18 15.75 18ZM19.75 14.5L21.75 16V8L19.75 9.5V14.5Z" fill="black"/>
</svg>
