<svg width="25" height="24" viewBox="0 0 25 24" fill="none" xmlns="http://www.w3.org/2000/svg">
<path d="M5.34292 9.63079C5.824 9.79115 6.2015 10.1687 6.36186 10.6497C6.52507 11.1394 7.21761 11.1394 7.38081 10.6497C7.54117 10.1687 7.91868 9.79115 8.39976 9.63079C8.88937 9.46759 8.88937 8.77505 8.39976 8.61185C7.91868 8.45149 7.54117 8.07398 7.38081 7.5929C7.21761 7.10329 6.52507 7.10329 6.36186 7.5929C6.2015 8.07398 5.824 8.45149 5.34292 8.61185C4.85331 8.77505 4.85331 9.46759 5.34292 9.63079Z" fill="black"/>
<path fill-rule="evenodd" clip-rule="evenodd" d="M5.75 4C3.54086 4 1.75 5.79086 1.75 8V16C1.75 18.2091 3.54086 20 5.75 20H15.75C17.6425 20 19.228 18.6858 19.6436 16.9202L20.55 17.6C21.8685 18.5889 23.75 17.6481 23.75 16V8C23.75 6.35191 21.8685 5.41115 20.55 6.4L19.6436 7.07977C19.228 5.31421 17.6425 4 15.75 4H5.75ZM21.75 16L19.75 14.5V9.5L21.75 8V16ZM3.75 8C3.75 6.89543 4.64543 6 5.75 6H15.75C16.8546 6 17.75 6.89543 17.75 8V16C17.75 17.1046 16.8546 18 15.75 18H5.75C4.64543 18 3.75 17.1046 3.75 16V8Z" fill="black"/>
</svg>
