<svg width="25" height="24" viewBox="0 0 25 24" fill="none" xmlns="http://www.w3.org/2000/svg">
<path d="M11.5 3C11.5 2.44772 11.9477 2 12.5 2C13.0523 2 13.5 2.44772 13.5 3V21C13.5 21.5523 13.0523 22 12.5 22C11.9477 22 11.5 21.5523 11.5 21V3Z" fill="black"/>
<path d="M20.5 3C21.0523 3 21.5 3.44772 21.5 4V18C21.5 18.5523 21.0523 19 20.5 19C19.9477 19 19.5 18.5523 19.5 18L19.5 4C19.5 3.44772 19.9477 3 20.5 3Z" fill="black"/>
<path d="M5 8C4.44772 8 4 8.44772 4 9V13C4 13.5523 4.44772 14 5 14C5.55228 14 6 13.5523 6 13V9C6 8.44772 5.55228 8 5 8Z" fill="black"/>
<path d="M17.5 8C17.5 7.44772 17.0523 7 16.5 7C15.9477 7 15.5 7.44772 15.5 8V14C15.5 14.5523 15.9477 15 16.5 15C17.0523 15 17.5 14.5523 17.5 14V8Z" fill="black"/>
<path d="M8.5 4C7.94772 4 7.5 4.44772 7.5 5V17C7.5 17.5523 7.94772 18 8.5 18C9.05228 18 9.5 17.5523 9.5 17V5C9.5 4.44772 9.05228 4 8.5 4Z" fill="black"/>
</svg>
