<svg width="25" height="24" viewBox="0 0 25 24" fill="none" xmlns="http://www.w3.org/2000/svg">
<path fill-rule="evenodd" clip-rule="evenodd" d="M16.75 3.86851C16.75 2.27112 14.9697 1.31833 13.6406 2.20441L9.76149 4.79048C9.51301 4.95613 9.23058 5.06404 8.93494 5.10627L5.18431 5.64208C3.21372 5.92359 1.75 7.61127 1.75 9.60188V14.3981C1.75 16.3887 3.21372 18.0764 5.18431 18.3579L8.93494 18.8937C9.23058 18.9359 9.51301 19.0438 9.76149 19.2095L13.6406 21.7956C14.9697 22.6816 16.75 21.7289 16.75 20.1315V3.86851ZM10.8709 6.45458L14.75 3.86851L14.75 20.1315L10.8709 17.5454C10.3739 17.2141 9.80906 16.9983 9.21778 16.9138L5.46715 16.378C4.48186 16.2372 3.75 15.3934 3.75 14.3981V9.60188C3.75 8.60657 4.48186 7.76273 5.46716 7.62198L9.21778 7.08617C9.80906 7.0017 10.3739 6.78589 10.8709 6.45458Z" fill="black"/>
<path d="M17.911 13.3092C17.3914 13.4965 17.122 14.0695 17.3092 14.589C17.4965 15.1086 18.0695 15.378 18.589 15.1908C20.064 14.6592 20.75 13.2766 20.75 12C20.75 10.7234 20.064 9.34075 18.589 8.80922C18.0695 8.62197 17.4965 8.89138 17.3092 9.41095C17.122 9.93053 17.3914 10.5035 17.911 10.6908C18.436 10.88 18.75 11.3869 18.75 12C18.75 12.613 18.436 13.12 17.911 13.3092Z" fill="black"/>
</svg>
