<svg width="25" height="24" viewBox="0 0 25 24" fill="none" xmlns="http://www.w3.org/2000/svg">
<path fill-rule="evenodd" clip-rule="evenodd" d="M16.75 3.86851C16.75 2.27112 14.9697 1.31833 13.6406 2.20441L9.76149 4.79048C9.51301 4.95613 9.23058 5.06404 8.93494 5.10627L5.18431 5.64208C3.21372 5.92359 1.75 7.61127 1.75 9.60188V14.3981C1.75 16.3887 3.21372 18.0764 5.18431 18.3579L8.93494 18.8937C9.23058 18.9359 9.51301 19.0438 9.76149 19.2095L13.6406 21.7956C14.9697 22.6816 16.75 21.7289 16.75 20.1315V3.86851ZM10.8709 6.45458L14.75 3.86851L14.75 20.1315L10.8709 17.5454C10.3739 17.2141 9.80906 16.9983 9.21778 16.9138L5.46715 16.378C4.48186 16.2372 3.75 15.3934 3.75 14.3981V9.60188C3.75 8.60657 4.48186 7.76273 5.46716 7.62198L9.21778 7.08617C9.80906 7.0017 10.3739 6.78589 10.8709 6.45458Z" fill="black"/>
<path d="M21.9926 11.8284L22.6997 11.1213C23.0902 10.7308 23.0902 10.0976 22.6997 9.7071C22.3092 9.31657 21.676 9.31657 21.2855 9.7071L20.5784 10.4142L19.8713 9.7071C19.4807 9.31657 18.8476 9.31657 18.457 9.7071C18.0665 10.0976 18.0665 10.7308 18.457 11.1213L19.1642 11.8284L18.457 12.5355C18.0665 12.926 18.0665 13.5592 18.457 13.9497C18.8476 14.3403 19.4807 14.3403 19.8713 13.9497L20.5784 13.2426L21.2855 13.9497C21.676 14.3403 22.3092 14.3403 22.6997 13.9497C23.0902 13.5592 23.0902 12.926 22.6997 12.5355L21.9926 11.8284Z" fill="black"/>
</svg>
