<svg width="25" height="24" viewBox="0 0 25 24" fill="none" xmlns="http://www.w3.org/2000/svg">
<path fill-rule="evenodd" clip-rule="evenodd" d="M13.6406 2.20441C14.9697 1.31833 16.75 2.27112 16.75 3.86851V20.1315C16.75 21.7289 14.9697 22.6816 13.6406 21.7956L9.76149 19.2095C9.51301 19.0438 9.23058 18.9359 8.93494 18.8937L5.18431 18.3579C3.21372 18.0764 1.75 16.3887 1.75 14.3981V9.60188C1.75 7.61127 3.21372 5.92359 5.18431 5.64208L8.93494 5.10627C9.23058 5.06404 9.51301 4.95613 9.76149 4.79048L13.6406 2.20441ZM14.75 3.86851L10.8709 6.45458C10.3739 6.78589 9.80906 7.0017 9.21778 7.08617L5.46716 7.62198C4.48186 7.76273 3.75 8.60657 3.75 9.60188V14.3981C3.75 15.3934 4.48186 16.2372 5.46715 16.378L9.21778 16.9138C9.80906 16.9983 10.3739 17.2141 10.8709 17.5454L14.75 20.1315L14.75 3.86851Z" fill="black"/>
<path d="M17.3092 14.589C17.122 14.0695 17.3914 13.4965 17.911 13.3092C18.436 13.12 18.75 12.613 18.75 12C18.75 11.3869 18.436 10.88 17.911 10.6908C17.3914 10.5035 17.122 9.93053 17.3092 9.41095C17.4965 8.89138 18.0695 8.62197 18.589 8.80922C20.064 9.34075 20.75 10.7234 20.75 12C20.75 13.2766 20.064 14.6592 18.589 15.1908C18.0695 15.378 17.4965 15.1086 17.3092 14.589Z" fill="black"/>
<path d="M18.411 17.0592C17.8914 17.2465 17.622 17.8194 17.8092 18.339C17.9965 18.8586 18.5695 19.128 19.089 18.9408C22.2306 17.8086 23.75 14.8512 23.75 12C23.75 9.14873 22.2306 6.19138 19.089 5.05921C18.5695 4.87197 17.9965 5.14138 17.8092 5.66095C17.622 6.18053 17.8914 6.75352 18.411 6.94076C20.6027 7.73062 21.75 9.81226 21.75 12C21.75 14.1877 20.6027 16.2694 18.411 17.0592Z" fill="black"/>
</svg>
