<svg width="25" height="24" viewBox="0 0 25 24" fill="none" xmlns="http://www.w3.org/2000/svg">
<path d="M23.4571 2.70711C23.8476 2.31658 23.8476 1.68342 23.4571 1.29289C23.0666 0.902369 22.4334 0.902369 22.0429 1.29289L2.04289 21.2929C1.65237 21.6834 1.65237 22.3166 2.04289 22.7071C2.43342 23.0976 3.06658 23.0976 3.45711 22.7071L23.4571 2.70711Z" fill="black"/>
<path d="M16.75 3.8686V5.17165L14.75 7.17165V3.8686L10.8709 6.45467C10.3739 6.78598 9.80906 7.0018 9.21778 7.08626L5.46716 7.62207C4.48186 7.76282 3.75 8.60667 3.75 9.60197V14.3982C3.75 15.3935 4.48186 16.2373 5.46715 16.3781L5.53401 16.3876L3.95044 17.9712C2.63289 17.3075 1.75 15.9442 1.75 14.3982V9.60197C1.75 7.61137 3.21372 5.92368 5.18431 5.64217L8.93494 5.10637C9.23058 5.06413 9.51301 4.95622 9.76149 4.79057L13.6406 2.2045C14.9697 1.31842 16.75 2.27121 16.75 3.8686Z" fill="black"/>
<path d="M14.75 12.8285L16.75 10.8285V20.1316C16.75 21.729 14.9697 22.6817 13.6406 21.7957L9.76149 19.2096C9.51301 19.0439 9.23058 18.936 8.93494 18.8938L8.71599 18.8625L10.334 17.2445C10.5199 17.3306 10.6994 17.4312 10.8709 17.5455L14.75 20.1316V12.8285Z" fill="black"/>
</svg>
