<svg width="25" height="24" viewBox="0 0 25 24" fill="none" xmlns="http://www.w3.org/2000/svg">
<path d="M9.80268 9.42109C9.97163 9.9194 10.495 10.1973 10.9964 10.0692C11.0196 10.0653 11.0807 10.0564 11.1972 10.0462C11.445 10.0246 11.9139 10 12.7497 10C13.5856 10 14.0544 10.0246 14.3023 10.0462C14.4187 10.0564 14.4799 10.0653 14.5031 10.0692C15.0045 10.1973 15.5278 9.9194 15.6968 9.42109C15.8741 8.89805 15.5939 8.33029 15.0708 8.15295C15.0708 8.15295 15.0714 8.15314 15.0692 8.1524L15.0676 8.15186L15.0643 8.15078L15.0579 8.14866L15.045 8.14459C15.0365 8.14195 15.028 8.13941 15.0194 8.13699C15.0024 8.13214 14.985 8.1276 14.9671 8.12331C14.9315 8.11478 14.8919 8.10669 14.8472 8.09896C14.7584 8.08363 14.6394 8.06802 14.4759 8.05378C14.1501 8.02538 13.6189 8 12.7497 8C11.8805 8 11.3494 8.02538 11.0235 8.05378C10.8601 8.06802 10.7411 8.08363 10.6523 8.09896C10.6075 8.10669 10.5679 8.11478 10.5324 8.12331C10.5145 8.1276 10.4971 8.13214 10.48 8.13699C10.4715 8.13941 10.4629 8.14195 10.4544 8.14459L10.4416 8.14866L10.4351 8.15078L10.4319 8.15186L10.4303 8.1524C10.4281 8.15314 10.4351 8.15078 10.4286 8.15295C9.90559 8.33029 9.62534 8.89805 9.80268 9.42109Z" fill="black"/>
<path fill-rule="evenodd" clip-rule="evenodd" d="M12.7497 5C11.2577 5 9.57704 5.06773 7.98284 5.42652C6.38625 5.78585 4.80742 6.45221 3.58644 7.70089C1.80252 9.5253 1.63088 11.936 1.80152 13.6543C2.01448 15.7987 3.64668 17.2766 5.38529 17.9878C7.09707 18.6881 9.01539 18.6881 10.7272 17.9878L10.7816 17.9656C12.0429 17.4496 13.4565 17.4496 14.7178 17.9656L14.7723 17.9878C16.484 18.6881 18.4024 18.6881 20.1142 17.9878C21.8528 17.2766 23.485 15.7987 23.6979 13.6543C23.8686 11.936 23.6969 9.5253 21.913 7.70089C20.692 6.45222 19.1132 5.78586 17.5166 5.42652C15.9224 5.06773 14.2417 5 12.7497 5ZM5.01643 9.09915C5.87597 8.22011 7.05013 7.68646 8.42198 7.37771C9.79623 7.06842 11.2994 7 12.7497 7C14.2 7 15.7032 7.06843 17.0775 7.37772C18.4493 7.68647 19.6235 8.22011 20.483 9.09915C21.6586 10.3014 21.8546 11.9777 21.7077 13.4566C21.5932 14.6093 20.685 15.5934 19.3569 16.1367C18.1304 16.6384 16.756 16.6384 15.5295 16.1367L15.4751 16.1145C13.7284 15.3999 11.771 15.3999 10.0244 16.1145L9.96993 16.1367C8.74346 16.6384 7.369 16.6384 6.14253 16.1367C4.81442 15.5934 3.9062 14.6093 3.79173 13.4566C3.64486 11.9777 3.84087 10.3014 5.01643 9.09915Z" fill="black"/>
</svg>
