<svg width="25" height="24" viewBox="0 0 25 24" fill="none" xmlns="http://www.w3.org/2000/svg">
<path fill-rule="evenodd" clip-rule="evenodd" d="M2.75 6.63868C2.75 4.62909 4.37909 3 6.38868 3H14.3759C14.7704 3 15.0914 3.15704 15.3178 3.31534C15.5439 3.47333 15.7331 3.67194 15.8868 3.85854C16.1917 4.22847 16.4745 4.69841 16.7151 5.11171C16.7751 5.21476 16.8328 5.31474 16.8886 5.41154C17.0734 5.73199 17.2381 6.01764 17.4018 6.26493C17.4829 6.38747 17.5527 6.48328 17.6118 6.55556H18.7507C20.9602 6.55556 22.75 8.34674 22.75 10.5556V15.5C21.9786 15.4972 21.2063 15.7901 20.6177 16.3787L19.9963 17H18.75C17.0931 17 15.75 15.6569 15.75 14C15.75 12.3431 17.0931 11 18.75 11H20.75V10.5556C20.75 9.45067 19.855 8.55556 18.7507 8.55556H17.2703C17.2563 8.55585 17.2422 8.55585 17.2282 8.55556H4.75V17C4.75 18.1046 5.64543 19 6.75 19H16.25C16.2782 19 16.3062 19.0012 16.3339 19.0035C16.0699 19.6382 16.0334 20.3453 16.2245 21H6.75C4.54086 21 2.75 19.2091 2.75 17V6.63868ZM4.75207 6.55556H15.2395L15.1354 6.37515C15.0845 6.28679 15.0348 6.20056 14.9868 6.1181C14.7415 5.6968 14.532 5.35928 14.3434 5.13042C14.2937 5.07015 14.2541 5.0282 14.2248 5H6.38868C5.51154 5 4.79536 5.68916 4.75207 6.55556ZM20.75 13H18.75C18.1977 13 17.75 13.4477 17.75 14C17.75 14.5523 18.1977 15 18.75 15H20.75V13Z" fill="black"/>
<path d="M23.4461 19.2071C23.8366 18.8166 23.8366 18.1834 23.4461 17.7929C23.0556 17.4024 22.4224 17.4024 22.0319 17.7929L20.0931 19.7316L19.8113 19.4497C19.4207 19.0592 18.7876 19.0592 18.397 19.4497C18.0065 19.8403 18.0065 20.4734 18.397 20.8639L19.386 21.8529C19.7766 22.2435 20.4097 22.2435 20.8003 21.8529L23.4461 19.2071Z" fill="black"/>
</svg>
