<svg width="25" height="24" viewBox="0 0 25 24" fill="none" xmlns="http://www.w3.org/2000/svg">
<path fill-rule="evenodd" clip-rule="evenodd" d="M2.75 6.63868C2.75 4.62909 4.37909 3 6.38868 3H14.3759C14.7704 3 15.0914 3.15704 15.3178 3.31534C15.5439 3.47333 15.7331 3.67194 15.8868 3.85854C16.1917 4.22847 16.4745 4.69841 16.7151 5.11171C16.7751 5.21476 16.8328 5.31474 16.8886 5.41154C17.0734 5.73199 17.2381 6.01764 17.4018 6.26493C17.4829 6.38747 17.5527 6.48328 17.6118 6.55556H18.7507C20.9602 6.55556 22.75 8.34674 22.75 10.5556V15.3411C22.3003 14.6647 21.5834 14.1813 20.75 14.0415V13H18.75C18.1977 13 17.75 13.4477 17.75 14C17.75 14.3423 17.9219 14.6443 18.1841 14.8246C17.6969 15.2875 17.365 15.9123 17.2748 16.6128C16.3644 16.0977 15.75 15.1206 15.75 14C15.75 12.3431 17.0931 11 18.75 11H20.75V10.5556C20.75 9.45067 19.855 8.55556 18.7507 8.55556H17.2703C17.2563 8.55585 17.2422 8.55585 17.2282 8.55556H4.75V17C4.75 18.1046 5.64543 19 6.75 19H16.25L16.2551 19C15.8516 19.6024 15.692 20.3132 15.7685 21H6.75C4.54086 21 2.75 19.2091 2.75 17V6.63868ZM4.75207 6.55556H15.2395L15.1354 6.37515C15.0845 6.28679 15.0348 6.20056 14.9868 6.1181C14.7415 5.6968 14.532 5.35928 14.3434 5.13042C14.2937 5.07015 14.2541 5.0282 14.2248 5H6.38868C5.51154 5 4.79536 5.68916 4.75207 6.55556Z" fill="black"/>
<path d="M22.4144 21.4141L20.9144 22.7474C20.5355 23.0842 19.9645 23.0842 19.5856 22.7474L18.0856 21.4141C17.6729 21.0472 17.6357 20.4151 18.0026 20.0023C18.3236 19.6412 18.8475 19.5675 19.25 19.8004V17C19.25 16.4477 19.6977 16 20.25 16C20.8023 16 21.25 16.4477 21.25 17V19.8004C21.6525 19.5675 22.1764 19.6412 22.4974 20.0023C22.8643 20.4151 22.8271 21.0472 22.4144 21.4141Z" fill="black"/>
</svg>
