<svg width="25" height="24" viewBox="0 0 25 24" fill="none" xmlns="http://www.w3.org/2000/svg">
<path fill-rule="evenodd" clip-rule="evenodd" d="M2.75 6.63868C2.75 4.62909 4.37909 3 6.38868 3H14.3759C14.7704 3 15.0914 3.15704 15.3178 3.31534C15.5439 3.47333 15.7331 3.67194 15.8868 3.85854C16.1917 4.22847 16.4745 4.69841 16.7151 5.11171C16.7751 5.21476 16.8328 5.31474 16.8886 5.41154C17.0734 5.73199 17.2381 6.01764 17.4018 6.26493C17.4829 6.38747 17.5527 6.48328 17.6118 6.55556H18.7507C20.9602 6.55556 22.75 8.34674 22.75 10.5556V15.2084L22.2431 14.7578C21.8082 14.3712 21.289 14.1326 20.75 14.0418V13H18.75C18.1977 13 17.75 13.4477 17.75 14C17.75 14.3417 17.9213 14.6433 18.1828 14.8237L16.7569 16.0911C16.729 16.1159 16.7017 16.1411 16.675 16.1666C16.1049 15.6206 15.75 14.8517 15.75 14C15.75 12.3431 17.0931 11 18.75 11H20.75V10.5556C20.75 9.45067 19.855 8.55556 18.7507 8.55556H17.2703C17.2563 8.55585 17.2422 8.55585 17.2282 8.55556H4.75V17C4.75 18.1046 5.64543 19 6.75 19H15.8244C15.9328 19.4773 16.1596 19.9348 16.5078 20.3264C16.6406 20.4758 16.785 20.6089 16.9384 20.7253C16.7591 20.8955 16.5168 21 16.25 21H6.75C4.54086 21 2.75 19.2091 2.75 17V6.63868ZM4.75207 6.55556H15.2395L15.1354 6.37515C15.0845 6.28679 15.0348 6.20056 14.9868 6.1181C14.7415 5.6968 14.532 5.35928 14.3434 5.13042C14.2937 5.07015 14.2541 5.0282 14.2248 5H6.38868C5.51154 5 4.79536 5.68916 4.75207 6.55556Z" fill="black"/>
<path d="M20.9144 16.2526C20.5355 15.9158 19.9645 15.9158 19.5856 16.2526L18.0856 17.5859C17.6729 17.9528 17.6357 18.5849 18.0026 18.9977C18.3236 19.3588 18.8475 19.4325 19.25 19.1996V22C19.25 22.5523 19.6977 23 20.25 23C20.8023 23 21.25 22.5523 21.25 22V19.1996C21.6525 19.4325 22.1764 19.3588 22.4974 18.9977C22.8643 18.5849 22.8271 17.9528 22.4144 17.5859L20.9144 16.2526Z" fill="black"/>
</svg>
