<svg width="25" height="24" viewBox="0 0 25 24" fill="none" xmlns="http://www.w3.org/2000/svg">
<path fill-rule="evenodd" clip-rule="evenodd" d="M2.75 6.63868C2.75 4.62909 4.37909 3 6.38868 3H14.3759C14.7704 3 15.0914 3.15704 15.3178 3.31534C15.5439 3.47333 15.7331 3.67194 15.8868 3.85854C16.1917 4.22847 16.4745 4.69841 16.7151 5.11171C16.7751 5.21476 16.8328 5.31474 16.8886 5.41154C17.0734 5.73199 17.2381 6.01764 17.4018 6.26493C17.4829 6.38747 17.5527 6.48328 17.6118 6.55556H18.7507C20.9602 6.55556 22.75 8.34674 22.75 10.5556V15.5109C22.0278 15.3232 21.2493 15.4088 20.5784 15.7676C19.4434 15.1605 18.0002 15.3356 17.0429 16.2929C17.0091 16.3267 16.9763 16.3611 16.9445 16.396C16.2189 15.8485 15.75 14.979 15.75 14C15.75 12.3431 17.0931 11 18.75 11H20.75V10.5556C20.75 9.45067 19.855 8.55556 18.7507 8.55556H17.2703C17.2563 8.55585 17.2422 8.55585 17.2282 8.55556H4.75V17C4.75 18.1046 5.64543 19 6.75 19H16.2216C16.2783 19.2861 16.377 19.5655 16.5176 19.8284C16.3212 20.1957 16.2066 20.5951 16.174 21H6.75C4.54086 21 2.75 19.2091 2.75 17V6.63868ZM4.75207 6.55556H15.2395L15.1354 6.37515C15.0845 6.28679 15.0348 6.20056 14.9868 6.1181C14.7415 5.6968 14.532 5.35928 14.3434 5.13042C14.2937 5.07015 14.2541 5.0282 14.2248 5H6.38868C5.51154 5 4.79536 5.68916 4.75207 6.55556ZM20.75 13H18.75C18.1977 13 17.75 13.4477 17.75 14C17.75 14.5523 18.1977 15 18.75 15H20.75V13Z" fill="black"/>
<path d="M21.9926 19.8284L22.6997 19.1213C23.0902 18.7308 23.0902 18.0976 22.6997 17.7071C22.3092 17.3166 21.676 17.3166 21.2855 17.7071L20.5784 18.4142L19.8713 17.7071C19.4807 17.3166 18.8476 17.3166 18.457 17.7071C18.0665 18.0976 18.0665 18.7308 18.457 19.1213L19.1642 19.8284L18.457 20.5355C18.0665 20.9261 18.0665 21.5592 18.457 21.9497C18.8476 22.3403 19.4807 22.3403 19.8713 21.9497L20.5784 21.2426L21.2855 21.9497C21.676 22.3403 22.3092 22.3403 22.6997 21.9497C23.0902 21.5592 23.0902 20.9261 22.6997 20.5355L21.9926 19.8284Z" fill="black"/>
</svg>
