<svg width="25" height="24" viewBox="0 0 25 24" fill="none" xmlns="http://www.w3.org/2000/svg">
<path fill-rule="evenodd" clip-rule="evenodd" d="M5.97476 3C4.19378 3 2.75 4.44377 2.75 6.22476V17C2.75 19.2091 4.54086 21 6.75 21H18.75C20.9591 21 22.75 19.2091 22.75 17V10.5556C22.75 8.34684 20.9605 6.55556 18.751 6.55556H15.6397C15.5998 6.49686 15.5538 6.42219 15.5018 6.32912C15.3609 6.07715 15.2238 5.78111 15.0666 5.44151C15.0293 5.36093 14.9909 5.27786 14.951 5.19239C14.7598 4.7827 14.5281 4.30151 14.2599 3.91975C14.0373 3.60286 13.5509 3 12.7638 3H5.97476ZM13.2376 6.25176C13.2832 6.35036 13.3304 6.45243 13.3788 6.55556H4.75V6.22476C4.75 5.54834 5.29834 5 5.97476 5H12.5719C12.5868 5.01884 12.604 5.04178 12.6234 5.0695C12.776 5.28671 12.9403 5.61316 13.1386 6.0382C13.1706 6.10678 13.2037 6.17835 13.2376 6.25176ZM6.75 19C5.64543 19 4.75 18.1046 4.75 17V8.55556H15.2282C15.2308 8.55561 15.2334 8.55566 15.2361 8.55569C15.2475 8.55584 15.2589 8.5558 15.2703 8.55556H18.751C19.8551 8.55556 20.75 9.45056 20.75 10.5556V11H18.75C17.0931 11 15.75 12.3431 15.75 14C15.75 15.6569 17.0931 17 18.75 17H20.75C20.75 18.1046 19.8546 19 18.75 19H6.75ZM17.75 14C17.75 13.4477 18.1977 13 18.75 13H20.75V15H18.75C18.1977 15 17.75 14.5523 17.75 14ZM12.5014 4.92323C12.5014 4.92272 12.5055 4.92566 12.5137 4.93356C12.5055 4.92769 12.5014 4.92374 12.5014 4.92323Z" fill="black"/>
</svg>
