<svg width="25" height="24" viewBox="0 0 25 24" fill="none" xmlns="http://www.w3.org/2000/svg">
<path fill-rule="evenodd" clip-rule="evenodd" d="M14.1728 3.10677C13.717 1.73922 11.7826 1.73924 11.3268 3.10677L7.58289 14.3385C6.984 16.1352 7.45161 18.116 8.79077 19.4551L9.21429 19.8787C11.1669 21.8313 14.3327 21.8313 16.2854 19.8787L16.7089 19.4551C18.048 18.116 18.5156 16.1351 17.9167 14.3385L14.1728 3.10677ZM9.48026 14.9709L12.7498 5.16226L16.0194 14.9709C16.3787 16.0489 16.0981 17.2374 15.2946 18.0409L14.8711 18.4644C13.6996 19.636 11.8001 19.636 10.6285 18.4644L10.205 18.0409C9.40149 17.2374 9.12092 16.0489 9.48026 14.9709Z" fill="black"/>
</svg>
