<svg width="25" height="24" viewBox="0 0 25 24" fill="none" xmlns="http://www.w3.org/2000/svg">
<path d="M12.2507 5C10.9375 5 9.63715 5.25866 8.42389 5.7612C7.21063 6.26375 6.10824 7.00035 5.17966 7.92893C4.25107 8.85752 3.51448 9.95991 3.01193 11.1732C2.80058 11.6834 3.04288 12.2684 3.55313 12.4797C4.06337 12.6911 4.64834 12.4488 4.85969 11.9385C5.26173 10.9679 5.851 10.086 6.59387 9.34315C7.33674 8.60028 8.21865 8.011 9.18926 7.60896C10.1599 7.20693 11.2001 7 12.2507 7C13.3013 7 14.3416 7.20693 15.3122 7.60896C16.2828 8.011 17.1647 8.60028 17.9076 9.34315C18.6504 10.086 19.2397 10.9679 19.6418 11.9385C19.8531 12.4488 20.4381 12.6911 20.9483 12.4797C21.4586 12.2684 21.7009 11.6834 21.4895 11.1732C20.987 9.95991 20.2504 8.85752 19.3218 7.92893C18.3932 7.00035 17.2908 6.26375 16.0776 5.7612C14.8643 5.25866 13.5639 5 12.2507 5Z" fill="black"/>
<path d="M12.2508 8C11.3315 8 10.4213 8.18106 9.57199 8.53284C8.72271 8.88463 7.95104 9.40024 7.30103 10.0503C6.65102 10.7003 6.1354 11.4719 5.78362 12.3212C5.65826 12.6239 5.55459 12.9342 5.47306 13.25C5.33498 13.7847 5.65655 14.3302 6.1913 14.4682C6.72605 14.6063 7.27148 14.2847 7.40955 13.75C7.46778 13.5245 7.54184 13.3028 7.63138 13.0866C7.88265 12.48 8.25095 11.9288 8.71524 11.4645C9.17954 11.0002 9.73073 10.6319 10.3374 10.3806C10.944 10.1293 11.5942 10 12.2508 10C12.9074 10 13.5576 10.1293 14.1642 10.3806C14.7708 10.6319 15.322 11.0002 15.7863 11.4645C16.2506 11.9288 16.6189 12.48 16.8702 13.0866C16.9597 13.3028 17.0338 13.5245 17.092 13.75C17.2301 14.2847 17.7755 14.6063 18.3103 14.4682C18.845 14.3302 19.1666 13.7847 19.0285 13.25C18.947 12.9342 18.8433 12.6239 18.7179 12.3212C18.3662 11.4719 17.8505 10.7003 17.2005 10.0503C16.5505 9.40024 15.7788 8.88463 14.9296 8.53284C14.0803 8.18106 13.17 8 12.2508 8Z" fill="black"/>
<path d="M10.72 11.3045C11.2054 11.1035 11.7255 11 12.2508 11C12.7761 11 13.2962 11.1035 13.7815 11.3045C14.2668 11.5055 14.7078 11.8001 15.0792 12.1716C15.4506 12.543 15.7453 12.984 15.9463 13.4693C16.0616 13.7477 16.1448 14.0376 16.1948 14.3333C16.2869 14.8779 15.92 15.394 15.3755 15.486C14.8309 15.5781 14.3149 15.2112 14.2228 14.6667C14.1978 14.5188 14.1562 14.3738 14.0985 14.2346C13.998 13.992 13.8507 13.7715 13.665 13.5858C13.4793 13.4001 13.2588 13.2528 13.0161 13.1522C12.7735 13.0517 12.5134 13 12.2508 13C11.9881 13 11.7281 13.0517 11.4854 13.1522C11.2428 13.2528 11.0223 13.4001 10.8366 13.5858C10.6509 13.7715 10.5035 13.992 10.403 14.2346C10.3454 14.3738 10.3038 14.5188 10.2788 14.6667C10.1867 15.2112 9.67064 15.5781 9.12607 15.486C8.58151 15.394 8.21468 14.8779 8.30673 14.3333C8.35672 14.0376 8.43994 13.7477 8.55526 13.4693C8.75628 12.984 9.05092 12.543 9.42235 12.1716C9.79379 11.8001 10.2347 11.5055 10.72 11.3045Z" fill="black"/>
<path d="M12.2507 18C13.0792 18 13.7507 17.3284 13.7507 16.5C13.7507 15.6716 13.0792 15 12.2507 15C11.4223 15 10.7508 15.6716 10.7508 16.5C10.7508 17.3284 11.4223 18 12.2507 18Z" fill="black"/>
</svg>
