<svg width="25" height="24" viewBox="0 0 25 24" fill="none" xmlns="http://www.w3.org/2000/svg">
<path d="M12.75 10C12.75 9.44772 12.3023 9 11.75 9C11.1977 9 10.75 9.44772 10.75 10V13C10.75 13.5523 11.1977 14 11.75 14H13.75C14.3023 14 14.75 13.5523 14.75 13C14.75 12.4477 14.3023 12 13.75 12H12.75V10Z" fill="black"/>
<path fill-rule="evenodd" clip-rule="evenodd" d="M16.25 6V7.52784C17.4761 8.62531 18.25 10.2224 18.25 12C18.25 13.7776 17.4761 15.3747 16.25 16.4722V18C16.25 20.2091 14.4591 22 12.25 22C10.0409 22 8.25 20.2091 8.25 18V16.4722C7.02389 15.3747 6.25 13.7776 6.25 12C6.25 10.2224 7.02389 8.62531 8.25 7.52784V6C8.25 3.79086 10.0409 2 12.25 2C14.4591 2 16.25 3.79086 16.25 6ZM10.25 6C10.25 4.89543 11.1454 4 12.25 4C13.3546 4 14.25 4.89543 14.25 6V6.3417C13.6241 6.12044 12.9507 6 12.25 6C11.5493 6 10.8759 6.12044 10.25 6.3417V6ZM12.25 18C12.9507 18 13.6241 17.8796 14.25 17.6583V18C14.25 19.1046 13.3546 20 12.25 20C11.1454 20 10.25 19.1046 10.25 18V17.6583C10.8759 17.8796 11.5493 18 12.25 18ZM9.85058 8.7992C10.519 8.29712 11.3484 8 12.25 8C13.1516 8 13.981 8.29712 14.6494 8.7992C15.6232 9.53066 16.25 10.692 16.25 12C16.25 13.308 15.6232 14.4693 14.6494 15.2008C13.981 15.7029 13.1516 16 12.25 16C11.3484 16 10.519 15.7029 9.85058 15.2008C8.87676 14.4693 8.25 13.308 8.25 12C8.25 10.692 8.87676 9.53066 9.85058 8.7992Z" fill="black"/>
</svg>
