<svg width="25" height="24" viewBox="0 0 25 24" fill="none" xmlns="http://www.w3.org/2000/svg">
<path d="M8.56381 3.91872C8.2428 3.4693 7.61825 3.36521 7.16884 3.68622C6.71943 4.00723 6.61534 4.63178 6.93634 5.08119L11.7501 11.8204V12H8.75008C8.19779 12 7.75008 12.4477 7.75008 13C7.75008 13.5522 8.19779 14 8.75008 14H11.7501V14.5H8.75008C8.19779 14.5 7.75008 14.9477 7.75008 15.5C7.75008 16.0522 8.19779 16.5 8.75008 16.5H11.7501V20.5C11.7501 21.0522 12.1978 21.5 12.7501 21.5C13.3024 21.5 13.7501 21.0522 13.7501 20.5V16.5H16.7501C17.3024 16.5 17.7501 16.0522 17.7501 15.5C17.7501 14.9477 17.3024 14.5 16.7501 14.5H13.7501V14H16.7501C17.3024 14 17.7501 13.5522 17.7501 13C17.7501 12.4477 17.3024 12 16.7501 12H13.7501V11.8204L18.5638 5.08119C18.8848 4.63178 18.7807 4.00723 18.3313 3.68622C17.8819 3.36521 17.2574 3.4693 16.9363 3.91872L12.7501 9.77949L8.56381 3.91872Z" fill="black"/>
</svg>
