<svg width="25" height="24" viewBox="0 0 25 24" fill="none" xmlns="http://www.w3.org/2000/svg">
<path d="M7.25 9C6.69772 9 6.25 9.44771 6.25 10C6.25 10.5523 6.69772 11 7.25 11H13.25C13.8023 11 14.25 10.5523 14.25 10C14.25 9.44771 13.8023 9 13.25 9H7.25Z" fill="black"/>
<path fill-rule="evenodd" clip-rule="evenodd" d="M1.25 10C1.25 5.02944 5.27944 1 10.25 1C15.2206 1 19.25 5.02944 19.25 10C19.25 12.125 18.5135 14.078 17.2819 15.6177L20.9571 19.2929C21.3476 19.6834 21.3476 20.3166 20.9571 20.7071C20.5666 21.0976 19.9334 21.0976 19.5429 20.7071L15.8677 17.0319C14.328 18.2635 12.375 19 10.25 19C5.27944 19 1.25 14.9706 1.25 10ZM10.25 3C6.38401 3 3.25 6.13401 3.25 10C3.25 13.866 6.38401 17 10.25 17C14.116 17 17.25 13.866 17.25 10C17.25 6.13401 14.116 3 10.25 3Z" fill="black"/>
</svg>
